<?xml version="1.0" encoding="UTF-8" standalone="no"?><svg xmlns="http://www.w3.org/2000/svg" xmlns:xlink="http://www.w3.org/1999/xlink" contentScriptType="application/ecmascript" contentStyleType="text/css" height="755px" preserveAspectRatio="none" style="width:1339px;height:755px;" version="1.1" viewBox="0 0 1339 755" width="1339px" zoomAndPan="magnify"><defs><filter height="300%" id="f90dtf1" width="300%" x="-1" y="-1"><feGaussianBlur result="blurOut" stdDeviation="2.0"/><feColorMatrix in="blurOut" result="blurOut2" type="matrix" values="0 0 0 0 0 0 0 0 0 0 0 0 0 0 0 0 0 0 .4 0"/><feOffset dx="4.0" dy="4.0" in="blurOut2" result="blurOut3"/><feBlend in="SourceGraphic" in2="blurOut3" mode="normal"/></filter></defs><g><text fill="#000000" font-family="sans-serif" font-size="18" font-weight="bold" lengthAdjust="spacingAndGlyphs" textLength="116" x="616" y="16.708">Data Terms</text><!--class basicTerm--><rect fill="#FEFECE" filter="url(#f90dtf1)" height="240.0703" style="stroke: #A80036; stroke-width: 1.5;" width="96" x="761" y="28.9531"/><ellipse cx="776" cy="44.9531" fill="#E6FFE6" rx="11" ry="11" style="stroke: #A80036; stroke-width: 1.0;"/><path d="M777.9531,45.8594 L774.3125,45.8594 L774.3125,48.25 L774.5625,48.25 C775.0156,48.25 775.1875,48.2813 775.3281,48.4063 C775.5625,48.5781 775.6875,48.8281 775.6875,49.1094 C775.6875,49.3906 775.5313,49.6875 775.2813,49.8281 C775.1406,49.9219 774.9219,49.9531 774.5625,49.9531 L772.5156,49.9531 C772.1094,49.9531 771.8906,49.9063 771.7344,49.7969 C771.5313,49.625 771.3906,49.3594 771.3906,49.1094 C771.3906,48.8125 771.5469,48.5313 771.7969,48.375 C771.9531,48.2656 772.0938,48.25 772.5156,48.25 L772.6094,48.25 L772.6094,41.7344 C772.0469,41.6875 771.7344,41.3906 771.7344,40.8906 C771.7344,40.6094 771.8906,40.3125 772.1406,40.1563 C772.2969,40.0625 772.4219,40.0469 772.8594,40.0469 L774.5625,40.0469 C775.0313,40.0469 775.1875,40.0781 775.3281,40.1875 C775.5625,40.3594 775.6875,40.625 775.6875,40.8906 C775.6875,41.1875 775.5313,41.4688 775.2813,41.625 C775.125,41.7031 774.9844,41.7344 774.5625,41.7344 L774.3125,41.7344 L774.3125,44.1563 L777.9531,44.1563 L777.9531,41.7344 L777.7031,41.7344 C777.25,41.7344 777.1094,41.7031 776.9375,41.5938 C776.7188,41.4219 776.5781,41.1719 776.5781,40.8906 C776.5781,40.6094 776.7344,40.3125 776.9844,40.1563 C777.1406,40.0625 777.2656,40.0469 777.7031,40.0469 L779.4219,40.0469 C779.875,40.0469 780.0313,40.0781 780.2031,40.1875 C780.4063,40.3594 780.5313,40.625 780.5313,40.8906 C780.5313,41.3906 780.2188,41.6875 779.6563,41.7344 L779.6563,48.25 L779.75,48.25 C780.2188,48.25 780.3594,48.2813 780.5156,48.4063 C780.7344,48.5781 780.875,48.8281 780.875,49.1094 C780.875,49.3906 780.7188,49.6875 780.4688,49.8281 C780.3281,49.9219 780.1094,49.9531 779.75,49.9531 L777.7031,49.9531 C777.2969,49.9531 777.0938,49.9063 776.9375,49.7969 C776.7188,49.625 776.5781,49.3594 776.5781,49.1094 C776.5781,48.8125 776.7344,48.5313 776.9844,48.375 C777.1406,48.2656 777.2969,48.25 777.7031,48.25 L777.9531,48.25 Z "/><text fill="#000000" font-family="sans-serif" font-size="12" lengthAdjust="spacingAndGlyphs" textLength="64" x="790" y="49.1074">basicTerm</text><line style="stroke: #A80036; stroke-width: 1.5;" x1="762" x2="856" y1="60.9531" y2="60.9531"/><text fill="#000000" font-family="sans-serif" font-size="11" lengthAdjust="spacingAndGlyphs" textLength="13" x="781" y="75.1636">+f</text><ellipse cx="772" cy="85.6602" fill="none" rx="3" ry="3" style="stroke: #038048; stroke-width: 1.0;"/><text fill="#000000" font-family="sans-serif" font-size="11" lengthAdjust="spacingAndGlyphs" textLength="33" x="781" y="87.9683">factor</text><ellipse cx="772" cy="98.4648" fill="none" rx="3" ry="3" style="stroke: #038048; stroke-width: 1.0;"/><text fill="#000000" font-family="sans-serif" font-size="11" lengthAdjust="spacingAndGlyphs" textLength="35" x="781" y="100.7729">length</text><ellipse cx="772" cy="111.2695" fill="none" rx="3" ry="3" style="stroke: #038048; stroke-width: 1.0;"/><text fill="#000000" font-family="sans-serif" font-size="11" lengthAdjust="spacingAndGlyphs" textLength="53" x="781" y="113.5776">mySigma</text><ellipse cx="772" cy="124.0742" fill="none" rx="3" ry="3" style="stroke: #038048; stroke-width: 1.0;"/><text fill="#000000" font-family="sans-serif" font-size="11" lengthAdjust="spacingAndGlyphs" textLength="38" x="781" y="126.3823">myTau</text><ellipse cx="772" cy="136.8789" fill="none" rx="3" ry="3" style="stroke: #038048; stroke-width: 1.0;"/><text fill="#000000" font-family="sans-serif" font-size="11" lengthAdjust="spacingAndGlyphs" textLength="68" x="781" y="139.187">numPrimals</text><ellipse cx="772" cy="149.6836" fill="none" rx="3" ry="3" style="stroke: #038048; stroke-width: 1.0;"/><text fill="#000000" font-family="sans-serif" font-size="11" lengthAdjust="spacingAndGlyphs" textLength="51" x="781" y="151.9917">numVars</text><ellipse cx="772" cy="162.4883" fill="none" rx="3" ry="3" style="stroke: #038048; stroke-width: 1.0;"/><text fill="#000000" font-family="sans-serif" font-size="11" lengthAdjust="spacingAndGlyphs" textLength="49" x="781" y="164.7964">operator</text><ellipse cx="772" cy="175.293" fill="none" rx="3" ry="3" style="stroke: #038048; stroke-width: 1.0;"/><text fill="#000000" font-family="sans-serif" font-size="11" lengthAdjust="spacingAndGlyphs" textLength="56" x="781" y="177.6011">operatorT</text><line style="stroke: #A80036; stroke-width: 1.5;" x1="762" x2="856" y1="184.1953" y2="184.1953"/><ellipse cx="772" cy="196.0977" fill="#84BE84" rx="3" ry="3" style="stroke: #038048; stroke-width: 1.0;"/><text fill="#000000" font-family="sans-serif" font-size="11" lengthAdjust="spacingAndGlyphs" textLength="68" x="781" y="198.4058">basicTerm()</text><ellipse cx="772" cy="208.9023" fill="#84BE84" rx="3" ry="3" style="stroke: #038048; stroke-width: 1.0;"/><text fill="#000000" font-family="sans-serif" font-size="11" lengthAdjust="spacingAndGlyphs" textLength="25" x="781" y="211.2104">init()</text><ellipse cx="772" cy="221.707" fill="#84BE84" rx="3" ry="3" style="stroke: #038048; stroke-width: 1.0;"/><text fill="#000000" font-family="sans-serif" font-size="11" lengthAdjust="spacingAndGlyphs" textLength="43" x="781" y="224.0151">xError()</text><ellipse cx="772" cy="234.5117" fill="#84BE84" rx="3" ry="3" style="stroke: #038048; stroke-width: 1.0;"/><text fill="#000000" font-family="sans-serif" font-size="11" lengthAdjust="spacingAndGlyphs" textLength="41" x="781" y="236.8198">xTilde()</text><ellipse cx="772" cy="247.3164" fill="#84BE84" rx="3" ry="3" style="stroke: #038048; stroke-width: 1.0;"/><text fill="#000000" font-family="sans-serif" font-size="11" lengthAdjust="spacingAndGlyphs" textLength="43" x="781" y="249.6245">yError()</text><ellipse cx="772" cy="260.1211" fill="#84BE84" rx="3" ry="3" style="stroke: #038048; stroke-width: 1.0;"/><text fill="#000000" font-family="sans-serif" font-size="11" lengthAdjust="spacingAndGlyphs" textLength="41" x="781" y="262.4292">yTilde()</text><!--class basicDualizedDataterm--><rect fill="#FEFECE" filter="url(#f90dtf1)" height="60.8047" style="stroke: #A80036; stroke-width: 1.5;" width="176" x="721" y="335.4531"/><ellipse cx="736" cy="351.4531" fill="#E6FFE6" rx="11" ry="11" style="stroke: #A80036; stroke-width: 1.0;"/><path d="M737.9531,352.3594 L734.3125,352.3594 L734.3125,354.75 L734.5625,354.75 C735.0156,354.75 735.1875,354.7813 735.3281,354.9063 C735.5625,355.0781 735.6875,355.3281 735.6875,355.6094 C735.6875,355.8906 735.5313,356.1875 735.2813,356.3281 C735.1406,356.4219 734.9219,356.4531 734.5625,356.4531 L732.5156,356.4531 C732.1094,356.4531 731.8906,356.4063 731.7344,356.2969 C731.5313,356.125 731.3906,355.8594 731.3906,355.6094 C731.3906,355.3125 731.5469,355.0313 731.7969,354.875 C731.9531,354.7656 732.0938,354.75 732.5156,354.75 L732.6094,354.75 L732.6094,348.2344 C732.0469,348.1875 731.7344,347.8906 731.7344,347.3906 C731.7344,347.1094 731.8906,346.8125 732.1406,346.6563 C732.2969,346.5625 732.4219,346.5469 732.8594,346.5469 L734.5625,346.5469 C735.0313,346.5469 735.1875,346.5781 735.3281,346.6875 C735.5625,346.8594 735.6875,347.125 735.6875,347.3906 C735.6875,347.6875 735.5313,347.9688 735.2813,348.125 C735.125,348.2031 734.9844,348.2344 734.5625,348.2344 L734.3125,348.2344 L734.3125,350.6563 L737.9531,350.6563 L737.9531,348.2344 L737.7031,348.2344 C737.25,348.2344 737.1094,348.2031 736.9375,348.0938 C736.7188,347.9219 736.5781,347.6719 736.5781,347.3906 C736.5781,347.1094 736.7344,346.8125 736.9844,346.6563 C737.1406,346.5625 737.2656,346.5469 737.7031,346.5469 L739.4219,346.5469 C739.875,346.5469 740.0313,346.5781 740.2031,346.6875 C740.4063,346.8594 740.5313,347.125 740.5313,347.3906 C740.5313,347.8906 740.2188,348.1875 739.6563,348.2344 L739.6563,354.75 L739.75,354.75 C740.2188,354.75 740.3594,354.7813 740.5156,354.9063 C740.7344,355.0781 740.875,355.3281 740.875,355.6094 C740.875,355.8906 740.7188,356.1875 740.4688,356.3281 C740.3281,356.4219 740.1094,356.4531 739.75,356.4531 L737.7031,356.4531 C737.2969,356.4531 737.0938,356.4063 736.9375,356.2969 C736.7188,356.125 736.5781,355.8594 736.5781,355.6094 C736.5781,355.3125 736.7344,355.0313 736.9844,354.875 C737.1406,354.7656 737.2969,354.75 737.7031,354.75 L737.9531,354.75 Z "/><text fill="#000000" font-family="sans-serif" font-size="12" lengthAdjust="spacingAndGlyphs" textLength="144" x="750" y="355.6074">basicDualizedDataterm</text><line style="stroke: #A80036; stroke-width: 1.5;" x1="722" x2="896" y1="367.4531" y2="367.4531"/><line style="stroke: #A80036; stroke-width: 1.5;" x1="722" x2="896" y1="375.4531" y2="375.4531"/><ellipse cx="732" cy="387.3555" fill="#84BE84" rx="3" ry="3" style="stroke: #038048; stroke-width: 1.0;"/><text fill="#000000" font-family="sans-serif" font-size="11" lengthAdjust="spacingAndGlyphs" textLength="138" x="741" y="389.6636">basicDualizedDataterm()</text><!--class basicOpticalFlow--><rect fill="#FEFECE" filter="url(#f90dtf1)" height="163.2422" style="stroke: #A80036; stroke-width: 1.5;" width="168" x="737" y="462.9531"/><ellipse cx="766.85" cy="478.9531" fill="#E6FFE6" rx="11" ry="11" style="stroke: #A80036; stroke-width: 1.0;"/><path d="M768.8031,479.8594 L765.1625,479.8594 L765.1625,482.25 L765.4125,482.25 C765.8656,482.25 766.0375,482.2813 766.1781,482.4063 C766.4125,482.5781 766.5375,482.8281 766.5375,483.1094 C766.5375,483.3906 766.3813,483.6875 766.1313,483.8281 C765.9906,483.9219 765.7719,483.9531 765.4125,483.9531 L763.3656,483.9531 C762.9594,483.9531 762.7406,483.9063 762.5844,483.7969 C762.3813,483.625 762.2406,483.3594 762.2406,483.1094 C762.2406,482.8125 762.3969,482.5313 762.6469,482.375 C762.8031,482.2656 762.9438,482.25 763.3656,482.25 L763.4594,482.25 L763.4594,475.7344 C762.8969,475.6875 762.5844,475.3906 762.5844,474.8906 C762.5844,474.6094 762.7406,474.3125 762.9906,474.1563 C763.1469,474.0625 763.2719,474.0469 763.7094,474.0469 L765.4125,474.0469 C765.8813,474.0469 766.0375,474.0781 766.1781,474.1875 C766.4125,474.3594 766.5375,474.625 766.5375,474.8906 C766.5375,475.1875 766.3813,475.4688 766.1313,475.625 C765.975,475.7031 765.8344,475.7344 765.4125,475.7344 L765.1625,475.7344 L765.1625,478.1563 L768.8031,478.1563 L768.8031,475.7344 L768.5531,475.7344 C768.1,475.7344 767.9594,475.7031 767.7875,475.5938 C767.5688,475.4219 767.4281,475.1719 767.4281,474.8906 C767.4281,474.6094 767.5844,474.3125 767.8344,474.1563 C767.9906,474.0625 768.1156,474.0469 768.5531,474.0469 L770.2719,474.0469 C770.725,474.0469 770.8813,474.0781 771.0531,474.1875 C771.2563,474.3594 771.3813,474.625 771.3813,474.8906 C771.3813,475.3906 771.0688,475.6875 770.5063,475.7344 L770.5063,482.25 L770.6,482.25 C771.0688,482.25 771.2094,482.2813 771.3656,482.4063 C771.5844,482.5781 771.725,482.8281 771.725,483.1094 C771.725,483.3906 771.5688,483.6875 771.3188,483.8281 C771.1781,483.9219 770.9594,483.9531 770.6,483.9531 L768.5531,483.9531 C768.1469,483.9531 767.9438,483.9063 767.7875,483.7969 C767.5688,483.625 767.4281,483.3594 767.4281,483.1094 C767.4281,482.8125 767.5844,482.5313 767.8344,482.375 C767.9906,482.2656 768.1469,482.25 768.5531,482.25 L768.8031,482.25 Z "/><text fill="#000000" font-family="sans-serif" font-size="12" lengthAdjust="spacingAndGlyphs" textLength="103" x="784.15" y="483.1074">basicOpticalFlow</text><line style="stroke: #A80036; stroke-width: 1.5;" x1="738" x2="904" y1="494.9531" y2="494.9531"/><ellipse cx="748" cy="506.8555" fill="none" rx="3" ry="3" style="stroke: #038048; stroke-width: 1.0;"/><text fill="#000000" font-family="sans-serif" font-size="11" lengthAdjust="spacingAndGlyphs" textLength="117" x="757" y="509.1636">constancyDimension</text><ellipse cx="748" cy="519.6602" fill="none" rx="3" ry="3" style="stroke: #038048; stroke-width: 1.0;"/><text fill="#000000" font-family="sans-serif" font-size="11" lengthAdjust="spacingAndGlyphs" textLength="64" x="757" y="521.9683">numSpatial</text><ellipse cx="748" cy="532.4648" fill="none" rx="3" ry="3" style="stroke: #038048; stroke-width: 1.0;"/><text fill="#000000" font-family="sans-serif" font-size="11" lengthAdjust="spacingAndGlyphs" textLength="54" x="757" y="534.7729">termType</text><ellipse cx="748" cy="545.2695" fill="none" rx="3" ry="3" style="stroke: #038048; stroke-width: 1.0;"/><text fill="#000000" font-family="sans-serif" font-size="11" lengthAdjust="spacingAndGlyphs" textLength="63" x="757" y="547.5776">thisImage1</text><ellipse cx="748" cy="558.0742" fill="none" rx="3" ry="3" style="stroke: #038048; stroke-width: 1.0;"/><text fill="#000000" font-family="sans-serif" font-size="11" lengthAdjust="spacingAndGlyphs" textLength="63" x="757" y="560.3823">thisImage2</text><line style="stroke: #A80036; stroke-width: 1.5;" x1="738" x2="904" y1="566.9766" y2="566.9766"/><ellipse cx="748" cy="578.8789" fill="#84BE84" rx="3" ry="3" style="stroke: #038048; stroke-width: 1.0;"/><text fill="#000000" font-family="sans-serif" font-size="11" lengthAdjust="spacingAndGlyphs" textLength="102" x="757" y="581.187">basicOpticalFlow()</text><ellipse cx="748" cy="591.6836" fill="#84BE84" rx="3" ry="3" style="stroke: #038048; stroke-width: 1.0;"/><text fill="#000000" font-family="sans-serif" font-size="11" lengthAdjust="spacingAndGlyphs" textLength="142" x="757" y="593.9917">generateDatatermParts()</text><ellipse cx="748" cy="604.4883" fill="#84BE84" rx="3" ry="3" style="stroke: #038048; stroke-width: 1.0;"/><text fill="#000000" font-family="sans-serif" font-size="11" lengthAdjust="spacingAndGlyphs" textLength="115" x="757" y="606.7964">generateGradients()</text><ellipse cx="748" cy="617.293" fill="#84BE84" rx="3" ry="3" style="stroke: #038048; stroke-width: 1.0;"/><text fill="#000000" font-family="sans-serif" font-size="11" lengthAdjust="spacingAndGlyphs" textLength="89" x="757" y="619.6011">warpDataterm()</text><!--class huberDataTerm--><rect fill="#FEFECE" filter="url(#f90dtf1)" height="60.8047" style="stroke: #A80036; stroke-width: 1.5;" width="130" x="6" y="685.9531"/><ellipse cx="21" cy="701.9531" fill="#E6FFE6" rx="11" ry="11" style="stroke: #A80036; stroke-width: 1.0;"/><path d="M22.9531,702.8594 L19.3125,702.8594 L19.3125,705.25 L19.5625,705.25 C20.0156,705.25 20.1875,705.2813 20.3281,705.4063 C20.5625,705.5781 20.6875,705.8281 20.6875,706.1094 C20.6875,706.3906 20.5313,706.6875 20.2813,706.8281 C20.1406,706.9219 19.9219,706.9531 19.5625,706.9531 L17.5156,706.9531 C17.1094,706.9531 16.8906,706.9063 16.7344,706.7969 C16.5313,706.625 16.3906,706.3594 16.3906,706.1094 C16.3906,705.8125 16.5469,705.5313 16.7969,705.375 C16.9531,705.2656 17.0938,705.25 17.5156,705.25 L17.6094,705.25 L17.6094,698.7344 C17.0469,698.6875 16.7344,698.3906 16.7344,697.8906 C16.7344,697.6094 16.8906,697.3125 17.1406,697.1563 C17.2969,697.0625 17.4219,697.0469 17.8594,697.0469 L19.5625,697.0469 C20.0313,697.0469 20.1875,697.0781 20.3281,697.1875 C20.5625,697.3594 20.6875,697.625 20.6875,697.8906 C20.6875,698.1875 20.5313,698.4688 20.2813,698.625 C20.125,698.7031 19.9844,698.7344 19.5625,698.7344 L19.3125,698.7344 L19.3125,701.1563 L22.9531,701.1563 L22.9531,698.7344 L22.7031,698.7344 C22.25,698.7344 22.1094,698.7031 21.9375,698.5938 C21.7188,698.4219 21.5781,698.1719 21.5781,697.8906 C21.5781,697.6094 21.7344,697.3125 21.9844,697.1563 C22.1406,697.0625 22.2656,697.0469 22.7031,697.0469 L24.4219,697.0469 C24.875,697.0469 25.0313,697.0781 25.2031,697.1875 C25.4063,697.3594 25.5313,697.625 25.5313,697.8906 C25.5313,698.3906 25.2188,698.6875 24.6563,698.7344 L24.6563,705.25 L24.75,705.25 C25.2188,705.25 25.3594,705.2813 25.5156,705.4063 C25.7344,705.5781 25.875,705.8281 25.875,706.1094 C25.875,706.3906 25.7188,706.6875 25.4688,706.8281 C25.3281,706.9219 25.1094,706.9531 24.75,706.9531 L22.7031,706.9531 C22.2969,706.9531 22.0938,706.9063 21.9375,706.7969 C21.7188,706.625 21.5781,706.3594 21.5781,706.1094 C21.5781,705.8125 21.7344,705.5313 21.9844,705.375 C22.1406,705.2656 22.2969,705.25 22.7031,705.25 L22.9531,705.25 Z "/><text fill="#000000" font-family="sans-serif" font-size="12" lengthAdjust="spacingAndGlyphs" textLength="98" x="35" y="706.1074">huberDataTerm</text><line style="stroke: #A80036; stroke-width: 1.5;" x1="7" x2="135" y1="717.9531" y2="717.9531"/><line style="stroke: #A80036; stroke-width: 1.5;" x1="7" x2="135" y1="725.9531" y2="725.9531"/><ellipse cx="17" cy="737.8555" fill="#84BE84" rx="3" ry="3" style="stroke: #038048; stroke-width: 1.0;"/><text fill="#000000" font-family="sans-serif" font-size="11" lengthAdjust="spacingAndGlyphs" textLength="97" x="26" y="740.1636">huberDataTerm()</text><!--class huberDataTermOperator--><rect fill="#FEFECE" filter="url(#f90dtf1)" height="73.6094" style="stroke: #A80036; stroke-width: 1.5;" width="186" x="51" y="507.4531"/><ellipse cx="66" cy="523.4531" fill="#E6FFE6" rx="11" ry="11" style="stroke: #A80036; stroke-width: 1.0;"/><path d="M67.9531,524.3594 L64.3125,524.3594 L64.3125,526.75 L64.5625,526.75 C65.0156,526.75 65.1875,526.7813 65.3281,526.9063 C65.5625,527.0781 65.6875,527.3281 65.6875,527.6094 C65.6875,527.8906 65.5313,528.1875 65.2813,528.3281 C65.1406,528.4219 64.9219,528.4531 64.5625,528.4531 L62.5156,528.4531 C62.1094,528.4531 61.8906,528.4063 61.7344,528.2969 C61.5313,528.125 61.3906,527.8594 61.3906,527.6094 C61.3906,527.3125 61.5469,527.0313 61.7969,526.875 C61.9531,526.7656 62.0938,526.75 62.5156,526.75 L62.6094,526.75 L62.6094,520.2344 C62.0469,520.1875 61.7344,519.8906 61.7344,519.3906 C61.7344,519.1094 61.8906,518.8125 62.1406,518.6563 C62.2969,518.5625 62.4219,518.5469 62.8594,518.5469 L64.5625,518.5469 C65.0313,518.5469 65.1875,518.5781 65.3281,518.6875 C65.5625,518.8594 65.6875,519.125 65.6875,519.3906 C65.6875,519.6875 65.5313,519.9688 65.2813,520.125 C65.125,520.2031 64.9844,520.2344 64.5625,520.2344 L64.3125,520.2344 L64.3125,522.6563 L67.9531,522.6563 L67.9531,520.2344 L67.7031,520.2344 C67.25,520.2344 67.1094,520.2031 66.9375,520.0938 C66.7188,519.9219 66.5781,519.6719 66.5781,519.3906 C66.5781,519.1094 66.7344,518.8125 66.9844,518.6563 C67.1406,518.5625 67.2656,518.5469 67.7031,518.5469 L69.4219,518.5469 C69.875,518.5469 70.0313,518.5781 70.2031,518.6875 C70.4063,518.8594 70.5313,519.125 70.5313,519.3906 C70.5313,519.8906 70.2188,520.1875 69.6563,520.2344 L69.6563,526.75 L69.75,526.75 C70.2188,526.75 70.3594,526.7813 70.5156,526.9063 C70.7344,527.0781 70.875,527.3281 70.875,527.6094 C70.875,527.8906 70.7188,528.1875 70.4688,528.3281 C70.3281,528.4219 70.1094,528.4531 69.75,528.4531 L67.7031,528.4531 C67.2969,528.4531 67.0938,528.4063 66.9375,528.2969 C66.7188,528.125 66.5781,527.8594 66.5781,527.6094 C66.5781,527.3125 66.7344,527.0313 66.9844,526.875 C67.1406,526.7656 67.2969,526.75 67.7031,526.75 L67.9531,526.75 Z "/><text fill="#000000" font-family="sans-serif" font-size="12" lengthAdjust="spacingAndGlyphs" textLength="154" x="80" y="527.6074">huberDataTermOperator</text><line style="stroke: #A80036; stroke-width: 1.5;" x1="52" x2="236" y1="539.4531" y2="539.4531"/><ellipse cx="62" cy="551.3555" fill="none" rx="3" ry="3" style="stroke: #038048; stroke-width: 1.0;"/><text fill="#000000" font-family="sans-serif" font-size="11" lengthAdjust="spacingAndGlyphs" textLength="24" x="71" y="553.6636">epsi</text><line style="stroke: #A80036; stroke-width: 1.5;" x1="52" x2="236" y1="560.2578" y2="560.2578"/><ellipse cx="62" cy="572.1602" fill="#84BE84" rx="3" ry="3" style="stroke: #038048; stroke-width: 1.0;"/><text fill="#000000" font-family="sans-serif" font-size="11" lengthAdjust="spacingAndGlyphs" textLength="148" x="71" y="574.4683">huberDataTermOperator()</text><!--class KLdataTermOperator--><rect fill="#FEFECE" filter="url(#f90dtf1)" height="60.8047" style="stroke: #A80036; stroke-width: 1.5;" width="161" x="540.5" y="513.9531"/><ellipse cx="555.5" cy="529.9531" fill="#E6FFE6" rx="11" ry="11" style="stroke: #A80036; stroke-width: 1.0;"/><path d="M557.4531,530.8594 L553.8125,530.8594 L553.8125,533.25 L554.0625,533.25 C554.5156,533.25 554.6875,533.2813 554.8281,533.4063 C555.0625,533.5781 555.1875,533.8281 555.1875,534.1094 C555.1875,534.3906 555.0313,534.6875 554.7813,534.8281 C554.6406,534.9219 554.4219,534.9531 554.0625,534.9531 L552.0156,534.9531 C551.6094,534.9531 551.3906,534.9063 551.2344,534.7969 C551.0313,534.625 550.8906,534.3594 550.8906,534.1094 C550.8906,533.8125 551.0469,533.5313 551.2969,533.375 C551.4531,533.2656 551.5938,533.25 552.0156,533.25 L552.1094,533.25 L552.1094,526.7344 C551.5469,526.6875 551.2344,526.3906 551.2344,525.8906 C551.2344,525.6094 551.3906,525.3125 551.6406,525.1563 C551.7969,525.0625 551.9219,525.0469 552.3594,525.0469 L554.0625,525.0469 C554.5313,525.0469 554.6875,525.0781 554.8281,525.1875 C555.0625,525.3594 555.1875,525.625 555.1875,525.8906 C555.1875,526.1875 555.0313,526.4688 554.7813,526.625 C554.625,526.7031 554.4844,526.7344 554.0625,526.7344 L553.8125,526.7344 L553.8125,529.1563 L557.4531,529.1563 L557.4531,526.7344 L557.2031,526.7344 C556.75,526.7344 556.6094,526.7031 556.4375,526.5938 C556.2188,526.4219 556.0781,526.1719 556.0781,525.8906 C556.0781,525.6094 556.2344,525.3125 556.4844,525.1563 C556.6406,525.0625 556.7656,525.0469 557.2031,525.0469 L558.9219,525.0469 C559.375,525.0469 559.5313,525.0781 559.7031,525.1875 C559.9063,525.3594 560.0313,525.625 560.0313,525.8906 C560.0313,526.3906 559.7188,526.6875 559.1563,526.7344 L559.1563,533.25 L559.25,533.25 C559.7188,533.25 559.8594,533.2813 560.0156,533.4063 C560.2344,533.5781 560.375,533.8281 560.375,534.1094 C560.375,534.3906 560.2188,534.6875 559.9688,534.8281 C559.8281,534.9219 559.6094,534.9531 559.25,534.9531 L557.2031,534.9531 C556.7969,534.9531 556.5938,534.9063 556.4375,534.7969 C556.2188,534.625 556.0781,534.3594 556.0781,534.1094 C556.0781,533.8125 556.2344,533.5313 556.4844,533.375 C556.6406,533.2656 556.7969,533.25 557.2031,533.25 L557.4531,533.25 Z "/><text fill="#000000" font-family="sans-serif" font-size="12" lengthAdjust="spacingAndGlyphs" textLength="129" x="569.5" y="534.1074">KLdataTermOperator</text><line style="stroke: #A80036; stroke-width: 1.5;" x1="541.5" x2="700.5" y1="545.9531" y2="545.9531"/><line style="stroke: #A80036; stroke-width: 1.5;" x1="541.5" x2="700.5" y1="553.9531" y2="553.9531"/><ellipse cx="551.5" cy="565.8555" fill="#84BE84" rx="3" ry="3" style="stroke: #038048; stroke-width: 1.0;"/><text fill="#000000" font-family="sans-serif" font-size="11" lengthAdjust="spacingAndGlyphs" textLength="127" x="560.5" y="568.1636">KLdataTermOperator()</text><!--class L1dataTerm--><rect fill="#FEFECE" filter="url(#f90dtf1)" height="60.8047" style="stroke: #A80036; stroke-width: 1.5;" width="106" x="300" y="685.9531"/><ellipse cx="315" cy="701.9531" fill="#E6FFE6" rx="11" ry="11" style="stroke: #A80036; stroke-width: 1.0;"/><path d="M316.9531,702.8594 L313.3125,702.8594 L313.3125,705.25 L313.5625,705.25 C314.0156,705.25 314.1875,705.2813 314.3281,705.4063 C314.5625,705.5781 314.6875,705.8281 314.6875,706.1094 C314.6875,706.3906 314.5313,706.6875 314.2813,706.8281 C314.1406,706.9219 313.9219,706.9531 313.5625,706.9531 L311.5156,706.9531 C311.1094,706.9531 310.8906,706.9063 310.7344,706.7969 C310.5313,706.625 310.3906,706.3594 310.3906,706.1094 C310.3906,705.8125 310.5469,705.5313 310.7969,705.375 C310.9531,705.2656 311.0938,705.25 311.5156,705.25 L311.6094,705.25 L311.6094,698.7344 C311.0469,698.6875 310.7344,698.3906 310.7344,697.8906 C310.7344,697.6094 310.8906,697.3125 311.1406,697.1563 C311.2969,697.0625 311.4219,697.0469 311.8594,697.0469 L313.5625,697.0469 C314.0313,697.0469 314.1875,697.0781 314.3281,697.1875 C314.5625,697.3594 314.6875,697.625 314.6875,697.8906 C314.6875,698.1875 314.5313,698.4688 314.2813,698.625 C314.125,698.7031 313.9844,698.7344 313.5625,698.7344 L313.3125,698.7344 L313.3125,701.1563 L316.9531,701.1563 L316.9531,698.7344 L316.7031,698.7344 C316.25,698.7344 316.1094,698.7031 315.9375,698.5938 C315.7188,698.4219 315.5781,698.1719 315.5781,697.8906 C315.5781,697.6094 315.7344,697.3125 315.9844,697.1563 C316.1406,697.0625 316.2656,697.0469 316.7031,697.0469 L318.4219,697.0469 C318.875,697.0469 319.0313,697.0781 319.2031,697.1875 C319.4063,697.3594 319.5313,697.625 319.5313,697.8906 C319.5313,698.3906 319.2188,698.6875 318.6563,698.7344 L318.6563,705.25 L318.75,705.25 C319.2188,705.25 319.3594,705.2813 319.5156,705.4063 C319.7344,705.5781 319.875,705.8281 319.875,706.1094 C319.875,706.3906 319.7188,706.6875 319.4688,706.8281 C319.3281,706.9219 319.1094,706.9531 318.75,706.9531 L316.7031,706.9531 C316.2969,706.9531 316.0938,706.9063 315.9375,706.7969 C315.7188,706.625 315.5781,706.3594 315.5781,706.1094 C315.5781,705.8125 315.7344,705.5313 315.9844,705.375 C316.1406,705.2656 316.2969,705.25 316.7031,705.25 L316.9531,705.25 Z "/><text fill="#000000" font-family="sans-serif" font-size="12" lengthAdjust="spacingAndGlyphs" textLength="74" x="329" y="706.1074">L1dataTerm</text><line style="stroke: #A80036; stroke-width: 1.5;" x1="301" x2="405" y1="717.9531" y2="717.9531"/><line style="stroke: #A80036; stroke-width: 1.5;" x1="301" x2="405" y1="725.9531" y2="725.9531"/><ellipse cx="311" cy="737.8555" fill="#84BE84" rx="3" ry="3" style="stroke: #038048; stroke-width: 1.0;"/><text fill="#000000" font-family="sans-serif" font-size="11" lengthAdjust="spacingAndGlyphs" textLength="76" x="320" y="740.1636">L1dataTerm()</text><!--class L1dataTermOperator--><rect fill="#FEFECE" filter="url(#f90dtf1)" height="60.8047" style="stroke: #A80036; stroke-width: 1.5;" width="162" x="272" y="513.9531"/><ellipse cx="287" cy="529.9531" fill="#E6FFE6" rx="11" ry="11" style="stroke: #A80036; stroke-width: 1.0;"/><path d="M288.9531,530.8594 L285.3125,530.8594 L285.3125,533.25 L285.5625,533.25 C286.0156,533.25 286.1875,533.2813 286.3281,533.4063 C286.5625,533.5781 286.6875,533.8281 286.6875,534.1094 C286.6875,534.3906 286.5313,534.6875 286.2813,534.8281 C286.1406,534.9219 285.9219,534.9531 285.5625,534.9531 L283.5156,534.9531 C283.1094,534.9531 282.8906,534.9063 282.7344,534.7969 C282.5313,534.625 282.3906,534.3594 282.3906,534.1094 C282.3906,533.8125 282.5469,533.5313 282.7969,533.375 C282.9531,533.2656 283.0938,533.25 283.5156,533.25 L283.6094,533.25 L283.6094,526.7344 C283.0469,526.6875 282.7344,526.3906 282.7344,525.8906 C282.7344,525.6094 282.8906,525.3125 283.1406,525.1563 C283.2969,525.0625 283.4219,525.0469 283.8594,525.0469 L285.5625,525.0469 C286.0313,525.0469 286.1875,525.0781 286.3281,525.1875 C286.5625,525.3594 286.6875,525.625 286.6875,525.8906 C286.6875,526.1875 286.5313,526.4688 286.2813,526.625 C286.125,526.7031 285.9844,526.7344 285.5625,526.7344 L285.3125,526.7344 L285.3125,529.1563 L288.9531,529.1563 L288.9531,526.7344 L288.7031,526.7344 C288.25,526.7344 288.1094,526.7031 287.9375,526.5938 C287.7188,526.4219 287.5781,526.1719 287.5781,525.8906 C287.5781,525.6094 287.7344,525.3125 287.9844,525.1563 C288.1406,525.0625 288.2656,525.0469 288.7031,525.0469 L290.4219,525.0469 C290.875,525.0469 291.0313,525.0781 291.2031,525.1875 C291.4063,525.3594 291.5313,525.625 291.5313,525.8906 C291.5313,526.3906 291.2188,526.6875 290.6563,526.7344 L290.6563,533.25 L290.75,533.25 C291.2188,533.25 291.3594,533.2813 291.5156,533.4063 C291.7344,533.5781 291.875,533.8281 291.875,534.1094 C291.875,534.3906 291.7188,534.6875 291.4688,534.8281 C291.3281,534.9219 291.1094,534.9531 290.75,534.9531 L288.7031,534.9531 C288.2969,534.9531 288.0938,534.9063 287.9375,534.7969 C287.7188,534.625 287.5781,534.3594 287.5781,534.1094 C287.5781,533.8125 287.7344,533.5313 287.9844,533.375 C288.1406,533.2656 288.2969,533.25 288.7031,533.25 L288.9531,533.25 Z "/><text fill="#000000" font-family="sans-serif" font-size="12" lengthAdjust="spacingAndGlyphs" textLength="130" x="301" y="534.1074">L1dataTermOperator</text><line style="stroke: #A80036; stroke-width: 1.5;" x1="273" x2="433" y1="545.9531" y2="545.9531"/><line style="stroke: #A80036; stroke-width: 1.5;" x1="273" x2="433" y1="553.9531" y2="553.9531"/><ellipse cx="283" cy="565.8555" fill="#84BE84" rx="3" ry="3" style="stroke: #038048; stroke-width: 1.0;"/><text fill="#000000" font-family="sans-serif" font-size="11" lengthAdjust="spacingAndGlyphs" textLength="127" x="292" y="568.1636">L1dataTermOperator()</text><!--class L1opticalFlowTerm--><rect fill="#FEFECE" filter="url(#f90dtf1)" height="60.8047" style="stroke: #A80036; stroke-width: 1.5;" width="146" x="626" y="685.9531"/><ellipse cx="641" cy="701.9531" fill="#E6FFE6" rx="11" ry="11" style="stroke: #A80036; stroke-width: 1.0;"/><path d="M642.9531,702.8594 L639.3125,702.8594 L639.3125,705.25 L639.5625,705.25 C640.0156,705.25 640.1875,705.2813 640.3281,705.4063 C640.5625,705.5781 640.6875,705.8281 640.6875,706.1094 C640.6875,706.3906 640.5313,706.6875 640.2813,706.8281 C640.1406,706.9219 639.9219,706.9531 639.5625,706.9531 L637.5156,706.9531 C637.1094,706.9531 636.8906,706.9063 636.7344,706.7969 C636.5313,706.625 636.3906,706.3594 636.3906,706.1094 C636.3906,705.8125 636.5469,705.5313 636.7969,705.375 C636.9531,705.2656 637.0938,705.25 637.5156,705.25 L637.6094,705.25 L637.6094,698.7344 C637.0469,698.6875 636.7344,698.3906 636.7344,697.8906 C636.7344,697.6094 636.8906,697.3125 637.1406,697.1563 C637.2969,697.0625 637.4219,697.0469 637.8594,697.0469 L639.5625,697.0469 C640.0313,697.0469 640.1875,697.0781 640.3281,697.1875 C640.5625,697.3594 640.6875,697.625 640.6875,697.8906 C640.6875,698.1875 640.5313,698.4688 640.2813,698.625 C640.125,698.7031 639.9844,698.7344 639.5625,698.7344 L639.3125,698.7344 L639.3125,701.1563 L642.9531,701.1563 L642.9531,698.7344 L642.7031,698.7344 C642.25,698.7344 642.1094,698.7031 641.9375,698.5938 C641.7188,698.4219 641.5781,698.1719 641.5781,697.8906 C641.5781,697.6094 641.7344,697.3125 641.9844,697.1563 C642.1406,697.0625 642.2656,697.0469 642.7031,697.0469 L644.4219,697.0469 C644.875,697.0469 645.0313,697.0781 645.2031,697.1875 C645.4063,697.3594 645.5313,697.625 645.5313,697.8906 C645.5313,698.3906 645.2188,698.6875 644.6563,698.7344 L644.6563,705.25 L644.75,705.25 C645.2188,705.25 645.3594,705.2813 645.5156,705.4063 C645.7344,705.5781 645.875,705.8281 645.875,706.1094 C645.875,706.3906 645.7188,706.6875 645.4688,706.8281 C645.3281,706.9219 645.1094,706.9531 644.75,706.9531 L642.7031,706.9531 C642.2969,706.9531 642.0938,706.9063 641.9375,706.7969 C641.7188,706.625 641.5781,706.3594 641.5781,706.1094 C641.5781,705.8125 641.7344,705.5313 641.9844,705.375 C642.1406,705.2656 642.2969,705.25 642.7031,705.25 L642.9531,705.25 Z "/><text fill="#000000" font-family="sans-serif" font-size="12" lengthAdjust="spacingAndGlyphs" textLength="114" x="655" y="706.1074">L1opticalFlowTerm</text><line style="stroke: #A80036; stroke-width: 1.5;" x1="627" x2="771" y1="717.9531" y2="717.9531"/><line style="stroke: #A80036; stroke-width: 1.5;" x1="627" x2="771" y1="725.9531" y2="725.9531"/><ellipse cx="637" cy="737.8555" fill="#84BE84" rx="3" ry="3" style="stroke: #038048; stroke-width: 1.0;"/><text fill="#000000" font-family="sans-serif" font-size="11" lengthAdjust="spacingAndGlyphs" textLength="113" x="646" y="740.1636">L1opticalFlowTerm()</text><!--class L2dataTerm--><rect fill="#FEFECE" filter="url(#f90dtf1)" height="60.8047" style="stroke: #A80036; stroke-width: 1.5;" width="106" x="1196" y="685.9531"/><ellipse cx="1211" cy="701.9531" fill="#E6FFE6" rx="11" ry="11" style="stroke: #A80036; stroke-width: 1.0;"/><path d="M1212.9531,702.8594 L1209.3125,702.8594 L1209.3125,705.25 L1209.5625,705.25 C1210.0156,705.25 1210.1875,705.2813 1210.3281,705.4063 C1210.5625,705.5781 1210.6875,705.8281 1210.6875,706.1094 C1210.6875,706.3906 1210.5313,706.6875 1210.2813,706.8281 C1210.1406,706.9219 1209.9219,706.9531 1209.5625,706.9531 L1207.5156,706.9531 C1207.1094,706.9531 1206.8906,706.9063 1206.7344,706.7969 C1206.5313,706.625 1206.3906,706.3594 1206.3906,706.1094 C1206.3906,705.8125 1206.5469,705.5313 1206.7969,705.375 C1206.9531,705.2656 1207.0938,705.25 1207.5156,705.25 L1207.6094,705.25 L1207.6094,698.7344 C1207.0469,698.6875 1206.7344,698.3906 1206.7344,697.8906 C1206.7344,697.6094 1206.8906,697.3125 1207.1406,697.1563 C1207.2969,697.0625 1207.4219,697.0469 1207.8594,697.0469 L1209.5625,697.0469 C1210.0313,697.0469 1210.1875,697.0781 1210.3281,697.1875 C1210.5625,697.3594 1210.6875,697.625 1210.6875,697.8906 C1210.6875,698.1875 1210.5313,698.4688 1210.2813,698.625 C1210.125,698.7031 1209.9844,698.7344 1209.5625,698.7344 L1209.3125,698.7344 L1209.3125,701.1563 L1212.9531,701.1563 L1212.9531,698.7344 L1212.7031,698.7344 C1212.25,698.7344 1212.1094,698.7031 1211.9375,698.5938 C1211.7188,698.4219 1211.5781,698.1719 1211.5781,697.8906 C1211.5781,697.6094 1211.7344,697.3125 1211.9844,697.1563 C1212.1406,697.0625 1212.2656,697.0469 1212.7031,697.0469 L1214.4219,697.0469 C1214.875,697.0469 1215.0313,697.0781 1215.2031,697.1875 C1215.4063,697.3594 1215.5313,697.625 1215.5313,697.8906 C1215.5313,698.3906 1215.2188,698.6875 1214.6563,698.7344 L1214.6563,705.25 L1214.75,705.25 C1215.2188,705.25 1215.3594,705.2813 1215.5156,705.4063 C1215.7344,705.5781 1215.875,705.8281 1215.875,706.1094 C1215.875,706.3906 1215.7188,706.6875 1215.4688,706.8281 C1215.3281,706.9219 1215.1094,706.9531 1214.75,706.9531 L1212.7031,706.9531 C1212.2969,706.9531 1212.0938,706.9063 1211.9375,706.7969 C1211.7188,706.625 1211.5781,706.3594 1211.5781,706.1094 C1211.5781,705.8125 1211.7344,705.5313 1211.9844,705.375 C1212.1406,705.2656 1212.2969,705.25 1212.7031,705.25 L1212.9531,705.25 Z "/><text fill="#000000" font-family="sans-serif" font-size="12" lengthAdjust="spacingAndGlyphs" textLength="74" x="1225" y="706.1074">L2dataTerm</text><line style="stroke: #A80036; stroke-width: 1.5;" x1="1197" x2="1301" y1="717.9531" y2="717.9531"/><line style="stroke: #A80036; stroke-width: 1.5;" x1="1197" x2="1301" y1="725.9531" y2="725.9531"/><ellipse cx="1207" cy="737.8555" fill="#84BE84" rx="3" ry="3" style="stroke: #038048; stroke-width: 1.0;"/><text fill="#000000" font-family="sans-serif" font-size="11" lengthAdjust="spacingAndGlyphs" textLength="76" x="1216" y="740.1636">L2dataTerm()</text><!--class L2dataTermOperator--><rect fill="#FEFECE" filter="url(#f90dtf1)" height="60.8047" style="stroke: #A80036; stroke-width: 1.5;" width="162" x="1168" y="513.9531"/><ellipse cx="1183" cy="529.9531" fill="#E6FFE6" rx="11" ry="11" style="stroke: #A80036; stroke-width: 1.0;"/><path d="M1184.9531,530.8594 L1181.3125,530.8594 L1181.3125,533.25 L1181.5625,533.25 C1182.0156,533.25 1182.1875,533.2813 1182.3281,533.4063 C1182.5625,533.5781 1182.6875,533.8281 1182.6875,534.1094 C1182.6875,534.3906 1182.5313,534.6875 1182.2813,534.8281 C1182.1406,534.9219 1181.9219,534.9531 1181.5625,534.9531 L1179.5156,534.9531 C1179.1094,534.9531 1178.8906,534.9063 1178.7344,534.7969 C1178.5313,534.625 1178.3906,534.3594 1178.3906,534.1094 C1178.3906,533.8125 1178.5469,533.5313 1178.7969,533.375 C1178.9531,533.2656 1179.0938,533.25 1179.5156,533.25 L1179.6094,533.25 L1179.6094,526.7344 C1179.0469,526.6875 1178.7344,526.3906 1178.7344,525.8906 C1178.7344,525.6094 1178.8906,525.3125 1179.1406,525.1563 C1179.2969,525.0625 1179.4219,525.0469 1179.8594,525.0469 L1181.5625,525.0469 C1182.0313,525.0469 1182.1875,525.0781 1182.3281,525.1875 C1182.5625,525.3594 1182.6875,525.625 1182.6875,525.8906 C1182.6875,526.1875 1182.5313,526.4688 1182.2813,526.625 C1182.125,526.7031 1181.9844,526.7344 1181.5625,526.7344 L1181.3125,526.7344 L1181.3125,529.1563 L1184.9531,529.1563 L1184.9531,526.7344 L1184.7031,526.7344 C1184.25,526.7344 1184.1094,526.7031 1183.9375,526.5938 C1183.7188,526.4219 1183.5781,526.1719 1183.5781,525.8906 C1183.5781,525.6094 1183.7344,525.3125 1183.9844,525.1563 C1184.1406,525.0625 1184.2656,525.0469 1184.7031,525.0469 L1186.4219,525.0469 C1186.875,525.0469 1187.0313,525.0781 1187.2031,525.1875 C1187.4063,525.3594 1187.5313,525.625 1187.5313,525.8906 C1187.5313,526.3906 1187.2188,526.6875 1186.6563,526.7344 L1186.6563,533.25 L1186.75,533.25 C1187.2188,533.25 1187.3594,533.2813 1187.5156,533.4063 C1187.7344,533.5781 1187.875,533.8281 1187.875,534.1094 C1187.875,534.3906 1187.7188,534.6875 1187.4688,534.8281 C1187.3281,534.9219 1187.1094,534.9531 1186.75,534.9531 L1184.7031,534.9531 C1184.2969,534.9531 1184.0938,534.9063 1183.9375,534.7969 C1183.7188,534.625 1183.5781,534.3594 1183.5781,534.1094 C1183.5781,533.8125 1183.7344,533.5313 1183.9844,533.375 C1184.1406,533.2656 1184.2969,533.25 1184.7031,533.25 L1184.9531,533.25 Z "/><text fill="#000000" font-family="sans-serif" font-size="12" lengthAdjust="spacingAndGlyphs" textLength="130" x="1197" y="534.1074">L2dataTermOperator</text><line style="stroke: #A80036; stroke-width: 1.5;" x1="1169" x2="1329" y1="545.9531" y2="545.9531"/><line style="stroke: #A80036; stroke-width: 1.5;" x1="1169" x2="1329" y1="553.9531" y2="553.9531"/><ellipse cx="1179" cy="565.8555" fill="#84BE84" rx="3" ry="3" style="stroke: #038048; stroke-width: 1.0;"/><text fill="#000000" font-family="sans-serif" font-size="11" lengthAdjust="spacingAndGlyphs" textLength="127" x="1188" y="568.1636">L2dataTermOperator()</text><!--class L2opticalFlowTerm--><rect fill="#FEFECE" filter="url(#f90dtf1)" height="60.8047" style="stroke: #A80036; stroke-width: 1.5;" width="146" x="870" y="685.9531"/><ellipse cx="885" cy="701.9531" fill="#E6FFE6" rx="11" ry="11" style="stroke: #A80036; stroke-width: 1.0;"/><path d="M886.9531,702.8594 L883.3125,702.8594 L883.3125,705.25 L883.5625,705.25 C884.0156,705.25 884.1875,705.2813 884.3281,705.4063 C884.5625,705.5781 884.6875,705.8281 884.6875,706.1094 C884.6875,706.3906 884.5313,706.6875 884.2813,706.8281 C884.1406,706.9219 883.9219,706.9531 883.5625,706.9531 L881.5156,706.9531 C881.1094,706.9531 880.8906,706.9063 880.7344,706.7969 C880.5313,706.625 880.3906,706.3594 880.3906,706.1094 C880.3906,705.8125 880.5469,705.5313 880.7969,705.375 C880.9531,705.2656 881.0938,705.25 881.5156,705.25 L881.6094,705.25 L881.6094,698.7344 C881.0469,698.6875 880.7344,698.3906 880.7344,697.8906 C880.7344,697.6094 880.8906,697.3125 881.1406,697.1563 C881.2969,697.0625 881.4219,697.0469 881.8594,697.0469 L883.5625,697.0469 C884.0313,697.0469 884.1875,697.0781 884.3281,697.1875 C884.5625,697.3594 884.6875,697.625 884.6875,697.8906 C884.6875,698.1875 884.5313,698.4688 884.2813,698.625 C884.125,698.7031 883.9844,698.7344 883.5625,698.7344 L883.3125,698.7344 L883.3125,701.1563 L886.9531,701.1563 L886.9531,698.7344 L886.7031,698.7344 C886.25,698.7344 886.1094,698.7031 885.9375,698.5938 C885.7188,698.4219 885.5781,698.1719 885.5781,697.8906 C885.5781,697.6094 885.7344,697.3125 885.9844,697.1563 C886.1406,697.0625 886.2656,697.0469 886.7031,697.0469 L888.4219,697.0469 C888.875,697.0469 889.0313,697.0781 889.2031,697.1875 C889.4063,697.3594 889.5313,697.625 889.5313,697.8906 C889.5313,698.3906 889.2188,698.6875 888.6563,698.7344 L888.6563,705.25 L888.75,705.25 C889.2188,705.25 889.3594,705.2813 889.5156,705.4063 C889.7344,705.5781 889.875,705.8281 889.875,706.1094 C889.875,706.3906 889.7188,706.6875 889.4688,706.8281 C889.3281,706.9219 889.1094,706.9531 888.75,706.9531 L886.7031,706.9531 C886.2969,706.9531 886.0938,706.9063 885.9375,706.7969 C885.7188,706.625 885.5781,706.3594 885.5781,706.1094 C885.5781,705.8125 885.7344,705.5313 885.9844,705.375 C886.1406,705.2656 886.2969,705.25 886.7031,705.25 L886.9531,705.25 Z "/><text fill="#000000" font-family="sans-serif" font-size="12" lengthAdjust="spacingAndGlyphs" textLength="114" x="899" y="706.1074">L2opticalFlowTerm</text><line style="stroke: #A80036; stroke-width: 1.5;" x1="871" x2="1015" y1="717.9531" y2="717.9531"/><line style="stroke: #A80036; stroke-width: 1.5;" x1="871" x2="1015" y1="725.9531" y2="725.9531"/><ellipse cx="881" cy="737.8555" fill="#84BE84" rx="3" ry="3" style="stroke: #038048; stroke-width: 1.0;"/><text fill="#000000" font-family="sans-serif" font-size="11" lengthAdjust="spacingAndGlyphs" textLength="113" x="890" y="740.1636">L2opticalFlowTerm()</text><!--class labelingTerm--><rect fill="#FEFECE" filter="url(#f90dtf1)" height="73.6094" style="stroke: #A80036; stroke-width: 1.5;" width="121" x="940.5" y="507.4531"/><ellipse cx="959.55" cy="523.4531" fill="#E6FFE6" rx="11" ry="11" style="stroke: #A80036; stroke-width: 1.0;"/><path d="M961.5031,524.3594 L957.8625,524.3594 L957.8625,526.75 L958.1125,526.75 C958.5656,526.75 958.7375,526.7813 958.8781,526.9063 C959.1125,527.0781 959.2375,527.3281 959.2375,527.6094 C959.2375,527.8906 959.0813,528.1875 958.8313,528.3281 C958.6906,528.4219 958.4719,528.4531 958.1125,528.4531 L956.0656,528.4531 C955.6594,528.4531 955.4406,528.4063 955.2844,528.2969 C955.0813,528.125 954.9406,527.8594 954.9406,527.6094 C954.9406,527.3125 955.0969,527.0313 955.3469,526.875 C955.5031,526.7656 955.6438,526.75 956.0656,526.75 L956.1594,526.75 L956.1594,520.2344 C955.5969,520.1875 955.2844,519.8906 955.2844,519.3906 C955.2844,519.1094 955.4406,518.8125 955.6906,518.6563 C955.8469,518.5625 955.9719,518.5469 956.4094,518.5469 L958.1125,518.5469 C958.5813,518.5469 958.7375,518.5781 958.8781,518.6875 C959.1125,518.8594 959.2375,519.125 959.2375,519.3906 C959.2375,519.6875 959.0813,519.9688 958.8313,520.125 C958.675,520.2031 958.5344,520.2344 958.1125,520.2344 L957.8625,520.2344 L957.8625,522.6563 L961.5031,522.6563 L961.5031,520.2344 L961.2531,520.2344 C960.8,520.2344 960.6594,520.2031 960.4875,520.0938 C960.2688,519.9219 960.1281,519.6719 960.1281,519.3906 C960.1281,519.1094 960.2844,518.8125 960.5344,518.6563 C960.6906,518.5625 960.8156,518.5469 961.2531,518.5469 L962.9719,518.5469 C963.425,518.5469 963.5813,518.5781 963.7531,518.6875 C963.9563,518.8594 964.0813,519.125 964.0813,519.3906 C964.0813,519.8906 963.7688,520.1875 963.2063,520.2344 L963.2063,526.75 L963.3,526.75 C963.7688,526.75 963.9094,526.7813 964.0656,526.9063 C964.2844,527.0781 964.425,527.3281 964.425,527.6094 C964.425,527.8906 964.2688,528.1875 964.0188,528.3281 C963.8781,528.4219 963.6594,528.4531 963.3,528.4531 L961.2531,528.4531 C960.8469,528.4531 960.6438,528.4063 960.4875,528.2969 C960.2688,528.125 960.1281,527.8594 960.1281,527.6094 C960.1281,527.3125 960.2844,527.0313 960.5344,526.875 C960.6906,526.7656 960.8469,526.75 961.2531,526.75 L961.5031,526.75 Z "/><text fill="#000000" font-family="sans-serif" font-size="12" lengthAdjust="spacingAndGlyphs" textLength="80" x="974.45" y="527.6074">labelingTerm</text><line style="stroke: #A80036; stroke-width: 1.5;" x1="941.5" x2="1060.5" y1="539.4531" y2="539.4531"/><line style="stroke: #A80036; stroke-width: 1.5;" x1="941.5" x2="1060.5" y1="547.4531" y2="547.4531"/><ellipse cx="951.5" cy="559.3555" fill="#84BE84" rx="3" ry="3" style="stroke: #038048; stroke-width: 1.0;"/><text fill="#000000" font-family="sans-serif" font-size="11" lengthAdjust="spacingAndGlyphs" textLength="82" x="960.5" y="561.6636">labelingTerm()</text><ellipse cx="951.5" cy="572.1602" fill="#84BE84" rx="3" ry="3" style="stroke: #038048; stroke-width: 1.0;"/><text fill="#000000" font-family="sans-serif" font-size="11" lengthAdjust="spacingAndGlyphs" textLength="95" x="960.5" y="574.4683">calculateWeight()</text><!--class basicProx--><rect fill="#FEFECE" filter="url(#f90dtf1)" height="60.8047" style="stroke: #A80036; stroke-width: 1.5;" width="92" x="575" y="118.4531"/><ellipse cx="590" cy="134.4531" fill="#E6FFE6" rx="11" ry="11" style="stroke: #A80036; stroke-width: 1.0;"/><path d="M591.5781,136.2656 L587.5313,136.2656 L587.1406,137.25 L587.5313,137.25 C587.9844,137.25 588.125,137.2813 588.2969,137.4063 C588.5156,137.5781 588.6406,137.8281 588.6406,138.1094 C588.6406,138.3906 588.5,138.6875 588.2344,138.8281 C588.1094,138.9219 587.8906,138.9531 587.5313,138.9531 L585.2656,138.9531 C584.5156,138.9531 584.1406,138.6719 584.1406,138.1094 C584.1406,137.8125 584.2969,137.5313 584.5469,137.375 C584.7031,137.2656 584.8594,137.25 585.2813,137.25 L587.9219,130.7344 L586.8438,130.7344 C586.4063,130.7344 586.2344,130.7031 586.0625,130.5938 C585.8438,130.4219 585.7031,130.1719 585.7031,129.8906 C585.7031,129.6094 585.8594,129.3281 586.1094,129.1563 C586.2656,129.0625 586.3906,129.0469 586.8438,129.0469 L590.5156,129.0469 L593.9063,137.25 C594.375,137.25 594.5313,137.2813 594.7031,137.4219 C594.9219,137.5781 595.0625,137.8281 595.0625,138.1094 C595.0625,138.3906 594.9063,138.6875 594.6563,138.8281 C594.5156,138.9219 594.2969,138.9531 593.9375,138.9531 L591.5781,138.9531 C591.1563,138.9531 590.9531,138.9063 590.8125,138.7813 C590.5938,138.625 590.4531,138.375 590.4531,138.1094 C590.4531,137.8125 590.6094,137.5313 590.8594,137.375 C591.0156,137.2656 591.125,137.25 591.5781,137.25 L591.9688,137.25 Z M590.875,134.5625 L589.5469,131.2969 L588.2031,134.5625 Z "/><text fill="#000000" font-family="sans-serif" font-size="12" lengthAdjust="spacingAndGlyphs" textLength="60" x="604" y="138.6074">basicProx</text><line style="stroke: #A80036; stroke-width: 1.5;" x1="576" x2="666" y1="150.4531" y2="150.4531"/><line style="stroke: #A80036; stroke-width: 1.5;" x1="576" x2="666" y1="158.4531" y2="158.4531"/><ellipse cx="586" cy="170.3555" fill="#84BE84" rx="3" ry="3" style="stroke: #038048; stroke-width: 1.0;"/><text fill="#000000" font-family="sans-serif" font-size="11" lengthAdjust="spacingAndGlyphs" textLength="63" x="595" y="172.6636">applyProx()</text><!--class HuberDataProxDual--><rect fill="#FEFECE" filter="url(#f90dtf1)" height="73.6094" style="stroke: #A80036; stroke-width: 1.5;" width="155" x="66.5" y="328.9531"/><ellipse cx="81.5" cy="344.9531" fill="#E6FFE6" rx="11" ry="11" style="stroke: #A80036; stroke-width: 1.0;"/><path d="M83.4531,345.8594 L79.8125,345.8594 L79.8125,348.25 L80.0625,348.25 C80.5156,348.25 80.6875,348.2813 80.8281,348.4063 C81.0625,348.5781 81.1875,348.8281 81.1875,349.1094 C81.1875,349.3906 81.0313,349.6875 80.7813,349.8281 C80.6406,349.9219 80.4219,349.9531 80.0625,349.9531 L78.0156,349.9531 C77.6094,349.9531 77.3906,349.9063 77.2344,349.7969 C77.0313,349.625 76.8906,349.3594 76.8906,349.1094 C76.8906,348.8125 77.0469,348.5313 77.2969,348.375 C77.4531,348.2656 77.5938,348.25 78.0156,348.25 L78.1094,348.25 L78.1094,341.7344 C77.5469,341.6875 77.2344,341.3906 77.2344,340.8906 C77.2344,340.6094 77.3906,340.3125 77.6406,340.1563 C77.7969,340.0625 77.9219,340.0469 78.3594,340.0469 L80.0625,340.0469 C80.5313,340.0469 80.6875,340.0781 80.8281,340.1875 C81.0625,340.3594 81.1875,340.625 81.1875,340.8906 C81.1875,341.1875 81.0313,341.4688 80.7813,341.625 C80.625,341.7031 80.4844,341.7344 80.0625,341.7344 L79.8125,341.7344 L79.8125,344.1563 L83.4531,344.1563 L83.4531,341.7344 L83.2031,341.7344 C82.75,341.7344 82.6094,341.7031 82.4375,341.5938 C82.2188,341.4219 82.0781,341.1719 82.0781,340.8906 C82.0781,340.6094 82.2344,340.3125 82.4844,340.1563 C82.6406,340.0625 82.7656,340.0469 83.2031,340.0469 L84.9219,340.0469 C85.375,340.0469 85.5313,340.0781 85.7031,340.1875 C85.9063,340.3594 86.0313,340.625 86.0313,340.8906 C86.0313,341.3906 85.7188,341.6875 85.1563,341.7344 L85.1563,348.25 L85.25,348.25 C85.7188,348.25 85.8594,348.2813 86.0156,348.4063 C86.2344,348.5781 86.375,348.8281 86.375,349.1094 C86.375,349.3906 86.2188,349.6875 85.9688,349.8281 C85.8281,349.9219 85.6094,349.9531 85.25,349.9531 L83.2031,349.9531 C82.7969,349.9531 82.5938,349.9063 82.4375,349.7969 C82.2188,349.625 82.0781,349.3594 82.0781,349.1094 C82.0781,348.8125 82.2344,348.5313 82.4844,348.375 C82.6406,348.2656 82.7969,348.25 83.2031,348.25 L83.4531,348.25 Z "/><text fill="#000000" font-family="sans-serif" font-size="12" lengthAdjust="spacingAndGlyphs" textLength="123" x="95.5" y="349.1074">HuberDataProxDual</text><line style="stroke: #A80036; stroke-width: 1.5;" x1="67.5" x2="220.5" y1="360.9531" y2="360.9531"/><line style="stroke: #A80036; stroke-width: 1.5;" x1="67.5" x2="220.5" y1="368.9531" y2="368.9531"/><ellipse cx="77.5" cy="380.8555" fill="#84BE84" rx="3" ry="3" style="stroke: #038048; stroke-width: 1.0;"/><text fill="#000000" font-family="sans-serif" font-size="11" lengthAdjust="spacingAndGlyphs" textLength="118" x="86.5" y="383.1636">HuberDataProxDual()</text><ellipse cx="77.5" cy="393.6602" fill="#84BE84" rx="3" ry="3" style="stroke: #038048; stroke-width: 1.0;"/><text fill="#000000" font-family="sans-serif" font-size="11" lengthAdjust="spacingAndGlyphs" textLength="63" x="86.5" y="395.9683">applyProx()</text><!--class KLDataProxDual--><rect fill="#FEFECE" filter="url(#f90dtf1)" height="73.6094" style="stroke: #A80036; stroke-width: 1.5;" width="130" x="556" y="328.9531"/><ellipse cx="571" cy="344.9531" fill="#E6FFE6" rx="11" ry="11" style="stroke: #A80036; stroke-width: 1.0;"/><path d="M572.9531,345.8594 L569.3125,345.8594 L569.3125,348.25 L569.5625,348.25 C570.0156,348.25 570.1875,348.2813 570.3281,348.4063 C570.5625,348.5781 570.6875,348.8281 570.6875,349.1094 C570.6875,349.3906 570.5313,349.6875 570.2813,349.8281 C570.1406,349.9219 569.9219,349.9531 569.5625,349.9531 L567.5156,349.9531 C567.1094,349.9531 566.8906,349.9063 566.7344,349.7969 C566.5313,349.625 566.3906,349.3594 566.3906,349.1094 C566.3906,348.8125 566.5469,348.5313 566.7969,348.375 C566.9531,348.2656 567.0938,348.25 567.5156,348.25 L567.6094,348.25 L567.6094,341.7344 C567.0469,341.6875 566.7344,341.3906 566.7344,340.8906 C566.7344,340.6094 566.8906,340.3125 567.1406,340.1563 C567.2969,340.0625 567.4219,340.0469 567.8594,340.0469 L569.5625,340.0469 C570.0313,340.0469 570.1875,340.0781 570.3281,340.1875 C570.5625,340.3594 570.6875,340.625 570.6875,340.8906 C570.6875,341.1875 570.5313,341.4688 570.2813,341.625 C570.125,341.7031 569.9844,341.7344 569.5625,341.7344 L569.3125,341.7344 L569.3125,344.1563 L572.9531,344.1563 L572.9531,341.7344 L572.7031,341.7344 C572.25,341.7344 572.1094,341.7031 571.9375,341.5938 C571.7188,341.4219 571.5781,341.1719 571.5781,340.8906 C571.5781,340.6094 571.7344,340.3125 571.9844,340.1563 C572.1406,340.0625 572.2656,340.0469 572.7031,340.0469 L574.4219,340.0469 C574.875,340.0469 575.0313,340.0781 575.2031,340.1875 C575.4063,340.3594 575.5313,340.625 575.5313,340.8906 C575.5313,341.3906 575.2188,341.6875 574.6563,341.7344 L574.6563,348.25 L574.75,348.25 C575.2188,348.25 575.3594,348.2813 575.5156,348.4063 C575.7344,348.5781 575.875,348.8281 575.875,349.1094 C575.875,349.3906 575.7188,349.6875 575.4688,349.8281 C575.3281,349.9219 575.1094,349.9531 574.75,349.9531 L572.7031,349.9531 C572.2969,349.9531 572.0938,349.9063 571.9375,349.7969 C571.7188,349.625 571.5781,349.3594 571.5781,349.1094 C571.5781,348.8125 571.7344,348.5313 571.9844,348.375 C572.1406,348.2656 572.2969,348.25 572.7031,348.25 L572.9531,348.25 Z "/><text fill="#000000" font-family="sans-serif" font-size="12" lengthAdjust="spacingAndGlyphs" textLength="98" x="585" y="349.1074">KLDataProxDual</text><line style="stroke: #A80036; stroke-width: 1.5;" x1="557" x2="685" y1="360.9531" y2="360.9531"/><line style="stroke: #A80036; stroke-width: 1.5;" x1="557" x2="685" y1="368.9531" y2="368.9531"/><ellipse cx="567" cy="380.8555" fill="#84BE84" rx="3" ry="3" style="stroke: #038048; stroke-width: 1.0;"/><text fill="#000000" font-family="sans-serif" font-size="11" lengthAdjust="spacingAndGlyphs" textLength="97" x="576" y="383.1636">KLDataProxDual()</text><ellipse cx="567" cy="393.6602" fill="#84BE84" rx="3" ry="3" style="stroke: #038048; stroke-width: 1.0;"/><text fill="#000000" font-family="sans-serif" font-size="11" lengthAdjust="spacingAndGlyphs" textLength="63" x="576" y="395.9683">applyProx()</text><!--class L1DataProxDual--><rect fill="#FEFECE" filter="url(#f90dtf1)" height="73.6094" style="stroke: #A80036; stroke-width: 1.5;" width="131" x="389.5" y="328.9531"/><ellipse cx="404.5" cy="344.9531" fill="#E6FFE6" rx="11" ry="11" style="stroke: #A80036; stroke-width: 1.0;"/><path d="M406.4531,345.8594 L402.8125,345.8594 L402.8125,348.25 L403.0625,348.25 C403.5156,348.25 403.6875,348.2813 403.8281,348.4063 C404.0625,348.5781 404.1875,348.8281 404.1875,349.1094 C404.1875,349.3906 404.0313,349.6875 403.7813,349.8281 C403.6406,349.9219 403.4219,349.9531 403.0625,349.9531 L401.0156,349.9531 C400.6094,349.9531 400.3906,349.9063 400.2344,349.7969 C400.0313,349.625 399.8906,349.3594 399.8906,349.1094 C399.8906,348.8125 400.0469,348.5313 400.2969,348.375 C400.4531,348.2656 400.5938,348.25 401.0156,348.25 L401.1094,348.25 L401.1094,341.7344 C400.5469,341.6875 400.2344,341.3906 400.2344,340.8906 C400.2344,340.6094 400.3906,340.3125 400.6406,340.1563 C400.7969,340.0625 400.9219,340.0469 401.3594,340.0469 L403.0625,340.0469 C403.5313,340.0469 403.6875,340.0781 403.8281,340.1875 C404.0625,340.3594 404.1875,340.625 404.1875,340.8906 C404.1875,341.1875 404.0313,341.4688 403.7813,341.625 C403.625,341.7031 403.4844,341.7344 403.0625,341.7344 L402.8125,341.7344 L402.8125,344.1563 L406.4531,344.1563 L406.4531,341.7344 L406.2031,341.7344 C405.75,341.7344 405.6094,341.7031 405.4375,341.5938 C405.2188,341.4219 405.0781,341.1719 405.0781,340.8906 C405.0781,340.6094 405.2344,340.3125 405.4844,340.1563 C405.6406,340.0625 405.7656,340.0469 406.2031,340.0469 L407.9219,340.0469 C408.375,340.0469 408.5313,340.0781 408.7031,340.1875 C408.9063,340.3594 409.0313,340.625 409.0313,340.8906 C409.0313,341.3906 408.7188,341.6875 408.1563,341.7344 L408.1563,348.25 L408.25,348.25 C408.7188,348.25 408.8594,348.2813 409.0156,348.4063 C409.2344,348.5781 409.375,348.8281 409.375,349.1094 C409.375,349.3906 409.2188,349.6875 408.9688,349.8281 C408.8281,349.9219 408.6094,349.9531 408.25,349.9531 L406.2031,349.9531 C405.7969,349.9531 405.5938,349.9063 405.4375,349.7969 C405.2188,349.625 405.0781,349.3594 405.0781,349.1094 C405.0781,348.8125 405.2344,348.5313 405.4844,348.375 C405.6406,348.2656 405.7969,348.25 406.2031,348.25 L406.4531,348.25 Z "/><text fill="#000000" font-family="sans-serif" font-size="12" lengthAdjust="spacingAndGlyphs" textLength="99" x="418.5" y="349.1074">L1DataProxDual</text><line style="stroke: #A80036; stroke-width: 1.5;" x1="390.5" x2="519.5" y1="360.9531" y2="360.9531"/><line style="stroke: #A80036; stroke-width: 1.5;" x1="390.5" x2="519.5" y1="368.9531" y2="368.9531"/><ellipse cx="400.5" cy="380.8555" fill="#84BE84" rx="3" ry="3" style="stroke: #038048; stroke-width: 1.0;"/><text fill="#000000" font-family="sans-serif" font-size="11" lengthAdjust="spacingAndGlyphs" textLength="97" x="409.5" y="383.1636">L1DataProxDual()</text><ellipse cx="400.5" cy="393.6602" fill="#84BE84" rx="3" ry="3" style="stroke: #038048; stroke-width: 1.0;"/><text fill="#000000" font-family="sans-serif" font-size="11" lengthAdjust="spacingAndGlyphs" textLength="63" x="409.5" y="395.9683">applyProx()</text><!--class L2DataProxDual--><rect fill="#FEFECE" filter="url(#f90dtf1)" height="73.6094" style="stroke: #A80036; stroke-width: 1.5;" width="131" x="1103.5" y="328.9531"/><ellipse cx="1118.5" cy="344.9531" fill="#E6FFE6" rx="11" ry="11" style="stroke: #A80036; stroke-width: 1.0;"/><path d="M1120.4531,345.8594 L1116.8125,345.8594 L1116.8125,348.25 L1117.0625,348.25 C1117.5156,348.25 1117.6875,348.2813 1117.8281,348.4063 C1118.0625,348.5781 1118.1875,348.8281 1118.1875,349.1094 C1118.1875,349.3906 1118.0313,349.6875 1117.7813,349.8281 C1117.6406,349.9219 1117.4219,349.9531 1117.0625,349.9531 L1115.0156,349.9531 C1114.6094,349.9531 1114.3906,349.9063 1114.2344,349.7969 C1114.0313,349.625 1113.8906,349.3594 1113.8906,349.1094 C1113.8906,348.8125 1114.0469,348.5313 1114.2969,348.375 C1114.4531,348.2656 1114.5938,348.25 1115.0156,348.25 L1115.1094,348.25 L1115.1094,341.7344 C1114.5469,341.6875 1114.2344,341.3906 1114.2344,340.8906 C1114.2344,340.6094 1114.3906,340.3125 1114.6406,340.1563 C1114.7969,340.0625 1114.9219,340.0469 1115.3594,340.0469 L1117.0625,340.0469 C1117.5313,340.0469 1117.6875,340.0781 1117.8281,340.1875 C1118.0625,340.3594 1118.1875,340.625 1118.1875,340.8906 C1118.1875,341.1875 1118.0313,341.4688 1117.7813,341.625 C1117.625,341.7031 1117.4844,341.7344 1117.0625,341.7344 L1116.8125,341.7344 L1116.8125,344.1563 L1120.4531,344.1563 L1120.4531,341.7344 L1120.2031,341.7344 C1119.75,341.7344 1119.6094,341.7031 1119.4375,341.5938 C1119.2188,341.4219 1119.0781,341.1719 1119.0781,340.8906 C1119.0781,340.6094 1119.2344,340.3125 1119.4844,340.1563 C1119.6406,340.0625 1119.7656,340.0469 1120.2031,340.0469 L1121.9219,340.0469 C1122.375,340.0469 1122.5313,340.0781 1122.7031,340.1875 C1122.9063,340.3594 1123.0313,340.625 1123.0313,340.8906 C1123.0313,341.3906 1122.7188,341.6875 1122.1563,341.7344 L1122.1563,348.25 L1122.25,348.25 C1122.7188,348.25 1122.8594,348.2813 1123.0156,348.4063 C1123.2344,348.5781 1123.375,348.8281 1123.375,349.1094 C1123.375,349.3906 1123.2188,349.6875 1122.9688,349.8281 C1122.8281,349.9219 1122.6094,349.9531 1122.25,349.9531 L1120.2031,349.9531 C1119.7969,349.9531 1119.5938,349.9063 1119.4375,349.7969 C1119.2188,349.625 1119.0781,349.3594 1119.0781,349.1094 C1119.0781,348.8125 1119.2344,348.5313 1119.4844,348.375 C1119.6406,348.2656 1119.7969,348.25 1120.2031,348.25 L1120.4531,348.25 Z "/><text fill="#000000" font-family="sans-serif" font-size="12" lengthAdjust="spacingAndGlyphs" textLength="99" x="1132.5" y="349.1074">L2DataProxDual</text><line style="stroke: #A80036; stroke-width: 1.5;" x1="1104.5" x2="1233.5" y1="360.9531" y2="360.9531"/><line style="stroke: #A80036; stroke-width: 1.5;" x1="1104.5" x2="1233.5" y1="368.9531" y2="368.9531"/><ellipse cx="1114.5" cy="380.8555" fill="#84BE84" rx="3" ry="3" style="stroke: #038048; stroke-width: 1.0;"/><text fill="#000000" font-family="sans-serif" font-size="11" lengthAdjust="spacingAndGlyphs" textLength="97" x="1123.5" y="383.1636">L2DataProxDual()</text><ellipse cx="1114.5" cy="393.6602" fill="#84BE84" rx="3" ry="3" style="stroke: #038048; stroke-width: 1.0;"/><text fill="#000000" font-family="sans-serif" font-size="11" lengthAdjust="spacingAndGlyphs" textLength="63" x="1123.5" y="395.9683">applyProx()</text><!--class labelingProxDual--><rect fill="#FEFECE" filter="url(#f90dtf1)" height="73.6094" style="stroke: #A80036; stroke-width: 1.5;" width="136" x="932" y="328.9531"/><ellipse cx="947" cy="344.9531" fill="#E6FFE6" rx="11" ry="11" style="stroke: #A80036; stroke-width: 1.0;"/><path d="M948.9531,345.8594 L945.3125,345.8594 L945.3125,348.25 L945.5625,348.25 C946.0156,348.25 946.1875,348.2813 946.3281,348.4063 C946.5625,348.5781 946.6875,348.8281 946.6875,349.1094 C946.6875,349.3906 946.5313,349.6875 946.2813,349.8281 C946.1406,349.9219 945.9219,349.9531 945.5625,349.9531 L943.5156,349.9531 C943.1094,349.9531 942.8906,349.9063 942.7344,349.7969 C942.5313,349.625 942.3906,349.3594 942.3906,349.1094 C942.3906,348.8125 942.5469,348.5313 942.7969,348.375 C942.9531,348.2656 943.0938,348.25 943.5156,348.25 L943.6094,348.25 L943.6094,341.7344 C943.0469,341.6875 942.7344,341.3906 942.7344,340.8906 C942.7344,340.6094 942.8906,340.3125 943.1406,340.1563 C943.2969,340.0625 943.4219,340.0469 943.8594,340.0469 L945.5625,340.0469 C946.0313,340.0469 946.1875,340.0781 946.3281,340.1875 C946.5625,340.3594 946.6875,340.625 946.6875,340.8906 C946.6875,341.1875 946.5313,341.4688 946.2813,341.625 C946.125,341.7031 945.9844,341.7344 945.5625,341.7344 L945.3125,341.7344 L945.3125,344.1563 L948.9531,344.1563 L948.9531,341.7344 L948.7031,341.7344 C948.25,341.7344 948.1094,341.7031 947.9375,341.5938 C947.7188,341.4219 947.5781,341.1719 947.5781,340.8906 C947.5781,340.6094 947.7344,340.3125 947.9844,340.1563 C948.1406,340.0625 948.2656,340.0469 948.7031,340.0469 L950.4219,340.0469 C950.875,340.0469 951.0313,340.0781 951.2031,340.1875 C951.4063,340.3594 951.5313,340.625 951.5313,340.8906 C951.5313,341.3906 951.2188,341.6875 950.6563,341.7344 L950.6563,348.25 L950.75,348.25 C951.2188,348.25 951.3594,348.2813 951.5156,348.4063 C951.7344,348.5781 951.875,348.8281 951.875,349.1094 C951.875,349.3906 951.7188,349.6875 951.4688,349.8281 C951.3281,349.9219 951.1094,349.9531 950.75,349.9531 L948.7031,349.9531 C948.2969,349.9531 948.0938,349.9063 947.9375,349.7969 C947.7188,349.625 947.5781,349.3594 947.5781,349.1094 C947.5781,348.8125 947.7344,348.5313 947.9844,348.375 C948.1406,348.2656 948.2969,348.25 948.7031,348.25 L948.9531,348.25 Z "/><text fill="#000000" font-family="sans-serif" font-size="12" lengthAdjust="spacingAndGlyphs" textLength="104" x="961" y="349.1074">labelingProxDual</text><line style="stroke: #A80036; stroke-width: 1.5;" x1="933" x2="1067" y1="360.9531" y2="360.9531"/><line style="stroke: #A80036; stroke-width: 1.5;" x1="933" x2="1067" y1="368.9531" y2="368.9531"/><ellipse cx="943" cy="380.8555" fill="#84BE84" rx="3" ry="3" style="stroke: #038048; stroke-width: 1.0;"/><text fill="#000000" font-family="sans-serif" font-size="11" lengthAdjust="spacingAndGlyphs" textLength="102" x="952" y="383.1636">labelingProxDual()</text><ellipse cx="943" cy="393.6602" fill="#84BE84" rx="3" ry="3" style="stroke: #038048; stroke-width: 1.0;"/><text fill="#000000" font-family="sans-serif" font-size="11" lengthAdjust="spacingAndGlyphs" textLength="63" x="952" y="395.9683">applyProx()</text><path d="M809,289.2591 C809,306.4221 809,322.3961 809,335.2041 " fill="none" style="stroke: #A80036; stroke-width: 1.0;"/><polygon fill="none" points="802,289.0861,809,269.0861,816,289.0861,802,289.0861" style="stroke: #A80036; stroke-width: 1.0;"/><path d="M812.366,416.4541 C813.345,430.8611 814.441,446.9881 815.516,462.7871 " fill="none" style="stroke: #A80036; stroke-width: 1.0;"/><polygon fill="none" points="805.381,416.9241,811.009,396.4951,819.349,415.9741,805.381,416.9241" style="stroke: #A80036; stroke-width: 1.0;"/><path d="M120.516,600.1421 C108.326,628.5291 93.9081,662.1055 83.7835,685.6833 " fill="none" style="stroke: #A80036; stroke-width: 1.0;"/><polygon fill="none" points="114.195,597.1211,128.519,581.5061,127.059,602.6451,114.195,597.1211" style="stroke: #A80036; stroke-width: 1.0;"/><path d="M68.9466,416.0491 C54.3873,429.3931 41.1386,445.1541 33,462.9531 C2.8746,528.8371 18.5537,554.9641 33,625.9531 C37.2414,646.7961 46.5132,668.8025 54.836,685.7786 " fill="none" style="stroke: #A80036; stroke-width: 1.0;"/><polygon fill="none" points="64.6189,410.5431,84.434,403.0351,73.6256,421.2611,64.6189,410.5431" style="stroke: #A80036; stroke-width: 1.0;"/><path d="M707.871,401.7751 C706.239,402.1821 704.614,402.5751 703,402.9531 C506.978,448.8751 440.795,387.8451 254,462.9531 C228.201,473.3261 202.912,491.1361 183.099,507.3701 " fill="none" style="stroke: #A80036; stroke-width: 1.0;"/><polygon fill="none" points="706.146,394.9901,727.284,396.4611,709.843,408.4931,706.146,394.9901" style="stroke: #A80036; stroke-width: 1.0;"/><path d="M144,423.4431 C144,450.9541 144,483.2171 144,507.3581 " fill="none" style="stroke: #A80036; stroke-width: 1.0;"/><polygon fill="none" points="137,423.0961,144,403.0961,151,423.0961,137,423.0961" style="stroke: #A80036; stroke-width: 1.0;"/><path d="M762.702,410.4191 C728.45,442.5761 682.7,485.5271 652.57,513.8141 " fill="none" style="stroke: #A80036; stroke-width: 1.0;"/><polygon fill="none" points="758.161,405.0811,777.533,396.4951,767.743,415.2881,758.161,405.0811" style="stroke: #A80036; stroke-width: 1.0;"/><path d="M621,423.2681 C621,453.3431 621,489.1371 621,513.7961 " fill="none" style="stroke: #A80036; stroke-width: 1.0;"/><polygon fill="none" points="614,423.0961,621,403.0961,628,423.0961,614,423.0961" style="stroke: #A80036; stroke-width: 1.0;"/><path d="M353,595.4661 C353,624.8541 353,661.0023 353,685.896 " fill="none" style="stroke: #A80036; stroke-width: 1.0;"/><polygon fill="none" points="346,595.0651,353,575.0651,360,595.0651,346,595.0651" style="stroke: #A80036; stroke-width: 1.0;"/><path d="M703.294,402.8541 C703.196,402.8871 703.098,402.9201 703,402.9531 C623.076,429.8461 601.249,431.5181 523,462.9531 C484.971,478.2301 443.372,497.8751 410.843,513.9341 " fill="none" style="stroke: #A80036; stroke-width: 1.0;"/><polygon fill="none" points="701.054,396.2221,722.242,396.4621,705.529,409.4881,701.054,396.2221" style="stroke: #A80036; stroke-width: 1.0;"/><path d="M423.958,420.6681 C406.28,451.2581 384.803,488.4221 370.139,513.7961 " fill="none" style="stroke: #A80036; stroke-width: 1.0;"/><polygon fill="none" points="418.045,416.9101,434.113,403.0961,430.166,423.9151,418.045,416.9101" style="stroke: #A80036; stroke-width: 1.0;"/><path d="M751.414,642.4171 C740.165,658.0926 729.312,673.2144 720.43,685.592 " fill="none" style="stroke: #A80036; stroke-width: 1.0;"/><polygon fill="none" points="745.867,638.1401,763.215,625.9721,757.242,646.3031,745.867,638.1401" style="stroke: #A80036; stroke-width: 1.0;"/><path d="M456.739,423.4741 C461.248,480.3331 476.038,567.7071 523,625.9531 C549.142,658.3764 590.114,680.1832 625.951,694.1473 " fill="none" style="stroke: #A80036; stroke-width: 1.0;"/><polygon fill="none" points="449.74,423.7021,455.469,403.3011,463.712,422.8221,449.74,423.7021" style="stroke: #A80036; stroke-width: 1.0;"/><path d="M1249,595.4661 C1249,624.8541 1249,661.0023 1249,685.896 " fill="none" style="stroke: #A80036; stroke-width: 1.0;"/><polygon fill="none" points="1242,595.0651,1249,575.0651,1256,595.0651,1242,595.0651" style="stroke: #A80036; stroke-width: 1.0;"/><path d="M914.384,403.2041 C976.329,424.7511 1048.34,450.2791 1079,462.9531 C1116.57,478.4831 1157.81,497.9471 1190.26,513.8451 " fill="none" style="stroke: #A80036; stroke-width: 1.0;"/><polygon fill="none" points="911.715,409.6871,895.116,396.5171,916.306,396.4611,911.715,409.6871" style="stroke: #A80036; stroke-width: 1.0;"/><path d="M1193.74,421.5321 C1207.53,451.9551 1224.16,488.6601 1235.56,513.7961 " fill="none" style="stroke: #A80036; stroke-width: 1.0;"/><polygon fill="none" points="1187.26,424.2021,1185.38,403.0961,1200.01,418.4231,1187.26,424.2021" style="stroke: #A80036; stroke-width: 1.0;"/><path d="M890.586,642.4171 C901.835,658.0926 912.688,673.2144 921.57,685.592 " fill="none" style="stroke: #A80036; stroke-width: 1.0;"/><polygon fill="none" points="884.758,646.3031,878.785,625.9721,896.133,638.1401,884.758,646.3031" style="stroke: #A80036; stroke-width: 1.0;"/><path d="M1154.21,422.6101 C1135.9,488.6201 1104.06,593.7721 1079,625.9531 C1059.64,650.8193 1031.34,671.003 1005.568,685.8659 " fill="none" style="stroke: #A80036; stroke-width: 1.0;"/><polygon fill="none" points="1147.52,420.5451,1159.55,403.1001,1161.02,424.2381,1147.52,420.5451" style="stroke: #A80036; stroke-width: 1.0;"/><path d="M861.195,409.6061 C880.622,425.9191 902.641,444.9361 922,462.9531 C937.051,476.9611 953.045,493.0201 966.677,507.0911 " fill="none" style="stroke: #A80036; stroke-width: 1.0;"/><polygon fill="none" points="856.491,414.7991,845.601,396.6211,865.45,404.0401,856.491,414.7991" style="stroke: #A80036; stroke-width: 1.0;"/><path d="M1000.32,423.4431 C1000.476,450.9541 1000.659,483.2171 1000.795,507.3581 " fill="none" style="stroke: #A80036; stroke-width: 1.0;"/><polygon fill="none" points="993.318,423.1361,1000.205,403.0961,1007.32,423.0561,993.318,423.1361" style="stroke: #A80036; stroke-width: 1.0;"/><path d="M556.572,178.9931 C469.588,218.2001 314.771,287.9811 221.523,330.0111 " fill="none" style="stroke: #A80036; stroke-width: 1.0;"/><polygon fill="none" points="553.72,172.6001,574.83,170.7631,559.473,185.3641,553.72,172.6001" style="stroke: #A80036; stroke-width: 1.0;"/><path d="M621,200.0541 C621,239.5101 621,293.5621 621,328.8611 " fill="none" style="stroke: #A80036; stroke-width: 1.0;"/><polygon fill="none" points="614,199.8481,621,179.8481,628,199.8481,614,199.8481" style="stroke: #A80036; stroke-width: 1.0;"/><path d="M585.654,195.7321 C554.965,235.4801 511.13,292.2551 482.867,328.8611 " fill="none" style="stroke: #A80036; stroke-width: 1.0;"/><polygon fill="none" points="580.155,191.4001,597.918,179.8481,591.236,199.9561,580.155,191.4001" style="stroke: #A80036; stroke-width: 1.0;"/><path d="M655.574,195.1821 C677.731,220.9011 708.705,251.3891 743,268.9531 C880.356,339.2981 937.091,284.9311 1085,328.9531 C1090.93,330.7181 1097,332.7811 1103.04,335.0101 " fill="none" style="stroke: #A80036; stroke-width: 1.0;"/><polygon fill="none" points="650,199.4251,642.654,179.5501,660.791,190.5061,650,199.4251" style="stroke: #A80036; stroke-width: 1.0;"/><path d="M658.311,194.9751 C680.722,219.6351 711.03,249.1231 743,268.9531 C811.445,311.4081 838.819,300.0571 914,328.9531 C919.741,331.1601 925.673,333.5041 931.612,335.8981 " fill="none" style="stroke: #A80036; stroke-width: 1.0;"/><polygon fill="none" points="652.751,199.2531,644.787,179.6181,663.258,190.0011,652.751,199.2531" style="stroke: #A80036; stroke-width: 1.0;"/></g></svg>