<?xml version="1.0" encoding="UTF-8" standalone="no"?><svg xmlns="http://www.w3.org/2000/svg" xmlns:xlink="http://www.w3.org/1999/xlink" contentScriptType="application/ecmascript" contentStyleType="text/css" height="527px" preserveAspectRatio="none" style="width:1476px;height:527px;" version="1.1" viewBox="0 0 1476 527" width="1476px" zoomAndPan="magnify"><defs><filter height="300%" id="fxjriup" width="300%" x="-1" y="-1"><feGaussianBlur result="blurOut" stdDeviation="2.0"/><feColorMatrix in="blurOut" result="blurOut2" type="matrix" values="0 0 0 0 0 0 0 0 0 0 0 0 0 0 0 0 0 0 .4 0"/><feOffset dx="4.0" dy="4.0" in="blurOut2" result="blurOut3"/><feBlend in="SourceGraphic" in2="blurOut3" mode="normal"/></filter></defs><g><text fill="#000000" font-family="sans-serif" font-size="18" font-weight="bold" lengthAdjust="spacingAndGlyphs" textLength="102" x="691.5" y="16.708">Operators</text><!--class basicOperator--><rect fill="#FEFECE" filter="url(#fxjriup)" height="201.6563" style="stroke: #A80036; stroke-width: 1.5;" width="144" x="678" y="28.9531"/><ellipse cx="703.35" cy="44.9531" fill="#E6FFE6" rx="11" ry="11" style="stroke: #A80036; stroke-width: 1.0;"/><path d="M703.2563,48.75 L705.6938,42.9844 L705.2875,42.9844 C704.8344,42.9844 704.6938,42.9531 704.5063,42.8438 C704.3031,42.6719 704.1625,42.4219 704.1625,42.1406 C704.1625,41.8594 704.3188,41.5625 704.5844,41.4063 C704.725,41.3125 704.85,41.2969 705.2875,41.2969 L707.5375,41.2969 C707.975,41.2969 708.1469,41.3281 708.3031,41.4375 C708.5219,41.6094 708.6625,41.875 708.6625,42.1406 C708.6625,42.4844 708.4125,42.8281 708.1313,42.9219 C707.975,42.9688 707.8656,42.9844 707.5063,42.9844 L704.0219,51.2031 L702.3344,51.2031 L698.8969,42.9844 C698.5531,42.9844 698.4281,42.9688 698.2719,42.9219 C697.975,42.8281 697.7406,42.4844 697.7406,42.1406 C697.7406,41.8594 697.8969,41.5625 698.1469,41.4063 C698.3031,41.3125 698.4281,41.2969 698.8656,41.2969 L701.1313,41.2969 C701.5688,41.2969 701.7406,41.3281 701.9125,41.4375 C702.1156,41.6094 702.2406,41.875 702.2406,42.1406 C702.2406,42.4375 702.1,42.7188 701.8344,42.875 C701.6938,42.9531 701.5375,42.9844 701.1313,42.9844 L700.8031,42.9844 Z "/><text fill="#000000" font-family="sans-serif" font-size="12" lengthAdjust="spacingAndGlyphs" textLength="89" x="719.65" y="49.1074">basicOperator</text><line style="stroke: #A80036; stroke-width: 1.5;" x1="679" x2="821" y1="60.9531" y2="60.9531"/><ellipse cx="689" cy="72.8555" fill="none" rx="3" ry="3" style="stroke: #038048; stroke-width: 1.0;"/><text fill="#000000" font-family="sans-serif" font-size="11" lengthAdjust="spacingAndGlyphs" textLength="43" x="698" y="75.1636">isMinus</text><line style="stroke: #A80036; stroke-width: 1.5;" x1="679" x2="821" y1="81.7578" y2="81.7578"/><ellipse cx="689" cy="93.6602" fill="#84BE84" rx="3" ry="3" style="stroke: #038048; stroke-width: 1.0;"/><text fill="#000000" font-family="sans-serif" font-size="11" lengthAdjust="spacingAndGlyphs" textLength="29" x="698" y="95.9683">abs()</text><ellipse cx="689" cy="106.4648" fill="#84BE84" rx="3" ry="3" style="stroke: #038048; stroke-width: 1.0;"/><text fill="#000000" font-family="sans-serif" font-size="11" lengthAdjust="spacingAndGlyphs" textLength="72" x="698" y="108.7729">ctranspose()</text><ellipse cx="689" cy="119.2695" fill="#84BE84" rx="3" ry="3" style="stroke: #038048; stroke-width: 1.0;"/><text fill="#000000" font-family="sans-serif" font-size="11" lengthAdjust="spacingAndGlyphs" textLength="118" x="698" y="121.5776">getMaxRowSumAbs()</text><ellipse cx="689" cy="132.0742" fill="#84BE84" rx="3" ry="3" style="stroke: #038048; stroke-width: 1.0;"/><text fill="#000000" font-family="sans-serif" font-size="11" lengthAdjust="spacingAndGlyphs" textLength="96" x="698" y="134.3823">getRowSumAbs()</text><ellipse cx="689" cy="144.8789" fill="#84BE84" rx="3" ry="3" style="stroke: #038048; stroke-width: 1.0;"/><text fill="#000000" font-family="sans-serif" font-size="11" lengthAdjust="spacingAndGlyphs" textLength="43" x="698" y="147.187">minus()</text><ellipse cx="689" cy="157.6836" fill="#84BE84" rx="3" ry="3" style="stroke: #038048; stroke-width: 1.0;"/><text fill="#000000" font-family="sans-serif" font-size="11" lengthAdjust="spacingAndGlyphs" textLength="51" x="698" y="159.9917">mtimes()</text><ellipse cx="689" cy="170.4883" fill="#84BE84" rx="3" ry="3" style="stroke: #038048; stroke-width: 1.0;"/><text fill="#000000" font-family="sans-serif" font-size="11" lengthAdjust="spacingAndGlyphs" textLength="32" x="698" y="172.7964">plus()</text><ellipse cx="689" cy="183.293" fill="#84BE84" rx="3" ry="3" style="stroke: #038048; stroke-width: 1.0;"/><text fill="#000000" font-family="sans-serif" font-size="11" lengthAdjust="spacingAndGlyphs" textLength="77" x="698" y="185.6011">returnMatrix()</text><ellipse cx="689" cy="196.0977" fill="#84BE84" rx="3" ry="3" style="stroke: #038048; stroke-width: 1.0;"/><text fill="#000000" font-family="sans-serif" font-size="11" lengthAdjust="spacingAndGlyphs" textLength="30" x="698" y="198.4058">size()</text><ellipse cx="689" cy="208.9023" fill="#84BE84" rx="3" ry="3" style="stroke: #038048; stroke-width: 1.0;"/><text fill="#000000" font-family="sans-serif" font-size="11" lengthAdjust="spacingAndGlyphs" textLength="50" x="698" y="211.2104">uminus()</text><ellipse cx="689" cy="221.707" fill="#84BE84" rx="3" ry="3" style="stroke: #038048; stroke-width: 1.0;"/><text fill="#000000" font-family="sans-serif" font-size="11" lengthAdjust="spacingAndGlyphs" textLength="39" x="698" y="224.0151">uplus()</text><!--class concatOperator--><rect fill="#FEFECE" filter="url(#fxjriup)" height="188.8516" style="stroke: #A80036; stroke-width: 1.5;" width="144" x="6" y="309.9531"/><ellipse cx="26.85" cy="325.9531" fill="#E6FFE6" rx="11" ry="11" style="stroke: #A80036; stroke-width: 1.0;"/><path d="M26.7563,329.75 L29.1938,323.9844 L28.7875,323.9844 C28.3344,323.9844 28.1938,323.9531 28.0063,323.8438 C27.8031,323.6719 27.6625,323.4219 27.6625,323.1406 C27.6625,322.8594 27.8188,322.5625 28.0844,322.4063 C28.225,322.3125 28.35,322.2969 28.7875,322.2969 L31.0375,322.2969 C31.475,322.2969 31.6469,322.3281 31.8031,322.4375 C32.0219,322.6094 32.1625,322.875 32.1625,323.1406 C32.1625,323.4844 31.9125,323.8281 31.6313,323.9219 C31.475,323.9688 31.3656,323.9844 31.0063,323.9844 L27.5219,332.2031 L25.8344,332.2031 L22.3969,323.9844 C22.0531,323.9844 21.9281,323.9688 21.7719,323.9219 C21.475,323.8281 21.2406,323.4844 21.2406,323.1406 C21.2406,322.8594 21.3969,322.5625 21.6469,322.4063 C21.8031,322.3125 21.9281,322.2969 22.3656,322.2969 L24.6313,322.2969 C25.0688,322.2969 25.2406,322.3281 25.4125,322.4375 C25.6156,322.6094 25.7406,322.875 25.7406,323.1406 C25.7406,323.4375 25.6,323.7188 25.3344,323.875 C25.1938,323.9531 25.0375,323.9844 24.6313,323.9844 L24.3031,323.9844 Z "/><text fill="#000000" font-family="sans-serif" font-size="12" lengthAdjust="spacingAndGlyphs" textLength="99" x="42.15" y="330.1074">concatOperator</text><line style="stroke: #A80036; stroke-width: 1.5;" x1="7" x2="149" y1="341.9531" y2="341.9531"/><text fill="#000000" font-family="sans-serif" font-size="11" lengthAdjust="spacingAndGlyphs" textLength="16" x="26" y="356.1636">+A</text><text fill="#000000" font-family="sans-serif" font-size="11" lengthAdjust="spacingAndGlyphs" textLength="17" x="26" y="368.9683">+B</text><ellipse cx="17" cy="379.4648" fill="none" rx="3" ry="3" style="stroke: #038048; stroke-width: 1.0;"/><text fill="#000000" font-family="sans-serif" font-size="11" lengthAdjust="spacingAndGlyphs" textLength="54" x="26" y="381.7729">operation</text><line style="stroke: #A80036; stroke-width: 1.5;" x1="7" x2="149" y1="388.3672" y2="388.3672"/><ellipse cx="17" cy="400.2695" fill="#84BE84" rx="3" ry="3" style="stroke: #038048; stroke-width: 1.0;"/><text fill="#000000" font-family="sans-serif" font-size="11" lengthAdjust="spacingAndGlyphs" textLength="96" x="26" y="402.5776">concatOperator()</text><ellipse cx="17" cy="413.0742" fill="#84BE84" rx="3" ry="3" style="stroke: #038048; stroke-width: 1.0;"/><text fill="#000000" font-family="sans-serif" font-size="11" lengthAdjust="spacingAndGlyphs" textLength="29" x="26" y="415.3823">abs()</text><ellipse cx="17" cy="425.8789" fill="#84BE84" rx="3" ry="3" style="stroke: #038048; stroke-width: 1.0;"/><text fill="#000000" font-family="sans-serif" font-size="11" lengthAdjust="spacingAndGlyphs" textLength="72" x="26" y="428.187">ctranspose()</text><ellipse cx="17" cy="438.6836" fill="#84BE84" rx="3" ry="3" style="stroke: #038048; stroke-width: 1.0;"/><text fill="#000000" font-family="sans-serif" font-size="11" lengthAdjust="spacingAndGlyphs" textLength="118" x="26" y="440.9917">getMaxRowSumAbs()</text><ellipse cx="17" cy="451.4883" fill="#84BE84" rx="3" ry="3" style="stroke: #038048; stroke-width: 1.0;"/><text fill="#000000" font-family="sans-serif" font-size="11" lengthAdjust="spacingAndGlyphs" textLength="96" x="26" y="453.7964">getRowSumAbs()</text><ellipse cx="17" cy="464.293" fill="#84BE84" rx="3" ry="3" style="stroke: #038048; stroke-width: 1.0;"/><text fill="#000000" font-family="sans-serif" font-size="11" lengthAdjust="spacingAndGlyphs" textLength="51" x="26" y="466.6011">mtimes()</text><ellipse cx="17" cy="477.0977" fill="#84BE84" rx="3" ry="3" style="stroke: #038048; stroke-width: 1.0;"/><text fill="#000000" font-family="sans-serif" font-size="11" lengthAdjust="spacingAndGlyphs" textLength="77" x="26" y="479.4058">returnMatrix()</text><ellipse cx="17" cy="489.9023" fill="#84BE84" rx="3" ry="3" style="stroke: #038048; stroke-width: 1.0;"/><text fill="#000000" font-family="sans-serif" font-size="11" lengthAdjust="spacingAndGlyphs" textLength="30" x="26" y="492.2104">size()</text><!--class convolutionOperator--><rect fill="#FEFECE" filter="url(#fxjriup)" height="227.2656" style="stroke: #A80036; stroke-width: 1.5;" width="160" x="185" y="290.9531"/><ellipse cx="200" cy="306.9531" fill="#E6FFE6" rx="11" ry="11" style="stroke: #A80036; stroke-width: 1.0;"/><path d="M199.9063,310.75 L202.3438,304.9844 L201.9375,304.9844 C201.4844,304.9844 201.3438,304.9531 201.1563,304.8438 C200.9531,304.6719 200.8125,304.4219 200.8125,304.1406 C200.8125,303.8594 200.9688,303.5625 201.2344,303.4063 C201.375,303.3125 201.5,303.2969 201.9375,303.2969 L204.1875,303.2969 C204.625,303.2969 204.7969,303.3281 204.9531,303.4375 C205.1719,303.6094 205.3125,303.875 205.3125,304.1406 C205.3125,304.4844 205.0625,304.8281 204.7813,304.9219 C204.625,304.9688 204.5156,304.9844 204.1563,304.9844 L200.6719,313.2031 L198.9844,313.2031 L195.5469,304.9844 C195.2031,304.9844 195.0781,304.9688 194.9219,304.9219 C194.625,304.8281 194.3906,304.4844 194.3906,304.1406 C194.3906,303.8594 194.5469,303.5625 194.7969,303.4063 C194.9531,303.3125 195.0781,303.2969 195.5156,303.2969 L197.7813,303.2969 C198.2188,303.2969 198.3906,303.3281 198.5625,303.4375 C198.7656,303.6094 198.8906,303.875 198.8906,304.1406 C198.8906,304.4375 198.75,304.7188 198.4844,304.875 C198.3438,304.9531 198.1875,304.9844 197.7813,304.9844 L197.4531,304.9844 Z "/><text fill="#000000" font-family="sans-serif" font-size="12" lengthAdjust="spacingAndGlyphs" textLength="128" x="214" y="311.1074">convolutionOperator</text><line style="stroke: #A80036; stroke-width: 1.5;" x1="186" x2="344" y1="322.9531" y2="322.9531"/><ellipse cx="196" cy="334.8555" fill="none" rx="3" ry="3" style="stroke: #038048; stroke-width: 1.0;"/><text fill="#000000" font-family="sans-serif" font-size="11" lengthAdjust="spacingAndGlyphs" textLength="40" x="205" y="337.1636">fftFilter</text><ellipse cx="196" cy="347.6602" fill="none" rx="3" ry="3" style="stroke: #038048; stroke-width: 1.0;"/><text fill="#000000" font-family="sans-serif" font-size="11" lengthAdjust="spacingAndGlyphs" textLength="48" x="205" y="349.9683">fftFilterC</text><ellipse cx="196" cy="360.4648" fill="none" rx="3" ry="3" style="stroke: #038048; stroke-width: 1.0;"/><text fill="#000000" font-family="sans-serif" font-size="11" lengthAdjust="spacingAndGlyphs" textLength="88" x="205" y="362.7729">inputDimension</text><ellipse cx="196" cy="373.2695" fill="none" rx="3" ry="3" style="stroke: #038048; stroke-width: 1.0;"/><text fill="#000000" font-family="sans-serif" font-size="11" lengthAdjust="spacingAndGlyphs" textLength="35" x="205" y="375.5776">kernel</text><ellipse cx="196" cy="386.0742" fill="none" rx="3" ry="3" style="stroke: #038048; stroke-width: 1.0;"/><text fill="#000000" font-family="sans-serif" font-size="11" lengthAdjust="spacingAndGlyphs" textLength="65" x="205" y="388.3823">transposed</text><line style="stroke: #A80036; stroke-width: 1.5;" x1="186" x2="344" y1="394.9766" y2="394.9766"/><ellipse cx="196" cy="406.8789" fill="#84BE84" rx="3" ry="3" style="stroke: #038048; stroke-width: 1.0;"/><text fill="#000000" font-family="sans-serif" font-size="11" lengthAdjust="spacingAndGlyphs" textLength="123" x="205" y="409.187">convolutionOperator()</text><ellipse cx="196" cy="419.6836" fill="#84BE84" rx="3" ry="3" style="stroke: #038048; stroke-width: 1.0;"/><text fill="#000000" font-family="sans-serif" font-size="11" lengthAdjust="spacingAndGlyphs" textLength="29" x="205" y="421.9917">abs()</text><ellipse cx="196" cy="432.4883" fill="#84BE84" rx="3" ry="3" style="stroke: #038048; stroke-width: 1.0;"/><text fill="#000000" font-family="sans-serif" font-size="11" lengthAdjust="spacingAndGlyphs" textLength="72" x="205" y="434.7964">ctranspose()</text><ellipse cx="196" cy="445.293" fill="#84BE84" rx="3" ry="3" style="stroke: #038048; stroke-width: 1.0;"/><text fill="#000000" font-family="sans-serif" font-size="11" lengthAdjust="spacingAndGlyphs" textLength="118" x="205" y="447.6011">getMaxRowSumAbs()</text><ellipse cx="196" cy="458.0977" fill="#84BE84" rx="3" ry="3" style="stroke: #038048; stroke-width: 1.0;"/><text fill="#000000" font-family="sans-serif" font-size="11" lengthAdjust="spacingAndGlyphs" textLength="96" x="205" y="460.4058">getRowSumAbs()</text><ellipse cx="196" cy="470.9023" fill="#84BE84" rx="3" ry="3" style="stroke: #038048; stroke-width: 1.0;"/><text fill="#000000" font-family="sans-serif" font-size="11" lengthAdjust="spacingAndGlyphs" textLength="51" x="205" y="473.2104">mtimes()</text><ellipse cx="196" cy="483.707" fill="#84BE84" rx="3" ry="3" style="stroke: #038048; stroke-width: 1.0;"/><text fill="#000000" font-family="sans-serif" font-size="11" lengthAdjust="spacingAndGlyphs" textLength="77" x="205" y="486.0151">returnMatrix()</text><ellipse cx="196" cy="496.5117" fill="#84BE84" rx="3" ry="3" style="stroke: #038048; stroke-width: 1.0;"/><text fill="#000000" font-family="sans-serif" font-size="11" lengthAdjust="spacingAndGlyphs" textLength="30" x="205" y="498.8198">size()</text><ellipse cx="196" cy="509.3164" fill="#84BE84" rx="3" ry="3" style="stroke: #038048; stroke-width: 1.0;"/><text fill="#000000" font-family="sans-serif" font-size="11" lengthAdjust="spacingAndGlyphs" textLength="50" x="205" y="511.6245">uminus()</text><!--class diagonalOperator--><rect fill="#FEFECE" filter="url(#fxjriup)" height="163.2422" style="stroke: #A80036; stroke-width: 1.5;" width="144" x="380" y="322.9531"/><ellipse cx="395.9" cy="338.9531" fill="#E6FFE6" rx="11" ry="11" style="stroke: #A80036; stroke-width: 1.0;"/><path d="M395.8063,342.75 L398.2438,336.9844 L397.8375,336.9844 C397.3844,336.9844 397.2438,336.9531 397.0563,336.8438 C396.8531,336.6719 396.7125,336.4219 396.7125,336.1406 C396.7125,335.8594 396.8688,335.5625 397.1344,335.4063 C397.275,335.3125 397.4,335.2969 397.8375,335.2969 L400.0875,335.2969 C400.525,335.2969 400.6969,335.3281 400.8531,335.4375 C401.0719,335.6094 401.2125,335.875 401.2125,336.1406 C401.2125,336.4844 400.9625,336.8281 400.6813,336.9219 C400.525,336.9688 400.4156,336.9844 400.0563,336.9844 L396.5719,345.2031 L394.8844,345.2031 L391.4469,336.9844 C391.1031,336.9844 390.9781,336.9688 390.8219,336.9219 C390.525,336.8281 390.2906,336.4844 390.2906,336.1406 C390.2906,335.8594 390.4469,335.5625 390.6969,335.4063 C390.8531,335.3125 390.9781,335.2969 391.4156,335.2969 L393.6813,335.2969 C394.1188,335.2969 394.2906,335.3281 394.4625,335.4375 C394.6656,335.6094 394.7906,335.875 394.7906,336.1406 C394.7906,336.4375 394.65,336.7188 394.3844,336.875 C394.2438,336.9531 394.0875,336.9844 393.6813,336.9844 L393.3531,336.9844 Z "/><text fill="#000000" font-family="sans-serif" font-size="12" lengthAdjust="spacingAndGlyphs" textLength="110" x="410.1" y="343.1074">diagonalOperator</text><line style="stroke: #A80036; stroke-width: 1.5;" x1="381" x2="523" y1="354.9531" y2="354.9531"/><ellipse cx="391" cy="366.8555" fill="none" rx="3" ry="3" style="stroke: #038048; stroke-width: 1.0;"/><text fill="#000000" font-family="sans-serif" font-size="11" lengthAdjust="spacingAndGlyphs" textLength="101" x="400" y="369.1636">diagonalElements</text><line style="stroke: #A80036; stroke-width: 1.5;" x1="381" x2="523" y1="375.7578" y2="375.7578"/><ellipse cx="391" cy="387.6602" fill="#84BE84" rx="3" ry="3" style="stroke: #038048; stroke-width: 1.0;"/><text fill="#000000" font-family="sans-serif" font-size="11" lengthAdjust="spacingAndGlyphs" textLength="107" x="400" y="389.9683">diagonalOperator()</text><ellipse cx="391" cy="400.4648" fill="#84BE84" rx="3" ry="3" style="stroke: #038048; stroke-width: 1.0;"/><text fill="#000000" font-family="sans-serif" font-size="11" lengthAdjust="spacingAndGlyphs" textLength="29" x="400" y="402.7729">abs()</text><ellipse cx="391" cy="413.2695" fill="#84BE84" rx="3" ry="3" style="stroke: #038048; stroke-width: 1.0;"/><text fill="#000000" font-family="sans-serif" font-size="11" lengthAdjust="spacingAndGlyphs" textLength="72" x="400" y="415.5776">ctranspose()</text><ellipse cx="391" cy="426.0742" fill="#84BE84" rx="3" ry="3" style="stroke: #038048; stroke-width: 1.0;"/><text fill="#000000" font-family="sans-serif" font-size="11" lengthAdjust="spacingAndGlyphs" textLength="118" x="400" y="428.3823">getMaxRowSumAbs()</text><ellipse cx="391" cy="438.8789" fill="#84BE84" rx="3" ry="3" style="stroke: #038048; stroke-width: 1.0;"/><text fill="#000000" font-family="sans-serif" font-size="11" lengthAdjust="spacingAndGlyphs" textLength="96" x="400" y="441.187">getRowSumAbs()</text><ellipse cx="391" cy="451.6836" fill="#84BE84" rx="3" ry="3" style="stroke: #038048; stroke-width: 1.0;"/><text fill="#000000" font-family="sans-serif" font-size="11" lengthAdjust="spacingAndGlyphs" textLength="51" x="400" y="453.9917">mtimes()</text><ellipse cx="391" cy="464.4883" fill="#84BE84" rx="3" ry="3" style="stroke: #038048; stroke-width: 1.0;"/><text fill="#000000" font-family="sans-serif" font-size="11" lengthAdjust="spacingAndGlyphs" textLength="77" x="400" y="466.7964">returnMatrix()</text><ellipse cx="391" cy="477.293" fill="#84BE84" rx="3" ry="3" style="stroke: #038048; stroke-width: 1.0;"/><text fill="#000000" font-family="sans-serif" font-size="11" lengthAdjust="spacingAndGlyphs" textLength="30" x="400" y="479.6011">size()</text><!--class functionHandleOperator--><rect fill="#FEFECE" filter="url(#fxjriup)" height="214.4609" style="stroke: #A80036; stroke-width: 1.5;" width="183" x="559.5" y="297.4531"/><ellipse cx="574.5" cy="313.4531" fill="#E6FFE6" rx="11" ry="11" style="stroke: #A80036; stroke-width: 1.0;"/><path d="M574.4063,317.25 L576.8438,311.4844 L576.4375,311.4844 C575.9844,311.4844 575.8438,311.4531 575.6563,311.3438 C575.4531,311.1719 575.3125,310.9219 575.3125,310.6406 C575.3125,310.3594 575.4688,310.0625 575.7344,309.9063 C575.875,309.8125 576,309.7969 576.4375,309.7969 L578.6875,309.7969 C579.125,309.7969 579.2969,309.8281 579.4531,309.9375 C579.6719,310.1094 579.8125,310.375 579.8125,310.6406 C579.8125,310.9844 579.5625,311.3281 579.2813,311.4219 C579.125,311.4688 579.0156,311.4844 578.6563,311.4844 L575.1719,319.7031 L573.4844,319.7031 L570.0469,311.4844 C569.7031,311.4844 569.5781,311.4688 569.4219,311.4219 C569.125,311.3281 568.8906,310.9844 568.8906,310.6406 C568.8906,310.3594 569.0469,310.0625 569.2969,309.9063 C569.4531,309.8125 569.5781,309.7969 570.0156,309.7969 L572.2813,309.7969 C572.7188,309.7969 572.8906,309.8281 573.0625,309.9375 C573.2656,310.1094 573.3906,310.375 573.3906,310.6406 C573.3906,310.9375 573.25,311.2188 572.9844,311.375 C572.8438,311.4531 572.6875,311.4844 572.2813,311.4844 L571.9531,311.4844 Z "/><text fill="#000000" font-family="sans-serif" font-size="12" lengthAdjust="spacingAndGlyphs" textLength="151" x="588.5" y="317.6074">functionHandleOperator</text><line style="stroke: #A80036; stroke-width: 1.5;" x1="560.5" x2="741.5" y1="329.4531" y2="329.4531"/><ellipse cx="570.5" cy="341.3555" fill="none" rx="3" ry="3" style="stroke: #038048; stroke-width: 1.0;"/><text fill="#000000" font-family="sans-serif" font-size="11" lengthAdjust="spacingAndGlyphs" textLength="78" x="579.5" y="343.6636">argumentSize</text><ellipse cx="570.5" cy="354.1602" fill="none" rx="3" ry="3" style="stroke: #038048; stroke-width: 1.0;"/><text fill="#000000" font-family="sans-serif" font-size="11" lengthAdjust="spacingAndGlyphs" textLength="43" x="579.5" y="356.4683">fHandle</text><ellipse cx="570.5" cy="366.9648" fill="none" rx="3" ry="3" style="stroke: #038048; stroke-width: 1.0;"/><text fill="#000000" font-family="sans-serif" font-size="11" lengthAdjust="spacingAndGlyphs" textLength="50" x="579.5" y="369.2729">fHandleT</text><ellipse cx="570.5" cy="379.7695" fill="none" rx="3" ry="3" style="stroke: #038048; stroke-width: 1.0;"/><text fill="#000000" font-family="sans-serif" font-size="11" lengthAdjust="spacingAndGlyphs" textLength="80" x="579.5" y="382.0776">operatorNorm</text><ellipse cx="570.5" cy="392.5742" fill="none" rx="3" ry="3" style="stroke: #038048; stroke-width: 1.0;"/><text fill="#000000" font-family="sans-serif" font-size="11" lengthAdjust="spacingAndGlyphs" textLength="65" x="579.5" y="394.8823">transposed</text><line style="stroke: #A80036; stroke-width: 1.5;" x1="560.5" x2="741.5" y1="401.4766" y2="401.4766"/><ellipse cx="570.5" cy="413.3789" fill="#84BE84" rx="3" ry="3" style="stroke: #038048; stroke-width: 1.0;"/><text fill="#000000" font-family="sans-serif" font-size="11" lengthAdjust="spacingAndGlyphs" textLength="143" x="579.5" y="415.687">functionHandleOperator()</text><ellipse cx="570.5" cy="426.1836" fill="#84BE84" rx="3" ry="3" style="stroke: #038048; stroke-width: 1.0;"/><text fill="#000000" font-family="sans-serif" font-size="11" lengthAdjust="spacingAndGlyphs" textLength="29" x="579.5" y="428.4917">abs()</text><ellipse cx="570.5" cy="438.9883" fill="#84BE84" rx="3" ry="3" style="stroke: #038048; stroke-width: 1.0;"/><text fill="#000000" font-family="sans-serif" font-size="11" lengthAdjust="spacingAndGlyphs" textLength="72" x="579.5" y="441.2964">ctranspose()</text><ellipse cx="570.5" cy="451.793" fill="#84BE84" rx="3" ry="3" style="stroke: #038048; stroke-width: 1.0;"/><text fill="#000000" font-family="sans-serif" font-size="11" lengthAdjust="spacingAndGlyphs" textLength="118" x="579.5" y="454.1011">getMaxRowSumAbs()</text><ellipse cx="570.5" cy="464.5977" fill="#84BE84" rx="3" ry="3" style="stroke: #038048; stroke-width: 1.0;"/><text fill="#000000" font-family="sans-serif" font-size="11" lengthAdjust="spacingAndGlyphs" textLength="96" x="579.5" y="466.9058">getRowSumAbs()</text><ellipse cx="570.5" cy="477.4023" fill="#84BE84" rx="3" ry="3" style="stroke: #038048; stroke-width: 1.0;"/><text fill="#000000" font-family="sans-serif" font-size="11" lengthAdjust="spacingAndGlyphs" textLength="51" x="579.5" y="479.7104">mtimes()</text><ellipse cx="570.5" cy="490.207" fill="#84BE84" rx="3" ry="3" style="stroke: #038048; stroke-width: 1.0;"/><text fill="#000000" font-family="sans-serif" font-size="11" lengthAdjust="spacingAndGlyphs" textLength="77" x="579.5" y="492.5151">returnMatrix()</text><ellipse cx="570.5" cy="503.0117" fill="#84BE84" rx="3" ry="3" style="stroke: #038048; stroke-width: 1.0;"/><text fill="#000000" font-family="sans-serif" font-size="11" lengthAdjust="spacingAndGlyphs" textLength="30" x="579.5" y="505.3198">size()</text><!--class gradientOperator--><rect fill="#FEFECE" filter="url(#fxjriup)" height="201.6563" style="stroke: #A80036; stroke-width: 1.5;" width="144" x="778" y="303.4531"/><ellipse cx="794.35" cy="319.4531" fill="#E6FFE6" rx="11" ry="11" style="stroke: #A80036; stroke-width: 1.0;"/><path d="M794.2563,323.25 L796.6938,317.4844 L796.2875,317.4844 C795.8344,317.4844 795.6938,317.4531 795.5063,317.3438 C795.3031,317.1719 795.1625,316.9219 795.1625,316.6406 C795.1625,316.3594 795.3188,316.0625 795.5844,315.9063 C795.725,315.8125 795.85,315.7969 796.2875,315.7969 L798.5375,315.7969 C798.975,315.7969 799.1469,315.8281 799.3031,315.9375 C799.5219,316.1094 799.6625,316.375 799.6625,316.6406 C799.6625,316.9844 799.4125,317.3281 799.1313,317.4219 C798.975,317.4688 798.8656,317.4844 798.5063,317.4844 L795.0219,325.7031 L793.3344,325.7031 L789.8969,317.4844 C789.5531,317.4844 789.4281,317.4688 789.2719,317.4219 C788.975,317.3281 788.7406,316.9844 788.7406,316.6406 C788.7406,316.3594 788.8969,316.0625 789.1469,315.9063 C789.3031,315.8125 789.4281,315.7969 789.8656,315.7969 L792.1313,315.7969 C792.5688,315.7969 792.7406,315.8281 792.9125,315.9375 C793.1156,316.1094 793.2406,316.375 793.2406,316.6406 C793.2406,316.9375 793.1,317.2188 792.8344,317.375 C792.6938,317.4531 792.5375,317.4844 792.1313,317.4844 L791.8031,317.4844 Z "/><text fill="#000000" font-family="sans-serif" font-size="12" lengthAdjust="spacingAndGlyphs" textLength="109" x="808.65" y="323.6074">gradientOperator</text><line style="stroke: #A80036; stroke-width: 1.5;" x1="779" x2="921" y1="335.4531" y2="335.4531"/><ellipse cx="789" cy="347.3555" fill="none" rx="3" ry="3" style="stroke: #038048; stroke-width: 1.0;"/><text fill="#000000" font-family="sans-serif" font-size="11" lengthAdjust="spacingAndGlyphs" textLength="76" x="798" y="349.6636">gradDirection</text><ellipse cx="789" cy="360.1602" fill="none" rx="3" ry="3" style="stroke: #038048; stroke-width: 1.0;"/><text fill="#000000" font-family="sans-serif" font-size="11" lengthAdjust="spacingAndGlyphs" textLength="88" x="798" y="362.4683">inputDimension</text><ellipse cx="789" cy="372.9648" fill="none" rx="3" ry="3" style="stroke: #038048; stroke-width: 1.0;"/><text fill="#000000" font-family="sans-serif" font-size="11" lengthAdjust="spacingAndGlyphs" textLength="36" x="798" y="375.2729">matrix</text><ellipse cx="789" cy="385.7695" fill="none" rx="3" ry="3" style="stroke: #038048; stroke-width: 1.0;"/><text fill="#000000" font-family="sans-serif" font-size="11" lengthAdjust="spacingAndGlyphs" textLength="24" x="798" y="388.0776">type</text><line style="stroke: #A80036; stroke-width: 1.5;" x1="779" x2="921" y1="394.6719" y2="394.6719"/><ellipse cx="789" cy="406.5742" fill="#84BE84" rx="3" ry="3" style="stroke: #038048; stroke-width: 1.0;"/><text fill="#000000" font-family="sans-serif" font-size="11" lengthAdjust="spacingAndGlyphs" textLength="106" x="798" y="408.8823">gradientOperator()</text><ellipse cx="789" cy="419.3789" fill="#84BE84" rx="3" ry="3" style="stroke: #038048; stroke-width: 1.0;"/><text fill="#000000" font-family="sans-serif" font-size="11" lengthAdjust="spacingAndGlyphs" textLength="29" x="798" y="421.687">abs()</text><ellipse cx="789" cy="432.1836" fill="#84BE84" rx="3" ry="3" style="stroke: #038048; stroke-width: 1.0;"/><text fill="#000000" font-family="sans-serif" font-size="11" lengthAdjust="spacingAndGlyphs" textLength="72" x="798" y="434.4917">ctranspose()</text><ellipse cx="789" cy="444.9883" fill="#84BE84" rx="3" ry="3" style="stroke: #038048; stroke-width: 1.0;"/><text fill="#000000" font-family="sans-serif" font-size="11" lengthAdjust="spacingAndGlyphs" textLength="118" x="798" y="447.2964">getMaxRowSumAbs()</text><ellipse cx="789" cy="457.793" fill="#84BE84" rx="3" ry="3" style="stroke: #038048; stroke-width: 1.0;"/><text fill="#000000" font-family="sans-serif" font-size="11" lengthAdjust="spacingAndGlyphs" textLength="96" x="798" y="460.1011">getRowSumAbs()</text><ellipse cx="789" cy="470.5977" fill="#84BE84" rx="3" ry="3" style="stroke: #038048; stroke-width: 1.0;"/><text fill="#000000" font-family="sans-serif" font-size="11" lengthAdjust="spacingAndGlyphs" textLength="51" x="798" y="472.9058">mtimes()</text><ellipse cx="789" cy="483.4023" fill="#84BE84" rx="3" ry="3" style="stroke: #038048; stroke-width: 1.0;"/><text fill="#000000" font-family="sans-serif" font-size="11" lengthAdjust="spacingAndGlyphs" textLength="77" x="798" y="485.7104">returnMatrix()</text><ellipse cx="789" cy="496.207" fill="#84BE84" rx="3" ry="3" style="stroke: #038048; stroke-width: 1.0;"/><text fill="#000000" font-family="sans-serif" font-size="11" lengthAdjust="spacingAndGlyphs" textLength="30" x="798" y="498.5151">size()</text><!--class identityOperator--><rect fill="#FEFECE" filter="url(#fxjriup)" height="163.2422" style="stroke: #A80036; stroke-width: 1.5;" width="144" x="957" y="322.9531"/><ellipse cx="976.5" cy="338.9531" fill="#E6FFE6" rx="11" ry="11" style="stroke: #A80036; stroke-width: 1.0;"/><path d="M976.4063,342.75 L978.8438,336.9844 L978.4375,336.9844 C977.9844,336.9844 977.8438,336.9531 977.6563,336.8438 C977.4531,336.6719 977.3125,336.4219 977.3125,336.1406 C977.3125,335.8594 977.4688,335.5625 977.7344,335.4063 C977.875,335.3125 978,335.2969 978.4375,335.2969 L980.6875,335.2969 C981.125,335.2969 981.2969,335.3281 981.4531,335.4375 C981.6719,335.6094 981.8125,335.875 981.8125,336.1406 C981.8125,336.4844 981.5625,336.8281 981.2813,336.9219 C981.125,336.9688 981.0156,336.9844 980.6563,336.9844 L977.1719,345.2031 L975.4844,345.2031 L972.0469,336.9844 C971.7031,336.9844 971.5781,336.9688 971.4219,336.9219 C971.125,336.8281 970.8906,336.4844 970.8906,336.1406 C970.8906,335.8594 971.0469,335.5625 971.2969,335.4063 C971.4531,335.3125 971.5781,335.2969 972.0156,335.2969 L974.2813,335.2969 C974.7188,335.2969 974.8906,335.3281 975.0625,335.4375 C975.2656,335.6094 975.3906,335.875 975.3906,336.1406 C975.3906,336.4375 975.25,336.7188 974.9844,336.875 C974.8438,336.9531 974.6875,336.9844 974.2813,336.9844 L973.9531,336.9844 Z "/><text fill="#000000" font-family="sans-serif" font-size="12" lengthAdjust="spacingAndGlyphs" textLength="102" x="991.5" y="343.1074">identityOperator</text><line style="stroke: #A80036; stroke-width: 1.5;" x1="958" x2="1100" y1="354.9531" y2="354.9531"/><ellipse cx="968" cy="366.8555" fill="none" rx="3" ry="3" style="stroke: #038048; stroke-width: 1.0;"/><text fill="#000000" font-family="sans-serif" font-size="11" lengthAdjust="spacingAndGlyphs" textLength="20" x="977" y="369.1636">nPx</text><line style="stroke: #A80036; stroke-width: 1.5;" x1="958" x2="1100" y1="375.7578" y2="375.7578"/><ellipse cx="968" cy="387.6602" fill="#84BE84" rx="3" ry="3" style="stroke: #038048; stroke-width: 1.0;"/><text fill="#000000" font-family="sans-serif" font-size="11" lengthAdjust="spacingAndGlyphs" textLength="100" x="977" y="389.9683">identityOperator()</text><ellipse cx="968" cy="400.4648" fill="#84BE84" rx="3" ry="3" style="stroke: #038048; stroke-width: 1.0;"/><text fill="#000000" font-family="sans-serif" font-size="11" lengthAdjust="spacingAndGlyphs" textLength="29" x="977" y="402.7729">abs()</text><ellipse cx="968" cy="413.2695" fill="#84BE84" rx="3" ry="3" style="stroke: #038048; stroke-width: 1.0;"/><text fill="#000000" font-family="sans-serif" font-size="11" lengthAdjust="spacingAndGlyphs" textLength="72" x="977" y="415.5776">ctranspose()</text><ellipse cx="968" cy="426.0742" fill="#84BE84" rx="3" ry="3" style="stroke: #038048; stroke-width: 1.0;"/><text fill="#000000" font-family="sans-serif" font-size="11" lengthAdjust="spacingAndGlyphs" textLength="118" x="977" y="428.3823">getMaxRowSumAbs()</text><ellipse cx="968" cy="438.8789" fill="#84BE84" rx="3" ry="3" style="stroke: #038048; stroke-width: 1.0;"/><text fill="#000000" font-family="sans-serif" font-size="11" lengthAdjust="spacingAndGlyphs" textLength="96" x="977" y="441.187">getRowSumAbs()</text><ellipse cx="968" cy="451.6836" fill="#84BE84" rx="3" ry="3" style="stroke: #038048; stroke-width: 1.0;"/><text fill="#000000" font-family="sans-serif" font-size="11" lengthAdjust="spacingAndGlyphs" textLength="51" x="977" y="453.9917">mtimes()</text><ellipse cx="968" cy="464.4883" fill="#84BE84" rx="3" ry="3" style="stroke: #038048; stroke-width: 1.0;"/><text fill="#000000" font-family="sans-serif" font-size="11" lengthAdjust="spacingAndGlyphs" textLength="77" x="977" y="466.7964">returnMatrix()</text><ellipse cx="968" cy="477.293" fill="#84BE84" rx="3" ry="3" style="stroke: #038048; stroke-width: 1.0;"/><text fill="#000000" font-family="sans-serif" font-size="11" lengthAdjust="spacingAndGlyphs" textLength="30" x="977" y="479.6011">size()</text><!--class superpixelOperator--><rect fill="#FEFECE" filter="url(#fxjriup)" height="188.8516" style="stroke: #A80036; stroke-width: 1.5;" width="152" x="1136" y="309.9531"/><ellipse cx="1151" cy="325.9531" fill="#E6FFE6" rx="11" ry="11" style="stroke: #A80036; stroke-width: 1.0;"/><path d="M1150.9063,329.75 L1153.3438,323.9844 L1152.9375,323.9844 C1152.4844,323.9844 1152.3438,323.9531 1152.1563,323.8438 C1151.9531,323.6719 1151.8125,323.4219 1151.8125,323.1406 C1151.8125,322.8594 1151.9688,322.5625 1152.2344,322.4063 C1152.375,322.3125 1152.5,322.2969 1152.9375,322.2969 L1155.1875,322.2969 C1155.625,322.2969 1155.7969,322.3281 1155.9531,322.4375 C1156.1719,322.6094 1156.3125,322.875 1156.3125,323.1406 C1156.3125,323.4844 1156.0625,323.8281 1155.7813,323.9219 C1155.625,323.9688 1155.5156,323.9844 1155.1563,323.9844 L1151.6719,332.2031 L1149.9844,332.2031 L1146.5469,323.9844 C1146.2031,323.9844 1146.0781,323.9688 1145.9219,323.9219 C1145.625,323.8281 1145.3906,323.4844 1145.3906,323.1406 C1145.3906,322.8594 1145.5469,322.5625 1145.7969,322.4063 C1145.9531,322.3125 1146.0781,322.2969 1146.5156,322.2969 L1148.7813,322.2969 C1149.2188,322.2969 1149.3906,322.3281 1149.5625,322.4375 C1149.7656,322.6094 1149.8906,322.875 1149.8906,323.1406 C1149.8906,323.4375 1149.75,323.7188 1149.4844,323.875 C1149.3438,323.9531 1149.1875,323.9844 1148.7813,323.9844 L1148.4531,323.9844 Z "/><text fill="#000000" font-family="sans-serif" font-size="12" lengthAdjust="spacingAndGlyphs" textLength="120" x="1165" y="330.1074">superpixelOperator</text><line style="stroke: #A80036; stroke-width: 1.5;" x1="1137" x2="1287" y1="341.9531" y2="341.9531"/><ellipse cx="1147" cy="353.8555" fill="none" rx="3" ry="3" style="stroke: #038048; stroke-width: 1.0;"/><text fill="#000000" font-family="sans-serif" font-size="11" lengthAdjust="spacingAndGlyphs" textLength="33" x="1156" y="356.1636">factor</text><ellipse cx="1147" cy="366.6602" fill="none" rx="3" ry="3" style="stroke: #038048; stroke-width: 1.0;"/><text fill="#000000" font-family="sans-serif" font-size="11" lengthAdjust="spacingAndGlyphs" textLength="36" x="1156" y="368.9683">matrix</text><ellipse cx="1147" cy="379.4648" fill="none" rx="3" ry="3" style="stroke: #038048; stroke-width: 1.0;"/><text fill="#000000" font-family="sans-serif" font-size="11" lengthAdjust="spacingAndGlyphs" textLength="94" x="1156" y="381.7729">targetDimension</text><line style="stroke: #A80036; stroke-width: 1.5;" x1="1137" x2="1287" y1="388.3672" y2="388.3672"/><ellipse cx="1147" cy="400.2695" fill="#84BE84" rx="3" ry="3" style="stroke: #038048; stroke-width: 1.0;"/><text fill="#000000" font-family="sans-serif" font-size="11" lengthAdjust="spacingAndGlyphs" textLength="118" x="1156" y="402.5776">superpixelOperator()</text><ellipse cx="1147" cy="413.0742" fill="#84BE84" rx="3" ry="3" style="stroke: #038048; stroke-width: 1.0;"/><text fill="#000000" font-family="sans-serif" font-size="11" lengthAdjust="spacingAndGlyphs" textLength="29" x="1156" y="415.3823">abs()</text><ellipse cx="1147" cy="425.8789" fill="#84BE84" rx="3" ry="3" style="stroke: #038048; stroke-width: 1.0;"/><text fill="#000000" font-family="sans-serif" font-size="11" lengthAdjust="spacingAndGlyphs" textLength="72" x="1156" y="428.187">ctranspose()</text><ellipse cx="1147" cy="438.6836" fill="#84BE84" rx="3" ry="3" style="stroke: #038048; stroke-width: 1.0;"/><text fill="#000000" font-family="sans-serif" font-size="11" lengthAdjust="spacingAndGlyphs" textLength="118" x="1156" y="440.9917">getMaxRowSumAbs()</text><ellipse cx="1147" cy="451.4883" fill="#84BE84" rx="3" ry="3" style="stroke: #038048; stroke-width: 1.0;"/><text fill="#000000" font-family="sans-serif" font-size="11" lengthAdjust="spacingAndGlyphs" textLength="96" x="1156" y="453.7964">getRowSumAbs()</text><ellipse cx="1147" cy="464.293" fill="#84BE84" rx="3" ry="3" style="stroke: #038048; stroke-width: 1.0;"/><text fill="#000000" font-family="sans-serif" font-size="11" lengthAdjust="spacingAndGlyphs" textLength="51" x="1156" y="466.6011">mtimes()</text><ellipse cx="1147" cy="477.0977" fill="#84BE84" rx="3" ry="3" style="stroke: #038048; stroke-width: 1.0;"/><text fill="#000000" font-family="sans-serif" font-size="11" lengthAdjust="spacingAndGlyphs" textLength="77" x="1156" y="479.4058">returnMatrix()</text><ellipse cx="1147" cy="489.9023" fill="#84BE84" rx="3" ry="3" style="stroke: #038048; stroke-width: 1.0;"/><text fill="#000000" font-family="sans-serif" font-size="11" lengthAdjust="spacingAndGlyphs" textLength="30" x="1156" y="492.2104">size()</text><!--class zeroOperator--><rect fill="#FEFECE" filter="url(#fxjriup)" height="163.2422" style="stroke: #A80036; stroke-width: 1.5;" width="144" x="1323" y="322.9531"/><ellipse cx="1351.5" cy="338.9531" fill="#E6FFE6" rx="11" ry="11" style="stroke: #A80036; stroke-width: 1.0;"/><path d="M1351.4063,342.75 L1353.8438,336.9844 L1353.4375,336.9844 C1352.9844,336.9844 1352.8438,336.9531 1352.6563,336.8438 C1352.4531,336.6719 1352.3125,336.4219 1352.3125,336.1406 C1352.3125,335.8594 1352.4688,335.5625 1352.7344,335.4063 C1352.875,335.3125 1353,335.2969 1353.4375,335.2969 L1355.6875,335.2969 C1356.125,335.2969 1356.2969,335.3281 1356.4531,335.4375 C1356.6719,335.6094 1356.8125,335.875 1356.8125,336.1406 C1356.8125,336.4844 1356.5625,336.8281 1356.2813,336.9219 C1356.125,336.9688 1356.0156,336.9844 1355.6563,336.9844 L1352.1719,345.2031 L1350.4844,345.2031 L1347.0469,336.9844 C1346.7031,336.9844 1346.5781,336.9688 1346.4219,336.9219 C1346.125,336.8281 1345.8906,336.4844 1345.8906,336.1406 C1345.8906,335.8594 1346.0469,335.5625 1346.2969,335.4063 C1346.4531,335.3125 1346.5781,335.2969 1347.0156,335.2969 L1349.2813,335.2969 C1349.7188,335.2969 1349.8906,335.3281 1350.0625,335.4375 C1350.2656,335.6094 1350.3906,335.875 1350.3906,336.1406 C1350.3906,336.4375 1350.25,336.7188 1349.9844,336.875 C1349.8438,336.9531 1349.6875,336.9844 1349.2813,336.9844 L1348.9531,336.9844 Z "/><text fill="#000000" font-family="sans-serif" font-size="12" lengthAdjust="spacingAndGlyphs" textLength="82" x="1368.5" y="343.1074">zeroOperator</text><line style="stroke: #A80036; stroke-width: 1.5;" x1="1324" x2="1466" y1="354.9531" y2="354.9531"/><ellipse cx="1334" cy="366.8555" fill="none" rx="3" ry="3" style="stroke: #038048; stroke-width: 1.0;"/><text fill="#000000" font-family="sans-serif" font-size="11" lengthAdjust="spacingAndGlyphs" textLength="20" x="1343" y="369.1636">nPx</text><line style="stroke: #A80036; stroke-width: 1.5;" x1="1324" x2="1466" y1="375.7578" y2="375.7578"/><ellipse cx="1334" cy="387.6602" fill="#84BE84" rx="3" ry="3" style="stroke: #038048; stroke-width: 1.0;"/><text fill="#000000" font-family="sans-serif" font-size="11" lengthAdjust="spacingAndGlyphs" textLength="83" x="1343" y="389.9683">zeroOperator()</text><ellipse cx="1334" cy="400.4648" fill="#84BE84" rx="3" ry="3" style="stroke: #038048; stroke-width: 1.0;"/><text fill="#000000" font-family="sans-serif" font-size="11" lengthAdjust="spacingAndGlyphs" textLength="29" x="1343" y="402.7729">abs()</text><ellipse cx="1334" cy="413.2695" fill="#84BE84" rx="3" ry="3" style="stroke: #038048; stroke-width: 1.0;"/><text fill="#000000" font-family="sans-serif" font-size="11" lengthAdjust="spacingAndGlyphs" textLength="72" x="1343" y="415.5776">ctranspose()</text><ellipse cx="1334" cy="426.0742" fill="#84BE84" rx="3" ry="3" style="stroke: #038048; stroke-width: 1.0;"/><text fill="#000000" font-family="sans-serif" font-size="11" lengthAdjust="spacingAndGlyphs" textLength="118" x="1343" y="428.3823">getMaxRowSumAbs()</text><ellipse cx="1334" cy="438.8789" fill="#84BE84" rx="3" ry="3" style="stroke: #038048; stroke-width: 1.0;"/><text fill="#000000" font-family="sans-serif" font-size="11" lengthAdjust="spacingAndGlyphs" textLength="96" x="1343" y="441.187">getRowSumAbs()</text><ellipse cx="1334" cy="451.6836" fill="#84BE84" rx="3" ry="3" style="stroke: #038048; stroke-width: 1.0;"/><text fill="#000000" font-family="sans-serif" font-size="11" lengthAdjust="spacingAndGlyphs" textLength="51" x="1343" y="453.9917">mtimes()</text><ellipse cx="1334" cy="464.4883" fill="#84BE84" rx="3" ry="3" style="stroke: #038048; stroke-width: 1.0;"/><text fill="#000000" font-family="sans-serif" font-size="11" lengthAdjust="spacingAndGlyphs" textLength="77" x="1343" y="466.7964">returnMatrix()</text><ellipse cx="1334" cy="477.293" fill="#84BE84" rx="3" ry="3" style="stroke: #038048; stroke-width: 1.0;"/><text fill="#000000" font-family="sans-serif" font-size="11" lengthAdjust="spacingAndGlyphs" textLength="30" x="1343" y="479.6011">size()</text><path d="M657.595,138.4511 C536.072,152.0831 320.064,189.6451 167,290.9531 C158.797,296.3821 151.006,302.8151 143.696,309.8111 " fill="none" style="stroke: #A80036; stroke-width: 1.0;"/><polygon fill="none" points="657.079,131.4671,677.706,136.3181,658.556,145.3881,657.079,131.4671" style="stroke: #A80036; stroke-width: 1.0;"/><path d="M658.341,155.4211 C575.614,180.4651 453.247,225.0931 362,290.9531 C356.249,295.1041 350.615,299.6611 345.138,304.4891 " fill="none" style="stroke: #A80036; stroke-width: 1.0;"/><polygon fill="none" points="656.532,148.6571,677.696,149.7001,660.501,162.0821,656.532,148.6571" style="stroke: #A80036; stroke-width: 1.0;"/><path d="M661.366,191.8131 C622.936,220.0091 578.483,255.1581 542,290.9531 C532.002,300.7631 522.071,311.6641 512.657,322.7101 " fill="none" style="stroke: #A80036; stroke-width: 1.0;"/><polygon fill="none" points="657.404,186.0401,677.706,179.9741,665.618,197.3771,657.404,186.0401" style="stroke: #A80036; stroke-width: 1.0;"/><path d="M706.672,250.2151 C700.964,265.9251 695.146,281.9411 689.526,297.4101 " fill="none" style="stroke: #A80036; stroke-width: 1.0;"/><polygon fill="none" points="700.149,247.6691,713.558,231.2611,713.308,252.4491,700.149,247.6691" style="stroke: #A80036; stroke-width: 1.0;"/><path d="M793.787,250.2731 C800.288,267.9881 806.931,286.0901 813.268,303.3571 " fill="none" style="stroke: #A80036; stroke-width: 1.0;"/><polygon fill="none" points="787.129,252.4481,786.81,231.2611,800.272,247.6251,787.129,252.4481" style="stroke: #A80036; stroke-width: 1.0;"/><path d="M837.986,198.8161 C871.267,226.0571 908.651,258.6301 940,290.9531 C949.623,300.8751 959.256,311.7821 968.444,322.7821 " fill="none" style="stroke: #A80036; stroke-width: 1.0;"/><polygon fill="none" points="833.165,203.9191,822.022,185.8951,841.972,193.0361,833.165,203.9191" style="stroke: #A80036; stroke-width: 1.0;"/><path d="M841.4,157.2031 C920.163,182.8031 1034.23,227.2321 1119,290.9531 C1126.49,296.5871 1133.77,302.9421 1140.72,309.6921 " fill="none" style="stroke: #A80036; stroke-width: 1.0;"/><polygon fill="none" points="839.12,163.8241,822.176,151.1001,843.356,150.4801,839.12,163.8241" style="stroke: #A80036; stroke-width: 1.0;"/><path d="M842.191,140.0111 C958.813,155.1731 1161.8,194.2241 1306,290.9531 C1319.03,299.6931 1331.04,310.9451 1341.73,322.9421 " fill="none" style="stroke: #A80036; stroke-width: 1.0;"/><polygon fill="none" points="841.139,146.9341,822.15,137.5311,842.858,133.0401,841.139,146.9341" style="stroke: #A80036; stroke-width: 1.0;"/></g></svg>