<?xml version="1.0" encoding="UTF-8" standalone="no"?><svg xmlns="http://www.w3.org/2000/svg" xmlns:xlink="http://www.w3.org/1999/xlink" contentScriptType="application/ecmascript" contentStyleType="text/css" height="373px" preserveAspectRatio="none" style="width:235px;height:373px;" version="1.1" viewBox="0 0 235 373" width="235px" zoomAndPan="magnify"><defs><filter height="300%" id="frad00k" width="300%" x="-1" y="-1"><feGaussianBlur result="blurOut" stdDeviation="2.0"/><feColorMatrix in="blurOut" result="blurOut2" type="matrix" values="0 0 0 0 0 0 0 0 0 0 0 0 0 0 0 0 0 0 .4 0"/><feOffset dx="4.0" dy="4.0" in="blurOut2" result="blurOut3"/><feBlend in="SourceGraphic" in2="blurOut3" mode="normal"/></filter></defs><g><text fill="#000000" font-family="sans-serif" font-size="18" font-weight="bold" lengthAdjust="spacingAndGlyphs" textLength="166" x="39.5" y="16.708">Primal/Dual Part</text><!--class dualPart--><rect fill="#FEFECE" filter="url(#frad00k)" height="150.4375" style="stroke: #A80036; stroke-width: 1.5;" width="89" x="6" y="213.9531"/><ellipse cx="22.8" cy="229.9531" fill="#E6FFE6" rx="11" ry="11" style="stroke: #A80036; stroke-width: 1.0;"/><path d="M24.3781,231.7656 L20.3313,231.7656 L19.9406,232.75 L20.3313,232.75 C20.7844,232.75 20.925,232.7813 21.0969,232.9063 C21.3156,233.0781 21.4406,233.3281 21.4406,233.6094 C21.4406,233.8906 21.3,234.1875 21.0344,234.3281 C20.9094,234.4219 20.6906,234.4531 20.3313,234.4531 L18.0656,234.4531 C17.3156,234.4531 16.9406,234.1719 16.9406,233.6094 C16.9406,233.3125 17.0969,233.0313 17.3469,232.875 C17.5031,232.7656 17.6594,232.75 18.0813,232.75 L20.7219,226.2344 L19.6438,226.2344 C19.2063,226.2344 19.0344,226.2031 18.8625,226.0938 C18.6438,225.9219 18.5031,225.6719 18.5031,225.3906 C18.5031,225.1094 18.6594,224.8281 18.9094,224.6563 C19.0656,224.5625 19.1906,224.5469 19.6438,224.5469 L23.3156,224.5469 L26.7063,232.75 C27.175,232.75 27.3313,232.7813 27.5031,232.9219 C27.7219,233.0781 27.8625,233.3281 27.8625,233.6094 C27.8625,233.8906 27.7063,234.1875 27.4563,234.3281 C27.3156,234.4219 27.0969,234.4531 26.7375,234.4531 L24.3781,234.4531 C23.9563,234.4531 23.7531,234.4063 23.6125,234.2813 C23.3938,234.125 23.2531,233.875 23.2531,233.6094 C23.2531,233.3125 23.4094,233.0313 23.6594,232.875 C23.8156,232.7656 23.925,232.75 24.3781,232.75 L24.7688,232.75 Z M23.675,230.0625 L22.3469,226.7969 L21.0031,230.0625 Z "/><text fill="#000000" font-family="sans-serif" font-size="12" lengthAdjust="spacingAndGlyphs" textLength="53" x="37.2" y="234.1074">dualPart</text><line style="stroke: #A80036; stroke-width: 1.5;" x1="7" x2="94" y1="245.9531" y2="245.9531"/><ellipse cx="17" cy="257.8555" fill="none" rx="3" ry="3" style="stroke: #038048; stroke-width: 1.0;"/><text fill="#000000" font-family="sans-serif" font-size="11" lengthAdjust="spacingAndGlyphs" textLength="35" x="26" y="260.1636">length</text><ellipse cx="17" cy="270.6602" fill="none" rx="3" ry="3" style="stroke: #038048; stroke-width: 1.0;"/><text fill="#000000" font-family="sans-serif" font-size="11" lengthAdjust="spacingAndGlyphs" textLength="53" x="26" y="272.9683">mySigma</text><ellipse cx="17" cy="283.4648" fill="none" rx="3" ry="3" style="stroke: #038048; stroke-width: 1.0;"/><text fill="#000000" font-family="sans-serif" font-size="11" lengthAdjust="spacingAndGlyphs" textLength="38" x="26" y="285.7729">myTau</text><ellipse cx="17" cy="296.2695" fill="none" rx="3" ry="3" style="stroke: #038048; stroke-width: 1.0;"/><text fill="#000000" font-family="sans-serif" font-size="11" lengthAdjust="spacingAndGlyphs" textLength="51" x="26" y="298.5776">numVars</text><ellipse cx="17" cy="309.0742" fill="none" rx="3" ry="3" style="stroke: #038048; stroke-width: 1.0;"/><text fill="#000000" font-family="sans-serif" font-size="11" lengthAdjust="spacingAndGlyphs" textLength="49" x="26" y="311.3823">operator</text><ellipse cx="17" cy="321.8789" fill="none" rx="3" ry="3" style="stroke: #038048; stroke-width: 1.0;"/><text fill="#000000" font-family="sans-serif" font-size="11" lengthAdjust="spacingAndGlyphs" textLength="56" x="26" y="324.187">operatorT</text><line style="stroke: #A80036; stroke-width: 1.5;" x1="7" x2="94" y1="330.7813" y2="330.7813"/><ellipse cx="17" cy="342.6836" fill="#84BE84" rx="3" ry="3" style="stroke: #038048; stroke-width: 1.0;"/><text fill="#000000" font-family="sans-serif" font-size="11" lengthAdjust="spacingAndGlyphs" textLength="55" x="26" y="344.9917">dualPart()</text><ellipse cx="17" cy="355.4883" fill="#84BE84" rx="3" ry="3" style="stroke: #038048; stroke-width: 1.0;"/><text fill="#000000" font-family="sans-serif" font-size="11" lengthAdjust="spacingAndGlyphs" textLength="63" x="26" y="357.7964">applyProx()</text><!--class functionalPart--><rect fill="#FEFECE" filter="url(#frad00k)" height="124.8281" style="stroke: #A80036; stroke-width: 1.5;" width="120" x="54.5" y="28.9531"/><ellipse cx="69.5" cy="44.9531" fill="#E6FFE6" rx="11" ry="11" style="stroke: #A80036; stroke-width: 1.0;"/><path d="M71.0781,46.7656 L67.0313,46.7656 L66.6406,47.75 L67.0313,47.75 C67.4844,47.75 67.625,47.7813 67.7969,47.9063 C68.0156,48.0781 68.1406,48.3281 68.1406,48.6094 C68.1406,48.8906 68,49.1875 67.7344,49.3281 C67.6094,49.4219 67.3906,49.4531 67.0313,49.4531 L64.7656,49.4531 C64.0156,49.4531 63.6406,49.1719 63.6406,48.6094 C63.6406,48.3125 63.7969,48.0313 64.0469,47.875 C64.2031,47.7656 64.3594,47.75 64.7813,47.75 L67.4219,41.2344 L66.3438,41.2344 C65.9063,41.2344 65.7344,41.2031 65.5625,41.0938 C65.3438,40.9219 65.2031,40.6719 65.2031,40.3906 C65.2031,40.1094 65.3594,39.8281 65.6094,39.6563 C65.7656,39.5625 65.8906,39.5469 66.3438,39.5469 L70.0156,39.5469 L73.4063,47.75 C73.875,47.75 74.0313,47.7813 74.2031,47.9219 C74.4219,48.0781 74.5625,48.3281 74.5625,48.6094 C74.5625,48.8906 74.4063,49.1875 74.1563,49.3281 C74.0156,49.4219 73.7969,49.4531 73.4375,49.4531 L71.0781,49.4531 C70.6563,49.4531 70.4531,49.4063 70.3125,49.2813 C70.0938,49.125 69.9531,48.875 69.9531,48.6094 C69.9531,48.3125 70.1094,48.0313 70.3594,47.875 C70.5156,47.7656 70.625,47.75 71.0781,47.75 L71.4688,47.75 Z M70.375,45.0625 L69.0469,41.7969 L67.7031,45.0625 Z "/><text fill="#000000" font-family="sans-serif" font-size="12" lengthAdjust="spacingAndGlyphs" textLength="88" x="83.5" y="49.1074">functionalPart</text><line style="stroke: #A80036; stroke-width: 1.5;" x1="55.5" x2="173.5" y1="60.9531" y2="60.9531"/><ellipse cx="65.5" cy="72.8555" fill="none" rx="3" ry="3" style="stroke: #038048; stroke-width: 1.0;"/><text fill="#000000" font-family="sans-serif" font-size="11" lengthAdjust="spacingAndGlyphs" textLength="66" x="74.5" y="75.1636">CPPsupport</text><ellipse cx="65.5" cy="85.6602" fill="none" rx="3" ry="3" style="stroke: #038048; stroke-width: 1.0;"/><text fill="#000000" font-family="sans-serif" font-size="11" lengthAdjust="spacingAndGlyphs" textLength="33" x="74.5" y="87.9683">factor</text><ellipse cx="65.5" cy="98.4648" fill="none" rx="3" ry="3" style="stroke: #038048; stroke-width: 1.0;"/><text fill="#000000" font-family="sans-serif" font-size="11" lengthAdjust="spacingAndGlyphs" textLength="68" x="74.5" y="100.7729">numPrimals</text><line style="stroke: #A80036; stroke-width: 1.5;" x1="55.5" x2="173.5" y1="107.3672" y2="107.3672"/><ellipse cx="65.5" cy="119.2695" fill="#84BE84" rx="3" ry="3" style="stroke: #038048; stroke-width: 1.0;"/><text fill="#000000" font-family="sans-serif" font-size="11" lengthAdjust="spacingAndGlyphs" textLength="86" x="74.5" y="121.5776">functionalPart()</text><ellipse cx="65.5" cy="132.0742" fill="#84BE84" rx="3" ry="3" style="stroke: #038048; stroke-width: 1.0;"/><text fill="#000000" font-family="sans-serif" font-size="11" lengthAdjust="spacingAndGlyphs" textLength="63" x="74.5" y="134.3823">applyProx()</text><ellipse cx="65.5" cy="144.8789" fill="#84BE84" rx="3" ry="3" style="stroke: #038048; stroke-width: 1.0;"/><text fill="#000000" font-family="sans-serif" font-size="11" lengthAdjust="spacingAndGlyphs" textLength="25" x="74.5" y="147.187">init()</text><!--class primalPart--><rect fill="#FEFECE" filter="url(#frad00k)" height="73.6094" style="stroke: #A80036; stroke-width: 1.5;" width="96" x="130.5" y="251.9531"/><ellipse cx="145.5" cy="267.9531" fill="#E6FFE6" rx="11" ry="11" style="stroke: #A80036; stroke-width: 1.0;"/><path d="M147.0781,269.7656 L143.0313,269.7656 L142.6406,270.75 L143.0313,270.75 C143.4844,270.75 143.625,270.7813 143.7969,270.9063 C144.0156,271.0781 144.1406,271.3281 144.1406,271.6094 C144.1406,271.8906 144,272.1875 143.7344,272.3281 C143.6094,272.4219 143.3906,272.4531 143.0313,272.4531 L140.7656,272.4531 C140.0156,272.4531 139.6406,272.1719 139.6406,271.6094 C139.6406,271.3125 139.7969,271.0313 140.0469,270.875 C140.2031,270.7656 140.3594,270.75 140.7813,270.75 L143.4219,264.2344 L142.3438,264.2344 C141.9063,264.2344 141.7344,264.2031 141.5625,264.0938 C141.3438,263.9219 141.2031,263.6719 141.2031,263.3906 C141.2031,263.1094 141.3594,262.8281 141.6094,262.6563 C141.7656,262.5625 141.8906,262.5469 142.3438,262.5469 L146.0156,262.5469 L149.4063,270.75 C149.875,270.75 150.0313,270.7813 150.2031,270.9219 C150.4219,271.0781 150.5625,271.3281 150.5625,271.6094 C150.5625,271.8906 150.4063,272.1875 150.1563,272.3281 C150.0156,272.4219 149.7969,272.4531 149.4375,272.4531 L147.0781,272.4531 C146.6563,272.4531 146.4531,272.4063 146.3125,272.2813 C146.0938,272.125 145.9531,271.875 145.9531,271.6094 C145.9531,271.3125 146.1094,271.0313 146.3594,270.875 C146.5156,270.7656 146.625,270.75 147.0781,270.75 L147.4688,270.75 Z M146.375,268.0625 L145.0469,264.7969 L143.7031,268.0625 Z "/><text fill="#000000" font-family="sans-serif" font-size="12" lengthAdjust="spacingAndGlyphs" textLength="64" x="159.5" y="272.1074">primalPart</text><line style="stroke: #A80036; stroke-width: 1.5;" x1="131.5" x2="225.5" y1="283.9531" y2="283.9531"/><line style="stroke: #A80036; stroke-width: 1.5;" x1="131.5" x2="225.5" y1="291.9531" y2="291.9531"/><ellipse cx="141.5" cy="303.8555" fill="#84BE84" rx="3" ry="3" style="stroke: #038048; stroke-width: 1.0;"/><text fill="#000000" font-family="sans-serif" font-size="11" lengthAdjust="spacingAndGlyphs" textLength="67" x="150.5" y="306.1636">primalPart()</text><ellipse cx="141.5" cy="316.6602" fill="#84BE84" rx="3" ry="3" style="stroke: #038048; stroke-width: 1.0;"/><text fill="#000000" font-family="sans-serif" font-size="11" lengthAdjust="spacingAndGlyphs" textLength="63" x="150.5" y="318.9683">applyProx()</text><path d="M88.06,173.2191 C83.6778,186.6051 79.152,200.4301 74.8253,213.6471 " fill="none" style="stroke: #A80036; stroke-width: 1.0;"/><polygon fill="none" points="81.4628,170.8721,94.3378,154.0421,94.768,175.2271,81.4628,170.8721" style="stroke: #A80036; stroke-width: 1.0;"/><path d="M141.01,173.4321 C149.926,200.6681 159.428,229.6941 166.635,251.7101 " fill="none" style="stroke: #A80036; stroke-width: 1.0;"/><polygon fill="none" points="134.232,175.2271,134.662,154.0421,147.537,170.8721,134.232,175.2271" style="stroke: #A80036; stroke-width: 1.0;"/></g></svg>