<?xml version="1.0" encoding="UTF-8" standalone="no"?><svg xmlns="http://www.w3.org/2000/svg" xmlns:xlink="http://www.w3.org/1999/xlink" contentScriptType="application/ecmascript" contentStyleType="text/css" height="671px" preserveAspectRatio="none" style="width:644px;height:671px;" version="1.1" viewBox="0 0 644 671" width="644px" zoomAndPan="magnify"><defs><filter height="300%" id="fg8wd6d" width="300%" x="-1" y="-1"><feGaussianBlur result="blurOut" stdDeviation="2.0"/><feColorMatrix in="blurOut" result="blurOut2" type="matrix" values="0 0 0 0 0 0 0 0 0 0 0 0 0 0 0 0 0 0 .4 0"/><feOffset dx="4.0" dy="4.0" in="blurOut2" result="blurOut3"/><feBlend in="SourceGraphic" in2="blurOut3" mode="normal"/></filter></defs><g><text fill="#000000" font-family="sans-serif" font-size="18" font-weight="bold" lengthAdjust="spacingAndGlyphs" textLength="383" x="135" y="16.708">Regularizer Terms (Hessian / Laplace)</text><!--class dualPart--><rect fill="#FEFECE" filter="url(#fg8wd6d)" height="150.4375" style="stroke: #A80036; stroke-width: 1.5;" width="89" x="335" y="136.9531"/><ellipse cx="351.8" cy="152.9531" fill="#E6FFE6" rx="11" ry="11" style="stroke: #A80036; stroke-width: 1.0;"/><path d="M353.3781,154.7656 L349.3313,154.7656 L348.9406,155.75 L349.3313,155.75 C349.7844,155.75 349.925,155.7813 350.0969,155.9063 C350.3156,156.0781 350.4406,156.3281 350.4406,156.6094 C350.4406,156.8906 350.3,157.1875 350.0344,157.3281 C349.9094,157.4219 349.6906,157.4531 349.3313,157.4531 L347.0656,157.4531 C346.3156,157.4531 345.9406,157.1719 345.9406,156.6094 C345.9406,156.3125 346.0969,156.0313 346.3469,155.875 C346.5031,155.7656 346.6594,155.75 347.0813,155.75 L349.7219,149.2344 L348.6438,149.2344 C348.2063,149.2344 348.0344,149.2031 347.8625,149.0938 C347.6438,148.9219 347.5031,148.6719 347.5031,148.3906 C347.5031,148.1094 347.6594,147.8281 347.9094,147.6563 C348.0656,147.5625 348.1906,147.5469 348.6438,147.5469 L352.3156,147.5469 L355.7063,155.75 C356.175,155.75 356.3313,155.7813 356.5031,155.9219 C356.7219,156.0781 356.8625,156.3281 356.8625,156.6094 C356.8625,156.8906 356.7063,157.1875 356.4563,157.3281 C356.3156,157.4219 356.0969,157.4531 355.7375,157.4531 L353.3781,157.4531 C352.9563,157.4531 352.7531,157.4063 352.6125,157.2813 C352.3938,157.125 352.2531,156.875 352.2531,156.6094 C352.2531,156.3125 352.4094,156.0313 352.6594,155.875 C352.8156,155.7656 352.925,155.75 353.3781,155.75 L353.7688,155.75 Z M352.675,153.0625 L351.3469,149.7969 L350.0031,153.0625 Z "/><text fill="#000000" font-family="sans-serif" font-size="12" lengthAdjust="spacingAndGlyphs" textLength="53" x="366.2" y="157.1074">dualPart</text><line style="stroke: #A80036; stroke-width: 1.5;" x1="336" x2="423" y1="168.9531" y2="168.9531"/><ellipse cx="346" cy="180.8555" fill="none" rx="3" ry="3" style="stroke: #038048; stroke-width: 1.0;"/><text fill="#000000" font-family="sans-serif" font-size="11" lengthAdjust="spacingAndGlyphs" textLength="35" x="355" y="183.1636">length</text><ellipse cx="346" cy="193.6602" fill="none" rx="3" ry="3" style="stroke: #038048; stroke-width: 1.0;"/><text fill="#000000" font-family="sans-serif" font-size="11" lengthAdjust="spacingAndGlyphs" textLength="53" x="355" y="195.9683">mySigma</text><ellipse cx="346" cy="206.4648" fill="none" rx="3" ry="3" style="stroke: #038048; stroke-width: 1.0;"/><text fill="#000000" font-family="sans-serif" font-size="11" lengthAdjust="spacingAndGlyphs" textLength="38" x="355" y="208.7729">myTau</text><ellipse cx="346" cy="219.2695" fill="none" rx="3" ry="3" style="stroke: #038048; stroke-width: 1.0;"/><text fill="#000000" font-family="sans-serif" font-size="11" lengthAdjust="spacingAndGlyphs" textLength="51" x="355" y="221.5776">numVars</text><ellipse cx="346" cy="232.0742" fill="none" rx="3" ry="3" style="stroke: #038048; stroke-width: 1.0;"/><text fill="#000000" font-family="sans-serif" font-size="11" lengthAdjust="spacingAndGlyphs" textLength="49" x="355" y="234.3823">operator</text><ellipse cx="346" cy="244.8789" fill="none" rx="3" ry="3" style="stroke: #038048; stroke-width: 1.0;"/><text fill="#000000" font-family="sans-serif" font-size="11" lengthAdjust="spacingAndGlyphs" textLength="56" x="355" y="247.187">operatorT</text><line style="stroke: #A80036; stroke-width: 1.5;" x1="336" x2="423" y1="253.7813" y2="253.7813"/><ellipse cx="346" cy="265.6836" fill="#84BE84" rx="3" ry="3" style="stroke: #038048; stroke-width: 1.0;"/><text fill="#000000" font-family="sans-serif" font-size="11" lengthAdjust="spacingAndGlyphs" textLength="55" x="355" y="267.9917">dualPart()</text><ellipse cx="346" cy="278.4883" fill="#84BE84" rx="3" ry="3" style="stroke: #038048; stroke-width: 1.0;"/><text fill="#000000" font-family="sans-serif" font-size="11" lengthAdjust="spacingAndGlyphs" textLength="63" x="355" y="280.7964">applyProx()</text><!--class basicDualizedOperator--><rect fill="#FEFECE" filter="url(#fg8wd6d)" height="60.8047" style="stroke: #A80036; stroke-width: 1.5;" width="173" x="292" y="353.4531"/><ellipse cx="307" cy="369.4531" fill="#E6FFE6" rx="11" ry="11" style="stroke: #A80036; stroke-width: 1.0;"/><path d="M308.5781,371.2656 L304.5313,371.2656 L304.1406,372.25 L304.5313,372.25 C304.9844,372.25 305.125,372.2813 305.2969,372.4063 C305.5156,372.5781 305.6406,372.8281 305.6406,373.1094 C305.6406,373.3906 305.5,373.6875 305.2344,373.8281 C305.1094,373.9219 304.8906,373.9531 304.5313,373.9531 L302.2656,373.9531 C301.5156,373.9531 301.1406,373.6719 301.1406,373.1094 C301.1406,372.8125 301.2969,372.5313 301.5469,372.375 C301.7031,372.2656 301.8594,372.25 302.2813,372.25 L304.9219,365.7344 L303.8438,365.7344 C303.4063,365.7344 303.2344,365.7031 303.0625,365.5938 C302.8438,365.4219 302.7031,365.1719 302.7031,364.8906 C302.7031,364.6094 302.8594,364.3281 303.1094,364.1563 C303.2656,364.0625 303.3906,364.0469 303.8438,364.0469 L307.5156,364.0469 L310.9063,372.25 C311.375,372.25 311.5313,372.2813 311.7031,372.4219 C311.9219,372.5781 312.0625,372.8281 312.0625,373.1094 C312.0625,373.3906 311.9063,373.6875 311.6563,373.8281 C311.5156,373.9219 311.2969,373.9531 310.9375,373.9531 L308.5781,373.9531 C308.1563,373.9531 307.9531,373.9063 307.8125,373.7813 C307.5938,373.625 307.4531,373.375 307.4531,373.1094 C307.4531,372.8125 307.6094,372.5313 307.8594,372.375 C308.0156,372.2656 308.125,372.25 308.5781,372.25 L308.9688,372.25 Z M307.875,369.5625 L306.5469,366.2969 L305.2031,369.5625 Z "/><text fill="#000000" font-family="sans-serif" font-size="12" lengthAdjust="spacingAndGlyphs" textLength="141" x="321" y="373.6074">basicDualizedOperator</text><line style="stroke: #A80036; stroke-width: 1.5;" x1="293" x2="464" y1="385.4531" y2="385.4531"/><line style="stroke: #A80036; stroke-width: 1.5;" x1="293" x2="464" y1="393.4531" y2="393.4531"/><ellipse cx="303" cy="405.3555" fill="#84BE84" rx="3" ry="3" style="stroke: #038048; stroke-width: 1.0;"/><text fill="#000000" font-family="sans-serif" font-size="11" lengthAdjust="spacingAndGlyphs" textLength="136" x="312" y="407.6636">basicDualizedOperator()</text><!--class basicHessian--><rect fill="#FEFECE" filter="url(#fg8wd6d)" height="60.8047" style="stroke: #A80036; stroke-width: 1.5;" width="115" x="142" y="353.4531"/><ellipse cx="157" cy="369.4531" fill="#E6FFE6" rx="11" ry="11" style="stroke: #A80036; stroke-width: 1.0;"/><path d="M158.5781,371.2656 L154.5313,371.2656 L154.1406,372.25 L154.5313,372.25 C154.9844,372.25 155.125,372.2813 155.2969,372.4063 C155.5156,372.5781 155.6406,372.8281 155.6406,373.1094 C155.6406,373.3906 155.5,373.6875 155.2344,373.8281 C155.1094,373.9219 154.8906,373.9531 154.5313,373.9531 L152.2656,373.9531 C151.5156,373.9531 151.1406,373.6719 151.1406,373.1094 C151.1406,372.8125 151.2969,372.5313 151.5469,372.375 C151.7031,372.2656 151.8594,372.25 152.2813,372.25 L154.9219,365.7344 L153.8438,365.7344 C153.4063,365.7344 153.2344,365.7031 153.0625,365.5938 C152.8438,365.4219 152.7031,365.1719 152.7031,364.8906 C152.7031,364.6094 152.8594,364.3281 153.1094,364.1563 C153.2656,364.0625 153.3906,364.0469 153.8438,364.0469 L157.5156,364.0469 L160.9063,372.25 C161.375,372.25 161.5313,372.2813 161.7031,372.4219 C161.9219,372.5781 162.0625,372.8281 162.0625,373.1094 C162.0625,373.3906 161.9063,373.6875 161.6563,373.8281 C161.5156,373.9219 161.2969,373.9531 160.9375,373.9531 L158.5781,373.9531 C158.1563,373.9531 157.9531,373.9063 157.8125,373.7813 C157.5938,373.625 157.4531,373.375 157.4531,373.1094 C157.4531,372.8125 157.6094,372.5313 157.8594,372.375 C158.0156,372.2656 158.125,372.25 158.5781,372.25 L158.9688,372.25 Z M157.875,369.5625 L156.5469,366.2969 L155.2031,369.5625 Z "/><text fill="#000000" font-family="sans-serif" font-size="12" lengthAdjust="spacingAndGlyphs" textLength="83" x="171" y="373.6074">basicHessian</text><line style="stroke: #A80036; stroke-width: 1.5;" x1="143" x2="256" y1="385.4531" y2="385.4531"/><line style="stroke: #A80036; stroke-width: 1.5;" x1="143" x2="256" y1="393.4531" y2="393.4531"/><ellipse cx="153" cy="405.3555" fill="#84BE84" rx="3" ry="3" style="stroke: #038048; stroke-width: 1.0;"/><text fill="#000000" font-family="sans-serif" font-size="11" lengthAdjust="spacingAndGlyphs" textLength="84" x="162" y="407.6636">basicHessian()</text><!--class basicLaplace--><rect fill="#FEFECE" filter="url(#fg8wd6d)" height="60.8047" style="stroke: #A80036; stroke-width: 1.5;" width="113" x="271" y="480.9531"/><ellipse cx="286" cy="496.9531" fill="#E6FFE6" rx="11" ry="11" style="stroke: #A80036; stroke-width: 1.0;"/><path d="M287.5781,498.7656 L283.5313,498.7656 L283.1406,499.75 L283.5313,499.75 C283.9844,499.75 284.125,499.7813 284.2969,499.9063 C284.5156,500.0781 284.6406,500.3281 284.6406,500.6094 C284.6406,500.8906 284.5,501.1875 284.2344,501.3281 C284.1094,501.4219 283.8906,501.4531 283.5313,501.4531 L281.2656,501.4531 C280.5156,501.4531 280.1406,501.1719 280.1406,500.6094 C280.1406,500.3125 280.2969,500.0313 280.5469,499.875 C280.7031,499.7656 280.8594,499.75 281.2813,499.75 L283.9219,493.2344 L282.8438,493.2344 C282.4063,493.2344 282.2344,493.2031 282.0625,493.0938 C281.8438,492.9219 281.7031,492.6719 281.7031,492.3906 C281.7031,492.1094 281.8594,491.8281 282.1094,491.6563 C282.2656,491.5625 282.3906,491.5469 282.8438,491.5469 L286.5156,491.5469 L289.9063,499.75 C290.375,499.75 290.5313,499.7813 290.7031,499.9219 C290.9219,500.0781 291.0625,500.3281 291.0625,500.6094 C291.0625,500.8906 290.9063,501.1875 290.6563,501.3281 C290.5156,501.4219 290.2969,501.4531 289.9375,501.4531 L287.5781,501.4531 C287.1563,501.4531 286.9531,501.4063 286.8125,501.2813 C286.5938,501.125 286.4531,500.875 286.4531,500.6094 C286.4531,500.3125 286.6094,500.0313 286.8594,499.875 C287.0156,499.7656 287.125,499.75 287.5781,499.75 L287.9688,499.75 Z M286.875,497.0625 L285.5469,493.7969 L284.2031,497.0625 Z "/><text fill="#000000" font-family="sans-serif" font-size="12" lengthAdjust="spacingAndGlyphs" textLength="81" x="300" y="501.1074">basicLaplace</text><line style="stroke: #A80036; stroke-width: 1.5;" x1="272" x2="383" y1="512.9531" y2="512.9531"/><line style="stroke: #A80036; stroke-width: 1.5;" x1="272" x2="383" y1="520.9531" y2="520.9531"/><ellipse cx="282" cy="532.8555" fill="#84BE84" rx="3" ry="3" style="stroke: #038048; stroke-width: 1.0;"/><text fill="#000000" font-family="sans-serif" font-size="11" lengthAdjust="spacingAndGlyphs" textLength="81" x="291" y="535.1636">basicLaplace()</text><!--class L1hessian--><rect fill="#FEFECE" filter="url(#fg8wd6d)" height="60.8047" style="stroke: #A80036; stroke-width: 1.5;" width="95" x="419" y="480.9531"/><ellipse cx="434" cy="496.9531" fill="#E6FFE6" rx="11" ry="11" style="stroke: #A80036; stroke-width: 1.0;"/><path d="M435.9531,497.8594 L432.3125,497.8594 L432.3125,500.25 L432.5625,500.25 C433.0156,500.25 433.1875,500.2813 433.3281,500.4063 C433.5625,500.5781 433.6875,500.8281 433.6875,501.1094 C433.6875,501.3906 433.5313,501.6875 433.2813,501.8281 C433.1406,501.9219 432.9219,501.9531 432.5625,501.9531 L430.5156,501.9531 C430.1094,501.9531 429.8906,501.9063 429.7344,501.7969 C429.5313,501.625 429.3906,501.3594 429.3906,501.1094 C429.3906,500.8125 429.5469,500.5313 429.7969,500.375 C429.9531,500.2656 430.0938,500.25 430.5156,500.25 L430.6094,500.25 L430.6094,493.7344 C430.0469,493.6875 429.7344,493.3906 429.7344,492.8906 C429.7344,492.6094 429.8906,492.3125 430.1406,492.1563 C430.2969,492.0625 430.4219,492.0469 430.8594,492.0469 L432.5625,492.0469 C433.0313,492.0469 433.1875,492.0781 433.3281,492.1875 C433.5625,492.3594 433.6875,492.625 433.6875,492.8906 C433.6875,493.1875 433.5313,493.4688 433.2813,493.625 C433.125,493.7031 432.9844,493.7344 432.5625,493.7344 L432.3125,493.7344 L432.3125,496.1563 L435.9531,496.1563 L435.9531,493.7344 L435.7031,493.7344 C435.25,493.7344 435.1094,493.7031 434.9375,493.5938 C434.7188,493.4219 434.5781,493.1719 434.5781,492.8906 C434.5781,492.6094 434.7344,492.3125 434.9844,492.1563 C435.1406,492.0625 435.2656,492.0469 435.7031,492.0469 L437.4219,492.0469 C437.875,492.0469 438.0313,492.0781 438.2031,492.1875 C438.4063,492.3594 438.5313,492.625 438.5313,492.8906 C438.5313,493.3906 438.2188,493.6875 437.6563,493.7344 L437.6563,500.25 L437.75,500.25 C438.2188,500.25 438.3594,500.2813 438.5156,500.4063 C438.7344,500.5781 438.875,500.8281 438.875,501.1094 C438.875,501.3906 438.7188,501.6875 438.4688,501.8281 C438.3281,501.9219 438.1094,501.9531 437.75,501.9531 L435.7031,501.9531 C435.2969,501.9531 435.0938,501.9063 434.9375,501.7969 C434.7188,501.625 434.5781,501.3594 434.5781,501.1094 C434.5781,500.8125 434.7344,500.5313 434.9844,500.375 C435.1406,500.2656 435.2969,500.25 435.7031,500.25 L435.9531,500.25 Z "/><text fill="#000000" font-family="sans-serif" font-size="12" lengthAdjust="spacingAndGlyphs" textLength="63" x="448" y="501.1074">L1hessian</text><line style="stroke: #A80036; stroke-width: 1.5;" x1="420" x2="513" y1="512.9531" y2="512.9531"/><line style="stroke: #A80036; stroke-width: 1.5;" x1="420" x2="513" y1="520.9531" y2="520.9531"/><ellipse cx="430" cy="532.8555" fill="#84BE84" rx="3" ry="3" style="stroke: #038048; stroke-width: 1.0;"/><text fill="#000000" font-family="sans-serif" font-size="11" lengthAdjust="spacingAndGlyphs" textLength="66" x="439" y="535.1636">L1hessian()</text><!--class L1laplace--><rect fill="#FEFECE" filter="url(#fg8wd6d)" height="60.8047" style="stroke: #A80036; stroke-width: 1.5;" width="91" x="379" y="601.9531"/><ellipse cx="394" cy="617.9531" fill="#E6FFE6" rx="11" ry="11" style="stroke: #A80036; stroke-width: 1.0;"/><path d="M395.9531,618.8594 L392.3125,618.8594 L392.3125,621.25 L392.5625,621.25 C393.0156,621.25 393.1875,621.2813 393.3281,621.4063 C393.5625,621.5781 393.6875,621.8281 393.6875,622.1094 C393.6875,622.3906 393.5313,622.6875 393.2813,622.8281 C393.1406,622.9219 392.9219,622.9531 392.5625,622.9531 L390.5156,622.9531 C390.1094,622.9531 389.8906,622.9063 389.7344,622.7969 C389.5313,622.625 389.3906,622.3594 389.3906,622.1094 C389.3906,621.8125 389.5469,621.5313 389.7969,621.375 C389.9531,621.2656 390.0938,621.25 390.5156,621.25 L390.6094,621.25 L390.6094,614.7344 C390.0469,614.6875 389.7344,614.3906 389.7344,613.8906 C389.7344,613.6094 389.8906,613.3125 390.1406,613.1563 C390.2969,613.0625 390.4219,613.0469 390.8594,613.0469 L392.5625,613.0469 C393.0313,613.0469 393.1875,613.0781 393.3281,613.1875 C393.5625,613.3594 393.6875,613.625 393.6875,613.8906 C393.6875,614.1875 393.5313,614.4688 393.2813,614.625 C393.125,614.7031 392.9844,614.7344 392.5625,614.7344 L392.3125,614.7344 L392.3125,617.1563 L395.9531,617.1563 L395.9531,614.7344 L395.7031,614.7344 C395.25,614.7344 395.1094,614.7031 394.9375,614.5938 C394.7188,614.4219 394.5781,614.1719 394.5781,613.8906 C394.5781,613.6094 394.7344,613.3125 394.9844,613.1563 C395.1406,613.0625 395.2656,613.0469 395.7031,613.0469 L397.4219,613.0469 C397.875,613.0469 398.0313,613.0781 398.2031,613.1875 C398.4063,613.3594 398.5313,613.625 398.5313,613.8906 C398.5313,614.3906 398.2188,614.6875 397.6563,614.7344 L397.6563,621.25 L397.75,621.25 C398.2188,621.25 398.3594,621.2813 398.5156,621.4063 C398.7344,621.5781 398.875,621.8281 398.875,622.1094 C398.875,622.3906 398.7188,622.6875 398.4688,622.8281 C398.3281,622.9219 398.1094,622.9531 397.75,622.9531 L395.7031,622.9531 C395.2969,622.9531 395.0938,622.9063 394.9375,622.7969 C394.7188,622.625 394.5781,622.3594 394.5781,622.1094 C394.5781,621.8125 394.7344,621.5313 394.9844,621.375 C395.1406,621.2656 395.2969,621.25 395.7031,621.25 L395.9531,621.25 Z "/><text fill="#000000" font-family="sans-serif" font-size="12" lengthAdjust="spacingAndGlyphs" textLength="59" x="408" y="622.1074">L1laplace</text><line style="stroke: #A80036; stroke-width: 1.5;" x1="380" x2="469" y1="633.9531" y2="633.9531"/><line style="stroke: #A80036; stroke-width: 1.5;" x1="380" x2="469" y1="641.9531" y2="641.9531"/><ellipse cx="390" cy="653.8555" fill="#84BE84" rx="3" ry="3" style="stroke: #038048; stroke-width: 1.0;"/><text fill="#000000" font-family="sans-serif" font-size="11" lengthAdjust="spacingAndGlyphs" textLength="61" x="399" y="656.1636">L1laplace()</text><!--class L2hessian--><rect fill="#FEFECE" filter="url(#fg8wd6d)" height="60.8047" style="stroke: #A80036; stroke-width: 1.5;" width="95" x="133" y="480.9531"/><ellipse cx="148" cy="496.9531" fill="#E6FFE6" rx="11" ry="11" style="stroke: #A80036; stroke-width: 1.0;"/><path d="M149.9531,497.8594 L146.3125,497.8594 L146.3125,500.25 L146.5625,500.25 C147.0156,500.25 147.1875,500.2813 147.3281,500.4063 C147.5625,500.5781 147.6875,500.8281 147.6875,501.1094 C147.6875,501.3906 147.5313,501.6875 147.2813,501.8281 C147.1406,501.9219 146.9219,501.9531 146.5625,501.9531 L144.5156,501.9531 C144.1094,501.9531 143.8906,501.9063 143.7344,501.7969 C143.5313,501.625 143.3906,501.3594 143.3906,501.1094 C143.3906,500.8125 143.5469,500.5313 143.7969,500.375 C143.9531,500.2656 144.0938,500.25 144.5156,500.25 L144.6094,500.25 L144.6094,493.7344 C144.0469,493.6875 143.7344,493.3906 143.7344,492.8906 C143.7344,492.6094 143.8906,492.3125 144.1406,492.1563 C144.2969,492.0625 144.4219,492.0469 144.8594,492.0469 L146.5625,492.0469 C147.0313,492.0469 147.1875,492.0781 147.3281,492.1875 C147.5625,492.3594 147.6875,492.625 147.6875,492.8906 C147.6875,493.1875 147.5313,493.4688 147.2813,493.625 C147.125,493.7031 146.9844,493.7344 146.5625,493.7344 L146.3125,493.7344 L146.3125,496.1563 L149.9531,496.1563 L149.9531,493.7344 L149.7031,493.7344 C149.25,493.7344 149.1094,493.7031 148.9375,493.5938 C148.7188,493.4219 148.5781,493.1719 148.5781,492.8906 C148.5781,492.6094 148.7344,492.3125 148.9844,492.1563 C149.1406,492.0625 149.2656,492.0469 149.7031,492.0469 L151.4219,492.0469 C151.875,492.0469 152.0313,492.0781 152.2031,492.1875 C152.4063,492.3594 152.5313,492.625 152.5313,492.8906 C152.5313,493.3906 152.2188,493.6875 151.6563,493.7344 L151.6563,500.25 L151.75,500.25 C152.2188,500.25 152.3594,500.2813 152.5156,500.4063 C152.7344,500.5781 152.875,500.8281 152.875,501.1094 C152.875,501.3906 152.7188,501.6875 152.4688,501.8281 C152.3281,501.9219 152.1094,501.9531 151.75,501.9531 L149.7031,501.9531 C149.2969,501.9531 149.0938,501.9063 148.9375,501.7969 C148.7188,501.625 148.5781,501.3594 148.5781,501.1094 C148.5781,500.8125 148.7344,500.5313 148.9844,500.375 C149.1406,500.2656 149.2969,500.25 149.7031,500.25 L149.9531,500.25 Z "/><text fill="#000000" font-family="sans-serif" font-size="12" lengthAdjust="spacingAndGlyphs" textLength="63" x="162" y="501.1074">L2hessian</text><line style="stroke: #A80036; stroke-width: 1.5;" x1="134" x2="227" y1="512.9531" y2="512.9531"/><line style="stroke: #A80036; stroke-width: 1.5;" x1="134" x2="227" y1="520.9531" y2="520.9531"/><ellipse cx="144" cy="532.8555" fill="#84BE84" rx="3" ry="3" style="stroke: #038048; stroke-width: 1.0;"/><text fill="#000000" font-family="sans-serif" font-size="11" lengthAdjust="spacingAndGlyphs" textLength="66" x="153" y="535.1636">L2hessian()</text><!--class L2laplace--><rect fill="#FEFECE" filter="url(#fg8wd6d)" height="60.8047" style="stroke: #A80036; stroke-width: 1.5;" width="91" x="185" y="601.9531"/><ellipse cx="200" cy="617.9531" fill="#E6FFE6" rx="11" ry="11" style="stroke: #A80036; stroke-width: 1.0;"/><path d="M201.9531,618.8594 L198.3125,618.8594 L198.3125,621.25 L198.5625,621.25 C199.0156,621.25 199.1875,621.2813 199.3281,621.4063 C199.5625,621.5781 199.6875,621.8281 199.6875,622.1094 C199.6875,622.3906 199.5313,622.6875 199.2813,622.8281 C199.1406,622.9219 198.9219,622.9531 198.5625,622.9531 L196.5156,622.9531 C196.1094,622.9531 195.8906,622.9063 195.7344,622.7969 C195.5313,622.625 195.3906,622.3594 195.3906,622.1094 C195.3906,621.8125 195.5469,621.5313 195.7969,621.375 C195.9531,621.2656 196.0938,621.25 196.5156,621.25 L196.6094,621.25 L196.6094,614.7344 C196.0469,614.6875 195.7344,614.3906 195.7344,613.8906 C195.7344,613.6094 195.8906,613.3125 196.1406,613.1563 C196.2969,613.0625 196.4219,613.0469 196.8594,613.0469 L198.5625,613.0469 C199.0313,613.0469 199.1875,613.0781 199.3281,613.1875 C199.5625,613.3594 199.6875,613.625 199.6875,613.8906 C199.6875,614.1875 199.5313,614.4688 199.2813,614.625 C199.125,614.7031 198.9844,614.7344 198.5625,614.7344 L198.3125,614.7344 L198.3125,617.1563 L201.9531,617.1563 L201.9531,614.7344 L201.7031,614.7344 C201.25,614.7344 201.1094,614.7031 200.9375,614.5938 C200.7188,614.4219 200.5781,614.1719 200.5781,613.8906 C200.5781,613.6094 200.7344,613.3125 200.9844,613.1563 C201.1406,613.0625 201.2656,613.0469 201.7031,613.0469 L203.4219,613.0469 C203.875,613.0469 204.0313,613.0781 204.2031,613.1875 C204.4063,613.3594 204.5313,613.625 204.5313,613.8906 C204.5313,614.3906 204.2188,614.6875 203.6563,614.7344 L203.6563,621.25 L203.75,621.25 C204.2188,621.25 204.3594,621.2813 204.5156,621.4063 C204.7344,621.5781 204.875,621.8281 204.875,622.1094 C204.875,622.3906 204.7188,622.6875 204.4688,622.8281 C204.3281,622.9219 204.1094,622.9531 203.75,622.9531 L201.7031,622.9531 C201.2969,622.9531 201.0938,622.9063 200.9375,622.7969 C200.7188,622.625 200.5781,622.3594 200.5781,622.1094 C200.5781,621.8125 200.7344,621.5313 200.9844,621.375 C201.1406,621.2656 201.2969,621.25 201.7031,621.25 L201.9531,621.25 Z "/><text fill="#000000" font-family="sans-serif" font-size="12" lengthAdjust="spacingAndGlyphs" textLength="59" x="214" y="622.1074">L2laplace</text><line style="stroke: #A80036; stroke-width: 1.5;" x1="186" x2="275" y1="633.9531" y2="633.9531"/><line style="stroke: #A80036; stroke-width: 1.5;" x1="186" x2="275" y1="641.9531" y2="641.9531"/><ellipse cx="196" cy="653.8555" fill="#84BE84" rx="3" ry="3" style="stroke: #038048; stroke-width: 1.0;"/><text fill="#000000" font-family="sans-serif" font-size="11" lengthAdjust="spacingAndGlyphs" textLength="61" x="205" y="656.1636">L2laplace()</text><!--class tildeMultiOperatorMultiDual--><rect fill="#FEFECE" filter="url(#fg8wd6d)" height="99.2188" style="stroke: #A80036; stroke-width: 1.5;" width="201" x="99" y="162.4531"/><ellipse cx="114" cy="178.4531" fill="#E6FFE6" rx="11" ry="11" style="stroke: #A80036; stroke-width: 1.0;"/><path d="M115.9531,179.3594 L112.3125,179.3594 L112.3125,181.75 L112.5625,181.75 C113.0156,181.75 113.1875,181.7813 113.3281,181.9063 C113.5625,182.0781 113.6875,182.3281 113.6875,182.6094 C113.6875,182.8906 113.5313,183.1875 113.2813,183.3281 C113.1406,183.4219 112.9219,183.4531 112.5625,183.4531 L110.5156,183.4531 C110.1094,183.4531 109.8906,183.4063 109.7344,183.2969 C109.5313,183.125 109.3906,182.8594 109.3906,182.6094 C109.3906,182.3125 109.5469,182.0313 109.7969,181.875 C109.9531,181.7656 110.0938,181.75 110.5156,181.75 L110.6094,181.75 L110.6094,175.2344 C110.0469,175.1875 109.7344,174.8906 109.7344,174.3906 C109.7344,174.1094 109.8906,173.8125 110.1406,173.6563 C110.2969,173.5625 110.4219,173.5469 110.8594,173.5469 L112.5625,173.5469 C113.0313,173.5469 113.1875,173.5781 113.3281,173.6875 C113.5625,173.8594 113.6875,174.125 113.6875,174.3906 C113.6875,174.6875 113.5313,174.9688 113.2813,175.125 C113.125,175.2031 112.9844,175.2344 112.5625,175.2344 L112.3125,175.2344 L112.3125,177.6563 L115.9531,177.6563 L115.9531,175.2344 L115.7031,175.2344 C115.25,175.2344 115.1094,175.2031 114.9375,175.0938 C114.7188,174.9219 114.5781,174.6719 114.5781,174.3906 C114.5781,174.1094 114.7344,173.8125 114.9844,173.6563 C115.1406,173.5625 115.2656,173.5469 115.7031,173.5469 L117.4219,173.5469 C117.875,173.5469 118.0313,173.5781 118.2031,173.6875 C118.4063,173.8594 118.5313,174.125 118.5313,174.3906 C118.5313,174.8906 118.2188,175.1875 117.6563,175.2344 L117.6563,181.75 L117.75,181.75 C118.2188,181.75 118.3594,181.7813 118.5156,181.9063 C118.7344,182.0781 118.875,182.3281 118.875,182.6094 C118.875,182.8906 118.7188,183.1875 118.4688,183.3281 C118.3281,183.4219 118.1094,183.4531 117.75,183.4531 L115.7031,183.4531 C115.2969,183.4531 115.0938,183.4063 114.9375,183.2969 C114.7188,183.125 114.5781,182.8594 114.5781,182.6094 C114.5781,182.3125 114.7344,182.0313 114.9844,181.875 C115.1406,181.7656 115.2969,181.75 115.7031,181.75 L115.9531,181.75 Z "/><text fill="#000000" font-family="sans-serif" font-size="12" lengthAdjust="spacingAndGlyphs" textLength="169" x="128" y="182.6074">tildeMultiOperatorMultiDual</text><line style="stroke: #A80036; stroke-width: 1.5;" x1="100" x2="299" y1="194.4531" y2="194.4531"/><line style="stroke: #A80036; stroke-width: 1.5;" x1="100" x2="299" y1="202.4531" y2="202.4531"/><ellipse cx="110" cy="214.3555" fill="#84BE84" rx="3" ry="3" style="stroke: #038048; stroke-width: 1.0;"/><text fill="#000000" font-family="sans-serif" font-size="11" lengthAdjust="spacingAndGlyphs" textLength="43" x="119" y="216.6636">xError()</text><ellipse cx="110" cy="227.1602" fill="#84BE84" rx="3" ry="3" style="stroke: #038048; stroke-width: 1.0;"/><text fill="#000000" font-family="sans-serif" font-size="11" lengthAdjust="spacingAndGlyphs" textLength="41" x="119" y="229.4683">xTilde()</text><ellipse cx="110" cy="239.9648" fill="#84BE84" rx="3" ry="3" style="stroke: #038048; stroke-width: 1.0;"/><text fill="#000000" font-family="sans-serif" font-size="11" lengthAdjust="spacingAndGlyphs" textLength="43" x="119" y="242.2729">yError()</text><ellipse cx="110" cy="252.7695" fill="#84BE84" rx="3" ry="3" style="stroke: #038048; stroke-width: 1.0;"/><text fill="#000000" font-family="sans-serif" font-size="11" lengthAdjust="spacingAndGlyphs" textLength="41" x="119" y="255.0776">yTilde()</text><!--class L1AnisoProxDual--><rect fill="#FEFECE" filter="url(#fg8wd6d)" height="73.6094" style="stroke: #A80036; stroke-width: 1.5;" width="135" x="500" y="346.9531"/><ellipse cx="515" cy="362.9531" fill="#E6FFE6" rx="11" ry="11" style="stroke: #A80036; stroke-width: 1.0;"/><path d="M516.9531,363.8594 L513.3125,363.8594 L513.3125,366.25 L513.5625,366.25 C514.0156,366.25 514.1875,366.2813 514.3281,366.4063 C514.5625,366.5781 514.6875,366.8281 514.6875,367.1094 C514.6875,367.3906 514.5313,367.6875 514.2813,367.8281 C514.1406,367.9219 513.9219,367.9531 513.5625,367.9531 L511.5156,367.9531 C511.1094,367.9531 510.8906,367.9063 510.7344,367.7969 C510.5313,367.625 510.3906,367.3594 510.3906,367.1094 C510.3906,366.8125 510.5469,366.5313 510.7969,366.375 C510.9531,366.2656 511.0938,366.25 511.5156,366.25 L511.6094,366.25 L511.6094,359.7344 C511.0469,359.6875 510.7344,359.3906 510.7344,358.8906 C510.7344,358.6094 510.8906,358.3125 511.1406,358.1563 C511.2969,358.0625 511.4219,358.0469 511.8594,358.0469 L513.5625,358.0469 C514.0313,358.0469 514.1875,358.0781 514.3281,358.1875 C514.5625,358.3594 514.6875,358.625 514.6875,358.8906 C514.6875,359.1875 514.5313,359.4688 514.2813,359.625 C514.125,359.7031 513.9844,359.7344 513.5625,359.7344 L513.3125,359.7344 L513.3125,362.1563 L516.9531,362.1563 L516.9531,359.7344 L516.7031,359.7344 C516.25,359.7344 516.1094,359.7031 515.9375,359.5938 C515.7188,359.4219 515.5781,359.1719 515.5781,358.8906 C515.5781,358.6094 515.7344,358.3125 515.9844,358.1563 C516.1406,358.0625 516.2656,358.0469 516.7031,358.0469 L518.4219,358.0469 C518.875,358.0469 519.0313,358.0781 519.2031,358.1875 C519.4063,358.3594 519.5313,358.625 519.5313,358.8906 C519.5313,359.3906 519.2188,359.6875 518.6563,359.7344 L518.6563,366.25 L518.75,366.25 C519.2188,366.25 519.3594,366.2813 519.5156,366.4063 C519.7344,366.5781 519.875,366.8281 519.875,367.1094 C519.875,367.3906 519.7188,367.6875 519.4688,367.8281 C519.3281,367.9219 519.1094,367.9531 518.75,367.9531 L516.7031,367.9531 C516.2969,367.9531 516.0938,367.9063 515.9375,367.7969 C515.7188,367.625 515.5781,367.3594 515.5781,367.1094 C515.5781,366.8125 515.7344,366.5313 515.9844,366.375 C516.1406,366.2656 516.2969,366.25 516.7031,366.25 L516.9531,366.25 Z "/><text fill="#000000" font-family="sans-serif" font-size="12" lengthAdjust="spacingAndGlyphs" textLength="103" x="529" y="367.1074">L1AnisoProxDual</text><line style="stroke: #A80036; stroke-width: 1.5;" x1="501" x2="634" y1="378.9531" y2="378.9531"/><line style="stroke: #A80036; stroke-width: 1.5;" x1="501" x2="634" y1="386.9531" y2="386.9531"/><ellipse cx="511" cy="398.8555" fill="#84BE84" rx="3" ry="3" style="stroke: #038048; stroke-width: 1.0;"/><text fill="#000000" font-family="sans-serif" font-size="11" lengthAdjust="spacingAndGlyphs" textLength="102" x="520" y="401.1636">L1AnisoProxDual()</text><ellipse cx="511" cy="411.6602" fill="#84BE84" rx="3" ry="3" style="stroke: #038048; stroke-width: 1.0;"/><text fill="#000000" font-family="sans-serif" font-size="11" lengthAdjust="spacingAndGlyphs" textLength="63" x="520" y="413.9683">applyProx()</text><!--class L2proxDual--><rect fill="#FEFECE" filter="url(#fg8wd6d)" height="73.6094" style="stroke: #A80036; stroke-width: 1.5;" width="101" x="6" y="346.9531"/><ellipse cx="21" cy="362.9531" fill="#E6FFE6" rx="11" ry="11" style="stroke: #A80036; stroke-width: 1.0;"/><path d="M22.9531,363.8594 L19.3125,363.8594 L19.3125,366.25 L19.5625,366.25 C20.0156,366.25 20.1875,366.2813 20.3281,366.4063 C20.5625,366.5781 20.6875,366.8281 20.6875,367.1094 C20.6875,367.3906 20.5313,367.6875 20.2813,367.8281 C20.1406,367.9219 19.9219,367.9531 19.5625,367.9531 L17.5156,367.9531 C17.1094,367.9531 16.8906,367.9063 16.7344,367.7969 C16.5313,367.625 16.3906,367.3594 16.3906,367.1094 C16.3906,366.8125 16.5469,366.5313 16.7969,366.375 C16.9531,366.2656 17.0938,366.25 17.5156,366.25 L17.6094,366.25 L17.6094,359.7344 C17.0469,359.6875 16.7344,359.3906 16.7344,358.8906 C16.7344,358.6094 16.8906,358.3125 17.1406,358.1563 C17.2969,358.0625 17.4219,358.0469 17.8594,358.0469 L19.5625,358.0469 C20.0313,358.0469 20.1875,358.0781 20.3281,358.1875 C20.5625,358.3594 20.6875,358.625 20.6875,358.8906 C20.6875,359.1875 20.5313,359.4688 20.2813,359.625 C20.125,359.7031 19.9844,359.7344 19.5625,359.7344 L19.3125,359.7344 L19.3125,362.1563 L22.9531,362.1563 L22.9531,359.7344 L22.7031,359.7344 C22.25,359.7344 22.1094,359.7031 21.9375,359.5938 C21.7188,359.4219 21.5781,359.1719 21.5781,358.8906 C21.5781,358.6094 21.7344,358.3125 21.9844,358.1563 C22.1406,358.0625 22.2656,358.0469 22.7031,358.0469 L24.4219,358.0469 C24.875,358.0469 25.0313,358.0781 25.2031,358.1875 C25.4063,358.3594 25.5313,358.625 25.5313,358.8906 C25.5313,359.3906 25.2188,359.6875 24.6563,359.7344 L24.6563,366.25 L24.75,366.25 C25.2188,366.25 25.3594,366.2813 25.5156,366.4063 C25.7344,366.5781 25.875,366.8281 25.875,367.1094 C25.875,367.3906 25.7188,367.6875 25.4688,367.8281 C25.3281,367.9219 25.1094,367.9531 24.75,367.9531 L22.7031,367.9531 C22.2969,367.9531 22.0938,367.9063 21.9375,367.7969 C21.7188,367.625 21.5781,367.3594 21.5781,367.1094 C21.5781,366.8125 21.7344,366.5313 21.9844,366.375 C22.1406,366.2656 22.2969,366.25 22.7031,366.25 L22.9531,366.25 Z "/><text fill="#000000" font-family="sans-serif" font-size="12" lengthAdjust="spacingAndGlyphs" textLength="69" x="35" y="367.1074">L2proxDual</text><line style="stroke: #A80036; stroke-width: 1.5;" x1="7" x2="106" y1="378.9531" y2="378.9531"/><line style="stroke: #A80036; stroke-width: 1.5;" x1="7" x2="106" y1="386.9531" y2="386.9531"/><ellipse cx="17" cy="398.8555" fill="#84BE84" rx="3" ry="3" style="stroke: #038048; stroke-width: 1.0;"/><text fill="#000000" font-family="sans-serif" font-size="11" lengthAdjust="spacingAndGlyphs" textLength="71" x="26" y="401.1636">L2proxDual()</text><ellipse cx="17" cy="411.6602" fill="#84BE84" rx="3" ry="3" style="stroke: #038048; stroke-width: 1.0;"/><text fill="#000000" font-family="sans-serif" font-size="11" lengthAdjust="spacingAndGlyphs" textLength="63" x="26" y="413.9683">applyProx()</text><!--class functionalPart--><rect fill="#FEFECE" filter="url(#fg8wd6d)" height="48" style="stroke: #A80036; stroke-width: 1.5;" width="120" x="319.5" y="28.9531"/><ellipse cx="334.5" cy="44.9531" fill="#ADD1B2" rx="11" ry="11" style="stroke: #A80036; stroke-width: 1.0;"/><path d="M336.8438,40.625 L337.0156,40.7031 C337.2344,40.3906 337.4375,40.2969 337.7344,40.2969 C338.0313,40.2969 338.3125,40.4375 338.4688,40.7031 C338.5625,40.8594 338.5781,40.9844 338.5781,41.4219 L338.5781,42.8438 C338.5781,43.2656 338.5469,43.4531 338.4375,43.6094 C338.2656,43.8281 338,43.9688 337.7344,43.9688 C337.5156,43.9688 337.2813,43.8594 337.1406,43.7188 C337,43.5938 336.9688,43.4688 336.9063,43.0625 C336.8125,42.6563 336.6406,42.4375 336.1563,42.1563 C335.6875,41.9063 335.0781,41.75 334.5,41.75 C332.7656,41.75 331.5156,43.0625 331.5156,44.8438 L331.5156,45.9375 C331.5156,47.6406 332.8125,48.7344 334.8594,48.7344 C335.625,48.7344 336.3125,48.6094 336.7344,48.3438 C336.9219,48.25 336.9219,48.25 337.375,47.7656 C337.5625,47.5781 337.7656,47.5 337.9844,47.5 C338.4531,47.5 338.8438,47.8906 338.8438,48.3438 C338.8438,48.7344 338.5156,49.1875 337.9375,49.5938 C337.1875,50.1406 336.0313,50.4375 334.8125,50.4375 C331.9219,50.4375 329.8125,48.5469 329.8125,45.9688 L329.8125,44.8438 C329.8125,42.125 331.8125,40.0469 334.4375,40.0469 C335.3125,40.0469 335.9063,40.1875 336.8438,40.625 Z "/><text fill="#000000" font-family="sans-serif" font-size="12" lengthAdjust="spacingAndGlyphs" textLength="88" x="348.5" y="49.1074">functionalPart</text><line style="stroke: #A80036; stroke-width: 1.5;" x1="320.5" x2="438.5" y1="60.9531" y2="60.9531"/><line style="stroke: #A80036; stroke-width: 1.5;" x1="320.5" x2="438.5" y1="68.9531" y2="68.9531"/><path d="M379.5,97.3281 C379.5,109.6191 379.5,123.3581 379.5,136.9181 " fill="none" style="stroke: #A80036; stroke-width: 1.0;"/><polygon fill="none" points="372.5,97.1191,379.5,77.1191,386.5,97.1191,372.5,97.1191" style="stroke: #A80036; stroke-width: 1.0;"/><path d="M378.946,307.1831 C378.847,323.9771 378.751,340.2841 378.674,353.4411 " fill="none" style="stroke: #A80036; stroke-width: 1.0;"/><polygon fill="none" points="371.947,306.9811,379.064,287.0231,385.946,307.0641,371.947,306.9811" style="stroke: #A80036; stroke-width: 1.0;"/><path d="M265.514,275.6481 C293.539,302.2641 324.871,332.0201 347.418,353.4341 " fill="none" style="stroke: #A80036; stroke-width: 1.0;"/><polygon fill="none" points="260.476,280.5171,250.794,261.6681,270.117,270.3651,260.476,280.5171" style="stroke: #A80036; stroke-width: 1.0;"/><path d="M321.066,283.3811 C319.877,284.5901 318.688,285.7821 317.5,286.9531 C293.143,310.9611 263.233,335.2451 239.621,353.3831 " fill="none" style="stroke: #A80036; stroke-width: 1.0;"/><polygon fill="none" points="316.151,278.3891,334.917,268.5491,326.383,287.9441,316.151,278.3891" style="stroke: #A80036; stroke-width: 1.0;"/><path d="M199.5,281.9561 C199.5,306.8751 199.5,333.6981 199.5,353.4341 " fill="none" style="stroke: #A80036; stroke-width: 1.0;"/><polygon fill="none" points="192.5,281.6681,199.5,261.6681,206.5,281.6681,192.5,281.6681" style="stroke: #A80036; stroke-width: 1.0;"/><path d="M358.849,433.3091 C352.328,449.3571 345.266,466.7341 339.5,480.9251 " fill="none" style="stroke: #A80036; stroke-width: 1.0;"/><polygon fill="none" points="352.399,430.5881,366.414,414.6951,365.369,435.8591,352.399,430.5881" style="stroke: #A80036; stroke-width: 1.0;"/><path d="M275.588,421.4271 C333.934,448.9861 383.451,472.0171 418.693,488.3501 " fill="none" style="stroke: #A80036; stroke-width: 1.0;"/><polygon fill="none" points="272.29,427.6111,257.203,412.7321,278.276,414.9551,272.29,427.6111" style="stroke: #A80036; stroke-width: 1.0;"/><path d="M525.687,436.9091 C513.709,451.7921 501.06,467.5101 490.544,480.5771 " fill="none" style="stroke: #A80036; stroke-width: 1.0;"/><polygon fill="none" points="520.294,432.4451,538.287,421.2531,531.201,441.2231,520.294,432.4451" style="stroke: #A80036; stroke-width: 1.0;"/><path d="M364.626,557.9991 C376.565,572.6463 389.479,588.4887 400.246,601.6978 " fill="none" style="stroke: #A80036; stroke-width: 1.0;"/><polygon fill="none" points="358.938,562.1001,351.727,542.1751,369.789,553.2541,358.938,562.1001" style="stroke: #A80036; stroke-width: 1.0;"/><path d="M563.462,441.0391 C559.113,472.5771 550.11,511.5871 531.5,541.9531 C516.314,566.7318 491.855,587.946 470.152,603.4929 " fill="none" style="stroke: #A80036; stroke-width: 1.0;"/><polygon fill="none" points="556.518,440.1541,565.747,421.0791,570.427,441.7461,556.518,440.1541" style="stroke: #A80036; stroke-width: 1.0;"/><path d="M191.979,434.6341 C189.605,450.3101 187.06,467.1241 184.97,480.9251 " fill="none" style="stroke: #A80036; stroke-width: 1.0;"/><polygon fill="none" points="185.082,433.4221,194.997,414.6951,198.925,435.5171,185.082,433.4221" style="stroke: #A80036; stroke-width: 1.0;"/><path d="M106.43,435.4871 C121.546,450.7861 137.658,467.0931 150.981,480.5771 " fill="none" style="stroke: #A80036; stroke-width: 1.0;"/><polygon fill="none" points="101.4434,440.4001,92.3659,421.2531,111.402,430.5601,101.4434,440.4001" style="stroke: #A80036; stroke-width: 1.0;"/><path d="M290.374,557.9991 C278.435,572.6463 265.521,588.4887 254.754,601.6978 " fill="none" style="stroke: #A80036; stroke-width: 1.0;"/><polygon fill="none" points="285.211,553.2541,303.273,542.1751,296.062,562.1001,285.211,553.2541" style="stroke: #A80036; stroke-width: 1.0;"/><path d="M69.3491,440.6581 C78.5705,472.4531 93.3424,511.8461 115.5,541.9531 C134.02,567.1171 161.435,588.8312 184.853,604.5676 " fill="none" style="stroke: #A80036; stroke-width: 1.0;"/><polygon fill="none" points="62.5063,442.1671,64.0689,421.0351,76.0254,438.5301,62.5063,442.1671" style="stroke: #A80036; stroke-width: 1.0;"/></g></svg>