<?xml version="1.0" encoding="UTF-8" standalone="no"?><svg xmlns="http://www.w3.org/2000/svg" xmlns:xlink="http://www.w3.org/1999/xlink" contentScriptType="application/ecmascript" contentStyleType="text/css" height="653px" preserveAspectRatio="none" style="width:676px;height:653px;" version="1.1" viewBox="0 0 676 653" width="676px" zoomAndPan="magnify"><defs><filter height="300%" id="fccnz0z" width="300%" x="-1" y="-1"><feGaussianBlur result="blurOut" stdDeviation="2.0"/><feColorMatrix in="blurOut" result="blurOut2" type="matrix" values="0 0 0 0 0 0 0 0 0 0 0 0 0 0 0 0 0 0 .4 0"/><feOffset dx="4.0" dy="4.0" in="blurOut2" result="blurOut3"/><feBlend in="SourceGraphic" in2="blurOut3" mode="normal"/></filter></defs><g><text fill="#000000" font-family="sans-serif" font-size="18" font-weight="bold" lengthAdjust="spacingAndGlyphs" textLength="375" x="155.5" y="16.708">Regularizer Terms (hessian / laplace)</text><!--class basicTerm--><rect fill="#FEFECE" filter="url(#fccnz0z)" height="240.0703" style="stroke: #A80036; stroke-width: 1.5;" width="96" x="571.5" y="28.9531"/><ellipse cx="586.5" cy="44.9531" fill="#E6FFE6" rx="11" ry="11" style="stroke: #A80036; stroke-width: 1.0;"/><path d="M588.4531,45.8594 L584.8125,45.8594 L584.8125,48.25 L585.0625,48.25 C585.5156,48.25 585.6875,48.2813 585.8281,48.4063 C586.0625,48.5781 586.1875,48.8281 586.1875,49.1094 C586.1875,49.3906 586.0313,49.6875 585.7813,49.8281 C585.6406,49.9219 585.4219,49.9531 585.0625,49.9531 L583.0156,49.9531 C582.6094,49.9531 582.3906,49.9063 582.2344,49.7969 C582.0313,49.625 581.8906,49.3594 581.8906,49.1094 C581.8906,48.8125 582.0469,48.5313 582.2969,48.375 C582.4531,48.2656 582.5938,48.25 583.0156,48.25 L583.1094,48.25 L583.1094,41.7344 C582.5469,41.6875 582.2344,41.3906 582.2344,40.8906 C582.2344,40.6094 582.3906,40.3125 582.6406,40.1563 C582.7969,40.0625 582.9219,40.0469 583.3594,40.0469 L585.0625,40.0469 C585.5313,40.0469 585.6875,40.0781 585.8281,40.1875 C586.0625,40.3594 586.1875,40.625 586.1875,40.8906 C586.1875,41.1875 586.0313,41.4688 585.7813,41.625 C585.625,41.7031 585.4844,41.7344 585.0625,41.7344 L584.8125,41.7344 L584.8125,44.1563 L588.4531,44.1563 L588.4531,41.7344 L588.2031,41.7344 C587.75,41.7344 587.6094,41.7031 587.4375,41.5938 C587.2188,41.4219 587.0781,41.1719 587.0781,40.8906 C587.0781,40.6094 587.2344,40.3125 587.4844,40.1563 C587.6406,40.0625 587.7656,40.0469 588.2031,40.0469 L589.9219,40.0469 C590.375,40.0469 590.5313,40.0781 590.7031,40.1875 C590.9063,40.3594 591.0313,40.625 591.0313,40.8906 C591.0313,41.3906 590.7188,41.6875 590.1563,41.7344 L590.1563,48.25 L590.25,48.25 C590.7188,48.25 590.8594,48.2813 591.0156,48.4063 C591.2344,48.5781 591.375,48.8281 591.375,49.1094 C591.375,49.3906 591.2188,49.6875 590.9688,49.8281 C590.8281,49.9219 590.6094,49.9531 590.25,49.9531 L588.2031,49.9531 C587.7969,49.9531 587.5938,49.9063 587.4375,49.7969 C587.2188,49.625 587.0781,49.3594 587.0781,49.1094 C587.0781,48.8125 587.2344,48.5313 587.4844,48.375 C587.6406,48.2656 587.7969,48.25 588.2031,48.25 L588.4531,48.25 Z "/><text fill="#000000" font-family="sans-serif" font-size="12" lengthAdjust="spacingAndGlyphs" textLength="64" x="600.5" y="49.1074">basicTerm</text><line style="stroke: #A80036; stroke-width: 1.5;" x1="572.5" x2="666.5" y1="60.9531" y2="60.9531"/><text fill="#000000" font-family="sans-serif" font-size="11" lengthAdjust="spacingAndGlyphs" textLength="13" x="591.5" y="75.1636">+f</text><ellipse cx="582.5" cy="85.6602" fill="none" rx="3" ry="3" style="stroke: #038048; stroke-width: 1.0;"/><text fill="#000000" font-family="sans-serif" font-size="11" lengthAdjust="spacingAndGlyphs" textLength="33" x="591.5" y="87.9683">factor</text><ellipse cx="582.5" cy="98.4648" fill="none" rx="3" ry="3" style="stroke: #038048; stroke-width: 1.0;"/><text fill="#000000" font-family="sans-serif" font-size="11" lengthAdjust="spacingAndGlyphs" textLength="35" x="591.5" y="100.7729">length</text><ellipse cx="582.5" cy="111.2695" fill="none" rx="3" ry="3" style="stroke: #038048; stroke-width: 1.0;"/><text fill="#000000" font-family="sans-serif" font-size="11" lengthAdjust="spacingAndGlyphs" textLength="53" x="591.5" y="113.5776">mySigma</text><ellipse cx="582.5" cy="124.0742" fill="none" rx="3" ry="3" style="stroke: #038048; stroke-width: 1.0;"/><text fill="#000000" font-family="sans-serif" font-size="11" lengthAdjust="spacingAndGlyphs" textLength="38" x="591.5" y="126.3823">myTau</text><ellipse cx="582.5" cy="136.8789" fill="none" rx="3" ry="3" style="stroke: #038048; stroke-width: 1.0;"/><text fill="#000000" font-family="sans-serif" font-size="11" lengthAdjust="spacingAndGlyphs" textLength="68" x="591.5" y="139.187">numPrimals</text><ellipse cx="582.5" cy="149.6836" fill="none" rx="3" ry="3" style="stroke: #038048; stroke-width: 1.0;"/><text fill="#000000" font-family="sans-serif" font-size="11" lengthAdjust="spacingAndGlyphs" textLength="51" x="591.5" y="151.9917">numVars</text><ellipse cx="582.5" cy="162.4883" fill="none" rx="3" ry="3" style="stroke: #038048; stroke-width: 1.0;"/><text fill="#000000" font-family="sans-serif" font-size="11" lengthAdjust="spacingAndGlyphs" textLength="49" x="591.5" y="164.7964">operator</text><ellipse cx="582.5" cy="175.293" fill="none" rx="3" ry="3" style="stroke: #038048; stroke-width: 1.0;"/><text fill="#000000" font-family="sans-serif" font-size="11" lengthAdjust="spacingAndGlyphs" textLength="56" x="591.5" y="177.6011">operatorT</text><line style="stroke: #A80036; stroke-width: 1.5;" x1="572.5" x2="666.5" y1="184.1953" y2="184.1953"/><ellipse cx="582.5" cy="196.0977" fill="#84BE84" rx="3" ry="3" style="stroke: #038048; stroke-width: 1.0;"/><text fill="#000000" font-family="sans-serif" font-size="11" lengthAdjust="spacingAndGlyphs" textLength="68" x="591.5" y="198.4058">basicTerm()</text><ellipse cx="582.5" cy="208.9023" fill="#84BE84" rx="3" ry="3" style="stroke: #038048; stroke-width: 1.0;"/><text fill="#000000" font-family="sans-serif" font-size="11" lengthAdjust="spacingAndGlyphs" textLength="25" x="591.5" y="211.2104">init()</text><ellipse cx="582.5" cy="221.707" fill="#84BE84" rx="3" ry="3" style="stroke: #038048; stroke-width: 1.0;"/><text fill="#000000" font-family="sans-serif" font-size="11" lengthAdjust="spacingAndGlyphs" textLength="43" x="591.5" y="224.0151">xError()</text><ellipse cx="582.5" cy="234.5117" fill="#84BE84" rx="3" ry="3" style="stroke: #038048; stroke-width: 1.0;"/><text fill="#000000" font-family="sans-serif" font-size="11" lengthAdjust="spacingAndGlyphs" textLength="41" x="591.5" y="236.8198">xTilde()</text><ellipse cx="582.5" cy="247.3164" fill="#84BE84" rx="3" ry="3" style="stroke: #038048; stroke-width: 1.0;"/><text fill="#000000" font-family="sans-serif" font-size="11" lengthAdjust="spacingAndGlyphs" textLength="43" x="591.5" y="249.6245">yError()</text><ellipse cx="582.5" cy="260.1211" fill="#84BE84" rx="3" ry="3" style="stroke: #038048; stroke-width: 1.0;"/><text fill="#000000" font-family="sans-serif" font-size="11" lengthAdjust="spacingAndGlyphs" textLength="41" x="591.5" y="262.4292">yTilde()</text><!--class basicDualizedOperator--><rect fill="#FEFECE" filter="url(#fccnz0z)" height="60.8047" style="stroke: #A80036; stroke-width: 1.5;" width="173" x="362" y="328.9531"/><ellipse cx="377" cy="344.9531" fill="#E6FFE6" rx="11" ry="11" style="stroke: #A80036; stroke-width: 1.0;"/><path d="M378.9531,345.8594 L375.3125,345.8594 L375.3125,348.25 L375.5625,348.25 C376.0156,348.25 376.1875,348.2813 376.3281,348.4063 C376.5625,348.5781 376.6875,348.8281 376.6875,349.1094 C376.6875,349.3906 376.5313,349.6875 376.2813,349.8281 C376.1406,349.9219 375.9219,349.9531 375.5625,349.9531 L373.5156,349.9531 C373.1094,349.9531 372.8906,349.9063 372.7344,349.7969 C372.5313,349.625 372.3906,349.3594 372.3906,349.1094 C372.3906,348.8125 372.5469,348.5313 372.7969,348.375 C372.9531,348.2656 373.0938,348.25 373.5156,348.25 L373.6094,348.25 L373.6094,341.7344 C373.0469,341.6875 372.7344,341.3906 372.7344,340.8906 C372.7344,340.6094 372.8906,340.3125 373.1406,340.1563 C373.2969,340.0625 373.4219,340.0469 373.8594,340.0469 L375.5625,340.0469 C376.0313,340.0469 376.1875,340.0781 376.3281,340.1875 C376.5625,340.3594 376.6875,340.625 376.6875,340.8906 C376.6875,341.1875 376.5313,341.4688 376.2813,341.625 C376.125,341.7031 375.9844,341.7344 375.5625,341.7344 L375.3125,341.7344 L375.3125,344.1563 L378.9531,344.1563 L378.9531,341.7344 L378.7031,341.7344 C378.25,341.7344 378.1094,341.7031 377.9375,341.5938 C377.7188,341.4219 377.5781,341.1719 377.5781,340.8906 C377.5781,340.6094 377.7344,340.3125 377.9844,340.1563 C378.1406,340.0625 378.2656,340.0469 378.7031,340.0469 L380.4219,340.0469 C380.875,340.0469 381.0313,340.0781 381.2031,340.1875 C381.4063,340.3594 381.5313,340.625 381.5313,340.8906 C381.5313,341.3906 381.2188,341.6875 380.6563,341.7344 L380.6563,348.25 L380.75,348.25 C381.2188,348.25 381.3594,348.2813 381.5156,348.4063 C381.7344,348.5781 381.875,348.8281 381.875,349.1094 C381.875,349.3906 381.7188,349.6875 381.4688,349.8281 C381.3281,349.9219 381.1094,349.9531 380.75,349.9531 L378.7031,349.9531 C378.2969,349.9531 378.0938,349.9063 377.9375,349.7969 C377.7188,349.625 377.5781,349.3594 377.5781,349.1094 C377.5781,348.8125 377.7344,348.5313 377.9844,348.375 C378.1406,348.2656 378.2969,348.25 378.7031,348.25 L378.9531,348.25 Z "/><text fill="#000000" font-family="sans-serif" font-size="12" lengthAdjust="spacingAndGlyphs" textLength="141" x="391" y="349.1074">basicDualizedOperator</text><line style="stroke: #A80036; stroke-width: 1.5;" x1="363" x2="534" y1="360.9531" y2="360.9531"/><line style="stroke: #A80036; stroke-width: 1.5;" x1="363" x2="534" y1="368.9531" y2="368.9531"/><ellipse cx="373" cy="380.8555" fill="#84BE84" rx="3" ry="3" style="stroke: #038048; stroke-width: 1.0;"/><text fill="#000000" font-family="sans-serif" font-size="11" lengthAdjust="spacingAndGlyphs" textLength="136" x="382" y="383.1636">basicDualizedOperator()</text><!--class basicHessian--><rect fill="#FEFECE" filter="url(#fccnz0z)" height="60.8047" style="stroke: #A80036; stroke-width: 1.5;" width="115" x="176" y="456.4531"/><ellipse cx="191" cy="472.4531" fill="#E6FFE6" rx="11" ry="11" style="stroke: #A80036; stroke-width: 1.0;"/><path d="M192.9531,473.3594 L189.3125,473.3594 L189.3125,475.75 L189.5625,475.75 C190.0156,475.75 190.1875,475.7813 190.3281,475.9063 C190.5625,476.0781 190.6875,476.3281 190.6875,476.6094 C190.6875,476.8906 190.5313,477.1875 190.2813,477.3281 C190.1406,477.4219 189.9219,477.4531 189.5625,477.4531 L187.5156,477.4531 C187.1094,477.4531 186.8906,477.4063 186.7344,477.2969 C186.5313,477.125 186.3906,476.8594 186.3906,476.6094 C186.3906,476.3125 186.5469,476.0313 186.7969,475.875 C186.9531,475.7656 187.0938,475.75 187.5156,475.75 L187.6094,475.75 L187.6094,469.2344 C187.0469,469.1875 186.7344,468.8906 186.7344,468.3906 C186.7344,468.1094 186.8906,467.8125 187.1406,467.6563 C187.2969,467.5625 187.4219,467.5469 187.8594,467.5469 L189.5625,467.5469 C190.0313,467.5469 190.1875,467.5781 190.3281,467.6875 C190.5625,467.8594 190.6875,468.125 190.6875,468.3906 C190.6875,468.6875 190.5313,468.9688 190.2813,469.125 C190.125,469.2031 189.9844,469.2344 189.5625,469.2344 L189.3125,469.2344 L189.3125,471.6563 L192.9531,471.6563 L192.9531,469.2344 L192.7031,469.2344 C192.25,469.2344 192.1094,469.2031 191.9375,469.0938 C191.7188,468.9219 191.5781,468.6719 191.5781,468.3906 C191.5781,468.1094 191.7344,467.8125 191.9844,467.6563 C192.1406,467.5625 192.2656,467.5469 192.7031,467.5469 L194.4219,467.5469 C194.875,467.5469 195.0313,467.5781 195.2031,467.6875 C195.4063,467.8594 195.5313,468.125 195.5313,468.3906 C195.5313,468.8906 195.2188,469.1875 194.6563,469.2344 L194.6563,475.75 L194.75,475.75 C195.2188,475.75 195.3594,475.7813 195.5156,475.9063 C195.7344,476.0781 195.875,476.3281 195.875,476.6094 C195.875,476.8906 195.7188,477.1875 195.4688,477.3281 C195.3281,477.4219 195.1094,477.4531 194.75,477.4531 L192.7031,477.4531 C192.2969,477.4531 192.0938,477.4063 191.9375,477.2969 C191.7188,477.125 191.5781,476.8594 191.5781,476.6094 C191.5781,476.3125 191.7344,476.0313 191.9844,475.875 C192.1406,475.7656 192.2969,475.75 192.7031,475.75 L192.9531,475.75 Z "/><text fill="#000000" font-family="sans-serif" font-size="12" lengthAdjust="spacingAndGlyphs" textLength="83" x="205" y="476.6074">basicHessian</text><line style="stroke: #A80036; stroke-width: 1.5;" x1="177" x2="290" y1="488.4531" y2="488.4531"/><line style="stroke: #A80036; stroke-width: 1.5;" x1="177" x2="290" y1="496.4531" y2="496.4531"/><ellipse cx="187" cy="508.3555" fill="#84BE84" rx="3" ry="3" style="stroke: #038048; stroke-width: 1.0;"/><text fill="#000000" font-family="sans-serif" font-size="11" lengthAdjust="spacingAndGlyphs" textLength="84" x="196" y="510.6636">basicHessian()</text><!--class basicLaplace--><rect fill="#FEFECE" filter="url(#fccnz0z)" height="60.8047" style="stroke: #A80036; stroke-width: 1.5;" width="113" x="462" y="456.4531"/><ellipse cx="477" cy="472.4531" fill="#E6FFE6" rx="11" ry="11" style="stroke: #A80036; stroke-width: 1.0;"/><path d="M478.9531,473.3594 L475.3125,473.3594 L475.3125,475.75 L475.5625,475.75 C476.0156,475.75 476.1875,475.7813 476.3281,475.9063 C476.5625,476.0781 476.6875,476.3281 476.6875,476.6094 C476.6875,476.8906 476.5313,477.1875 476.2813,477.3281 C476.1406,477.4219 475.9219,477.4531 475.5625,477.4531 L473.5156,477.4531 C473.1094,477.4531 472.8906,477.4063 472.7344,477.2969 C472.5313,477.125 472.3906,476.8594 472.3906,476.6094 C472.3906,476.3125 472.5469,476.0313 472.7969,475.875 C472.9531,475.7656 473.0938,475.75 473.5156,475.75 L473.6094,475.75 L473.6094,469.2344 C473.0469,469.1875 472.7344,468.8906 472.7344,468.3906 C472.7344,468.1094 472.8906,467.8125 473.1406,467.6563 C473.2969,467.5625 473.4219,467.5469 473.8594,467.5469 L475.5625,467.5469 C476.0313,467.5469 476.1875,467.5781 476.3281,467.6875 C476.5625,467.8594 476.6875,468.125 476.6875,468.3906 C476.6875,468.6875 476.5313,468.9688 476.2813,469.125 C476.125,469.2031 475.9844,469.2344 475.5625,469.2344 L475.3125,469.2344 L475.3125,471.6563 L478.9531,471.6563 L478.9531,469.2344 L478.7031,469.2344 C478.25,469.2344 478.1094,469.2031 477.9375,469.0938 C477.7188,468.9219 477.5781,468.6719 477.5781,468.3906 C477.5781,468.1094 477.7344,467.8125 477.9844,467.6563 C478.1406,467.5625 478.2656,467.5469 478.7031,467.5469 L480.4219,467.5469 C480.875,467.5469 481.0313,467.5781 481.2031,467.6875 C481.4063,467.8594 481.5313,468.125 481.5313,468.3906 C481.5313,468.8906 481.2188,469.1875 480.6563,469.2344 L480.6563,475.75 L480.75,475.75 C481.2188,475.75 481.3594,475.7813 481.5156,475.9063 C481.7344,476.0781 481.875,476.3281 481.875,476.6094 C481.875,476.8906 481.7188,477.1875 481.4688,477.3281 C481.3281,477.4219 481.1094,477.4531 480.75,477.4531 L478.7031,477.4531 C478.2969,477.4531 478.0938,477.4063 477.9375,477.2969 C477.7188,477.125 477.5781,476.8594 477.5781,476.6094 C477.5781,476.3125 477.7344,476.0313 477.9844,475.875 C478.1406,475.7656 478.2969,475.75 478.7031,475.75 L478.9531,475.75 Z "/><text fill="#000000" font-family="sans-serif" font-size="12" lengthAdjust="spacingAndGlyphs" textLength="81" x="491" y="476.6074">basicLaplace</text><line style="stroke: #A80036; stroke-width: 1.5;" x1="463" x2="574" y1="488.4531" y2="488.4531"/><line style="stroke: #A80036; stroke-width: 1.5;" x1="463" x2="574" y1="496.4531" y2="496.4531"/><ellipse cx="473" cy="508.3555" fill="#84BE84" rx="3" ry="3" style="stroke: #038048; stroke-width: 1.0;"/><text fill="#000000" font-family="sans-serif" font-size="11" lengthAdjust="spacingAndGlyphs" textLength="81" x="482" y="510.6636">basicLaplace()</text><!--class L1hessian--><rect fill="#FEFECE" filter="url(#fccnz0z)" height="60.8047" style="stroke: #A80036; stroke-width: 1.5;" width="95" x="49" y="583.9531"/><ellipse cx="64" cy="599.9531" fill="#E6FFE6" rx="11" ry="11" style="stroke: #A80036; stroke-width: 1.0;"/><path d="M65.9531,600.8594 L62.3125,600.8594 L62.3125,603.25 L62.5625,603.25 C63.0156,603.25 63.1875,603.2813 63.3281,603.4063 C63.5625,603.5781 63.6875,603.8281 63.6875,604.1094 C63.6875,604.3906 63.5313,604.6875 63.2813,604.8281 C63.1406,604.9219 62.9219,604.9531 62.5625,604.9531 L60.5156,604.9531 C60.1094,604.9531 59.8906,604.9063 59.7344,604.7969 C59.5313,604.625 59.3906,604.3594 59.3906,604.1094 C59.3906,603.8125 59.5469,603.5313 59.7969,603.375 C59.9531,603.2656 60.0938,603.25 60.5156,603.25 L60.6094,603.25 L60.6094,596.7344 C60.0469,596.6875 59.7344,596.3906 59.7344,595.8906 C59.7344,595.6094 59.8906,595.3125 60.1406,595.1563 C60.2969,595.0625 60.4219,595.0469 60.8594,595.0469 L62.5625,595.0469 C63.0313,595.0469 63.1875,595.0781 63.3281,595.1875 C63.5625,595.3594 63.6875,595.625 63.6875,595.8906 C63.6875,596.1875 63.5313,596.4688 63.2813,596.625 C63.125,596.7031 62.9844,596.7344 62.5625,596.7344 L62.3125,596.7344 L62.3125,599.1563 L65.9531,599.1563 L65.9531,596.7344 L65.7031,596.7344 C65.25,596.7344 65.1094,596.7031 64.9375,596.5938 C64.7188,596.4219 64.5781,596.1719 64.5781,595.8906 C64.5781,595.6094 64.7344,595.3125 64.9844,595.1563 C65.1406,595.0625 65.2656,595.0469 65.7031,595.0469 L67.4219,595.0469 C67.875,595.0469 68.0313,595.0781 68.2031,595.1875 C68.4063,595.3594 68.5313,595.625 68.5313,595.8906 C68.5313,596.3906 68.2188,596.6875 67.6563,596.7344 L67.6563,603.25 L67.75,603.25 C68.2188,603.25 68.3594,603.2813 68.5156,603.4063 C68.7344,603.5781 68.875,603.8281 68.875,604.1094 C68.875,604.3906 68.7188,604.6875 68.4688,604.8281 C68.3281,604.9219 68.1094,604.9531 67.75,604.9531 L65.7031,604.9531 C65.2969,604.9531 65.0938,604.9063 64.9375,604.7969 C64.7188,604.625 64.5781,604.3594 64.5781,604.1094 C64.5781,603.8125 64.7344,603.5313 64.9844,603.375 C65.1406,603.2656 65.2969,603.25 65.7031,603.25 L65.9531,603.25 Z "/><text fill="#000000" font-family="sans-serif" font-size="12" lengthAdjust="spacingAndGlyphs" textLength="63" x="78" y="604.1074">L1hessian</text><line style="stroke: #A80036; stroke-width: 1.5;" x1="50" x2="143" y1="615.9531" y2="615.9531"/><line style="stroke: #A80036; stroke-width: 1.5;" x1="50" x2="143" y1="623.9531" y2="623.9531"/><ellipse cx="60" cy="635.8555" fill="#84BE84" rx="3" ry="3" style="stroke: #038048; stroke-width: 1.0;"/><text fill="#000000" font-family="sans-serif" font-size="11" lengthAdjust="spacingAndGlyphs" textLength="66" x="69" y="638.1636">L1hessian()</text><!--class L1laplace--><rect fill="#FEFECE" filter="url(#fccnz0z)" height="60.8047" style="stroke: #A80036; stroke-width: 1.5;" width="91" x="191" y="583.9531"/><ellipse cx="206" cy="599.9531" fill="#E6FFE6" rx="11" ry="11" style="stroke: #A80036; stroke-width: 1.0;"/><path d="M207.9531,600.8594 L204.3125,600.8594 L204.3125,603.25 L204.5625,603.25 C205.0156,603.25 205.1875,603.2813 205.3281,603.4063 C205.5625,603.5781 205.6875,603.8281 205.6875,604.1094 C205.6875,604.3906 205.5313,604.6875 205.2813,604.8281 C205.1406,604.9219 204.9219,604.9531 204.5625,604.9531 L202.5156,604.9531 C202.1094,604.9531 201.8906,604.9063 201.7344,604.7969 C201.5313,604.625 201.3906,604.3594 201.3906,604.1094 C201.3906,603.8125 201.5469,603.5313 201.7969,603.375 C201.9531,603.2656 202.0938,603.25 202.5156,603.25 L202.6094,603.25 L202.6094,596.7344 C202.0469,596.6875 201.7344,596.3906 201.7344,595.8906 C201.7344,595.6094 201.8906,595.3125 202.1406,595.1563 C202.2969,595.0625 202.4219,595.0469 202.8594,595.0469 L204.5625,595.0469 C205.0313,595.0469 205.1875,595.0781 205.3281,595.1875 C205.5625,595.3594 205.6875,595.625 205.6875,595.8906 C205.6875,596.1875 205.5313,596.4688 205.2813,596.625 C205.125,596.7031 204.9844,596.7344 204.5625,596.7344 L204.3125,596.7344 L204.3125,599.1563 L207.9531,599.1563 L207.9531,596.7344 L207.7031,596.7344 C207.25,596.7344 207.1094,596.7031 206.9375,596.5938 C206.7188,596.4219 206.5781,596.1719 206.5781,595.8906 C206.5781,595.6094 206.7344,595.3125 206.9844,595.1563 C207.1406,595.0625 207.2656,595.0469 207.7031,595.0469 L209.4219,595.0469 C209.875,595.0469 210.0313,595.0781 210.2031,595.1875 C210.4063,595.3594 210.5313,595.625 210.5313,595.8906 C210.5313,596.3906 210.2188,596.6875 209.6563,596.7344 L209.6563,603.25 L209.75,603.25 C210.2188,603.25 210.3594,603.2813 210.5156,603.4063 C210.7344,603.5781 210.875,603.8281 210.875,604.1094 C210.875,604.3906 210.7188,604.6875 210.4688,604.8281 C210.3281,604.9219 210.1094,604.9531 209.75,604.9531 L207.7031,604.9531 C207.2969,604.9531 207.0938,604.9063 206.9375,604.7969 C206.7188,604.625 206.5781,604.3594 206.5781,604.1094 C206.5781,603.8125 206.7344,603.5313 206.9844,603.375 C207.1406,603.2656 207.2969,603.25 207.7031,603.25 L207.9531,603.25 Z "/><text fill="#000000" font-family="sans-serif" font-size="12" lengthAdjust="spacingAndGlyphs" textLength="59" x="220" y="604.1074">L1laplace</text><line style="stroke: #A80036; stroke-width: 1.5;" x1="192" x2="281" y1="615.9531" y2="615.9531"/><line style="stroke: #A80036; stroke-width: 1.5;" x1="192" x2="281" y1="623.9531" y2="623.9531"/><ellipse cx="202" cy="635.8555" fill="#84BE84" rx="3" ry="3" style="stroke: #038048; stroke-width: 1.0;"/><text fill="#000000" font-family="sans-serif" font-size="11" lengthAdjust="spacingAndGlyphs" textLength="61" x="211" y="638.1636">L1laplace()</text><!--class L2hessian--><rect fill="#FEFECE" filter="url(#fccnz0z)" height="60.8047" style="stroke: #A80036; stroke-width: 1.5;" width="95" x="323" y="583.9531"/><ellipse cx="338" cy="599.9531" fill="#E6FFE6" rx="11" ry="11" style="stroke: #A80036; stroke-width: 1.0;"/><path d="M339.9531,600.8594 L336.3125,600.8594 L336.3125,603.25 L336.5625,603.25 C337.0156,603.25 337.1875,603.2813 337.3281,603.4063 C337.5625,603.5781 337.6875,603.8281 337.6875,604.1094 C337.6875,604.3906 337.5313,604.6875 337.2813,604.8281 C337.1406,604.9219 336.9219,604.9531 336.5625,604.9531 L334.5156,604.9531 C334.1094,604.9531 333.8906,604.9063 333.7344,604.7969 C333.5313,604.625 333.3906,604.3594 333.3906,604.1094 C333.3906,603.8125 333.5469,603.5313 333.7969,603.375 C333.9531,603.2656 334.0938,603.25 334.5156,603.25 L334.6094,603.25 L334.6094,596.7344 C334.0469,596.6875 333.7344,596.3906 333.7344,595.8906 C333.7344,595.6094 333.8906,595.3125 334.1406,595.1563 C334.2969,595.0625 334.4219,595.0469 334.8594,595.0469 L336.5625,595.0469 C337.0313,595.0469 337.1875,595.0781 337.3281,595.1875 C337.5625,595.3594 337.6875,595.625 337.6875,595.8906 C337.6875,596.1875 337.5313,596.4688 337.2813,596.625 C337.125,596.7031 336.9844,596.7344 336.5625,596.7344 L336.3125,596.7344 L336.3125,599.1563 L339.9531,599.1563 L339.9531,596.7344 L339.7031,596.7344 C339.25,596.7344 339.1094,596.7031 338.9375,596.5938 C338.7188,596.4219 338.5781,596.1719 338.5781,595.8906 C338.5781,595.6094 338.7344,595.3125 338.9844,595.1563 C339.1406,595.0625 339.2656,595.0469 339.7031,595.0469 L341.4219,595.0469 C341.875,595.0469 342.0313,595.0781 342.2031,595.1875 C342.4063,595.3594 342.5313,595.625 342.5313,595.8906 C342.5313,596.3906 342.2188,596.6875 341.6563,596.7344 L341.6563,603.25 L341.75,603.25 C342.2188,603.25 342.3594,603.2813 342.5156,603.4063 C342.7344,603.5781 342.875,603.8281 342.875,604.1094 C342.875,604.3906 342.7188,604.6875 342.4688,604.8281 C342.3281,604.9219 342.1094,604.9531 341.75,604.9531 L339.7031,604.9531 C339.2969,604.9531 339.0938,604.9063 338.9375,604.7969 C338.7188,604.625 338.5781,604.3594 338.5781,604.1094 C338.5781,603.8125 338.7344,603.5313 338.9844,603.375 C339.1406,603.2656 339.2969,603.25 339.7031,603.25 L339.9531,603.25 Z "/><text fill="#000000" font-family="sans-serif" font-size="12" lengthAdjust="spacingAndGlyphs" textLength="63" x="352" y="604.1074">L2hessian</text><line style="stroke: #A80036; stroke-width: 1.5;" x1="324" x2="417" y1="615.9531" y2="615.9531"/><line style="stroke: #A80036; stroke-width: 1.5;" x1="324" x2="417" y1="623.9531" y2="623.9531"/><ellipse cx="334" cy="635.8555" fill="#84BE84" rx="3" ry="3" style="stroke: #038048; stroke-width: 1.0;"/><text fill="#000000" font-family="sans-serif" font-size="11" lengthAdjust="spacingAndGlyphs" textLength="66" x="343" y="638.1636">L2hessian()</text><!--class L2laplace--><rect fill="#FEFECE" filter="url(#fccnz0z)" height="60.8047" style="stroke: #A80036; stroke-width: 1.5;" width="91" x="463" y="583.9531"/><ellipse cx="478" cy="599.9531" fill="#E6FFE6" rx="11" ry="11" style="stroke: #A80036; stroke-width: 1.0;"/><path d="M479.9531,600.8594 L476.3125,600.8594 L476.3125,603.25 L476.5625,603.25 C477.0156,603.25 477.1875,603.2813 477.3281,603.4063 C477.5625,603.5781 477.6875,603.8281 477.6875,604.1094 C477.6875,604.3906 477.5313,604.6875 477.2813,604.8281 C477.1406,604.9219 476.9219,604.9531 476.5625,604.9531 L474.5156,604.9531 C474.1094,604.9531 473.8906,604.9063 473.7344,604.7969 C473.5313,604.625 473.3906,604.3594 473.3906,604.1094 C473.3906,603.8125 473.5469,603.5313 473.7969,603.375 C473.9531,603.2656 474.0938,603.25 474.5156,603.25 L474.6094,603.25 L474.6094,596.7344 C474.0469,596.6875 473.7344,596.3906 473.7344,595.8906 C473.7344,595.6094 473.8906,595.3125 474.1406,595.1563 C474.2969,595.0625 474.4219,595.0469 474.8594,595.0469 L476.5625,595.0469 C477.0313,595.0469 477.1875,595.0781 477.3281,595.1875 C477.5625,595.3594 477.6875,595.625 477.6875,595.8906 C477.6875,596.1875 477.5313,596.4688 477.2813,596.625 C477.125,596.7031 476.9844,596.7344 476.5625,596.7344 L476.3125,596.7344 L476.3125,599.1563 L479.9531,599.1563 L479.9531,596.7344 L479.7031,596.7344 C479.25,596.7344 479.1094,596.7031 478.9375,596.5938 C478.7188,596.4219 478.5781,596.1719 478.5781,595.8906 C478.5781,595.6094 478.7344,595.3125 478.9844,595.1563 C479.1406,595.0625 479.2656,595.0469 479.7031,595.0469 L481.4219,595.0469 C481.875,595.0469 482.0313,595.0781 482.2031,595.1875 C482.4063,595.3594 482.5313,595.625 482.5313,595.8906 C482.5313,596.3906 482.2188,596.6875 481.6563,596.7344 L481.6563,603.25 L481.75,603.25 C482.2188,603.25 482.3594,603.2813 482.5156,603.4063 C482.7344,603.5781 482.875,603.8281 482.875,604.1094 C482.875,604.3906 482.7188,604.6875 482.4688,604.8281 C482.3281,604.9219 482.1094,604.9531 481.75,604.9531 L479.7031,604.9531 C479.2969,604.9531 479.0938,604.9063 478.9375,604.7969 C478.7188,604.625 478.5781,604.3594 478.5781,604.1094 C478.5781,603.8125 478.7344,603.5313 478.9844,603.375 C479.1406,603.2656 479.2969,603.25 479.7031,603.25 L479.9531,603.25 Z "/><text fill="#000000" font-family="sans-serif" font-size="12" lengthAdjust="spacingAndGlyphs" textLength="59" x="492" y="604.1074">L2laplace</text><line style="stroke: #A80036; stroke-width: 1.5;" x1="464" x2="553" y1="615.9531" y2="615.9531"/><line style="stroke: #A80036; stroke-width: 1.5;" x1="464" x2="553" y1="623.9531" y2="623.9531"/><ellipse cx="474" cy="635.8555" fill="#84BE84" rx="3" ry="3" style="stroke: #038048; stroke-width: 1.0;"/><text fill="#000000" font-family="sans-serif" font-size="11" lengthAdjust="spacingAndGlyphs" textLength="61" x="483" y="638.1636">L2laplace()</text><!--class basicProx--><rect fill="#FEFECE" filter="url(#fccnz0z)" height="60.8047" style="stroke: #A80036; stroke-width: 1.5;" width="92" x="96.5" y="328.9531"/><ellipse cx="111.5" cy="344.9531" fill="#E6FFE6" rx="11" ry="11" style="stroke: #A80036; stroke-width: 1.0;"/><path d="M113.0781,346.7656 L109.0313,346.7656 L108.6406,347.75 L109.0313,347.75 C109.4844,347.75 109.625,347.7813 109.7969,347.9063 C110.0156,348.0781 110.1406,348.3281 110.1406,348.6094 C110.1406,348.8906 110,349.1875 109.7344,349.3281 C109.6094,349.4219 109.3906,349.4531 109.0313,349.4531 L106.7656,349.4531 C106.0156,349.4531 105.6406,349.1719 105.6406,348.6094 C105.6406,348.3125 105.7969,348.0313 106.0469,347.875 C106.2031,347.7656 106.3594,347.75 106.7813,347.75 L109.4219,341.2344 L108.3438,341.2344 C107.9063,341.2344 107.7344,341.2031 107.5625,341.0938 C107.3438,340.9219 107.2031,340.6719 107.2031,340.3906 C107.2031,340.1094 107.3594,339.8281 107.6094,339.6563 C107.7656,339.5625 107.8906,339.5469 108.3438,339.5469 L112.0156,339.5469 L115.4063,347.75 C115.875,347.75 116.0313,347.7813 116.2031,347.9219 C116.4219,348.0781 116.5625,348.3281 116.5625,348.6094 C116.5625,348.8906 116.4063,349.1875 116.1563,349.3281 C116.0156,349.4219 115.7969,349.4531 115.4375,349.4531 L113.0781,349.4531 C112.6563,349.4531 112.4531,349.4063 112.3125,349.2813 C112.0938,349.125 111.9531,348.875 111.9531,348.6094 C111.9531,348.3125 112.1094,348.0313 112.3594,347.875 C112.5156,347.7656 112.625,347.75 113.0781,347.75 L113.4688,347.75 Z M112.375,345.0625 L111.0469,341.7969 L109.7031,345.0625 Z "/><text fill="#000000" font-family="sans-serif" font-size="12" lengthAdjust="spacingAndGlyphs" textLength="60" x="125.5" y="349.1074">basicProx</text><line style="stroke: #A80036; stroke-width: 1.5;" x1="97.5" x2="187.5" y1="360.9531" y2="360.9531"/><line style="stroke: #A80036; stroke-width: 1.5;" x1="97.5" x2="187.5" y1="368.9531" y2="368.9531"/><ellipse cx="107.5" cy="380.8555" fill="#84BE84" rx="3" ry="3" style="stroke: #038048; stroke-width: 1.0;"/><text fill="#000000" font-family="sans-serif" font-size="11" lengthAdjust="spacingAndGlyphs" textLength="63" x="116.5" y="383.1636">applyProx()</text><!--class L1AnisoProxDual--><rect fill="#FEFECE" filter="url(#fccnz0z)" height="73.6094" style="stroke: #A80036; stroke-width: 1.5;" width="135" x="6" y="449.9531"/><ellipse cx="21" cy="465.9531" fill="#E6FFE6" rx="11" ry="11" style="stroke: #A80036; stroke-width: 1.0;"/><path d="M22.9531,466.8594 L19.3125,466.8594 L19.3125,469.25 L19.5625,469.25 C20.0156,469.25 20.1875,469.2813 20.3281,469.4063 C20.5625,469.5781 20.6875,469.8281 20.6875,470.1094 C20.6875,470.3906 20.5313,470.6875 20.2813,470.8281 C20.1406,470.9219 19.9219,470.9531 19.5625,470.9531 L17.5156,470.9531 C17.1094,470.9531 16.8906,470.9063 16.7344,470.7969 C16.5313,470.625 16.3906,470.3594 16.3906,470.1094 C16.3906,469.8125 16.5469,469.5313 16.7969,469.375 C16.9531,469.2656 17.0938,469.25 17.5156,469.25 L17.6094,469.25 L17.6094,462.7344 C17.0469,462.6875 16.7344,462.3906 16.7344,461.8906 C16.7344,461.6094 16.8906,461.3125 17.1406,461.1563 C17.2969,461.0625 17.4219,461.0469 17.8594,461.0469 L19.5625,461.0469 C20.0313,461.0469 20.1875,461.0781 20.3281,461.1875 C20.5625,461.3594 20.6875,461.625 20.6875,461.8906 C20.6875,462.1875 20.5313,462.4688 20.2813,462.625 C20.125,462.7031 19.9844,462.7344 19.5625,462.7344 L19.3125,462.7344 L19.3125,465.1563 L22.9531,465.1563 L22.9531,462.7344 L22.7031,462.7344 C22.25,462.7344 22.1094,462.7031 21.9375,462.5938 C21.7188,462.4219 21.5781,462.1719 21.5781,461.8906 C21.5781,461.6094 21.7344,461.3125 21.9844,461.1563 C22.1406,461.0625 22.2656,461.0469 22.7031,461.0469 L24.4219,461.0469 C24.875,461.0469 25.0313,461.0781 25.2031,461.1875 C25.4063,461.3594 25.5313,461.625 25.5313,461.8906 C25.5313,462.3906 25.2188,462.6875 24.6563,462.7344 L24.6563,469.25 L24.75,469.25 C25.2188,469.25 25.3594,469.2813 25.5156,469.4063 C25.7344,469.5781 25.875,469.8281 25.875,470.1094 C25.875,470.3906 25.7188,470.6875 25.4688,470.8281 C25.3281,470.9219 25.1094,470.9531 24.75,470.9531 L22.7031,470.9531 C22.2969,470.9531 22.0938,470.9063 21.9375,470.7969 C21.7188,470.625 21.5781,470.3594 21.5781,470.1094 C21.5781,469.8125 21.7344,469.5313 21.9844,469.375 C22.1406,469.2656 22.2969,469.25 22.7031,469.25 L22.9531,469.25 Z "/><text fill="#000000" font-family="sans-serif" font-size="12" lengthAdjust="spacingAndGlyphs" textLength="103" x="35" y="470.1074">L1AnisoProxDual</text><line style="stroke: #A80036; stroke-width: 1.5;" x1="7" x2="140" y1="481.9531" y2="481.9531"/><line style="stroke: #A80036; stroke-width: 1.5;" x1="7" x2="140" y1="489.9531" y2="489.9531"/><ellipse cx="17" cy="501.8555" fill="#84BE84" rx="3" ry="3" style="stroke: #038048; stroke-width: 1.0;"/><text fill="#000000" font-family="sans-serif" font-size="11" lengthAdjust="spacingAndGlyphs" textLength="102" x="26" y="504.1636">L1AnisoProxDual()</text><ellipse cx="17" cy="514.6602" fill="#84BE84" rx="3" ry="3" style="stroke: #038048; stroke-width: 1.0;"/><text fill="#000000" font-family="sans-serif" font-size="11" lengthAdjust="spacingAndGlyphs" textLength="63" x="26" y="516.9683">applyProx()</text><!--class L2proxDual--><rect fill="#FEFECE" filter="url(#fccnz0z)" height="73.6094" style="stroke: #A80036; stroke-width: 1.5;" width="101" x="326" y="449.9531"/><ellipse cx="341" cy="465.9531" fill="#E6FFE6" rx="11" ry="11" style="stroke: #A80036; stroke-width: 1.0;"/><path d="M342.9531,466.8594 L339.3125,466.8594 L339.3125,469.25 L339.5625,469.25 C340.0156,469.25 340.1875,469.2813 340.3281,469.4063 C340.5625,469.5781 340.6875,469.8281 340.6875,470.1094 C340.6875,470.3906 340.5313,470.6875 340.2813,470.8281 C340.1406,470.9219 339.9219,470.9531 339.5625,470.9531 L337.5156,470.9531 C337.1094,470.9531 336.8906,470.9063 336.7344,470.7969 C336.5313,470.625 336.3906,470.3594 336.3906,470.1094 C336.3906,469.8125 336.5469,469.5313 336.7969,469.375 C336.9531,469.2656 337.0938,469.25 337.5156,469.25 L337.6094,469.25 L337.6094,462.7344 C337.0469,462.6875 336.7344,462.3906 336.7344,461.8906 C336.7344,461.6094 336.8906,461.3125 337.1406,461.1563 C337.2969,461.0625 337.4219,461.0469 337.8594,461.0469 L339.5625,461.0469 C340.0313,461.0469 340.1875,461.0781 340.3281,461.1875 C340.5625,461.3594 340.6875,461.625 340.6875,461.8906 C340.6875,462.1875 340.5313,462.4688 340.2813,462.625 C340.125,462.7031 339.9844,462.7344 339.5625,462.7344 L339.3125,462.7344 L339.3125,465.1563 L342.9531,465.1563 L342.9531,462.7344 L342.7031,462.7344 C342.25,462.7344 342.1094,462.7031 341.9375,462.5938 C341.7188,462.4219 341.5781,462.1719 341.5781,461.8906 C341.5781,461.6094 341.7344,461.3125 341.9844,461.1563 C342.1406,461.0625 342.2656,461.0469 342.7031,461.0469 L344.4219,461.0469 C344.875,461.0469 345.0313,461.0781 345.2031,461.1875 C345.4063,461.3594 345.5313,461.625 345.5313,461.8906 C345.5313,462.3906 345.2188,462.6875 344.6563,462.7344 L344.6563,469.25 L344.75,469.25 C345.2188,469.25 345.3594,469.2813 345.5156,469.4063 C345.7344,469.5781 345.875,469.8281 345.875,470.1094 C345.875,470.3906 345.7188,470.6875 345.4688,470.8281 C345.3281,470.9219 345.1094,470.9531 344.75,470.9531 L342.7031,470.9531 C342.2969,470.9531 342.0938,470.9063 341.9375,470.7969 C341.7188,470.625 341.5781,470.3594 341.5781,470.1094 C341.5781,469.8125 341.7344,469.5313 341.9844,469.375 C342.1406,469.2656 342.2969,469.25 342.7031,469.25 L342.9531,469.25 Z "/><text fill="#000000" font-family="sans-serif" font-size="12" lengthAdjust="spacingAndGlyphs" textLength="69" x="355" y="470.1074">L2proxDual</text><line style="stroke: #A80036; stroke-width: 1.5;" x1="327" x2="426" y1="481.9531" y2="481.9531"/><line style="stroke: #A80036; stroke-width: 1.5;" x1="327" x2="426" y1="489.9531" y2="489.9531"/><ellipse cx="337" cy="501.8555" fill="#84BE84" rx="3" ry="3" style="stroke: #038048; stroke-width: 1.0;"/><text fill="#000000" font-family="sans-serif" font-size="11" lengthAdjust="spacingAndGlyphs" textLength="71" x="346" y="504.1636">L2proxDual()</text><ellipse cx="337" cy="514.6602" fill="#84BE84" rx="3" ry="3" style="stroke: #038048; stroke-width: 1.0;"/><text fill="#000000" font-family="sans-serif" font-size="11" lengthAdjust="spacingAndGlyphs" textLength="63" x="346" y="516.9683">applyProx()</text><!--class basicDualizedDataterm--><rect fill="#FEFECE" filter="url(#fccnz0z)" height="48" style="stroke: #A80036; stroke-width: 1.5;" width="176" x="360.5" y="124.9531"/><ellipse cx="375.5" cy="140.9531" fill="#ADD1B2" rx="11" ry="11" style="stroke: #A80036; stroke-width: 1.0;"/><path d="M377.8438,136.625 L378.0156,136.7031 C378.2344,136.3906 378.4375,136.2969 378.7344,136.2969 C379.0313,136.2969 379.3125,136.4375 379.4688,136.7031 C379.5625,136.8594 379.5781,136.9844 379.5781,137.4219 L379.5781,138.8438 C379.5781,139.2656 379.5469,139.4531 379.4375,139.6094 C379.2656,139.8281 379,139.9688 378.7344,139.9688 C378.5156,139.9688 378.2813,139.8594 378.1406,139.7188 C378,139.5938 377.9688,139.4688 377.9063,139.0625 C377.8125,138.6563 377.6406,138.4375 377.1563,138.1563 C376.6875,137.9063 376.0781,137.75 375.5,137.75 C373.7656,137.75 372.5156,139.0625 372.5156,140.8438 L372.5156,141.9375 C372.5156,143.6406 373.8125,144.7344 375.8594,144.7344 C376.625,144.7344 377.3125,144.6094 377.7344,144.3438 C377.9219,144.25 377.9219,144.25 378.375,143.7656 C378.5625,143.5781 378.7656,143.5 378.9844,143.5 C379.4531,143.5 379.8438,143.8906 379.8438,144.3438 C379.8438,144.7344 379.5156,145.1875 378.9375,145.5938 C378.1875,146.1406 377.0313,146.4375 375.8125,146.4375 C372.9219,146.4375 370.8125,144.5469 370.8125,141.9688 L370.8125,140.8438 C370.8125,138.125 372.8125,136.0469 375.4375,136.0469 C376.3125,136.0469 376.9063,136.1875 377.8438,136.625 Z "/><text fill="#000000" font-family="sans-serif" font-size="12" lengthAdjust="spacingAndGlyphs" textLength="144" x="389.5" y="145.1074">basicDualizedDataterm</text><line style="stroke: #A80036; stroke-width: 1.5;" x1="361.5" x2="535.5" y1="156.9531" y2="156.9531"/><line style="stroke: #A80036; stroke-width: 1.5;" x1="361.5" x2="535.5" y1="164.9531" y2="164.9531"/><path d="M448.5,193.1161 C448.5,233.7201 448.5,293.4261 448.5,328.8791 " fill="none" style="stroke: #A80036; stroke-width: 1.0;"/><polygon fill="none" points="441.5,193.0631,448.5,173.0631,455.5,193.0631,441.5,193.0631" style="stroke: #A80036; stroke-width: 1.0;"/><path d="M380.178,400.3341 C349.057,418.5001 312.86,439.6291 284.212,456.3521 " fill="none" style="stroke: #A80036; stroke-width: 1.0;"/><polygon fill="none" points="377.019,394.0731,397.82,390.0361,384.076,406.1641,377.019,394.0731" style="stroke: #A80036; stroke-width: 1.0;"/><path d="M474.882,407.7531 C483.996,424.0921 493.941,441.9221 502.03,456.4251 " fill="none" style="stroke: #A80036; stroke-width: 1.0;"/><polygon fill="none" points="468.718,411.0711,465.089,390.1951,480.945,404.2521,468.718,411.0711" style="stroke: #A80036; stroke-width: 1.0;"/><path d="M186.147,531.3311 C167.192,548.6947 145.843,568.2523 128.734,583.9248 " fill="none" style="stroke: #A80036; stroke-width: 1.0;"/><polygon fill="none" points="181.557,526.0431,201.033,517.6951,191.014,536.3661,181.557,526.0431" style="stroke: #A80036; stroke-width: 1.0;"/><path d="M83.8089,544.2041 C86.2965,557.7774 88.8592,571.7608 91.0247,583.5771 " fill="none" style="stroke: #A80036; stroke-width: 1.0;"/><polygon fill="none" points="76.8726,545.1871,80.1526,524.2531,90.6433,542.6631,76.8726,545.1871" style="stroke: #A80036; stroke-width: 1.0;"/><path d="M443.295,524.2391 C402.503,542.4101 329.97,573.4894 282.066,593.9798 " fill="none" style="stroke: #A80036; stroke-width: 1.0;"/><polygon fill="none" points="440.554,517.7961,461.662,515.9341,446.323,530.5531,440.554,517.7961" style="stroke: #A80036; stroke-width: 1.0;"/><path d="M136.746,536.6491 C157.397,552.5487 179.696,569.7177 197.963,583.7822 " fill="none" style="stroke: #A80036; stroke-width: 1.0;"/><polygon fill="none" points="132.223,542.0011,120.646,524.2531,140.764,530.9081,132.223,542.0011" style="stroke: #A80036; stroke-width: 1.0;"/><path d="M280.853,531.3311 C299.808,548.6947 321.157,568.2523 338.266,583.9248 " fill="none" style="stroke: #A80036; stroke-width: 1.0;"/><polygon fill="none" points="275.986,536.3661,265.967,517.6951,285.443,526.0431,275.986,536.3661" style="stroke: #A80036; stroke-width: 1.0;"/><path d="M373.788,544.6831 C373.146,558.1062 372.487,571.8998 371.928,583.5771 " fill="none" style="stroke: #A80036; stroke-width: 1.0;"/><polygon fill="none" points="366.817,543.8961,374.765,524.2531,380.801,544.5641,366.817,543.8961" style="stroke: #A80036; stroke-width: 1.0;"/><path d="M514.541,537.6341 C513.292,553.3098 511.953,570.1237 510.853,583.9248 " fill="none" style="stroke: #A80036; stroke-width: 1.0;"/><polygon fill="none" points="507.564,537.0761,516.13,517.6951,521.519,538.1881,507.564,537.0761" style="stroke: #A80036; stroke-width: 1.0;"/><path d="M429.651,538.4871 C445.743,553.786 462.894,570.0927 477.077,583.5771 " fill="none" style="stroke: #A80036; stroke-width: 1.0;"/><polygon fill="none" points="424.351,543.1071,414.68,524.2531,433.998,532.9611,424.351,543.1071" style="stroke: #A80036; stroke-width: 1.0;"/><path d="M116.306,408.0961 C108.719,421.8941 100.5638,436.7281 93.4273,449.7081 " fill="none" style="stroke: #A80036; stroke-width: 1.0;"/><polygon fill="none" points="110.378,404.3481,126.148,390.1951,122.646,411.0931,110.378,404.3481" style="stroke: #A80036; stroke-width: 1.0;"/><path d="M206.609,394.8361 C244.173,414.9831 290.949,440.0701 325.903,458.8171 " fill="none" style="stroke: #A80036; stroke-width: 1.0;"/><polygon fill="none" points="203.048,400.8691,188.731,385.2481,209.664,388.5321,203.048,400.8691" style="stroke: #A80036; stroke-width: 1.0;"/></g></svg>