<?xml version="1.0" encoding="UTF-8" standalone="no"?><svg xmlns="http://www.w3.org/2000/svg" xmlns:xlink="http://www.w3.org/1999/xlink" contentScriptType="application/ecmascript" contentStyleType="text/css" height="697px" preserveAspectRatio="none" style="width:1352px;height:697px;" version="1.1" viewBox="0 0 1352 697" width="1352px" zoomAndPan="magnify"><defs><filter height="300%" id="f6u1xkq" width="300%" x="-1" y="-1"><feGaussianBlur result="blurOut" stdDeviation="2.0"/><feColorMatrix in="blurOut" result="blurOut2" type="matrix" values="0 0 0 0 0 0 0 0 0 0 0 0 0 0 0 0 0 0 .4 0"/><feOffset dx="4.0" dy="4.0" in="blurOut2" result="blurOut3"/><feBlend in="SourceGraphic" in2="blurOut3" mode="normal"/></filter></defs><g><text fill="#000000" font-family="sans-serif" font-size="18" font-weight="bold" lengthAdjust="spacingAndGlyphs" textLength="264" x="548.5" y="16.708">Regularizer Terms (Other)</text><!--class dualPart--><rect fill="#FEFECE" filter="url(#f6u1xkq)" height="150.4375" style="stroke: #A80036; stroke-width: 1.5;" width="89" x="799" y="136.9531"/><ellipse cx="815.8" cy="152.9531" fill="#E6FFE6" rx="11" ry="11" style="stroke: #A80036; stroke-width: 1.0;"/><path d="M817.3781,154.7656 L813.3313,154.7656 L812.9406,155.75 L813.3313,155.75 C813.7844,155.75 813.925,155.7813 814.0969,155.9063 C814.3156,156.0781 814.4406,156.3281 814.4406,156.6094 C814.4406,156.8906 814.3,157.1875 814.0344,157.3281 C813.9094,157.4219 813.6906,157.4531 813.3313,157.4531 L811.0656,157.4531 C810.3156,157.4531 809.9406,157.1719 809.9406,156.6094 C809.9406,156.3125 810.0969,156.0313 810.3469,155.875 C810.5031,155.7656 810.6594,155.75 811.0813,155.75 L813.7219,149.2344 L812.6438,149.2344 C812.2063,149.2344 812.0344,149.2031 811.8625,149.0938 C811.6438,148.9219 811.5031,148.6719 811.5031,148.3906 C811.5031,148.1094 811.6594,147.8281 811.9094,147.6563 C812.0656,147.5625 812.1906,147.5469 812.6438,147.5469 L816.3156,147.5469 L819.7063,155.75 C820.175,155.75 820.3313,155.7813 820.5031,155.9219 C820.7219,156.0781 820.8625,156.3281 820.8625,156.6094 C820.8625,156.8906 820.7063,157.1875 820.4563,157.3281 C820.3156,157.4219 820.0969,157.4531 819.7375,157.4531 L817.3781,157.4531 C816.9563,157.4531 816.7531,157.4063 816.6125,157.2813 C816.3938,157.125 816.2531,156.875 816.2531,156.6094 C816.2531,156.3125 816.4094,156.0313 816.6594,155.875 C816.8156,155.7656 816.925,155.75 817.3781,155.75 L817.7688,155.75 Z M816.675,153.0625 L815.3469,149.7969 L814.0031,153.0625 Z "/><text fill="#000000" font-family="sans-serif" font-size="12" lengthAdjust="spacingAndGlyphs" textLength="53" x="830.2" y="157.1074">dualPart</text><line style="stroke: #A80036; stroke-width: 1.5;" x1="800" x2="887" y1="168.9531" y2="168.9531"/><ellipse cx="810" cy="180.8555" fill="none" rx="3" ry="3" style="stroke: #038048; stroke-width: 1.0;"/><text fill="#000000" font-family="sans-serif" font-size="11" lengthAdjust="spacingAndGlyphs" textLength="35" x="819" y="183.1636">length</text><ellipse cx="810" cy="193.6602" fill="none" rx="3" ry="3" style="stroke: #038048; stroke-width: 1.0;"/><text fill="#000000" font-family="sans-serif" font-size="11" lengthAdjust="spacingAndGlyphs" textLength="53" x="819" y="195.9683">mySigma</text><ellipse cx="810" cy="206.4648" fill="none" rx="3" ry="3" style="stroke: #038048; stroke-width: 1.0;"/><text fill="#000000" font-family="sans-serif" font-size="11" lengthAdjust="spacingAndGlyphs" textLength="38" x="819" y="208.7729">myTau</text><ellipse cx="810" cy="219.2695" fill="none" rx="3" ry="3" style="stroke: #038048; stroke-width: 1.0;"/><text fill="#000000" font-family="sans-serif" font-size="11" lengthAdjust="spacingAndGlyphs" textLength="51" x="819" y="221.5776">numVars</text><ellipse cx="810" cy="232.0742" fill="none" rx="3" ry="3" style="stroke: #038048; stroke-width: 1.0;"/><text fill="#000000" font-family="sans-serif" font-size="11" lengthAdjust="spacingAndGlyphs" textLength="49" x="819" y="234.3823">operator</text><ellipse cx="810" cy="244.8789" fill="none" rx="3" ry="3" style="stroke: #038048; stroke-width: 1.0;"/><text fill="#000000" font-family="sans-serif" font-size="11" lengthAdjust="spacingAndGlyphs" textLength="56" x="819" y="247.187">operatorT</text><line style="stroke: #A80036; stroke-width: 1.5;" x1="800" x2="887" y1="253.7813" y2="253.7813"/><ellipse cx="810" cy="265.6836" fill="#84BE84" rx="3" ry="3" style="stroke: #038048; stroke-width: 1.0;"/><text fill="#000000" font-family="sans-serif" font-size="11" lengthAdjust="spacingAndGlyphs" textLength="55" x="819" y="267.9917">dualPart()</text><ellipse cx="810" cy="278.4883" fill="#84BE84" rx="3" ry="3" style="stroke: #038048; stroke-width: 1.0;"/><text fill="#000000" font-family="sans-serif" font-size="11" lengthAdjust="spacingAndGlyphs" textLength="63" x="819" y="280.7964">applyProx()</text><!--class basicDualizedOperator--><rect fill="#FEFECE" filter="url(#f6u1xkq)" height="60.8047" style="stroke: #A80036; stroke-width: 1.5;" width="173" x="667" y="346.9531"/><ellipse cx="682" cy="362.9531" fill="#E6FFE6" rx="11" ry="11" style="stroke: #A80036; stroke-width: 1.0;"/><path d="M683.5781,364.7656 L679.5313,364.7656 L679.1406,365.75 L679.5313,365.75 C679.9844,365.75 680.125,365.7813 680.2969,365.9063 C680.5156,366.0781 680.6406,366.3281 680.6406,366.6094 C680.6406,366.8906 680.5,367.1875 680.2344,367.3281 C680.1094,367.4219 679.8906,367.4531 679.5313,367.4531 L677.2656,367.4531 C676.5156,367.4531 676.1406,367.1719 676.1406,366.6094 C676.1406,366.3125 676.2969,366.0313 676.5469,365.875 C676.7031,365.7656 676.8594,365.75 677.2813,365.75 L679.9219,359.2344 L678.8438,359.2344 C678.4063,359.2344 678.2344,359.2031 678.0625,359.0938 C677.8438,358.9219 677.7031,358.6719 677.7031,358.3906 C677.7031,358.1094 677.8594,357.8281 678.1094,357.6563 C678.2656,357.5625 678.3906,357.5469 678.8438,357.5469 L682.5156,357.5469 L685.9063,365.75 C686.375,365.75 686.5313,365.7813 686.7031,365.9219 C686.9219,366.0781 687.0625,366.3281 687.0625,366.6094 C687.0625,366.8906 686.9063,367.1875 686.6563,367.3281 C686.5156,367.4219 686.2969,367.4531 685.9375,367.4531 L683.5781,367.4531 C683.1563,367.4531 682.9531,367.4063 682.8125,367.2813 C682.5938,367.125 682.4531,366.875 682.4531,366.6094 C682.4531,366.3125 682.6094,366.0313 682.8594,365.875 C683.0156,365.7656 683.125,365.75 683.5781,365.75 L683.9688,365.75 Z M682.875,363.0625 L681.5469,359.7969 L680.2031,363.0625 Z "/><text fill="#000000" font-family="sans-serif" font-size="12" lengthAdjust="spacingAndGlyphs" textLength="141" x="696" y="367.1074">basicDualizedOperator</text><line style="stroke: #A80036; stroke-width: 1.5;" x1="668" x2="839" y1="378.9531" y2="378.9531"/><line style="stroke: #A80036; stroke-width: 1.5;" x1="668" x2="839" y1="386.9531" y2="386.9531"/><ellipse cx="678" cy="398.8555" fill="#84BE84" rx="3" ry="3" style="stroke: #038048; stroke-width: 1.0;"/><text fill="#000000" font-family="sans-serif" font-size="11" lengthAdjust="spacingAndGlyphs" textLength="136" x="687" y="401.1636">basicDualizedOperator()</text><!--class basicIdentity--><rect fill="#FEFECE" filter="url(#f6u1xkq)" height="60.8047" style="stroke: #A80036; stroke-width: 1.5;" width="111" x="142" y="474.4531"/><ellipse cx="157" cy="490.4531" fill="#E6FFE6" rx="11" ry="11" style="stroke: #A80036; stroke-width: 1.0;"/><path d="M158.5781,492.2656 L154.5313,492.2656 L154.1406,493.25 L154.5313,493.25 C154.9844,493.25 155.125,493.2813 155.2969,493.4063 C155.5156,493.5781 155.6406,493.8281 155.6406,494.1094 C155.6406,494.3906 155.5,494.6875 155.2344,494.8281 C155.1094,494.9219 154.8906,494.9531 154.5313,494.9531 L152.2656,494.9531 C151.5156,494.9531 151.1406,494.6719 151.1406,494.1094 C151.1406,493.8125 151.2969,493.5313 151.5469,493.375 C151.7031,493.2656 151.8594,493.25 152.2813,493.25 L154.9219,486.7344 L153.8438,486.7344 C153.4063,486.7344 153.2344,486.7031 153.0625,486.5938 C152.8438,486.4219 152.7031,486.1719 152.7031,485.8906 C152.7031,485.6094 152.8594,485.3281 153.1094,485.1563 C153.2656,485.0625 153.3906,485.0469 153.8438,485.0469 L157.5156,485.0469 L160.9063,493.25 C161.375,493.25 161.5313,493.2813 161.7031,493.4219 C161.9219,493.5781 162.0625,493.8281 162.0625,494.1094 C162.0625,494.3906 161.9063,494.6875 161.6563,494.8281 C161.5156,494.9219 161.2969,494.9531 160.9375,494.9531 L158.5781,494.9531 C158.1563,494.9531 157.9531,494.9063 157.8125,494.7813 C157.5938,494.625 157.4531,494.375 157.4531,494.1094 C157.4531,493.8125 157.6094,493.5313 157.8594,493.375 C158.0156,493.2656 158.125,493.25 158.5781,493.25 L158.9688,493.25 Z M157.875,490.5625 L156.5469,487.2969 L155.2031,490.5625 Z "/><text fill="#000000" font-family="sans-serif" font-size="12" lengthAdjust="spacingAndGlyphs" textLength="79" x="171" y="494.6074">basicIdentity</text><line style="stroke: #A80036; stroke-width: 1.5;" x1="143" x2="252" y1="506.4531" y2="506.4531"/><line style="stroke: #A80036; stroke-width: 1.5;" x1="143" x2="252" y1="514.4531" y2="514.4531"/><ellipse cx="153" cy="526.3555" fill="#84BE84" rx="3" ry="3" style="stroke: #038048; stroke-width: 1.0;"/><text fill="#000000" font-family="sans-serif" font-size="11" lengthAdjust="spacingAndGlyphs" textLength="79" x="162" y="528.6636">basicIdentity()</text><!--class basicGradient--><rect fill="#FEFECE" filter="url(#f6u1xkq)" height="60.8047" style="stroke: #A80036; stroke-width: 1.5;" width="119" x="880" y="474.4531"/><ellipse cx="895" cy="490.4531" fill="#E6FFE6" rx="11" ry="11" style="stroke: #A80036; stroke-width: 1.0;"/><path d="M896.5781,492.2656 L892.5313,492.2656 L892.1406,493.25 L892.5313,493.25 C892.9844,493.25 893.125,493.2813 893.2969,493.4063 C893.5156,493.5781 893.6406,493.8281 893.6406,494.1094 C893.6406,494.3906 893.5,494.6875 893.2344,494.8281 C893.1094,494.9219 892.8906,494.9531 892.5313,494.9531 L890.2656,494.9531 C889.5156,494.9531 889.1406,494.6719 889.1406,494.1094 C889.1406,493.8125 889.2969,493.5313 889.5469,493.375 C889.7031,493.2656 889.8594,493.25 890.2813,493.25 L892.9219,486.7344 L891.8438,486.7344 C891.4063,486.7344 891.2344,486.7031 891.0625,486.5938 C890.8438,486.4219 890.7031,486.1719 890.7031,485.8906 C890.7031,485.6094 890.8594,485.3281 891.1094,485.1563 C891.2656,485.0625 891.3906,485.0469 891.8438,485.0469 L895.5156,485.0469 L898.9063,493.25 C899.375,493.25 899.5313,493.2813 899.7031,493.4219 C899.9219,493.5781 900.0625,493.8281 900.0625,494.1094 C900.0625,494.3906 899.9063,494.6875 899.6563,494.8281 C899.5156,494.9219 899.2969,494.9531 898.9375,494.9531 L896.5781,494.9531 C896.1563,494.9531 895.9531,494.9063 895.8125,494.7813 C895.5938,494.625 895.4531,494.375 895.4531,494.1094 C895.4531,493.8125 895.6094,493.5313 895.8594,493.375 C896.0156,493.2656 896.125,493.25 896.5781,493.25 L896.9688,493.25 Z M895.875,490.5625 L894.5469,487.2969 L893.2031,490.5625 Z "/><text fill="#000000" font-family="sans-serif" font-size="12" lengthAdjust="spacingAndGlyphs" textLength="87" x="909" y="494.6074">basicGradient</text><line style="stroke: #A80036; stroke-width: 1.5;" x1="881" x2="998" y1="506.4531" y2="506.4531"/><line style="stroke: #A80036; stroke-width: 1.5;" x1="881" x2="998" y1="514.4531" y2="514.4531"/><ellipse cx="891" cy="526.3555" fill="#84BE84" rx="3" ry="3" style="stroke: #038048; stroke-width: 1.0;"/><text fill="#000000" font-family="sans-serif" font-size="11" lengthAdjust="spacingAndGlyphs" textLength="87" x="900" y="528.6636">basicGradient()</text><!--class basicGradientDifference--><rect fill="#FEFECE" filter="url(#f6u1xkq)" height="60.8047" style="stroke: #A80036; stroke-width: 1.5;" width="183" x="662" y="474.4531"/><ellipse cx="677" cy="490.4531" fill="#E6FFE6" rx="11" ry="11" style="stroke: #A80036; stroke-width: 1.0;"/><path d="M678.5781,492.2656 L674.5313,492.2656 L674.1406,493.25 L674.5313,493.25 C674.9844,493.25 675.125,493.2813 675.2969,493.4063 C675.5156,493.5781 675.6406,493.8281 675.6406,494.1094 C675.6406,494.3906 675.5,494.6875 675.2344,494.8281 C675.1094,494.9219 674.8906,494.9531 674.5313,494.9531 L672.2656,494.9531 C671.5156,494.9531 671.1406,494.6719 671.1406,494.1094 C671.1406,493.8125 671.2969,493.5313 671.5469,493.375 C671.7031,493.2656 671.8594,493.25 672.2813,493.25 L674.9219,486.7344 L673.8438,486.7344 C673.4063,486.7344 673.2344,486.7031 673.0625,486.5938 C672.8438,486.4219 672.7031,486.1719 672.7031,485.8906 C672.7031,485.6094 672.8594,485.3281 673.1094,485.1563 C673.2656,485.0625 673.3906,485.0469 673.8438,485.0469 L677.5156,485.0469 L680.9063,493.25 C681.375,493.25 681.5313,493.2813 681.7031,493.4219 C681.9219,493.5781 682.0625,493.8281 682.0625,494.1094 C682.0625,494.3906 681.9063,494.6875 681.6563,494.8281 C681.5156,494.9219 681.2969,494.9531 680.9375,494.9531 L678.5781,494.9531 C678.1563,494.9531 677.9531,494.9063 677.8125,494.7813 C677.5938,494.625 677.4531,494.375 677.4531,494.1094 C677.4531,493.8125 677.6094,493.5313 677.8594,493.375 C678.0156,493.2656 678.125,493.25 678.5781,493.25 L678.9688,493.25 Z M677.875,490.5625 L676.5469,487.2969 L675.2031,490.5625 Z "/><text fill="#000000" font-family="sans-serif" font-size="12" lengthAdjust="spacingAndGlyphs" textLength="151" x="691" y="494.6074">basicGradientDifference</text><line style="stroke: #A80036; stroke-width: 1.5;" x1="663" x2="844" y1="506.4531" y2="506.4531"/><line style="stroke: #A80036; stroke-width: 1.5;" x1="663" x2="844" y1="514.4531" y2="514.4531"/><ellipse cx="673" cy="526.3555" fill="#84BE84" rx="3" ry="3" style="stroke: #038048; stroke-width: 1.0;"/><text fill="#000000" font-family="sans-serif" font-size="11" lengthAdjust="spacingAndGlyphs" textLength="145" x="682" y="528.6636">basicGradientDifference()</text><!--class innerProductGradient--><rect fill="#FEFECE" filter="url(#f6u1xkq)" height="73.6094" style="stroke: #A80036; stroke-width: 1.5;" width="167" x="628" y="607.9531"/><ellipse cx="643" cy="623.9531" fill="#E6FFE6" rx="11" ry="11" style="stroke: #A80036; stroke-width: 1.0;"/><path d="M644.9531,624.8594 L641.3125,624.8594 L641.3125,627.25 L641.5625,627.25 C642.0156,627.25 642.1875,627.2813 642.3281,627.4063 C642.5625,627.5781 642.6875,627.8281 642.6875,628.1094 C642.6875,628.3906 642.5313,628.6875 642.2813,628.8281 C642.1406,628.9219 641.9219,628.9531 641.5625,628.9531 L639.5156,628.9531 C639.1094,628.9531 638.8906,628.9063 638.7344,628.7969 C638.5313,628.625 638.3906,628.3594 638.3906,628.1094 C638.3906,627.8125 638.5469,627.5313 638.7969,627.375 C638.9531,627.2656 639.0938,627.25 639.5156,627.25 L639.6094,627.25 L639.6094,620.7344 C639.0469,620.6875 638.7344,620.3906 638.7344,619.8906 C638.7344,619.6094 638.8906,619.3125 639.1406,619.1563 C639.2969,619.0625 639.4219,619.0469 639.8594,619.0469 L641.5625,619.0469 C642.0313,619.0469 642.1875,619.0781 642.3281,619.1875 C642.5625,619.3594 642.6875,619.625 642.6875,619.8906 C642.6875,620.1875 642.5313,620.4688 642.2813,620.625 C642.125,620.7031 641.9844,620.7344 641.5625,620.7344 L641.3125,620.7344 L641.3125,623.1563 L644.9531,623.1563 L644.9531,620.7344 L644.7031,620.7344 C644.25,620.7344 644.1094,620.7031 643.9375,620.5938 C643.7188,620.4219 643.5781,620.1719 643.5781,619.8906 C643.5781,619.6094 643.7344,619.3125 643.9844,619.1563 C644.1406,619.0625 644.2656,619.0469 644.7031,619.0469 L646.4219,619.0469 C646.875,619.0469 647.0313,619.0781 647.2031,619.1875 C647.4063,619.3594 647.5313,619.625 647.5313,619.8906 C647.5313,620.3906 647.2188,620.6875 646.6563,620.7344 L646.6563,627.25 L646.75,627.25 C647.2188,627.25 647.3594,627.2813 647.5156,627.4063 C647.7344,627.5781 647.875,627.8281 647.875,628.1094 C647.875,628.3906 647.7188,628.6875 647.4688,628.8281 C647.3281,628.9219 647.1094,628.9531 646.75,628.9531 L644.7031,628.9531 C644.2969,628.9531 644.0938,628.9063 643.9375,628.7969 C643.7188,628.625 643.5781,628.3594 643.5781,628.1094 C643.5781,627.8125 643.7344,627.5313 643.9844,627.375 C644.1406,627.2656 644.2969,627.25 644.7031,627.25 L644.9531,627.25 Z "/><text fill="#000000" font-family="sans-serif" font-size="12" lengthAdjust="spacingAndGlyphs" textLength="135" x="657" y="628.1074">innerProductGradient</text><line style="stroke: #A80036; stroke-width: 1.5;" x1="629" x2="794" y1="639.9531" y2="639.9531"/><ellipse cx="639" cy="651.8555" fill="none" rx="3" ry="3" style="stroke: #038048; stroke-width: 1.0;"/><text fill="#000000" font-family="sans-serif" font-size="11" lengthAdjust="spacingAndGlyphs" textLength="7" x="648" y="654.1636">b</text><line style="stroke: #A80036; stroke-width: 1.5;" x1="629" x2="794" y1="660.7578" y2="660.7578"/><ellipse cx="639" cy="672.6602" fill="#84BE84" rx="3" ry="3" style="stroke: #038048; stroke-width: 1.0;"/><text fill="#000000" font-family="sans-serif" font-size="11" lengthAdjust="spacingAndGlyphs" textLength="129" x="648" y="674.9683">innerProductGradient()</text><!--class innerProductGradientDiff--><rect fill="#FEFECE" filter="url(#f6u1xkq)" height="73.6094" style="stroke: #A80036; stroke-width: 1.5;" width="187" x="406" y="607.9531"/><ellipse cx="421" cy="623.9531" fill="#E6FFE6" rx="11" ry="11" style="stroke: #A80036; stroke-width: 1.0;"/><path d="M422.9531,624.8594 L419.3125,624.8594 L419.3125,627.25 L419.5625,627.25 C420.0156,627.25 420.1875,627.2813 420.3281,627.4063 C420.5625,627.5781 420.6875,627.8281 420.6875,628.1094 C420.6875,628.3906 420.5313,628.6875 420.2813,628.8281 C420.1406,628.9219 419.9219,628.9531 419.5625,628.9531 L417.5156,628.9531 C417.1094,628.9531 416.8906,628.9063 416.7344,628.7969 C416.5313,628.625 416.3906,628.3594 416.3906,628.1094 C416.3906,627.8125 416.5469,627.5313 416.7969,627.375 C416.9531,627.2656 417.0938,627.25 417.5156,627.25 L417.6094,627.25 L417.6094,620.7344 C417.0469,620.6875 416.7344,620.3906 416.7344,619.8906 C416.7344,619.6094 416.8906,619.3125 417.1406,619.1563 C417.2969,619.0625 417.4219,619.0469 417.8594,619.0469 L419.5625,619.0469 C420.0313,619.0469 420.1875,619.0781 420.3281,619.1875 C420.5625,619.3594 420.6875,619.625 420.6875,619.8906 C420.6875,620.1875 420.5313,620.4688 420.2813,620.625 C420.125,620.7031 419.9844,620.7344 419.5625,620.7344 L419.3125,620.7344 L419.3125,623.1563 L422.9531,623.1563 L422.9531,620.7344 L422.7031,620.7344 C422.25,620.7344 422.1094,620.7031 421.9375,620.5938 C421.7188,620.4219 421.5781,620.1719 421.5781,619.8906 C421.5781,619.6094 421.7344,619.3125 421.9844,619.1563 C422.1406,619.0625 422.2656,619.0469 422.7031,619.0469 L424.4219,619.0469 C424.875,619.0469 425.0313,619.0781 425.2031,619.1875 C425.4063,619.3594 425.5313,619.625 425.5313,619.8906 C425.5313,620.3906 425.2188,620.6875 424.6563,620.7344 L424.6563,627.25 L424.75,627.25 C425.2188,627.25 425.3594,627.2813 425.5156,627.4063 C425.7344,627.5781 425.875,627.8281 425.875,628.1094 C425.875,628.3906 425.7188,628.6875 425.4688,628.8281 C425.3281,628.9219 425.1094,628.9531 424.75,628.9531 L422.7031,628.9531 C422.2969,628.9531 422.0938,628.9063 421.9375,628.7969 C421.7188,628.625 421.5781,628.3594 421.5781,628.1094 C421.5781,627.8125 421.7344,627.5313 421.9844,627.375 C422.1406,627.2656 422.2969,627.25 422.7031,627.25 L422.9531,627.25 Z "/><text fill="#000000" font-family="sans-serif" font-size="12" lengthAdjust="spacingAndGlyphs" textLength="155" x="435" y="628.1074">innerProductGradientDiff</text><line style="stroke: #A80036; stroke-width: 1.5;" x1="407" x2="592" y1="639.9531" y2="639.9531"/><ellipse cx="417" cy="651.8555" fill="none" rx="3" ry="3" style="stroke: #038048; stroke-width: 1.0;"/><text fill="#000000" font-family="sans-serif" font-size="11" lengthAdjust="spacingAndGlyphs" textLength="7" x="426" y="654.1636">b</text><line style="stroke: #A80036; stroke-width: 1.5;" x1="407" x2="592" y1="660.7578" y2="660.7578"/><ellipse cx="417" cy="672.6602" fill="#84BE84" rx="3" ry="3" style="stroke: #038048; stroke-width: 1.0;"/><text fill="#000000" font-family="sans-serif" font-size="11" lengthAdjust="spacingAndGlyphs" textLength="148" x="426" y="674.9683">innerProductGradientDiff()</text><!--class L1plusInnerProductGradient--><rect fill="#FEFECE" filter="url(#f6u1xkq)" height="86.4141" style="stroke: #A80036; stroke-width: 1.5;" width="207" x="1136" y="601.9531"/><ellipse cx="1151" cy="617.9531" fill="#E6FFE6" rx="11" ry="11" style="stroke: #A80036; stroke-width: 1.0;"/><path d="M1152.9531,618.8594 L1149.3125,618.8594 L1149.3125,621.25 L1149.5625,621.25 C1150.0156,621.25 1150.1875,621.2813 1150.3281,621.4063 C1150.5625,621.5781 1150.6875,621.8281 1150.6875,622.1094 C1150.6875,622.3906 1150.5313,622.6875 1150.2813,622.8281 C1150.1406,622.9219 1149.9219,622.9531 1149.5625,622.9531 L1147.5156,622.9531 C1147.1094,622.9531 1146.8906,622.9063 1146.7344,622.7969 C1146.5313,622.625 1146.3906,622.3594 1146.3906,622.1094 C1146.3906,621.8125 1146.5469,621.5313 1146.7969,621.375 C1146.9531,621.2656 1147.0938,621.25 1147.5156,621.25 L1147.6094,621.25 L1147.6094,614.7344 C1147.0469,614.6875 1146.7344,614.3906 1146.7344,613.8906 C1146.7344,613.6094 1146.8906,613.3125 1147.1406,613.1563 C1147.2969,613.0625 1147.4219,613.0469 1147.8594,613.0469 L1149.5625,613.0469 C1150.0313,613.0469 1150.1875,613.0781 1150.3281,613.1875 C1150.5625,613.3594 1150.6875,613.625 1150.6875,613.8906 C1150.6875,614.1875 1150.5313,614.4688 1150.2813,614.625 C1150.125,614.7031 1149.9844,614.7344 1149.5625,614.7344 L1149.3125,614.7344 L1149.3125,617.1563 L1152.9531,617.1563 L1152.9531,614.7344 L1152.7031,614.7344 C1152.25,614.7344 1152.1094,614.7031 1151.9375,614.5938 C1151.7188,614.4219 1151.5781,614.1719 1151.5781,613.8906 C1151.5781,613.6094 1151.7344,613.3125 1151.9844,613.1563 C1152.1406,613.0625 1152.2656,613.0469 1152.7031,613.0469 L1154.4219,613.0469 C1154.875,613.0469 1155.0313,613.0781 1155.2031,613.1875 C1155.4063,613.3594 1155.5313,613.625 1155.5313,613.8906 C1155.5313,614.3906 1155.2188,614.6875 1154.6563,614.7344 L1154.6563,621.25 L1154.75,621.25 C1155.2188,621.25 1155.3594,621.2813 1155.5156,621.4063 C1155.7344,621.5781 1155.875,621.8281 1155.875,622.1094 C1155.875,622.3906 1155.7188,622.6875 1155.4688,622.8281 C1155.3281,622.9219 1155.1094,622.9531 1154.75,622.9531 L1152.7031,622.9531 C1152.2969,622.9531 1152.0938,622.9063 1151.9375,622.7969 C1151.7188,622.625 1151.5781,622.3594 1151.5781,622.1094 C1151.5781,621.8125 1151.7344,621.5313 1151.9844,621.375 C1152.1406,621.2656 1152.2969,621.25 1152.7031,621.25 L1152.9531,621.25 Z "/><text fill="#000000" font-family="sans-serif" font-size="12" lengthAdjust="spacingAndGlyphs" textLength="175" x="1165" y="622.1074">L1plusInnerProductGradient</text><line style="stroke: #A80036; stroke-width: 1.5;" x1="1137" x2="1342" y1="633.9531" y2="633.9531"/><ellipse cx="1147" cy="645.8555" fill="none" rx="3" ry="3" style="stroke: #038048; stroke-width: 1.0;"/><text fill="#000000" font-family="sans-serif" font-size="11" lengthAdjust="spacingAndGlyphs" textLength="7" x="1156" y="648.1636">b</text><ellipse cx="1147" cy="658.6602" fill="none" rx="3" ry="3" style="stroke: #038048; stroke-width: 1.0;"/><text fill="#000000" font-family="sans-serif" font-size="11" lengthAdjust="spacingAndGlyphs" textLength="5" x="1156" y="660.9683">r</text><line style="stroke: #A80036; stroke-width: 1.5;" x1="1137" x2="1342" y1="667.5625" y2="667.5625"/><ellipse cx="1147" cy="679.4648" fill="#84BE84" rx="3" ry="3" style="stroke: #038048; stroke-width: 1.0;"/><text fill="#000000" font-family="sans-serif" font-size="11" lengthAdjust="spacingAndGlyphs" textLength="166" x="1156" y="681.7729">L1plusInnerProductGradient()</text><!--class L1plusInnerProductGradientDifference--><rect fill="#FEFECE" filter="url(#f6u1xkq)" height="86.4141" style="stroke: #A80036; stroke-width: 1.5;" width="271" x="830" y="601.9531"/><ellipse cx="845" cy="617.9531" fill="#E6FFE6" rx="11" ry="11" style="stroke: #A80036; stroke-width: 1.0;"/><path d="M846.9531,618.8594 L843.3125,618.8594 L843.3125,621.25 L843.5625,621.25 C844.0156,621.25 844.1875,621.2813 844.3281,621.4063 C844.5625,621.5781 844.6875,621.8281 844.6875,622.1094 C844.6875,622.3906 844.5313,622.6875 844.2813,622.8281 C844.1406,622.9219 843.9219,622.9531 843.5625,622.9531 L841.5156,622.9531 C841.1094,622.9531 840.8906,622.9063 840.7344,622.7969 C840.5313,622.625 840.3906,622.3594 840.3906,622.1094 C840.3906,621.8125 840.5469,621.5313 840.7969,621.375 C840.9531,621.2656 841.0938,621.25 841.5156,621.25 L841.6094,621.25 L841.6094,614.7344 C841.0469,614.6875 840.7344,614.3906 840.7344,613.8906 C840.7344,613.6094 840.8906,613.3125 841.1406,613.1563 C841.2969,613.0625 841.4219,613.0469 841.8594,613.0469 L843.5625,613.0469 C844.0313,613.0469 844.1875,613.0781 844.3281,613.1875 C844.5625,613.3594 844.6875,613.625 844.6875,613.8906 C844.6875,614.1875 844.5313,614.4688 844.2813,614.625 C844.125,614.7031 843.9844,614.7344 843.5625,614.7344 L843.3125,614.7344 L843.3125,617.1563 L846.9531,617.1563 L846.9531,614.7344 L846.7031,614.7344 C846.25,614.7344 846.1094,614.7031 845.9375,614.5938 C845.7188,614.4219 845.5781,614.1719 845.5781,613.8906 C845.5781,613.6094 845.7344,613.3125 845.9844,613.1563 C846.1406,613.0625 846.2656,613.0469 846.7031,613.0469 L848.4219,613.0469 C848.875,613.0469 849.0313,613.0781 849.2031,613.1875 C849.4063,613.3594 849.5313,613.625 849.5313,613.8906 C849.5313,614.3906 849.2188,614.6875 848.6563,614.7344 L848.6563,621.25 L848.75,621.25 C849.2188,621.25 849.3594,621.2813 849.5156,621.4063 C849.7344,621.5781 849.875,621.8281 849.875,622.1094 C849.875,622.3906 849.7188,622.6875 849.4688,622.8281 C849.3281,622.9219 849.1094,622.9531 848.75,622.9531 L846.7031,622.9531 C846.2969,622.9531 846.0938,622.9063 845.9375,622.7969 C845.7188,622.625 845.5781,622.3594 845.5781,622.1094 C845.5781,621.8125 845.7344,621.5313 845.9844,621.375 C846.1406,621.2656 846.2969,621.25 846.7031,621.25 L846.9531,621.25 Z "/><text fill="#000000" font-family="sans-serif" font-size="12" lengthAdjust="spacingAndGlyphs" textLength="239" x="859" y="622.1074">L1plusInnerProductGradientDifference</text><line style="stroke: #A80036; stroke-width: 1.5;" x1="831" x2="1100" y1="633.9531" y2="633.9531"/><ellipse cx="841" cy="645.8555" fill="none" rx="3" ry="3" style="stroke: #038048; stroke-width: 1.0;"/><text fill="#000000" font-family="sans-serif" font-size="11" lengthAdjust="spacingAndGlyphs" textLength="7" x="850" y="648.1636">b</text><ellipse cx="841" cy="658.6602" fill="none" rx="3" ry="3" style="stroke: #038048; stroke-width: 1.0;"/><text fill="#000000" font-family="sans-serif" font-size="11" lengthAdjust="spacingAndGlyphs" textLength="5" x="850" y="660.9683">r</text><line style="stroke: #A80036; stroke-width: 1.5;" x1="831" x2="1100" y1="667.5625" y2="667.5625"/><ellipse cx="841" cy="679.4648" fill="#84BE84" rx="3" ry="3" style="stroke: #038048; stroke-width: 1.0;"/><text fill="#000000" font-family="sans-serif" font-size="11" lengthAdjust="spacingAndGlyphs" textLength="224" x="850" y="681.7729">L1plusInnerProductGradientDifference()</text><!--class L1identity--><rect fill="#FEFECE" filter="url(#f6u1xkq)" height="60.8047" style="stroke: #A80036; stroke-width: 1.5;" width="92" x="193.5" y="614.4531"/><ellipse cx="208.5" cy="630.4531" fill="#E6FFE6" rx="11" ry="11" style="stroke: #A80036; stroke-width: 1.0;"/><path d="M210.4531,631.3594 L206.8125,631.3594 L206.8125,633.75 L207.0625,633.75 C207.5156,633.75 207.6875,633.7813 207.8281,633.9063 C208.0625,634.0781 208.1875,634.3281 208.1875,634.6094 C208.1875,634.8906 208.0313,635.1875 207.7813,635.3281 C207.6406,635.4219 207.4219,635.4531 207.0625,635.4531 L205.0156,635.4531 C204.6094,635.4531 204.3906,635.4063 204.2344,635.2969 C204.0313,635.125 203.8906,634.8594 203.8906,634.6094 C203.8906,634.3125 204.0469,634.0313 204.2969,633.875 C204.4531,633.7656 204.5938,633.75 205.0156,633.75 L205.1094,633.75 L205.1094,627.2344 C204.5469,627.1875 204.2344,626.8906 204.2344,626.3906 C204.2344,626.1094 204.3906,625.8125 204.6406,625.6563 C204.7969,625.5625 204.9219,625.5469 205.3594,625.5469 L207.0625,625.5469 C207.5313,625.5469 207.6875,625.5781 207.8281,625.6875 C208.0625,625.8594 208.1875,626.125 208.1875,626.3906 C208.1875,626.6875 208.0313,626.9688 207.7813,627.125 C207.625,627.2031 207.4844,627.2344 207.0625,627.2344 L206.8125,627.2344 L206.8125,629.6563 L210.4531,629.6563 L210.4531,627.2344 L210.2031,627.2344 C209.75,627.2344 209.6094,627.2031 209.4375,627.0938 C209.2188,626.9219 209.0781,626.6719 209.0781,626.3906 C209.0781,626.1094 209.2344,625.8125 209.4844,625.6563 C209.6406,625.5625 209.7656,625.5469 210.2031,625.5469 L211.9219,625.5469 C212.375,625.5469 212.5313,625.5781 212.7031,625.6875 C212.9063,625.8594 213.0313,626.125 213.0313,626.3906 C213.0313,626.8906 212.7188,627.1875 212.1563,627.2344 L212.1563,633.75 L212.25,633.75 C212.7188,633.75 212.8594,633.7813 213.0156,633.9063 C213.2344,634.0781 213.375,634.3281 213.375,634.6094 C213.375,634.8906 213.2188,635.1875 212.9688,635.3281 C212.8281,635.4219 212.6094,635.4531 212.25,635.4531 L210.2031,635.4531 C209.7969,635.4531 209.5938,635.4063 209.4375,635.2969 C209.2188,635.125 209.0781,634.8594 209.0781,634.6094 C209.0781,634.3125 209.2344,634.0313 209.4844,633.875 C209.6406,633.7656 209.7969,633.75 210.2031,633.75 L210.4531,633.75 Z "/><text fill="#000000" font-family="sans-serif" font-size="12" lengthAdjust="spacingAndGlyphs" textLength="60" x="222.5" y="634.6074">L1identity</text><line style="stroke: #A80036; stroke-width: 1.5;" x1="194.5" x2="284.5" y1="646.4531" y2="646.4531"/><line style="stroke: #A80036; stroke-width: 1.5;" x1="194.5" x2="284.5" y1="654.4531" y2="654.4531"/><ellipse cx="204.5" cy="666.3555" fill="#84BE84" rx="3" ry="3" style="stroke: #038048; stroke-width: 1.0;"/><text fill="#000000" font-family="sans-serif" font-size="11" lengthAdjust="spacingAndGlyphs" textLength="62" x="213.5" y="668.6636">L1identity()</text><!--class L2identity--><rect fill="#FEFECE" filter="url(#f6u1xkq)" height="60.8047" style="stroke: #A80036; stroke-width: 1.5;" width="92" x="59.5" y="614.4531"/><ellipse cx="74.5" cy="630.4531" fill="#E6FFE6" rx="11" ry="11" style="stroke: #A80036; stroke-width: 1.0;"/><path d="M76.4531,631.3594 L72.8125,631.3594 L72.8125,633.75 L73.0625,633.75 C73.5156,633.75 73.6875,633.7813 73.8281,633.9063 C74.0625,634.0781 74.1875,634.3281 74.1875,634.6094 C74.1875,634.8906 74.0313,635.1875 73.7813,635.3281 C73.6406,635.4219 73.4219,635.4531 73.0625,635.4531 L71.0156,635.4531 C70.6094,635.4531 70.3906,635.4063 70.2344,635.2969 C70.0313,635.125 69.8906,634.8594 69.8906,634.6094 C69.8906,634.3125 70.0469,634.0313 70.2969,633.875 C70.4531,633.7656 70.5938,633.75 71.0156,633.75 L71.1094,633.75 L71.1094,627.2344 C70.5469,627.1875 70.2344,626.8906 70.2344,626.3906 C70.2344,626.1094 70.3906,625.8125 70.6406,625.6563 C70.7969,625.5625 70.9219,625.5469 71.3594,625.5469 L73.0625,625.5469 C73.5313,625.5469 73.6875,625.5781 73.8281,625.6875 C74.0625,625.8594 74.1875,626.125 74.1875,626.3906 C74.1875,626.6875 74.0313,626.9688 73.7813,627.125 C73.625,627.2031 73.4844,627.2344 73.0625,627.2344 L72.8125,627.2344 L72.8125,629.6563 L76.4531,629.6563 L76.4531,627.2344 L76.2031,627.2344 C75.75,627.2344 75.6094,627.2031 75.4375,627.0938 C75.2188,626.9219 75.0781,626.6719 75.0781,626.3906 C75.0781,626.1094 75.2344,625.8125 75.4844,625.6563 C75.6406,625.5625 75.7656,625.5469 76.2031,625.5469 L77.9219,625.5469 C78.375,625.5469 78.5313,625.5781 78.7031,625.6875 C78.9063,625.8594 79.0313,626.125 79.0313,626.3906 C79.0313,626.8906 78.7188,627.1875 78.1563,627.2344 L78.1563,633.75 L78.25,633.75 C78.7188,633.75 78.8594,633.7813 79.0156,633.9063 C79.2344,634.0781 79.375,634.3281 79.375,634.6094 C79.375,634.8906 79.2188,635.1875 78.9688,635.3281 C78.8281,635.4219 78.6094,635.4531 78.25,635.4531 L76.2031,635.4531 C75.7969,635.4531 75.5938,635.4063 75.4375,635.2969 C75.2188,635.125 75.0781,634.8594 75.0781,634.6094 C75.0781,634.3125 75.2344,634.0313 75.4844,633.875 C75.6406,633.7656 75.7969,633.75 76.2031,633.75 L76.4531,633.75 Z "/><text fill="#000000" font-family="sans-serif" font-size="12" lengthAdjust="spacingAndGlyphs" textLength="60" x="88.5" y="634.6074">L2identity</text><line style="stroke: #A80036; stroke-width: 1.5;" x1="60.5" x2="150.5" y1="646.4531" y2="646.4531"/><line style="stroke: #A80036; stroke-width: 1.5;" x1="60.5" x2="150.5" y1="654.4531" y2="654.4531"/><ellipse cx="70.5" cy="666.3555" fill="#84BE84" rx="3" ry="3" style="stroke: #038048; stroke-width: 1.0;"/><text fill="#000000" font-family="sans-serif" font-size="11" lengthAdjust="spacingAndGlyphs" textLength="62" x="79.5" y="668.6636">L2identity()</text><!--class tildeMultiOperatorMultiDual--><rect fill="#FEFECE" filter="url(#f6u1xkq)" height="99.2188" style="stroke: #A80036; stroke-width: 1.5;" width="201" x="563" y="162.4531"/><ellipse cx="578" cy="178.4531" fill="#E6FFE6" rx="11" ry="11" style="stroke: #A80036; stroke-width: 1.0;"/><path d="M579.9531,179.3594 L576.3125,179.3594 L576.3125,181.75 L576.5625,181.75 C577.0156,181.75 577.1875,181.7813 577.3281,181.9063 C577.5625,182.0781 577.6875,182.3281 577.6875,182.6094 C577.6875,182.8906 577.5313,183.1875 577.2813,183.3281 C577.1406,183.4219 576.9219,183.4531 576.5625,183.4531 L574.5156,183.4531 C574.1094,183.4531 573.8906,183.4063 573.7344,183.2969 C573.5313,183.125 573.3906,182.8594 573.3906,182.6094 C573.3906,182.3125 573.5469,182.0313 573.7969,181.875 C573.9531,181.7656 574.0938,181.75 574.5156,181.75 L574.6094,181.75 L574.6094,175.2344 C574.0469,175.1875 573.7344,174.8906 573.7344,174.3906 C573.7344,174.1094 573.8906,173.8125 574.1406,173.6563 C574.2969,173.5625 574.4219,173.5469 574.8594,173.5469 L576.5625,173.5469 C577.0313,173.5469 577.1875,173.5781 577.3281,173.6875 C577.5625,173.8594 577.6875,174.125 577.6875,174.3906 C577.6875,174.6875 577.5313,174.9688 577.2813,175.125 C577.125,175.2031 576.9844,175.2344 576.5625,175.2344 L576.3125,175.2344 L576.3125,177.6563 L579.9531,177.6563 L579.9531,175.2344 L579.7031,175.2344 C579.25,175.2344 579.1094,175.2031 578.9375,175.0938 C578.7188,174.9219 578.5781,174.6719 578.5781,174.3906 C578.5781,174.1094 578.7344,173.8125 578.9844,173.6563 C579.1406,173.5625 579.2656,173.5469 579.7031,173.5469 L581.4219,173.5469 C581.875,173.5469 582.0313,173.5781 582.2031,173.6875 C582.4063,173.8594 582.5313,174.125 582.5313,174.3906 C582.5313,174.8906 582.2188,175.1875 581.6563,175.2344 L581.6563,181.75 L581.75,181.75 C582.2188,181.75 582.3594,181.7813 582.5156,181.9063 C582.7344,182.0781 582.875,182.3281 582.875,182.6094 C582.875,182.8906 582.7188,183.1875 582.4688,183.3281 C582.3281,183.4219 582.1094,183.4531 581.75,183.4531 L579.7031,183.4531 C579.2969,183.4531 579.0938,183.4063 578.9375,183.2969 C578.7188,183.125 578.5781,182.8594 578.5781,182.6094 C578.5781,182.3125 578.7344,182.0313 578.9844,181.875 C579.1406,181.7656 579.2969,181.75 579.7031,181.75 L579.9531,181.75 Z "/><text fill="#000000" font-family="sans-serif" font-size="12" lengthAdjust="spacingAndGlyphs" textLength="169" x="592" y="182.6074">tildeMultiOperatorMultiDual</text><line style="stroke: #A80036; stroke-width: 1.5;" x1="564" x2="763" y1="194.4531" y2="194.4531"/><line style="stroke: #A80036; stroke-width: 1.5;" x1="564" x2="763" y1="202.4531" y2="202.4531"/><ellipse cx="574" cy="214.3555" fill="#84BE84" rx="3" ry="3" style="stroke: #038048; stroke-width: 1.0;"/><text fill="#000000" font-family="sans-serif" font-size="11" lengthAdjust="spacingAndGlyphs" textLength="43" x="583" y="216.6636">xError()</text><ellipse cx="574" cy="227.1602" fill="#84BE84" rx="3" ry="3" style="stroke: #038048; stroke-width: 1.0;"/><text fill="#000000" font-family="sans-serif" font-size="11" lengthAdjust="spacingAndGlyphs" textLength="41" x="583" y="229.4683">xTilde()</text><ellipse cx="574" cy="239.9648" fill="#84BE84" rx="3" ry="3" style="stroke: #038048; stroke-width: 1.0;"/><text fill="#000000" font-family="sans-serif" font-size="11" lengthAdjust="spacingAndGlyphs" textLength="43" x="583" y="242.2729">yError()</text><ellipse cx="574" cy="252.7695" fill="#84BE84" rx="3" ry="3" style="stroke: #038048; stroke-width: 1.0;"/><text fill="#000000" font-family="sans-serif" font-size="11" lengthAdjust="spacingAndGlyphs" textLength="41" x="583" y="255.0776">yTilde()</text><!--class innerProductProxDual--><rect fill="#FEFECE" filter="url(#f6u1xkq)" height="73.6094" style="stroke: #A80036; stroke-width: 1.5;" width="168" x="458.5" y="467.9531"/><ellipse cx="473.5" cy="483.9531" fill="#E6FFE6" rx="11" ry="11" style="stroke: #A80036; stroke-width: 1.0;"/><path d="M475.4531,484.8594 L471.8125,484.8594 L471.8125,487.25 L472.0625,487.25 C472.5156,487.25 472.6875,487.2813 472.8281,487.4063 C473.0625,487.5781 473.1875,487.8281 473.1875,488.1094 C473.1875,488.3906 473.0313,488.6875 472.7813,488.8281 C472.6406,488.9219 472.4219,488.9531 472.0625,488.9531 L470.0156,488.9531 C469.6094,488.9531 469.3906,488.9063 469.2344,488.7969 C469.0313,488.625 468.8906,488.3594 468.8906,488.1094 C468.8906,487.8125 469.0469,487.5313 469.2969,487.375 C469.4531,487.2656 469.5938,487.25 470.0156,487.25 L470.1094,487.25 L470.1094,480.7344 C469.5469,480.6875 469.2344,480.3906 469.2344,479.8906 C469.2344,479.6094 469.3906,479.3125 469.6406,479.1563 C469.7969,479.0625 469.9219,479.0469 470.3594,479.0469 L472.0625,479.0469 C472.5313,479.0469 472.6875,479.0781 472.8281,479.1875 C473.0625,479.3594 473.1875,479.625 473.1875,479.8906 C473.1875,480.1875 473.0313,480.4688 472.7813,480.625 C472.625,480.7031 472.4844,480.7344 472.0625,480.7344 L471.8125,480.7344 L471.8125,483.1563 L475.4531,483.1563 L475.4531,480.7344 L475.2031,480.7344 C474.75,480.7344 474.6094,480.7031 474.4375,480.5938 C474.2188,480.4219 474.0781,480.1719 474.0781,479.8906 C474.0781,479.6094 474.2344,479.3125 474.4844,479.1563 C474.6406,479.0625 474.7656,479.0469 475.2031,479.0469 L476.9219,479.0469 C477.375,479.0469 477.5313,479.0781 477.7031,479.1875 C477.9063,479.3594 478.0313,479.625 478.0313,479.8906 C478.0313,480.3906 477.7188,480.6875 477.1563,480.7344 L477.1563,487.25 L477.25,487.25 C477.7188,487.25 477.8594,487.2813 478.0156,487.4063 C478.2344,487.5781 478.375,487.8281 478.375,488.1094 C478.375,488.3906 478.2188,488.6875 477.9688,488.8281 C477.8281,488.9219 477.6094,488.9531 477.25,488.9531 L475.2031,488.9531 C474.7969,488.9531 474.5938,488.9063 474.4375,488.7969 C474.2188,488.625 474.0781,488.3594 474.0781,488.1094 C474.0781,487.8125 474.2344,487.5313 474.4844,487.375 C474.6406,487.2656 474.7969,487.25 475.2031,487.25 L475.4531,487.25 Z "/><text fill="#000000" font-family="sans-serif" font-size="12" lengthAdjust="spacingAndGlyphs" textLength="136" x="487.5" y="488.1074">innerProductProxDual</text><line style="stroke: #A80036; stroke-width: 1.5;" x1="459.5" x2="625.5" y1="499.9531" y2="499.9531"/><line style="stroke: #A80036; stroke-width: 1.5;" x1="459.5" x2="625.5" y1="507.9531" y2="507.9531"/><ellipse cx="469.5" cy="519.8555" fill="#84BE84" rx="3" ry="3" style="stroke: #038048; stroke-width: 1.0;"/><text fill="#000000" font-family="sans-serif" font-size="11" lengthAdjust="spacingAndGlyphs" textLength="130" x="478.5" y="522.1636">innerProductProxDual()</text><ellipse cx="469.5" cy="532.6602" fill="#84BE84" rx="3" ry="3" style="stroke: #038048; stroke-width: 1.0;"/><text fill="#000000" font-family="sans-serif" font-size="11" lengthAdjust="spacingAndGlyphs" textLength="63" x="478.5" y="534.9683">applyProx()</text><!--class L1AnisoProxDual--><rect fill="#FEFECE" filter="url(#f6u1xkq)" height="73.6094" style="stroke: #A80036; stroke-width: 1.5;" width="135" x="288" y="467.9531"/><ellipse cx="303" cy="483.9531" fill="#E6FFE6" rx="11" ry="11" style="stroke: #A80036; stroke-width: 1.0;"/><path d="M304.9531,484.8594 L301.3125,484.8594 L301.3125,487.25 L301.5625,487.25 C302.0156,487.25 302.1875,487.2813 302.3281,487.4063 C302.5625,487.5781 302.6875,487.8281 302.6875,488.1094 C302.6875,488.3906 302.5313,488.6875 302.2813,488.8281 C302.1406,488.9219 301.9219,488.9531 301.5625,488.9531 L299.5156,488.9531 C299.1094,488.9531 298.8906,488.9063 298.7344,488.7969 C298.5313,488.625 298.3906,488.3594 298.3906,488.1094 C298.3906,487.8125 298.5469,487.5313 298.7969,487.375 C298.9531,487.2656 299.0938,487.25 299.5156,487.25 L299.6094,487.25 L299.6094,480.7344 C299.0469,480.6875 298.7344,480.3906 298.7344,479.8906 C298.7344,479.6094 298.8906,479.3125 299.1406,479.1563 C299.2969,479.0625 299.4219,479.0469 299.8594,479.0469 L301.5625,479.0469 C302.0313,479.0469 302.1875,479.0781 302.3281,479.1875 C302.5625,479.3594 302.6875,479.625 302.6875,479.8906 C302.6875,480.1875 302.5313,480.4688 302.2813,480.625 C302.125,480.7031 301.9844,480.7344 301.5625,480.7344 L301.3125,480.7344 L301.3125,483.1563 L304.9531,483.1563 L304.9531,480.7344 L304.7031,480.7344 C304.25,480.7344 304.1094,480.7031 303.9375,480.5938 C303.7188,480.4219 303.5781,480.1719 303.5781,479.8906 C303.5781,479.6094 303.7344,479.3125 303.9844,479.1563 C304.1406,479.0625 304.2656,479.0469 304.7031,479.0469 L306.4219,479.0469 C306.875,479.0469 307.0313,479.0781 307.2031,479.1875 C307.4063,479.3594 307.5313,479.625 307.5313,479.8906 C307.5313,480.3906 307.2188,480.6875 306.6563,480.7344 L306.6563,487.25 L306.75,487.25 C307.2188,487.25 307.3594,487.2813 307.5156,487.4063 C307.7344,487.5781 307.875,487.8281 307.875,488.1094 C307.875,488.3906 307.7188,488.6875 307.4688,488.8281 C307.3281,488.9219 307.1094,488.9531 306.75,488.9531 L304.7031,488.9531 C304.2969,488.9531 304.0938,488.9063 303.9375,488.7969 C303.7188,488.625 303.5781,488.3594 303.5781,488.1094 C303.5781,487.8125 303.7344,487.5313 303.9844,487.375 C304.1406,487.2656 304.2969,487.25 304.7031,487.25 L304.9531,487.25 Z "/><text fill="#000000" font-family="sans-serif" font-size="12" lengthAdjust="spacingAndGlyphs" textLength="103" x="317" y="488.1074">L1AnisoProxDual</text><line style="stroke: #A80036; stroke-width: 1.5;" x1="289" x2="422" y1="499.9531" y2="499.9531"/><line style="stroke: #A80036; stroke-width: 1.5;" x1="289" x2="422" y1="507.9531" y2="507.9531"/><ellipse cx="299" cy="519.8555" fill="#84BE84" rx="3" ry="3" style="stroke: #038048; stroke-width: 1.0;"/><text fill="#000000" font-family="sans-serif" font-size="11" lengthAdjust="spacingAndGlyphs" textLength="102" x="308" y="522.1636">L1AnisoProxDual()</text><ellipse cx="299" cy="532.6602" fill="#84BE84" rx="3" ry="3" style="stroke: #038048; stroke-width: 1.0;"/><text fill="#000000" font-family="sans-serif" font-size="11" lengthAdjust="spacingAndGlyphs" textLength="63" x="308" y="534.9683">applyProx()</text><!--class L2proxDual--><rect fill="#FEFECE" filter="url(#f6u1xkq)" height="73.6094" style="stroke: #A80036; stroke-width: 1.5;" width="101" x="6" y="467.9531"/><ellipse cx="21" cy="483.9531" fill="#E6FFE6" rx="11" ry="11" style="stroke: #A80036; stroke-width: 1.0;"/><path d="M22.9531,484.8594 L19.3125,484.8594 L19.3125,487.25 L19.5625,487.25 C20.0156,487.25 20.1875,487.2813 20.3281,487.4063 C20.5625,487.5781 20.6875,487.8281 20.6875,488.1094 C20.6875,488.3906 20.5313,488.6875 20.2813,488.8281 C20.1406,488.9219 19.9219,488.9531 19.5625,488.9531 L17.5156,488.9531 C17.1094,488.9531 16.8906,488.9063 16.7344,488.7969 C16.5313,488.625 16.3906,488.3594 16.3906,488.1094 C16.3906,487.8125 16.5469,487.5313 16.7969,487.375 C16.9531,487.2656 17.0938,487.25 17.5156,487.25 L17.6094,487.25 L17.6094,480.7344 C17.0469,480.6875 16.7344,480.3906 16.7344,479.8906 C16.7344,479.6094 16.8906,479.3125 17.1406,479.1563 C17.2969,479.0625 17.4219,479.0469 17.8594,479.0469 L19.5625,479.0469 C20.0313,479.0469 20.1875,479.0781 20.3281,479.1875 C20.5625,479.3594 20.6875,479.625 20.6875,479.8906 C20.6875,480.1875 20.5313,480.4688 20.2813,480.625 C20.125,480.7031 19.9844,480.7344 19.5625,480.7344 L19.3125,480.7344 L19.3125,483.1563 L22.9531,483.1563 L22.9531,480.7344 L22.7031,480.7344 C22.25,480.7344 22.1094,480.7031 21.9375,480.5938 C21.7188,480.4219 21.5781,480.1719 21.5781,479.8906 C21.5781,479.6094 21.7344,479.3125 21.9844,479.1563 C22.1406,479.0625 22.2656,479.0469 22.7031,479.0469 L24.4219,479.0469 C24.875,479.0469 25.0313,479.0781 25.2031,479.1875 C25.4063,479.3594 25.5313,479.625 25.5313,479.8906 C25.5313,480.3906 25.2188,480.6875 24.6563,480.7344 L24.6563,487.25 L24.75,487.25 C25.2188,487.25 25.3594,487.2813 25.5156,487.4063 C25.7344,487.5781 25.875,487.8281 25.875,488.1094 C25.875,488.3906 25.7188,488.6875 25.4688,488.8281 C25.3281,488.9219 25.1094,488.9531 24.75,488.9531 L22.7031,488.9531 C22.2969,488.9531 22.0938,488.9063 21.9375,488.7969 C21.7188,488.625 21.5781,488.3594 21.5781,488.1094 C21.5781,487.8125 21.7344,487.5313 21.9844,487.375 C22.1406,487.2656 22.2969,487.25 22.7031,487.25 L22.9531,487.25 Z "/><text fill="#000000" font-family="sans-serif" font-size="12" lengthAdjust="spacingAndGlyphs" textLength="69" x="35" y="488.1074">L2proxDual</text><line style="stroke: #A80036; stroke-width: 1.5;" x1="7" x2="106" y1="499.9531" y2="499.9531"/><line style="stroke: #A80036; stroke-width: 1.5;" x1="7" x2="106" y1="507.9531" y2="507.9531"/><ellipse cx="17" cy="519.8555" fill="#84BE84" rx="3" ry="3" style="stroke: #038048; stroke-width: 1.0;"/><text fill="#000000" font-family="sans-serif" font-size="11" lengthAdjust="spacingAndGlyphs" textLength="71" x="26" y="522.1636">L2proxDual()</text><ellipse cx="17" cy="532.6602" fill="#84BE84" rx="3" ry="3" style="stroke: #038048; stroke-width: 1.0;"/><text fill="#000000" font-family="sans-serif" font-size="11" lengthAdjust="spacingAndGlyphs" textLength="63" x="26" y="534.9683">applyProx()</text><!--class L1IsoProxDualShift--><rect fill="#FEFECE" filter="url(#f6u1xkq)" height="73.6094" style="stroke: #A80036; stroke-width: 1.5;" width="147" x="1121" y="467.9531"/><ellipse cx="1136" cy="483.9531" fill="#E6FFE6" rx="11" ry="11" style="stroke: #A80036; stroke-width: 1.0;"/><path d="M1137.9531,484.8594 L1134.3125,484.8594 L1134.3125,487.25 L1134.5625,487.25 C1135.0156,487.25 1135.1875,487.2813 1135.3281,487.4063 C1135.5625,487.5781 1135.6875,487.8281 1135.6875,488.1094 C1135.6875,488.3906 1135.5313,488.6875 1135.2813,488.8281 C1135.1406,488.9219 1134.9219,488.9531 1134.5625,488.9531 L1132.5156,488.9531 C1132.1094,488.9531 1131.8906,488.9063 1131.7344,488.7969 C1131.5313,488.625 1131.3906,488.3594 1131.3906,488.1094 C1131.3906,487.8125 1131.5469,487.5313 1131.7969,487.375 C1131.9531,487.2656 1132.0938,487.25 1132.5156,487.25 L1132.6094,487.25 L1132.6094,480.7344 C1132.0469,480.6875 1131.7344,480.3906 1131.7344,479.8906 C1131.7344,479.6094 1131.8906,479.3125 1132.1406,479.1563 C1132.2969,479.0625 1132.4219,479.0469 1132.8594,479.0469 L1134.5625,479.0469 C1135.0313,479.0469 1135.1875,479.0781 1135.3281,479.1875 C1135.5625,479.3594 1135.6875,479.625 1135.6875,479.8906 C1135.6875,480.1875 1135.5313,480.4688 1135.2813,480.625 C1135.125,480.7031 1134.9844,480.7344 1134.5625,480.7344 L1134.3125,480.7344 L1134.3125,483.1563 L1137.9531,483.1563 L1137.9531,480.7344 L1137.7031,480.7344 C1137.25,480.7344 1137.1094,480.7031 1136.9375,480.5938 C1136.7188,480.4219 1136.5781,480.1719 1136.5781,479.8906 C1136.5781,479.6094 1136.7344,479.3125 1136.9844,479.1563 C1137.1406,479.0625 1137.2656,479.0469 1137.7031,479.0469 L1139.4219,479.0469 C1139.875,479.0469 1140.0313,479.0781 1140.2031,479.1875 C1140.4063,479.3594 1140.5313,479.625 1140.5313,479.8906 C1140.5313,480.3906 1140.2188,480.6875 1139.6563,480.7344 L1139.6563,487.25 L1139.75,487.25 C1140.2188,487.25 1140.3594,487.2813 1140.5156,487.4063 C1140.7344,487.5781 1140.875,487.8281 1140.875,488.1094 C1140.875,488.3906 1140.7188,488.6875 1140.4688,488.8281 C1140.3281,488.9219 1140.1094,488.9531 1139.75,488.9531 L1137.7031,488.9531 C1137.2969,488.9531 1137.0938,488.9063 1136.9375,488.7969 C1136.7188,488.625 1136.5781,488.3594 1136.5781,488.1094 C1136.5781,487.8125 1136.7344,487.5313 1136.9844,487.375 C1137.1406,487.2656 1137.2969,487.25 1137.7031,487.25 L1137.9531,487.25 Z "/><text fill="#000000" font-family="sans-serif" font-size="12" lengthAdjust="spacingAndGlyphs" textLength="115" x="1150" y="488.1074">L1IsoProxDualShift</text><line style="stroke: #A80036; stroke-width: 1.5;" x1="1122" x2="1267" y1="499.9531" y2="499.9531"/><line style="stroke: #A80036; stroke-width: 1.5;" x1="1122" x2="1267" y1="507.9531" y2="507.9531"/><ellipse cx="1132" cy="519.8555" fill="#84BE84" rx="3" ry="3" style="stroke: #038048; stroke-width: 1.0;"/><text fill="#000000" font-family="sans-serif" font-size="11" lengthAdjust="spacingAndGlyphs" textLength="114" x="1141" y="522.1636">L1IsoProxDualShift()</text><ellipse cx="1132" cy="532.6602" fill="#84BE84" rx="3" ry="3" style="stroke: #038048; stroke-width: 1.0;"/><text fill="#000000" font-family="sans-serif" font-size="11" lengthAdjust="spacingAndGlyphs" textLength="63" x="1141" y="534.9683">applyProx()</text><!--class functionalPart--><rect fill="#FEFECE" filter="url(#f6u1xkq)" height="48" style="stroke: #A80036; stroke-width: 1.5;" width="120" x="783.5" y="28.9531"/><ellipse cx="798.5" cy="44.9531" fill="#ADD1B2" rx="11" ry="11" style="stroke: #A80036; stroke-width: 1.0;"/><path d="M800.8438,40.625 L801.0156,40.7031 C801.2344,40.3906 801.4375,40.2969 801.7344,40.2969 C802.0313,40.2969 802.3125,40.4375 802.4688,40.7031 C802.5625,40.8594 802.5781,40.9844 802.5781,41.4219 L802.5781,42.8438 C802.5781,43.2656 802.5469,43.4531 802.4375,43.6094 C802.2656,43.8281 802,43.9688 801.7344,43.9688 C801.5156,43.9688 801.2813,43.8594 801.1406,43.7188 C801,43.5938 800.9688,43.4688 800.9063,43.0625 C800.8125,42.6563 800.6406,42.4375 800.1563,42.1563 C799.6875,41.9063 799.0781,41.75 798.5,41.75 C796.7656,41.75 795.5156,43.0625 795.5156,44.8438 L795.5156,45.9375 C795.5156,47.6406 796.8125,48.7344 798.8594,48.7344 C799.625,48.7344 800.3125,48.6094 800.7344,48.3438 C800.9219,48.25 800.9219,48.25 801.375,47.7656 C801.5625,47.5781 801.7656,47.5 801.9844,47.5 C802.4531,47.5 802.8438,47.8906 802.8438,48.3438 C802.8438,48.7344 802.5156,49.1875 801.9375,49.5938 C801.1875,50.1406 800.0313,50.4375 798.8125,50.4375 C795.9219,50.4375 793.8125,48.5469 793.8125,45.9688 L793.8125,44.8438 C793.8125,42.125 795.8125,40.0469 798.4375,40.0469 C799.3125,40.0469 799.9063,40.1875 800.8438,40.625 Z "/><text fill="#000000" font-family="sans-serif" font-size="12" lengthAdjust="spacingAndGlyphs" textLength="88" x="812.5" y="49.1074">functionalPart</text><line style="stroke: #A80036; stroke-width: 1.5;" x1="784.5" x2="902.5" y1="60.9531" y2="60.9531"/><line style="stroke: #A80036; stroke-width: 1.5;" x1="784.5" x2="902.5" y1="68.9531" y2="68.9531"/><path d="M843.5,97.3281 C843.5,109.6191 843.5,123.3581 843.5,136.9181 " fill="none" style="stroke: #A80036; stroke-width: 1.0;"/><polygon fill="none" points="836.5,97.1191,843.5,77.1191,850.5,97.1191,836.5,97.1191" style="stroke: #A80036; stroke-width: 1.0;"/><path d="M792.883,304.9081 C784.551,320.0431 776.481,334.7051 769.837,346.7731 " fill="none" style="stroke: #A80036; stroke-width: 1.0;"/><polygon fill="none" points="786.936,301.1941,802.713,287.0491,799.201,307.9451,786.936,301.1941" style="stroke: #A80036; stroke-width: 1.0;"/><path d="M700.074,279.3951 C712.954,302.7951 726.79,327.9291 737.154,346.7571 " fill="none" style="stroke: #A80036; stroke-width: 1.0;"/><polygon fill="none" points="693.772,282.4621,690.259,261.5661,706.036,275.7111,693.772,282.4621" style="stroke: #A80036; stroke-width: 1.0;"/><path d="M646.573,389.7071 C547.274,402.1491 396.249,426.1851 270.5,467.9531 C264.733,469.8681 258.845,472.1561 253.037,474.6371 " fill="none" style="stroke: #A80036; stroke-width: 1.0;"/><polygon fill="none" points="645.942,382.7321,666.642,387.2621,647.635,396.6291,645.942,382.7321" style="stroke: #A80036; stroke-width: 1.0;"/><path d="M814.353,419.5121 C840.916,437.4351 871.469,458.0501 895.737,474.4251 " fill="none" style="stroke: #A80036; stroke-width: 1.0;"/><polygon fill="none" points="810.243,425.1841,797.579,408.1951,818.074,413.5791,810.243,425.1841" style="stroke: #A80036; stroke-width: 1.0;"/><path d="M753.5,428.4001 C753.5,444.0001 753.5,460.7021 753.5,474.4251 " fill="none" style="stroke: #A80036; stroke-width: 1.0;"/><polygon fill="none" points="746.5,428.1951,753.5,408.1951,760.5,428.1951,746.5,428.1951" style="stroke: #A80036; stroke-width: 1.0;"/><path d="M873.399,545.9621 C841.146,565.4831 802.643,588.7879 771.277,607.772 " fill="none" style="stroke: #A80036; stroke-width: 1.0;"/><polygon fill="none" points="869.854,539.9251,890.588,535.5571,877.103,551.9021,869.854,539.9251" style="stroke: #A80036; stroke-width: 1.0;"/><path d="M602.683,555.0971 C624.029,572.5271 647.638,591.8051 667.394,607.9374 " fill="none" style="stroke: #A80036; stroke-width: 1.0;"/><polygon fill="none" points="597.967,560.2831,586.903,542.2111,606.822,549.4391,597.967,560.2831" style="stroke: #A80036; stroke-width: 1.0;"/><path d="M681.354,545.1511 C645.124,564.8351 601.521,588.5242 566.094,607.772 " fill="none" style="stroke: #A80036; stroke-width: 1.0;"/><polygon fill="none" points="678.095,538.9551,699.011,535.5571,684.779,551.2561,678.095,538.9551" style="stroke: #A80036; stroke-width: 1.0;"/><path d="M525.249,561.3171 C520.356,577.0191 515.158,593.703 510.722,607.9374 " fill="none" style="stroke: #A80036; stroke-width: 1.0;"/><polygon fill="none" points="518.569,559.2231,531.202,542.2111,531.936,563.3881,518.569,559.2231" style="stroke: #A80036; stroke-width: 1.0;"/><path d="M1017.38,541.7791 C1057.36,560.1691 1106.31,582.6841 1148.07,601.8937 " fill="none" style="stroke: #A80036; stroke-width: 1.0;"/><polygon fill="none" points="1014.37,548.1001,999.129,533.3821,1020.22,535.3811,1014.37,548.1001" style="stroke: #A80036; stroke-width: 1.0;"/><path d="M1212.66,561.6311 C1217,574.9531 1221.57,588.9651 1225.68,601.5754 " fill="none" style="stroke: #A80036; stroke-width: 1.0;"/><polygon fill="none" points="1205.87,563.3961,1206.32,542.2111,1219.18,559.0551,1205.87,563.3961" style="stroke: #A80036; stroke-width: 1.0;"/><path d="M815.813,546.5151 C842.554,563.9221 873.79,584.2551 900.791,601.831 " fill="none" style="stroke: #A80036; stroke-width: 1.0;"/><polygon fill="none" points="811.922,552.3351,798.979,535.5571,819.56,540.6021,811.922,552.3351" style="stroke: #A80036; stroke-width: 1.0;"/><path d="M1117.32,552.4661 C1090.87,568.4041 1061.44,586.1401 1035.58,601.7213 " fill="none" style="stroke: #A80036; stroke-width: 1.0;"/><polygon fill="none" points="1113.89,546.3581,1134.63,542.0311,1121.12,558.3491,1113.89,546.3581" style="stroke: #A80036; stroke-width: 1.0;"/><path d="M212.348,554.7391 C218.409,574.6551 225.221,597.035 230.505,614.3976 " fill="none" style="stroke: #A80036; stroke-width: 1.0;"/><polygon fill="none" points="205.637,556.7291,206.51,535.5571,219.03,552.6531,205.637,556.7291" style="stroke: #A80036; stroke-width: 1.0;"/><path d="M311.988,557.7181 C295.883,576.8771 278.186,597.9304 264.309,614.4386 " fill="none" style="stroke: #A80036; stroke-width: 1.0;"/><polygon fill="none" points="306.795,553.0161,325.022,542.2111,317.512,562.0251,306.795,553.0161" style="stroke: #A80036; stroke-width: 1.0;"/><path d="M166.635,552.2501 C152.954,572.7711 137.264,596.3078 125.204,614.3976 " fill="none" style="stroke: #A80036; stroke-width: 1.0;"/><polygon fill="none" points="160.845,548.3161,177.764,535.5571,172.494,556.0811,160.845,548.3161" style="stroke: #A80036; stroke-width: 1.0;"/><path d="M76.1115,561.1851 C82.5744,579.3871 89.5103,598.9209 95.0202,614.4386 " fill="none" style="stroke: #A80036; stroke-width: 1.0;"/><polygon fill="none" points="69.4698,563.4001,69.3742,542.2111,82.6629,558.7161,69.4698,563.4001" style="stroke: #A80036; stroke-width: 1.0;"/></g></svg>