<?xml version="1.0" encoding="UTF-8" standalone="no"?><svg xmlns="http://www.w3.org/2000/svg" xmlns:xlink="http://www.w3.org/1999/xlink" contentScriptType="application/ecmascript" contentStyleType="text/css" height="545px" preserveAspectRatio="none" style="width:1264px;height:545px;" version="1.1" viewBox="0 0 1264 545" width="1264px" zoomAndPan="magnify"><defs><filter height="300%" id="fpq3o84" width="300%" x="-1" y="-1"><feGaussianBlur result="blurOut" stdDeviation="2.0"/><feColorMatrix in="blurOut" result="blurOut2" type="matrix" values="0 0 0 0 0 0 0 0 0 0 0 0 0 0 0 0 0 0 .4 0"/><feOffset dx="4.0" dy="4.0" in="blurOut2" result="blurOut3"/><feBlend in="SourceGraphic" in2="blurOut3" mode="normal"/></filter></defs><g><text fill="#000000" font-family="sans-serif" font-size="18" font-weight="bold" lengthAdjust="spacingAndGlyphs" textLength="305" x="484" y="16.708">Regularizer Terms (operators)</text><!--class basicTerm--><rect fill="#FEFECE" filter="url(#fpq3o84)" height="240.0703" style="stroke: #A80036; stroke-width: 1.5;" width="96" x="1042.5" y="28.9531"/><ellipse cx="1057.5" cy="44.9531" fill="#E6FFE6" rx="11" ry="11" style="stroke: #A80036; stroke-width: 1.0;"/><path d="M1059.4531,45.8594 L1055.8125,45.8594 L1055.8125,48.25 L1056.0625,48.25 C1056.5156,48.25 1056.6875,48.2813 1056.8281,48.4063 C1057.0625,48.5781 1057.1875,48.8281 1057.1875,49.1094 C1057.1875,49.3906 1057.0313,49.6875 1056.7813,49.8281 C1056.6406,49.9219 1056.4219,49.9531 1056.0625,49.9531 L1054.0156,49.9531 C1053.6094,49.9531 1053.3906,49.9063 1053.2344,49.7969 C1053.0313,49.625 1052.8906,49.3594 1052.8906,49.1094 C1052.8906,48.8125 1053.0469,48.5313 1053.2969,48.375 C1053.4531,48.2656 1053.5938,48.25 1054.0156,48.25 L1054.1094,48.25 L1054.1094,41.7344 C1053.5469,41.6875 1053.2344,41.3906 1053.2344,40.8906 C1053.2344,40.6094 1053.3906,40.3125 1053.6406,40.1563 C1053.7969,40.0625 1053.9219,40.0469 1054.3594,40.0469 L1056.0625,40.0469 C1056.5313,40.0469 1056.6875,40.0781 1056.8281,40.1875 C1057.0625,40.3594 1057.1875,40.625 1057.1875,40.8906 C1057.1875,41.1875 1057.0313,41.4688 1056.7813,41.625 C1056.625,41.7031 1056.4844,41.7344 1056.0625,41.7344 L1055.8125,41.7344 L1055.8125,44.1563 L1059.4531,44.1563 L1059.4531,41.7344 L1059.2031,41.7344 C1058.75,41.7344 1058.6094,41.7031 1058.4375,41.5938 C1058.2188,41.4219 1058.0781,41.1719 1058.0781,40.8906 C1058.0781,40.6094 1058.2344,40.3125 1058.4844,40.1563 C1058.6406,40.0625 1058.7656,40.0469 1059.2031,40.0469 L1060.9219,40.0469 C1061.375,40.0469 1061.5313,40.0781 1061.7031,40.1875 C1061.9063,40.3594 1062.0313,40.625 1062.0313,40.8906 C1062.0313,41.3906 1061.7188,41.6875 1061.1563,41.7344 L1061.1563,48.25 L1061.25,48.25 C1061.7188,48.25 1061.8594,48.2813 1062.0156,48.4063 C1062.2344,48.5781 1062.375,48.8281 1062.375,49.1094 C1062.375,49.3906 1062.2188,49.6875 1061.9688,49.8281 C1061.8281,49.9219 1061.6094,49.9531 1061.25,49.9531 L1059.2031,49.9531 C1058.7969,49.9531 1058.5938,49.9063 1058.4375,49.7969 C1058.2188,49.625 1058.0781,49.3594 1058.0781,49.1094 C1058.0781,48.8125 1058.2344,48.5313 1058.4844,48.375 C1058.6406,48.2656 1058.7969,48.25 1059.2031,48.25 L1059.4531,48.25 Z "/><text fill="#000000" font-family="sans-serif" font-size="12" lengthAdjust="spacingAndGlyphs" textLength="64" x="1071.5" y="49.1074">basicTerm</text><line style="stroke: #A80036; stroke-width: 1.5;" x1="1043.5" x2="1137.5" y1="60.9531" y2="60.9531"/><text fill="#000000" font-family="sans-serif" font-size="11" lengthAdjust="spacingAndGlyphs" textLength="13" x="1062.5" y="75.1636">+f</text><ellipse cx="1053.5" cy="85.6602" fill="none" rx="3" ry="3" style="stroke: #038048; stroke-width: 1.0;"/><text fill="#000000" font-family="sans-serif" font-size="11" lengthAdjust="spacingAndGlyphs" textLength="33" x="1062.5" y="87.9683">factor</text><ellipse cx="1053.5" cy="98.4648" fill="none" rx="3" ry="3" style="stroke: #038048; stroke-width: 1.0;"/><text fill="#000000" font-family="sans-serif" font-size="11" lengthAdjust="spacingAndGlyphs" textLength="35" x="1062.5" y="100.7729">length</text><ellipse cx="1053.5" cy="111.2695" fill="none" rx="3" ry="3" style="stroke: #038048; stroke-width: 1.0;"/><text fill="#000000" font-family="sans-serif" font-size="11" lengthAdjust="spacingAndGlyphs" textLength="53" x="1062.5" y="113.5776">mySigma</text><ellipse cx="1053.5" cy="124.0742" fill="none" rx="3" ry="3" style="stroke: #038048; stroke-width: 1.0;"/><text fill="#000000" font-family="sans-serif" font-size="11" lengthAdjust="spacingAndGlyphs" textLength="38" x="1062.5" y="126.3823">myTau</text><ellipse cx="1053.5" cy="136.8789" fill="none" rx="3" ry="3" style="stroke: #038048; stroke-width: 1.0;"/><text fill="#000000" font-family="sans-serif" font-size="11" lengthAdjust="spacingAndGlyphs" textLength="68" x="1062.5" y="139.187">numPrimals</text><ellipse cx="1053.5" cy="149.6836" fill="none" rx="3" ry="3" style="stroke: #038048; stroke-width: 1.0;"/><text fill="#000000" font-family="sans-serif" font-size="11" lengthAdjust="spacingAndGlyphs" textLength="51" x="1062.5" y="151.9917">numVars</text><ellipse cx="1053.5" cy="162.4883" fill="none" rx="3" ry="3" style="stroke: #038048; stroke-width: 1.0;"/><text fill="#000000" font-family="sans-serif" font-size="11" lengthAdjust="spacingAndGlyphs" textLength="49" x="1062.5" y="164.7964">operator</text><ellipse cx="1053.5" cy="175.293" fill="none" rx="3" ry="3" style="stroke: #038048; stroke-width: 1.0;"/><text fill="#000000" font-family="sans-serif" font-size="11" lengthAdjust="spacingAndGlyphs" textLength="56" x="1062.5" y="177.6011">operatorT</text><line style="stroke: #A80036; stroke-width: 1.5;" x1="1043.5" x2="1137.5" y1="184.1953" y2="184.1953"/><ellipse cx="1053.5" cy="196.0977" fill="#84BE84" rx="3" ry="3" style="stroke: #038048; stroke-width: 1.0;"/><text fill="#000000" font-family="sans-serif" font-size="11" lengthAdjust="spacingAndGlyphs" textLength="68" x="1062.5" y="198.4058">basicTerm()</text><ellipse cx="1053.5" cy="208.9023" fill="#84BE84" rx="3" ry="3" style="stroke: #038048; stroke-width: 1.0;"/><text fill="#000000" font-family="sans-serif" font-size="11" lengthAdjust="spacingAndGlyphs" textLength="25" x="1062.5" y="211.2104">init()</text><ellipse cx="1053.5" cy="221.707" fill="#84BE84" rx="3" ry="3" style="stroke: #038048; stroke-width: 1.0;"/><text fill="#000000" font-family="sans-serif" font-size="11" lengthAdjust="spacingAndGlyphs" textLength="43" x="1062.5" y="224.0151">xError()</text><ellipse cx="1053.5" cy="234.5117" fill="#84BE84" rx="3" ry="3" style="stroke: #038048; stroke-width: 1.0;"/><text fill="#000000" font-family="sans-serif" font-size="11" lengthAdjust="spacingAndGlyphs" textLength="41" x="1062.5" y="236.8198">xTilde()</text><ellipse cx="1053.5" cy="247.3164" fill="#84BE84" rx="3" ry="3" style="stroke: #038048; stroke-width: 1.0;"/><text fill="#000000" font-family="sans-serif" font-size="11" lengthAdjust="spacingAndGlyphs" textLength="43" x="1062.5" y="249.6245">yError()</text><ellipse cx="1053.5" cy="260.1211" fill="#84BE84" rx="3" ry="3" style="stroke: #038048; stroke-width: 1.0;"/><text fill="#000000" font-family="sans-serif" font-size="11" lengthAdjust="spacingAndGlyphs" textLength="41" x="1062.5" y="262.4292">yTilde()</text><!--class basicDualizedOperator--><rect fill="#FEFECE" filter="url(#fpq3o84)" height="60.8047" style="stroke: #A80036; stroke-width: 1.5;" width="173" x="514" y="335.4531"/><ellipse cx="529" cy="351.4531" fill="#E6FFE6" rx="11" ry="11" style="stroke: #A80036; stroke-width: 1.0;"/><path d="M530.9531,352.3594 L527.3125,352.3594 L527.3125,354.75 L527.5625,354.75 C528.0156,354.75 528.1875,354.7813 528.3281,354.9063 C528.5625,355.0781 528.6875,355.3281 528.6875,355.6094 C528.6875,355.8906 528.5313,356.1875 528.2813,356.3281 C528.1406,356.4219 527.9219,356.4531 527.5625,356.4531 L525.5156,356.4531 C525.1094,356.4531 524.8906,356.4063 524.7344,356.2969 C524.5313,356.125 524.3906,355.8594 524.3906,355.6094 C524.3906,355.3125 524.5469,355.0313 524.7969,354.875 C524.9531,354.7656 525.0938,354.75 525.5156,354.75 L525.6094,354.75 L525.6094,348.2344 C525.0469,348.1875 524.7344,347.8906 524.7344,347.3906 C524.7344,347.1094 524.8906,346.8125 525.1406,346.6563 C525.2969,346.5625 525.4219,346.5469 525.8594,346.5469 L527.5625,346.5469 C528.0313,346.5469 528.1875,346.5781 528.3281,346.6875 C528.5625,346.8594 528.6875,347.125 528.6875,347.3906 C528.6875,347.6875 528.5313,347.9688 528.2813,348.125 C528.125,348.2031 527.9844,348.2344 527.5625,348.2344 L527.3125,348.2344 L527.3125,350.6563 L530.9531,350.6563 L530.9531,348.2344 L530.7031,348.2344 C530.25,348.2344 530.1094,348.2031 529.9375,348.0938 C529.7188,347.9219 529.5781,347.6719 529.5781,347.3906 C529.5781,347.1094 529.7344,346.8125 529.9844,346.6563 C530.1406,346.5625 530.2656,346.5469 530.7031,346.5469 L532.4219,346.5469 C532.875,346.5469 533.0313,346.5781 533.2031,346.6875 C533.4063,346.8594 533.5313,347.125 533.5313,347.3906 C533.5313,347.8906 533.2188,348.1875 532.6563,348.2344 L532.6563,354.75 L532.75,354.75 C533.2188,354.75 533.3594,354.7813 533.5156,354.9063 C533.7344,355.0781 533.875,355.3281 533.875,355.6094 C533.875,355.8906 533.7188,356.1875 533.4688,356.3281 C533.3281,356.4219 533.1094,356.4531 532.75,356.4531 L530.7031,356.4531 C530.2969,356.4531 530.0938,356.4063 529.9375,356.2969 C529.7188,356.125 529.5781,355.8594 529.5781,355.6094 C529.5781,355.3125 529.7344,355.0313 529.9844,354.875 C530.1406,354.7656 530.2969,354.75 530.7031,354.75 L530.9531,354.75 Z "/><text fill="#000000" font-family="sans-serif" font-size="12" lengthAdjust="spacingAndGlyphs" textLength="141" x="543" y="355.6074">basicDualizedOperator</text><line style="stroke: #A80036; stroke-width: 1.5;" x1="515" x2="686" y1="367.4531" y2="367.4531"/><line style="stroke: #A80036; stroke-width: 1.5;" x1="515" x2="686" y1="375.4531" y2="375.4531"/><ellipse cx="525" cy="387.3555" fill="#84BE84" rx="3" ry="3" style="stroke: #038048; stroke-width: 1.0;"/><text fill="#000000" font-family="sans-serif" font-size="11" lengthAdjust="spacingAndGlyphs" textLength="136" x="534" y="389.6636">basicDualizedOperator()</text><!--class frobeniusOperator--><rect fill="#FEFECE" filter="url(#fpq3o84)" height="60.8047" style="stroke: #A80036; stroke-width: 1.5;" width="147" x="349" y="469.4531"/><ellipse cx="364" cy="485.4531" fill="#E6FFE6" rx="11" ry="11" style="stroke: #A80036; stroke-width: 1.0;"/><path d="M365.9531,486.3594 L362.3125,486.3594 L362.3125,488.75 L362.5625,488.75 C363.0156,488.75 363.1875,488.7813 363.3281,488.9063 C363.5625,489.0781 363.6875,489.3281 363.6875,489.6094 C363.6875,489.8906 363.5313,490.1875 363.2813,490.3281 C363.1406,490.4219 362.9219,490.4531 362.5625,490.4531 L360.5156,490.4531 C360.1094,490.4531 359.8906,490.4063 359.7344,490.2969 C359.5313,490.125 359.3906,489.8594 359.3906,489.6094 C359.3906,489.3125 359.5469,489.0313 359.7969,488.875 C359.9531,488.7656 360.0938,488.75 360.5156,488.75 L360.6094,488.75 L360.6094,482.2344 C360.0469,482.1875 359.7344,481.8906 359.7344,481.3906 C359.7344,481.1094 359.8906,480.8125 360.1406,480.6563 C360.2969,480.5625 360.4219,480.5469 360.8594,480.5469 L362.5625,480.5469 C363.0313,480.5469 363.1875,480.5781 363.3281,480.6875 C363.5625,480.8594 363.6875,481.125 363.6875,481.3906 C363.6875,481.6875 363.5313,481.9688 363.2813,482.125 C363.125,482.2031 362.9844,482.2344 362.5625,482.2344 L362.3125,482.2344 L362.3125,484.6563 L365.9531,484.6563 L365.9531,482.2344 L365.7031,482.2344 C365.25,482.2344 365.1094,482.2031 364.9375,482.0938 C364.7188,481.9219 364.5781,481.6719 364.5781,481.3906 C364.5781,481.1094 364.7344,480.8125 364.9844,480.6563 C365.1406,480.5625 365.2656,480.5469 365.7031,480.5469 L367.4219,480.5469 C367.875,480.5469 368.0313,480.5781 368.2031,480.6875 C368.4063,480.8594 368.5313,481.125 368.5313,481.3906 C368.5313,481.8906 368.2188,482.1875 367.6563,482.2344 L367.6563,488.75 L367.75,488.75 C368.2188,488.75 368.3594,488.7813 368.5156,488.9063 C368.7344,489.0781 368.875,489.3281 368.875,489.6094 C368.875,489.8906 368.7188,490.1875 368.4688,490.3281 C368.3281,490.4219 368.1094,490.4531 367.75,490.4531 L365.7031,490.4531 C365.2969,490.4531 365.0938,490.4063 364.9375,490.2969 C364.7188,490.125 364.5781,489.8594 364.5781,489.6094 C364.5781,489.3125 364.7344,489.0313 364.9844,488.875 C365.1406,488.7656 365.2969,488.75 365.7031,488.75 L365.9531,488.75 Z "/><text fill="#000000" font-family="sans-serif" font-size="12" lengthAdjust="spacingAndGlyphs" textLength="115" x="378" y="489.6074">frobeniusOperator</text><line style="stroke: #A80036; stroke-width: 1.5;" x1="350" x2="495" y1="501.4531" y2="501.4531"/><line style="stroke: #A80036; stroke-width: 1.5;" x1="350" x2="495" y1="509.4531" y2="509.4531"/><ellipse cx="360" cy="521.3555" fill="#84BE84" rx="3" ry="3" style="stroke: #038048; stroke-width: 1.0;"/><text fill="#000000" font-family="sans-serif" font-size="11" lengthAdjust="spacingAndGlyphs" textLength="113" x="369" y="523.6636">frobeniusOperator()</text><!--class huberOperator--><rect fill="#FEFECE" filter="url(#fpq3o84)" height="73.6094" style="stroke: #A80036; stroke-width: 1.5;" width="125" x="815" y="462.9531"/><ellipse cx="830" cy="478.9531" fill="#E6FFE6" rx="11" ry="11" style="stroke: #A80036; stroke-width: 1.0;"/><path d="M831.9531,479.8594 L828.3125,479.8594 L828.3125,482.25 L828.5625,482.25 C829.0156,482.25 829.1875,482.2813 829.3281,482.4063 C829.5625,482.5781 829.6875,482.8281 829.6875,483.1094 C829.6875,483.3906 829.5313,483.6875 829.2813,483.8281 C829.1406,483.9219 828.9219,483.9531 828.5625,483.9531 L826.5156,483.9531 C826.1094,483.9531 825.8906,483.9063 825.7344,483.7969 C825.5313,483.625 825.3906,483.3594 825.3906,483.1094 C825.3906,482.8125 825.5469,482.5313 825.7969,482.375 C825.9531,482.2656 826.0938,482.25 826.5156,482.25 L826.6094,482.25 L826.6094,475.7344 C826.0469,475.6875 825.7344,475.3906 825.7344,474.8906 C825.7344,474.6094 825.8906,474.3125 826.1406,474.1563 C826.2969,474.0625 826.4219,474.0469 826.8594,474.0469 L828.5625,474.0469 C829.0313,474.0469 829.1875,474.0781 829.3281,474.1875 C829.5625,474.3594 829.6875,474.625 829.6875,474.8906 C829.6875,475.1875 829.5313,475.4688 829.2813,475.625 C829.125,475.7031 828.9844,475.7344 828.5625,475.7344 L828.3125,475.7344 L828.3125,478.1563 L831.9531,478.1563 L831.9531,475.7344 L831.7031,475.7344 C831.25,475.7344 831.1094,475.7031 830.9375,475.5938 C830.7188,475.4219 830.5781,475.1719 830.5781,474.8906 C830.5781,474.6094 830.7344,474.3125 830.9844,474.1563 C831.1406,474.0625 831.2656,474.0469 831.7031,474.0469 L833.4219,474.0469 C833.875,474.0469 834.0313,474.0781 834.2031,474.1875 C834.4063,474.3594 834.5313,474.625 834.5313,474.8906 C834.5313,475.3906 834.2188,475.6875 833.6563,475.7344 L833.6563,482.25 L833.75,482.25 C834.2188,482.25 834.3594,482.2813 834.5156,482.4063 C834.7344,482.5781 834.875,482.8281 834.875,483.1094 C834.875,483.3906 834.7188,483.6875 834.4688,483.8281 C834.3281,483.9219 834.1094,483.9531 833.75,483.9531 L831.7031,483.9531 C831.2969,483.9531 831.0938,483.9063 830.9375,483.7969 C830.7188,483.625 830.5781,483.3594 830.5781,483.1094 C830.5781,482.8125 830.7344,482.5313 830.9844,482.375 C831.1406,482.2656 831.2969,482.25 831.7031,482.25 L831.9531,482.25 Z "/><text fill="#000000" font-family="sans-serif" font-size="12" lengthAdjust="spacingAndGlyphs" textLength="93" x="844" y="483.1074">huberOperator</text><line style="stroke: #A80036; stroke-width: 1.5;" x1="816" x2="939" y1="494.9531" y2="494.9531"/><ellipse cx="826" cy="506.8555" fill="none" rx="3" ry="3" style="stroke: #038048; stroke-width: 1.0;"/><text fill="#000000" font-family="sans-serif" font-size="11" lengthAdjust="spacingAndGlyphs" textLength="24" x="835" y="509.1636">epsi</text><line style="stroke: #A80036; stroke-width: 1.5;" x1="816" x2="939" y1="515.7578" y2="515.7578"/><ellipse cx="826" cy="527.6602" fill="#84BE84" rx="3" ry="3" style="stroke: #038048; stroke-width: 1.0;"/><text fill="#000000" font-family="sans-serif" font-size="11" lengthAdjust="spacingAndGlyphs" textLength="92" x="835" y="529.9683">huberOperator()</text><!--class innerProductOperator--><rect fill="#FEFECE" filter="url(#fpq3o84)" height="60.8047" style="stroke: #A80036; stroke-width: 1.5;" width="169" x="1086" y="469.4531"/><ellipse cx="1101" cy="485.4531" fill="#E6FFE6" rx="11" ry="11" style="stroke: #A80036; stroke-width: 1.0;"/><path d="M1102.9531,486.3594 L1099.3125,486.3594 L1099.3125,488.75 L1099.5625,488.75 C1100.0156,488.75 1100.1875,488.7813 1100.3281,488.9063 C1100.5625,489.0781 1100.6875,489.3281 1100.6875,489.6094 C1100.6875,489.8906 1100.5313,490.1875 1100.2813,490.3281 C1100.1406,490.4219 1099.9219,490.4531 1099.5625,490.4531 L1097.5156,490.4531 C1097.1094,490.4531 1096.8906,490.4063 1096.7344,490.2969 C1096.5313,490.125 1096.3906,489.8594 1096.3906,489.6094 C1096.3906,489.3125 1096.5469,489.0313 1096.7969,488.875 C1096.9531,488.7656 1097.0938,488.75 1097.5156,488.75 L1097.6094,488.75 L1097.6094,482.2344 C1097.0469,482.1875 1096.7344,481.8906 1096.7344,481.3906 C1096.7344,481.1094 1096.8906,480.8125 1097.1406,480.6563 C1097.2969,480.5625 1097.4219,480.5469 1097.8594,480.5469 L1099.5625,480.5469 C1100.0313,480.5469 1100.1875,480.5781 1100.3281,480.6875 C1100.5625,480.8594 1100.6875,481.125 1100.6875,481.3906 C1100.6875,481.6875 1100.5313,481.9688 1100.2813,482.125 C1100.125,482.2031 1099.9844,482.2344 1099.5625,482.2344 L1099.3125,482.2344 L1099.3125,484.6563 L1102.9531,484.6563 L1102.9531,482.2344 L1102.7031,482.2344 C1102.25,482.2344 1102.1094,482.2031 1101.9375,482.0938 C1101.7188,481.9219 1101.5781,481.6719 1101.5781,481.3906 C1101.5781,481.1094 1101.7344,480.8125 1101.9844,480.6563 C1102.1406,480.5625 1102.2656,480.5469 1102.7031,480.5469 L1104.4219,480.5469 C1104.875,480.5469 1105.0313,480.5781 1105.2031,480.6875 C1105.4063,480.8594 1105.5313,481.125 1105.5313,481.3906 C1105.5313,481.8906 1105.2188,482.1875 1104.6563,482.2344 L1104.6563,488.75 L1104.75,488.75 C1105.2188,488.75 1105.3594,488.7813 1105.5156,488.9063 C1105.7344,489.0781 1105.875,489.3281 1105.875,489.6094 C1105.875,489.8906 1105.7188,490.1875 1105.4688,490.3281 C1105.3281,490.4219 1105.1094,490.4531 1104.75,490.4531 L1102.7031,490.4531 C1102.2969,490.4531 1102.0938,490.4063 1101.9375,490.2969 C1101.7188,490.125 1101.5781,489.8594 1101.5781,489.6094 C1101.5781,489.3125 1101.7344,489.0313 1101.9844,488.875 C1102.1406,488.7656 1102.2969,488.75 1102.7031,488.75 L1102.9531,488.75 Z "/><text fill="#000000" font-family="sans-serif" font-size="12" lengthAdjust="spacingAndGlyphs" textLength="137" x="1115" y="489.6074">innerProductOperator</text><line style="stroke: #A80036; stroke-width: 1.5;" x1="1087" x2="1254" y1="501.4531" y2="501.4531"/><line style="stroke: #A80036; stroke-width: 1.5;" x1="1087" x2="1254" y1="509.4531" y2="509.4531"/><ellipse cx="1097" cy="521.3555" fill="#84BE84" rx="3" ry="3" style="stroke: #038048; stroke-width: 1.0;"/><text fill="#000000" font-family="sans-serif" font-size="11" lengthAdjust="spacingAndGlyphs" textLength="131" x="1106" y="523.6636">innerProductOperator()</text><!--class L1operatorAniso--><rect fill="#FEFECE" filter="url(#fpq3o84)" height="60.8047" style="stroke: #A80036; stroke-width: 1.5;" width="135" x="160" y="469.4531"/><ellipse cx="175" cy="485.4531" fill="#E6FFE6" rx="11" ry="11" style="stroke: #A80036; stroke-width: 1.0;"/><path d="M176.9531,486.3594 L173.3125,486.3594 L173.3125,488.75 L173.5625,488.75 C174.0156,488.75 174.1875,488.7813 174.3281,488.9063 C174.5625,489.0781 174.6875,489.3281 174.6875,489.6094 C174.6875,489.8906 174.5313,490.1875 174.2813,490.3281 C174.1406,490.4219 173.9219,490.4531 173.5625,490.4531 L171.5156,490.4531 C171.1094,490.4531 170.8906,490.4063 170.7344,490.2969 C170.5313,490.125 170.3906,489.8594 170.3906,489.6094 C170.3906,489.3125 170.5469,489.0313 170.7969,488.875 C170.9531,488.7656 171.0938,488.75 171.5156,488.75 L171.6094,488.75 L171.6094,482.2344 C171.0469,482.1875 170.7344,481.8906 170.7344,481.3906 C170.7344,481.1094 170.8906,480.8125 171.1406,480.6563 C171.2969,480.5625 171.4219,480.5469 171.8594,480.5469 L173.5625,480.5469 C174.0313,480.5469 174.1875,480.5781 174.3281,480.6875 C174.5625,480.8594 174.6875,481.125 174.6875,481.3906 C174.6875,481.6875 174.5313,481.9688 174.2813,482.125 C174.125,482.2031 173.9844,482.2344 173.5625,482.2344 L173.3125,482.2344 L173.3125,484.6563 L176.9531,484.6563 L176.9531,482.2344 L176.7031,482.2344 C176.25,482.2344 176.1094,482.2031 175.9375,482.0938 C175.7188,481.9219 175.5781,481.6719 175.5781,481.3906 C175.5781,481.1094 175.7344,480.8125 175.9844,480.6563 C176.1406,480.5625 176.2656,480.5469 176.7031,480.5469 L178.4219,480.5469 C178.875,480.5469 179.0313,480.5781 179.2031,480.6875 C179.4063,480.8594 179.5313,481.125 179.5313,481.3906 C179.5313,481.8906 179.2188,482.1875 178.6563,482.2344 L178.6563,488.75 L178.75,488.75 C179.2188,488.75 179.3594,488.7813 179.5156,488.9063 C179.7344,489.0781 179.875,489.3281 179.875,489.6094 C179.875,489.8906 179.7188,490.1875 179.4688,490.3281 C179.3281,490.4219 179.1094,490.4531 178.75,490.4531 L176.7031,490.4531 C176.2969,490.4531 176.0938,490.4063 175.9375,490.2969 C175.7188,490.125 175.5781,489.8594 175.5781,489.6094 C175.5781,489.3125 175.7344,489.0313 175.9844,488.875 C176.1406,488.7656 176.2969,488.75 176.7031,488.75 L176.9531,488.75 Z "/><text fill="#000000" font-family="sans-serif" font-size="12" lengthAdjust="spacingAndGlyphs" textLength="103" x="189" y="489.6074">L1operatorAniso</text><line style="stroke: #A80036; stroke-width: 1.5;" x1="161" x2="294" y1="501.4531" y2="501.4531"/><line style="stroke: #A80036; stroke-width: 1.5;" x1="161" x2="294" y1="509.4531" y2="509.4531"/><ellipse cx="171" cy="521.3555" fill="#84BE84" rx="3" ry="3" style="stroke: #038048; stroke-width: 1.0;"/><text fill="#000000" font-family="sans-serif" font-size="11" lengthAdjust="spacingAndGlyphs" textLength="101" x="180" y="523.6636">L1operatorAniso()</text><!--class L1operatorIso--><rect fill="#FEFECE" filter="url(#fpq3o84)" height="60.8047" style="stroke: #A80036; stroke-width: 1.5;" width="119" x="6" y="469.4531"/><ellipse cx="21" cy="485.4531" fill="#E6FFE6" rx="11" ry="11" style="stroke: #A80036; stroke-width: 1.0;"/><path d="M22.9531,486.3594 L19.3125,486.3594 L19.3125,488.75 L19.5625,488.75 C20.0156,488.75 20.1875,488.7813 20.3281,488.9063 C20.5625,489.0781 20.6875,489.3281 20.6875,489.6094 C20.6875,489.8906 20.5313,490.1875 20.2813,490.3281 C20.1406,490.4219 19.9219,490.4531 19.5625,490.4531 L17.5156,490.4531 C17.1094,490.4531 16.8906,490.4063 16.7344,490.2969 C16.5313,490.125 16.3906,489.8594 16.3906,489.6094 C16.3906,489.3125 16.5469,489.0313 16.7969,488.875 C16.9531,488.7656 17.0938,488.75 17.5156,488.75 L17.6094,488.75 L17.6094,482.2344 C17.0469,482.1875 16.7344,481.8906 16.7344,481.3906 C16.7344,481.1094 16.8906,480.8125 17.1406,480.6563 C17.2969,480.5625 17.4219,480.5469 17.8594,480.5469 L19.5625,480.5469 C20.0313,480.5469 20.1875,480.5781 20.3281,480.6875 C20.5625,480.8594 20.6875,481.125 20.6875,481.3906 C20.6875,481.6875 20.5313,481.9688 20.2813,482.125 C20.125,482.2031 19.9844,482.2344 19.5625,482.2344 L19.3125,482.2344 L19.3125,484.6563 L22.9531,484.6563 L22.9531,482.2344 L22.7031,482.2344 C22.25,482.2344 22.1094,482.2031 21.9375,482.0938 C21.7188,481.9219 21.5781,481.6719 21.5781,481.3906 C21.5781,481.1094 21.7344,480.8125 21.9844,480.6563 C22.1406,480.5625 22.2656,480.5469 22.7031,480.5469 L24.4219,480.5469 C24.875,480.5469 25.0313,480.5781 25.2031,480.6875 C25.4063,480.8594 25.5313,481.125 25.5313,481.3906 C25.5313,481.8906 25.2188,482.1875 24.6563,482.2344 L24.6563,488.75 L24.75,488.75 C25.2188,488.75 25.3594,488.7813 25.5156,488.9063 C25.7344,489.0781 25.875,489.3281 25.875,489.6094 C25.875,489.8906 25.7188,490.1875 25.4688,490.3281 C25.3281,490.4219 25.1094,490.4531 24.75,490.4531 L22.7031,490.4531 C22.2969,490.4531 22.0938,490.4063 21.9375,490.2969 C21.7188,490.125 21.5781,489.8594 21.5781,489.6094 C21.5781,489.3125 21.7344,489.0313 21.9844,488.875 C22.1406,488.7656 22.2969,488.75 22.7031,488.75 L22.9531,488.75 Z "/><text fill="#000000" font-family="sans-serif" font-size="12" lengthAdjust="spacingAndGlyphs" textLength="87" x="35" y="489.6074">L1operatorIso</text><line style="stroke: #A80036; stroke-width: 1.5;" x1="7" x2="124" y1="501.4531" y2="501.4531"/><line style="stroke: #A80036; stroke-width: 1.5;" x1="7" x2="124" y1="509.4531" y2="509.4531"/><ellipse cx="17" cy="521.3555" fill="#84BE84" rx="3" ry="3" style="stroke: #038048; stroke-width: 1.0;"/><text fill="#000000" font-family="sans-serif" font-size="11" lengthAdjust="spacingAndGlyphs" textLength="87" x="26" y="523.6636">L1operatorIso()</text><!--class L2operator--><rect fill="#FEFECE" filter="url(#fpq3o84)" height="60.8047" style="stroke: #A80036; stroke-width: 1.5;" width="101" x="593" y="469.4531"/><ellipse cx="608" cy="485.4531" fill="#E6FFE6" rx="11" ry="11" style="stroke: #A80036; stroke-width: 1.0;"/><path d="M609.9531,486.3594 L606.3125,486.3594 L606.3125,488.75 L606.5625,488.75 C607.0156,488.75 607.1875,488.7813 607.3281,488.9063 C607.5625,489.0781 607.6875,489.3281 607.6875,489.6094 C607.6875,489.8906 607.5313,490.1875 607.2813,490.3281 C607.1406,490.4219 606.9219,490.4531 606.5625,490.4531 L604.5156,490.4531 C604.1094,490.4531 603.8906,490.4063 603.7344,490.2969 C603.5313,490.125 603.3906,489.8594 603.3906,489.6094 C603.3906,489.3125 603.5469,489.0313 603.7969,488.875 C603.9531,488.7656 604.0938,488.75 604.5156,488.75 L604.6094,488.75 L604.6094,482.2344 C604.0469,482.1875 603.7344,481.8906 603.7344,481.3906 C603.7344,481.1094 603.8906,480.8125 604.1406,480.6563 C604.2969,480.5625 604.4219,480.5469 604.8594,480.5469 L606.5625,480.5469 C607.0313,480.5469 607.1875,480.5781 607.3281,480.6875 C607.5625,480.8594 607.6875,481.125 607.6875,481.3906 C607.6875,481.6875 607.5313,481.9688 607.2813,482.125 C607.125,482.2031 606.9844,482.2344 606.5625,482.2344 L606.3125,482.2344 L606.3125,484.6563 L609.9531,484.6563 L609.9531,482.2344 L609.7031,482.2344 C609.25,482.2344 609.1094,482.2031 608.9375,482.0938 C608.7188,481.9219 608.5781,481.6719 608.5781,481.3906 C608.5781,481.1094 608.7344,480.8125 608.9844,480.6563 C609.1406,480.5625 609.2656,480.5469 609.7031,480.5469 L611.4219,480.5469 C611.875,480.5469 612.0313,480.5781 612.2031,480.6875 C612.4063,480.8594 612.5313,481.125 612.5313,481.3906 C612.5313,481.8906 612.2188,482.1875 611.6563,482.2344 L611.6563,488.75 L611.75,488.75 C612.2188,488.75 612.3594,488.7813 612.5156,488.9063 C612.7344,489.0781 612.875,489.3281 612.875,489.6094 C612.875,489.8906 612.7188,490.1875 612.4688,490.3281 C612.3281,490.4219 612.1094,490.4531 611.75,490.4531 L609.7031,490.4531 C609.2969,490.4531 609.0938,490.4063 608.9375,490.2969 C608.7188,490.125 608.5781,489.8594 608.5781,489.6094 C608.5781,489.3125 608.7344,489.0313 608.9844,488.875 C609.1406,488.7656 609.2969,488.75 609.7031,488.75 L609.9531,488.75 Z "/><text fill="#000000" font-family="sans-serif" font-size="12" lengthAdjust="spacingAndGlyphs" textLength="69" x="622" y="489.6074">L2operator</text><line style="stroke: #A80036; stroke-width: 1.5;" x1="594" x2="693" y1="501.4531" y2="501.4531"/><line style="stroke: #A80036; stroke-width: 1.5;" x1="594" x2="693" y1="509.4531" y2="509.4531"/><ellipse cx="604" cy="521.3555" fill="#84BE84" rx="3" ry="3" style="stroke: #038048; stroke-width: 1.0;"/><text fill="#000000" font-family="sans-serif" font-size="11" lengthAdjust="spacingAndGlyphs" textLength="70" x="613" y="523.6636">L2operator()</text><!--class basicProx--><rect fill="#FEFECE" filter="url(#fpq3o84)" height="60.8047" style="stroke: #A80036; stroke-width: 1.5;" width="92" x="531.5" y="118.4531"/><ellipse cx="546.5" cy="134.4531" fill="#E6FFE6" rx="11" ry="11" style="stroke: #A80036; stroke-width: 1.0;"/><path d="M548.0781,136.2656 L544.0313,136.2656 L543.6406,137.25 L544.0313,137.25 C544.4844,137.25 544.625,137.2813 544.7969,137.4063 C545.0156,137.5781 545.1406,137.8281 545.1406,138.1094 C545.1406,138.3906 545,138.6875 544.7344,138.8281 C544.6094,138.9219 544.3906,138.9531 544.0313,138.9531 L541.7656,138.9531 C541.0156,138.9531 540.6406,138.6719 540.6406,138.1094 C540.6406,137.8125 540.7969,137.5313 541.0469,137.375 C541.2031,137.2656 541.3594,137.25 541.7813,137.25 L544.4219,130.7344 L543.3438,130.7344 C542.9063,130.7344 542.7344,130.7031 542.5625,130.5938 C542.3438,130.4219 542.2031,130.1719 542.2031,129.8906 C542.2031,129.6094 542.3594,129.3281 542.6094,129.1563 C542.7656,129.0625 542.8906,129.0469 543.3438,129.0469 L547.0156,129.0469 L550.4063,137.25 C550.875,137.25 551.0313,137.2813 551.2031,137.4219 C551.4219,137.5781 551.5625,137.8281 551.5625,138.1094 C551.5625,138.3906 551.4063,138.6875 551.1563,138.8281 C551.0156,138.9219 550.7969,138.9531 550.4375,138.9531 L548.0781,138.9531 C547.6563,138.9531 547.4531,138.9063 547.3125,138.7813 C547.0938,138.625 546.9531,138.375 546.9531,138.1094 C546.9531,137.8125 547.1094,137.5313 547.3594,137.375 C547.5156,137.2656 547.625,137.25 548.0781,137.25 L548.4688,137.25 Z M547.375,134.5625 L546.0469,131.2969 L544.7031,134.5625 Z "/><text fill="#000000" font-family="sans-serif" font-size="12" lengthAdjust="spacingAndGlyphs" textLength="60" x="560.5" y="138.6074">basicProx</text><line style="stroke: #A80036; stroke-width: 1.5;" x1="532.5" x2="622.5" y1="150.4531" y2="150.4531"/><line style="stroke: #A80036; stroke-width: 1.5;" x1="532.5" x2="622.5" y1="158.4531" y2="158.4531"/><ellipse cx="542.5" cy="170.3555" fill="#84BE84" rx="3" ry="3" style="stroke: #038048; stroke-width: 1.0;"/><text fill="#000000" font-family="sans-serif" font-size="11" lengthAdjust="spacingAndGlyphs" textLength="63" x="551.5" y="172.6636">applyProx()</text><!--class FrobeniusProxDual--><rect fill="#FEFECE" filter="url(#fpq3o84)" height="73.6094" style="stroke: #A80036; stroke-width: 1.5;" width="149" x="330" y="328.9531"/><ellipse cx="345" cy="344.9531" fill="#E6FFE6" rx="11" ry="11" style="stroke: #A80036; stroke-width: 1.0;"/><path d="M346.9531,345.8594 L343.3125,345.8594 L343.3125,348.25 L343.5625,348.25 C344.0156,348.25 344.1875,348.2813 344.3281,348.4063 C344.5625,348.5781 344.6875,348.8281 344.6875,349.1094 C344.6875,349.3906 344.5313,349.6875 344.2813,349.8281 C344.1406,349.9219 343.9219,349.9531 343.5625,349.9531 L341.5156,349.9531 C341.1094,349.9531 340.8906,349.9063 340.7344,349.7969 C340.5313,349.625 340.3906,349.3594 340.3906,349.1094 C340.3906,348.8125 340.5469,348.5313 340.7969,348.375 C340.9531,348.2656 341.0938,348.25 341.5156,348.25 L341.6094,348.25 L341.6094,341.7344 C341.0469,341.6875 340.7344,341.3906 340.7344,340.8906 C340.7344,340.6094 340.8906,340.3125 341.1406,340.1563 C341.2969,340.0625 341.4219,340.0469 341.8594,340.0469 L343.5625,340.0469 C344.0313,340.0469 344.1875,340.0781 344.3281,340.1875 C344.5625,340.3594 344.6875,340.625 344.6875,340.8906 C344.6875,341.1875 344.5313,341.4688 344.2813,341.625 C344.125,341.7031 343.9844,341.7344 343.5625,341.7344 L343.3125,341.7344 L343.3125,344.1563 L346.9531,344.1563 L346.9531,341.7344 L346.7031,341.7344 C346.25,341.7344 346.1094,341.7031 345.9375,341.5938 C345.7188,341.4219 345.5781,341.1719 345.5781,340.8906 C345.5781,340.6094 345.7344,340.3125 345.9844,340.1563 C346.1406,340.0625 346.2656,340.0469 346.7031,340.0469 L348.4219,340.0469 C348.875,340.0469 349.0313,340.0781 349.2031,340.1875 C349.4063,340.3594 349.5313,340.625 349.5313,340.8906 C349.5313,341.3906 349.2188,341.6875 348.6563,341.7344 L348.6563,348.25 L348.75,348.25 C349.2188,348.25 349.3594,348.2813 349.5156,348.4063 C349.7344,348.5781 349.875,348.8281 349.875,349.1094 C349.875,349.3906 349.7188,349.6875 349.4688,349.8281 C349.3281,349.9219 349.1094,349.9531 348.75,349.9531 L346.7031,349.9531 C346.2969,349.9531 346.0938,349.9063 345.9375,349.7969 C345.7188,349.625 345.5781,349.3594 345.5781,349.1094 C345.5781,348.8125 345.7344,348.5313 345.9844,348.375 C346.1406,348.2656 346.2969,348.25 346.7031,348.25 L346.9531,348.25 Z "/><text fill="#000000" font-family="sans-serif" font-size="12" lengthAdjust="spacingAndGlyphs" textLength="117" x="359" y="349.1074">FrobeniusProxDual</text><line style="stroke: #A80036; stroke-width: 1.5;" x1="331" x2="478" y1="360.9531" y2="360.9531"/><line style="stroke: #A80036; stroke-width: 1.5;" x1="331" x2="478" y1="368.9531" y2="368.9531"/><ellipse cx="341" cy="380.8555" fill="#84BE84" rx="3" ry="3" style="stroke: #038048; stroke-width: 1.0;"/><text fill="#000000" font-family="sans-serif" font-size="11" lengthAdjust="spacingAndGlyphs" textLength="114" x="350" y="383.1636">FrobeniusProxDual()</text><ellipse cx="341" cy="393.6602" fill="#84BE84" rx="3" ry="3" style="stroke: #038048; stroke-width: 1.0;"/><text fill="#000000" font-family="sans-serif" font-size="11" lengthAdjust="spacingAndGlyphs" textLength="63" x="350" y="395.9683">applyProx()</text><!--class HuberProxDual--><rect fill="#FEFECE" filter="url(#fpq3o84)" height="73.6094" style="stroke: #A80036; stroke-width: 1.5;" width="125" x="858" y="328.9531"/><ellipse cx="873" cy="344.9531" fill="#E6FFE6" rx="11" ry="11" style="stroke: #A80036; stroke-width: 1.0;"/><path d="M874.9531,345.8594 L871.3125,345.8594 L871.3125,348.25 L871.5625,348.25 C872.0156,348.25 872.1875,348.2813 872.3281,348.4063 C872.5625,348.5781 872.6875,348.8281 872.6875,349.1094 C872.6875,349.3906 872.5313,349.6875 872.2813,349.8281 C872.1406,349.9219 871.9219,349.9531 871.5625,349.9531 L869.5156,349.9531 C869.1094,349.9531 868.8906,349.9063 868.7344,349.7969 C868.5313,349.625 868.3906,349.3594 868.3906,349.1094 C868.3906,348.8125 868.5469,348.5313 868.7969,348.375 C868.9531,348.2656 869.0938,348.25 869.5156,348.25 L869.6094,348.25 L869.6094,341.7344 C869.0469,341.6875 868.7344,341.3906 868.7344,340.8906 C868.7344,340.6094 868.8906,340.3125 869.1406,340.1563 C869.2969,340.0625 869.4219,340.0469 869.8594,340.0469 L871.5625,340.0469 C872.0313,340.0469 872.1875,340.0781 872.3281,340.1875 C872.5625,340.3594 872.6875,340.625 872.6875,340.8906 C872.6875,341.1875 872.5313,341.4688 872.2813,341.625 C872.125,341.7031 871.9844,341.7344 871.5625,341.7344 L871.3125,341.7344 L871.3125,344.1563 L874.9531,344.1563 L874.9531,341.7344 L874.7031,341.7344 C874.25,341.7344 874.1094,341.7031 873.9375,341.5938 C873.7188,341.4219 873.5781,341.1719 873.5781,340.8906 C873.5781,340.6094 873.7344,340.3125 873.9844,340.1563 C874.1406,340.0625 874.2656,340.0469 874.7031,340.0469 L876.4219,340.0469 C876.875,340.0469 877.0313,340.0781 877.2031,340.1875 C877.4063,340.3594 877.5313,340.625 877.5313,340.8906 C877.5313,341.3906 877.2188,341.6875 876.6563,341.7344 L876.6563,348.25 L876.75,348.25 C877.2188,348.25 877.3594,348.2813 877.5156,348.4063 C877.7344,348.5781 877.875,348.8281 877.875,349.1094 C877.875,349.3906 877.7188,349.6875 877.4688,349.8281 C877.3281,349.9219 877.1094,349.9531 876.75,349.9531 L874.7031,349.9531 C874.2969,349.9531 874.0938,349.9063 873.9375,349.7969 C873.7188,349.625 873.5781,349.3594 873.5781,349.1094 C873.5781,348.8125 873.7344,348.5313 873.9844,348.375 C874.1406,348.2656 874.2969,348.25 874.7031,348.25 L874.9531,348.25 Z "/><text fill="#000000" font-family="sans-serif" font-size="12" lengthAdjust="spacingAndGlyphs" textLength="93" x="887" y="349.1074">HuberProxDual</text><line style="stroke: #A80036; stroke-width: 1.5;" x1="859" x2="982" y1="360.9531" y2="360.9531"/><line style="stroke: #A80036; stroke-width: 1.5;" x1="859" x2="982" y1="368.9531" y2="368.9531"/><ellipse cx="869" cy="380.8555" fill="#84BE84" rx="3" ry="3" style="stroke: #038048; stroke-width: 1.0;"/><text fill="#000000" font-family="sans-serif" font-size="11" lengthAdjust="spacingAndGlyphs" textLength="92" x="878" y="383.1636">HuberProxDual()</text><ellipse cx="869" cy="393.6602" fill="#84BE84" rx="3" ry="3" style="stroke: #038048; stroke-width: 1.0;"/><text fill="#000000" font-family="sans-serif" font-size="11" lengthAdjust="spacingAndGlyphs" textLength="63" x="878" y="395.9683">applyProx()</text><!--class innerProductProxDual--><rect fill="#FEFECE" filter="url(#fpq3o84)" height="73.6094" style="stroke: #A80036; stroke-width: 1.5;" width="168" x="1018.5" y="328.9531"/><ellipse cx="1033.5" cy="344.9531" fill="#E6FFE6" rx="11" ry="11" style="stroke: #A80036; stroke-width: 1.0;"/><path d="M1035.4531,345.8594 L1031.8125,345.8594 L1031.8125,348.25 L1032.0625,348.25 C1032.5156,348.25 1032.6875,348.2813 1032.8281,348.4063 C1033.0625,348.5781 1033.1875,348.8281 1033.1875,349.1094 C1033.1875,349.3906 1033.0313,349.6875 1032.7813,349.8281 C1032.6406,349.9219 1032.4219,349.9531 1032.0625,349.9531 L1030.0156,349.9531 C1029.6094,349.9531 1029.3906,349.9063 1029.2344,349.7969 C1029.0313,349.625 1028.8906,349.3594 1028.8906,349.1094 C1028.8906,348.8125 1029.0469,348.5313 1029.2969,348.375 C1029.4531,348.2656 1029.5938,348.25 1030.0156,348.25 L1030.1094,348.25 L1030.1094,341.7344 C1029.5469,341.6875 1029.2344,341.3906 1029.2344,340.8906 C1029.2344,340.6094 1029.3906,340.3125 1029.6406,340.1563 C1029.7969,340.0625 1029.9219,340.0469 1030.3594,340.0469 L1032.0625,340.0469 C1032.5313,340.0469 1032.6875,340.0781 1032.8281,340.1875 C1033.0625,340.3594 1033.1875,340.625 1033.1875,340.8906 C1033.1875,341.1875 1033.0313,341.4688 1032.7813,341.625 C1032.625,341.7031 1032.4844,341.7344 1032.0625,341.7344 L1031.8125,341.7344 L1031.8125,344.1563 L1035.4531,344.1563 L1035.4531,341.7344 L1035.2031,341.7344 C1034.75,341.7344 1034.6094,341.7031 1034.4375,341.5938 C1034.2188,341.4219 1034.0781,341.1719 1034.0781,340.8906 C1034.0781,340.6094 1034.2344,340.3125 1034.4844,340.1563 C1034.6406,340.0625 1034.7656,340.0469 1035.2031,340.0469 L1036.9219,340.0469 C1037.375,340.0469 1037.5313,340.0781 1037.7031,340.1875 C1037.9063,340.3594 1038.0313,340.625 1038.0313,340.8906 C1038.0313,341.3906 1037.7188,341.6875 1037.1563,341.7344 L1037.1563,348.25 L1037.25,348.25 C1037.7188,348.25 1037.8594,348.2813 1038.0156,348.4063 C1038.2344,348.5781 1038.375,348.8281 1038.375,349.1094 C1038.375,349.3906 1038.2188,349.6875 1037.9688,349.8281 C1037.8281,349.9219 1037.6094,349.9531 1037.25,349.9531 L1035.2031,349.9531 C1034.7969,349.9531 1034.5938,349.9063 1034.4375,349.7969 C1034.2188,349.625 1034.0781,349.3594 1034.0781,349.1094 C1034.0781,348.8125 1034.2344,348.5313 1034.4844,348.375 C1034.6406,348.2656 1034.7969,348.25 1035.2031,348.25 L1035.4531,348.25 Z "/><text fill="#000000" font-family="sans-serif" font-size="12" lengthAdjust="spacingAndGlyphs" textLength="136" x="1047.5" y="349.1074">innerProductProxDual</text><line style="stroke: #A80036; stroke-width: 1.5;" x1="1019.5" x2="1185.5" y1="360.9531" y2="360.9531"/><line style="stroke: #A80036; stroke-width: 1.5;" x1="1019.5" x2="1185.5" y1="368.9531" y2="368.9531"/><ellipse cx="1029.5" cy="380.8555" fill="#84BE84" rx="3" ry="3" style="stroke: #038048; stroke-width: 1.0;"/><text fill="#000000" font-family="sans-serif" font-size="11" lengthAdjust="spacingAndGlyphs" textLength="130" x="1038.5" y="383.1636">innerProductProxDual()</text><ellipse cx="1029.5" cy="393.6602" fill="#84BE84" rx="3" ry="3" style="stroke: #038048; stroke-width: 1.0;"/><text fill="#000000" font-family="sans-serif" font-size="11" lengthAdjust="spacingAndGlyphs" textLength="63" x="1038.5" y="395.9683">applyProx()</text><!--class L1AnisoProxDual--><rect fill="#FEFECE" filter="url(#fpq3o84)" height="73.6094" style="stroke: #A80036; stroke-width: 1.5;" width="135" x="160" y="328.9531"/><ellipse cx="175" cy="344.9531" fill="#E6FFE6" rx="11" ry="11" style="stroke: #A80036; stroke-width: 1.0;"/><path d="M176.9531,345.8594 L173.3125,345.8594 L173.3125,348.25 L173.5625,348.25 C174.0156,348.25 174.1875,348.2813 174.3281,348.4063 C174.5625,348.5781 174.6875,348.8281 174.6875,349.1094 C174.6875,349.3906 174.5313,349.6875 174.2813,349.8281 C174.1406,349.9219 173.9219,349.9531 173.5625,349.9531 L171.5156,349.9531 C171.1094,349.9531 170.8906,349.9063 170.7344,349.7969 C170.5313,349.625 170.3906,349.3594 170.3906,349.1094 C170.3906,348.8125 170.5469,348.5313 170.7969,348.375 C170.9531,348.2656 171.0938,348.25 171.5156,348.25 L171.6094,348.25 L171.6094,341.7344 C171.0469,341.6875 170.7344,341.3906 170.7344,340.8906 C170.7344,340.6094 170.8906,340.3125 171.1406,340.1563 C171.2969,340.0625 171.4219,340.0469 171.8594,340.0469 L173.5625,340.0469 C174.0313,340.0469 174.1875,340.0781 174.3281,340.1875 C174.5625,340.3594 174.6875,340.625 174.6875,340.8906 C174.6875,341.1875 174.5313,341.4688 174.2813,341.625 C174.125,341.7031 173.9844,341.7344 173.5625,341.7344 L173.3125,341.7344 L173.3125,344.1563 L176.9531,344.1563 L176.9531,341.7344 L176.7031,341.7344 C176.25,341.7344 176.1094,341.7031 175.9375,341.5938 C175.7188,341.4219 175.5781,341.1719 175.5781,340.8906 C175.5781,340.6094 175.7344,340.3125 175.9844,340.1563 C176.1406,340.0625 176.2656,340.0469 176.7031,340.0469 L178.4219,340.0469 C178.875,340.0469 179.0313,340.0781 179.2031,340.1875 C179.4063,340.3594 179.5313,340.625 179.5313,340.8906 C179.5313,341.3906 179.2188,341.6875 178.6563,341.7344 L178.6563,348.25 L178.75,348.25 C179.2188,348.25 179.3594,348.2813 179.5156,348.4063 C179.7344,348.5781 179.875,348.8281 179.875,349.1094 C179.875,349.3906 179.7188,349.6875 179.4688,349.8281 C179.3281,349.9219 179.1094,349.9531 178.75,349.9531 L176.7031,349.9531 C176.2969,349.9531 176.0938,349.9063 175.9375,349.7969 C175.7188,349.625 175.5781,349.3594 175.5781,349.1094 C175.5781,348.8125 175.7344,348.5313 175.9844,348.375 C176.1406,348.2656 176.2969,348.25 176.7031,348.25 L176.9531,348.25 Z "/><text fill="#000000" font-family="sans-serif" font-size="12" lengthAdjust="spacingAndGlyphs" textLength="103" x="189" y="349.1074">L1AnisoProxDual</text><line style="stroke: #A80036; stroke-width: 1.5;" x1="161" x2="294" y1="360.9531" y2="360.9531"/><line style="stroke: #A80036; stroke-width: 1.5;" x1="161" x2="294" y1="368.9531" y2="368.9531"/><ellipse cx="171" cy="380.8555" fill="#84BE84" rx="3" ry="3" style="stroke: #038048; stroke-width: 1.0;"/><text fill="#000000" font-family="sans-serif" font-size="11" lengthAdjust="spacingAndGlyphs" textLength="102" x="180" y="383.1636">L1AnisoProxDual()</text><ellipse cx="171" cy="393.6602" fill="#84BE84" rx="3" ry="3" style="stroke: #038048; stroke-width: 1.0;"/><text fill="#000000" font-family="sans-serif" font-size="11" lengthAdjust="spacingAndGlyphs" textLength="63" x="180" y="395.9683">applyProx()</text><!--class L1IsoProxDual--><rect fill="#FEFECE" filter="url(#fpq3o84)" height="73.6094" style="stroke: #A80036; stroke-width: 1.5;" width="119" x="6" y="328.9531"/><ellipse cx="21" cy="344.9531" fill="#E6FFE6" rx="11" ry="11" style="stroke: #A80036; stroke-width: 1.0;"/><path d="M22.9531,345.8594 L19.3125,345.8594 L19.3125,348.25 L19.5625,348.25 C20.0156,348.25 20.1875,348.2813 20.3281,348.4063 C20.5625,348.5781 20.6875,348.8281 20.6875,349.1094 C20.6875,349.3906 20.5313,349.6875 20.2813,349.8281 C20.1406,349.9219 19.9219,349.9531 19.5625,349.9531 L17.5156,349.9531 C17.1094,349.9531 16.8906,349.9063 16.7344,349.7969 C16.5313,349.625 16.3906,349.3594 16.3906,349.1094 C16.3906,348.8125 16.5469,348.5313 16.7969,348.375 C16.9531,348.2656 17.0938,348.25 17.5156,348.25 L17.6094,348.25 L17.6094,341.7344 C17.0469,341.6875 16.7344,341.3906 16.7344,340.8906 C16.7344,340.6094 16.8906,340.3125 17.1406,340.1563 C17.2969,340.0625 17.4219,340.0469 17.8594,340.0469 L19.5625,340.0469 C20.0313,340.0469 20.1875,340.0781 20.3281,340.1875 C20.5625,340.3594 20.6875,340.625 20.6875,340.8906 C20.6875,341.1875 20.5313,341.4688 20.2813,341.625 C20.125,341.7031 19.9844,341.7344 19.5625,341.7344 L19.3125,341.7344 L19.3125,344.1563 L22.9531,344.1563 L22.9531,341.7344 L22.7031,341.7344 C22.25,341.7344 22.1094,341.7031 21.9375,341.5938 C21.7188,341.4219 21.5781,341.1719 21.5781,340.8906 C21.5781,340.6094 21.7344,340.3125 21.9844,340.1563 C22.1406,340.0625 22.2656,340.0469 22.7031,340.0469 L24.4219,340.0469 C24.875,340.0469 25.0313,340.0781 25.2031,340.1875 C25.4063,340.3594 25.5313,340.625 25.5313,340.8906 C25.5313,341.3906 25.2188,341.6875 24.6563,341.7344 L24.6563,348.25 L24.75,348.25 C25.2188,348.25 25.3594,348.2813 25.5156,348.4063 C25.7344,348.5781 25.875,348.8281 25.875,349.1094 C25.875,349.3906 25.7188,349.6875 25.4688,349.8281 C25.3281,349.9219 25.1094,349.9531 24.75,349.9531 L22.7031,349.9531 C22.2969,349.9531 22.0938,349.9063 21.9375,349.7969 C21.7188,349.625 21.5781,349.3594 21.5781,349.1094 C21.5781,348.8125 21.7344,348.5313 21.9844,348.375 C22.1406,348.2656 22.2969,348.25 22.7031,348.25 L22.9531,348.25 Z "/><text fill="#000000" font-family="sans-serif" font-size="12" lengthAdjust="spacingAndGlyphs" textLength="87" x="35" y="349.1074">L1IsoProxDual</text><line style="stroke: #A80036; stroke-width: 1.5;" x1="7" x2="124" y1="360.9531" y2="360.9531"/><line style="stroke: #A80036; stroke-width: 1.5;" x1="7" x2="124" y1="368.9531" y2="368.9531"/><ellipse cx="17" cy="380.8555" fill="#84BE84" rx="3" ry="3" style="stroke: #038048; stroke-width: 1.0;"/><text fill="#000000" font-family="sans-serif" font-size="11" lengthAdjust="spacingAndGlyphs" textLength="88" x="26" y="383.1636">L1IsoProxDual()</text><ellipse cx="17" cy="393.6602" fill="#84BE84" rx="3" ry="3" style="stroke: #038048; stroke-width: 1.0;"/><text fill="#000000" font-family="sans-serif" font-size="11" lengthAdjust="spacingAndGlyphs" textLength="63" x="26" y="395.9683">applyProx()</text><!--class L2proxDual--><rect fill="#FEFECE" filter="url(#fpq3o84)" height="73.6094" style="stroke: #A80036; stroke-width: 1.5;" width="101" x="722" y="328.9531"/><ellipse cx="737" cy="344.9531" fill="#E6FFE6" rx="11" ry="11" style="stroke: #A80036; stroke-width: 1.0;"/><path d="M738.9531,345.8594 L735.3125,345.8594 L735.3125,348.25 L735.5625,348.25 C736.0156,348.25 736.1875,348.2813 736.3281,348.4063 C736.5625,348.5781 736.6875,348.8281 736.6875,349.1094 C736.6875,349.3906 736.5313,349.6875 736.2813,349.8281 C736.1406,349.9219 735.9219,349.9531 735.5625,349.9531 L733.5156,349.9531 C733.1094,349.9531 732.8906,349.9063 732.7344,349.7969 C732.5313,349.625 732.3906,349.3594 732.3906,349.1094 C732.3906,348.8125 732.5469,348.5313 732.7969,348.375 C732.9531,348.2656 733.0938,348.25 733.5156,348.25 L733.6094,348.25 L733.6094,341.7344 C733.0469,341.6875 732.7344,341.3906 732.7344,340.8906 C732.7344,340.6094 732.8906,340.3125 733.1406,340.1563 C733.2969,340.0625 733.4219,340.0469 733.8594,340.0469 L735.5625,340.0469 C736.0313,340.0469 736.1875,340.0781 736.3281,340.1875 C736.5625,340.3594 736.6875,340.625 736.6875,340.8906 C736.6875,341.1875 736.5313,341.4688 736.2813,341.625 C736.125,341.7031 735.9844,341.7344 735.5625,341.7344 L735.3125,341.7344 L735.3125,344.1563 L738.9531,344.1563 L738.9531,341.7344 L738.7031,341.7344 C738.25,341.7344 738.1094,341.7031 737.9375,341.5938 C737.7188,341.4219 737.5781,341.1719 737.5781,340.8906 C737.5781,340.6094 737.7344,340.3125 737.9844,340.1563 C738.1406,340.0625 738.2656,340.0469 738.7031,340.0469 L740.4219,340.0469 C740.875,340.0469 741.0313,340.0781 741.2031,340.1875 C741.4063,340.3594 741.5313,340.625 741.5313,340.8906 C741.5313,341.3906 741.2188,341.6875 740.6563,341.7344 L740.6563,348.25 L740.75,348.25 C741.2188,348.25 741.3594,348.2813 741.5156,348.4063 C741.7344,348.5781 741.875,348.8281 741.875,349.1094 C741.875,349.3906 741.7188,349.6875 741.4688,349.8281 C741.3281,349.9219 741.1094,349.9531 740.75,349.9531 L738.7031,349.9531 C738.2969,349.9531 738.0938,349.9063 737.9375,349.7969 C737.7188,349.625 737.5781,349.3594 737.5781,349.1094 C737.5781,348.8125 737.7344,348.5313 737.9844,348.375 C738.1406,348.2656 738.2969,348.25 738.7031,348.25 L738.9531,348.25 Z "/><text fill="#000000" font-family="sans-serif" font-size="12" lengthAdjust="spacingAndGlyphs" textLength="69" x="751" y="349.1074">L2proxDual</text><line style="stroke: #A80036; stroke-width: 1.5;" x1="723" x2="822" y1="360.9531" y2="360.9531"/><line style="stroke: #A80036; stroke-width: 1.5;" x1="723" x2="822" y1="368.9531" y2="368.9531"/><ellipse cx="733" cy="380.8555" fill="#84BE84" rx="3" ry="3" style="stroke: #038048; stroke-width: 1.0;"/><text fill="#000000" font-family="sans-serif" font-size="11" lengthAdjust="spacingAndGlyphs" textLength="71" x="742" y="383.1636">L2proxDual()</text><ellipse cx="733" cy="393.6602" fill="#84BE84" rx="3" ry="3" style="stroke: #038048; stroke-width: 1.0;"/><text fill="#000000" font-family="sans-serif" font-size="11" lengthAdjust="spacingAndGlyphs" textLength="63" x="742" y="395.9683">applyProx()</text><!--class basicDualizedDataterm--><rect fill="#FEFECE" filter="url(#fpq3o84)" height="48" style="stroke: #A80036; stroke-width: 1.5;" width="176" x="831.5" y="124.9531"/><ellipse cx="846.5" cy="140.9531" fill="#ADD1B2" rx="11" ry="11" style="stroke: #A80036; stroke-width: 1.0;"/><path d="M848.8438,136.625 L849.0156,136.7031 C849.2344,136.3906 849.4375,136.2969 849.7344,136.2969 C850.0313,136.2969 850.3125,136.4375 850.4688,136.7031 C850.5625,136.8594 850.5781,136.9844 850.5781,137.4219 L850.5781,138.8438 C850.5781,139.2656 850.5469,139.4531 850.4375,139.6094 C850.2656,139.8281 850,139.9688 849.7344,139.9688 C849.5156,139.9688 849.2813,139.8594 849.1406,139.7188 C849,139.5938 848.9688,139.4688 848.9063,139.0625 C848.8125,138.6563 848.6406,138.4375 848.1563,138.1563 C847.6875,137.9063 847.0781,137.75 846.5,137.75 C844.7656,137.75 843.5156,139.0625 843.5156,140.8438 L843.5156,141.9375 C843.5156,143.6406 844.8125,144.7344 846.8594,144.7344 C847.625,144.7344 848.3125,144.6094 848.7344,144.3438 C848.9219,144.25 848.9219,144.25 849.375,143.7656 C849.5625,143.5781 849.7656,143.5 849.9844,143.5 C850.4531,143.5 850.8438,143.8906 850.8438,144.3438 C850.8438,144.7344 850.5156,145.1875 849.9375,145.5938 C849.1875,146.1406 848.0313,146.4375 846.8125,146.4375 C843.9219,146.4375 841.8125,144.5469 841.8125,141.9688 L841.8125,140.8438 C841.8125,138.125 843.8125,136.0469 846.4375,136.0469 C847.3125,136.0469 847.9063,136.1875 848.8438,136.625 Z "/><text fill="#000000" font-family="sans-serif" font-size="12" lengthAdjust="spacingAndGlyphs" textLength="144" x="860.5" y="145.1074">basicDualizedDataterm</text><line style="stroke: #A80036; stroke-width: 1.5;" x1="832.5" x2="1006.5" y1="156.9531" y2="156.9531"/><line style="stroke: #A80036; stroke-width: 1.5;" x1="832.5" x2="1006.5" y1="164.9531" y2="164.9531"/><path d="M868.679,184.2051 C806.677,225.9941 702.894,295.9421 644.275,335.4491 " fill="none" style="stroke: #A80036; stroke-width: 1.0;"/><polygon fill="none" points="864.864,178.3351,885.361,172.9621,872.689,189.9441,864.864,178.3351" style="stroke: #A80036; stroke-width: 1.0;"/><path d="M544.249,408.6671 C517.622,428.4131 486.45,451.5298 462.313,469.4286 " fill="none" style="stroke: #A80036; stroke-width: 1.0;"/><polygon fill="none" points="540.319,402.8671,560.553,396.5761,548.658,414.1121,540.319,402.8671" style="stroke: #A80036; stroke-width: 1.0;"/><path d="M412.154,423.0811 C414.314,438.9198 416.579,455.5347 418.438,469.1651 " fill="none" style="stroke: #A80036; stroke-width: 1.0;"/><polygon fill="none" points="405.185,423.7851,409.419,403.0231,419.057,421.8931,405.185,423.7851" style="stroke: #A80036; stroke-width: 1.0;"/><path d="M680.905,405.2691 C723.469,425.5521 774.972,450.0952 814.585,468.9719 " fill="none" style="stroke: #A80036; stroke-width: 1.0;"/><polygon fill="none" points="677.708,411.4991,662.664,396.5761,683.73,398.8611,677.708,411.4991" style="stroke: #A80036; stroke-width: 1.0;"/><path d="M902.446,422.3751 C897.98,436.0841 893.311,450.4174 889.236,462.9271 " fill="none" style="stroke: #A80036; stroke-width: 1.0;"/><polygon fill="none" points="895.899,419.8711,908.75,403.0231,909.211,424.2071,895.899,419.8711" style="stroke: #A80036; stroke-width: 1.0;"/><path d="M946.279,189.9641 C965.371,215.7381 993.141,248.1921 1024.5,268.9531 C1094.81,315.5031 1155.19,260.5431 1204.5,328.9531 C1234.68,370.8281 1209.17,432.8921 1189.03,469.3022 " fill="none" style="stroke: #A80036; stroke-width: 1.0;"/><polygon fill="none" points="940.395,193.7681,934.51,173.4121,951.804,185.6551,940.395,193.7681" style="stroke: #A80036; stroke-width: 1.0;"/><path d="M1130.32,420.9501 C1138.8,437.4203 1147.82,454.9221 1155.15,469.1651 " fill="none" style="stroke: #A80036; stroke-width: 1.0;"/><polygon fill="none" points="1124.02,424.0081,1121.08,403.0231,1136.46,417.5961,1124.02,424.0081" style="stroke: #A80036; stroke-width: 1.0;"/><path d="M497.76,403.3111 C433.144,426.1781 351.595,455.0375 295.064,475.0432 " fill="none" style="stroke: #A80036; stroke-width: 1.0;"/><polygon fill="none" points="495.602,396.6501,516.792,396.5761,500.273,409.8481,495.602,396.6501" style="stroke: #A80036; stroke-width: 1.0;"/><path d="M227.5,423.0811 C227.5,438.9198 227.5,455.5347 227.5,469.1651 " fill="none" style="stroke: #A80036; stroke-width: 1.0;"/><polygon fill="none" points="220.5,423.0231,227.5,403.0231,234.5,423.0231,220.5,423.0231" style="stroke: #A80036; stroke-width: 1.0;"/><path d="M500.03,402.0331 C498.848,402.3461 497.671,402.6531 496.5,402.9531 C341.906,442.5213 294.826,415.3961 142.5,462.9531 C136.584,464.8002 130.536,467.0102 124.56,469.4143 " fill="none" style="stroke: #A80036; stroke-width: 1.0;"/><polygon fill="none" points="498.266,395.2561,519.422,396.4561,502.135,408.7111,498.266,395.2561" style="stroke: #A80036; stroke-width: 1.0;"/><path d="M65.5,423.0811 C65.5,438.9198 65.5,455.5347 65.5,469.1651 " fill="none" style="stroke: #A80036; stroke-width: 1.0;"/><polygon fill="none" points="58.5001,423.0231,65.5,403.0231,72.5001,423.0231,58.5001,423.0231" style="stroke: #A80036; stroke-width: 1.0;"/><path d="M616.417,415.8131 C622.282,433.8181 628.742,453.6505 633.882,469.4286 " fill="none" style="stroke: #A80036; stroke-width: 1.0;"/><polygon fill="none" points="609.689,417.7611,610.15,396.5761,623.001,413.4251,609.689,417.7611" style="stroke: #A80036; stroke-width: 1.0;"/><path d="M723.088,417.5141 C706.041,434.9581 687.503,453.9266 672.611,469.1651 " fill="none" style="stroke: #A80036; stroke-width: 1.0;"/><polygon fill="none" points="718.265,412.4341,737.25,403.0231,728.278,422.2191,718.265,412.4341" style="stroke: #A80036; stroke-width: 1.0;"/><path d="M540.878,195.4661 C508.884,235.2271 463.063,292.1731 433.542,328.8611 " fill="none" style="stroke: #A80036; stroke-width: 1.0;"/><polygon fill="none" points="535.453,191.0411,553.445,179.8481,546.361,199.8181,535.453,191.0411" style="stroke: #A80036; stroke-width: 1.0;"/><path d="M640.746,189.5971 C704.337,229.4571 801.517,290.3721 862.99,328.9041 " fill="none" style="stroke: #A80036; stroke-width: 1.0;"/><polygon fill="none" points="636.987,195.5021,623.759,178.9491,644.422,183.6401,636.987,195.5021" style="stroke: #A80036; stroke-width: 1.0;"/><path d="M641.091,185.4391 C687.884,210.7011 753.522,244.3861 813.5,268.9531 C894.271,302.0371 917.782,301.0921 1000.5,328.9531 C1006.28,330.9011 1012.24,332.9351 1018.24,335.0011 " fill="none" style="stroke: #A80036; stroke-width: 1.0;"/><polygon fill="none" points="637.727,191.5781,623.51,175.8651,644.422,179.2831,637.727,191.5781" style="stroke: #A80036; stroke-width: 1.0;"/><path d="M514.088,188.9061 C449.257,228.7311 349.375,290.0871 286.279,328.8461 " fill="none" style="stroke: #A80036; stroke-width: 1.0;"/><polygon fill="none" points="510.678,182.7851,531.384,178.2821,518.006,194.7151,510.678,182.7851" style="stroke: #A80036; stroke-width: 1.0;"/><path d="M512.852,175.4531 C427.539,209.3561 272.91,271.6741 142.5,328.9531 C136.825,331.4451 130.94,334.0891 125.066,336.7671 " fill="none" style="stroke: #A80036; stroke-width: 1.0;"/><polygon fill="none" points="510.311,168.9311,531.483,168.0641,515.473,181.9451,510.311,168.9311" style="stroke: #A80036; stroke-width: 1.0;"/><path d="M618.058,194.6711 C654.15,234.4651 706.268,291.9281 739.765,328.8611 " fill="none" style="stroke: #A80036; stroke-width: 1.0;"/><polygon fill="none" points="612.865,199.3651,604.614,179.8481,623.235,189.9601,612.865,199.3651" style="stroke: #A80036; stroke-width: 1.0;"/></g></svg>