<?xml version="1.0" encoding="UTF-8" standalone="no"?><svg xmlns="http://www.w3.org/2000/svg" xmlns:xlink="http://www.w3.org/1999/xlink" contentScriptType="application/ecmascript" contentStyleType="text/css" height="653px" preserveAspectRatio="none" style="width:464px;height:653px;" version="1.1" viewBox="0 0 464 653" width="464px" zoomAndPan="magnify"><defs><filter height="300%" id="f4pqz7o" width="300%" x="-1" y="-1"><feGaussianBlur result="blurOut" stdDeviation="2.0"/><feColorMatrix in="blurOut" result="blurOut2" type="matrix" values="0 0 0 0 0 0 0 0 0 0 0 0 0 0 0 0 0 0 .4 0"/><feOffset dx="4.0" dy="4.0" in="blurOut2" result="blurOut3"/><feBlend in="SourceGraphic" in2="blurOut3" mode="normal"/></filter></defs><g><text fill="#000000" font-family="sans-serif" font-size="18" font-weight="bold" lengthAdjust="spacingAndGlyphs" textLength="261" x="106.5" y="16.708">Regularizer Terms (other)</text><!--class basicTerm--><rect fill="#FEFECE" filter="url(#f4pqz7o)" height="240.0703" style="stroke: #A80036; stroke-width: 1.5;" width="96" x="217" y="28.9531"/><ellipse cx="232" cy="44.9531" fill="#E6FFE6" rx="11" ry="11" style="stroke: #A80036; stroke-width: 1.0;"/><path d="M233.9531,45.8594 L230.3125,45.8594 L230.3125,48.25 L230.5625,48.25 C231.0156,48.25 231.1875,48.2813 231.3281,48.4063 C231.5625,48.5781 231.6875,48.8281 231.6875,49.1094 C231.6875,49.3906 231.5313,49.6875 231.2813,49.8281 C231.1406,49.9219 230.9219,49.9531 230.5625,49.9531 L228.5156,49.9531 C228.1094,49.9531 227.8906,49.9063 227.7344,49.7969 C227.5313,49.625 227.3906,49.3594 227.3906,49.1094 C227.3906,48.8125 227.5469,48.5313 227.7969,48.375 C227.9531,48.2656 228.0938,48.25 228.5156,48.25 L228.6094,48.25 L228.6094,41.7344 C228.0469,41.6875 227.7344,41.3906 227.7344,40.8906 C227.7344,40.6094 227.8906,40.3125 228.1406,40.1563 C228.2969,40.0625 228.4219,40.0469 228.8594,40.0469 L230.5625,40.0469 C231.0313,40.0469 231.1875,40.0781 231.3281,40.1875 C231.5625,40.3594 231.6875,40.625 231.6875,40.8906 C231.6875,41.1875 231.5313,41.4688 231.2813,41.625 C231.125,41.7031 230.9844,41.7344 230.5625,41.7344 L230.3125,41.7344 L230.3125,44.1563 L233.9531,44.1563 L233.9531,41.7344 L233.7031,41.7344 C233.25,41.7344 233.1094,41.7031 232.9375,41.5938 C232.7188,41.4219 232.5781,41.1719 232.5781,40.8906 C232.5781,40.6094 232.7344,40.3125 232.9844,40.1563 C233.1406,40.0625 233.2656,40.0469 233.7031,40.0469 L235.4219,40.0469 C235.875,40.0469 236.0313,40.0781 236.2031,40.1875 C236.4063,40.3594 236.5313,40.625 236.5313,40.8906 C236.5313,41.3906 236.2188,41.6875 235.6563,41.7344 L235.6563,48.25 L235.75,48.25 C236.2188,48.25 236.3594,48.2813 236.5156,48.4063 C236.7344,48.5781 236.875,48.8281 236.875,49.1094 C236.875,49.3906 236.7188,49.6875 236.4688,49.8281 C236.3281,49.9219 236.1094,49.9531 235.75,49.9531 L233.7031,49.9531 C233.2969,49.9531 233.0938,49.9063 232.9375,49.7969 C232.7188,49.625 232.5781,49.3594 232.5781,49.1094 C232.5781,48.8125 232.7344,48.5313 232.9844,48.375 C233.1406,48.2656 233.2969,48.25 233.7031,48.25 L233.9531,48.25 Z "/><text fill="#000000" font-family="sans-serif" font-size="12" lengthAdjust="spacingAndGlyphs" textLength="64" x="246" y="49.1074">basicTerm</text><line style="stroke: #A80036; stroke-width: 1.5;" x1="218" x2="312" y1="60.9531" y2="60.9531"/><text fill="#000000" font-family="sans-serif" font-size="11" lengthAdjust="spacingAndGlyphs" textLength="13" x="237" y="75.1636">+f</text><ellipse cx="228" cy="85.6602" fill="none" rx="3" ry="3" style="stroke: #038048; stroke-width: 1.0;"/><text fill="#000000" font-family="sans-serif" font-size="11" lengthAdjust="spacingAndGlyphs" textLength="33" x="237" y="87.9683">factor</text><ellipse cx="228" cy="98.4648" fill="none" rx="3" ry="3" style="stroke: #038048; stroke-width: 1.0;"/><text fill="#000000" font-family="sans-serif" font-size="11" lengthAdjust="spacingAndGlyphs" textLength="35" x="237" y="100.7729">length</text><ellipse cx="228" cy="111.2695" fill="none" rx="3" ry="3" style="stroke: #038048; stroke-width: 1.0;"/><text fill="#000000" font-family="sans-serif" font-size="11" lengthAdjust="spacingAndGlyphs" textLength="53" x="237" y="113.5776">mySigma</text><ellipse cx="228" cy="124.0742" fill="none" rx="3" ry="3" style="stroke: #038048; stroke-width: 1.0;"/><text fill="#000000" font-family="sans-serif" font-size="11" lengthAdjust="spacingAndGlyphs" textLength="38" x="237" y="126.3823">myTau</text><ellipse cx="228" cy="136.8789" fill="none" rx="3" ry="3" style="stroke: #038048; stroke-width: 1.0;"/><text fill="#000000" font-family="sans-serif" font-size="11" lengthAdjust="spacingAndGlyphs" textLength="68" x="237" y="139.187">numPrimals</text><ellipse cx="228" cy="149.6836" fill="none" rx="3" ry="3" style="stroke: #038048; stroke-width: 1.0;"/><text fill="#000000" font-family="sans-serif" font-size="11" lengthAdjust="spacingAndGlyphs" textLength="51" x="237" y="151.9917">numVars</text><ellipse cx="228" cy="162.4883" fill="none" rx="3" ry="3" style="stroke: #038048; stroke-width: 1.0;"/><text fill="#000000" font-family="sans-serif" font-size="11" lengthAdjust="spacingAndGlyphs" textLength="49" x="237" y="164.7964">operator</text><ellipse cx="228" cy="175.293" fill="none" rx="3" ry="3" style="stroke: #038048; stroke-width: 1.0;"/><text fill="#000000" font-family="sans-serif" font-size="11" lengthAdjust="spacingAndGlyphs" textLength="56" x="237" y="177.6011">operatorT</text><line style="stroke: #A80036; stroke-width: 1.5;" x1="218" x2="312" y1="184.1953" y2="184.1953"/><ellipse cx="228" cy="196.0977" fill="#84BE84" rx="3" ry="3" style="stroke: #038048; stroke-width: 1.0;"/><text fill="#000000" font-family="sans-serif" font-size="11" lengthAdjust="spacingAndGlyphs" textLength="68" x="237" y="198.4058">basicTerm()</text><ellipse cx="228" cy="208.9023" fill="#84BE84" rx="3" ry="3" style="stroke: #038048; stroke-width: 1.0;"/><text fill="#000000" font-family="sans-serif" font-size="11" lengthAdjust="spacingAndGlyphs" textLength="25" x="237" y="211.2104">init()</text><ellipse cx="228" cy="221.707" fill="#84BE84" rx="3" ry="3" style="stroke: #038048; stroke-width: 1.0;"/><text fill="#000000" font-family="sans-serif" font-size="11" lengthAdjust="spacingAndGlyphs" textLength="43" x="237" y="224.0151">xError()</text><ellipse cx="228" cy="234.5117" fill="#84BE84" rx="3" ry="3" style="stroke: #038048; stroke-width: 1.0;"/><text fill="#000000" font-family="sans-serif" font-size="11" lengthAdjust="spacingAndGlyphs" textLength="41" x="237" y="236.8198">xTilde()</text><ellipse cx="228" cy="247.3164" fill="#84BE84" rx="3" ry="3" style="stroke: #038048; stroke-width: 1.0;"/><text fill="#000000" font-family="sans-serif" font-size="11" lengthAdjust="spacingAndGlyphs" textLength="43" x="237" y="249.6245">yError()</text><ellipse cx="228" cy="260.1211" fill="#84BE84" rx="3" ry="3" style="stroke: #038048; stroke-width: 1.0;"/><text fill="#000000" font-family="sans-serif" font-size="11" lengthAdjust="spacingAndGlyphs" textLength="41" x="237" y="262.4292">yTilde()</text><!--class basicDualizedOperator--><rect fill="#FEFECE" filter="url(#f4pqz7o)" height="60.8047" style="stroke: #A80036; stroke-width: 1.5;" width="173" x="7.5" y="328.9531"/><ellipse cx="22.5" cy="344.9531" fill="#E6FFE6" rx="11" ry="11" style="stroke: #A80036; stroke-width: 1.0;"/><path d="M24.4531,345.8594 L20.8125,345.8594 L20.8125,348.25 L21.0625,348.25 C21.5156,348.25 21.6875,348.2813 21.8281,348.4063 C22.0625,348.5781 22.1875,348.8281 22.1875,349.1094 C22.1875,349.3906 22.0313,349.6875 21.7813,349.8281 C21.6406,349.9219 21.4219,349.9531 21.0625,349.9531 L19.0156,349.9531 C18.6094,349.9531 18.3906,349.9063 18.2344,349.7969 C18.0313,349.625 17.8906,349.3594 17.8906,349.1094 C17.8906,348.8125 18.0469,348.5313 18.2969,348.375 C18.4531,348.2656 18.5938,348.25 19.0156,348.25 L19.1094,348.25 L19.1094,341.7344 C18.5469,341.6875 18.2344,341.3906 18.2344,340.8906 C18.2344,340.6094 18.3906,340.3125 18.6406,340.1563 C18.7969,340.0625 18.9219,340.0469 19.3594,340.0469 L21.0625,340.0469 C21.5313,340.0469 21.6875,340.0781 21.8281,340.1875 C22.0625,340.3594 22.1875,340.625 22.1875,340.8906 C22.1875,341.1875 22.0313,341.4688 21.7813,341.625 C21.625,341.7031 21.4844,341.7344 21.0625,341.7344 L20.8125,341.7344 L20.8125,344.1563 L24.4531,344.1563 L24.4531,341.7344 L24.2031,341.7344 C23.75,341.7344 23.6094,341.7031 23.4375,341.5938 C23.2188,341.4219 23.0781,341.1719 23.0781,340.8906 C23.0781,340.6094 23.2344,340.3125 23.4844,340.1563 C23.6406,340.0625 23.7656,340.0469 24.2031,340.0469 L25.9219,340.0469 C26.375,340.0469 26.5313,340.0781 26.7031,340.1875 C26.9063,340.3594 27.0313,340.625 27.0313,340.8906 C27.0313,341.3906 26.7188,341.6875 26.1563,341.7344 L26.1563,348.25 L26.25,348.25 C26.7188,348.25 26.8594,348.2813 27.0156,348.4063 C27.2344,348.5781 27.375,348.8281 27.375,349.1094 C27.375,349.3906 27.2188,349.6875 26.9688,349.8281 C26.8281,349.9219 26.6094,349.9531 26.25,349.9531 L24.2031,349.9531 C23.7969,349.9531 23.5938,349.9063 23.4375,349.7969 C23.2188,349.625 23.0781,349.3594 23.0781,349.1094 C23.0781,348.8125 23.2344,348.5313 23.4844,348.375 C23.6406,348.2656 23.7969,348.25 24.2031,348.25 L24.4531,348.25 Z "/><text fill="#000000" font-family="sans-serif" font-size="12" lengthAdjust="spacingAndGlyphs" textLength="141" x="36.5" y="349.1074">basicDualizedOperator</text><line style="stroke: #A80036; stroke-width: 1.5;" x1="8.5" x2="179.5" y1="360.9531" y2="360.9531"/><line style="stroke: #A80036; stroke-width: 1.5;" x1="8.5" x2="179.5" y1="368.9531" y2="368.9531"/><ellipse cx="18.5" cy="380.8555" fill="#84BE84" rx="3" ry="3" style="stroke: #038048; stroke-width: 1.0;"/><text fill="#000000" font-family="sans-serif" font-size="11" lengthAdjust="spacingAndGlyphs" textLength="136" x="27.5" y="383.1636">basicDualizedOperator()</text><!--class basicIdentity--><rect fill="#FEFECE" filter="url(#f4pqz7o)" height="60.8047" style="stroke: #A80036; stroke-width: 1.5;" width="111" x="38.5" y="456.4531"/><ellipse cx="53.5" cy="472.4531" fill="#E6FFE6" rx="11" ry="11" style="stroke: #A80036; stroke-width: 1.0;"/><path d="M55.4531,473.3594 L51.8125,473.3594 L51.8125,475.75 L52.0625,475.75 C52.5156,475.75 52.6875,475.7813 52.8281,475.9063 C53.0625,476.0781 53.1875,476.3281 53.1875,476.6094 C53.1875,476.8906 53.0313,477.1875 52.7813,477.3281 C52.6406,477.4219 52.4219,477.4531 52.0625,477.4531 L50.0156,477.4531 C49.6094,477.4531 49.3906,477.4063 49.2344,477.2969 C49.0313,477.125 48.8906,476.8594 48.8906,476.6094 C48.8906,476.3125 49.0469,476.0313 49.2969,475.875 C49.4531,475.7656 49.5938,475.75 50.0156,475.75 L50.1094,475.75 L50.1094,469.2344 C49.5469,469.1875 49.2344,468.8906 49.2344,468.3906 C49.2344,468.1094 49.3906,467.8125 49.6406,467.6563 C49.7969,467.5625 49.9219,467.5469 50.3594,467.5469 L52.0625,467.5469 C52.5313,467.5469 52.6875,467.5781 52.8281,467.6875 C53.0625,467.8594 53.1875,468.125 53.1875,468.3906 C53.1875,468.6875 53.0313,468.9688 52.7813,469.125 C52.625,469.2031 52.4844,469.2344 52.0625,469.2344 L51.8125,469.2344 L51.8125,471.6563 L55.4531,471.6563 L55.4531,469.2344 L55.2031,469.2344 C54.75,469.2344 54.6094,469.2031 54.4375,469.0938 C54.2188,468.9219 54.0781,468.6719 54.0781,468.3906 C54.0781,468.1094 54.2344,467.8125 54.4844,467.6563 C54.6406,467.5625 54.7656,467.5469 55.2031,467.5469 L56.9219,467.5469 C57.375,467.5469 57.5313,467.5781 57.7031,467.6875 C57.9063,467.8594 58.0313,468.125 58.0313,468.3906 C58.0313,468.8906 57.7188,469.1875 57.1563,469.2344 L57.1563,475.75 L57.25,475.75 C57.7188,475.75 57.8594,475.7813 58.0156,475.9063 C58.2344,476.0781 58.375,476.3281 58.375,476.6094 C58.375,476.8906 58.2188,477.1875 57.9688,477.3281 C57.8281,477.4219 57.6094,477.4531 57.25,477.4531 L55.2031,477.4531 C54.7969,477.4531 54.5938,477.4063 54.4375,477.2969 C54.2188,477.125 54.0781,476.8594 54.0781,476.6094 C54.0781,476.3125 54.2344,476.0313 54.4844,475.875 C54.6406,475.7656 54.7969,475.75 55.2031,475.75 L55.4531,475.75 Z "/><text fill="#000000" font-family="sans-serif" font-size="12" lengthAdjust="spacingAndGlyphs" textLength="79" x="67.5" y="476.6074">basicIdentity</text><line style="stroke: #A80036; stroke-width: 1.5;" x1="39.5" x2="148.5" y1="488.4531" y2="488.4531"/><line style="stroke: #A80036; stroke-width: 1.5;" x1="39.5" x2="148.5" y1="496.4531" y2="496.4531"/><ellipse cx="49.5" cy="508.3555" fill="#84BE84" rx="3" ry="3" style="stroke: #038048; stroke-width: 1.0;"/><text fill="#000000" font-family="sans-serif" font-size="11" lengthAdjust="spacingAndGlyphs" textLength="79" x="58.5" y="510.6636">basicIdentity()</text><!--class L1identity--><rect fill="#FEFECE" filter="url(#f4pqz7o)" height="60.8047" style="stroke: #A80036; stroke-width: 1.5;" width="92" x="293" y="583.9531"/><ellipse cx="308" cy="599.9531" fill="#E6FFE6" rx="11" ry="11" style="stroke: #A80036; stroke-width: 1.0;"/><path d="M309.9531,600.8594 L306.3125,600.8594 L306.3125,603.25 L306.5625,603.25 C307.0156,603.25 307.1875,603.2813 307.3281,603.4063 C307.5625,603.5781 307.6875,603.8281 307.6875,604.1094 C307.6875,604.3906 307.5313,604.6875 307.2813,604.8281 C307.1406,604.9219 306.9219,604.9531 306.5625,604.9531 L304.5156,604.9531 C304.1094,604.9531 303.8906,604.9063 303.7344,604.7969 C303.5313,604.625 303.3906,604.3594 303.3906,604.1094 C303.3906,603.8125 303.5469,603.5313 303.7969,603.375 C303.9531,603.2656 304.0938,603.25 304.5156,603.25 L304.6094,603.25 L304.6094,596.7344 C304.0469,596.6875 303.7344,596.3906 303.7344,595.8906 C303.7344,595.6094 303.8906,595.3125 304.1406,595.1563 C304.2969,595.0625 304.4219,595.0469 304.8594,595.0469 L306.5625,595.0469 C307.0313,595.0469 307.1875,595.0781 307.3281,595.1875 C307.5625,595.3594 307.6875,595.625 307.6875,595.8906 C307.6875,596.1875 307.5313,596.4688 307.2813,596.625 C307.125,596.7031 306.9844,596.7344 306.5625,596.7344 L306.3125,596.7344 L306.3125,599.1563 L309.9531,599.1563 L309.9531,596.7344 L309.7031,596.7344 C309.25,596.7344 309.1094,596.7031 308.9375,596.5938 C308.7188,596.4219 308.5781,596.1719 308.5781,595.8906 C308.5781,595.6094 308.7344,595.3125 308.9844,595.1563 C309.1406,595.0625 309.2656,595.0469 309.7031,595.0469 L311.4219,595.0469 C311.875,595.0469 312.0313,595.0781 312.2031,595.1875 C312.4063,595.3594 312.5313,595.625 312.5313,595.8906 C312.5313,596.3906 312.2188,596.6875 311.6563,596.7344 L311.6563,603.25 L311.75,603.25 C312.2188,603.25 312.3594,603.2813 312.5156,603.4063 C312.7344,603.5781 312.875,603.8281 312.875,604.1094 C312.875,604.3906 312.7188,604.6875 312.4688,604.8281 C312.3281,604.9219 312.1094,604.9531 311.75,604.9531 L309.7031,604.9531 C309.2969,604.9531 309.0938,604.9063 308.9375,604.7969 C308.7188,604.625 308.5781,604.3594 308.5781,604.1094 C308.5781,603.8125 308.7344,603.5313 308.9844,603.375 C309.1406,603.2656 309.2969,603.25 309.7031,603.25 L309.9531,603.25 Z "/><text fill="#000000" font-family="sans-serif" font-size="12" lengthAdjust="spacingAndGlyphs" textLength="60" x="322" y="604.1074">L1identity</text><line style="stroke: #A80036; stroke-width: 1.5;" x1="294" x2="384" y1="615.9531" y2="615.9531"/><line style="stroke: #A80036; stroke-width: 1.5;" x1="294" x2="384" y1="623.9531" y2="623.9531"/><ellipse cx="304" cy="635.8555" fill="#84BE84" rx="3" ry="3" style="stroke: #038048; stroke-width: 1.0;"/><text fill="#000000" font-family="sans-serif" font-size="11" lengthAdjust="spacingAndGlyphs" textLength="62" x="313" y="638.1636">L1identity()</text><!--class L2identity--><rect fill="#FEFECE" filter="url(#f4pqz7o)" height="60.8047" style="stroke: #A80036; stroke-width: 1.5;" width="92" x="118" y="583.9531"/><ellipse cx="133" cy="599.9531" fill="#E6FFE6" rx="11" ry="11" style="stroke: #A80036; stroke-width: 1.0;"/><path d="M134.9531,600.8594 L131.3125,600.8594 L131.3125,603.25 L131.5625,603.25 C132.0156,603.25 132.1875,603.2813 132.3281,603.4063 C132.5625,603.5781 132.6875,603.8281 132.6875,604.1094 C132.6875,604.3906 132.5313,604.6875 132.2813,604.8281 C132.1406,604.9219 131.9219,604.9531 131.5625,604.9531 L129.5156,604.9531 C129.1094,604.9531 128.8906,604.9063 128.7344,604.7969 C128.5313,604.625 128.3906,604.3594 128.3906,604.1094 C128.3906,603.8125 128.5469,603.5313 128.7969,603.375 C128.9531,603.2656 129.0938,603.25 129.5156,603.25 L129.6094,603.25 L129.6094,596.7344 C129.0469,596.6875 128.7344,596.3906 128.7344,595.8906 C128.7344,595.6094 128.8906,595.3125 129.1406,595.1563 C129.2969,595.0625 129.4219,595.0469 129.8594,595.0469 L131.5625,595.0469 C132.0313,595.0469 132.1875,595.0781 132.3281,595.1875 C132.5625,595.3594 132.6875,595.625 132.6875,595.8906 C132.6875,596.1875 132.5313,596.4688 132.2813,596.625 C132.125,596.7031 131.9844,596.7344 131.5625,596.7344 L131.3125,596.7344 L131.3125,599.1563 L134.9531,599.1563 L134.9531,596.7344 L134.7031,596.7344 C134.25,596.7344 134.1094,596.7031 133.9375,596.5938 C133.7188,596.4219 133.5781,596.1719 133.5781,595.8906 C133.5781,595.6094 133.7344,595.3125 133.9844,595.1563 C134.1406,595.0625 134.2656,595.0469 134.7031,595.0469 L136.4219,595.0469 C136.875,595.0469 137.0313,595.0781 137.2031,595.1875 C137.4063,595.3594 137.5313,595.625 137.5313,595.8906 C137.5313,596.3906 137.2188,596.6875 136.6563,596.7344 L136.6563,603.25 L136.75,603.25 C137.2188,603.25 137.3594,603.2813 137.5156,603.4063 C137.7344,603.5781 137.875,603.8281 137.875,604.1094 C137.875,604.3906 137.7188,604.6875 137.4688,604.8281 C137.3281,604.9219 137.1094,604.9531 136.75,604.9531 L134.7031,604.9531 C134.2969,604.9531 134.0938,604.9063 133.9375,604.7969 C133.7188,604.625 133.5781,604.3594 133.5781,604.1094 C133.5781,603.8125 133.7344,603.5313 133.9844,603.375 C134.1406,603.2656 134.2969,603.25 134.7031,603.25 L134.9531,603.25 Z "/><text fill="#000000" font-family="sans-serif" font-size="12" lengthAdjust="spacingAndGlyphs" textLength="60" x="147" y="604.1074">L2identity</text><line style="stroke: #A80036; stroke-width: 1.5;" x1="119" x2="209" y1="615.9531" y2="615.9531"/><line style="stroke: #A80036; stroke-width: 1.5;" x1="119" x2="209" y1="623.9531" y2="623.9531"/><ellipse cx="129" cy="635.8555" fill="#84BE84" rx="3" ry="3" style="stroke: #038048; stroke-width: 1.0;"/><text fill="#000000" font-family="sans-serif" font-size="11" lengthAdjust="spacingAndGlyphs" textLength="62" x="138" y="638.1636">L2identity()</text><!--class basicProx--><rect fill="#FEFECE" filter="url(#f4pqz7o)" height="60.8047" style="stroke: #A80036; stroke-width: 1.5;" width="92" x="279" y="328.9531"/><ellipse cx="294" cy="344.9531" fill="#E6FFE6" rx="11" ry="11" style="stroke: #A80036; stroke-width: 1.0;"/><path d="M295.5781,346.7656 L291.5313,346.7656 L291.1406,347.75 L291.5313,347.75 C291.9844,347.75 292.125,347.7813 292.2969,347.9063 C292.5156,348.0781 292.6406,348.3281 292.6406,348.6094 C292.6406,348.8906 292.5,349.1875 292.2344,349.3281 C292.1094,349.4219 291.8906,349.4531 291.5313,349.4531 L289.2656,349.4531 C288.5156,349.4531 288.1406,349.1719 288.1406,348.6094 C288.1406,348.3125 288.2969,348.0313 288.5469,347.875 C288.7031,347.7656 288.8594,347.75 289.2813,347.75 L291.9219,341.2344 L290.8438,341.2344 C290.4063,341.2344 290.2344,341.2031 290.0625,341.0938 C289.8438,340.9219 289.7031,340.6719 289.7031,340.3906 C289.7031,340.1094 289.8594,339.8281 290.1094,339.6563 C290.2656,339.5625 290.3906,339.5469 290.8438,339.5469 L294.5156,339.5469 L297.9063,347.75 C298.375,347.75 298.5313,347.7813 298.7031,347.9219 C298.9219,348.0781 299.0625,348.3281 299.0625,348.6094 C299.0625,348.8906 298.9063,349.1875 298.6563,349.3281 C298.5156,349.4219 298.2969,349.4531 297.9375,349.4531 L295.5781,349.4531 C295.1563,349.4531 294.9531,349.4063 294.8125,349.2813 C294.5938,349.125 294.4531,348.875 294.4531,348.6094 C294.4531,348.3125 294.6094,348.0313 294.8594,347.875 C295.0156,347.7656 295.125,347.75 295.5781,347.75 L295.9688,347.75 Z M294.875,345.0625 L293.5469,341.7969 L292.2031,345.0625 Z "/><text fill="#000000" font-family="sans-serif" font-size="12" lengthAdjust="spacingAndGlyphs" textLength="60" x="308" y="349.1074">basicProx</text><line style="stroke: #A80036; stroke-width: 1.5;" x1="280" x2="370" y1="360.9531" y2="360.9531"/><line style="stroke: #A80036; stroke-width: 1.5;" x1="280" x2="370" y1="368.9531" y2="368.9531"/><ellipse cx="290" cy="380.8555" fill="#84BE84" rx="3" ry="3" style="stroke: #038048; stroke-width: 1.0;"/><text fill="#000000" font-family="sans-serif" font-size="11" lengthAdjust="spacingAndGlyphs" textLength="63" x="299" y="383.1636">applyProx()</text><!--class L1AnisoProxDual--><rect fill="#FEFECE" filter="url(#f4pqz7o)" height="73.6094" style="stroke: #A80036; stroke-width: 1.5;" width="135" x="320.5" y="449.9531"/><ellipse cx="335.5" cy="465.9531" fill="#E6FFE6" rx="11" ry="11" style="stroke: #A80036; stroke-width: 1.0;"/><path d="M337.4531,466.8594 L333.8125,466.8594 L333.8125,469.25 L334.0625,469.25 C334.5156,469.25 334.6875,469.2813 334.8281,469.4063 C335.0625,469.5781 335.1875,469.8281 335.1875,470.1094 C335.1875,470.3906 335.0313,470.6875 334.7813,470.8281 C334.6406,470.9219 334.4219,470.9531 334.0625,470.9531 L332.0156,470.9531 C331.6094,470.9531 331.3906,470.9063 331.2344,470.7969 C331.0313,470.625 330.8906,470.3594 330.8906,470.1094 C330.8906,469.8125 331.0469,469.5313 331.2969,469.375 C331.4531,469.2656 331.5938,469.25 332.0156,469.25 L332.1094,469.25 L332.1094,462.7344 C331.5469,462.6875 331.2344,462.3906 331.2344,461.8906 C331.2344,461.6094 331.3906,461.3125 331.6406,461.1563 C331.7969,461.0625 331.9219,461.0469 332.3594,461.0469 L334.0625,461.0469 C334.5313,461.0469 334.6875,461.0781 334.8281,461.1875 C335.0625,461.3594 335.1875,461.625 335.1875,461.8906 C335.1875,462.1875 335.0313,462.4688 334.7813,462.625 C334.625,462.7031 334.4844,462.7344 334.0625,462.7344 L333.8125,462.7344 L333.8125,465.1563 L337.4531,465.1563 L337.4531,462.7344 L337.2031,462.7344 C336.75,462.7344 336.6094,462.7031 336.4375,462.5938 C336.2188,462.4219 336.0781,462.1719 336.0781,461.8906 C336.0781,461.6094 336.2344,461.3125 336.4844,461.1563 C336.6406,461.0625 336.7656,461.0469 337.2031,461.0469 L338.9219,461.0469 C339.375,461.0469 339.5313,461.0781 339.7031,461.1875 C339.9063,461.3594 340.0313,461.625 340.0313,461.8906 C340.0313,462.3906 339.7188,462.6875 339.1563,462.7344 L339.1563,469.25 L339.25,469.25 C339.7188,469.25 339.8594,469.2813 340.0156,469.4063 C340.2344,469.5781 340.375,469.8281 340.375,470.1094 C340.375,470.3906 340.2188,470.6875 339.9688,470.8281 C339.8281,470.9219 339.6094,470.9531 339.25,470.9531 L337.2031,470.9531 C336.7969,470.9531 336.5938,470.9063 336.4375,470.7969 C336.2188,470.625 336.0781,470.3594 336.0781,470.1094 C336.0781,469.8125 336.2344,469.5313 336.4844,469.375 C336.6406,469.2656 336.7969,469.25 337.2031,469.25 L337.4531,469.25 Z "/><text fill="#000000" font-family="sans-serif" font-size="12" lengthAdjust="spacingAndGlyphs" textLength="103" x="349.5" y="470.1074">L1AnisoProxDual</text><line style="stroke: #A80036; stroke-width: 1.5;" x1="321.5" x2="454.5" y1="481.9531" y2="481.9531"/><line style="stroke: #A80036; stroke-width: 1.5;" x1="321.5" x2="454.5" y1="489.9531" y2="489.9531"/><ellipse cx="331.5" cy="501.8555" fill="#84BE84" rx="3" ry="3" style="stroke: #038048; stroke-width: 1.0;"/><text fill="#000000" font-family="sans-serif" font-size="11" lengthAdjust="spacingAndGlyphs" textLength="102" x="340.5" y="504.1636">L1AnisoProxDual()</text><ellipse cx="331.5" cy="514.6602" fill="#84BE84" rx="3" ry="3" style="stroke: #038048; stroke-width: 1.0;"/><text fill="#000000" font-family="sans-serif" font-size="11" lengthAdjust="spacingAndGlyphs" textLength="63" x="340.5" y="516.9683">applyProx()</text><!--class L2proxDual--><rect fill="#FEFECE" filter="url(#f4pqz7o)" height="73.6094" style="stroke: #A80036; stroke-width: 1.5;" width="101" x="184.5" y="449.9531"/><ellipse cx="199.5" cy="465.9531" fill="#E6FFE6" rx="11" ry="11" style="stroke: #A80036; stroke-width: 1.0;"/><path d="M201.4531,466.8594 L197.8125,466.8594 L197.8125,469.25 L198.0625,469.25 C198.5156,469.25 198.6875,469.2813 198.8281,469.4063 C199.0625,469.5781 199.1875,469.8281 199.1875,470.1094 C199.1875,470.3906 199.0313,470.6875 198.7813,470.8281 C198.6406,470.9219 198.4219,470.9531 198.0625,470.9531 L196.0156,470.9531 C195.6094,470.9531 195.3906,470.9063 195.2344,470.7969 C195.0313,470.625 194.8906,470.3594 194.8906,470.1094 C194.8906,469.8125 195.0469,469.5313 195.2969,469.375 C195.4531,469.2656 195.5938,469.25 196.0156,469.25 L196.1094,469.25 L196.1094,462.7344 C195.5469,462.6875 195.2344,462.3906 195.2344,461.8906 C195.2344,461.6094 195.3906,461.3125 195.6406,461.1563 C195.7969,461.0625 195.9219,461.0469 196.3594,461.0469 L198.0625,461.0469 C198.5313,461.0469 198.6875,461.0781 198.8281,461.1875 C199.0625,461.3594 199.1875,461.625 199.1875,461.8906 C199.1875,462.1875 199.0313,462.4688 198.7813,462.625 C198.625,462.7031 198.4844,462.7344 198.0625,462.7344 L197.8125,462.7344 L197.8125,465.1563 L201.4531,465.1563 L201.4531,462.7344 L201.2031,462.7344 C200.75,462.7344 200.6094,462.7031 200.4375,462.5938 C200.2188,462.4219 200.0781,462.1719 200.0781,461.8906 C200.0781,461.6094 200.2344,461.3125 200.4844,461.1563 C200.6406,461.0625 200.7656,461.0469 201.2031,461.0469 L202.9219,461.0469 C203.375,461.0469 203.5313,461.0781 203.7031,461.1875 C203.9063,461.3594 204.0313,461.625 204.0313,461.8906 C204.0313,462.3906 203.7188,462.6875 203.1563,462.7344 L203.1563,469.25 L203.25,469.25 C203.7188,469.25 203.8594,469.2813 204.0156,469.4063 C204.2344,469.5781 204.375,469.8281 204.375,470.1094 C204.375,470.3906 204.2188,470.6875 203.9688,470.8281 C203.8281,470.9219 203.6094,470.9531 203.25,470.9531 L201.2031,470.9531 C200.7969,470.9531 200.5938,470.9063 200.4375,470.7969 C200.2188,470.625 200.0781,470.3594 200.0781,470.1094 C200.0781,469.8125 200.2344,469.5313 200.4844,469.375 C200.6406,469.2656 200.7969,469.25 201.2031,469.25 L201.4531,469.25 Z "/><text fill="#000000" font-family="sans-serif" font-size="12" lengthAdjust="spacingAndGlyphs" textLength="69" x="213.5" y="470.1074">L2proxDual</text><line style="stroke: #A80036; stroke-width: 1.5;" x1="185.5" x2="284.5" y1="481.9531" y2="481.9531"/><line style="stroke: #A80036; stroke-width: 1.5;" x1="185.5" x2="284.5" y1="489.9531" y2="489.9531"/><ellipse cx="195.5" cy="501.8555" fill="#84BE84" rx="3" ry="3" style="stroke: #038048; stroke-width: 1.0;"/><text fill="#000000" font-family="sans-serif" font-size="11" lengthAdjust="spacingAndGlyphs" textLength="71" x="204.5" y="504.1636">L2proxDual()</text><ellipse cx="195.5" cy="514.6602" fill="#84BE84" rx="3" ry="3" style="stroke: #038048; stroke-width: 1.0;"/><text fill="#000000" font-family="sans-serif" font-size="11" lengthAdjust="spacingAndGlyphs" textLength="63" x="204.5" y="516.9683">applyProx()</text><!--class basicDualizedDataterm--><rect fill="#FEFECE" filter="url(#f4pqz7o)" height="48" style="stroke: #A80036; stroke-width: 1.5;" width="176" x="6" y="124.9531"/><ellipse cx="21" cy="140.9531" fill="#ADD1B2" rx="11" ry="11" style="stroke: #A80036; stroke-width: 1.0;"/><path d="M23.3438,136.625 L23.5156,136.7031 C23.7344,136.3906 23.9375,136.2969 24.2344,136.2969 C24.5313,136.2969 24.8125,136.4375 24.9688,136.7031 C25.0625,136.8594 25.0781,136.9844 25.0781,137.4219 L25.0781,138.8438 C25.0781,139.2656 25.0469,139.4531 24.9375,139.6094 C24.7656,139.8281 24.5,139.9688 24.2344,139.9688 C24.0156,139.9688 23.7813,139.8594 23.6406,139.7188 C23.5,139.5938 23.4688,139.4688 23.4063,139.0625 C23.3125,138.6563 23.1406,138.4375 22.6563,138.1563 C22.1875,137.9063 21.5781,137.75 21,137.75 C19.2656,137.75 18.0156,139.0625 18.0156,140.8438 L18.0156,141.9375 C18.0156,143.6406 19.3125,144.7344 21.3594,144.7344 C22.125,144.7344 22.8125,144.6094 23.2344,144.3438 C23.4219,144.25 23.4219,144.25 23.875,143.7656 C24.0625,143.5781 24.2656,143.5 24.4844,143.5 C24.9531,143.5 25.3438,143.8906 25.3438,144.3438 C25.3438,144.7344 25.0156,145.1875 24.4375,145.5938 C23.6875,146.1406 22.5313,146.4375 21.3125,146.4375 C18.4219,146.4375 16.3125,144.5469 16.3125,141.9688 L16.3125,140.8438 C16.3125,138.125 18.3125,136.0469 20.9375,136.0469 C21.8125,136.0469 22.4063,136.1875 23.3438,136.625 Z "/><text fill="#000000" font-family="sans-serif" font-size="12" lengthAdjust="spacingAndGlyphs" textLength="144" x="35" y="145.1074">basicDualizedDataterm</text><line style="stroke: #A80036; stroke-width: 1.5;" x1="7" x2="181" y1="156.9531" y2="156.9531"/><line style="stroke: #A80036; stroke-width: 1.5;" x1="7" x2="181" y1="164.9531" y2="164.9531"/><path d="M94,193.1161 C94,233.7201 94,293.4261 94,328.8791 " fill="none" style="stroke: #A80036; stroke-width: 1.0;"/><polygon fill="none" points="87.0001,193.0631,94,173.0631,101.0001,193.0631,87.0001,193.0631" style="stroke: #A80036; stroke-width: 1.0;"/><path d="M94,410.4001 C94,426.0001 94,442.7021 94,456.4251 " fill="none" style="stroke: #A80036; stroke-width: 1.0;"/><polygon fill="none" points="87.0001,410.1951,94,390.1951,101.0001,410.1951,87.0001,410.1951" style="stroke: #A80036; stroke-width: 1.0;"/><path d="M167.574,525.6411 C208.198,546.4505 257.412,571.6603 292.67,589.7207 " fill="none" style="stroke: #A80036; stroke-width: 1.0;"/><polygon fill="none" points="164.203,531.7791,149.594,516.4311,170.586,519.3191,164.203,531.7791" style="stroke: #A80036; stroke-width: 1.0;"/><path d="M366.411,543.2471 C360.995,557.1182 355.387,571.4828 350.665,583.5771 " fill="none" style="stroke: #A80036; stroke-width: 1.0;"/><polygon fill="none" points="360.032,540.3371,373.827,524.2531,373.074,545.4292,360.032,540.3371" style="stroke: #A80036; stroke-width: 1.0;"/><path d="M120.382,535.2531 C129.496,551.5921 139.441,569.4219 147.53,583.9248 " fill="none" style="stroke: #A80036; stroke-width: 1.0;"/><polygon fill="none" points="114.218,538.5711,110.589,517.6951,126.445,531.7521,114.218,538.5711" style="stroke: #A80036; stroke-width: 1.0;"/><path d="M204.529,541.8131 C196.433,556.1248 187.98,571.0658 180.902,583.5771 " fill="none" style="stroke: #A80036; stroke-width: 1.0;"/><polygon fill="none" points="198.523,538.2131,214.464,524.2531,210.708,545.1071,198.523,538.2131" style="stroke: #A80036; stroke-width: 1.0;"/><path d="M348.917,408.0961 C355.843,421.8941 363.29,436.7281 369.806,449.7081 " fill="none" style="stroke: #A80036; stroke-width: 1.0;"/><polygon fill="none" points="342.647,411.2101,339.93,390.1951,355.159,404.9291,342.647,411.2101" style="stroke: #A80036; stroke-width: 1.0;"/><path d="M291.843,406.6891 C281.665,420.8811 270.618,436.2861 260.992,449.7081 " fill="none" style="stroke: #A80036; stroke-width: 1.0;"/><polygon fill="none" points="286.327,402.3681,303.671,390.1951,297.704,410.5271,286.327,402.3681" style="stroke: #A80036; stroke-width: 1.0;"/></g></svg>