<?xml version="1.0" encoding="UTF-8" standalone="no"?><svg xmlns="http://www.w3.org/2000/svg" xmlns:xlink="http://www.w3.org/1999/xlink" contentScriptType="application/ecmascript" contentStyleType="text/css" height="679px" preserveAspectRatio="none" style="width:2588px;height:679px;" version="1.1" viewBox="0 0 2588 679" width="2588px" zoomAndPan="magnify"><defs><filter height="300%" id="fad6rd9" width="300%" x="-1" y="-1"><feGaussianBlur result="blurOut" stdDeviation="2.0"/><feColorMatrix in="blurOut" result="blurOut2" type="matrix" values="0 0 0 0 0 0 0 0 0 0 0 0 0 0 0 0 0 0 .4 0"/><feOffset dx="4.0" dy="4.0" in="blurOut2" result="blurOut3"/><feBlend in="SourceGraphic" in2="blurOut3" mode="normal"/></filter></defs><g><text fill="#000000" font-family="sans-serif" font-size="18" font-weight="bold" lengthAdjust="spacingAndGlyphs" textLength="293" x="1152" y="16.708">Regularizer Terms (gradient)</text><!--class basicTerm--><rect fill="#FEFECE" filter="url(#fad6rd9)" height="240.0703" style="stroke: #A80036; stroke-width: 1.5;" width="96" x="1765.5" y="28.9531"/><ellipse cx="1780.5" cy="44.9531" fill="#E6FFE6" rx="11" ry="11" style="stroke: #A80036; stroke-width: 1.0;"/><path d="M1782.4531,45.8594 L1778.8125,45.8594 L1778.8125,48.25 L1779.0625,48.25 C1779.5156,48.25 1779.6875,48.2813 1779.8281,48.4063 C1780.0625,48.5781 1780.1875,48.8281 1780.1875,49.1094 C1780.1875,49.3906 1780.0313,49.6875 1779.7813,49.8281 C1779.6406,49.9219 1779.4219,49.9531 1779.0625,49.9531 L1777.0156,49.9531 C1776.6094,49.9531 1776.3906,49.9063 1776.2344,49.7969 C1776.0313,49.625 1775.8906,49.3594 1775.8906,49.1094 C1775.8906,48.8125 1776.0469,48.5313 1776.2969,48.375 C1776.4531,48.2656 1776.5938,48.25 1777.0156,48.25 L1777.1094,48.25 L1777.1094,41.7344 C1776.5469,41.6875 1776.2344,41.3906 1776.2344,40.8906 C1776.2344,40.6094 1776.3906,40.3125 1776.6406,40.1563 C1776.7969,40.0625 1776.9219,40.0469 1777.3594,40.0469 L1779.0625,40.0469 C1779.5313,40.0469 1779.6875,40.0781 1779.8281,40.1875 C1780.0625,40.3594 1780.1875,40.625 1780.1875,40.8906 C1780.1875,41.1875 1780.0313,41.4688 1779.7813,41.625 C1779.625,41.7031 1779.4844,41.7344 1779.0625,41.7344 L1778.8125,41.7344 L1778.8125,44.1563 L1782.4531,44.1563 L1782.4531,41.7344 L1782.2031,41.7344 C1781.75,41.7344 1781.6094,41.7031 1781.4375,41.5938 C1781.2188,41.4219 1781.0781,41.1719 1781.0781,40.8906 C1781.0781,40.6094 1781.2344,40.3125 1781.4844,40.1563 C1781.6406,40.0625 1781.7656,40.0469 1782.2031,40.0469 L1783.9219,40.0469 C1784.375,40.0469 1784.5313,40.0781 1784.7031,40.1875 C1784.9063,40.3594 1785.0313,40.625 1785.0313,40.8906 C1785.0313,41.3906 1784.7188,41.6875 1784.1563,41.7344 L1784.1563,48.25 L1784.25,48.25 C1784.7188,48.25 1784.8594,48.2813 1785.0156,48.4063 C1785.2344,48.5781 1785.375,48.8281 1785.375,49.1094 C1785.375,49.3906 1785.2188,49.6875 1784.9688,49.8281 C1784.8281,49.9219 1784.6094,49.9531 1784.25,49.9531 L1782.2031,49.9531 C1781.7969,49.9531 1781.5938,49.9063 1781.4375,49.7969 C1781.2188,49.625 1781.0781,49.3594 1781.0781,49.1094 C1781.0781,48.8125 1781.2344,48.5313 1781.4844,48.375 C1781.6406,48.2656 1781.7969,48.25 1782.2031,48.25 L1782.4531,48.25 Z "/><text fill="#000000" font-family="sans-serif" font-size="12" lengthAdjust="spacingAndGlyphs" textLength="64" x="1794.5" y="49.1074">basicTerm</text><line style="stroke: #A80036; stroke-width: 1.5;" x1="1766.5" x2="1860.5" y1="60.9531" y2="60.9531"/><text fill="#000000" font-family="sans-serif" font-size="11" lengthAdjust="spacingAndGlyphs" textLength="13" x="1785.5" y="75.1636">+f</text><ellipse cx="1776.5" cy="85.6602" fill="none" rx="3" ry="3" style="stroke: #038048; stroke-width: 1.0;"/><text fill="#000000" font-family="sans-serif" font-size="11" lengthAdjust="spacingAndGlyphs" textLength="33" x="1785.5" y="87.9683">factor</text><ellipse cx="1776.5" cy="98.4648" fill="none" rx="3" ry="3" style="stroke: #038048; stroke-width: 1.0;"/><text fill="#000000" font-family="sans-serif" font-size="11" lengthAdjust="spacingAndGlyphs" textLength="35" x="1785.5" y="100.7729">length</text><ellipse cx="1776.5" cy="111.2695" fill="none" rx="3" ry="3" style="stroke: #038048; stroke-width: 1.0;"/><text fill="#000000" font-family="sans-serif" font-size="11" lengthAdjust="spacingAndGlyphs" textLength="53" x="1785.5" y="113.5776">mySigma</text><ellipse cx="1776.5" cy="124.0742" fill="none" rx="3" ry="3" style="stroke: #038048; stroke-width: 1.0;"/><text fill="#000000" font-family="sans-serif" font-size="11" lengthAdjust="spacingAndGlyphs" textLength="38" x="1785.5" y="126.3823">myTau</text><ellipse cx="1776.5" cy="136.8789" fill="none" rx="3" ry="3" style="stroke: #038048; stroke-width: 1.0;"/><text fill="#000000" font-family="sans-serif" font-size="11" lengthAdjust="spacingAndGlyphs" textLength="68" x="1785.5" y="139.187">numPrimals</text><ellipse cx="1776.5" cy="149.6836" fill="none" rx="3" ry="3" style="stroke: #038048; stroke-width: 1.0;"/><text fill="#000000" font-family="sans-serif" font-size="11" lengthAdjust="spacingAndGlyphs" textLength="51" x="1785.5" y="151.9917">numVars</text><ellipse cx="1776.5" cy="162.4883" fill="none" rx="3" ry="3" style="stroke: #038048; stroke-width: 1.0;"/><text fill="#000000" font-family="sans-serif" font-size="11" lengthAdjust="spacingAndGlyphs" textLength="49" x="1785.5" y="164.7964">operator</text><ellipse cx="1776.5" cy="175.293" fill="none" rx="3" ry="3" style="stroke: #038048; stroke-width: 1.0;"/><text fill="#000000" font-family="sans-serif" font-size="11" lengthAdjust="spacingAndGlyphs" textLength="56" x="1785.5" y="177.6011">operatorT</text><line style="stroke: #A80036; stroke-width: 1.5;" x1="1766.5" x2="1860.5" y1="184.1953" y2="184.1953"/><ellipse cx="1776.5" cy="196.0977" fill="#84BE84" rx="3" ry="3" style="stroke: #038048; stroke-width: 1.0;"/><text fill="#000000" font-family="sans-serif" font-size="11" lengthAdjust="spacingAndGlyphs" textLength="68" x="1785.5" y="198.4058">basicTerm()</text><ellipse cx="1776.5" cy="208.9023" fill="#84BE84" rx="3" ry="3" style="stroke: #038048; stroke-width: 1.0;"/><text fill="#000000" font-family="sans-serif" font-size="11" lengthAdjust="spacingAndGlyphs" textLength="25" x="1785.5" y="211.2104">init()</text><ellipse cx="1776.5" cy="221.707" fill="#84BE84" rx="3" ry="3" style="stroke: #038048; stroke-width: 1.0;"/><text fill="#000000" font-family="sans-serif" font-size="11" lengthAdjust="spacingAndGlyphs" textLength="43" x="1785.5" y="224.0151">xError()</text><ellipse cx="1776.5" cy="234.5117" fill="#84BE84" rx="3" ry="3" style="stroke: #038048; stroke-width: 1.0;"/><text fill="#000000" font-family="sans-serif" font-size="11" lengthAdjust="spacingAndGlyphs" textLength="41" x="1785.5" y="236.8198">xTilde()</text><ellipse cx="1776.5" cy="247.3164" fill="#84BE84" rx="3" ry="3" style="stroke: #038048; stroke-width: 1.0;"/><text fill="#000000" font-family="sans-serif" font-size="11" lengthAdjust="spacingAndGlyphs" textLength="43" x="1785.5" y="249.6245">yError()</text><ellipse cx="1776.5" cy="260.1211" fill="#84BE84" rx="3" ry="3" style="stroke: #038048; stroke-width: 1.0;"/><text fill="#000000" font-family="sans-serif" font-size="11" lengthAdjust="spacingAndGlyphs" textLength="41" x="1785.5" y="262.4292">yTilde()</text><!--class basicDualizedOperator--><rect fill="#FEFECE" filter="url(#fad6rd9)" height="60.8047" style="stroke: #A80036; stroke-width: 1.5;" width="173" x="1556" y="328.9531"/><ellipse cx="1571" cy="344.9531" fill="#E6FFE6" rx="11" ry="11" style="stroke: #A80036; stroke-width: 1.0;"/><path d="M1572.9531,345.8594 L1569.3125,345.8594 L1569.3125,348.25 L1569.5625,348.25 C1570.0156,348.25 1570.1875,348.2813 1570.3281,348.4063 C1570.5625,348.5781 1570.6875,348.8281 1570.6875,349.1094 C1570.6875,349.3906 1570.5313,349.6875 1570.2813,349.8281 C1570.1406,349.9219 1569.9219,349.9531 1569.5625,349.9531 L1567.5156,349.9531 C1567.1094,349.9531 1566.8906,349.9063 1566.7344,349.7969 C1566.5313,349.625 1566.3906,349.3594 1566.3906,349.1094 C1566.3906,348.8125 1566.5469,348.5313 1566.7969,348.375 C1566.9531,348.2656 1567.0938,348.25 1567.5156,348.25 L1567.6094,348.25 L1567.6094,341.7344 C1567.0469,341.6875 1566.7344,341.3906 1566.7344,340.8906 C1566.7344,340.6094 1566.8906,340.3125 1567.1406,340.1563 C1567.2969,340.0625 1567.4219,340.0469 1567.8594,340.0469 L1569.5625,340.0469 C1570.0313,340.0469 1570.1875,340.0781 1570.3281,340.1875 C1570.5625,340.3594 1570.6875,340.625 1570.6875,340.8906 C1570.6875,341.1875 1570.5313,341.4688 1570.2813,341.625 C1570.125,341.7031 1569.9844,341.7344 1569.5625,341.7344 L1569.3125,341.7344 L1569.3125,344.1563 L1572.9531,344.1563 L1572.9531,341.7344 L1572.7031,341.7344 C1572.25,341.7344 1572.1094,341.7031 1571.9375,341.5938 C1571.7188,341.4219 1571.5781,341.1719 1571.5781,340.8906 C1571.5781,340.6094 1571.7344,340.3125 1571.9844,340.1563 C1572.1406,340.0625 1572.2656,340.0469 1572.7031,340.0469 L1574.4219,340.0469 C1574.875,340.0469 1575.0313,340.0781 1575.2031,340.1875 C1575.4063,340.3594 1575.5313,340.625 1575.5313,340.8906 C1575.5313,341.3906 1575.2188,341.6875 1574.6563,341.7344 L1574.6563,348.25 L1574.75,348.25 C1575.2188,348.25 1575.3594,348.2813 1575.5156,348.4063 C1575.7344,348.5781 1575.875,348.8281 1575.875,349.1094 C1575.875,349.3906 1575.7188,349.6875 1575.4688,349.8281 C1575.3281,349.9219 1575.1094,349.9531 1574.75,349.9531 L1572.7031,349.9531 C1572.2969,349.9531 1572.0938,349.9063 1571.9375,349.7969 C1571.7188,349.625 1571.5781,349.3594 1571.5781,349.1094 C1571.5781,348.8125 1571.7344,348.5313 1571.9844,348.375 C1572.1406,348.2656 1572.2969,348.25 1572.7031,348.25 L1572.9531,348.25 Z "/><text fill="#000000" font-family="sans-serif" font-size="12" lengthAdjust="spacingAndGlyphs" textLength="141" x="1585" y="349.1074">basicDualizedOperator</text><line style="stroke: #A80036; stroke-width: 1.5;" x1="1557" x2="1728" y1="360.9531" y2="360.9531"/><line style="stroke: #A80036; stroke-width: 1.5;" x1="1557" x2="1728" y1="368.9531" y2="368.9531"/><ellipse cx="1567" cy="380.8555" fill="#84BE84" rx="3" ry="3" style="stroke: #038048; stroke-width: 1.0;"/><text fill="#000000" font-family="sans-serif" font-size="11" lengthAdjust="spacingAndGlyphs" textLength="136" x="1576" y="383.1636">basicDualizedOperator()</text><!--class basicGradient--><rect fill="#FEFECE" filter="url(#fad6rd9)" height="60.8047" style="stroke: #A80036; stroke-width: 1.5;" width="119" x="522" y="456.4531"/><ellipse cx="537" cy="472.4531" fill="#E6FFE6" rx="11" ry="11" style="stroke: #A80036; stroke-width: 1.0;"/><path d="M538.9531,473.3594 L535.3125,473.3594 L535.3125,475.75 L535.5625,475.75 C536.0156,475.75 536.1875,475.7813 536.3281,475.9063 C536.5625,476.0781 536.6875,476.3281 536.6875,476.6094 C536.6875,476.8906 536.5313,477.1875 536.2813,477.3281 C536.1406,477.4219 535.9219,477.4531 535.5625,477.4531 L533.5156,477.4531 C533.1094,477.4531 532.8906,477.4063 532.7344,477.2969 C532.5313,477.125 532.3906,476.8594 532.3906,476.6094 C532.3906,476.3125 532.5469,476.0313 532.7969,475.875 C532.9531,475.7656 533.0938,475.75 533.5156,475.75 L533.6094,475.75 L533.6094,469.2344 C533.0469,469.1875 532.7344,468.8906 532.7344,468.3906 C532.7344,468.1094 532.8906,467.8125 533.1406,467.6563 C533.2969,467.5625 533.4219,467.5469 533.8594,467.5469 L535.5625,467.5469 C536.0313,467.5469 536.1875,467.5781 536.3281,467.6875 C536.5625,467.8594 536.6875,468.125 536.6875,468.3906 C536.6875,468.6875 536.5313,468.9688 536.2813,469.125 C536.125,469.2031 535.9844,469.2344 535.5625,469.2344 L535.3125,469.2344 L535.3125,471.6563 L538.9531,471.6563 L538.9531,469.2344 L538.7031,469.2344 C538.25,469.2344 538.1094,469.2031 537.9375,469.0938 C537.7188,468.9219 537.5781,468.6719 537.5781,468.3906 C537.5781,468.1094 537.7344,467.8125 537.9844,467.6563 C538.1406,467.5625 538.2656,467.5469 538.7031,467.5469 L540.4219,467.5469 C540.875,467.5469 541.0313,467.5781 541.2031,467.6875 C541.4063,467.8594 541.5313,468.125 541.5313,468.3906 C541.5313,468.8906 541.2188,469.1875 540.6563,469.2344 L540.6563,475.75 L540.75,475.75 C541.2188,475.75 541.3594,475.7813 541.5156,475.9063 C541.7344,476.0781 541.875,476.3281 541.875,476.6094 C541.875,476.8906 541.7188,477.1875 541.4688,477.3281 C541.3281,477.4219 541.1094,477.4531 540.75,477.4531 L538.7031,477.4531 C538.2969,477.4531 538.0938,477.4063 537.9375,477.2969 C537.7188,477.125 537.5781,476.8594 537.5781,476.6094 C537.5781,476.3125 537.7344,476.0313 537.9844,475.875 C538.1406,475.7656 538.2969,475.75 538.7031,475.75 L538.9531,475.75 Z "/><text fill="#000000" font-family="sans-serif" font-size="12" lengthAdjust="spacingAndGlyphs" textLength="87" x="551" y="476.6074">basicGradient</text><line style="stroke: #A80036; stroke-width: 1.5;" x1="523" x2="640" y1="488.4531" y2="488.4531"/><line style="stroke: #A80036; stroke-width: 1.5;" x1="523" x2="640" y1="496.4531" y2="496.4531"/><ellipse cx="533" cy="508.3555" fill="#84BE84" rx="3" ry="3" style="stroke: #038048; stroke-width: 1.0;"/><text fill="#000000" font-family="sans-serif" font-size="11" lengthAdjust="spacingAndGlyphs" textLength="87" x="542" y="510.6636">basicGradient()</text><!--class basicGradientDifference--><rect fill="#FEFECE" filter="url(#fad6rd9)" height="60.8047" style="stroke: #A80036; stroke-width: 1.5;" width="183" x="1551" y="456.4531"/><ellipse cx="1566" cy="472.4531" fill="#E6FFE6" rx="11" ry="11" style="stroke: #A80036; stroke-width: 1.0;"/><path d="M1567.9531,473.3594 L1564.3125,473.3594 L1564.3125,475.75 L1564.5625,475.75 C1565.0156,475.75 1565.1875,475.7813 1565.3281,475.9063 C1565.5625,476.0781 1565.6875,476.3281 1565.6875,476.6094 C1565.6875,476.8906 1565.5313,477.1875 1565.2813,477.3281 C1565.1406,477.4219 1564.9219,477.4531 1564.5625,477.4531 L1562.5156,477.4531 C1562.1094,477.4531 1561.8906,477.4063 1561.7344,477.2969 C1561.5313,477.125 1561.3906,476.8594 1561.3906,476.6094 C1561.3906,476.3125 1561.5469,476.0313 1561.7969,475.875 C1561.9531,475.7656 1562.0938,475.75 1562.5156,475.75 L1562.6094,475.75 L1562.6094,469.2344 C1562.0469,469.1875 1561.7344,468.8906 1561.7344,468.3906 C1561.7344,468.1094 1561.8906,467.8125 1562.1406,467.6563 C1562.2969,467.5625 1562.4219,467.5469 1562.8594,467.5469 L1564.5625,467.5469 C1565.0313,467.5469 1565.1875,467.5781 1565.3281,467.6875 C1565.5625,467.8594 1565.6875,468.125 1565.6875,468.3906 C1565.6875,468.6875 1565.5313,468.9688 1565.2813,469.125 C1565.125,469.2031 1564.9844,469.2344 1564.5625,469.2344 L1564.3125,469.2344 L1564.3125,471.6563 L1567.9531,471.6563 L1567.9531,469.2344 L1567.7031,469.2344 C1567.25,469.2344 1567.1094,469.2031 1566.9375,469.0938 C1566.7188,468.9219 1566.5781,468.6719 1566.5781,468.3906 C1566.5781,468.1094 1566.7344,467.8125 1566.9844,467.6563 C1567.1406,467.5625 1567.2656,467.5469 1567.7031,467.5469 L1569.4219,467.5469 C1569.875,467.5469 1570.0313,467.5781 1570.2031,467.6875 C1570.4063,467.8594 1570.5313,468.125 1570.5313,468.3906 C1570.5313,468.8906 1570.2188,469.1875 1569.6563,469.2344 L1569.6563,475.75 L1569.75,475.75 C1570.2188,475.75 1570.3594,475.7813 1570.5156,475.9063 C1570.7344,476.0781 1570.875,476.3281 1570.875,476.6094 C1570.875,476.8906 1570.7188,477.1875 1570.4688,477.3281 C1570.3281,477.4219 1570.1094,477.4531 1569.75,477.4531 L1567.7031,477.4531 C1567.2969,477.4531 1567.0938,477.4063 1566.9375,477.2969 C1566.7188,477.125 1566.5781,476.8594 1566.5781,476.6094 C1566.5781,476.3125 1566.7344,476.0313 1566.9844,475.875 C1567.1406,475.7656 1567.2969,475.75 1567.7031,475.75 L1567.9531,475.75 Z "/><text fill="#000000" font-family="sans-serif" font-size="12" lengthAdjust="spacingAndGlyphs" textLength="151" x="1580" y="476.6074">basicGradientDifference</text><line style="stroke: #A80036; stroke-width: 1.5;" x1="1552" x2="1733" y1="488.4531" y2="488.4531"/><line style="stroke: #A80036; stroke-width: 1.5;" x1="1552" x2="1733" y1="496.4531" y2="496.4531"/><ellipse cx="1562" cy="508.3555" fill="#84BE84" rx="3" ry="3" style="stroke: #038048; stroke-width: 1.0;"/><text fill="#000000" font-family="sans-serif" font-size="11" lengthAdjust="spacingAndGlyphs" textLength="145" x="1571" y="510.6636">basicGradientDifference()</text><!--class basicSecondOrderGradient--><rect fill="#FEFECE" filter="url(#fad6rd9)" height="60.8047" style="stroke: #A80036; stroke-width: 1.5;" width="201" x="1941" y="456.4531"/><ellipse cx="1956" cy="472.4531" fill="#E6FFE6" rx="11" ry="11" style="stroke: #A80036; stroke-width: 1.0;"/><path d="M1957.9531,473.3594 L1954.3125,473.3594 L1954.3125,475.75 L1954.5625,475.75 C1955.0156,475.75 1955.1875,475.7813 1955.3281,475.9063 C1955.5625,476.0781 1955.6875,476.3281 1955.6875,476.6094 C1955.6875,476.8906 1955.5313,477.1875 1955.2813,477.3281 C1955.1406,477.4219 1954.9219,477.4531 1954.5625,477.4531 L1952.5156,477.4531 C1952.1094,477.4531 1951.8906,477.4063 1951.7344,477.2969 C1951.5313,477.125 1951.3906,476.8594 1951.3906,476.6094 C1951.3906,476.3125 1951.5469,476.0313 1951.7969,475.875 C1951.9531,475.7656 1952.0938,475.75 1952.5156,475.75 L1952.6094,475.75 L1952.6094,469.2344 C1952.0469,469.1875 1951.7344,468.8906 1951.7344,468.3906 C1951.7344,468.1094 1951.8906,467.8125 1952.1406,467.6563 C1952.2969,467.5625 1952.4219,467.5469 1952.8594,467.5469 L1954.5625,467.5469 C1955.0313,467.5469 1955.1875,467.5781 1955.3281,467.6875 C1955.5625,467.8594 1955.6875,468.125 1955.6875,468.3906 C1955.6875,468.6875 1955.5313,468.9688 1955.2813,469.125 C1955.125,469.2031 1954.9844,469.2344 1954.5625,469.2344 L1954.3125,469.2344 L1954.3125,471.6563 L1957.9531,471.6563 L1957.9531,469.2344 L1957.7031,469.2344 C1957.25,469.2344 1957.1094,469.2031 1956.9375,469.0938 C1956.7188,468.9219 1956.5781,468.6719 1956.5781,468.3906 C1956.5781,468.1094 1956.7344,467.8125 1956.9844,467.6563 C1957.1406,467.5625 1957.2656,467.5469 1957.7031,467.5469 L1959.4219,467.5469 C1959.875,467.5469 1960.0313,467.5781 1960.2031,467.6875 C1960.4063,467.8594 1960.5313,468.125 1960.5313,468.3906 C1960.5313,468.8906 1960.2188,469.1875 1959.6563,469.2344 L1959.6563,475.75 L1959.75,475.75 C1960.2188,475.75 1960.3594,475.7813 1960.5156,475.9063 C1960.7344,476.0781 1960.875,476.3281 1960.875,476.6094 C1960.875,476.8906 1960.7188,477.1875 1960.4688,477.3281 C1960.3281,477.4219 1960.1094,477.4531 1959.75,477.4531 L1957.7031,477.4531 C1957.2969,477.4531 1957.0938,477.4063 1956.9375,477.2969 C1956.7188,477.125 1956.5781,476.8594 1956.5781,476.6094 C1956.5781,476.3125 1956.7344,476.0313 1956.9844,475.875 C1957.1406,475.7656 1957.2969,475.75 1957.7031,475.75 L1957.9531,475.75 Z "/><text fill="#000000" font-family="sans-serif" font-size="12" lengthAdjust="spacingAndGlyphs" textLength="169" x="1970" y="476.6074">basicSecondOrderGradient</text><line style="stroke: #A80036; stroke-width: 1.5;" x1="1942" x2="2141" y1="488.4531" y2="488.4531"/><line style="stroke: #A80036; stroke-width: 1.5;" x1="1942" x2="2141" y1="496.4531" y2="496.4531"/><ellipse cx="1952" cy="508.3555" fill="#84BE84" rx="3" ry="3" style="stroke: #038048; stroke-width: 1.0;"/><text fill="#000000" font-family="sans-serif" font-size="11" lengthAdjust="spacingAndGlyphs" textLength="162" x="1961" y="510.6636">basicSecondOrderGradient()</text><!--class frobeniusGradient--><rect fill="#FEFECE" filter="url(#fad6rd9)" height="60.8047" style="stroke: #A80036; stroke-width: 1.5;" width="145" x="164" y="596.4531"/><ellipse cx="179" cy="612.4531" fill="#E6FFE6" rx="11" ry="11" style="stroke: #A80036; stroke-width: 1.0;"/><path d="M180.9531,613.3594 L177.3125,613.3594 L177.3125,615.75 L177.5625,615.75 C178.0156,615.75 178.1875,615.7813 178.3281,615.9063 C178.5625,616.0781 178.6875,616.3281 178.6875,616.6094 C178.6875,616.8906 178.5313,617.1875 178.2813,617.3281 C178.1406,617.4219 177.9219,617.4531 177.5625,617.4531 L175.5156,617.4531 C175.1094,617.4531 174.8906,617.4063 174.7344,617.2969 C174.5313,617.125 174.3906,616.8594 174.3906,616.6094 C174.3906,616.3125 174.5469,616.0313 174.7969,615.875 C174.9531,615.7656 175.0938,615.75 175.5156,615.75 L175.6094,615.75 L175.6094,609.2344 C175.0469,609.1875 174.7344,608.8906 174.7344,608.3906 C174.7344,608.1094 174.8906,607.8125 175.1406,607.6563 C175.2969,607.5625 175.4219,607.5469 175.8594,607.5469 L177.5625,607.5469 C178.0313,607.5469 178.1875,607.5781 178.3281,607.6875 C178.5625,607.8594 178.6875,608.125 178.6875,608.3906 C178.6875,608.6875 178.5313,608.9688 178.2813,609.125 C178.125,609.2031 177.9844,609.2344 177.5625,609.2344 L177.3125,609.2344 L177.3125,611.6563 L180.9531,611.6563 L180.9531,609.2344 L180.7031,609.2344 C180.25,609.2344 180.1094,609.2031 179.9375,609.0938 C179.7188,608.9219 179.5781,608.6719 179.5781,608.3906 C179.5781,608.1094 179.7344,607.8125 179.9844,607.6563 C180.1406,607.5625 180.2656,607.5469 180.7031,607.5469 L182.4219,607.5469 C182.875,607.5469 183.0313,607.5781 183.2031,607.6875 C183.4063,607.8594 183.5313,608.125 183.5313,608.3906 C183.5313,608.8906 183.2188,609.1875 182.6563,609.2344 L182.6563,615.75 L182.75,615.75 C183.2188,615.75 183.3594,615.7813 183.5156,615.9063 C183.7344,616.0781 183.875,616.3281 183.875,616.6094 C183.875,616.8906 183.7188,617.1875 183.4688,617.3281 C183.3281,617.4219 183.1094,617.4531 182.75,617.4531 L180.7031,617.4531 C180.2969,617.4531 180.0938,617.4063 179.9375,617.2969 C179.7188,617.125 179.5781,616.8594 179.5781,616.6094 C179.5781,616.3125 179.7344,616.0313 179.9844,615.875 C180.1406,615.7656 180.2969,615.75 180.7031,615.75 L180.9531,615.75 Z "/><text fill="#000000" font-family="sans-serif" font-size="12" lengthAdjust="spacingAndGlyphs" textLength="113" x="193" y="616.6074">frobeniusGradient</text><line style="stroke: #A80036; stroke-width: 1.5;" x1="165" x2="308" y1="628.4531" y2="628.4531"/><line style="stroke: #A80036; stroke-width: 1.5;" x1="165" x2="308" y1="636.4531" y2="636.4531"/><ellipse cx="175" cy="648.3555" fill="#84BE84" rx="3" ry="3" style="stroke: #038048; stroke-width: 1.0;"/><text fill="#000000" font-family="sans-serif" font-size="11" lengthAdjust="spacingAndGlyphs" textLength="111" x="184" y="650.6636">frobeniusGradient()</text><!--class huberGradient--><rect fill="#FEFECE" filter="url(#fad6rd9)" height="73.6094" style="stroke: #A80036; stroke-width: 1.5;" width="123" x="6" y="589.9531"/><ellipse cx="21" cy="605.9531" fill="#E6FFE6" rx="11" ry="11" style="stroke: #A80036; stroke-width: 1.0;"/><path d="M22.9531,606.8594 L19.3125,606.8594 L19.3125,609.25 L19.5625,609.25 C20.0156,609.25 20.1875,609.2813 20.3281,609.4063 C20.5625,609.5781 20.6875,609.8281 20.6875,610.1094 C20.6875,610.3906 20.5313,610.6875 20.2813,610.8281 C20.1406,610.9219 19.9219,610.9531 19.5625,610.9531 L17.5156,610.9531 C17.1094,610.9531 16.8906,610.9063 16.7344,610.7969 C16.5313,610.625 16.3906,610.3594 16.3906,610.1094 C16.3906,609.8125 16.5469,609.5313 16.7969,609.375 C16.9531,609.2656 17.0938,609.25 17.5156,609.25 L17.6094,609.25 L17.6094,602.7344 C17.0469,602.6875 16.7344,602.3906 16.7344,601.8906 C16.7344,601.6094 16.8906,601.3125 17.1406,601.1563 C17.2969,601.0625 17.4219,601.0469 17.8594,601.0469 L19.5625,601.0469 C20.0313,601.0469 20.1875,601.0781 20.3281,601.1875 C20.5625,601.3594 20.6875,601.625 20.6875,601.8906 C20.6875,602.1875 20.5313,602.4688 20.2813,602.625 C20.125,602.7031 19.9844,602.7344 19.5625,602.7344 L19.3125,602.7344 L19.3125,605.1563 L22.9531,605.1563 L22.9531,602.7344 L22.7031,602.7344 C22.25,602.7344 22.1094,602.7031 21.9375,602.5938 C21.7188,602.4219 21.5781,602.1719 21.5781,601.8906 C21.5781,601.6094 21.7344,601.3125 21.9844,601.1563 C22.1406,601.0625 22.2656,601.0469 22.7031,601.0469 L24.4219,601.0469 C24.875,601.0469 25.0313,601.0781 25.2031,601.1875 C25.4063,601.3594 25.5313,601.625 25.5313,601.8906 C25.5313,602.3906 25.2188,602.6875 24.6563,602.7344 L24.6563,609.25 L24.75,609.25 C25.2188,609.25 25.3594,609.2813 25.5156,609.4063 C25.7344,609.5781 25.875,609.8281 25.875,610.1094 C25.875,610.3906 25.7188,610.6875 25.4688,610.8281 C25.3281,610.9219 25.1094,610.9531 24.75,610.9531 L22.7031,610.9531 C22.2969,610.9531 22.0938,610.9063 21.9375,610.7969 C21.7188,610.625 21.5781,610.3594 21.5781,610.1094 C21.5781,609.8125 21.7344,609.5313 21.9844,609.375 C22.1406,609.2656 22.2969,609.25 22.7031,609.25 L22.9531,609.25 Z "/><text fill="#000000" font-family="sans-serif" font-size="12" lengthAdjust="spacingAndGlyphs" textLength="91" x="35" y="610.1074">huberGradient</text><line style="stroke: #A80036; stroke-width: 1.5;" x1="7" x2="128" y1="621.9531" y2="621.9531"/><ellipse cx="17" cy="633.8555" fill="none" rx="3" ry="3" style="stroke: #038048; stroke-width: 1.0;"/><text fill="#000000" font-family="sans-serif" font-size="11" lengthAdjust="spacingAndGlyphs" textLength="24" x="26" y="636.1636">epsi</text><line style="stroke: #A80036; stroke-width: 1.5;" x1="7" x2="128" y1="642.7578" y2="642.7578"/><ellipse cx="17" cy="654.6602" fill="#84BE84" rx="3" ry="3" style="stroke: #038048; stroke-width: 1.0;"/><text fill="#000000" font-family="sans-serif" font-size="11" lengthAdjust="spacingAndGlyphs" textLength="90" x="26" y="656.9683">huberGradient()</text><!--class innerProductGradient--><rect fill="#FEFECE" filter="url(#fad6rd9)" height="73.6094" style="stroke: #A80036; stroke-width: 1.5;" width="167" x="720" y="589.9531"/><ellipse cx="735" cy="605.9531" fill="#E6FFE6" rx="11" ry="11" style="stroke: #A80036; stroke-width: 1.0;"/><path d="M736.9531,606.8594 L733.3125,606.8594 L733.3125,609.25 L733.5625,609.25 C734.0156,609.25 734.1875,609.2813 734.3281,609.4063 C734.5625,609.5781 734.6875,609.8281 734.6875,610.1094 C734.6875,610.3906 734.5313,610.6875 734.2813,610.8281 C734.1406,610.9219 733.9219,610.9531 733.5625,610.9531 L731.5156,610.9531 C731.1094,610.9531 730.8906,610.9063 730.7344,610.7969 C730.5313,610.625 730.3906,610.3594 730.3906,610.1094 C730.3906,609.8125 730.5469,609.5313 730.7969,609.375 C730.9531,609.2656 731.0938,609.25 731.5156,609.25 L731.6094,609.25 L731.6094,602.7344 C731.0469,602.6875 730.7344,602.3906 730.7344,601.8906 C730.7344,601.6094 730.8906,601.3125 731.1406,601.1563 C731.2969,601.0625 731.4219,601.0469 731.8594,601.0469 L733.5625,601.0469 C734.0313,601.0469 734.1875,601.0781 734.3281,601.1875 C734.5625,601.3594 734.6875,601.625 734.6875,601.8906 C734.6875,602.1875 734.5313,602.4688 734.2813,602.625 C734.125,602.7031 733.9844,602.7344 733.5625,602.7344 L733.3125,602.7344 L733.3125,605.1563 L736.9531,605.1563 L736.9531,602.7344 L736.7031,602.7344 C736.25,602.7344 736.1094,602.7031 735.9375,602.5938 C735.7188,602.4219 735.5781,602.1719 735.5781,601.8906 C735.5781,601.6094 735.7344,601.3125 735.9844,601.1563 C736.1406,601.0625 736.2656,601.0469 736.7031,601.0469 L738.4219,601.0469 C738.875,601.0469 739.0313,601.0781 739.2031,601.1875 C739.4063,601.3594 739.5313,601.625 739.5313,601.8906 C739.5313,602.3906 739.2188,602.6875 738.6563,602.7344 L738.6563,609.25 L738.75,609.25 C739.2188,609.25 739.3594,609.2813 739.5156,609.4063 C739.7344,609.5781 739.875,609.8281 739.875,610.1094 C739.875,610.3906 739.7188,610.6875 739.4688,610.8281 C739.3281,610.9219 739.1094,610.9531 738.75,610.9531 L736.7031,610.9531 C736.2969,610.9531 736.0938,610.9063 735.9375,610.7969 C735.7188,610.625 735.5781,610.3594 735.5781,610.1094 C735.5781,609.8125 735.7344,609.5313 735.9844,609.375 C736.1406,609.2656 736.2969,609.25 736.7031,609.25 L736.9531,609.25 Z "/><text fill="#000000" font-family="sans-serif" font-size="12" lengthAdjust="spacingAndGlyphs" textLength="135" x="749" y="610.1074">innerProductGradient</text><line style="stroke: #A80036; stroke-width: 1.5;" x1="721" x2="886" y1="621.9531" y2="621.9531"/><text fill="#000000" font-family="sans-serif" font-size="11" lengthAdjust="spacingAndGlyphs" textLength="16" x="726" y="636.1636">+b</text><line style="stroke: #A80036; stroke-width: 1.5;" x1="721" x2="886" y1="642.7578" y2="642.7578"/><ellipse cx="731" cy="654.6602" fill="#84BE84" rx="3" ry="3" style="stroke: #038048; stroke-width: 1.0;"/><text fill="#000000" font-family="sans-serif" font-size="11" lengthAdjust="spacingAndGlyphs" textLength="129" x="740" y="656.9683">innerProductGradient()</text><!--class innerProductGradientDiff--><rect fill="#FEFECE" filter="url(#fad6rd9)" height="73.6094" style="stroke: #A80036; stroke-width: 1.5;" width="187" x="1548" y="589.9531"/><ellipse cx="1563" cy="605.9531" fill="#E6FFE6" rx="11" ry="11" style="stroke: #A80036; stroke-width: 1.0;"/><path d="M1564.9531,606.8594 L1561.3125,606.8594 L1561.3125,609.25 L1561.5625,609.25 C1562.0156,609.25 1562.1875,609.2813 1562.3281,609.4063 C1562.5625,609.5781 1562.6875,609.8281 1562.6875,610.1094 C1562.6875,610.3906 1562.5313,610.6875 1562.2813,610.8281 C1562.1406,610.9219 1561.9219,610.9531 1561.5625,610.9531 L1559.5156,610.9531 C1559.1094,610.9531 1558.8906,610.9063 1558.7344,610.7969 C1558.5313,610.625 1558.3906,610.3594 1558.3906,610.1094 C1558.3906,609.8125 1558.5469,609.5313 1558.7969,609.375 C1558.9531,609.2656 1559.0938,609.25 1559.5156,609.25 L1559.6094,609.25 L1559.6094,602.7344 C1559.0469,602.6875 1558.7344,602.3906 1558.7344,601.8906 C1558.7344,601.6094 1558.8906,601.3125 1559.1406,601.1563 C1559.2969,601.0625 1559.4219,601.0469 1559.8594,601.0469 L1561.5625,601.0469 C1562.0313,601.0469 1562.1875,601.0781 1562.3281,601.1875 C1562.5625,601.3594 1562.6875,601.625 1562.6875,601.8906 C1562.6875,602.1875 1562.5313,602.4688 1562.2813,602.625 C1562.125,602.7031 1561.9844,602.7344 1561.5625,602.7344 L1561.3125,602.7344 L1561.3125,605.1563 L1564.9531,605.1563 L1564.9531,602.7344 L1564.7031,602.7344 C1564.25,602.7344 1564.1094,602.7031 1563.9375,602.5938 C1563.7188,602.4219 1563.5781,602.1719 1563.5781,601.8906 C1563.5781,601.6094 1563.7344,601.3125 1563.9844,601.1563 C1564.1406,601.0625 1564.2656,601.0469 1564.7031,601.0469 L1566.4219,601.0469 C1566.875,601.0469 1567.0313,601.0781 1567.2031,601.1875 C1567.4063,601.3594 1567.5313,601.625 1567.5313,601.8906 C1567.5313,602.3906 1567.2188,602.6875 1566.6563,602.7344 L1566.6563,609.25 L1566.75,609.25 C1567.2188,609.25 1567.3594,609.2813 1567.5156,609.4063 C1567.7344,609.5781 1567.875,609.8281 1567.875,610.1094 C1567.875,610.3906 1567.7188,610.6875 1567.4688,610.8281 C1567.3281,610.9219 1567.1094,610.9531 1566.75,610.9531 L1564.7031,610.9531 C1564.2969,610.9531 1564.0938,610.9063 1563.9375,610.7969 C1563.7188,610.625 1563.5781,610.3594 1563.5781,610.1094 C1563.5781,609.8125 1563.7344,609.5313 1563.9844,609.375 C1564.1406,609.2656 1564.2969,609.25 1564.7031,609.25 L1564.9531,609.25 Z "/><text fill="#000000" font-family="sans-serif" font-size="12" lengthAdjust="spacingAndGlyphs" textLength="155" x="1577" y="610.1074">innerProductGradientDiff</text><line style="stroke: #A80036; stroke-width: 1.5;" x1="1549" x2="1734" y1="621.9531" y2="621.9531"/><text fill="#000000" font-family="sans-serif" font-size="11" lengthAdjust="spacingAndGlyphs" textLength="16" x="1554" y="636.1636">+b</text><line style="stroke: #A80036; stroke-width: 1.5;" x1="1549" x2="1734" y1="642.7578" y2="642.7578"/><ellipse cx="1559" cy="654.6602" fill="#84BE84" rx="3" ry="3" style="stroke: #038048; stroke-width: 1.0;"/><text fill="#000000" font-family="sans-serif" font-size="11" lengthAdjust="spacingAndGlyphs" textLength="148" x="1568" y="656.9683">innerProductGradientDiff()</text><!--class L1gradientAniso--><rect fill="#FEFECE" filter="url(#fad6rd9)" height="60.8047" style="stroke: #A80036; stroke-width: 1.5;" width="133" x="1074" y="596.4531"/><ellipse cx="1089" cy="612.4531" fill="#E6FFE6" rx="11" ry="11" style="stroke: #A80036; stroke-width: 1.0;"/><path d="M1090.9531,613.3594 L1087.3125,613.3594 L1087.3125,615.75 L1087.5625,615.75 C1088.0156,615.75 1088.1875,615.7813 1088.3281,615.9063 C1088.5625,616.0781 1088.6875,616.3281 1088.6875,616.6094 C1088.6875,616.8906 1088.5313,617.1875 1088.2813,617.3281 C1088.1406,617.4219 1087.9219,617.4531 1087.5625,617.4531 L1085.5156,617.4531 C1085.1094,617.4531 1084.8906,617.4063 1084.7344,617.2969 C1084.5313,617.125 1084.3906,616.8594 1084.3906,616.6094 C1084.3906,616.3125 1084.5469,616.0313 1084.7969,615.875 C1084.9531,615.7656 1085.0938,615.75 1085.5156,615.75 L1085.6094,615.75 L1085.6094,609.2344 C1085.0469,609.1875 1084.7344,608.8906 1084.7344,608.3906 C1084.7344,608.1094 1084.8906,607.8125 1085.1406,607.6563 C1085.2969,607.5625 1085.4219,607.5469 1085.8594,607.5469 L1087.5625,607.5469 C1088.0313,607.5469 1088.1875,607.5781 1088.3281,607.6875 C1088.5625,607.8594 1088.6875,608.125 1088.6875,608.3906 C1088.6875,608.6875 1088.5313,608.9688 1088.2813,609.125 C1088.125,609.2031 1087.9844,609.2344 1087.5625,609.2344 L1087.3125,609.2344 L1087.3125,611.6563 L1090.9531,611.6563 L1090.9531,609.2344 L1090.7031,609.2344 C1090.25,609.2344 1090.1094,609.2031 1089.9375,609.0938 C1089.7188,608.9219 1089.5781,608.6719 1089.5781,608.3906 C1089.5781,608.1094 1089.7344,607.8125 1089.9844,607.6563 C1090.1406,607.5625 1090.2656,607.5469 1090.7031,607.5469 L1092.4219,607.5469 C1092.875,607.5469 1093.0313,607.5781 1093.2031,607.6875 C1093.4063,607.8594 1093.5313,608.125 1093.5313,608.3906 C1093.5313,608.8906 1093.2188,609.1875 1092.6563,609.2344 L1092.6563,615.75 L1092.75,615.75 C1093.2188,615.75 1093.3594,615.7813 1093.5156,615.9063 C1093.7344,616.0781 1093.875,616.3281 1093.875,616.6094 C1093.875,616.8906 1093.7188,617.1875 1093.4688,617.3281 C1093.3281,617.4219 1093.1094,617.4531 1092.75,617.4531 L1090.7031,617.4531 C1090.2969,617.4531 1090.0938,617.4063 1089.9375,617.2969 C1089.7188,617.125 1089.5781,616.8594 1089.5781,616.6094 C1089.5781,616.3125 1089.7344,616.0313 1089.9844,615.875 C1090.1406,615.7656 1090.2969,615.75 1090.7031,615.75 L1090.9531,615.75 Z "/><text fill="#000000" font-family="sans-serif" font-size="12" lengthAdjust="spacingAndGlyphs" textLength="101" x="1103" y="616.6074">L1gradientAniso</text><line style="stroke: #A80036; stroke-width: 1.5;" x1="1075" x2="1206" y1="628.4531" y2="628.4531"/><line style="stroke: #A80036; stroke-width: 1.5;" x1="1075" x2="1206" y1="636.4531" y2="636.4531"/><ellipse cx="1085" cy="648.3555" fill="#84BE84" rx="3" ry="3" style="stroke: #038048; stroke-width: 1.0;"/><text fill="#000000" font-family="sans-serif" font-size="11" lengthAdjust="spacingAndGlyphs" textLength="99" x="1094" y="650.6636">L1gradientAniso()</text><!--class L1gradientDiffAniso--><rect fill="#FEFECE" filter="url(#fad6rd9)" height="60.8047" style="stroke: #A80036; stroke-width: 1.5;" width="153" x="2176" y="596.4531"/><ellipse cx="2191" cy="612.4531" fill="#E6FFE6" rx="11" ry="11" style="stroke: #A80036; stroke-width: 1.0;"/><path d="M2192.9531,613.3594 L2189.3125,613.3594 L2189.3125,615.75 L2189.5625,615.75 C2190.0156,615.75 2190.1875,615.7813 2190.3281,615.9063 C2190.5625,616.0781 2190.6875,616.3281 2190.6875,616.6094 C2190.6875,616.8906 2190.5313,617.1875 2190.2813,617.3281 C2190.1406,617.4219 2189.9219,617.4531 2189.5625,617.4531 L2187.5156,617.4531 C2187.1094,617.4531 2186.8906,617.4063 2186.7344,617.2969 C2186.5313,617.125 2186.3906,616.8594 2186.3906,616.6094 C2186.3906,616.3125 2186.5469,616.0313 2186.7969,615.875 C2186.9531,615.7656 2187.0938,615.75 2187.5156,615.75 L2187.6094,615.75 L2187.6094,609.2344 C2187.0469,609.1875 2186.7344,608.8906 2186.7344,608.3906 C2186.7344,608.1094 2186.8906,607.8125 2187.1406,607.6563 C2187.2969,607.5625 2187.4219,607.5469 2187.8594,607.5469 L2189.5625,607.5469 C2190.0313,607.5469 2190.1875,607.5781 2190.3281,607.6875 C2190.5625,607.8594 2190.6875,608.125 2190.6875,608.3906 C2190.6875,608.6875 2190.5313,608.9688 2190.2813,609.125 C2190.125,609.2031 2189.9844,609.2344 2189.5625,609.2344 L2189.3125,609.2344 L2189.3125,611.6563 L2192.9531,611.6563 L2192.9531,609.2344 L2192.7031,609.2344 C2192.25,609.2344 2192.1094,609.2031 2191.9375,609.0938 C2191.7188,608.9219 2191.5781,608.6719 2191.5781,608.3906 C2191.5781,608.1094 2191.7344,607.8125 2191.9844,607.6563 C2192.1406,607.5625 2192.2656,607.5469 2192.7031,607.5469 L2194.4219,607.5469 C2194.875,607.5469 2195.0313,607.5781 2195.2031,607.6875 C2195.4063,607.8594 2195.5313,608.125 2195.5313,608.3906 C2195.5313,608.8906 2195.2188,609.1875 2194.6563,609.2344 L2194.6563,615.75 L2194.75,615.75 C2195.2188,615.75 2195.3594,615.7813 2195.5156,615.9063 C2195.7344,616.0781 2195.875,616.3281 2195.875,616.6094 C2195.875,616.8906 2195.7188,617.1875 2195.4688,617.3281 C2195.3281,617.4219 2195.1094,617.4531 2194.75,617.4531 L2192.7031,617.4531 C2192.2969,617.4531 2192.0938,617.4063 2191.9375,617.2969 C2191.7188,617.125 2191.5781,616.8594 2191.5781,616.6094 C2191.5781,616.3125 2191.7344,616.0313 2191.9844,615.875 C2192.1406,615.7656 2192.2969,615.75 2192.7031,615.75 L2192.9531,615.75 Z "/><text fill="#000000" font-family="sans-serif" font-size="12" lengthAdjust="spacingAndGlyphs" textLength="121" x="2205" y="616.6074">L1gradientDiffAniso</text><line style="stroke: #A80036; stroke-width: 1.5;" x1="2177" x2="2328" y1="628.4531" y2="628.4531"/><line style="stroke: #A80036; stroke-width: 1.5;" x1="2177" x2="2328" y1="636.4531" y2="636.4531"/><ellipse cx="2187" cy="648.3555" fill="#84BE84" rx="3" ry="3" style="stroke: #038048; stroke-width: 1.0;"/><text fill="#000000" font-family="sans-serif" font-size="11" lengthAdjust="spacingAndGlyphs" textLength="118" x="2196" y="650.6636">L1gradientDiffAniso()</text><!--class L1gradientDiffIso--><rect fill="#FEFECE" filter="url(#fad6rd9)" height="60.8047" style="stroke: #A80036; stroke-width: 1.5;" width="137" x="1770" y="596.4531"/><ellipse cx="1785" cy="612.4531" fill="#E6FFE6" rx="11" ry="11" style="stroke: #A80036; stroke-width: 1.0;"/><path d="M1786.9531,613.3594 L1783.3125,613.3594 L1783.3125,615.75 L1783.5625,615.75 C1784.0156,615.75 1784.1875,615.7813 1784.3281,615.9063 C1784.5625,616.0781 1784.6875,616.3281 1784.6875,616.6094 C1784.6875,616.8906 1784.5313,617.1875 1784.2813,617.3281 C1784.1406,617.4219 1783.9219,617.4531 1783.5625,617.4531 L1781.5156,617.4531 C1781.1094,617.4531 1780.8906,617.4063 1780.7344,617.2969 C1780.5313,617.125 1780.3906,616.8594 1780.3906,616.6094 C1780.3906,616.3125 1780.5469,616.0313 1780.7969,615.875 C1780.9531,615.7656 1781.0938,615.75 1781.5156,615.75 L1781.6094,615.75 L1781.6094,609.2344 C1781.0469,609.1875 1780.7344,608.8906 1780.7344,608.3906 C1780.7344,608.1094 1780.8906,607.8125 1781.1406,607.6563 C1781.2969,607.5625 1781.4219,607.5469 1781.8594,607.5469 L1783.5625,607.5469 C1784.0313,607.5469 1784.1875,607.5781 1784.3281,607.6875 C1784.5625,607.8594 1784.6875,608.125 1784.6875,608.3906 C1784.6875,608.6875 1784.5313,608.9688 1784.2813,609.125 C1784.125,609.2031 1783.9844,609.2344 1783.5625,609.2344 L1783.3125,609.2344 L1783.3125,611.6563 L1786.9531,611.6563 L1786.9531,609.2344 L1786.7031,609.2344 C1786.25,609.2344 1786.1094,609.2031 1785.9375,609.0938 C1785.7188,608.9219 1785.5781,608.6719 1785.5781,608.3906 C1785.5781,608.1094 1785.7344,607.8125 1785.9844,607.6563 C1786.1406,607.5625 1786.2656,607.5469 1786.7031,607.5469 L1788.4219,607.5469 C1788.875,607.5469 1789.0313,607.5781 1789.2031,607.6875 C1789.4063,607.8594 1789.5313,608.125 1789.5313,608.3906 C1789.5313,608.8906 1789.2188,609.1875 1788.6563,609.2344 L1788.6563,615.75 L1788.75,615.75 C1789.2188,615.75 1789.3594,615.7813 1789.5156,615.9063 C1789.7344,616.0781 1789.875,616.3281 1789.875,616.6094 C1789.875,616.8906 1789.7188,617.1875 1789.4688,617.3281 C1789.3281,617.4219 1789.1094,617.4531 1788.75,617.4531 L1786.7031,617.4531 C1786.2969,617.4531 1786.0938,617.4063 1785.9375,617.2969 C1785.7188,617.125 1785.5781,616.8594 1785.5781,616.6094 C1785.5781,616.3125 1785.7344,616.0313 1785.9844,615.875 C1786.1406,615.7656 1786.2969,615.75 1786.7031,615.75 L1786.9531,615.75 Z "/><text fill="#000000" font-family="sans-serif" font-size="12" lengthAdjust="spacingAndGlyphs" textLength="105" x="1799" y="616.6074">L1gradientDiffIso</text><line style="stroke: #A80036; stroke-width: 1.5;" x1="1771" x2="1906" y1="628.4531" y2="628.4531"/><line style="stroke: #A80036; stroke-width: 1.5;" x1="1771" x2="1906" y1="636.4531" y2="636.4531"/><ellipse cx="1781" cy="648.3555" fill="#84BE84" rx="3" ry="3" style="stroke: #038048; stroke-width: 1.0;"/><text fill="#000000" font-family="sans-serif" font-size="11" lengthAdjust="spacingAndGlyphs" textLength="104" x="1790" y="650.6636">L1gradientDiffIso()</text><!--class L1gradientIso--><rect fill="#FEFECE" filter="url(#fad6rd9)" height="60.8047" style="stroke: #A80036; stroke-width: 1.5;" width="117" x="922" y="596.4531"/><ellipse cx="937" cy="612.4531" fill="#E6FFE6" rx="11" ry="11" style="stroke: #A80036; stroke-width: 1.0;"/><path d="M938.9531,613.3594 L935.3125,613.3594 L935.3125,615.75 L935.5625,615.75 C936.0156,615.75 936.1875,615.7813 936.3281,615.9063 C936.5625,616.0781 936.6875,616.3281 936.6875,616.6094 C936.6875,616.8906 936.5313,617.1875 936.2813,617.3281 C936.1406,617.4219 935.9219,617.4531 935.5625,617.4531 L933.5156,617.4531 C933.1094,617.4531 932.8906,617.4063 932.7344,617.2969 C932.5313,617.125 932.3906,616.8594 932.3906,616.6094 C932.3906,616.3125 932.5469,616.0313 932.7969,615.875 C932.9531,615.7656 933.0938,615.75 933.5156,615.75 L933.6094,615.75 L933.6094,609.2344 C933.0469,609.1875 932.7344,608.8906 932.7344,608.3906 C932.7344,608.1094 932.8906,607.8125 933.1406,607.6563 C933.2969,607.5625 933.4219,607.5469 933.8594,607.5469 L935.5625,607.5469 C936.0313,607.5469 936.1875,607.5781 936.3281,607.6875 C936.5625,607.8594 936.6875,608.125 936.6875,608.3906 C936.6875,608.6875 936.5313,608.9688 936.2813,609.125 C936.125,609.2031 935.9844,609.2344 935.5625,609.2344 L935.3125,609.2344 L935.3125,611.6563 L938.9531,611.6563 L938.9531,609.2344 L938.7031,609.2344 C938.25,609.2344 938.1094,609.2031 937.9375,609.0938 C937.7188,608.9219 937.5781,608.6719 937.5781,608.3906 C937.5781,608.1094 937.7344,607.8125 937.9844,607.6563 C938.1406,607.5625 938.2656,607.5469 938.7031,607.5469 L940.4219,607.5469 C940.875,607.5469 941.0313,607.5781 941.2031,607.6875 C941.4063,607.8594 941.5313,608.125 941.5313,608.3906 C941.5313,608.8906 941.2188,609.1875 940.6563,609.2344 L940.6563,615.75 L940.75,615.75 C941.2188,615.75 941.3594,615.7813 941.5156,615.9063 C941.7344,616.0781 941.875,616.3281 941.875,616.6094 C941.875,616.8906 941.7188,617.1875 941.4688,617.3281 C941.3281,617.4219 941.1094,617.4531 940.75,617.4531 L938.7031,617.4531 C938.2969,617.4531 938.0938,617.4063 937.9375,617.2969 C937.7188,617.125 937.5781,616.8594 937.5781,616.6094 C937.5781,616.3125 937.7344,616.0313 937.9844,615.875 C938.1406,615.7656 938.2969,615.75 938.7031,615.75 L938.9531,615.75 Z "/><text fill="#000000" font-family="sans-serif" font-size="12" lengthAdjust="spacingAndGlyphs" textLength="85" x="951" y="616.6074">L1gradientIso</text><line style="stroke: #A80036; stroke-width: 1.5;" x1="923" x2="1038" y1="628.4531" y2="628.4531"/><line style="stroke: #A80036; stroke-width: 1.5;" x1="923" x2="1038" y1="636.4531" y2="636.4531"/><ellipse cx="933" cy="648.3555" fill="#84BE84" rx="3" ry="3" style="stroke: #038048; stroke-width: 1.0;"/><text fill="#000000" font-family="sans-serif" font-size="11" lengthAdjust="spacingAndGlyphs" textLength="85" x="942" y="650.6636">L1gradientIso()</text><!--class L1plusInnerProductGradient--><rect fill="#FEFECE" filter="url(#fad6rd9)" height="86.4141" style="stroke: #A80036; stroke-width: 1.5;" width="207" x="478" y="583.9531"/><ellipse cx="493" cy="599.9531" fill="#E6FFE6" rx="11" ry="11" style="stroke: #A80036; stroke-width: 1.0;"/><path d="M494.9531,600.8594 L491.3125,600.8594 L491.3125,603.25 L491.5625,603.25 C492.0156,603.25 492.1875,603.2813 492.3281,603.4063 C492.5625,603.5781 492.6875,603.8281 492.6875,604.1094 C492.6875,604.3906 492.5313,604.6875 492.2813,604.8281 C492.1406,604.9219 491.9219,604.9531 491.5625,604.9531 L489.5156,604.9531 C489.1094,604.9531 488.8906,604.9063 488.7344,604.7969 C488.5313,604.625 488.3906,604.3594 488.3906,604.1094 C488.3906,603.8125 488.5469,603.5313 488.7969,603.375 C488.9531,603.2656 489.0938,603.25 489.5156,603.25 L489.6094,603.25 L489.6094,596.7344 C489.0469,596.6875 488.7344,596.3906 488.7344,595.8906 C488.7344,595.6094 488.8906,595.3125 489.1406,595.1563 C489.2969,595.0625 489.4219,595.0469 489.8594,595.0469 L491.5625,595.0469 C492.0313,595.0469 492.1875,595.0781 492.3281,595.1875 C492.5625,595.3594 492.6875,595.625 492.6875,595.8906 C492.6875,596.1875 492.5313,596.4688 492.2813,596.625 C492.125,596.7031 491.9844,596.7344 491.5625,596.7344 L491.3125,596.7344 L491.3125,599.1563 L494.9531,599.1563 L494.9531,596.7344 L494.7031,596.7344 C494.25,596.7344 494.1094,596.7031 493.9375,596.5938 C493.7188,596.4219 493.5781,596.1719 493.5781,595.8906 C493.5781,595.6094 493.7344,595.3125 493.9844,595.1563 C494.1406,595.0625 494.2656,595.0469 494.7031,595.0469 L496.4219,595.0469 C496.875,595.0469 497.0313,595.0781 497.2031,595.1875 C497.4063,595.3594 497.5313,595.625 497.5313,595.8906 C497.5313,596.3906 497.2188,596.6875 496.6563,596.7344 L496.6563,603.25 L496.75,603.25 C497.2188,603.25 497.3594,603.2813 497.5156,603.4063 C497.7344,603.5781 497.875,603.8281 497.875,604.1094 C497.875,604.3906 497.7188,604.6875 497.4688,604.8281 C497.3281,604.9219 497.1094,604.9531 496.75,604.9531 L494.7031,604.9531 C494.2969,604.9531 494.0938,604.9063 493.9375,604.7969 C493.7188,604.625 493.5781,604.3594 493.5781,604.1094 C493.5781,603.8125 493.7344,603.5313 493.9844,603.375 C494.1406,603.2656 494.2969,603.25 494.7031,603.25 L494.9531,603.25 Z "/><text fill="#000000" font-family="sans-serif" font-size="12" lengthAdjust="spacingAndGlyphs" textLength="175" x="507" y="604.1074">L1plusInnerProductGradient</text><line style="stroke: #A80036; stroke-width: 1.5;" x1="479" x2="684" y1="615.9531" y2="615.9531"/><text fill="#000000" font-family="sans-serif" font-size="11" lengthAdjust="spacingAndGlyphs" textLength="16" x="484" y="630.1636">+b</text><text fill="#000000" font-family="sans-serif" font-size="11" lengthAdjust="spacingAndGlyphs" textLength="14" x="484" y="642.9683">+r</text><line style="stroke: #A80036; stroke-width: 1.5;" x1="479" x2="684" y1="649.5625" y2="649.5625"/><ellipse cx="489" cy="661.4648" fill="#84BE84" rx="3" ry="3" style="stroke: #038048; stroke-width: 1.0;"/><text fill="#000000" font-family="sans-serif" font-size="11" lengthAdjust="spacingAndGlyphs" textLength="166" x="498" y="663.7729">L1plusInnerProductGradient()</text><!--class L1plusInnerProductGradientDifference--><rect fill="#FEFECE" filter="url(#fad6rd9)" height="86.4141" style="stroke: #A80036; stroke-width: 1.5;" width="271" x="1242" y="583.9531"/><ellipse cx="1257" cy="599.9531" fill="#E6FFE6" rx="11" ry="11" style="stroke: #A80036; stroke-width: 1.0;"/><path d="M1258.9531,600.8594 L1255.3125,600.8594 L1255.3125,603.25 L1255.5625,603.25 C1256.0156,603.25 1256.1875,603.2813 1256.3281,603.4063 C1256.5625,603.5781 1256.6875,603.8281 1256.6875,604.1094 C1256.6875,604.3906 1256.5313,604.6875 1256.2813,604.8281 C1256.1406,604.9219 1255.9219,604.9531 1255.5625,604.9531 L1253.5156,604.9531 C1253.1094,604.9531 1252.8906,604.9063 1252.7344,604.7969 C1252.5313,604.625 1252.3906,604.3594 1252.3906,604.1094 C1252.3906,603.8125 1252.5469,603.5313 1252.7969,603.375 C1252.9531,603.2656 1253.0938,603.25 1253.5156,603.25 L1253.6094,603.25 L1253.6094,596.7344 C1253.0469,596.6875 1252.7344,596.3906 1252.7344,595.8906 C1252.7344,595.6094 1252.8906,595.3125 1253.1406,595.1563 C1253.2969,595.0625 1253.4219,595.0469 1253.8594,595.0469 L1255.5625,595.0469 C1256.0313,595.0469 1256.1875,595.0781 1256.3281,595.1875 C1256.5625,595.3594 1256.6875,595.625 1256.6875,595.8906 C1256.6875,596.1875 1256.5313,596.4688 1256.2813,596.625 C1256.125,596.7031 1255.9844,596.7344 1255.5625,596.7344 L1255.3125,596.7344 L1255.3125,599.1563 L1258.9531,599.1563 L1258.9531,596.7344 L1258.7031,596.7344 C1258.25,596.7344 1258.1094,596.7031 1257.9375,596.5938 C1257.7188,596.4219 1257.5781,596.1719 1257.5781,595.8906 C1257.5781,595.6094 1257.7344,595.3125 1257.9844,595.1563 C1258.1406,595.0625 1258.2656,595.0469 1258.7031,595.0469 L1260.4219,595.0469 C1260.875,595.0469 1261.0313,595.0781 1261.2031,595.1875 C1261.4063,595.3594 1261.5313,595.625 1261.5313,595.8906 C1261.5313,596.3906 1261.2188,596.6875 1260.6563,596.7344 L1260.6563,603.25 L1260.75,603.25 C1261.2188,603.25 1261.3594,603.2813 1261.5156,603.4063 C1261.7344,603.5781 1261.875,603.8281 1261.875,604.1094 C1261.875,604.3906 1261.7188,604.6875 1261.4688,604.8281 C1261.3281,604.9219 1261.1094,604.9531 1260.75,604.9531 L1258.7031,604.9531 C1258.2969,604.9531 1258.0938,604.9063 1257.9375,604.7969 C1257.7188,604.625 1257.5781,604.3594 1257.5781,604.1094 C1257.5781,603.8125 1257.7344,603.5313 1257.9844,603.375 C1258.1406,603.2656 1258.2969,603.25 1258.7031,603.25 L1258.9531,603.25 Z "/><text fill="#000000" font-family="sans-serif" font-size="12" lengthAdjust="spacingAndGlyphs" textLength="239" x="1271" y="604.1074">L1plusInnerProductGradientDifference</text><line style="stroke: #A80036; stroke-width: 1.5;" x1="1243" x2="1512" y1="615.9531" y2="615.9531"/><text fill="#000000" font-family="sans-serif" font-size="11" lengthAdjust="spacingAndGlyphs" textLength="16" x="1248" y="630.1636">+b</text><text fill="#000000" font-family="sans-serif" font-size="11" lengthAdjust="spacingAndGlyphs" textLength="14" x="1248" y="642.9683">+r</text><line style="stroke: #A80036; stroke-width: 1.5;" x1="1243" x2="1512" y1="649.5625" y2="649.5625"/><ellipse cx="1253" cy="661.4648" fill="#84BE84" rx="3" ry="3" style="stroke: #038048; stroke-width: 1.0;"/><text fill="#000000" font-family="sans-serif" font-size="11" lengthAdjust="spacingAndGlyphs" textLength="224" x="1262" y="663.7729">L1plusInnerProductGradientDifference()</text><!--class L1secondOrderGradientAniso--><rect fill="#FEFECE" filter="url(#fad6rd9)" height="60.8047" style="stroke: #A80036; stroke-width: 1.5;" width="215" x="2364" y="596.4531"/><ellipse cx="2379" cy="612.4531" fill="#E6FFE6" rx="11" ry="11" style="stroke: #A80036; stroke-width: 1.0;"/><path d="M2380.9531,613.3594 L2377.3125,613.3594 L2377.3125,615.75 L2377.5625,615.75 C2378.0156,615.75 2378.1875,615.7813 2378.3281,615.9063 C2378.5625,616.0781 2378.6875,616.3281 2378.6875,616.6094 C2378.6875,616.8906 2378.5313,617.1875 2378.2813,617.3281 C2378.1406,617.4219 2377.9219,617.4531 2377.5625,617.4531 L2375.5156,617.4531 C2375.1094,617.4531 2374.8906,617.4063 2374.7344,617.2969 C2374.5313,617.125 2374.3906,616.8594 2374.3906,616.6094 C2374.3906,616.3125 2374.5469,616.0313 2374.7969,615.875 C2374.9531,615.7656 2375.0938,615.75 2375.5156,615.75 L2375.6094,615.75 L2375.6094,609.2344 C2375.0469,609.1875 2374.7344,608.8906 2374.7344,608.3906 C2374.7344,608.1094 2374.8906,607.8125 2375.1406,607.6563 C2375.2969,607.5625 2375.4219,607.5469 2375.8594,607.5469 L2377.5625,607.5469 C2378.0313,607.5469 2378.1875,607.5781 2378.3281,607.6875 C2378.5625,607.8594 2378.6875,608.125 2378.6875,608.3906 C2378.6875,608.6875 2378.5313,608.9688 2378.2813,609.125 C2378.125,609.2031 2377.9844,609.2344 2377.5625,609.2344 L2377.3125,609.2344 L2377.3125,611.6563 L2380.9531,611.6563 L2380.9531,609.2344 L2380.7031,609.2344 C2380.25,609.2344 2380.1094,609.2031 2379.9375,609.0938 C2379.7188,608.9219 2379.5781,608.6719 2379.5781,608.3906 C2379.5781,608.1094 2379.7344,607.8125 2379.9844,607.6563 C2380.1406,607.5625 2380.2656,607.5469 2380.7031,607.5469 L2382.4219,607.5469 C2382.875,607.5469 2383.0313,607.5781 2383.2031,607.6875 C2383.4063,607.8594 2383.5313,608.125 2383.5313,608.3906 C2383.5313,608.8906 2383.2188,609.1875 2382.6563,609.2344 L2382.6563,615.75 L2382.75,615.75 C2383.2188,615.75 2383.3594,615.7813 2383.5156,615.9063 C2383.7344,616.0781 2383.875,616.3281 2383.875,616.6094 C2383.875,616.8906 2383.7188,617.1875 2383.4688,617.3281 C2383.3281,617.4219 2383.1094,617.4531 2382.75,617.4531 L2380.7031,617.4531 C2380.2969,617.4531 2380.0938,617.4063 2379.9375,617.2969 C2379.7188,617.125 2379.5781,616.8594 2379.5781,616.6094 C2379.5781,616.3125 2379.7344,616.0313 2379.9844,615.875 C2380.1406,615.7656 2380.2969,615.75 2380.7031,615.75 L2380.9531,615.75 Z "/><text fill="#000000" font-family="sans-serif" font-size="12" lengthAdjust="spacingAndGlyphs" textLength="183" x="2393" y="616.6074">L1secondOrderGradientAniso</text><line style="stroke: #A80036; stroke-width: 1.5;" x1="2365" x2="2578" y1="628.4531" y2="628.4531"/><line style="stroke: #A80036; stroke-width: 1.5;" x1="2365" x2="2578" y1="636.4531" y2="636.4531"/><ellipse cx="2375" cy="648.3555" fill="#84BE84" rx="3" ry="3" style="stroke: #038048; stroke-width: 1.0;"/><text fill="#000000" font-family="sans-serif" font-size="11" lengthAdjust="spacingAndGlyphs" textLength="175" x="2384" y="650.6636">L1secondOrderGradientAniso()</text><!--class L1secondOrderGradientIso--><rect fill="#FEFECE" filter="url(#fad6rd9)" height="60.8047" style="stroke: #A80036; stroke-width: 1.5;" width="199" x="1942" y="596.4531"/><ellipse cx="1957" cy="612.4531" fill="#E6FFE6" rx="11" ry="11" style="stroke: #A80036; stroke-width: 1.0;"/><path d="M1958.9531,613.3594 L1955.3125,613.3594 L1955.3125,615.75 L1955.5625,615.75 C1956.0156,615.75 1956.1875,615.7813 1956.3281,615.9063 C1956.5625,616.0781 1956.6875,616.3281 1956.6875,616.6094 C1956.6875,616.8906 1956.5313,617.1875 1956.2813,617.3281 C1956.1406,617.4219 1955.9219,617.4531 1955.5625,617.4531 L1953.5156,617.4531 C1953.1094,617.4531 1952.8906,617.4063 1952.7344,617.2969 C1952.5313,617.125 1952.3906,616.8594 1952.3906,616.6094 C1952.3906,616.3125 1952.5469,616.0313 1952.7969,615.875 C1952.9531,615.7656 1953.0938,615.75 1953.5156,615.75 L1953.6094,615.75 L1953.6094,609.2344 C1953.0469,609.1875 1952.7344,608.8906 1952.7344,608.3906 C1952.7344,608.1094 1952.8906,607.8125 1953.1406,607.6563 C1953.2969,607.5625 1953.4219,607.5469 1953.8594,607.5469 L1955.5625,607.5469 C1956.0313,607.5469 1956.1875,607.5781 1956.3281,607.6875 C1956.5625,607.8594 1956.6875,608.125 1956.6875,608.3906 C1956.6875,608.6875 1956.5313,608.9688 1956.2813,609.125 C1956.125,609.2031 1955.9844,609.2344 1955.5625,609.2344 L1955.3125,609.2344 L1955.3125,611.6563 L1958.9531,611.6563 L1958.9531,609.2344 L1958.7031,609.2344 C1958.25,609.2344 1958.1094,609.2031 1957.9375,609.0938 C1957.7188,608.9219 1957.5781,608.6719 1957.5781,608.3906 C1957.5781,608.1094 1957.7344,607.8125 1957.9844,607.6563 C1958.1406,607.5625 1958.2656,607.5469 1958.7031,607.5469 L1960.4219,607.5469 C1960.875,607.5469 1961.0313,607.5781 1961.2031,607.6875 C1961.4063,607.8594 1961.5313,608.125 1961.5313,608.3906 C1961.5313,608.8906 1961.2188,609.1875 1960.6563,609.2344 L1960.6563,615.75 L1960.75,615.75 C1961.2188,615.75 1961.3594,615.7813 1961.5156,615.9063 C1961.7344,616.0781 1961.875,616.3281 1961.875,616.6094 C1961.875,616.8906 1961.7188,617.1875 1961.4688,617.3281 C1961.3281,617.4219 1961.1094,617.4531 1960.75,617.4531 L1958.7031,617.4531 C1958.2969,617.4531 1958.0938,617.4063 1957.9375,617.2969 C1957.7188,617.125 1957.5781,616.8594 1957.5781,616.6094 C1957.5781,616.3125 1957.7344,616.0313 1957.9844,615.875 C1958.1406,615.7656 1958.2969,615.75 1958.7031,615.75 L1958.9531,615.75 Z "/><text fill="#000000" font-family="sans-serif" font-size="12" lengthAdjust="spacingAndGlyphs" textLength="167" x="1971" y="616.6074">L1secondOrderGradientIso</text><line style="stroke: #A80036; stroke-width: 1.5;" x1="1943" x2="2140" y1="628.4531" y2="628.4531"/><line style="stroke: #A80036; stroke-width: 1.5;" x1="1943" x2="2140" y1="636.4531" y2="636.4531"/><ellipse cx="1953" cy="648.3555" fill="#84BE84" rx="3" ry="3" style="stroke: #038048; stroke-width: 1.0;"/><text fill="#000000" font-family="sans-serif" font-size="11" lengthAdjust="spacingAndGlyphs" textLength="161" x="1962" y="650.6636">L1secondOrderGradientIso()</text><!--class L2gradient--><rect fill="#FEFECE" filter="url(#fad6rd9)" height="60.8047" style="stroke: #A80036; stroke-width: 1.5;" width="99" x="344" y="596.4531"/><ellipse cx="359" cy="612.4531" fill="#E6FFE6" rx="11" ry="11" style="stroke: #A80036; stroke-width: 1.0;"/><path d="M360.9531,613.3594 L357.3125,613.3594 L357.3125,615.75 L357.5625,615.75 C358.0156,615.75 358.1875,615.7813 358.3281,615.9063 C358.5625,616.0781 358.6875,616.3281 358.6875,616.6094 C358.6875,616.8906 358.5313,617.1875 358.2813,617.3281 C358.1406,617.4219 357.9219,617.4531 357.5625,617.4531 L355.5156,617.4531 C355.1094,617.4531 354.8906,617.4063 354.7344,617.2969 C354.5313,617.125 354.3906,616.8594 354.3906,616.6094 C354.3906,616.3125 354.5469,616.0313 354.7969,615.875 C354.9531,615.7656 355.0938,615.75 355.5156,615.75 L355.6094,615.75 L355.6094,609.2344 C355.0469,609.1875 354.7344,608.8906 354.7344,608.3906 C354.7344,608.1094 354.8906,607.8125 355.1406,607.6563 C355.2969,607.5625 355.4219,607.5469 355.8594,607.5469 L357.5625,607.5469 C358.0313,607.5469 358.1875,607.5781 358.3281,607.6875 C358.5625,607.8594 358.6875,608.125 358.6875,608.3906 C358.6875,608.6875 358.5313,608.9688 358.2813,609.125 C358.125,609.2031 357.9844,609.2344 357.5625,609.2344 L357.3125,609.2344 L357.3125,611.6563 L360.9531,611.6563 L360.9531,609.2344 L360.7031,609.2344 C360.25,609.2344 360.1094,609.2031 359.9375,609.0938 C359.7188,608.9219 359.5781,608.6719 359.5781,608.3906 C359.5781,608.1094 359.7344,607.8125 359.9844,607.6563 C360.1406,607.5625 360.2656,607.5469 360.7031,607.5469 L362.4219,607.5469 C362.875,607.5469 363.0313,607.5781 363.2031,607.6875 C363.4063,607.8594 363.5313,608.125 363.5313,608.3906 C363.5313,608.8906 363.2188,609.1875 362.6563,609.2344 L362.6563,615.75 L362.75,615.75 C363.2188,615.75 363.3594,615.7813 363.5156,615.9063 C363.7344,616.0781 363.875,616.3281 363.875,616.6094 C363.875,616.8906 363.7188,617.1875 363.4688,617.3281 C363.3281,617.4219 363.1094,617.4531 362.75,617.4531 L360.7031,617.4531 C360.2969,617.4531 360.0938,617.4063 359.9375,617.2969 C359.7188,617.125 359.5781,616.8594 359.5781,616.6094 C359.5781,616.3125 359.7344,616.0313 359.9844,615.875 C360.1406,615.7656 360.2969,615.75 360.7031,615.75 L360.9531,615.75 Z "/><text fill="#000000" font-family="sans-serif" font-size="12" lengthAdjust="spacingAndGlyphs" textLength="67" x="373" y="616.6074">L2gradient</text><line style="stroke: #A80036; stroke-width: 1.5;" x1="345" x2="442" y1="628.4531" y2="628.4531"/><line style="stroke: #A80036; stroke-width: 1.5;" x1="345" x2="442" y1="636.4531" y2="636.4531"/><ellipse cx="355" cy="648.3555" fill="#84BE84" rx="3" ry="3" style="stroke: #038048; stroke-width: 1.0;"/><text fill="#000000" font-family="sans-serif" font-size="11" lengthAdjust="spacingAndGlyphs" textLength="68" x="364" y="650.6636">L2gradient()</text><!--class basicProx--><rect fill="#FEFECE" filter="url(#fad6rd9)" height="60.8047" style="stroke: #A80036; stroke-width: 1.5;" width="92" x="703.5" y="328.9531"/><ellipse cx="718.5" cy="344.9531" fill="#E6FFE6" rx="11" ry="11" style="stroke: #A80036; stroke-width: 1.0;"/><path d="M720.0781,346.7656 L716.0313,346.7656 L715.6406,347.75 L716.0313,347.75 C716.4844,347.75 716.625,347.7813 716.7969,347.9063 C717.0156,348.0781 717.1406,348.3281 717.1406,348.6094 C717.1406,348.8906 717,349.1875 716.7344,349.3281 C716.6094,349.4219 716.3906,349.4531 716.0313,349.4531 L713.7656,349.4531 C713.0156,349.4531 712.6406,349.1719 712.6406,348.6094 C712.6406,348.3125 712.7969,348.0313 713.0469,347.875 C713.2031,347.7656 713.3594,347.75 713.7813,347.75 L716.4219,341.2344 L715.3438,341.2344 C714.9063,341.2344 714.7344,341.2031 714.5625,341.0938 C714.3438,340.9219 714.2031,340.6719 714.2031,340.3906 C714.2031,340.1094 714.3594,339.8281 714.6094,339.6563 C714.7656,339.5625 714.8906,339.5469 715.3438,339.5469 L719.0156,339.5469 L722.4063,347.75 C722.875,347.75 723.0313,347.7813 723.2031,347.9219 C723.4219,348.0781 723.5625,348.3281 723.5625,348.6094 C723.5625,348.8906 723.4063,349.1875 723.1563,349.3281 C723.0156,349.4219 722.7969,349.4531 722.4375,349.4531 L720.0781,349.4531 C719.6563,349.4531 719.4531,349.4063 719.3125,349.2813 C719.0938,349.125 718.9531,348.875 718.9531,348.6094 C718.9531,348.3125 719.1094,348.0313 719.3594,347.875 C719.5156,347.7656 719.625,347.75 720.0781,347.75 L720.4688,347.75 Z M719.375,345.0625 L718.0469,341.7969 L716.7031,345.0625 Z "/><text fill="#000000" font-family="sans-serif" font-size="12" lengthAdjust="spacingAndGlyphs" textLength="60" x="732.5" y="349.1074">basicProx</text><line style="stroke: #A80036; stroke-width: 1.5;" x1="704.5" x2="794.5" y1="360.9531" y2="360.9531"/><line style="stroke: #A80036; stroke-width: 1.5;" x1="704.5" x2="794.5" y1="368.9531" y2="368.9531"/><ellipse cx="714.5" cy="380.8555" fill="#84BE84" rx="3" ry="3" style="stroke: #038048; stroke-width: 1.0;"/><text fill="#000000" font-family="sans-serif" font-size="11" lengthAdjust="spacingAndGlyphs" textLength="63" x="723.5" y="383.1636">applyProx()</text><!--class FrobeniusProxDual--><rect fill="#FEFECE" filter="url(#fad6rd9)" height="73.6094" style="stroke: #A80036; stroke-width: 1.5;" width="149" x="175" y="449.9531"/><ellipse cx="190" cy="465.9531" fill="#E6FFE6" rx="11" ry="11" style="stroke: #A80036; stroke-width: 1.0;"/><path d="M191.9531,466.8594 L188.3125,466.8594 L188.3125,469.25 L188.5625,469.25 C189.0156,469.25 189.1875,469.2813 189.3281,469.4063 C189.5625,469.5781 189.6875,469.8281 189.6875,470.1094 C189.6875,470.3906 189.5313,470.6875 189.2813,470.8281 C189.1406,470.9219 188.9219,470.9531 188.5625,470.9531 L186.5156,470.9531 C186.1094,470.9531 185.8906,470.9063 185.7344,470.7969 C185.5313,470.625 185.3906,470.3594 185.3906,470.1094 C185.3906,469.8125 185.5469,469.5313 185.7969,469.375 C185.9531,469.2656 186.0938,469.25 186.5156,469.25 L186.6094,469.25 L186.6094,462.7344 C186.0469,462.6875 185.7344,462.3906 185.7344,461.8906 C185.7344,461.6094 185.8906,461.3125 186.1406,461.1563 C186.2969,461.0625 186.4219,461.0469 186.8594,461.0469 L188.5625,461.0469 C189.0313,461.0469 189.1875,461.0781 189.3281,461.1875 C189.5625,461.3594 189.6875,461.625 189.6875,461.8906 C189.6875,462.1875 189.5313,462.4688 189.2813,462.625 C189.125,462.7031 188.9844,462.7344 188.5625,462.7344 L188.3125,462.7344 L188.3125,465.1563 L191.9531,465.1563 L191.9531,462.7344 L191.7031,462.7344 C191.25,462.7344 191.1094,462.7031 190.9375,462.5938 C190.7188,462.4219 190.5781,462.1719 190.5781,461.8906 C190.5781,461.6094 190.7344,461.3125 190.9844,461.1563 C191.1406,461.0625 191.2656,461.0469 191.7031,461.0469 L193.4219,461.0469 C193.875,461.0469 194.0313,461.0781 194.2031,461.1875 C194.4063,461.3594 194.5313,461.625 194.5313,461.8906 C194.5313,462.3906 194.2188,462.6875 193.6563,462.7344 L193.6563,469.25 L193.75,469.25 C194.2188,469.25 194.3594,469.2813 194.5156,469.4063 C194.7344,469.5781 194.875,469.8281 194.875,470.1094 C194.875,470.3906 194.7188,470.6875 194.4688,470.8281 C194.3281,470.9219 194.1094,470.9531 193.75,470.9531 L191.7031,470.9531 C191.2969,470.9531 191.0938,470.9063 190.9375,470.7969 C190.7188,470.625 190.5781,470.3594 190.5781,470.1094 C190.5781,469.8125 190.7344,469.5313 190.9844,469.375 C191.1406,469.2656 191.2969,469.25 191.7031,469.25 L191.9531,469.25 Z "/><text fill="#000000" font-family="sans-serif" font-size="12" lengthAdjust="spacingAndGlyphs" textLength="117" x="204" y="470.1074">FrobeniusProxDual</text><line style="stroke: #A80036; stroke-width: 1.5;" x1="176" x2="323" y1="481.9531" y2="481.9531"/><line style="stroke: #A80036; stroke-width: 1.5;" x1="176" x2="323" y1="489.9531" y2="489.9531"/><ellipse cx="186" cy="501.8555" fill="#84BE84" rx="3" ry="3" style="stroke: #038048; stroke-width: 1.0;"/><text fill="#000000" font-family="sans-serif" font-size="11" lengthAdjust="spacingAndGlyphs" textLength="114" x="195" y="504.1636">FrobeniusProxDual()</text><ellipse cx="186" cy="514.6602" fill="#84BE84" rx="3" ry="3" style="stroke: #038048; stroke-width: 1.0;"/><text fill="#000000" font-family="sans-serif" font-size="11" lengthAdjust="spacingAndGlyphs" textLength="63" x="195" y="516.9683">applyProx()</text><!--class HuberProxDual--><rect fill="#FEFECE" filter="url(#fad6rd9)" height="73.6094" style="stroke: #A80036; stroke-width: 1.5;" width="125" x="10" y="449.9531"/><ellipse cx="25" cy="465.9531" fill="#E6FFE6" rx="11" ry="11" style="stroke: #A80036; stroke-width: 1.0;"/><path d="M26.9531,466.8594 L23.3125,466.8594 L23.3125,469.25 L23.5625,469.25 C24.0156,469.25 24.1875,469.2813 24.3281,469.4063 C24.5625,469.5781 24.6875,469.8281 24.6875,470.1094 C24.6875,470.3906 24.5313,470.6875 24.2813,470.8281 C24.1406,470.9219 23.9219,470.9531 23.5625,470.9531 L21.5156,470.9531 C21.1094,470.9531 20.8906,470.9063 20.7344,470.7969 C20.5313,470.625 20.3906,470.3594 20.3906,470.1094 C20.3906,469.8125 20.5469,469.5313 20.7969,469.375 C20.9531,469.2656 21.0938,469.25 21.5156,469.25 L21.6094,469.25 L21.6094,462.7344 C21.0469,462.6875 20.7344,462.3906 20.7344,461.8906 C20.7344,461.6094 20.8906,461.3125 21.1406,461.1563 C21.2969,461.0625 21.4219,461.0469 21.8594,461.0469 L23.5625,461.0469 C24.0313,461.0469 24.1875,461.0781 24.3281,461.1875 C24.5625,461.3594 24.6875,461.625 24.6875,461.8906 C24.6875,462.1875 24.5313,462.4688 24.2813,462.625 C24.125,462.7031 23.9844,462.7344 23.5625,462.7344 L23.3125,462.7344 L23.3125,465.1563 L26.9531,465.1563 L26.9531,462.7344 L26.7031,462.7344 C26.25,462.7344 26.1094,462.7031 25.9375,462.5938 C25.7188,462.4219 25.5781,462.1719 25.5781,461.8906 C25.5781,461.6094 25.7344,461.3125 25.9844,461.1563 C26.1406,461.0625 26.2656,461.0469 26.7031,461.0469 L28.4219,461.0469 C28.875,461.0469 29.0313,461.0781 29.2031,461.1875 C29.4063,461.3594 29.5313,461.625 29.5313,461.8906 C29.5313,462.3906 29.2188,462.6875 28.6563,462.7344 L28.6563,469.25 L28.75,469.25 C29.2188,469.25 29.3594,469.2813 29.5156,469.4063 C29.7344,469.5781 29.875,469.8281 29.875,470.1094 C29.875,470.3906 29.7188,470.6875 29.4688,470.8281 C29.3281,470.9219 29.1094,470.9531 28.75,470.9531 L26.7031,470.9531 C26.2969,470.9531 26.0938,470.9063 25.9375,470.7969 C25.7188,470.625 25.5781,470.3594 25.5781,470.1094 C25.5781,469.8125 25.7344,469.5313 25.9844,469.375 C26.1406,469.2656 26.2969,469.25 26.7031,469.25 L26.9531,469.25 Z "/><text fill="#000000" font-family="sans-serif" font-size="12" lengthAdjust="spacingAndGlyphs" textLength="93" x="39" y="470.1074">HuberProxDual</text><line style="stroke: #A80036; stroke-width: 1.5;" x1="11" x2="134" y1="481.9531" y2="481.9531"/><line style="stroke: #A80036; stroke-width: 1.5;" x1="11" x2="134" y1="489.9531" y2="489.9531"/><ellipse cx="21" cy="501.8555" fill="#84BE84" rx="3" ry="3" style="stroke: #038048; stroke-width: 1.0;"/><text fill="#000000" font-family="sans-serif" font-size="11" lengthAdjust="spacingAndGlyphs" textLength="92" x="30" y="504.1636">HuberProxDual()</text><ellipse cx="21" cy="514.6602" fill="#84BE84" rx="3" ry="3" style="stroke: #038048; stroke-width: 1.0;"/><text fill="#000000" font-family="sans-serif" font-size="11" lengthAdjust="spacingAndGlyphs" textLength="63" x="30" y="516.9683">applyProx()</text><!--class innerProductProxDual--><rect fill="#FEFECE" filter="url(#fad6rd9)" height="73.6094" style="stroke: #A80036; stroke-width: 1.5;" width="168" x="858.5" y="449.9531"/><ellipse cx="873.5" cy="465.9531" fill="#E6FFE6" rx="11" ry="11" style="stroke: #A80036; stroke-width: 1.0;"/><path d="M875.4531,466.8594 L871.8125,466.8594 L871.8125,469.25 L872.0625,469.25 C872.5156,469.25 872.6875,469.2813 872.8281,469.4063 C873.0625,469.5781 873.1875,469.8281 873.1875,470.1094 C873.1875,470.3906 873.0313,470.6875 872.7813,470.8281 C872.6406,470.9219 872.4219,470.9531 872.0625,470.9531 L870.0156,470.9531 C869.6094,470.9531 869.3906,470.9063 869.2344,470.7969 C869.0313,470.625 868.8906,470.3594 868.8906,470.1094 C868.8906,469.8125 869.0469,469.5313 869.2969,469.375 C869.4531,469.2656 869.5938,469.25 870.0156,469.25 L870.1094,469.25 L870.1094,462.7344 C869.5469,462.6875 869.2344,462.3906 869.2344,461.8906 C869.2344,461.6094 869.3906,461.3125 869.6406,461.1563 C869.7969,461.0625 869.9219,461.0469 870.3594,461.0469 L872.0625,461.0469 C872.5313,461.0469 872.6875,461.0781 872.8281,461.1875 C873.0625,461.3594 873.1875,461.625 873.1875,461.8906 C873.1875,462.1875 873.0313,462.4688 872.7813,462.625 C872.625,462.7031 872.4844,462.7344 872.0625,462.7344 L871.8125,462.7344 L871.8125,465.1563 L875.4531,465.1563 L875.4531,462.7344 L875.2031,462.7344 C874.75,462.7344 874.6094,462.7031 874.4375,462.5938 C874.2188,462.4219 874.0781,462.1719 874.0781,461.8906 C874.0781,461.6094 874.2344,461.3125 874.4844,461.1563 C874.6406,461.0625 874.7656,461.0469 875.2031,461.0469 L876.9219,461.0469 C877.375,461.0469 877.5313,461.0781 877.7031,461.1875 C877.9063,461.3594 878.0313,461.625 878.0313,461.8906 C878.0313,462.3906 877.7188,462.6875 877.1563,462.7344 L877.1563,469.25 L877.25,469.25 C877.7188,469.25 877.8594,469.2813 878.0156,469.4063 C878.2344,469.5781 878.375,469.8281 878.375,470.1094 C878.375,470.3906 878.2188,470.6875 877.9688,470.8281 C877.8281,470.9219 877.6094,470.9531 877.25,470.9531 L875.2031,470.9531 C874.7969,470.9531 874.5938,470.9063 874.4375,470.7969 C874.2188,470.625 874.0781,470.3594 874.0781,470.1094 C874.0781,469.8125 874.2344,469.5313 874.4844,469.375 C874.6406,469.2656 874.7969,469.25 875.2031,469.25 L875.4531,469.25 Z "/><text fill="#000000" font-family="sans-serif" font-size="12" lengthAdjust="spacingAndGlyphs" textLength="136" x="887.5" y="470.1074">innerProductProxDual</text><line style="stroke: #A80036; stroke-width: 1.5;" x1="859.5" x2="1025.5" y1="481.9531" y2="481.9531"/><line style="stroke: #A80036; stroke-width: 1.5;" x1="859.5" x2="1025.5" y1="489.9531" y2="489.9531"/><ellipse cx="869.5" cy="501.8555" fill="#84BE84" rx="3" ry="3" style="stroke: #038048; stroke-width: 1.0;"/><text fill="#000000" font-family="sans-serif" font-size="11" lengthAdjust="spacingAndGlyphs" textLength="130" x="878.5" y="504.1636">innerProductProxDual()</text><ellipse cx="869.5" cy="514.6602" fill="#84BE84" rx="3" ry="3" style="stroke: #038048; stroke-width: 1.0;"/><text fill="#000000" font-family="sans-serif" font-size="11" lengthAdjust="spacingAndGlyphs" textLength="63" x="878.5" y="516.9683">applyProx()</text><!--class L1AnisoProxDual--><rect fill="#FEFECE" filter="url(#fad6rd9)" height="73.6094" style="stroke: #A80036; stroke-width: 1.5;" width="135" x="1770" y="449.9531"/><ellipse cx="1785" cy="465.9531" fill="#E6FFE6" rx="11" ry="11" style="stroke: #A80036; stroke-width: 1.0;"/><path d="M1786.9531,466.8594 L1783.3125,466.8594 L1783.3125,469.25 L1783.5625,469.25 C1784.0156,469.25 1784.1875,469.2813 1784.3281,469.4063 C1784.5625,469.5781 1784.6875,469.8281 1784.6875,470.1094 C1784.6875,470.3906 1784.5313,470.6875 1784.2813,470.8281 C1784.1406,470.9219 1783.9219,470.9531 1783.5625,470.9531 L1781.5156,470.9531 C1781.1094,470.9531 1780.8906,470.9063 1780.7344,470.7969 C1780.5313,470.625 1780.3906,470.3594 1780.3906,470.1094 C1780.3906,469.8125 1780.5469,469.5313 1780.7969,469.375 C1780.9531,469.2656 1781.0938,469.25 1781.5156,469.25 L1781.6094,469.25 L1781.6094,462.7344 C1781.0469,462.6875 1780.7344,462.3906 1780.7344,461.8906 C1780.7344,461.6094 1780.8906,461.3125 1781.1406,461.1563 C1781.2969,461.0625 1781.4219,461.0469 1781.8594,461.0469 L1783.5625,461.0469 C1784.0313,461.0469 1784.1875,461.0781 1784.3281,461.1875 C1784.5625,461.3594 1784.6875,461.625 1784.6875,461.8906 C1784.6875,462.1875 1784.5313,462.4688 1784.2813,462.625 C1784.125,462.7031 1783.9844,462.7344 1783.5625,462.7344 L1783.3125,462.7344 L1783.3125,465.1563 L1786.9531,465.1563 L1786.9531,462.7344 L1786.7031,462.7344 C1786.25,462.7344 1786.1094,462.7031 1785.9375,462.5938 C1785.7188,462.4219 1785.5781,462.1719 1785.5781,461.8906 C1785.5781,461.6094 1785.7344,461.3125 1785.9844,461.1563 C1786.1406,461.0625 1786.2656,461.0469 1786.7031,461.0469 L1788.4219,461.0469 C1788.875,461.0469 1789.0313,461.0781 1789.2031,461.1875 C1789.4063,461.3594 1789.5313,461.625 1789.5313,461.8906 C1789.5313,462.3906 1789.2188,462.6875 1788.6563,462.7344 L1788.6563,469.25 L1788.75,469.25 C1789.2188,469.25 1789.3594,469.2813 1789.5156,469.4063 C1789.7344,469.5781 1789.875,469.8281 1789.875,470.1094 C1789.875,470.3906 1789.7188,470.6875 1789.4688,470.8281 C1789.3281,470.9219 1789.1094,470.9531 1788.75,470.9531 L1786.7031,470.9531 C1786.2969,470.9531 1786.0938,470.9063 1785.9375,470.7969 C1785.7188,470.625 1785.5781,470.3594 1785.5781,470.1094 C1785.5781,469.8125 1785.7344,469.5313 1785.9844,469.375 C1786.1406,469.2656 1786.2969,469.25 1786.7031,469.25 L1786.9531,469.25 Z "/><text fill="#000000" font-family="sans-serif" font-size="12" lengthAdjust="spacingAndGlyphs" textLength="103" x="1799" y="470.1074">L1AnisoProxDual</text><line style="stroke: #A80036; stroke-width: 1.5;" x1="1771" x2="1904" y1="481.9531" y2="481.9531"/><line style="stroke: #A80036; stroke-width: 1.5;" x1="1771" x2="1904" y1="489.9531" y2="489.9531"/><ellipse cx="1781" cy="501.8555" fill="#84BE84" rx="3" ry="3" style="stroke: #038048; stroke-width: 1.0;"/><text fill="#000000" font-family="sans-serif" font-size="11" lengthAdjust="spacingAndGlyphs" textLength="102" x="1790" y="504.1636">L1AnisoProxDual()</text><ellipse cx="1781" cy="514.6602" fill="#84BE84" rx="3" ry="3" style="stroke: #038048; stroke-width: 1.0;"/><text fill="#000000" font-family="sans-serif" font-size="11" lengthAdjust="spacingAndGlyphs" textLength="63" x="1790" y="516.9683">applyProx()</text><!--class L1IsoProxDual--><rect fill="#FEFECE" filter="url(#fad6rd9)" height="73.6094" style="stroke: #A80036; stroke-width: 1.5;" width="119" x="1230" y="449.9531"/><ellipse cx="1245" cy="465.9531" fill="#E6FFE6" rx="11" ry="11" style="stroke: #A80036; stroke-width: 1.0;"/><path d="M1246.9531,466.8594 L1243.3125,466.8594 L1243.3125,469.25 L1243.5625,469.25 C1244.0156,469.25 1244.1875,469.2813 1244.3281,469.4063 C1244.5625,469.5781 1244.6875,469.8281 1244.6875,470.1094 C1244.6875,470.3906 1244.5313,470.6875 1244.2813,470.8281 C1244.1406,470.9219 1243.9219,470.9531 1243.5625,470.9531 L1241.5156,470.9531 C1241.1094,470.9531 1240.8906,470.9063 1240.7344,470.7969 C1240.5313,470.625 1240.3906,470.3594 1240.3906,470.1094 C1240.3906,469.8125 1240.5469,469.5313 1240.7969,469.375 C1240.9531,469.2656 1241.0938,469.25 1241.5156,469.25 L1241.6094,469.25 L1241.6094,462.7344 C1241.0469,462.6875 1240.7344,462.3906 1240.7344,461.8906 C1240.7344,461.6094 1240.8906,461.3125 1241.1406,461.1563 C1241.2969,461.0625 1241.4219,461.0469 1241.8594,461.0469 L1243.5625,461.0469 C1244.0313,461.0469 1244.1875,461.0781 1244.3281,461.1875 C1244.5625,461.3594 1244.6875,461.625 1244.6875,461.8906 C1244.6875,462.1875 1244.5313,462.4688 1244.2813,462.625 C1244.125,462.7031 1243.9844,462.7344 1243.5625,462.7344 L1243.3125,462.7344 L1243.3125,465.1563 L1246.9531,465.1563 L1246.9531,462.7344 L1246.7031,462.7344 C1246.25,462.7344 1246.1094,462.7031 1245.9375,462.5938 C1245.7188,462.4219 1245.5781,462.1719 1245.5781,461.8906 C1245.5781,461.6094 1245.7344,461.3125 1245.9844,461.1563 C1246.1406,461.0625 1246.2656,461.0469 1246.7031,461.0469 L1248.4219,461.0469 C1248.875,461.0469 1249.0313,461.0781 1249.2031,461.1875 C1249.4063,461.3594 1249.5313,461.625 1249.5313,461.8906 C1249.5313,462.3906 1249.2188,462.6875 1248.6563,462.7344 L1248.6563,469.25 L1248.75,469.25 C1249.2188,469.25 1249.3594,469.2813 1249.5156,469.4063 C1249.7344,469.5781 1249.875,469.8281 1249.875,470.1094 C1249.875,470.3906 1249.7188,470.6875 1249.4688,470.8281 C1249.3281,470.9219 1249.1094,470.9531 1248.75,470.9531 L1246.7031,470.9531 C1246.2969,470.9531 1246.0938,470.9063 1245.9375,470.7969 C1245.7188,470.625 1245.5781,470.3594 1245.5781,470.1094 C1245.5781,469.8125 1245.7344,469.5313 1245.9844,469.375 C1246.1406,469.2656 1246.2969,469.25 1246.7031,469.25 L1246.9531,469.25 Z "/><text fill="#000000" font-family="sans-serif" font-size="12" lengthAdjust="spacingAndGlyphs" textLength="87" x="1259" y="470.1074">L1IsoProxDual</text><line style="stroke: #A80036; stroke-width: 1.5;" x1="1231" x2="1348" y1="481.9531" y2="481.9531"/><line style="stroke: #A80036; stroke-width: 1.5;" x1="1231" x2="1348" y1="489.9531" y2="489.9531"/><ellipse cx="1241" cy="501.8555" fill="#84BE84" rx="3" ry="3" style="stroke: #038048; stroke-width: 1.0;"/><text fill="#000000" font-family="sans-serif" font-size="11" lengthAdjust="spacingAndGlyphs" textLength="88" x="1250" y="504.1636">L1IsoProxDual()</text><ellipse cx="1241" cy="514.6602" fill="#84BE84" rx="3" ry="3" style="stroke: #038048; stroke-width: 1.0;"/><text fill="#000000" font-family="sans-serif" font-size="11" lengthAdjust="spacingAndGlyphs" textLength="63" x="1250" y="516.9683">applyProx()</text><!--class L1IsoProxDualShift--><rect fill="#FEFECE" filter="url(#fad6rd9)" height="73.6094" style="stroke: #A80036; stroke-width: 1.5;" width="147" x="676" y="449.9531"/><ellipse cx="691" cy="465.9531" fill="#E6FFE6" rx="11" ry="11" style="stroke: #A80036; stroke-width: 1.0;"/><path d="M692.9531,466.8594 L689.3125,466.8594 L689.3125,469.25 L689.5625,469.25 C690.0156,469.25 690.1875,469.2813 690.3281,469.4063 C690.5625,469.5781 690.6875,469.8281 690.6875,470.1094 C690.6875,470.3906 690.5313,470.6875 690.2813,470.8281 C690.1406,470.9219 689.9219,470.9531 689.5625,470.9531 L687.5156,470.9531 C687.1094,470.9531 686.8906,470.9063 686.7344,470.7969 C686.5313,470.625 686.3906,470.3594 686.3906,470.1094 C686.3906,469.8125 686.5469,469.5313 686.7969,469.375 C686.9531,469.2656 687.0938,469.25 687.5156,469.25 L687.6094,469.25 L687.6094,462.7344 C687.0469,462.6875 686.7344,462.3906 686.7344,461.8906 C686.7344,461.6094 686.8906,461.3125 687.1406,461.1563 C687.2969,461.0625 687.4219,461.0469 687.8594,461.0469 L689.5625,461.0469 C690.0313,461.0469 690.1875,461.0781 690.3281,461.1875 C690.5625,461.3594 690.6875,461.625 690.6875,461.8906 C690.6875,462.1875 690.5313,462.4688 690.2813,462.625 C690.125,462.7031 689.9844,462.7344 689.5625,462.7344 L689.3125,462.7344 L689.3125,465.1563 L692.9531,465.1563 L692.9531,462.7344 L692.7031,462.7344 C692.25,462.7344 692.1094,462.7031 691.9375,462.5938 C691.7188,462.4219 691.5781,462.1719 691.5781,461.8906 C691.5781,461.6094 691.7344,461.3125 691.9844,461.1563 C692.1406,461.0625 692.2656,461.0469 692.7031,461.0469 L694.4219,461.0469 C694.875,461.0469 695.0313,461.0781 695.2031,461.1875 C695.4063,461.3594 695.5313,461.625 695.5313,461.8906 C695.5313,462.3906 695.2188,462.6875 694.6563,462.7344 L694.6563,469.25 L694.75,469.25 C695.2188,469.25 695.3594,469.2813 695.5156,469.4063 C695.7344,469.5781 695.875,469.8281 695.875,470.1094 C695.875,470.3906 695.7188,470.6875 695.4688,470.8281 C695.3281,470.9219 695.1094,470.9531 694.75,470.9531 L692.7031,470.9531 C692.2969,470.9531 692.0938,470.9063 691.9375,470.7969 C691.7188,470.625 691.5781,470.3594 691.5781,470.1094 C691.5781,469.8125 691.7344,469.5313 691.9844,469.375 C692.1406,469.2656 692.2969,469.25 692.7031,469.25 L692.9531,469.25 Z "/><text fill="#000000" font-family="sans-serif" font-size="12" lengthAdjust="spacingAndGlyphs" textLength="115" x="705" y="470.1074">L1IsoProxDualShift</text><line style="stroke: #A80036; stroke-width: 1.5;" x1="677" x2="822" y1="481.9531" y2="481.9531"/><line style="stroke: #A80036; stroke-width: 1.5;" x1="677" x2="822" y1="489.9531" y2="489.9531"/><ellipse cx="687" cy="501.8555" fill="#84BE84" rx="3" ry="3" style="stroke: #038048; stroke-width: 1.0;"/><text fill="#000000" font-family="sans-serif" font-size="11" lengthAdjust="spacingAndGlyphs" textLength="114" x="696" y="504.1636">L1IsoProxDualShift()</text><ellipse cx="687" cy="514.6602" fill="#84BE84" rx="3" ry="3" style="stroke: #038048; stroke-width: 1.0;"/><text fill="#000000" font-family="sans-serif" font-size="11" lengthAdjust="spacingAndGlyphs" textLength="63" x="696" y="516.9683">applyProx()</text><!--class L2proxDual--><rect fill="#FEFECE" filter="url(#fad6rd9)" height="73.6094" style="stroke: #A80036; stroke-width: 1.5;" width="101" x="368" y="449.9531"/><ellipse cx="383" cy="465.9531" fill="#E6FFE6" rx="11" ry="11" style="stroke: #A80036; stroke-width: 1.0;"/><path d="M384.9531,466.8594 L381.3125,466.8594 L381.3125,469.25 L381.5625,469.25 C382.0156,469.25 382.1875,469.2813 382.3281,469.4063 C382.5625,469.5781 382.6875,469.8281 382.6875,470.1094 C382.6875,470.3906 382.5313,470.6875 382.2813,470.8281 C382.1406,470.9219 381.9219,470.9531 381.5625,470.9531 L379.5156,470.9531 C379.1094,470.9531 378.8906,470.9063 378.7344,470.7969 C378.5313,470.625 378.3906,470.3594 378.3906,470.1094 C378.3906,469.8125 378.5469,469.5313 378.7969,469.375 C378.9531,469.2656 379.0938,469.25 379.5156,469.25 L379.6094,469.25 L379.6094,462.7344 C379.0469,462.6875 378.7344,462.3906 378.7344,461.8906 C378.7344,461.6094 378.8906,461.3125 379.1406,461.1563 C379.2969,461.0625 379.4219,461.0469 379.8594,461.0469 L381.5625,461.0469 C382.0313,461.0469 382.1875,461.0781 382.3281,461.1875 C382.5625,461.3594 382.6875,461.625 382.6875,461.8906 C382.6875,462.1875 382.5313,462.4688 382.2813,462.625 C382.125,462.7031 381.9844,462.7344 381.5625,462.7344 L381.3125,462.7344 L381.3125,465.1563 L384.9531,465.1563 L384.9531,462.7344 L384.7031,462.7344 C384.25,462.7344 384.1094,462.7031 383.9375,462.5938 C383.7188,462.4219 383.5781,462.1719 383.5781,461.8906 C383.5781,461.6094 383.7344,461.3125 383.9844,461.1563 C384.1406,461.0625 384.2656,461.0469 384.7031,461.0469 L386.4219,461.0469 C386.875,461.0469 387.0313,461.0781 387.2031,461.1875 C387.4063,461.3594 387.5313,461.625 387.5313,461.8906 C387.5313,462.3906 387.2188,462.6875 386.6563,462.7344 L386.6563,469.25 L386.75,469.25 C387.2188,469.25 387.3594,469.2813 387.5156,469.4063 C387.7344,469.5781 387.875,469.8281 387.875,470.1094 C387.875,470.3906 387.7188,470.6875 387.4688,470.8281 C387.3281,470.9219 387.1094,470.9531 386.75,470.9531 L384.7031,470.9531 C384.2969,470.9531 384.0938,470.9063 383.9375,470.7969 C383.7188,470.625 383.5781,470.3594 383.5781,470.1094 C383.5781,469.8125 383.7344,469.5313 383.9844,469.375 C384.1406,469.2656 384.2969,469.25 384.7031,469.25 L384.9531,469.25 Z "/><text fill="#000000" font-family="sans-serif" font-size="12" lengthAdjust="spacingAndGlyphs" textLength="69" x="397" y="470.1074">L2proxDual</text><line style="stroke: #A80036; stroke-width: 1.5;" x1="369" x2="468" y1="481.9531" y2="481.9531"/><line style="stroke: #A80036; stroke-width: 1.5;" x1="369" x2="468" y1="489.9531" y2="489.9531"/><ellipse cx="379" cy="501.8555" fill="#84BE84" rx="3" ry="3" style="stroke: #038048; stroke-width: 1.0;"/><text fill="#000000" font-family="sans-serif" font-size="11" lengthAdjust="spacingAndGlyphs" textLength="71" x="388" y="504.1636">L2proxDual()</text><ellipse cx="379" cy="514.6602" fill="#84BE84" rx="3" ry="3" style="stroke: #038048; stroke-width: 1.0;"/><text fill="#000000" font-family="sans-serif" font-size="11" lengthAdjust="spacingAndGlyphs" textLength="63" x="388" y="516.9683">applyProx()</text><!--class basicDualizedDataterm--><rect fill="#FEFECE" filter="url(#fad6rd9)" height="48" style="stroke: #A80036; stroke-width: 1.5;" width="176" x="1554.5" y="124.9531"/><ellipse cx="1569.5" cy="140.9531" fill="#ADD1B2" rx="11" ry="11" style="stroke: #A80036; stroke-width: 1.0;"/><path d="M1571.8438,136.625 L1572.0156,136.7031 C1572.2344,136.3906 1572.4375,136.2969 1572.7344,136.2969 C1573.0313,136.2969 1573.3125,136.4375 1573.4688,136.7031 C1573.5625,136.8594 1573.5781,136.9844 1573.5781,137.4219 L1573.5781,138.8438 C1573.5781,139.2656 1573.5469,139.4531 1573.4375,139.6094 C1573.2656,139.8281 1573,139.9688 1572.7344,139.9688 C1572.5156,139.9688 1572.2813,139.8594 1572.1406,139.7188 C1572,139.5938 1571.9688,139.4688 1571.9063,139.0625 C1571.8125,138.6563 1571.6406,138.4375 1571.1563,138.1563 C1570.6875,137.9063 1570.0781,137.75 1569.5,137.75 C1567.7656,137.75 1566.5156,139.0625 1566.5156,140.8438 L1566.5156,141.9375 C1566.5156,143.6406 1567.8125,144.7344 1569.8594,144.7344 C1570.625,144.7344 1571.3125,144.6094 1571.7344,144.3438 C1571.9219,144.25 1571.9219,144.25 1572.375,143.7656 C1572.5625,143.5781 1572.7656,143.5 1572.9844,143.5 C1573.4531,143.5 1573.8438,143.8906 1573.8438,144.3438 C1573.8438,144.7344 1573.5156,145.1875 1572.9375,145.5938 C1572.1875,146.1406 1571.0313,146.4375 1569.8125,146.4375 C1566.9219,146.4375 1564.8125,144.5469 1564.8125,141.9688 L1564.8125,140.8438 C1564.8125,138.125 1566.8125,136.0469 1569.4375,136.0469 C1570.3125,136.0469 1570.9063,136.1875 1571.8438,136.625 Z "/><text fill="#000000" font-family="sans-serif" font-size="12" lengthAdjust="spacingAndGlyphs" textLength="144" x="1583.5" y="145.1074">basicDualizedDataterm</text><line style="stroke: #A80036; stroke-width: 1.5;" x1="1555.5" x2="1729.5" y1="156.9531" y2="156.9531"/><line style="stroke: #A80036; stroke-width: 1.5;" x1="1555.5" x2="1729.5" y1="164.9531" y2="164.9531"/><path d="M1642.5,193.1161 C1642.5,233.7201 1642.5,293.4261 1642.5,328.8791 " fill="none" style="stroke: #A80036; stroke-width: 1.0;"/><polygon fill="none" points="1635.5,193.0631,1642.5,173.0631,1649.5,193.0631,1635.5,193.0631" style="stroke: #A80036; stroke-width: 1.0;"/><path d="M1535.78,365.4971 C1316.38,376.6291 821.609,405.8591 658.5,449.9531 C652.089,451.6861 645.553,453.9221 639.134,456.4311 " fill="none" style="stroke: #A80036; stroke-width: 1.0;"/><polygon fill="none" points="1535.49,358.5031,1555.82,364.4921,1536.19,372.4861,1535.49,358.5031" style="stroke: #A80036; stroke-width: 1.0;"/><path d="M1642.5,410.4001 C1642.5,426.0001 1642.5,442.7021 1642.5,456.4251 " fill="none" style="stroke: #A80036; stroke-width: 1.0;"/><polygon fill="none" points="1635.5,410.1951,1642.5,390.1951,1649.5,410.1951,1635.5,410.1951" style="stroke: #A80036; stroke-width: 1.0;"/><path d="M1748.17,393.6911 C1810.09,413.1671 1887.63,437.5541 1947.43,456.3641 " fill="none" style="stroke: #A80036; stroke-width: 1.0;"/><polygon fill="none" points="1746.06,400.3631,1729.08,387.6851,1750.26,387.0081,1746.06,400.3631" style="stroke: #A80036; stroke-width: 1.0;"/><path d="M503.01,517.7211 C497.423,519.8321 491.877,521.9261 486.5,523.9531 C415.435,550.7431 396.519,554.5391 326.5,583.9531 C317.28,587.8264 307.618,592.1004 298.187,596.3949 " fill="none" style="stroke: #A80036; stroke-width: 1.0;"/><polygon fill="none" points="500.784,511.0791,521.967,510.5491,505.738,524.1731,500.784,511.0791" style="stroke: #A80036; stroke-width: 1.0;"/><path d="M244.187,544.3491 C242.504,562.2161 240.711,581.2511 239.28,596.4386 " fill="none" style="stroke: #A80036; stroke-width: 1.0;"/><polygon fill="none" points="237.239,543.4661,246.084,524.2111,251.178,544.7791,237.239,543.4661" style="stroke: #A80036; stroke-width: 1.0;"/><path d="M502.738,519.0781 C497.279,520.8401 491.83,522.4871 486.5,523.9531 C338.55,564.6531 291.584,533.9891 146.5,583.9531 C140.772,585.9256 134.956,588.2719 129.212,590.8323 " fill="none" style="stroke: #A80036; stroke-width: 1.0;"/><polygon fill="none" points="500.568,512.4231,521.757,512.5351,505.122,525.6611,500.568,512.4231" style="stroke: #A80036; stroke-width: 1.0;"/><path d="M70.4561,544.3661 C69.8983,559.7601 69.3092,576.0193 68.8049,589.9374 " fill="none" style="stroke: #A80036; stroke-width: 1.0;"/><polygon fill="none" points="63.4666,543.9441,71.1863,524.2111,77.4575,544.4511,63.4666,543.9441" style="stroke: #A80036; stroke-width: 1.0;"/><path d="M646.298,528.2331 C677.612,547.6981 714.897,570.8758 745.296,589.772 " fill="none" style="stroke: #A80036; stroke-width: 1.0;"/><polygon fill="none" points="642.415,534.0611,629.125,517.5571,649.806,522.1711,642.415,534.0611" style="stroke: #A80036; stroke-width: 1.0;"/><path d="M891.706,538.3821 C874.494,555.4701 855.628,574.2005 839.777,589.9374 " fill="none" style="stroke: #A80036; stroke-width: 1.0;"/><polygon fill="none" points="886.854,533.3341,905.979,524.2111,896.718,543.2691,886.854,533.3341" style="stroke: #A80036; stroke-width: 1.0;"/><path d="M1642.14,537.7151 C1642.01,554.9221 1641.88,573.864 1641.76,589.772 " fill="none" style="stroke: #A80036; stroke-width: 1.0;"/><polygon fill="none" points="1635.14,537.5061,1642.29,517.5571,1649.14,537.6081,1635.14,537.5061" style="stroke: #A80036; stroke-width: 1.0;"/><path d="M1046.65,502.3991 C1190.2,522.7491 1441.25,560.0411 1530.5,583.9531 C1537.07,585.7128 1543.79,587.7167 1550.51,589.8727 " fill="none" style="stroke: #A80036; stroke-width: 1.0;"/><polygon fill="none" points="1045.53,509.3101,1026.71,499.5831,1047.49,495.4481,1045.53,509.3101" style="stroke: #A80036; stroke-width: 1.0;"/><path d="M659.735,523.2821 C833.774,572.651 891.869,531.8271 1056.5,583.9531 C1066.76,587.2014 1077.31,591.5664 1087.32,596.2564 " fill="none" style="stroke: #A80036; stroke-width: 1.0;"/><polygon fill="none" points="657.721,529.9861,640.525,517.6051,661.689,516.5601,657.721,529.9861" style="stroke: #A80036; stroke-width: 1.0;"/><path d="M1750.1,523.3891 C1519.36,579.9179 1444.42,518.6831 1224.5,583.9531 C1213.87,587.1076 1202.96,591.5497 1192.67,596.3727 " fill="none" style="stroke: #A80036; stroke-width: 1.0;"/><polygon fill="none" points="1748.46,516.5841,1769.57,518.4351,1751.91,530.1521,1748.46,516.5841" style="stroke: #A80036; stroke-width: 1.0;"/><path d="M1747.58,522.7631 C1749.23,523.1721 1750.87,523.5691 1752.5,523.9531 C1930.04,565.8041 1983.37,532.9381 2158.5,583.9531 C2169.91,587.2775 2181.74,591.7088 2192.99,596.4477 " fill="none" style="stroke: #A80036; stroke-width: 1.0;"/><polygon fill="none" points="1745.46,529.4411,1727.97,517.4791,1749.1,515.9231,1745.46,529.4411" style="stroke: #A80036; stroke-width: 1.0;"/><path d="M1924.54,523.7411 C2029.38,557.2521 2062.37,550.4781 2158.5,583.9531 C2168.97,587.5975 2179.88,591.9401 2190.4,596.429 " fill="none" style="stroke: #A80036; stroke-width: 1.0;"/><polygon fill="none" points="1922.02,530.2841,1905.22,517.3791,1926.4,516.9871,1922.02,530.2841" style="stroke: #A80036; stroke-width: 1.0;"/><path d="M1701.31,529.3631 C1731.98,550.9511 1768.76,576.8533 1796.52,596.3976 " fill="none" style="stroke: #A80036; stroke-width: 1.0;"/><polygon fill="none" points="1696.87,534.7951,1684.55,517.5571,1704.93,523.3481,1696.87,534.7951" style="stroke: #A80036; stroke-width: 1.0;"/><path d="M1369.3,498.3061 C1462.87,511.8521 1621.79,539.2721 1752.5,583.9531 C1762.56,587.3927 1772.97,591.7376 1782.92,596.32 " fill="none" style="stroke: #A80036; stroke-width: 1.0;"/><polygon fill="none" points="1368.05,505.2001,1349.23,495.4691,1370.01,491.3381,1368.05,505.2001" style="stroke: #A80036; stroke-width: 1.0;"/><path d="M660.294,523.8101 C768.622,559.5101 805.292,545.2401 904.5,583.9531 C913.488,587.4604 922.732,591.8391 931.542,596.4342 " fill="none" style="stroke: #A80036; stroke-width: 1.0;"/><polygon fill="none" points="657.773,530.3461,641.13,517.2301,662.32,517.1051,657.773,530.3461" style="stroke: #A80036; stroke-width: 1.0;"/><path d="M1211.06,517.6871 C1165.4,535.6331 1107.05,559.6681 1056.5,583.9531 C1048.62,587.7393 1040.41,591.9657 1032.42,596.2386 " fill="none" style="stroke: #A80036; stroke-width: 1.0;"/><polygon fill="none" points="1208.61,511.1271,1229.79,510.3861,1213.7,524.1711,1208.61,511.1271" style="stroke: #A80036; stroke-width: 1.0;"/><path d="M581.5,537.6971 C581.5,552.8121 581.5,569.2681 581.5,583.831 " fill="none" style="stroke: #A80036; stroke-width: 1.0;"/><polygon fill="none" points="574.5,537.5571,581.5,517.5571,588.5,537.5571,574.5,537.5571" style="stroke: #A80036; stroke-width: 1.0;"/><path d="M689.863,536.9411 C671.213,552.2601 650.809,569.0211 632.786,583.8251 " fill="none" style="stroke: #A80036; stroke-width: 1.0;"/><polygon fill="none" points="685.462,531.4971,705.36,524.2111,694.349,542.3151,685.462,531.4971" style="stroke: #A80036; stroke-width: 1.0;"/><path d="M1567.46,527.0301 C1533.42,544.7581 1493.1,565.7531 1458.39,583.831 " fill="none" style="stroke: #A80036; stroke-width: 1.0;"/><polygon fill="none" points="1564.68,520.5871,1585.65,517.5571,1571.15,533.0041,1564.68,520.5871" style="stroke: #A80036; stroke-width: 1.0;"/><path d="M842.475,523.8451 C1010.83,567.8491 1061.71,549.0091 1224.5,583.9531 C1230.16,585.1672 1235.91,586.4647 1241.72,587.8237 " fill="none" style="stroke: #A80036; stroke-width: 1.0;"/><polygon fill="none" points="840.535,530.5721,823.034,518.6251,844.165,517.0511,840.535,530.5721" style="stroke: #A80036; stroke-width: 1.0;"/><path d="M2156.4,523.5451 C2213.62,541.4151 2283.8,563.5521 2346.5,583.9531 C2358.69,587.9195 2371.53,592.1604 2384.15,596.3658 " fill="none" style="stroke: #A80036; stroke-width: 1.0;"/><polygon fill="none" points="2154.13,530.1721,2137.13,517.5351,2158.3,516.8071,2154.13,530.1721" style="stroke: #A80036; stroke-width: 1.0;"/><path d="M1924.32,523.3271 C2110.32,572.2059 2167.77,541.6291 2346.5,583.9531 C2360.98,587.3822 2376.17,591.7776 2390.77,596.4276 " fill="none" style="stroke: #A80036; stroke-width: 1.0;"/><polygon fill="none" points="1922.47,530.0781,1905,518.0891,1926.14,516.5661,1922.47,530.0781" style="stroke: #A80036; stroke-width: 1.0;"/><path d="M2041.5,537.6791 C2041.5,557.3571 2041.5,579.3077 2041.5,596.3976 " fill="none" style="stroke: #A80036; stroke-width: 1.0;"/><polygon fill="none" points="2034.5,537.5571,2041.5,517.5571,2048.5,537.5571,2034.5,537.5571" style="stroke: #A80036; stroke-width: 1.0;"/><path d="M1368.95,499.7601 C1536.35,524.6621 1911.08,580.5649 1924.5,583.9531 C1938.1,587.3876 1952.34,591.7857 1966.01,596.4366 " fill="none" style="stroke: #A80036; stroke-width: 1.0;"/><polygon fill="none" points="1367.88,506.6781,1349.13,496.8121,1369.94,492.8301,1367.88,506.6781" style="stroke: #A80036; stroke-width: 1.0;"/><path d="M524.675,529.6651 C495.348,551.1921 460.266,576.9442 433.764,596.3976 " fill="none" style="stroke: #A80036; stroke-width: 1.0;"/><polygon fill="none" points="520.904,523.7491,541.169,517.5571,529.189,535.0351,520.904,523.7491" style="stroke: #A80036; stroke-width: 1.0;"/><path d="M408.336,544.0581 C405.084,562.0091 401.613,581.1685 398.847,596.4386 " fill="none" style="stroke: #A80036; stroke-width: 1.0;"/><polygon fill="none" points="401.478,542.6431,411.932,524.2111,415.254,545.1381,401.478,542.6431" style="stroke: #A80036; stroke-width: 1.0;"/><path d="M683.603,372.6771 C603.98,388.0331 466.282,416.4681 350.5,449.9531 C341.916,452.4351 333.001,455.2531 324.18,458.1921 " fill="none" style="stroke: #A80036; stroke-width: 1.0;"/><polygon fill="none" points="682.304,365.7991,703.262,368.9251,684.929,379.5511,682.304,365.7991" style="stroke: #A80036; stroke-width: 1.0;"/><path d="M683.165,365.0371 C572.468,373.8891 343.844,397.3091 157.5,449.9531 C150.252,452.0011 142.8,454.5101 135.463,457.2421 " fill="none" style="stroke: #A80036; stroke-width: 1.0;"/><polygon fill="none" points="682.891,358.0381,703.37,363.4801,683.967,371.9971,682.891,358.0381" style="stroke: #A80036; stroke-width: 1.0;"/><path d="M812.15,401.1921 C836.303,416.8971 863.696,434.7101 887.115,449.9391 " fill="none" style="stroke: #A80036; stroke-width: 1.0;"/><polygon fill="none" points="808.189,406.9661,795.238,390.1951,815.821,395.2291,808.189,406.9661" style="stroke: #A80036; stroke-width: 1.0;"/><path d="M816.007,363.7271 C1010.04,373.7011 1572.98,405.7431 1751.5,449.9531 C1757.47,451.4321 1763.56,453.2641 1769.61,455.3141 " fill="none" style="stroke: #A80036; stroke-width: 1.0;"/><polygon fill="none" points="815.399,370.7051,795.78,362.6991,816.11,356.7241,815.399,370.7051" style="stroke: #A80036; stroke-width: 1.0;"/><path d="M815.322,375.7501 C921.253,400.3701 1127.96,448.4111 1229.83,472.0861 " fill="none" style="stroke: #A80036; stroke-width: 1.0;"/><polygon fill="none" points="813.436,382.4991,795.54,371.1531,816.606,368.8621,813.436,382.4991" style="stroke: #A80036; stroke-width: 1.0;"/><path d="M749.5,410.4581 C749.5,423.5741 749.5,437.4661 749.5,449.7081 " fill="none" style="stroke: #A80036; stroke-width: 1.0;"/><polygon fill="none" points="742.5,410.1951,749.5,390.1951,756.5,410.1951,742.5,410.1951" style="stroke: #A80036; stroke-width: 1.0;"/><path d="M684.28,383.3531 C634.739,400.9721 565.04,426.2391 504.5,449.9531 C493.046,454.4401 480.813,459.4351 469.274,464.2421 " fill="none" style="stroke: #A80036; stroke-width: 1.0;"/><polygon fill="none" points="682.013,376.7301,703.203,376.6471,686.69,389.9261,682.013,376.7301" style="stroke: #A80036; stroke-width: 1.0;"/></g></svg>