<?xml version="1.0" encoding="UTF-8" standalone="no"?><svg xmlns="http://www.w3.org/2000/svg" xmlns:xlink="http://www.w3.org/1999/xlink" contentScriptType="application/ecmascript" contentStyleType="text/css" height="557px" preserveAspectRatio="none" style="width:832px;height:557px;" version="1.1" viewBox="0 0 832 557" width="832px" zoomAndPan="magnify"><defs><filter height="300%" id="fz117ia" width="300%" x="-1" y="-1"><feGaussianBlur result="blurOut" stdDeviation="2.0"/><feColorMatrix in="blurOut" result="blurOut2" type="matrix" values="0 0 0 0 0 0 0 0 0 0 0 0 0 0 0 0 0 0 .4 0"/><feOffset dx="4.0" dy="4.0" in="blurOut2" result="blurOut3"/><feBlend in="SourceGraphic" in2="blurOut3" mode="normal"/></filter></defs><g><text fill="#000000" font-family="sans-serif" font-size="18" font-weight="bold" lengthAdjust="spacingAndGlyphs" textLength="311" x="265.5" y="16.708">Regularizer Terms (constraint)</text><!--class basicTerm--><rect fill="#FEFECE" filter="url(#fz117ia)" height="240.0703" style="stroke: #A80036; stroke-width: 1.5;" width="96" x="562.5" y="28.9531"/><ellipse cx="577.5" cy="44.9531" fill="#E6FFE6" rx="11" ry="11" style="stroke: #A80036; stroke-width: 1.0;"/><path d="M579.4531,45.8594 L575.8125,45.8594 L575.8125,48.25 L576.0625,48.25 C576.5156,48.25 576.6875,48.2813 576.8281,48.4063 C577.0625,48.5781 577.1875,48.8281 577.1875,49.1094 C577.1875,49.3906 577.0313,49.6875 576.7813,49.8281 C576.6406,49.9219 576.4219,49.9531 576.0625,49.9531 L574.0156,49.9531 C573.6094,49.9531 573.3906,49.9063 573.2344,49.7969 C573.0313,49.625 572.8906,49.3594 572.8906,49.1094 C572.8906,48.8125 573.0469,48.5313 573.2969,48.375 C573.4531,48.2656 573.5938,48.25 574.0156,48.25 L574.1094,48.25 L574.1094,41.7344 C573.5469,41.6875 573.2344,41.3906 573.2344,40.8906 C573.2344,40.6094 573.3906,40.3125 573.6406,40.1563 C573.7969,40.0625 573.9219,40.0469 574.3594,40.0469 L576.0625,40.0469 C576.5313,40.0469 576.6875,40.0781 576.8281,40.1875 C577.0625,40.3594 577.1875,40.625 577.1875,40.8906 C577.1875,41.1875 577.0313,41.4688 576.7813,41.625 C576.625,41.7031 576.4844,41.7344 576.0625,41.7344 L575.8125,41.7344 L575.8125,44.1563 L579.4531,44.1563 L579.4531,41.7344 L579.2031,41.7344 C578.75,41.7344 578.6094,41.7031 578.4375,41.5938 C578.2188,41.4219 578.0781,41.1719 578.0781,40.8906 C578.0781,40.6094 578.2344,40.3125 578.4844,40.1563 C578.6406,40.0625 578.7656,40.0469 579.2031,40.0469 L580.9219,40.0469 C581.375,40.0469 581.5313,40.0781 581.7031,40.1875 C581.9063,40.3594 582.0313,40.625 582.0313,40.8906 C582.0313,41.3906 581.7188,41.6875 581.1563,41.7344 L581.1563,48.25 L581.25,48.25 C581.7188,48.25 581.8594,48.2813 582.0156,48.4063 C582.2344,48.5781 582.375,48.8281 582.375,49.1094 C582.375,49.3906 582.2188,49.6875 581.9688,49.8281 C581.8281,49.9219 581.6094,49.9531 581.25,49.9531 L579.2031,49.9531 C578.7969,49.9531 578.5938,49.9063 578.4375,49.7969 C578.2188,49.625 578.0781,49.3594 578.0781,49.1094 C578.0781,48.8125 578.2344,48.5313 578.4844,48.375 C578.6406,48.2656 578.7969,48.25 579.2031,48.25 L579.4531,48.25 Z "/><text fill="#000000" font-family="sans-serif" font-size="12" lengthAdjust="spacingAndGlyphs" textLength="64" x="591.5" y="49.1074">basicTerm</text><line style="stroke: #A80036; stroke-width: 1.5;" x1="563.5" x2="657.5" y1="60.9531" y2="60.9531"/><text fill="#000000" font-family="sans-serif" font-size="11" lengthAdjust="spacingAndGlyphs" textLength="13" x="582.5" y="75.1636">+f</text><ellipse cx="573.5" cy="85.6602" fill="none" rx="3" ry="3" style="stroke: #038048; stroke-width: 1.0;"/><text fill="#000000" font-family="sans-serif" font-size="11" lengthAdjust="spacingAndGlyphs" textLength="33" x="582.5" y="87.9683">factor</text><ellipse cx="573.5" cy="98.4648" fill="none" rx="3" ry="3" style="stroke: #038048; stroke-width: 1.0;"/><text fill="#000000" font-family="sans-serif" font-size="11" lengthAdjust="spacingAndGlyphs" textLength="35" x="582.5" y="100.7729">length</text><ellipse cx="573.5" cy="111.2695" fill="none" rx="3" ry="3" style="stroke: #038048; stroke-width: 1.0;"/><text fill="#000000" font-family="sans-serif" font-size="11" lengthAdjust="spacingAndGlyphs" textLength="53" x="582.5" y="113.5776">mySigma</text><ellipse cx="573.5" cy="124.0742" fill="none" rx="3" ry="3" style="stroke: #038048; stroke-width: 1.0;"/><text fill="#000000" font-family="sans-serif" font-size="11" lengthAdjust="spacingAndGlyphs" textLength="38" x="582.5" y="126.3823">myTau</text><ellipse cx="573.5" cy="136.8789" fill="none" rx="3" ry="3" style="stroke: #038048; stroke-width: 1.0;"/><text fill="#000000" font-family="sans-serif" font-size="11" lengthAdjust="spacingAndGlyphs" textLength="68" x="582.5" y="139.187">numPrimals</text><ellipse cx="573.5" cy="149.6836" fill="none" rx="3" ry="3" style="stroke: #038048; stroke-width: 1.0;"/><text fill="#000000" font-family="sans-serif" font-size="11" lengthAdjust="spacingAndGlyphs" textLength="51" x="582.5" y="151.9917">numVars</text><ellipse cx="573.5" cy="162.4883" fill="none" rx="3" ry="3" style="stroke: #038048; stroke-width: 1.0;"/><text fill="#000000" font-family="sans-serif" font-size="11" lengthAdjust="spacingAndGlyphs" textLength="49" x="582.5" y="164.7964">operator</text><ellipse cx="573.5" cy="175.293" fill="none" rx="3" ry="3" style="stroke: #038048; stroke-width: 1.0;"/><text fill="#000000" font-family="sans-serif" font-size="11" lengthAdjust="spacingAndGlyphs" textLength="56" x="582.5" y="177.6011">operatorT</text><line style="stroke: #A80036; stroke-width: 1.5;" x1="563.5" x2="657.5" y1="184.1953" y2="184.1953"/><ellipse cx="573.5" cy="196.0977" fill="#84BE84" rx="3" ry="3" style="stroke: #038048; stroke-width: 1.0;"/><text fill="#000000" font-family="sans-serif" font-size="11" lengthAdjust="spacingAndGlyphs" textLength="68" x="582.5" y="198.4058">basicTerm()</text><ellipse cx="573.5" cy="208.9023" fill="#84BE84" rx="3" ry="3" style="stroke: #038048; stroke-width: 1.0;"/><text fill="#000000" font-family="sans-serif" font-size="11" lengthAdjust="spacingAndGlyphs" textLength="25" x="582.5" y="211.2104">init()</text><ellipse cx="573.5" cy="221.707" fill="#84BE84" rx="3" ry="3" style="stroke: #038048; stroke-width: 1.0;"/><text fill="#000000" font-family="sans-serif" font-size="11" lengthAdjust="spacingAndGlyphs" textLength="43" x="582.5" y="224.0151">xError()</text><ellipse cx="573.5" cy="234.5117" fill="#84BE84" rx="3" ry="3" style="stroke: #038048; stroke-width: 1.0;"/><text fill="#000000" font-family="sans-serif" font-size="11" lengthAdjust="spacingAndGlyphs" textLength="41" x="582.5" y="236.8198">xTilde()</text><ellipse cx="573.5" cy="247.3164" fill="#84BE84" rx="3" ry="3" style="stroke: #038048; stroke-width: 1.0;"/><text fill="#000000" font-family="sans-serif" font-size="11" lengthAdjust="spacingAndGlyphs" textLength="43" x="582.5" y="249.6245">yError()</text><ellipse cx="573.5" cy="260.1211" fill="#84BE84" rx="3" ry="3" style="stroke: #038048; stroke-width: 1.0;"/><text fill="#000000" font-family="sans-serif" font-size="11" lengthAdjust="spacingAndGlyphs" textLength="41" x="582.5" y="262.4292">yTilde()</text><!--class basicDualizedOperator--><rect fill="#FEFECE" filter="url(#fz117ia)" height="60.8047" style="stroke: #A80036; stroke-width: 1.5;" width="173" x="6" y="487.9531"/><ellipse cx="21" cy="503.9531" fill="#E6FFE6" rx="11" ry="11" style="stroke: #A80036; stroke-width: 1.0;"/><path d="M22.9531,504.8594 L19.3125,504.8594 L19.3125,507.25 L19.5625,507.25 C20.0156,507.25 20.1875,507.2813 20.3281,507.4063 C20.5625,507.5781 20.6875,507.8281 20.6875,508.1094 C20.6875,508.3906 20.5313,508.6875 20.2813,508.8281 C20.1406,508.9219 19.9219,508.9531 19.5625,508.9531 L17.5156,508.9531 C17.1094,508.9531 16.8906,508.9063 16.7344,508.7969 C16.5313,508.625 16.3906,508.3594 16.3906,508.1094 C16.3906,507.8125 16.5469,507.5313 16.7969,507.375 C16.9531,507.2656 17.0938,507.25 17.5156,507.25 L17.6094,507.25 L17.6094,500.7344 C17.0469,500.6875 16.7344,500.3906 16.7344,499.8906 C16.7344,499.6094 16.8906,499.3125 17.1406,499.1563 C17.2969,499.0625 17.4219,499.0469 17.8594,499.0469 L19.5625,499.0469 C20.0313,499.0469 20.1875,499.0781 20.3281,499.1875 C20.5625,499.3594 20.6875,499.625 20.6875,499.8906 C20.6875,500.1875 20.5313,500.4688 20.2813,500.625 C20.125,500.7031 19.9844,500.7344 19.5625,500.7344 L19.3125,500.7344 L19.3125,503.1563 L22.9531,503.1563 L22.9531,500.7344 L22.7031,500.7344 C22.25,500.7344 22.1094,500.7031 21.9375,500.5938 C21.7188,500.4219 21.5781,500.1719 21.5781,499.8906 C21.5781,499.6094 21.7344,499.3125 21.9844,499.1563 C22.1406,499.0625 22.2656,499.0469 22.7031,499.0469 L24.4219,499.0469 C24.875,499.0469 25.0313,499.0781 25.2031,499.1875 C25.4063,499.3594 25.5313,499.625 25.5313,499.8906 C25.5313,500.3906 25.2188,500.6875 24.6563,500.7344 L24.6563,507.25 L24.75,507.25 C25.2188,507.25 25.3594,507.2813 25.5156,507.4063 C25.7344,507.5781 25.875,507.8281 25.875,508.1094 C25.875,508.3906 25.7188,508.6875 25.4688,508.8281 C25.3281,508.9219 25.1094,508.9531 24.75,508.9531 L22.7031,508.9531 C22.2969,508.9531 22.0938,508.9063 21.9375,508.7969 C21.7188,508.625 21.5781,508.3594 21.5781,508.1094 C21.5781,507.8125 21.7344,507.5313 21.9844,507.375 C22.1406,507.2656 22.2969,507.25 22.7031,507.25 L22.9531,507.25 Z "/><text fill="#000000" font-family="sans-serif" font-size="12" lengthAdjust="spacingAndGlyphs" textLength="141" x="35" y="508.1074">basicDualizedOperator</text><line style="stroke: #A80036; stroke-width: 1.5;" x1="7" x2="178" y1="519.9531" y2="519.9531"/><line style="stroke: #A80036; stroke-width: 1.5;" x1="7" x2="178" y1="527.9531" y2="527.9531"/><ellipse cx="17" cy="539.8555" fill="#84BE84" rx="3" ry="3" style="stroke: #038048; stroke-width: 1.0;"/><text fill="#000000" font-family="sans-serif" font-size="11" lengthAdjust="spacingAndGlyphs" textLength="136" x="26" y="542.1636">basicDualizedOperator()</text><!--class boxConstraint--><rect fill="#FEFECE" filter="url(#fz117ia)" height="60.8047" style="stroke: #A80036; stroke-width: 1.5;" width="119" x="214" y="487.9531"/><ellipse cx="229" cy="503.9531" fill="#E6FFE6" rx="11" ry="11" style="stroke: #A80036; stroke-width: 1.0;"/><path d="M230.9531,504.8594 L227.3125,504.8594 L227.3125,507.25 L227.5625,507.25 C228.0156,507.25 228.1875,507.2813 228.3281,507.4063 C228.5625,507.5781 228.6875,507.8281 228.6875,508.1094 C228.6875,508.3906 228.5313,508.6875 228.2813,508.8281 C228.1406,508.9219 227.9219,508.9531 227.5625,508.9531 L225.5156,508.9531 C225.1094,508.9531 224.8906,508.9063 224.7344,508.7969 C224.5313,508.625 224.3906,508.3594 224.3906,508.1094 C224.3906,507.8125 224.5469,507.5313 224.7969,507.375 C224.9531,507.2656 225.0938,507.25 225.5156,507.25 L225.6094,507.25 L225.6094,500.7344 C225.0469,500.6875 224.7344,500.3906 224.7344,499.8906 C224.7344,499.6094 224.8906,499.3125 225.1406,499.1563 C225.2969,499.0625 225.4219,499.0469 225.8594,499.0469 L227.5625,499.0469 C228.0313,499.0469 228.1875,499.0781 228.3281,499.1875 C228.5625,499.3594 228.6875,499.625 228.6875,499.8906 C228.6875,500.1875 228.5313,500.4688 228.2813,500.625 C228.125,500.7031 227.9844,500.7344 227.5625,500.7344 L227.3125,500.7344 L227.3125,503.1563 L230.9531,503.1563 L230.9531,500.7344 L230.7031,500.7344 C230.25,500.7344 230.1094,500.7031 229.9375,500.5938 C229.7188,500.4219 229.5781,500.1719 229.5781,499.8906 C229.5781,499.6094 229.7344,499.3125 229.9844,499.1563 C230.1406,499.0625 230.2656,499.0469 230.7031,499.0469 L232.4219,499.0469 C232.875,499.0469 233.0313,499.0781 233.2031,499.1875 C233.4063,499.3594 233.5313,499.625 233.5313,499.8906 C233.5313,500.3906 233.2188,500.6875 232.6563,500.7344 L232.6563,507.25 L232.75,507.25 C233.2188,507.25 233.3594,507.2813 233.5156,507.4063 C233.7344,507.5781 233.875,507.8281 233.875,508.1094 C233.875,508.3906 233.7188,508.6875 233.4688,508.8281 C233.3281,508.9219 233.1094,508.9531 232.75,508.9531 L230.7031,508.9531 C230.2969,508.9531 230.0938,508.9063 229.9375,508.7969 C229.7188,508.625 229.5781,508.3594 229.5781,508.1094 C229.5781,507.8125 229.7344,507.5313 229.9844,507.375 C230.1406,507.2656 230.2969,507.25 230.7031,507.25 L230.9531,507.25 Z "/><text fill="#000000" font-family="sans-serif" font-size="12" lengthAdjust="spacingAndGlyphs" textLength="87" x="243" y="508.1074">boxConstraint</text><line style="stroke: #A80036; stroke-width: 1.5;" x1="215" x2="332" y1="519.9531" y2="519.9531"/><line style="stroke: #A80036; stroke-width: 1.5;" x1="215" x2="332" y1="527.9531" y2="527.9531"/><ellipse cx="225" cy="539.8555" fill="#84BE84" rx="3" ry="3" style="stroke: #038048; stroke-width: 1.0;"/><text fill="#000000" font-family="sans-serif" font-size="11" lengthAdjust="spacingAndGlyphs" textLength="87" x="234" y="542.1636">boxConstraint()</text><!--class nonNegativityConstraint--><rect fill="#FEFECE" filter="url(#fz117ia)" height="60.8047" style="stroke: #A80036; stroke-width: 1.5;" width="182" x="368.5" y="487.9531"/><ellipse cx="383.5" cy="503.9531" fill="#E6FFE6" rx="11" ry="11" style="stroke: #A80036; stroke-width: 1.0;"/><path d="M385.4531,504.8594 L381.8125,504.8594 L381.8125,507.25 L382.0625,507.25 C382.5156,507.25 382.6875,507.2813 382.8281,507.4063 C383.0625,507.5781 383.1875,507.8281 383.1875,508.1094 C383.1875,508.3906 383.0313,508.6875 382.7813,508.8281 C382.6406,508.9219 382.4219,508.9531 382.0625,508.9531 L380.0156,508.9531 C379.6094,508.9531 379.3906,508.9063 379.2344,508.7969 C379.0313,508.625 378.8906,508.3594 378.8906,508.1094 C378.8906,507.8125 379.0469,507.5313 379.2969,507.375 C379.4531,507.2656 379.5938,507.25 380.0156,507.25 L380.1094,507.25 L380.1094,500.7344 C379.5469,500.6875 379.2344,500.3906 379.2344,499.8906 C379.2344,499.6094 379.3906,499.3125 379.6406,499.1563 C379.7969,499.0625 379.9219,499.0469 380.3594,499.0469 L382.0625,499.0469 C382.5313,499.0469 382.6875,499.0781 382.8281,499.1875 C383.0625,499.3594 383.1875,499.625 383.1875,499.8906 C383.1875,500.1875 383.0313,500.4688 382.7813,500.625 C382.625,500.7031 382.4844,500.7344 382.0625,500.7344 L381.8125,500.7344 L381.8125,503.1563 L385.4531,503.1563 L385.4531,500.7344 L385.2031,500.7344 C384.75,500.7344 384.6094,500.7031 384.4375,500.5938 C384.2188,500.4219 384.0781,500.1719 384.0781,499.8906 C384.0781,499.6094 384.2344,499.3125 384.4844,499.1563 C384.6406,499.0625 384.7656,499.0469 385.2031,499.0469 L386.9219,499.0469 C387.375,499.0469 387.5313,499.0781 387.7031,499.1875 C387.9063,499.3594 388.0313,499.625 388.0313,499.8906 C388.0313,500.3906 387.7188,500.6875 387.1563,500.7344 L387.1563,507.25 L387.25,507.25 C387.7188,507.25 387.8594,507.2813 388.0156,507.4063 C388.2344,507.5781 388.375,507.8281 388.375,508.1094 C388.375,508.3906 388.2188,508.6875 387.9688,508.8281 C387.8281,508.9219 387.6094,508.9531 387.25,508.9531 L385.2031,508.9531 C384.7969,508.9531 384.5938,508.9063 384.4375,508.7969 C384.2188,508.625 384.0781,508.3594 384.0781,508.1094 C384.0781,507.8125 384.2344,507.5313 384.4844,507.375 C384.6406,507.2656 384.7969,507.25 385.2031,507.25 L385.4531,507.25 Z "/><text fill="#000000" font-family="sans-serif" font-size="12" lengthAdjust="spacingAndGlyphs" textLength="150" x="397.5" y="508.1074">nonNegativityConstraint</text><line style="stroke: #A80036; stroke-width: 1.5;" x1="369.5" x2="549.5" y1="519.9531" y2="519.9531"/><line style="stroke: #A80036; stroke-width: 1.5;" x1="369.5" x2="549.5" y1="527.9531" y2="527.9531"/><ellipse cx="379.5" cy="539.8555" fill="#84BE84" rx="3" ry="3" style="stroke: #038048; stroke-width: 1.0;"/><text fill="#000000" font-family="sans-serif" font-size="11" lengthAdjust="spacingAndGlyphs" textLength="143" x="388.5" y="542.1636">nonNegativityConstraint()</text><!--class nonNegativityConstraintOperator--><rect fill="#FEFECE" filter="url(#fz117ia)" height="60.8047" style="stroke: #A80036; stroke-width: 1.5;" width="238" x="585.5" y="487.9531"/><ellipse cx="600.5" cy="503.9531" fill="#E6FFE6" rx="11" ry="11" style="stroke: #A80036; stroke-width: 1.0;"/><path d="M602.4531,504.8594 L598.8125,504.8594 L598.8125,507.25 L599.0625,507.25 C599.5156,507.25 599.6875,507.2813 599.8281,507.4063 C600.0625,507.5781 600.1875,507.8281 600.1875,508.1094 C600.1875,508.3906 600.0313,508.6875 599.7813,508.8281 C599.6406,508.9219 599.4219,508.9531 599.0625,508.9531 L597.0156,508.9531 C596.6094,508.9531 596.3906,508.9063 596.2344,508.7969 C596.0313,508.625 595.8906,508.3594 595.8906,508.1094 C595.8906,507.8125 596.0469,507.5313 596.2969,507.375 C596.4531,507.2656 596.5938,507.25 597.0156,507.25 L597.1094,507.25 L597.1094,500.7344 C596.5469,500.6875 596.2344,500.3906 596.2344,499.8906 C596.2344,499.6094 596.3906,499.3125 596.6406,499.1563 C596.7969,499.0625 596.9219,499.0469 597.3594,499.0469 L599.0625,499.0469 C599.5313,499.0469 599.6875,499.0781 599.8281,499.1875 C600.0625,499.3594 600.1875,499.625 600.1875,499.8906 C600.1875,500.1875 600.0313,500.4688 599.7813,500.625 C599.625,500.7031 599.4844,500.7344 599.0625,500.7344 L598.8125,500.7344 L598.8125,503.1563 L602.4531,503.1563 L602.4531,500.7344 L602.2031,500.7344 C601.75,500.7344 601.6094,500.7031 601.4375,500.5938 C601.2188,500.4219 601.0781,500.1719 601.0781,499.8906 C601.0781,499.6094 601.2344,499.3125 601.4844,499.1563 C601.6406,499.0625 601.7656,499.0469 602.2031,499.0469 L603.9219,499.0469 C604.375,499.0469 604.5313,499.0781 604.7031,499.1875 C604.9063,499.3594 605.0313,499.625 605.0313,499.8906 C605.0313,500.3906 604.7188,500.6875 604.1563,500.7344 L604.1563,507.25 L604.25,507.25 C604.7188,507.25 604.8594,507.2813 605.0156,507.4063 C605.2344,507.5781 605.375,507.8281 605.375,508.1094 C605.375,508.3906 605.2188,508.6875 604.9688,508.8281 C604.8281,508.9219 604.6094,508.9531 604.25,508.9531 L602.2031,508.9531 C601.7969,508.9531 601.5938,508.9063 601.4375,508.7969 C601.2188,508.625 601.0781,508.3594 601.0781,508.1094 C601.0781,507.8125 601.2344,507.5313 601.4844,507.375 C601.6406,507.2656 601.7969,507.25 602.2031,507.25 L602.4531,507.25 Z "/><text fill="#000000" font-family="sans-serif" font-size="12" lengthAdjust="spacingAndGlyphs" textLength="206" x="614.5" y="508.1074">nonNegativityConstraintOperator</text><line style="stroke: #A80036; stroke-width: 1.5;" x1="586.5" x2="822.5" y1="519.9531" y2="519.9531"/><line style="stroke: #A80036; stroke-width: 1.5;" x1="586.5" x2="822.5" y1="527.9531" y2="527.9531"/><ellipse cx="596.5" cy="539.8555" fill="#84BE84" rx="3" ry="3" style="stroke: #038048; stroke-width: 1.0;"/><text fill="#000000" font-family="sans-serif" font-size="11" lengthAdjust="spacingAndGlyphs" textLength="194" x="605.5" y="542.1636">nonNegativityConstraintOperator()</text><!--class basicProx--><rect fill="#FEFECE" filter="url(#fz117ia)" height="60.8047" style="stroke: #A80036; stroke-width: 1.5;" width="92" x="435.5" y="118.4531"/><ellipse cx="450.5" cy="134.4531" fill="#E6FFE6" rx="11" ry="11" style="stroke: #A80036; stroke-width: 1.0;"/><path d="M452.0781,136.2656 L448.0313,136.2656 L447.6406,137.25 L448.0313,137.25 C448.4844,137.25 448.625,137.2813 448.7969,137.4063 C449.0156,137.5781 449.1406,137.8281 449.1406,138.1094 C449.1406,138.3906 449,138.6875 448.7344,138.8281 C448.6094,138.9219 448.3906,138.9531 448.0313,138.9531 L445.7656,138.9531 C445.0156,138.9531 444.6406,138.6719 444.6406,138.1094 C444.6406,137.8125 444.7969,137.5313 445.0469,137.375 C445.2031,137.2656 445.3594,137.25 445.7813,137.25 L448.4219,130.7344 L447.3438,130.7344 C446.9063,130.7344 446.7344,130.7031 446.5625,130.5938 C446.3438,130.4219 446.2031,130.1719 446.2031,129.8906 C446.2031,129.6094 446.3594,129.3281 446.6094,129.1563 C446.7656,129.0625 446.8906,129.0469 447.3438,129.0469 L451.0156,129.0469 L454.4063,137.25 C454.875,137.25 455.0313,137.2813 455.2031,137.4219 C455.4219,137.5781 455.5625,137.8281 455.5625,138.1094 C455.5625,138.3906 455.4063,138.6875 455.1563,138.8281 C455.0156,138.9219 454.7969,138.9531 454.4375,138.9531 L452.0781,138.9531 C451.6563,138.9531 451.4531,138.9063 451.3125,138.7813 C451.0938,138.625 450.9531,138.375 450.9531,138.1094 C450.9531,137.8125 451.1094,137.5313 451.3594,137.375 C451.5156,137.2656 451.625,137.25 452.0781,137.25 L452.4688,137.25 Z M451.375,134.5625 L450.0469,131.2969 L448.7031,134.5625 Z "/><text fill="#000000" font-family="sans-serif" font-size="12" lengthAdjust="spacingAndGlyphs" textLength="60" x="464.5" y="138.6074">basicProx</text><line style="stroke: #A80036; stroke-width: 1.5;" x1="436.5" x2="526.5" y1="150.4531" y2="150.4531"/><line style="stroke: #A80036; stroke-width: 1.5;" x1="436.5" x2="526.5" y1="158.4531" y2="158.4531"/><ellipse cx="446.5" cy="170.3555" fill="#84BE84" rx="3" ry="3" style="stroke: #038048; stroke-width: 1.0;"/><text fill="#000000" font-family="sans-serif" font-size="11" lengthAdjust="spacingAndGlyphs" textLength="63" x="455.5" y="172.6636">applyProx()</text><!--class constraintBoxDualized--><rect fill="#FEFECE" filter="url(#fz117ia)" height="99.2188" style="stroke: #A80036; stroke-width: 1.5;" width="170" x="396.5" y="328.9531"/><ellipse cx="411.5" cy="344.9531" fill="#E6FFE6" rx="11" ry="11" style="stroke: #A80036; stroke-width: 1.0;"/><path d="M413.4531,345.8594 L409.8125,345.8594 L409.8125,348.25 L410.0625,348.25 C410.5156,348.25 410.6875,348.2813 410.8281,348.4063 C411.0625,348.5781 411.1875,348.8281 411.1875,349.1094 C411.1875,349.3906 411.0313,349.6875 410.7813,349.8281 C410.6406,349.9219 410.4219,349.9531 410.0625,349.9531 L408.0156,349.9531 C407.6094,349.9531 407.3906,349.9063 407.2344,349.7969 C407.0313,349.625 406.8906,349.3594 406.8906,349.1094 C406.8906,348.8125 407.0469,348.5313 407.2969,348.375 C407.4531,348.2656 407.5938,348.25 408.0156,348.25 L408.1094,348.25 L408.1094,341.7344 C407.5469,341.6875 407.2344,341.3906 407.2344,340.8906 C407.2344,340.6094 407.3906,340.3125 407.6406,340.1563 C407.7969,340.0625 407.9219,340.0469 408.3594,340.0469 L410.0625,340.0469 C410.5313,340.0469 410.6875,340.0781 410.8281,340.1875 C411.0625,340.3594 411.1875,340.625 411.1875,340.8906 C411.1875,341.1875 411.0313,341.4688 410.7813,341.625 C410.625,341.7031 410.4844,341.7344 410.0625,341.7344 L409.8125,341.7344 L409.8125,344.1563 L413.4531,344.1563 L413.4531,341.7344 L413.2031,341.7344 C412.75,341.7344 412.6094,341.7031 412.4375,341.5938 C412.2188,341.4219 412.0781,341.1719 412.0781,340.8906 C412.0781,340.6094 412.2344,340.3125 412.4844,340.1563 C412.6406,340.0625 412.7656,340.0469 413.2031,340.0469 L414.9219,340.0469 C415.375,340.0469 415.5313,340.0781 415.7031,340.1875 C415.9063,340.3594 416.0313,340.625 416.0313,340.8906 C416.0313,341.3906 415.7188,341.6875 415.1563,341.7344 L415.1563,348.25 L415.25,348.25 C415.7188,348.25 415.8594,348.2813 416.0156,348.4063 C416.2344,348.5781 416.375,348.8281 416.375,349.1094 C416.375,349.3906 416.2188,349.6875 415.9688,349.8281 C415.8281,349.9219 415.6094,349.9531 415.25,349.9531 L413.2031,349.9531 C412.7969,349.9531 412.5938,349.9063 412.4375,349.7969 C412.2188,349.625 412.0781,349.3594 412.0781,349.1094 C412.0781,348.8125 412.2344,348.5313 412.4844,348.375 C412.6406,348.2656 412.7969,348.25 413.2031,348.25 L413.4531,348.25 Z "/><text fill="#000000" font-family="sans-serif" font-size="12" lengthAdjust="spacingAndGlyphs" textLength="138" x="425.5" y="349.1074">constraintBoxDualized</text><line style="stroke: #A80036; stroke-width: 1.5;" x1="397.5" x2="565.5" y1="360.9531" y2="360.9531"/><ellipse cx="407.5" cy="372.8555" fill="none" rx="3" ry="3" style="stroke: #038048; stroke-width: 1.0;"/><text fill="#000000" font-family="sans-serif" font-size="11" lengthAdjust="spacingAndGlyphs" textLength="41" x="416.5" y="375.1636">maxVal</text><ellipse cx="407.5" cy="385.6602" fill="none" rx="3" ry="3" style="stroke: #038048; stroke-width: 1.0;"/><text fill="#000000" font-family="sans-serif" font-size="11" lengthAdjust="spacingAndGlyphs" textLength="38" x="416.5" y="387.9683">minVal</text><line style="stroke: #A80036; stroke-width: 1.5;" x1="397.5" x2="565.5" y1="394.5625" y2="394.5625"/><ellipse cx="407.5" cy="406.4648" fill="#84BE84" rx="3" ry="3" style="stroke: #038048; stroke-width: 1.0;"/><text fill="#000000" font-family="sans-serif" font-size="11" lengthAdjust="spacingAndGlyphs" textLength="133" x="416.5" y="408.7729">constraintBoxDualized()</text><ellipse cx="407.5" cy="419.2695" fill="#84BE84" rx="3" ry="3" style="stroke: #038048; stroke-width: 1.0;"/><text fill="#000000" font-family="sans-serif" font-size="11" lengthAdjust="spacingAndGlyphs" textLength="63" x="416.5" y="421.5776">applyProx()</text><!--class basicDualizedDataterm--><rect fill="#FEFECE" filter="url(#fz117ia)" height="48" style="stroke: #A80036; stroke-width: 1.5;" width="176" x="185.5" y="354.4531"/><ellipse cx="200.5" cy="370.4531" fill="#ADD1B2" rx="11" ry="11" style="stroke: #A80036; stroke-width: 1.0;"/><path d="M202.8438,366.125 L203.0156,366.2031 C203.2344,365.8906 203.4375,365.7969 203.7344,365.7969 C204.0313,365.7969 204.3125,365.9375 204.4688,366.2031 C204.5625,366.3594 204.5781,366.4844 204.5781,366.9219 L204.5781,368.3438 C204.5781,368.7656 204.5469,368.9531 204.4375,369.1094 C204.2656,369.3281 204,369.4688 203.7344,369.4688 C203.5156,369.4688 203.2813,369.3594 203.1406,369.2188 C203,369.0938 202.9688,368.9688 202.9063,368.5625 C202.8125,368.1563 202.6406,367.9375 202.1563,367.6563 C201.6875,367.4063 201.0781,367.25 200.5,367.25 C198.7656,367.25 197.5156,368.5625 197.5156,370.3438 L197.5156,371.4375 C197.5156,373.1406 198.8125,374.2344 200.8594,374.2344 C201.625,374.2344 202.3125,374.1094 202.7344,373.8438 C202.9219,373.75 202.9219,373.75 203.375,373.2656 C203.5625,373.0781 203.7656,373 203.9844,373 C204.4531,373 204.8438,373.3906 204.8438,373.8438 C204.8438,374.2344 204.5156,374.6875 203.9375,375.0938 C203.1875,375.6406 202.0313,375.9375 200.8125,375.9375 C197.9219,375.9375 195.8125,374.0469 195.8125,371.4688 L195.8125,370.3438 C195.8125,367.625 197.8125,365.5469 200.4375,365.5469 C201.3125,365.5469 201.9063,365.6875 202.8438,366.125 Z "/><text fill="#000000" font-family="sans-serif" font-size="12" lengthAdjust="spacingAndGlyphs" textLength="144" x="214.5" y="374.6074">basicDualizedDataterm</text><line style="stroke: #A80036; stroke-width: 1.5;" x1="186.5" x2="360.5" y1="386.4531" y2="386.4531"/><line style="stroke: #A80036; stroke-width: 1.5;" x1="186.5" x2="360.5" y1="394.4531" y2="394.4531"/><path d="M227.283,414.6901 C197.624,437.3031 159.545,466.3361 131.431,487.7712 " fill="none" style="stroke: #A80036; stroke-width: 1.0;"/><polygon fill="none" points="223.056,409.1111,243.205,402.5511,231.544,420.2441,223.056,409.1111" style="stroke: #A80036; stroke-width: 1.0;"/><path d="M273.5,422.7441 C273.5,443.8021 273.5,468.5872 273.5,487.5198 " fill="none" style="stroke: #A80036; stroke-width: 1.0;"/><polygon fill="none" points="266.5,422.5511,273.5,402.5511,280.5,422.5511,266.5,422.5511" style="stroke: #A80036; stroke-width: 1.0;"/><path d="M391.302,439.2961 C365.948,456.1175 339.48,473.6777 318.07,487.8824 " fill="none" style="stroke: #A80036; stroke-width: 1.0;"/><polygon fill="none" points="387.631,433.3311,408.167,428.1071,395.371,444.9971,387.631,433.3311" style="stroke: #A80036; stroke-width: 1.0;"/><path d="M320.993,414.6901 C351.472,437.3031 390.603,466.3361 419.494,487.7712 " fill="none" style="stroke: #A80036; stroke-width: 1.0;"/><polygon fill="none" points="316.523,420.0901,304.632,402.5511,324.865,408.8461,316.523,420.0901" style="stroke: #A80036; stroke-width: 1.0;"/><path d="M470.541,448.1971 C468.325,462.0959 466.107,476.0084 464.247,487.6791 " fill="none" style="stroke: #A80036; stroke-width: 1.0;"/><polygon fill="none" points="463.682,446.7551,473.744,428.1071,477.508,448.9594,463.682,446.7551" style="stroke: #A80036; stroke-width: 1.0;"/><path d="M337.374,410.9861 C350.79,417.0331 364.976,423.0111 378.5,427.9531 C445.754,452.5276 522.945,474.006 585.328,489.7582 " fill="none" style="stroke: #A80036; stroke-width: 1.0;"/><polygon fill="none" points="334.265,417.2601,319.069,402.4931,340.158,404.5611,334.265,417.2601" style="stroke: #A80036; stroke-width: 1.0;"/><path d="M577.423,438.8131 C604.842,455.7811 633.542,473.5418 656.715,487.8824 " fill="none" style="stroke: #A80036; stroke-width: 1.0;"/><polygon fill="none" points="573.445,444.5841,560.121,428.1071,580.812,432.6791,573.445,444.5841" style="stroke: #A80036; stroke-width: 1.0;"/><path d="M481.5,199.8201 C481.5,238.0661 481.5,290.5711 481.5,328.5701 " fill="none" style="stroke: #A80036; stroke-width: 1.0;"/><polygon fill="none" points="474.5,199.6951,481.5,179.6951,488.5,199.6951,474.5,199.6951" style="stroke: #A80036; stroke-width: 1.0;"/></g></svg>