<?xml version="1.0" encoding="UTF-8" standalone="no"?><svg xmlns="http://www.w3.org/2000/svg" xmlns:xlink="http://www.w3.org/1999/xlink" contentScriptType="application/ecmascript" contentStyleType="text/css" height="666px" preserveAspectRatio="none" style="width:1488px;height:666px;" version="1.1" viewBox="0 0 1488 666" width="1488px" zoomAndPan="magnify"><defs><filter height="300%" id="fwtrdiv" width="300%" x="-1" y="-1"><feGaussianBlur result="blurOut" stdDeviation="2.0"/><feColorMatrix in="blurOut" result="blurOut2" type="matrix" values="0 0 0 0 0 0 0 0 0 0 0 0 0 0 0 0 0 0 .4 0"/><feOffset dx="4.0" dy="4.0" in="blurOut2" result="blurOut3"/><feBlend in="SourceGraphic" in2="blurOut3" mode="normal"/></filter></defs><g><text fill="#000000" font-family="sans-serif" font-size="18" font-weight="bold" lengthAdjust="spacingAndGlyphs" textLength="322" x="587.5" y="16.708">Regularizer Terms (vector field)</text><!--class basicTerm--><rect fill="#FEFECE" filter="url(#fwtrdiv)" height="240.0703" style="stroke: #A80036; stroke-width: 1.5;" width="96" x="1088.5" y="28.9531"/><ellipse cx="1103.5" cy="44.9531" fill="#E6FFE6" rx="11" ry="11" style="stroke: #A80036; stroke-width: 1.0;"/><path d="M1105.4531,45.8594 L1101.8125,45.8594 L1101.8125,48.25 L1102.0625,48.25 C1102.5156,48.25 1102.6875,48.2813 1102.8281,48.4063 C1103.0625,48.5781 1103.1875,48.8281 1103.1875,49.1094 C1103.1875,49.3906 1103.0313,49.6875 1102.7813,49.8281 C1102.6406,49.9219 1102.4219,49.9531 1102.0625,49.9531 L1100.0156,49.9531 C1099.6094,49.9531 1099.3906,49.9063 1099.2344,49.7969 C1099.0313,49.625 1098.8906,49.3594 1098.8906,49.1094 C1098.8906,48.8125 1099.0469,48.5313 1099.2969,48.375 C1099.4531,48.2656 1099.5938,48.25 1100.0156,48.25 L1100.1094,48.25 L1100.1094,41.7344 C1099.5469,41.6875 1099.2344,41.3906 1099.2344,40.8906 C1099.2344,40.6094 1099.3906,40.3125 1099.6406,40.1563 C1099.7969,40.0625 1099.9219,40.0469 1100.3594,40.0469 L1102.0625,40.0469 C1102.5313,40.0469 1102.6875,40.0781 1102.8281,40.1875 C1103.0625,40.3594 1103.1875,40.625 1103.1875,40.8906 C1103.1875,41.1875 1103.0313,41.4688 1102.7813,41.625 C1102.625,41.7031 1102.4844,41.7344 1102.0625,41.7344 L1101.8125,41.7344 L1101.8125,44.1563 L1105.4531,44.1563 L1105.4531,41.7344 L1105.2031,41.7344 C1104.75,41.7344 1104.6094,41.7031 1104.4375,41.5938 C1104.2188,41.4219 1104.0781,41.1719 1104.0781,40.8906 C1104.0781,40.6094 1104.2344,40.3125 1104.4844,40.1563 C1104.6406,40.0625 1104.7656,40.0469 1105.2031,40.0469 L1106.9219,40.0469 C1107.375,40.0469 1107.5313,40.0781 1107.7031,40.1875 C1107.9063,40.3594 1108.0313,40.625 1108.0313,40.8906 C1108.0313,41.3906 1107.7188,41.6875 1107.1563,41.7344 L1107.1563,48.25 L1107.25,48.25 C1107.7188,48.25 1107.8594,48.2813 1108.0156,48.4063 C1108.2344,48.5781 1108.375,48.8281 1108.375,49.1094 C1108.375,49.3906 1108.2188,49.6875 1107.9688,49.8281 C1107.8281,49.9219 1107.6094,49.9531 1107.25,49.9531 L1105.2031,49.9531 C1104.7969,49.9531 1104.5938,49.9063 1104.4375,49.7969 C1104.2188,49.625 1104.0781,49.3594 1104.0781,49.1094 C1104.0781,48.8125 1104.2344,48.5313 1104.4844,48.375 C1104.6406,48.2656 1104.7969,48.25 1105.2031,48.25 L1105.4531,48.25 Z "/><text fill="#000000" font-family="sans-serif" font-size="12" lengthAdjust="spacingAndGlyphs" textLength="64" x="1117.5" y="49.1074">basicTerm</text><line style="stroke: #A80036; stroke-width: 1.5;" x1="1089.5" x2="1183.5" y1="60.9531" y2="60.9531"/><text fill="#000000" font-family="sans-serif" font-size="11" lengthAdjust="spacingAndGlyphs" textLength="13" x="1108.5" y="75.1636">+f</text><ellipse cx="1099.5" cy="85.6602" fill="none" rx="3" ry="3" style="stroke: #038048; stroke-width: 1.0;"/><text fill="#000000" font-family="sans-serif" font-size="11" lengthAdjust="spacingAndGlyphs" textLength="33" x="1108.5" y="87.9683">factor</text><ellipse cx="1099.5" cy="98.4648" fill="none" rx="3" ry="3" style="stroke: #038048; stroke-width: 1.0;"/><text fill="#000000" font-family="sans-serif" font-size="11" lengthAdjust="spacingAndGlyphs" textLength="35" x="1108.5" y="100.7729">length</text><ellipse cx="1099.5" cy="111.2695" fill="none" rx="3" ry="3" style="stroke: #038048; stroke-width: 1.0;"/><text fill="#000000" font-family="sans-serif" font-size="11" lengthAdjust="spacingAndGlyphs" textLength="53" x="1108.5" y="113.5776">mySigma</text><ellipse cx="1099.5" cy="124.0742" fill="none" rx="3" ry="3" style="stroke: #038048; stroke-width: 1.0;"/><text fill="#000000" font-family="sans-serif" font-size="11" lengthAdjust="spacingAndGlyphs" textLength="38" x="1108.5" y="126.3823">myTau</text><ellipse cx="1099.5" cy="136.8789" fill="none" rx="3" ry="3" style="stroke: #038048; stroke-width: 1.0;"/><text fill="#000000" font-family="sans-serif" font-size="11" lengthAdjust="spacingAndGlyphs" textLength="68" x="1108.5" y="139.187">numPrimals</text><ellipse cx="1099.5" cy="149.6836" fill="none" rx="3" ry="3" style="stroke: #038048; stroke-width: 1.0;"/><text fill="#000000" font-family="sans-serif" font-size="11" lengthAdjust="spacingAndGlyphs" textLength="51" x="1108.5" y="151.9917">numVars</text><ellipse cx="1099.5" cy="162.4883" fill="none" rx="3" ry="3" style="stroke: #038048; stroke-width: 1.0;"/><text fill="#000000" font-family="sans-serif" font-size="11" lengthAdjust="spacingAndGlyphs" textLength="49" x="1108.5" y="164.7964">operator</text><ellipse cx="1099.5" cy="175.293" fill="none" rx="3" ry="3" style="stroke: #038048; stroke-width: 1.0;"/><text fill="#000000" font-family="sans-serif" font-size="11" lengthAdjust="spacingAndGlyphs" textLength="56" x="1108.5" y="177.6011">operatorT</text><line style="stroke: #A80036; stroke-width: 1.5;" x1="1089.5" x2="1183.5" y1="184.1953" y2="184.1953"/><ellipse cx="1099.5" cy="196.0977" fill="#84BE84" rx="3" ry="3" style="stroke: #038048; stroke-width: 1.0;"/><text fill="#000000" font-family="sans-serif" font-size="11" lengthAdjust="spacingAndGlyphs" textLength="68" x="1108.5" y="198.4058">basicTerm()</text><ellipse cx="1099.5" cy="208.9023" fill="#84BE84" rx="3" ry="3" style="stroke: #038048; stroke-width: 1.0;"/><text fill="#000000" font-family="sans-serif" font-size="11" lengthAdjust="spacingAndGlyphs" textLength="25" x="1108.5" y="211.2104">init()</text><ellipse cx="1099.5" cy="221.707" fill="#84BE84" rx="3" ry="3" style="stroke: #038048; stroke-width: 1.0;"/><text fill="#000000" font-family="sans-serif" font-size="11" lengthAdjust="spacingAndGlyphs" textLength="43" x="1108.5" y="224.0151">xError()</text><ellipse cx="1099.5" cy="234.5117" fill="#84BE84" rx="3" ry="3" style="stroke: #038048; stroke-width: 1.0;"/><text fill="#000000" font-family="sans-serif" font-size="11" lengthAdjust="spacingAndGlyphs" textLength="41" x="1108.5" y="236.8198">xTilde()</text><ellipse cx="1099.5" cy="247.3164" fill="#84BE84" rx="3" ry="3" style="stroke: #038048; stroke-width: 1.0;"/><text fill="#000000" font-family="sans-serif" font-size="11" lengthAdjust="spacingAndGlyphs" textLength="43" x="1108.5" y="249.6245">yError()</text><ellipse cx="1099.5" cy="260.1211" fill="#84BE84" rx="3" ry="3" style="stroke: #038048; stroke-width: 1.0;"/><text fill="#000000" font-family="sans-serif" font-size="11" lengthAdjust="spacingAndGlyphs" textLength="41" x="1108.5" y="262.4292">yTilde()</text><!--class basicDualizedOperator--><rect fill="#FEFECE" filter="url(#fwtrdiv)" height="60.8047" style="stroke: #A80036; stroke-width: 1.5;" width="173" x="879" y="328.9531"/><ellipse cx="894" cy="344.9531" fill="#E6FFE6" rx="11" ry="11" style="stroke: #A80036; stroke-width: 1.0;"/><path d="M895.9531,345.8594 L892.3125,345.8594 L892.3125,348.25 L892.5625,348.25 C893.0156,348.25 893.1875,348.2813 893.3281,348.4063 C893.5625,348.5781 893.6875,348.8281 893.6875,349.1094 C893.6875,349.3906 893.5313,349.6875 893.2813,349.8281 C893.1406,349.9219 892.9219,349.9531 892.5625,349.9531 L890.5156,349.9531 C890.1094,349.9531 889.8906,349.9063 889.7344,349.7969 C889.5313,349.625 889.3906,349.3594 889.3906,349.1094 C889.3906,348.8125 889.5469,348.5313 889.7969,348.375 C889.9531,348.2656 890.0938,348.25 890.5156,348.25 L890.6094,348.25 L890.6094,341.7344 C890.0469,341.6875 889.7344,341.3906 889.7344,340.8906 C889.7344,340.6094 889.8906,340.3125 890.1406,340.1563 C890.2969,340.0625 890.4219,340.0469 890.8594,340.0469 L892.5625,340.0469 C893.0313,340.0469 893.1875,340.0781 893.3281,340.1875 C893.5625,340.3594 893.6875,340.625 893.6875,340.8906 C893.6875,341.1875 893.5313,341.4688 893.2813,341.625 C893.125,341.7031 892.9844,341.7344 892.5625,341.7344 L892.3125,341.7344 L892.3125,344.1563 L895.9531,344.1563 L895.9531,341.7344 L895.7031,341.7344 C895.25,341.7344 895.1094,341.7031 894.9375,341.5938 C894.7188,341.4219 894.5781,341.1719 894.5781,340.8906 C894.5781,340.6094 894.7344,340.3125 894.9844,340.1563 C895.1406,340.0625 895.2656,340.0469 895.7031,340.0469 L897.4219,340.0469 C897.875,340.0469 898.0313,340.0781 898.2031,340.1875 C898.4063,340.3594 898.5313,340.625 898.5313,340.8906 C898.5313,341.3906 898.2188,341.6875 897.6563,341.7344 L897.6563,348.25 L897.75,348.25 C898.2188,348.25 898.3594,348.2813 898.5156,348.4063 C898.7344,348.5781 898.875,348.8281 898.875,349.1094 C898.875,349.3906 898.7188,349.6875 898.4688,349.8281 C898.3281,349.9219 898.1094,349.9531 897.75,349.9531 L895.7031,349.9531 C895.2969,349.9531 895.0938,349.9063 894.9375,349.7969 C894.7188,349.625 894.5781,349.3594 894.5781,349.1094 C894.5781,348.8125 894.7344,348.5313 894.9844,348.375 C895.1406,348.2656 895.2969,348.25 895.7031,348.25 L895.9531,348.25 Z "/><text fill="#000000" font-family="sans-serif" font-size="12" lengthAdjust="spacingAndGlyphs" textLength="141" x="908" y="349.1074">basicDualizedOperator</text><line style="stroke: #A80036; stroke-width: 1.5;" x1="880" x2="1051" y1="360.9531" y2="360.9531"/><line style="stroke: #A80036; stroke-width: 1.5;" x1="880" x2="1051" y1="368.9531" y2="368.9531"/><ellipse cx="890" cy="380.8555" fill="#84BE84" rx="3" ry="3" style="stroke: #038048; stroke-width: 1.0;"/><text fill="#000000" font-family="sans-serif" font-size="11" lengthAdjust="spacingAndGlyphs" textLength="136" x="899" y="383.1636">basicDualizedOperator()</text><!--class basicCurl--><rect fill="#FEFECE" filter="url(#fwtrdiv)" height="60.8047" style="stroke: #A80036; stroke-width: 1.5;" width="89" x="258" y="456.4531"/><ellipse cx="273" cy="472.4531" fill="#E6FFE6" rx="11" ry="11" style="stroke: #A80036; stroke-width: 1.0;"/><path d="M274.9531,473.3594 L271.3125,473.3594 L271.3125,475.75 L271.5625,475.75 C272.0156,475.75 272.1875,475.7813 272.3281,475.9063 C272.5625,476.0781 272.6875,476.3281 272.6875,476.6094 C272.6875,476.8906 272.5313,477.1875 272.2813,477.3281 C272.1406,477.4219 271.9219,477.4531 271.5625,477.4531 L269.5156,477.4531 C269.1094,477.4531 268.8906,477.4063 268.7344,477.2969 C268.5313,477.125 268.3906,476.8594 268.3906,476.6094 C268.3906,476.3125 268.5469,476.0313 268.7969,475.875 C268.9531,475.7656 269.0938,475.75 269.5156,475.75 L269.6094,475.75 L269.6094,469.2344 C269.0469,469.1875 268.7344,468.8906 268.7344,468.3906 C268.7344,468.1094 268.8906,467.8125 269.1406,467.6563 C269.2969,467.5625 269.4219,467.5469 269.8594,467.5469 L271.5625,467.5469 C272.0313,467.5469 272.1875,467.5781 272.3281,467.6875 C272.5625,467.8594 272.6875,468.125 272.6875,468.3906 C272.6875,468.6875 272.5313,468.9688 272.2813,469.125 C272.125,469.2031 271.9844,469.2344 271.5625,469.2344 L271.3125,469.2344 L271.3125,471.6563 L274.9531,471.6563 L274.9531,469.2344 L274.7031,469.2344 C274.25,469.2344 274.1094,469.2031 273.9375,469.0938 C273.7188,468.9219 273.5781,468.6719 273.5781,468.3906 C273.5781,468.1094 273.7344,467.8125 273.9844,467.6563 C274.1406,467.5625 274.2656,467.5469 274.7031,467.5469 L276.4219,467.5469 C276.875,467.5469 277.0313,467.5781 277.2031,467.6875 C277.4063,467.8594 277.5313,468.125 277.5313,468.3906 C277.5313,468.8906 277.2188,469.1875 276.6563,469.2344 L276.6563,475.75 L276.75,475.75 C277.2188,475.75 277.3594,475.7813 277.5156,475.9063 C277.7344,476.0781 277.875,476.3281 277.875,476.6094 C277.875,476.8906 277.7188,477.1875 277.4688,477.3281 C277.3281,477.4219 277.1094,477.4531 276.75,477.4531 L274.7031,477.4531 C274.2969,477.4531 274.0938,477.4063 273.9375,477.2969 C273.7188,477.125 273.5781,476.8594 273.5781,476.6094 C273.5781,476.3125 273.7344,476.0313 273.9844,475.875 C274.1406,475.7656 274.2969,475.75 274.7031,475.75 L274.9531,475.75 Z "/><text fill="#000000" font-family="sans-serif" font-size="12" lengthAdjust="spacingAndGlyphs" textLength="57" x="287" y="476.6074">basicCurl</text><line style="stroke: #A80036; stroke-width: 1.5;" x1="259" x2="346" y1="488.4531" y2="488.4531"/><line style="stroke: #A80036; stroke-width: 1.5;" x1="259" x2="346" y1="496.4531" y2="496.4531"/><ellipse cx="269" cy="508.3555" fill="#84BE84" rx="3" ry="3" style="stroke: #038048; stroke-width: 1.0;"/><text fill="#000000" font-family="sans-serif" font-size="11" lengthAdjust="spacingAndGlyphs" textLength="61" x="278" y="510.6636">basicCurl()</text><!--class basicDivAnticurl--><rect fill="#FEFECE" filter="url(#fwtrdiv)" height="60.8047" style="stroke: #A80036; stroke-width: 1.5;" width="130" x="1206.5" y="456.4531"/><ellipse cx="1221.5" cy="472.4531" fill="#E6FFE6" rx="11" ry="11" style="stroke: #A80036; stroke-width: 1.0;"/><path d="M1223.4531,473.3594 L1219.8125,473.3594 L1219.8125,475.75 L1220.0625,475.75 C1220.5156,475.75 1220.6875,475.7813 1220.8281,475.9063 C1221.0625,476.0781 1221.1875,476.3281 1221.1875,476.6094 C1221.1875,476.8906 1221.0313,477.1875 1220.7813,477.3281 C1220.6406,477.4219 1220.4219,477.4531 1220.0625,477.4531 L1218.0156,477.4531 C1217.6094,477.4531 1217.3906,477.4063 1217.2344,477.2969 C1217.0313,477.125 1216.8906,476.8594 1216.8906,476.6094 C1216.8906,476.3125 1217.0469,476.0313 1217.2969,475.875 C1217.4531,475.7656 1217.5938,475.75 1218.0156,475.75 L1218.1094,475.75 L1218.1094,469.2344 C1217.5469,469.1875 1217.2344,468.8906 1217.2344,468.3906 C1217.2344,468.1094 1217.3906,467.8125 1217.6406,467.6563 C1217.7969,467.5625 1217.9219,467.5469 1218.3594,467.5469 L1220.0625,467.5469 C1220.5313,467.5469 1220.6875,467.5781 1220.8281,467.6875 C1221.0625,467.8594 1221.1875,468.125 1221.1875,468.3906 C1221.1875,468.6875 1221.0313,468.9688 1220.7813,469.125 C1220.625,469.2031 1220.4844,469.2344 1220.0625,469.2344 L1219.8125,469.2344 L1219.8125,471.6563 L1223.4531,471.6563 L1223.4531,469.2344 L1223.2031,469.2344 C1222.75,469.2344 1222.6094,469.2031 1222.4375,469.0938 C1222.2188,468.9219 1222.0781,468.6719 1222.0781,468.3906 C1222.0781,468.1094 1222.2344,467.8125 1222.4844,467.6563 C1222.6406,467.5625 1222.7656,467.5469 1223.2031,467.5469 L1224.9219,467.5469 C1225.375,467.5469 1225.5313,467.5781 1225.7031,467.6875 C1225.9063,467.8594 1226.0313,468.125 1226.0313,468.3906 C1226.0313,468.8906 1225.7188,469.1875 1225.1563,469.2344 L1225.1563,475.75 L1225.25,475.75 C1225.7188,475.75 1225.8594,475.7813 1226.0156,475.9063 C1226.2344,476.0781 1226.375,476.3281 1226.375,476.6094 C1226.375,476.8906 1226.2188,477.1875 1225.9688,477.3281 C1225.8281,477.4219 1225.6094,477.4531 1225.25,477.4531 L1223.2031,477.4531 C1222.7969,477.4531 1222.5938,477.4063 1222.4375,477.2969 C1222.2188,477.125 1222.0781,476.8594 1222.0781,476.6094 C1222.0781,476.3125 1222.2344,476.0313 1222.4844,475.875 C1222.6406,475.7656 1222.7969,475.75 1223.2031,475.75 L1223.4531,475.75 Z "/><text fill="#000000" font-family="sans-serif" font-size="12" lengthAdjust="spacingAndGlyphs" textLength="98" x="1235.5" y="476.6074">basicDivAnticurl</text><line style="stroke: #A80036; stroke-width: 1.5;" x1="1207.5" x2="1335.5" y1="488.4531" y2="488.4531"/><line style="stroke: #A80036; stroke-width: 1.5;" x1="1207.5" x2="1335.5" y1="496.4531" y2="496.4531"/><ellipse cx="1217.5" cy="508.3555" fill="#84BE84" rx="3" ry="3" style="stroke: #038048; stroke-width: 1.0;"/><text fill="#000000" font-family="sans-serif" font-size="11" lengthAdjust="spacingAndGlyphs" textLength="97" x="1226.5" y="510.6636">basicDivAnticurl()</text><!--class basicDivCurl--><rect fill="#FEFECE" filter="url(#fwtrdiv)" height="60.8047" style="stroke: #A80036; stroke-width: 1.5;" width="107" x="1372" y="456.4531"/><ellipse cx="1387" cy="472.4531" fill="#E6FFE6" rx="11" ry="11" style="stroke: #A80036; stroke-width: 1.0;"/><path d="M1388.9531,473.3594 L1385.3125,473.3594 L1385.3125,475.75 L1385.5625,475.75 C1386.0156,475.75 1386.1875,475.7813 1386.3281,475.9063 C1386.5625,476.0781 1386.6875,476.3281 1386.6875,476.6094 C1386.6875,476.8906 1386.5313,477.1875 1386.2813,477.3281 C1386.1406,477.4219 1385.9219,477.4531 1385.5625,477.4531 L1383.5156,477.4531 C1383.1094,477.4531 1382.8906,477.4063 1382.7344,477.2969 C1382.5313,477.125 1382.3906,476.8594 1382.3906,476.6094 C1382.3906,476.3125 1382.5469,476.0313 1382.7969,475.875 C1382.9531,475.7656 1383.0938,475.75 1383.5156,475.75 L1383.6094,475.75 L1383.6094,469.2344 C1383.0469,469.1875 1382.7344,468.8906 1382.7344,468.3906 C1382.7344,468.1094 1382.8906,467.8125 1383.1406,467.6563 C1383.2969,467.5625 1383.4219,467.5469 1383.8594,467.5469 L1385.5625,467.5469 C1386.0313,467.5469 1386.1875,467.5781 1386.3281,467.6875 C1386.5625,467.8594 1386.6875,468.125 1386.6875,468.3906 C1386.6875,468.6875 1386.5313,468.9688 1386.2813,469.125 C1386.125,469.2031 1385.9844,469.2344 1385.5625,469.2344 L1385.3125,469.2344 L1385.3125,471.6563 L1388.9531,471.6563 L1388.9531,469.2344 L1388.7031,469.2344 C1388.25,469.2344 1388.1094,469.2031 1387.9375,469.0938 C1387.7188,468.9219 1387.5781,468.6719 1387.5781,468.3906 C1387.5781,468.1094 1387.7344,467.8125 1387.9844,467.6563 C1388.1406,467.5625 1388.2656,467.5469 1388.7031,467.5469 L1390.4219,467.5469 C1390.875,467.5469 1391.0313,467.5781 1391.2031,467.6875 C1391.4063,467.8594 1391.5313,468.125 1391.5313,468.3906 C1391.5313,468.8906 1391.2188,469.1875 1390.6563,469.2344 L1390.6563,475.75 L1390.75,475.75 C1391.2188,475.75 1391.3594,475.7813 1391.5156,475.9063 C1391.7344,476.0781 1391.875,476.3281 1391.875,476.6094 C1391.875,476.8906 1391.7188,477.1875 1391.4688,477.3281 C1391.3281,477.4219 1391.1094,477.4531 1390.75,477.4531 L1388.7031,477.4531 C1388.2969,477.4531 1388.0938,477.4063 1387.9375,477.2969 C1387.7188,477.125 1387.5781,476.8594 1387.5781,476.6094 C1387.5781,476.3125 1387.7344,476.0313 1387.9844,475.875 C1388.1406,475.7656 1388.2969,475.75 1388.7031,475.75 L1388.9531,475.75 Z "/><text fill="#000000" font-family="sans-serif" font-size="12" lengthAdjust="spacingAndGlyphs" textLength="75" x="1401" y="476.6074">basicDivCurl</text><line style="stroke: #A80036; stroke-width: 1.5;" x1="1373" x2="1478" y1="488.4531" y2="488.4531"/><line style="stroke: #A80036; stroke-width: 1.5;" x1="1373" x2="1478" y1="496.4531" y2="496.4531"/><ellipse cx="1383" cy="508.3555" fill="#84BE84" rx="3" ry="3" style="stroke: #038048; stroke-width: 1.0;"/><text fill="#000000" font-family="sans-serif" font-size="11" lengthAdjust="spacingAndGlyphs" textLength="78" x="1392" y="510.6636">basicDivCurl()</text><!--class basicDivergence--><rect fill="#FEFECE" filter="url(#fwtrdiv)" height="60.8047" style="stroke: #A80036; stroke-width: 1.5;" width="135" x="716" y="456.4531"/><ellipse cx="731" cy="472.4531" fill="#E6FFE6" rx="11" ry="11" style="stroke: #A80036; stroke-width: 1.0;"/><path d="M732.9531,473.3594 L729.3125,473.3594 L729.3125,475.75 L729.5625,475.75 C730.0156,475.75 730.1875,475.7813 730.3281,475.9063 C730.5625,476.0781 730.6875,476.3281 730.6875,476.6094 C730.6875,476.8906 730.5313,477.1875 730.2813,477.3281 C730.1406,477.4219 729.9219,477.4531 729.5625,477.4531 L727.5156,477.4531 C727.1094,477.4531 726.8906,477.4063 726.7344,477.2969 C726.5313,477.125 726.3906,476.8594 726.3906,476.6094 C726.3906,476.3125 726.5469,476.0313 726.7969,475.875 C726.9531,475.7656 727.0938,475.75 727.5156,475.75 L727.6094,475.75 L727.6094,469.2344 C727.0469,469.1875 726.7344,468.8906 726.7344,468.3906 C726.7344,468.1094 726.8906,467.8125 727.1406,467.6563 C727.2969,467.5625 727.4219,467.5469 727.8594,467.5469 L729.5625,467.5469 C730.0313,467.5469 730.1875,467.5781 730.3281,467.6875 C730.5625,467.8594 730.6875,468.125 730.6875,468.3906 C730.6875,468.6875 730.5313,468.9688 730.2813,469.125 C730.125,469.2031 729.9844,469.2344 729.5625,469.2344 L729.3125,469.2344 L729.3125,471.6563 L732.9531,471.6563 L732.9531,469.2344 L732.7031,469.2344 C732.25,469.2344 732.1094,469.2031 731.9375,469.0938 C731.7188,468.9219 731.5781,468.6719 731.5781,468.3906 C731.5781,468.1094 731.7344,467.8125 731.9844,467.6563 C732.1406,467.5625 732.2656,467.5469 732.7031,467.5469 L734.4219,467.5469 C734.875,467.5469 735.0313,467.5781 735.2031,467.6875 C735.4063,467.8594 735.5313,468.125 735.5313,468.3906 C735.5313,468.8906 735.2188,469.1875 734.6563,469.2344 L734.6563,475.75 L734.75,475.75 C735.2188,475.75 735.3594,475.7813 735.5156,475.9063 C735.7344,476.0781 735.875,476.3281 735.875,476.6094 C735.875,476.8906 735.7188,477.1875 735.4688,477.3281 C735.3281,477.4219 735.1094,477.4531 734.75,477.4531 L732.7031,477.4531 C732.2969,477.4531 732.0938,477.4063 731.9375,477.2969 C731.7188,477.125 731.5781,476.8594 731.5781,476.6094 C731.5781,476.3125 731.7344,476.0313 731.9844,475.875 C732.1406,475.7656 732.2969,475.75 732.7031,475.75 L732.9531,475.75 Z "/><text fill="#000000" font-family="sans-serif" font-size="12" lengthAdjust="spacingAndGlyphs" textLength="103" x="745" y="476.6074">basicDivergence</text><line style="stroke: #A80036; stroke-width: 1.5;" x1="717" x2="850" y1="488.4531" y2="488.4531"/><line style="stroke: #A80036; stroke-width: 1.5;" x1="717" x2="850" y1="496.4531" y2="496.4531"/><ellipse cx="727" cy="508.3555" fill="#84BE84" rx="3" ry="3" style="stroke: #038048; stroke-width: 1.0;"/><text fill="#000000" font-family="sans-serif" font-size="11" lengthAdjust="spacingAndGlyphs" textLength="101" x="736" y="510.6636">basicDivergence()</text><!--class basicShear--><rect fill="#FEFECE" filter="url(#fwtrdiv)" height="60.8047" style="stroke: #A80036; stroke-width: 1.5;" width="102" x="914.5" y="456.4531"/><ellipse cx="929.5" cy="472.4531" fill="#E6FFE6" rx="11" ry="11" style="stroke: #A80036; stroke-width: 1.0;"/><path d="M931.4531,473.3594 L927.8125,473.3594 L927.8125,475.75 L928.0625,475.75 C928.5156,475.75 928.6875,475.7813 928.8281,475.9063 C929.0625,476.0781 929.1875,476.3281 929.1875,476.6094 C929.1875,476.8906 929.0313,477.1875 928.7813,477.3281 C928.6406,477.4219 928.4219,477.4531 928.0625,477.4531 L926.0156,477.4531 C925.6094,477.4531 925.3906,477.4063 925.2344,477.2969 C925.0313,477.125 924.8906,476.8594 924.8906,476.6094 C924.8906,476.3125 925.0469,476.0313 925.2969,475.875 C925.4531,475.7656 925.5938,475.75 926.0156,475.75 L926.1094,475.75 L926.1094,469.2344 C925.5469,469.1875 925.2344,468.8906 925.2344,468.3906 C925.2344,468.1094 925.3906,467.8125 925.6406,467.6563 C925.7969,467.5625 925.9219,467.5469 926.3594,467.5469 L928.0625,467.5469 C928.5313,467.5469 928.6875,467.5781 928.8281,467.6875 C929.0625,467.8594 929.1875,468.125 929.1875,468.3906 C929.1875,468.6875 929.0313,468.9688 928.7813,469.125 C928.625,469.2031 928.4844,469.2344 928.0625,469.2344 L927.8125,469.2344 L927.8125,471.6563 L931.4531,471.6563 L931.4531,469.2344 L931.2031,469.2344 C930.75,469.2344 930.6094,469.2031 930.4375,469.0938 C930.2188,468.9219 930.0781,468.6719 930.0781,468.3906 C930.0781,468.1094 930.2344,467.8125 930.4844,467.6563 C930.6406,467.5625 930.7656,467.5469 931.2031,467.5469 L932.9219,467.5469 C933.375,467.5469 933.5313,467.5781 933.7031,467.6875 C933.9063,467.8594 934.0313,468.125 934.0313,468.3906 C934.0313,468.8906 933.7188,469.1875 933.1563,469.2344 L933.1563,475.75 L933.25,475.75 C933.7188,475.75 933.8594,475.7813 934.0156,475.9063 C934.2344,476.0781 934.375,476.3281 934.375,476.6094 C934.375,476.8906 934.2188,477.1875 933.9688,477.3281 C933.8281,477.4219 933.6094,477.4531 933.25,477.4531 L931.2031,477.4531 C930.7969,477.4531 930.5938,477.4063 930.4375,477.2969 C930.2188,477.125 930.0781,476.8594 930.0781,476.6094 C930.0781,476.3125 930.2344,476.0313 930.4844,475.875 C930.6406,475.7656 930.7969,475.75 931.2031,475.75 L931.4531,475.75 Z "/><text fill="#000000" font-family="sans-serif" font-size="12" lengthAdjust="spacingAndGlyphs" textLength="70" x="943.5" y="476.6074">basicShear</text><line style="stroke: #A80036; stroke-width: 1.5;" x1="915.5" x2="1015.5" y1="488.4531" y2="488.4531"/><line style="stroke: #A80036; stroke-width: 1.5;" x1="915.5" x2="1015.5" y1="496.4531" y2="496.4531"/><ellipse cx="925.5" cy="508.3555" fill="#84BE84" rx="3" ry="3" style="stroke: #038048; stroke-width: 1.0;"/><text fill="#000000" font-family="sans-serif" font-size="11" lengthAdjust="spacingAndGlyphs" textLength="72" x="934.5" y="510.6636">basicShear()</text><!--class L1curl--><rect fill="#FEFECE" filter="url(#fwtrdiv)" height="60.8047" style="stroke: #A80036; stroke-width: 1.5;" width="69" x="6" y="590.4531"/><ellipse cx="21" cy="606.4531" fill="#E6FFE6" rx="11" ry="11" style="stroke: #A80036; stroke-width: 1.0;"/><path d="M22.9531,607.3594 L19.3125,607.3594 L19.3125,609.75 L19.5625,609.75 C20.0156,609.75 20.1875,609.7813 20.3281,609.9063 C20.5625,610.0781 20.6875,610.3281 20.6875,610.6094 C20.6875,610.8906 20.5313,611.1875 20.2813,611.3281 C20.1406,611.4219 19.9219,611.4531 19.5625,611.4531 L17.5156,611.4531 C17.1094,611.4531 16.8906,611.4063 16.7344,611.2969 C16.5313,611.125 16.3906,610.8594 16.3906,610.6094 C16.3906,610.3125 16.5469,610.0313 16.7969,609.875 C16.9531,609.7656 17.0938,609.75 17.5156,609.75 L17.6094,609.75 L17.6094,603.2344 C17.0469,603.1875 16.7344,602.8906 16.7344,602.3906 C16.7344,602.1094 16.8906,601.8125 17.1406,601.6563 C17.2969,601.5625 17.4219,601.5469 17.8594,601.5469 L19.5625,601.5469 C20.0313,601.5469 20.1875,601.5781 20.3281,601.6875 C20.5625,601.8594 20.6875,602.125 20.6875,602.3906 C20.6875,602.6875 20.5313,602.9688 20.2813,603.125 C20.125,603.2031 19.9844,603.2344 19.5625,603.2344 L19.3125,603.2344 L19.3125,605.6563 L22.9531,605.6563 L22.9531,603.2344 L22.7031,603.2344 C22.25,603.2344 22.1094,603.2031 21.9375,603.0938 C21.7188,602.9219 21.5781,602.6719 21.5781,602.3906 C21.5781,602.1094 21.7344,601.8125 21.9844,601.6563 C22.1406,601.5625 22.2656,601.5469 22.7031,601.5469 L24.4219,601.5469 C24.875,601.5469 25.0313,601.5781 25.2031,601.6875 C25.4063,601.8594 25.5313,602.125 25.5313,602.3906 C25.5313,602.8906 25.2188,603.1875 24.6563,603.2344 L24.6563,609.75 L24.75,609.75 C25.2188,609.75 25.3594,609.7813 25.5156,609.9063 C25.7344,610.0781 25.875,610.3281 25.875,610.6094 C25.875,610.8906 25.7188,611.1875 25.4688,611.3281 C25.3281,611.4219 25.1094,611.4531 24.75,611.4531 L22.7031,611.4531 C22.2969,611.4531 22.0938,611.4063 21.9375,611.2969 C21.7188,611.125 21.5781,610.8594 21.5781,610.6094 C21.5781,610.3125 21.7344,610.0313 21.9844,609.875 C22.1406,609.7656 22.2969,609.75 22.7031,609.75 L22.9531,609.75 Z "/><text fill="#000000" font-family="sans-serif" font-size="12" lengthAdjust="spacingAndGlyphs" textLength="37" x="35" y="610.6074">L1curl</text><line style="stroke: #A80036; stroke-width: 1.5;" x1="7" x2="74" y1="622.4531" y2="622.4531"/><line style="stroke: #A80036; stroke-width: 1.5;" x1="7" x2="74" y1="630.4531" y2="630.4531"/><ellipse cx="17" cy="642.3555" fill="#84BE84" rx="3" ry="3" style="stroke: #038048; stroke-width: 1.0;"/><text fill="#000000" font-family="sans-serif" font-size="11" lengthAdjust="spacingAndGlyphs" textLength="42" x="26" y="644.6636">L1curl()</text><!--class L1curlPlus--><rect fill="#FEFECE" filter="url(#fwtrdiv)" height="60.8047" style="stroke: #A80036; stroke-width: 1.5;" width="95" x="110" y="590.4531"/><ellipse cx="125" cy="606.4531" fill="#E6FFE6" rx="11" ry="11" style="stroke: #A80036; stroke-width: 1.0;"/><path d="M126.9531,607.3594 L123.3125,607.3594 L123.3125,609.75 L123.5625,609.75 C124.0156,609.75 124.1875,609.7813 124.3281,609.9063 C124.5625,610.0781 124.6875,610.3281 124.6875,610.6094 C124.6875,610.8906 124.5313,611.1875 124.2813,611.3281 C124.1406,611.4219 123.9219,611.4531 123.5625,611.4531 L121.5156,611.4531 C121.1094,611.4531 120.8906,611.4063 120.7344,611.2969 C120.5313,611.125 120.3906,610.8594 120.3906,610.6094 C120.3906,610.3125 120.5469,610.0313 120.7969,609.875 C120.9531,609.7656 121.0938,609.75 121.5156,609.75 L121.6094,609.75 L121.6094,603.2344 C121.0469,603.1875 120.7344,602.8906 120.7344,602.3906 C120.7344,602.1094 120.8906,601.8125 121.1406,601.6563 C121.2969,601.5625 121.4219,601.5469 121.8594,601.5469 L123.5625,601.5469 C124.0313,601.5469 124.1875,601.5781 124.3281,601.6875 C124.5625,601.8594 124.6875,602.125 124.6875,602.3906 C124.6875,602.6875 124.5313,602.9688 124.2813,603.125 C124.125,603.2031 123.9844,603.2344 123.5625,603.2344 L123.3125,603.2344 L123.3125,605.6563 L126.9531,605.6563 L126.9531,603.2344 L126.7031,603.2344 C126.25,603.2344 126.1094,603.2031 125.9375,603.0938 C125.7188,602.9219 125.5781,602.6719 125.5781,602.3906 C125.5781,602.1094 125.7344,601.8125 125.9844,601.6563 C126.1406,601.5625 126.2656,601.5469 126.7031,601.5469 L128.4219,601.5469 C128.875,601.5469 129.0313,601.5781 129.2031,601.6875 C129.4063,601.8594 129.5313,602.125 129.5313,602.3906 C129.5313,602.8906 129.2188,603.1875 128.6563,603.2344 L128.6563,609.75 L128.75,609.75 C129.2188,609.75 129.3594,609.7813 129.5156,609.9063 C129.7344,610.0781 129.875,610.3281 129.875,610.6094 C129.875,610.8906 129.7188,611.1875 129.4688,611.3281 C129.3281,611.4219 129.1094,611.4531 128.75,611.4531 L126.7031,611.4531 C126.2969,611.4531 126.0938,611.4063 125.9375,611.2969 C125.7188,611.125 125.5781,610.8594 125.5781,610.6094 C125.5781,610.3125 125.7344,610.0313 125.9844,609.875 C126.1406,609.7656 126.2969,609.75 126.7031,609.75 L126.9531,609.75 Z "/><text fill="#000000" font-family="sans-serif" font-size="12" lengthAdjust="spacingAndGlyphs" textLength="63" x="139" y="610.6074">L1curlPlus</text><line style="stroke: #A80036; stroke-width: 1.5;" x1="111" x2="204" y1="622.4531" y2="622.4531"/><line style="stroke: #A80036; stroke-width: 1.5;" x1="111" x2="204" y1="630.4531" y2="630.4531"/><ellipse cx="121" cy="642.3555" fill="#84BE84" rx="3" ry="3" style="stroke: #038048; stroke-width: 1.0;"/><text fill="#000000" font-family="sans-serif" font-size="11" lengthAdjust="spacingAndGlyphs" textLength="66" x="130" y="644.6636">L1curlPlus()</text><!--class L1curlSwitched--><rect fill="#FEFECE" filter="url(#fwtrdiv)" height="60.8047" style="stroke: #A80036; stroke-width: 1.5;" width="125" x="240" y="590.4531"/><ellipse cx="255" cy="606.4531" fill="#E6FFE6" rx="11" ry="11" style="stroke: #A80036; stroke-width: 1.0;"/><path d="M256.9531,607.3594 L253.3125,607.3594 L253.3125,609.75 L253.5625,609.75 C254.0156,609.75 254.1875,609.7813 254.3281,609.9063 C254.5625,610.0781 254.6875,610.3281 254.6875,610.6094 C254.6875,610.8906 254.5313,611.1875 254.2813,611.3281 C254.1406,611.4219 253.9219,611.4531 253.5625,611.4531 L251.5156,611.4531 C251.1094,611.4531 250.8906,611.4063 250.7344,611.2969 C250.5313,611.125 250.3906,610.8594 250.3906,610.6094 C250.3906,610.3125 250.5469,610.0313 250.7969,609.875 C250.9531,609.7656 251.0938,609.75 251.5156,609.75 L251.6094,609.75 L251.6094,603.2344 C251.0469,603.1875 250.7344,602.8906 250.7344,602.3906 C250.7344,602.1094 250.8906,601.8125 251.1406,601.6563 C251.2969,601.5625 251.4219,601.5469 251.8594,601.5469 L253.5625,601.5469 C254.0313,601.5469 254.1875,601.5781 254.3281,601.6875 C254.5625,601.8594 254.6875,602.125 254.6875,602.3906 C254.6875,602.6875 254.5313,602.9688 254.2813,603.125 C254.125,603.2031 253.9844,603.2344 253.5625,603.2344 L253.3125,603.2344 L253.3125,605.6563 L256.9531,605.6563 L256.9531,603.2344 L256.7031,603.2344 C256.25,603.2344 256.1094,603.2031 255.9375,603.0938 C255.7188,602.9219 255.5781,602.6719 255.5781,602.3906 C255.5781,602.1094 255.7344,601.8125 255.9844,601.6563 C256.1406,601.5625 256.2656,601.5469 256.7031,601.5469 L258.4219,601.5469 C258.875,601.5469 259.0313,601.5781 259.2031,601.6875 C259.4063,601.8594 259.5313,602.125 259.5313,602.3906 C259.5313,602.8906 259.2188,603.1875 258.6563,603.2344 L258.6563,609.75 L258.75,609.75 C259.2188,609.75 259.3594,609.7813 259.5156,609.9063 C259.7344,610.0781 259.875,610.3281 259.875,610.6094 C259.875,610.8906 259.7188,611.1875 259.4688,611.3281 C259.3281,611.4219 259.1094,611.4531 258.75,611.4531 L256.7031,611.4531 C256.2969,611.4531 256.0938,611.4063 255.9375,611.2969 C255.7188,611.125 255.5781,610.8594 255.5781,610.6094 C255.5781,610.3125 255.7344,610.0313 255.9844,609.875 C256.1406,609.7656 256.2969,609.75 256.7031,609.75 L256.9531,609.75 Z "/><text fill="#000000" font-family="sans-serif" font-size="12" lengthAdjust="spacingAndGlyphs" textLength="93" x="269" y="610.6074">L1curlSwitched</text><line style="stroke: #A80036; stroke-width: 1.5;" x1="241" x2="364" y1="622.4531" y2="622.4531"/><line style="stroke: #A80036; stroke-width: 1.5;" x1="241" x2="364" y1="630.4531" y2="630.4531"/><ellipse cx="251" cy="642.3555" fill="#84BE84" rx="3" ry="3" style="stroke: #038048; stroke-width: 1.0;"/><text fill="#000000" font-family="sans-serif" font-size="11" lengthAdjust="spacingAndGlyphs" textLength="93" x="260" y="644.6636">L1curlSwitched()</text><!--class L1divAnticurlIso--><rect fill="#FEFECE" filter="url(#fwtrdiv)" height="60.8047" style="stroke: #A80036; stroke-width: 1.5;" width="128" x="1207.5" y="590.4531"/><ellipse cx="1222.5" cy="606.4531" fill="#E6FFE6" rx="11" ry="11" style="stroke: #A80036; stroke-width: 1.0;"/><path d="M1224.4531,607.3594 L1220.8125,607.3594 L1220.8125,609.75 L1221.0625,609.75 C1221.5156,609.75 1221.6875,609.7813 1221.8281,609.9063 C1222.0625,610.0781 1222.1875,610.3281 1222.1875,610.6094 C1222.1875,610.8906 1222.0313,611.1875 1221.7813,611.3281 C1221.6406,611.4219 1221.4219,611.4531 1221.0625,611.4531 L1219.0156,611.4531 C1218.6094,611.4531 1218.3906,611.4063 1218.2344,611.2969 C1218.0313,611.125 1217.8906,610.8594 1217.8906,610.6094 C1217.8906,610.3125 1218.0469,610.0313 1218.2969,609.875 C1218.4531,609.7656 1218.5938,609.75 1219.0156,609.75 L1219.1094,609.75 L1219.1094,603.2344 C1218.5469,603.1875 1218.2344,602.8906 1218.2344,602.3906 C1218.2344,602.1094 1218.3906,601.8125 1218.6406,601.6563 C1218.7969,601.5625 1218.9219,601.5469 1219.3594,601.5469 L1221.0625,601.5469 C1221.5313,601.5469 1221.6875,601.5781 1221.8281,601.6875 C1222.0625,601.8594 1222.1875,602.125 1222.1875,602.3906 C1222.1875,602.6875 1222.0313,602.9688 1221.7813,603.125 C1221.625,603.2031 1221.4844,603.2344 1221.0625,603.2344 L1220.8125,603.2344 L1220.8125,605.6563 L1224.4531,605.6563 L1224.4531,603.2344 L1224.2031,603.2344 C1223.75,603.2344 1223.6094,603.2031 1223.4375,603.0938 C1223.2188,602.9219 1223.0781,602.6719 1223.0781,602.3906 C1223.0781,602.1094 1223.2344,601.8125 1223.4844,601.6563 C1223.6406,601.5625 1223.7656,601.5469 1224.2031,601.5469 L1225.9219,601.5469 C1226.375,601.5469 1226.5313,601.5781 1226.7031,601.6875 C1226.9063,601.8594 1227.0313,602.125 1227.0313,602.3906 C1227.0313,602.8906 1226.7188,603.1875 1226.1563,603.2344 L1226.1563,609.75 L1226.25,609.75 C1226.7188,609.75 1226.8594,609.7813 1227.0156,609.9063 C1227.2344,610.0781 1227.375,610.3281 1227.375,610.6094 C1227.375,610.8906 1227.2188,611.1875 1226.9688,611.3281 C1226.8281,611.4219 1226.6094,611.4531 1226.25,611.4531 L1224.2031,611.4531 C1223.7969,611.4531 1223.5938,611.4063 1223.4375,611.2969 C1223.2188,611.125 1223.0781,610.8594 1223.0781,610.6094 C1223.0781,610.3125 1223.2344,610.0313 1223.4844,609.875 C1223.6406,609.7656 1223.7969,609.75 1224.2031,609.75 L1224.4531,609.75 Z "/><text fill="#000000" font-family="sans-serif" font-size="12" lengthAdjust="spacingAndGlyphs" textLength="96" x="1236.5" y="610.6074">L1divAnticurlIso</text><line style="stroke: #A80036; stroke-width: 1.5;" x1="1208.5" x2="1334.5" y1="622.4531" y2="622.4531"/><line style="stroke: #A80036; stroke-width: 1.5;" x1="1208.5" x2="1334.5" y1="630.4531" y2="630.4531"/><ellipse cx="1218.5" cy="642.3555" fill="#84BE84" rx="3" ry="3" style="stroke: #038048; stroke-width: 1.0;"/><text fill="#000000" font-family="sans-serif" font-size="11" lengthAdjust="spacingAndGlyphs" textLength="96" x="1227.5" y="644.6636">L1divAnticurlIso()</text><!--class L1divCurlIso--><rect fill="#FEFECE" filter="url(#fwtrdiv)" height="60.8047" style="stroke: #A80036; stroke-width: 1.5;" width="105" x="1372" y="590.4531"/><ellipse cx="1387" cy="606.4531" fill="#E6FFE6" rx="11" ry="11" style="stroke: #A80036; stroke-width: 1.0;"/><path d="M1388.9531,607.3594 L1385.3125,607.3594 L1385.3125,609.75 L1385.5625,609.75 C1386.0156,609.75 1386.1875,609.7813 1386.3281,609.9063 C1386.5625,610.0781 1386.6875,610.3281 1386.6875,610.6094 C1386.6875,610.8906 1386.5313,611.1875 1386.2813,611.3281 C1386.1406,611.4219 1385.9219,611.4531 1385.5625,611.4531 L1383.5156,611.4531 C1383.1094,611.4531 1382.8906,611.4063 1382.7344,611.2969 C1382.5313,611.125 1382.3906,610.8594 1382.3906,610.6094 C1382.3906,610.3125 1382.5469,610.0313 1382.7969,609.875 C1382.9531,609.7656 1383.0938,609.75 1383.5156,609.75 L1383.6094,609.75 L1383.6094,603.2344 C1383.0469,603.1875 1382.7344,602.8906 1382.7344,602.3906 C1382.7344,602.1094 1382.8906,601.8125 1383.1406,601.6563 C1383.2969,601.5625 1383.4219,601.5469 1383.8594,601.5469 L1385.5625,601.5469 C1386.0313,601.5469 1386.1875,601.5781 1386.3281,601.6875 C1386.5625,601.8594 1386.6875,602.125 1386.6875,602.3906 C1386.6875,602.6875 1386.5313,602.9688 1386.2813,603.125 C1386.125,603.2031 1385.9844,603.2344 1385.5625,603.2344 L1385.3125,603.2344 L1385.3125,605.6563 L1388.9531,605.6563 L1388.9531,603.2344 L1388.7031,603.2344 C1388.25,603.2344 1388.1094,603.2031 1387.9375,603.0938 C1387.7188,602.9219 1387.5781,602.6719 1387.5781,602.3906 C1387.5781,602.1094 1387.7344,601.8125 1387.9844,601.6563 C1388.1406,601.5625 1388.2656,601.5469 1388.7031,601.5469 L1390.4219,601.5469 C1390.875,601.5469 1391.0313,601.5781 1391.2031,601.6875 C1391.4063,601.8594 1391.5313,602.125 1391.5313,602.3906 C1391.5313,602.8906 1391.2188,603.1875 1390.6563,603.2344 L1390.6563,609.75 L1390.75,609.75 C1391.2188,609.75 1391.3594,609.7813 1391.5156,609.9063 C1391.7344,610.0781 1391.875,610.3281 1391.875,610.6094 C1391.875,610.8906 1391.7188,611.1875 1391.4688,611.3281 C1391.3281,611.4219 1391.1094,611.4531 1390.75,611.4531 L1388.7031,611.4531 C1388.2969,611.4531 1388.0938,611.4063 1387.9375,611.2969 C1387.7188,611.125 1387.5781,610.8594 1387.5781,610.6094 C1387.5781,610.3125 1387.7344,610.0313 1387.9844,609.875 C1388.1406,609.7656 1388.2969,609.75 1388.7031,609.75 L1388.9531,609.75 Z "/><text fill="#000000" font-family="sans-serif" font-size="12" lengthAdjust="spacingAndGlyphs" textLength="73" x="1401" y="610.6074">L1divCurlIso</text><line style="stroke: #A80036; stroke-width: 1.5;" x1="1373" x2="1476" y1="622.4531" y2="622.4531"/><line style="stroke: #A80036; stroke-width: 1.5;" x1="1373" x2="1476" y1="630.4531" y2="630.4531"/><ellipse cx="1383" cy="642.3555" fill="#84BE84" rx="3" ry="3" style="stroke: #038048; stroke-width: 1.0;"/><text fill="#000000" font-family="sans-serif" font-size="11" lengthAdjust="spacingAndGlyphs" textLength="77" x="1392" y="644.6636">L1divCurlIso()</text><!--class L1divergence--><rect fill="#FEFECE" filter="url(#fwtrdiv)" height="60.8047" style="stroke: #A80036; stroke-width: 1.5;" width="115" x="504" y="590.4531"/><ellipse cx="519" cy="606.4531" fill="#E6FFE6" rx="11" ry="11" style="stroke: #A80036; stroke-width: 1.0;"/><path d="M520.9531,607.3594 L517.3125,607.3594 L517.3125,609.75 L517.5625,609.75 C518.0156,609.75 518.1875,609.7813 518.3281,609.9063 C518.5625,610.0781 518.6875,610.3281 518.6875,610.6094 C518.6875,610.8906 518.5313,611.1875 518.2813,611.3281 C518.1406,611.4219 517.9219,611.4531 517.5625,611.4531 L515.5156,611.4531 C515.1094,611.4531 514.8906,611.4063 514.7344,611.2969 C514.5313,611.125 514.3906,610.8594 514.3906,610.6094 C514.3906,610.3125 514.5469,610.0313 514.7969,609.875 C514.9531,609.7656 515.0938,609.75 515.5156,609.75 L515.6094,609.75 L515.6094,603.2344 C515.0469,603.1875 514.7344,602.8906 514.7344,602.3906 C514.7344,602.1094 514.8906,601.8125 515.1406,601.6563 C515.2969,601.5625 515.4219,601.5469 515.8594,601.5469 L517.5625,601.5469 C518.0313,601.5469 518.1875,601.5781 518.3281,601.6875 C518.5625,601.8594 518.6875,602.125 518.6875,602.3906 C518.6875,602.6875 518.5313,602.9688 518.2813,603.125 C518.125,603.2031 517.9844,603.2344 517.5625,603.2344 L517.3125,603.2344 L517.3125,605.6563 L520.9531,605.6563 L520.9531,603.2344 L520.7031,603.2344 C520.25,603.2344 520.1094,603.2031 519.9375,603.0938 C519.7188,602.9219 519.5781,602.6719 519.5781,602.3906 C519.5781,602.1094 519.7344,601.8125 519.9844,601.6563 C520.1406,601.5625 520.2656,601.5469 520.7031,601.5469 L522.4219,601.5469 C522.875,601.5469 523.0313,601.5781 523.2031,601.6875 C523.4063,601.8594 523.5313,602.125 523.5313,602.3906 C523.5313,602.8906 523.2188,603.1875 522.6563,603.2344 L522.6563,609.75 L522.75,609.75 C523.2188,609.75 523.3594,609.7813 523.5156,609.9063 C523.7344,610.0781 523.875,610.3281 523.875,610.6094 C523.875,610.8906 523.7188,611.1875 523.4688,611.3281 C523.3281,611.4219 523.1094,611.4531 522.75,611.4531 L520.7031,611.4531 C520.2969,611.4531 520.0938,611.4063 519.9375,611.2969 C519.7188,611.125 519.5781,610.8594 519.5781,610.6094 C519.5781,610.3125 519.7344,610.0313 519.9844,609.875 C520.1406,609.7656 520.2969,609.75 520.7031,609.75 L520.9531,609.75 Z "/><text fill="#000000" font-family="sans-serif" font-size="12" lengthAdjust="spacingAndGlyphs" textLength="83" x="533" y="610.6074">L1divergence</text><line style="stroke: #A80036; stroke-width: 1.5;" x1="505" x2="618" y1="622.4531" y2="622.4531"/><line style="stroke: #A80036; stroke-width: 1.5;" x1="505" x2="618" y1="630.4531" y2="630.4531"/><ellipse cx="515" cy="642.3555" fill="#84BE84" rx="3" ry="3" style="stroke: #038048; stroke-width: 1.0;"/><text fill="#000000" font-family="sans-serif" font-size="11" lengthAdjust="spacingAndGlyphs" textLength="83" x="524" y="644.6636">L1divergence()</text><!--class L1shearAniso--><rect fill="#FEFECE" filter="url(#fwtrdiv)" height="60.8047" style="stroke: #A80036; stroke-width: 1.5;" width="116" x="804.5" y="590.4531"/><ellipse cx="819.5" cy="606.4531" fill="#E6FFE6" rx="11" ry="11" style="stroke: #A80036; stroke-width: 1.0;"/><path d="M821.4531,607.3594 L817.8125,607.3594 L817.8125,609.75 L818.0625,609.75 C818.5156,609.75 818.6875,609.7813 818.8281,609.9063 C819.0625,610.0781 819.1875,610.3281 819.1875,610.6094 C819.1875,610.8906 819.0313,611.1875 818.7813,611.3281 C818.6406,611.4219 818.4219,611.4531 818.0625,611.4531 L816.0156,611.4531 C815.6094,611.4531 815.3906,611.4063 815.2344,611.2969 C815.0313,611.125 814.8906,610.8594 814.8906,610.6094 C814.8906,610.3125 815.0469,610.0313 815.2969,609.875 C815.4531,609.7656 815.5938,609.75 816.0156,609.75 L816.1094,609.75 L816.1094,603.2344 C815.5469,603.1875 815.2344,602.8906 815.2344,602.3906 C815.2344,602.1094 815.3906,601.8125 815.6406,601.6563 C815.7969,601.5625 815.9219,601.5469 816.3594,601.5469 L818.0625,601.5469 C818.5313,601.5469 818.6875,601.5781 818.8281,601.6875 C819.0625,601.8594 819.1875,602.125 819.1875,602.3906 C819.1875,602.6875 819.0313,602.9688 818.7813,603.125 C818.625,603.2031 818.4844,603.2344 818.0625,603.2344 L817.8125,603.2344 L817.8125,605.6563 L821.4531,605.6563 L821.4531,603.2344 L821.2031,603.2344 C820.75,603.2344 820.6094,603.2031 820.4375,603.0938 C820.2188,602.9219 820.0781,602.6719 820.0781,602.3906 C820.0781,602.1094 820.2344,601.8125 820.4844,601.6563 C820.6406,601.5625 820.7656,601.5469 821.2031,601.5469 L822.9219,601.5469 C823.375,601.5469 823.5313,601.5781 823.7031,601.6875 C823.9063,601.8594 824.0313,602.125 824.0313,602.3906 C824.0313,602.8906 823.7188,603.1875 823.1563,603.2344 L823.1563,609.75 L823.25,609.75 C823.7188,609.75 823.8594,609.7813 824.0156,609.9063 C824.2344,610.0781 824.375,610.3281 824.375,610.6094 C824.375,610.8906 824.2188,611.1875 823.9688,611.3281 C823.8281,611.4219 823.6094,611.4531 823.25,611.4531 L821.2031,611.4531 C820.7969,611.4531 820.5938,611.4063 820.4375,611.2969 C820.2188,611.125 820.0781,610.8594 820.0781,610.6094 C820.0781,610.3125 820.2344,610.0313 820.4844,609.875 C820.6406,609.7656 820.7969,609.75 821.2031,609.75 L821.4531,609.75 Z "/><text fill="#000000" font-family="sans-serif" font-size="12" lengthAdjust="spacingAndGlyphs" textLength="84" x="833.5" y="610.6074">L1shearAniso</text><line style="stroke: #A80036; stroke-width: 1.5;" x1="805.5" x2="919.5" y1="622.4531" y2="622.4531"/><line style="stroke: #A80036; stroke-width: 1.5;" x1="805.5" x2="919.5" y1="630.4531" y2="630.4531"/><ellipse cx="815.5" cy="642.3555" fill="#84BE84" rx="3" ry="3" style="stroke: #038048; stroke-width: 1.0;"/><text fill="#000000" font-family="sans-serif" font-size="11" lengthAdjust="spacingAndGlyphs" textLength="85" x="824.5" y="644.6636">L1shearAniso()</text><!--class L1shearIso--><rect fill="#FEFECE" filter="url(#fwtrdiv)" height="60.8047" style="stroke: #A80036; stroke-width: 1.5;" width="100" x="1072.5" y="590.4531"/><ellipse cx="1087.5" cy="606.4531" fill="#E6FFE6" rx="11" ry="11" style="stroke: #A80036; stroke-width: 1.0;"/><path d="M1089.4531,607.3594 L1085.8125,607.3594 L1085.8125,609.75 L1086.0625,609.75 C1086.5156,609.75 1086.6875,609.7813 1086.8281,609.9063 C1087.0625,610.0781 1087.1875,610.3281 1087.1875,610.6094 C1087.1875,610.8906 1087.0313,611.1875 1086.7813,611.3281 C1086.6406,611.4219 1086.4219,611.4531 1086.0625,611.4531 L1084.0156,611.4531 C1083.6094,611.4531 1083.3906,611.4063 1083.2344,611.2969 C1083.0313,611.125 1082.8906,610.8594 1082.8906,610.6094 C1082.8906,610.3125 1083.0469,610.0313 1083.2969,609.875 C1083.4531,609.7656 1083.5938,609.75 1084.0156,609.75 L1084.1094,609.75 L1084.1094,603.2344 C1083.5469,603.1875 1083.2344,602.8906 1083.2344,602.3906 C1083.2344,602.1094 1083.3906,601.8125 1083.6406,601.6563 C1083.7969,601.5625 1083.9219,601.5469 1084.3594,601.5469 L1086.0625,601.5469 C1086.5313,601.5469 1086.6875,601.5781 1086.8281,601.6875 C1087.0625,601.8594 1087.1875,602.125 1087.1875,602.3906 C1087.1875,602.6875 1087.0313,602.9688 1086.7813,603.125 C1086.625,603.2031 1086.4844,603.2344 1086.0625,603.2344 L1085.8125,603.2344 L1085.8125,605.6563 L1089.4531,605.6563 L1089.4531,603.2344 L1089.2031,603.2344 C1088.75,603.2344 1088.6094,603.2031 1088.4375,603.0938 C1088.2188,602.9219 1088.0781,602.6719 1088.0781,602.3906 C1088.0781,602.1094 1088.2344,601.8125 1088.4844,601.6563 C1088.6406,601.5625 1088.7656,601.5469 1089.2031,601.5469 L1090.9219,601.5469 C1091.375,601.5469 1091.5313,601.5781 1091.7031,601.6875 C1091.9063,601.8594 1092.0313,602.125 1092.0313,602.3906 C1092.0313,602.8906 1091.7188,603.1875 1091.1563,603.2344 L1091.1563,609.75 L1091.25,609.75 C1091.7188,609.75 1091.8594,609.7813 1092.0156,609.9063 C1092.2344,610.0781 1092.375,610.3281 1092.375,610.6094 C1092.375,610.8906 1092.2188,611.1875 1091.9688,611.3281 C1091.8281,611.4219 1091.6094,611.4531 1091.25,611.4531 L1089.2031,611.4531 C1088.7969,611.4531 1088.5938,611.4063 1088.4375,611.2969 C1088.2188,611.125 1088.0781,610.8594 1088.0781,610.6094 C1088.0781,610.3125 1088.2344,610.0313 1088.4844,609.875 C1088.6406,609.7656 1088.7969,609.75 1089.2031,609.75 L1089.4531,609.75 Z "/><text fill="#000000" font-family="sans-serif" font-size="12" lengthAdjust="spacingAndGlyphs" textLength="68" x="1101.5" y="610.6074">L1shearIso</text><line style="stroke: #A80036; stroke-width: 1.5;" x1="1073.5" x2="1171.5" y1="622.4531" y2="622.4531"/><line style="stroke: #A80036; stroke-width: 1.5;" x1="1073.5" x2="1171.5" y1="630.4531" y2="630.4531"/><ellipse cx="1083.5" cy="642.3555" fill="#84BE84" rx="3" ry="3" style="stroke: #038048; stroke-width: 1.0;"/><text fill="#000000" font-family="sans-serif" font-size="11" lengthAdjust="spacingAndGlyphs" textLength="71" x="1092.5" y="644.6636">L1shearIso()</text><!--class L2curl--><rect fill="#FEFECE" filter="url(#fwtrdiv)" height="60.8047" style="stroke: #A80036; stroke-width: 1.5;" width="69" x="400" y="590.4531"/><ellipse cx="415" cy="606.4531" fill="#E6FFE6" rx="11" ry="11" style="stroke: #A80036; stroke-width: 1.0;"/><path d="M416.9531,607.3594 L413.3125,607.3594 L413.3125,609.75 L413.5625,609.75 C414.0156,609.75 414.1875,609.7813 414.3281,609.9063 C414.5625,610.0781 414.6875,610.3281 414.6875,610.6094 C414.6875,610.8906 414.5313,611.1875 414.2813,611.3281 C414.1406,611.4219 413.9219,611.4531 413.5625,611.4531 L411.5156,611.4531 C411.1094,611.4531 410.8906,611.4063 410.7344,611.2969 C410.5313,611.125 410.3906,610.8594 410.3906,610.6094 C410.3906,610.3125 410.5469,610.0313 410.7969,609.875 C410.9531,609.7656 411.0938,609.75 411.5156,609.75 L411.6094,609.75 L411.6094,603.2344 C411.0469,603.1875 410.7344,602.8906 410.7344,602.3906 C410.7344,602.1094 410.8906,601.8125 411.1406,601.6563 C411.2969,601.5625 411.4219,601.5469 411.8594,601.5469 L413.5625,601.5469 C414.0313,601.5469 414.1875,601.5781 414.3281,601.6875 C414.5625,601.8594 414.6875,602.125 414.6875,602.3906 C414.6875,602.6875 414.5313,602.9688 414.2813,603.125 C414.125,603.2031 413.9844,603.2344 413.5625,603.2344 L413.3125,603.2344 L413.3125,605.6563 L416.9531,605.6563 L416.9531,603.2344 L416.7031,603.2344 C416.25,603.2344 416.1094,603.2031 415.9375,603.0938 C415.7188,602.9219 415.5781,602.6719 415.5781,602.3906 C415.5781,602.1094 415.7344,601.8125 415.9844,601.6563 C416.1406,601.5625 416.2656,601.5469 416.7031,601.5469 L418.4219,601.5469 C418.875,601.5469 419.0313,601.5781 419.2031,601.6875 C419.4063,601.8594 419.5313,602.125 419.5313,602.3906 C419.5313,602.8906 419.2188,603.1875 418.6563,603.2344 L418.6563,609.75 L418.75,609.75 C419.2188,609.75 419.3594,609.7813 419.5156,609.9063 C419.7344,610.0781 419.875,610.3281 419.875,610.6094 C419.875,610.8906 419.7188,611.1875 419.4688,611.3281 C419.3281,611.4219 419.1094,611.4531 418.75,611.4531 L416.7031,611.4531 C416.2969,611.4531 416.0938,611.4063 415.9375,611.2969 C415.7188,611.125 415.5781,610.8594 415.5781,610.6094 C415.5781,610.3125 415.7344,610.0313 415.9844,609.875 C416.1406,609.7656 416.2969,609.75 416.7031,609.75 L416.9531,609.75 Z "/><text fill="#000000" font-family="sans-serif" font-size="12" lengthAdjust="spacingAndGlyphs" textLength="37" x="429" y="610.6074">L2curl</text><line style="stroke: #A80036; stroke-width: 1.5;" x1="401" x2="468" y1="622.4531" y2="622.4531"/><line style="stroke: #A80036; stroke-width: 1.5;" x1="401" x2="468" y1="630.4531" y2="630.4531"/><ellipse cx="411" cy="642.3555" fill="#84BE84" rx="3" ry="3" style="stroke: #038048; stroke-width: 1.0;"/><text fill="#000000" font-family="sans-serif" font-size="11" lengthAdjust="spacingAndGlyphs" textLength="42" x="420" y="644.6636">L2curl()</text><!--class L2divergence--><rect fill="#FEFECE" filter="url(#fwtrdiv)" height="73.6094" style="stroke: #A80036; stroke-width: 1.5;" width="115" x="654" y="583.9531"/><ellipse cx="669" cy="599.9531" fill="#E6FFE6" rx="11" ry="11" style="stroke: #A80036; stroke-width: 1.0;"/><path d="M670.9531,600.8594 L667.3125,600.8594 L667.3125,603.25 L667.5625,603.25 C668.0156,603.25 668.1875,603.2813 668.3281,603.4063 C668.5625,603.5781 668.6875,603.8281 668.6875,604.1094 C668.6875,604.3906 668.5313,604.6875 668.2813,604.8281 C668.1406,604.9219 667.9219,604.9531 667.5625,604.9531 L665.5156,604.9531 C665.1094,604.9531 664.8906,604.9063 664.7344,604.7969 C664.5313,604.625 664.3906,604.3594 664.3906,604.1094 C664.3906,603.8125 664.5469,603.5313 664.7969,603.375 C664.9531,603.2656 665.0938,603.25 665.5156,603.25 L665.6094,603.25 L665.6094,596.7344 C665.0469,596.6875 664.7344,596.3906 664.7344,595.8906 C664.7344,595.6094 664.8906,595.3125 665.1406,595.1563 C665.2969,595.0625 665.4219,595.0469 665.8594,595.0469 L667.5625,595.0469 C668.0313,595.0469 668.1875,595.0781 668.3281,595.1875 C668.5625,595.3594 668.6875,595.625 668.6875,595.8906 C668.6875,596.1875 668.5313,596.4688 668.2813,596.625 C668.125,596.7031 667.9844,596.7344 667.5625,596.7344 L667.3125,596.7344 L667.3125,599.1563 L670.9531,599.1563 L670.9531,596.7344 L670.7031,596.7344 C670.25,596.7344 670.1094,596.7031 669.9375,596.5938 C669.7188,596.4219 669.5781,596.1719 669.5781,595.8906 C669.5781,595.6094 669.7344,595.3125 669.9844,595.1563 C670.1406,595.0625 670.2656,595.0469 670.7031,595.0469 L672.4219,595.0469 C672.875,595.0469 673.0313,595.0781 673.2031,595.1875 C673.4063,595.3594 673.5313,595.625 673.5313,595.8906 C673.5313,596.3906 673.2188,596.6875 672.6563,596.7344 L672.6563,603.25 L672.75,603.25 C673.2188,603.25 673.3594,603.2813 673.5156,603.4063 C673.7344,603.5781 673.875,603.8281 673.875,604.1094 C673.875,604.3906 673.7188,604.6875 673.4688,604.8281 C673.3281,604.9219 673.1094,604.9531 672.75,604.9531 L670.7031,604.9531 C670.2969,604.9531 670.0938,604.9063 669.9375,604.7969 C669.7188,604.625 669.5781,604.3594 669.5781,604.1094 C669.5781,603.8125 669.7344,603.5313 669.9844,603.375 C670.1406,603.2656 670.2969,603.25 670.7031,603.25 L670.9531,603.25 Z "/><text fill="#000000" font-family="sans-serif" font-size="12" lengthAdjust="spacingAndGlyphs" textLength="83" x="683" y="604.1074">L2divergence</text><line style="stroke: #A80036; stroke-width: 1.5;" x1="655" x2="768" y1="615.9531" y2="615.9531"/><line style="stroke: #A80036; stroke-width: 1.5;" x1="655" x2="768" y1="623.9531" y2="623.9531"/><ellipse cx="665" cy="635.8555" fill="#84BE84" rx="3" ry="3" style="stroke: #038048; stroke-width: 1.0;"/><text fill="#000000" font-family="sans-serif" font-size="11" lengthAdjust="spacingAndGlyphs" textLength="83" x="674" y="638.1636">L2divergence()</text><ellipse cx="665" cy="648.6602" fill="#84BE84" rx="3" ry="3" style="stroke: #038048; stroke-width: 1.0;"/><text fill="#000000" font-family="sans-serif" font-size="11" lengthAdjust="spacingAndGlyphs" textLength="25" x="674" y="650.9683">init()</text><!--class L2shear--><rect fill="#FEFECE" filter="url(#fwtrdiv)" height="60.8047" style="stroke: #A80036; stroke-width: 1.5;" width="82" x="955.5" y="590.4531"/><ellipse cx="970.5" cy="606.4531" fill="#E6FFE6" rx="11" ry="11" style="stroke: #A80036; stroke-width: 1.0;"/><path d="M972.4531,607.3594 L968.8125,607.3594 L968.8125,609.75 L969.0625,609.75 C969.5156,609.75 969.6875,609.7813 969.8281,609.9063 C970.0625,610.0781 970.1875,610.3281 970.1875,610.6094 C970.1875,610.8906 970.0313,611.1875 969.7813,611.3281 C969.6406,611.4219 969.4219,611.4531 969.0625,611.4531 L967.0156,611.4531 C966.6094,611.4531 966.3906,611.4063 966.2344,611.2969 C966.0313,611.125 965.8906,610.8594 965.8906,610.6094 C965.8906,610.3125 966.0469,610.0313 966.2969,609.875 C966.4531,609.7656 966.5938,609.75 967.0156,609.75 L967.1094,609.75 L967.1094,603.2344 C966.5469,603.1875 966.2344,602.8906 966.2344,602.3906 C966.2344,602.1094 966.3906,601.8125 966.6406,601.6563 C966.7969,601.5625 966.9219,601.5469 967.3594,601.5469 L969.0625,601.5469 C969.5313,601.5469 969.6875,601.5781 969.8281,601.6875 C970.0625,601.8594 970.1875,602.125 970.1875,602.3906 C970.1875,602.6875 970.0313,602.9688 969.7813,603.125 C969.625,603.2031 969.4844,603.2344 969.0625,603.2344 L968.8125,603.2344 L968.8125,605.6563 L972.4531,605.6563 L972.4531,603.2344 L972.2031,603.2344 C971.75,603.2344 971.6094,603.2031 971.4375,603.0938 C971.2188,602.9219 971.0781,602.6719 971.0781,602.3906 C971.0781,602.1094 971.2344,601.8125 971.4844,601.6563 C971.6406,601.5625 971.7656,601.5469 972.2031,601.5469 L973.9219,601.5469 C974.375,601.5469 974.5313,601.5781 974.7031,601.6875 C974.9063,601.8594 975.0313,602.125 975.0313,602.3906 C975.0313,602.8906 974.7188,603.1875 974.1563,603.2344 L974.1563,609.75 L974.25,609.75 C974.7188,609.75 974.8594,609.7813 975.0156,609.9063 C975.2344,610.0781 975.375,610.3281 975.375,610.6094 C975.375,610.8906 975.2188,611.1875 974.9688,611.3281 C974.8281,611.4219 974.6094,611.4531 974.25,611.4531 L972.2031,611.4531 C971.7969,611.4531 971.5938,611.4063 971.4375,611.2969 C971.2188,611.125 971.0781,610.8594 971.0781,610.6094 C971.0781,610.3125 971.2344,610.0313 971.4844,609.875 C971.6406,609.7656 971.7969,609.75 972.2031,609.75 L972.4531,609.75 Z "/><text fill="#000000" font-family="sans-serif" font-size="12" lengthAdjust="spacingAndGlyphs" textLength="50" x="984.5" y="610.6074">L2shear</text><line style="stroke: #A80036; stroke-width: 1.5;" x1="956.5" x2="1036.5" y1="622.4531" y2="622.4531"/><line style="stroke: #A80036; stroke-width: 1.5;" x1="956.5" x2="1036.5" y1="630.4531" y2="630.4531"/><ellipse cx="966.5" cy="642.3555" fill="#84BE84" rx="3" ry="3" style="stroke: #038048; stroke-width: 1.0;"/><text fill="#000000" font-family="sans-serif" font-size="11" lengthAdjust="spacingAndGlyphs" textLength="54" x="975.5" y="644.6636">L2shear()</text><!--class basicProx--><rect fill="#FEFECE" filter="url(#fwtrdiv)" height="60.8047" style="stroke: #A80036; stroke-width: 1.5;" width="92" x="584.5" y="328.9531"/><ellipse cx="599.5" cy="344.9531" fill="#E6FFE6" rx="11" ry="11" style="stroke: #A80036; stroke-width: 1.0;"/><path d="M601.0781,346.7656 L597.0313,346.7656 L596.6406,347.75 L597.0313,347.75 C597.4844,347.75 597.625,347.7813 597.7969,347.9063 C598.0156,348.0781 598.1406,348.3281 598.1406,348.6094 C598.1406,348.8906 598,349.1875 597.7344,349.3281 C597.6094,349.4219 597.3906,349.4531 597.0313,349.4531 L594.7656,349.4531 C594.0156,349.4531 593.6406,349.1719 593.6406,348.6094 C593.6406,348.3125 593.7969,348.0313 594.0469,347.875 C594.2031,347.7656 594.3594,347.75 594.7813,347.75 L597.4219,341.2344 L596.3438,341.2344 C595.9063,341.2344 595.7344,341.2031 595.5625,341.0938 C595.3438,340.9219 595.2031,340.6719 595.2031,340.3906 C595.2031,340.1094 595.3594,339.8281 595.6094,339.6563 C595.7656,339.5625 595.8906,339.5469 596.3438,339.5469 L600.0156,339.5469 L603.4063,347.75 C603.875,347.75 604.0313,347.7813 604.2031,347.9219 C604.4219,348.0781 604.5625,348.3281 604.5625,348.6094 C604.5625,348.8906 604.4063,349.1875 604.1563,349.3281 C604.0156,349.4219 603.7969,349.4531 603.4375,349.4531 L601.0781,349.4531 C600.6563,349.4531 600.4531,349.4063 600.3125,349.2813 C600.0938,349.125 599.9531,348.875 599.9531,348.6094 C599.9531,348.3125 600.1094,348.0313 600.3594,347.875 C600.5156,347.7656 600.625,347.75 601.0781,347.75 L601.4688,347.75 Z M600.375,345.0625 L599.0469,341.7969 L597.7031,345.0625 Z "/><text fill="#000000" font-family="sans-serif" font-size="12" lengthAdjust="spacingAndGlyphs" textLength="60" x="613.5" y="349.1074">basicProx</text><line style="stroke: #A80036; stroke-width: 1.5;" x1="585.5" x2="675.5" y1="360.9531" y2="360.9531"/><line style="stroke: #A80036; stroke-width: 1.5;" x1="585.5" x2="675.5" y1="368.9531" y2="368.9531"/><ellipse cx="595.5" cy="380.8555" fill="#84BE84" rx="3" ry="3" style="stroke: #038048; stroke-width: 1.0;"/><text fill="#000000" font-family="sans-serif" font-size="11" lengthAdjust="spacingAndGlyphs" textLength="63" x="604.5" y="383.1636">applyProx()</text><!--class L1AnisoProxDual--><rect fill="#FEFECE" filter="url(#fwtrdiv)" height="73.6094" style="stroke: #A80036; stroke-width: 1.5;" width="135" x="396" y="449.9531"/><ellipse cx="411" cy="465.9531" fill="#E6FFE6" rx="11" ry="11" style="stroke: #A80036; stroke-width: 1.0;"/><path d="M412.9531,466.8594 L409.3125,466.8594 L409.3125,469.25 L409.5625,469.25 C410.0156,469.25 410.1875,469.2813 410.3281,469.4063 C410.5625,469.5781 410.6875,469.8281 410.6875,470.1094 C410.6875,470.3906 410.5313,470.6875 410.2813,470.8281 C410.1406,470.9219 409.9219,470.9531 409.5625,470.9531 L407.5156,470.9531 C407.1094,470.9531 406.8906,470.9063 406.7344,470.7969 C406.5313,470.625 406.3906,470.3594 406.3906,470.1094 C406.3906,469.8125 406.5469,469.5313 406.7969,469.375 C406.9531,469.2656 407.0938,469.25 407.5156,469.25 L407.6094,469.25 L407.6094,462.7344 C407.0469,462.6875 406.7344,462.3906 406.7344,461.8906 C406.7344,461.6094 406.8906,461.3125 407.1406,461.1563 C407.2969,461.0625 407.4219,461.0469 407.8594,461.0469 L409.5625,461.0469 C410.0313,461.0469 410.1875,461.0781 410.3281,461.1875 C410.5625,461.3594 410.6875,461.625 410.6875,461.8906 C410.6875,462.1875 410.5313,462.4688 410.2813,462.625 C410.125,462.7031 409.9844,462.7344 409.5625,462.7344 L409.3125,462.7344 L409.3125,465.1563 L412.9531,465.1563 L412.9531,462.7344 L412.7031,462.7344 C412.25,462.7344 412.1094,462.7031 411.9375,462.5938 C411.7188,462.4219 411.5781,462.1719 411.5781,461.8906 C411.5781,461.6094 411.7344,461.3125 411.9844,461.1563 C412.1406,461.0625 412.2656,461.0469 412.7031,461.0469 L414.4219,461.0469 C414.875,461.0469 415.0313,461.0781 415.2031,461.1875 C415.4063,461.3594 415.5313,461.625 415.5313,461.8906 C415.5313,462.3906 415.2188,462.6875 414.6563,462.7344 L414.6563,469.25 L414.75,469.25 C415.2188,469.25 415.3594,469.2813 415.5156,469.4063 C415.7344,469.5781 415.875,469.8281 415.875,470.1094 C415.875,470.3906 415.7188,470.6875 415.4688,470.8281 C415.3281,470.9219 415.1094,470.9531 414.75,470.9531 L412.7031,470.9531 C412.2969,470.9531 412.0938,470.9063 411.9375,470.7969 C411.7188,470.625 411.5781,470.3594 411.5781,470.1094 C411.5781,469.8125 411.7344,469.5313 411.9844,469.375 C412.1406,469.2656 412.2969,469.25 412.7031,469.25 L412.9531,469.25 Z "/><text fill="#000000" font-family="sans-serif" font-size="12" lengthAdjust="spacingAndGlyphs" textLength="103" x="425" y="470.1074">L1AnisoProxDual</text><line style="stroke: #A80036; stroke-width: 1.5;" x1="397" x2="530" y1="481.9531" y2="481.9531"/><line style="stroke: #A80036; stroke-width: 1.5;" x1="397" x2="530" y1="489.9531" y2="489.9531"/><ellipse cx="407" cy="501.8555" fill="#84BE84" rx="3" ry="3" style="stroke: #038048; stroke-width: 1.0;"/><text fill="#000000" font-family="sans-serif" font-size="11" lengthAdjust="spacingAndGlyphs" textLength="102" x="416" y="504.1636">L1AnisoProxDual()</text><ellipse cx="407" cy="514.6602" fill="#84BE84" rx="3" ry="3" style="stroke: #038048; stroke-width: 1.0;"/><text fill="#000000" font-family="sans-serif" font-size="11" lengthAdjust="spacingAndGlyphs" textLength="63" x="416" y="516.9683">applyProx()</text><!--class L1IsoProxDual--><rect fill="#FEFECE" filter="url(#fwtrdiv)" height="73.6094" style="stroke: #A80036; stroke-width: 1.5;" width="119" x="1052" y="449.9531"/><ellipse cx="1067" cy="465.9531" fill="#E6FFE6" rx="11" ry="11" style="stroke: #A80036; stroke-width: 1.0;"/><path d="M1068.9531,466.8594 L1065.3125,466.8594 L1065.3125,469.25 L1065.5625,469.25 C1066.0156,469.25 1066.1875,469.2813 1066.3281,469.4063 C1066.5625,469.5781 1066.6875,469.8281 1066.6875,470.1094 C1066.6875,470.3906 1066.5313,470.6875 1066.2813,470.8281 C1066.1406,470.9219 1065.9219,470.9531 1065.5625,470.9531 L1063.5156,470.9531 C1063.1094,470.9531 1062.8906,470.9063 1062.7344,470.7969 C1062.5313,470.625 1062.3906,470.3594 1062.3906,470.1094 C1062.3906,469.8125 1062.5469,469.5313 1062.7969,469.375 C1062.9531,469.2656 1063.0938,469.25 1063.5156,469.25 L1063.6094,469.25 L1063.6094,462.7344 C1063.0469,462.6875 1062.7344,462.3906 1062.7344,461.8906 C1062.7344,461.6094 1062.8906,461.3125 1063.1406,461.1563 C1063.2969,461.0625 1063.4219,461.0469 1063.8594,461.0469 L1065.5625,461.0469 C1066.0313,461.0469 1066.1875,461.0781 1066.3281,461.1875 C1066.5625,461.3594 1066.6875,461.625 1066.6875,461.8906 C1066.6875,462.1875 1066.5313,462.4688 1066.2813,462.625 C1066.125,462.7031 1065.9844,462.7344 1065.5625,462.7344 L1065.3125,462.7344 L1065.3125,465.1563 L1068.9531,465.1563 L1068.9531,462.7344 L1068.7031,462.7344 C1068.25,462.7344 1068.1094,462.7031 1067.9375,462.5938 C1067.7188,462.4219 1067.5781,462.1719 1067.5781,461.8906 C1067.5781,461.6094 1067.7344,461.3125 1067.9844,461.1563 C1068.1406,461.0625 1068.2656,461.0469 1068.7031,461.0469 L1070.4219,461.0469 C1070.875,461.0469 1071.0313,461.0781 1071.2031,461.1875 C1071.4063,461.3594 1071.5313,461.625 1071.5313,461.8906 C1071.5313,462.3906 1071.2188,462.6875 1070.6563,462.7344 L1070.6563,469.25 L1070.75,469.25 C1071.2188,469.25 1071.3594,469.2813 1071.5156,469.4063 C1071.7344,469.5781 1071.875,469.8281 1071.875,470.1094 C1071.875,470.3906 1071.7188,470.6875 1071.4688,470.8281 C1071.3281,470.9219 1071.1094,470.9531 1070.75,470.9531 L1068.7031,470.9531 C1068.2969,470.9531 1068.0938,470.9063 1067.9375,470.7969 C1067.7188,470.625 1067.5781,470.3594 1067.5781,470.1094 C1067.5781,469.8125 1067.7344,469.5313 1067.9844,469.375 C1068.1406,469.2656 1068.2969,469.25 1068.7031,469.25 L1068.9531,469.25 Z "/><text fill="#000000" font-family="sans-serif" font-size="12" lengthAdjust="spacingAndGlyphs" textLength="87" x="1081" y="470.1074">L1IsoProxDual</text><line style="stroke: #A80036; stroke-width: 1.5;" x1="1053" x2="1170" y1="481.9531" y2="481.9531"/><line style="stroke: #A80036; stroke-width: 1.5;" x1="1053" x2="1170" y1="489.9531" y2="489.9531"/><ellipse cx="1063" cy="501.8555" fill="#84BE84" rx="3" ry="3" style="stroke: #038048; stroke-width: 1.0;"/><text fill="#000000" font-family="sans-serif" font-size="11" lengthAdjust="spacingAndGlyphs" textLength="88" x="1072" y="504.1636">L1IsoProxDual()</text><ellipse cx="1063" cy="514.6602" fill="#84BE84" rx="3" ry="3" style="stroke: #038048; stroke-width: 1.0;"/><text fill="#000000" font-family="sans-serif" font-size="11" lengthAdjust="spacingAndGlyphs" textLength="63" x="1072" y="516.9683">applyProx()</text><!--class L2proxDual--><rect fill="#FEFECE" filter="url(#fwtrdiv)" height="73.6094" style="stroke: #A80036; stroke-width: 1.5;" width="101" x="580" y="449.9531"/><ellipse cx="595" cy="465.9531" fill="#E6FFE6" rx="11" ry="11" style="stroke: #A80036; stroke-width: 1.0;"/><path d="M596.9531,466.8594 L593.3125,466.8594 L593.3125,469.25 L593.5625,469.25 C594.0156,469.25 594.1875,469.2813 594.3281,469.4063 C594.5625,469.5781 594.6875,469.8281 594.6875,470.1094 C594.6875,470.3906 594.5313,470.6875 594.2813,470.8281 C594.1406,470.9219 593.9219,470.9531 593.5625,470.9531 L591.5156,470.9531 C591.1094,470.9531 590.8906,470.9063 590.7344,470.7969 C590.5313,470.625 590.3906,470.3594 590.3906,470.1094 C590.3906,469.8125 590.5469,469.5313 590.7969,469.375 C590.9531,469.2656 591.0938,469.25 591.5156,469.25 L591.6094,469.25 L591.6094,462.7344 C591.0469,462.6875 590.7344,462.3906 590.7344,461.8906 C590.7344,461.6094 590.8906,461.3125 591.1406,461.1563 C591.2969,461.0625 591.4219,461.0469 591.8594,461.0469 L593.5625,461.0469 C594.0313,461.0469 594.1875,461.0781 594.3281,461.1875 C594.5625,461.3594 594.6875,461.625 594.6875,461.8906 C594.6875,462.1875 594.5313,462.4688 594.2813,462.625 C594.125,462.7031 593.9844,462.7344 593.5625,462.7344 L593.3125,462.7344 L593.3125,465.1563 L596.9531,465.1563 L596.9531,462.7344 L596.7031,462.7344 C596.25,462.7344 596.1094,462.7031 595.9375,462.5938 C595.7188,462.4219 595.5781,462.1719 595.5781,461.8906 C595.5781,461.6094 595.7344,461.3125 595.9844,461.1563 C596.1406,461.0625 596.2656,461.0469 596.7031,461.0469 L598.4219,461.0469 C598.875,461.0469 599.0313,461.0781 599.2031,461.1875 C599.4063,461.3594 599.5313,461.625 599.5313,461.8906 C599.5313,462.3906 599.2188,462.6875 598.6563,462.7344 L598.6563,469.25 L598.75,469.25 C599.2188,469.25 599.3594,469.2813 599.5156,469.4063 C599.7344,469.5781 599.875,469.8281 599.875,470.1094 C599.875,470.3906 599.7188,470.6875 599.4688,470.8281 C599.3281,470.9219 599.1094,470.9531 598.75,470.9531 L596.7031,470.9531 C596.2969,470.9531 596.0938,470.9063 595.9375,470.7969 C595.7188,470.625 595.5781,470.3594 595.5781,470.1094 C595.5781,469.8125 595.7344,469.5313 595.9844,469.375 C596.1406,469.2656 596.2969,469.25 596.7031,469.25 L596.9531,469.25 Z "/><text fill="#000000" font-family="sans-serif" font-size="12" lengthAdjust="spacingAndGlyphs" textLength="69" x="609" y="470.1074">L2proxDual</text><line style="stroke: #A80036; stroke-width: 1.5;" x1="581" x2="680" y1="481.9531" y2="481.9531"/><line style="stroke: #A80036; stroke-width: 1.5;" x1="581" x2="680" y1="489.9531" y2="489.9531"/><ellipse cx="591" cy="501.8555" fill="#84BE84" rx="3" ry="3" style="stroke: #038048; stroke-width: 1.0;"/><text fill="#000000" font-family="sans-serif" font-size="11" lengthAdjust="spacingAndGlyphs" textLength="71" x="600" y="504.1636">L2proxDual()</text><ellipse cx="591" cy="514.6602" fill="#84BE84" rx="3" ry="3" style="stroke: #038048; stroke-width: 1.0;"/><text fill="#000000" font-family="sans-serif" font-size="11" lengthAdjust="spacingAndGlyphs" textLength="63" x="600" y="516.9683">applyProx()</text><!--class basicDualizedDataterm--><rect fill="#FEFECE" filter="url(#fwtrdiv)" height="48" style="stroke: #A80036; stroke-width: 1.5;" width="176" x="877.5" y="124.9531"/><ellipse cx="892.5" cy="140.9531" fill="#ADD1B2" rx="11" ry="11" style="stroke: #A80036; stroke-width: 1.0;"/><path d="M894.8438,136.625 L895.0156,136.7031 C895.2344,136.3906 895.4375,136.2969 895.7344,136.2969 C896.0313,136.2969 896.3125,136.4375 896.4688,136.7031 C896.5625,136.8594 896.5781,136.9844 896.5781,137.4219 L896.5781,138.8438 C896.5781,139.2656 896.5469,139.4531 896.4375,139.6094 C896.2656,139.8281 896,139.9688 895.7344,139.9688 C895.5156,139.9688 895.2813,139.8594 895.1406,139.7188 C895,139.5938 894.9688,139.4688 894.9063,139.0625 C894.8125,138.6563 894.6406,138.4375 894.1563,138.1563 C893.6875,137.9063 893.0781,137.75 892.5,137.75 C890.7656,137.75 889.5156,139.0625 889.5156,140.8438 L889.5156,141.9375 C889.5156,143.6406 890.8125,144.7344 892.8594,144.7344 C893.625,144.7344 894.3125,144.6094 894.7344,144.3438 C894.9219,144.25 894.9219,144.25 895.375,143.7656 C895.5625,143.5781 895.7656,143.5 895.9844,143.5 C896.4531,143.5 896.8438,143.8906 896.8438,144.3438 C896.8438,144.7344 896.5156,145.1875 895.9375,145.5938 C895.1875,146.1406 894.0313,146.4375 892.8125,146.4375 C889.9219,146.4375 887.8125,144.5469 887.8125,141.9688 L887.8125,140.8438 C887.8125,138.125 889.8125,136.0469 892.4375,136.0469 C893.3125,136.0469 893.9063,136.1875 894.8438,136.625 Z "/><text fill="#000000" font-family="sans-serif" font-size="12" lengthAdjust="spacingAndGlyphs" textLength="144" x="906.5" y="145.1074">basicDualizedDataterm</text><line style="stroke: #A80036; stroke-width: 1.5;" x1="878.5" x2="1052.5" y1="156.9531" y2="156.9531"/><line style="stroke: #A80036; stroke-width: 1.5;" x1="878.5" x2="1052.5" y1="164.9531" y2="164.9531"/><path d="M965.5,193.1161 C965.5,233.7201 965.5,293.4261 965.5,328.8791 " fill="none" style="stroke: #A80036; stroke-width: 1.0;"/><polygon fill="none" points="958.5,193.0631,965.5,173.0631,972.5,193.0631,958.5,193.0631" style="stroke: #A80036; stroke-width: 1.0;"/><path d="M858.935,372.9301 C714.918,390.4401 466.088,423.1621 378.5,449.9531 C368.029,453.1561 357.17,457.5721 347.05,462.2151 " fill="none" style="stroke: #A80036; stroke-width: 1.0;"/><polygon fill="none" points="858.267,365.9601,878.962,370.5111,859.946,379.8591,858.267,365.9601" style="stroke: #A80036; stroke-width: 1.0;"/><path d="M1059.24,397.4091 C1099.18,413.3271 1146.22,432.3041 1188.5,449.9531 C1194.3,452.3731 1200.31,454.9161 1206.33,457.4841 " fill="none" style="stroke: #A80036; stroke-width: 1.0;"/><polygon fill="none" points="1056.55,403.8731,1040.55,389.9771,1061.72,390.8641,1056.55,403.8731" style="stroke: #A80036; stroke-width: 1.0;"/><path d="M1072.25,378.0191 C1151.3,392.7131 1260.89,416.6541 1353.5,449.9531 C1359.55,452.1281 1365.75,454.6841 1371.85,457.4141 " fill="none" style="stroke: #A80036; stroke-width: 1.0;"/><polygon fill="none" points="1070.75,384.8621,1052.33,374.3921,1073.26,371.0891,1070.75,384.8621" style="stroke: #A80036; stroke-width: 1.0;"/><path d="M905.584,401.7691 C879.679,419.6321 849.955,440.1281 826.322,456.4251 " fill="none" style="stroke: #A80036; stroke-width: 1.0;"/><polygon fill="none" points="901.93,395.7861,922.369,390.1951,909.877,407.3111,901.93,395.7861" style="stroke: #A80036; stroke-width: 1.0;"/><path d="M965.5,410.4001 C965.5,426.0001 965.5,442.7021 965.5,456.4251 " fill="none" style="stroke: #A80036; stroke-width: 1.0;"/><polygon fill="none" points="958.5,410.1951,965.5,390.1951,972.5,410.1951,958.5,410.1951" style="stroke: #A80036; stroke-width: 1.0;"/><path d="M239.229,513.4121 C196.78,531.3251 140.135,556.8581 92.5,583.9531 C86.7735,587.2103 80.8748,590.9183 75.1993,594.6868 " fill="none" style="stroke: #A80036; stroke-width: 1.0;"/><polygon fill="none" points="236.788,506.8461,257.942,505.6201,242.17,519.7701,236.788,506.8461" style="stroke: #A80036; stroke-width: 1.0;"/><path d="M376.711,520.2401 C372.599,521.5411 368.513,522.7861 364.5,523.9531 C245.627,558.5144 205.969,534.4561 92.5,583.9531 C86.6627,586.4994 80.8013,589.7398 75.2262,593.2291 " fill="none" style="stroke: #A80036; stroke-width: 1.0;"/><polygon fill="none" points="374.803,513.4981,395.99,513.8391,379.215,526.7851,374.803,513.4981" style="stroke: #A80036; stroke-width: 1.0;"/><path d="M255.13,531.0761 C233.787,550.5061 209.128,572.9539 189.932,590.4286 " fill="none" style="stroke: #A80036; stroke-width: 1.0;"/><polygon fill="none" points="250.457,525.8641,269.959,517.5761,259.882,536.2161,250.457,525.8641" style="stroke: #A80036; stroke-width: 1.0;"/><path d="M376.967,519.3741 C330.557,536.9861 272.738,560.1526 222.5,583.9531 C216.788,586.6593 210.881,589.6485 205.063,592.7132 " fill="none" style="stroke: #A80036; stroke-width: 1.0;"/><polygon fill="none" points="374.593,512.7891,395.777,512.3031,379.519,525.8931,374.593,512.7891" style="stroke: #A80036; stroke-width: 1.0;"/><path d="M302.5,537.6861 C302.5,555.4561 302.5,574.905 302.5,590.4286 " fill="none" style="stroke: #A80036; stroke-width: 1.0;"/><polygon fill="none" points="295.5,537.5761,302.5,517.5761,309.5,537.5761,295.5,537.5761" style="stroke: #A80036; stroke-width: 1.0;"/><path d="M404.011,536.7271 C382.045,554.7361 357.835,574.5854 338.569,590.3811 " fill="none" style="stroke: #A80036; stroke-width: 1.0;"/><polygon fill="none" points="399.602,531.2901,419.506,524.0231,408.478,542.1161,399.602,531.2901" style="stroke: #A80036; stroke-width: 1.0;"/><path d="M1271.5,537.6861 C1271.5,555.4561 1271.5,574.905 1271.5,590.4286 " fill="none" style="stroke: #A80036; stroke-width: 1.0;"/><polygon fill="none" points="1264.5,537.5761,1271.5,517.5761,1278.5,537.5761,1264.5,537.5761" style="stroke: #A80036; stroke-width: 1.0;"/><path d="M1170.94,536.9891 C1192.68,554.9291 1216.6,574.662 1235.66,590.3811 " fill="none" style="stroke: #A80036; stroke-width: 1.0;"/><polygon fill="none" points="1166.19,542.1501,1155.22,524.0231,1175.1,531.3511,1166.19,542.1501" style="stroke: #A80036; stroke-width: 1.0;"/><path d="M1425.12,537.6861 C1424.99,555.4561 1424.84,574.905 1424.72,590.4286 " fill="none" style="stroke: #A80036; stroke-width: 1.0;"/><polygon fill="none" points="1418.12,537.5231,1425.28,517.5761,1432.12,537.6291,1418.12,537.5231" style="stroke: #A80036; stroke-width: 1.0;"/><path d="M1190.08,524.2481 C1263.57,553.8431 1286.52,555.4971 1352.5,583.9531 C1358.79,586.6651 1365.31,589.6578 1371.74,592.7244 " fill="none" style="stroke: #A80036; stroke-width: 1.0;"/><polygon fill="none" points="1187.22,530.6411,1171.39,516.5631,1192.55,517.6921,1187.22,530.6411" style="stroke: #A80036; stroke-width: 1.0;"/><path d="M716.164,527.9911 C682.353,548.0941 642.113,572.0208 611.155,590.4286 " fill="none" style="stroke: #A80036; stroke-width: 1.0;"/><polygon fill="none" points="712.911,521.7811,733.679,517.5761,720.066,533.8151,712.911,521.7811" style="stroke: #A80036; stroke-width: 1.0;"/><path d="M502.212,540.0961 C514.835,557.0981 528.412,575.3861 539.385,590.1651 " fill="none" style="stroke: #A80036; stroke-width: 1.0;"/><polygon fill="none" points="496.581,544.2541,490.279,524.0231,507.821,535.9081,496.581,544.2541" style="stroke: #A80036; stroke-width: 1.0;"/><path d="M930.074,533.3531 C915.335,552.2421 898.644,573.6326 885.538,590.4286 " fill="none" style="stroke: #A80036; stroke-width: 1.0;"/><polygon fill="none" points="924.562,529.0381,942.385,517.5761,935.6,537.6501,924.562,529.0381" style="stroke: #A80036; stroke-width: 1.0;"/><path d="M550.356,520.0181 C554.451,521.3781 558.514,522.6971 562.5,523.9531 C660.801,554.9271 689.756,548.4141 786.5,583.9531 C792.393,586.1178 798.45,588.571 804.451,591.1547 " fill="none" style="stroke: #A80036; stroke-width: 1.0;"/><polygon fill="none" points="547.784,526.5371,531.133,513.4311,552.322,513.2931,547.784,526.5371" style="stroke: #A80036; stroke-width: 1.0;"/><path d="M1016.12,530.5111 C1039.38,550.0691 1066.4,572.7843 1087.38,590.4286 " fill="none" style="stroke: #A80036; stroke-width: 1.0;"/><polygon fill="none" points="1011.54,535.8051,1000.734,517.5761,1020.55,525.0891,1011.54,535.8051" style="stroke: #A80036; stroke-width: 1.0;"/><path d="M1116.18,544.0811 C1117.5,559.9198 1118.88,576.5347 1120.02,590.1651 " fill="none" style="stroke: #A80036; stroke-width: 1.0;"/><polygon fill="none" points="1109.19,544.5351,1114.51,524.0231,1123.14,543.3721,1109.19,544.5351" style="stroke: #A80036; stroke-width: 1.0;"/><path d="M346.474,531.9271 C365.706,551.1591 387.755,573.2084 404.975,590.4286 " fill="none" style="stroke: #A80036; stroke-width: 1.0;"/><polygon fill="none" points="341.316,536.6681,332.123,517.5761,351.215,526.7691,341.316,536.6681" style="stroke: #A80036; stroke-width: 1.0;"/><path d="M562.78,532.7471 C538.642,548.8061 511.298,567.1047 486.5,583.9531 C480.869,587.7789 474.915,591.8631 469.126,595.8562 " fill="none" style="stroke: #A80036; stroke-width: 1.0;"/><polygon fill="none" points="559.174,526.7381,579.706,521.5021,566.921,538.4001,559.174,526.7381" style="stroke: #A80036; stroke-width: 1.0;"/><path d="M757.646,535.3511 C748.933,551.3261 739.356,568.8839 731.196,583.844 " fill="none" style="stroke: #A80036; stroke-width: 1.0;"/><polygon fill="none" points="751.619,531.7821,767.342,517.5761,763.91,538.4861,751.619,531.7821" style="stroke: #A80036; stroke-width: 1.0;"/><path d="M663.338,541.4661 C672.1,555.7461 681.36,570.8356 689.393,583.9271 " fill="none" style="stroke: #A80036; stroke-width: 1.0;"/><polygon fill="none" points="657.128,544.7301,652.634,524.0231,669.06,537.4081,657.128,544.7301" style="stroke: #A80036; stroke-width: 1.0;"/><path d="M977.043,537.1041 C981.253,555.0311 985.881,574.7353 989.566,590.4286 " fill="none" style="stroke: #A80036; stroke-width: 1.0;"/><polygon fill="none" points="970.215,538.6471,972.457,517.5761,983.844,535.4461,970.215,538.6471" style="stroke: #A80036; stroke-width: 1.0;"/><path d="M700.019,523.5181 C804.853,561.0233 842.019,543.9311 937.5,583.9531 C943.476,586.4579 949.556,589.5079 955.43,592.7615 " fill="none" style="stroke: #A80036; stroke-width: 1.0;"/><polygon fill="none" points="697.395,530.0101,681.121,516.4391,702.306,516.9001,697.395,530.0101" style="stroke: #A80036; stroke-width: 1.0;"/><path d="M574.763,402.3391 C554.242,417.7611 531.196,435.0801 511.424,449.9391 " fill="none" style="stroke: #A80036; stroke-width: 1.0;"/><polygon fill="none" points="570.729,396.6141,590.923,390.1951,579.14,407.8061,570.729,396.6141" style="stroke: #A80036; stroke-width: 1.0;"/><path d="M696.637,370.6681 C777.459,384.1641 917.742,410.8881 1033.5,449.9531 C1039.58,452.0041 1045.81,454.3811 1051.98,456.9181 " fill="none" style="stroke: #A80036; stroke-width: 1.0;"/><polygon fill="none" points="695.304,377.5431,676.697,367.4051,697.564,363.7261,695.304,377.5431" style="stroke: #A80036; stroke-width: 1.0;"/><path d="M630.5,410.4581 C630.5,423.5741 630.5,437.4661 630.5,449.7081 " fill="none" style="stroke: #A80036; stroke-width: 1.0;"/><polygon fill="none" points="623.5,410.1951,630.5,390.1951,637.5,410.1951,623.5,410.1951" style="stroke: #A80036; stroke-width: 1.0;"/></g></svg>