<?xml version="1.0" encoding="UTF-8" standalone="no"?><svg xmlns="http://www.w3.org/2000/svg" xmlns:xlink="http://www.w3.org/1999/xlink" contentScriptType="application/ecmascript" contentStyleType="text/css" height="684px" preserveAspectRatio="none" style="width:1630px;height:684px;" version="1.1" viewBox="0 0 1630 684" width="1630px" zoomAndPan="magnify"><defs><filter height="300%" id="fzg5c01" width="300%" x="-1" y="-1"><feGaussianBlur result="blurOut" stdDeviation="2.0"/><feColorMatrix in="blurOut" result="blurOut2" type="matrix" values="0 0 0 0 0 0 0 0 0 0 0 0 0 0 0 0 0 0 .4 0"/><feOffset dx="4.0" dy="4.0" in="blurOut2" result="blurOut3"/><feBlend in="SourceGraphic" in2="blurOut3" mode="normal"/></filter></defs><g><text fill="#000000" font-family="sans-serif" font-size="18" font-weight="bold" lengthAdjust="spacingAndGlyphs" textLength="295" x="672" y="16.708">Regularizer Terms (Gradient)</text><!--class dualPart--><rect fill="#FEFECE" filter="url(#fzg5c01)" height="150.4375" style="stroke: #A80036; stroke-width: 1.5;" width="89" x="1014" y="136.9531"/><ellipse cx="1030.8" cy="152.9531" fill="#E6FFE6" rx="11" ry="11" style="stroke: #A80036; stroke-width: 1.0;"/><path d="M1032.3781,154.7656 L1028.3313,154.7656 L1027.9406,155.75 L1028.3313,155.75 C1028.7844,155.75 1028.925,155.7813 1029.0969,155.9063 C1029.3156,156.0781 1029.4406,156.3281 1029.4406,156.6094 C1029.4406,156.8906 1029.3,157.1875 1029.0344,157.3281 C1028.9094,157.4219 1028.6906,157.4531 1028.3313,157.4531 L1026.0656,157.4531 C1025.3156,157.4531 1024.9406,157.1719 1024.9406,156.6094 C1024.9406,156.3125 1025.0969,156.0313 1025.3469,155.875 C1025.5031,155.7656 1025.6594,155.75 1026.0813,155.75 L1028.7219,149.2344 L1027.6438,149.2344 C1027.2063,149.2344 1027.0344,149.2031 1026.8625,149.0938 C1026.6438,148.9219 1026.5031,148.6719 1026.5031,148.3906 C1026.5031,148.1094 1026.6594,147.8281 1026.9094,147.6563 C1027.0656,147.5625 1027.1906,147.5469 1027.6438,147.5469 L1031.3156,147.5469 L1034.7063,155.75 C1035.175,155.75 1035.3313,155.7813 1035.5031,155.9219 C1035.7219,156.0781 1035.8625,156.3281 1035.8625,156.6094 C1035.8625,156.8906 1035.7063,157.1875 1035.4563,157.3281 C1035.3156,157.4219 1035.0969,157.4531 1034.7375,157.4531 L1032.3781,157.4531 C1031.9563,157.4531 1031.7531,157.4063 1031.6125,157.2813 C1031.3938,157.125 1031.2531,156.875 1031.2531,156.6094 C1031.2531,156.3125 1031.4094,156.0313 1031.6594,155.875 C1031.8156,155.7656 1031.925,155.75 1032.3781,155.75 L1032.7688,155.75 Z M1031.675,153.0625 L1030.3469,149.7969 L1029.0031,153.0625 Z "/><text fill="#000000" font-family="sans-serif" font-size="12" lengthAdjust="spacingAndGlyphs" textLength="53" x="1045.2" y="157.1074">dualPart</text><line style="stroke: #A80036; stroke-width: 1.5;" x1="1015" x2="1102" y1="168.9531" y2="168.9531"/><ellipse cx="1025" cy="180.8555" fill="none" rx="3" ry="3" style="stroke: #038048; stroke-width: 1.0;"/><text fill="#000000" font-family="sans-serif" font-size="11" lengthAdjust="spacingAndGlyphs" textLength="35" x="1034" y="183.1636">length</text><ellipse cx="1025" cy="193.6602" fill="none" rx="3" ry="3" style="stroke: #038048; stroke-width: 1.0;"/><text fill="#000000" font-family="sans-serif" font-size="11" lengthAdjust="spacingAndGlyphs" textLength="53" x="1034" y="195.9683">mySigma</text><ellipse cx="1025" cy="206.4648" fill="none" rx="3" ry="3" style="stroke: #038048; stroke-width: 1.0;"/><text fill="#000000" font-family="sans-serif" font-size="11" lengthAdjust="spacingAndGlyphs" textLength="38" x="1034" y="208.7729">myTau</text><ellipse cx="1025" cy="219.2695" fill="none" rx="3" ry="3" style="stroke: #038048; stroke-width: 1.0;"/><text fill="#000000" font-family="sans-serif" font-size="11" lengthAdjust="spacingAndGlyphs" textLength="51" x="1034" y="221.5776">numVars</text><ellipse cx="1025" cy="232.0742" fill="none" rx="3" ry="3" style="stroke: #038048; stroke-width: 1.0;"/><text fill="#000000" font-family="sans-serif" font-size="11" lengthAdjust="spacingAndGlyphs" textLength="49" x="1034" y="234.3823">operator</text><ellipse cx="1025" cy="244.8789" fill="none" rx="3" ry="3" style="stroke: #038048; stroke-width: 1.0;"/><text fill="#000000" font-family="sans-serif" font-size="11" lengthAdjust="spacingAndGlyphs" textLength="56" x="1034" y="247.187">operatorT</text><line style="stroke: #A80036; stroke-width: 1.5;" x1="1015" x2="1102" y1="253.7813" y2="253.7813"/><ellipse cx="1025" cy="265.6836" fill="#84BE84" rx="3" ry="3" style="stroke: #038048; stroke-width: 1.0;"/><text fill="#000000" font-family="sans-serif" font-size="11" lengthAdjust="spacingAndGlyphs" textLength="55" x="1034" y="267.9917">dualPart()</text><ellipse cx="1025" cy="278.4883" fill="#84BE84" rx="3" ry="3" style="stroke: #038048; stroke-width: 1.0;"/><text fill="#000000" font-family="sans-serif" font-size="11" lengthAdjust="spacingAndGlyphs" textLength="63" x="1034" y="280.7964">applyProx()</text><!--class basicDualizedOperator--><rect fill="#FEFECE" filter="url(#fzg5c01)" height="60.8047" style="stroke: #A80036; stroke-width: 1.5;" width="173" x="882" y="346.9531"/><ellipse cx="897" cy="362.9531" fill="#E6FFE6" rx="11" ry="11" style="stroke: #A80036; stroke-width: 1.0;"/><path d="M898.5781,364.7656 L894.5313,364.7656 L894.1406,365.75 L894.5313,365.75 C894.9844,365.75 895.125,365.7813 895.2969,365.9063 C895.5156,366.0781 895.6406,366.3281 895.6406,366.6094 C895.6406,366.8906 895.5,367.1875 895.2344,367.3281 C895.1094,367.4219 894.8906,367.4531 894.5313,367.4531 L892.2656,367.4531 C891.5156,367.4531 891.1406,367.1719 891.1406,366.6094 C891.1406,366.3125 891.2969,366.0313 891.5469,365.875 C891.7031,365.7656 891.8594,365.75 892.2813,365.75 L894.9219,359.2344 L893.8438,359.2344 C893.4063,359.2344 893.2344,359.2031 893.0625,359.0938 C892.8438,358.9219 892.7031,358.6719 892.7031,358.3906 C892.7031,358.1094 892.8594,357.8281 893.1094,357.6563 C893.2656,357.5625 893.3906,357.5469 893.8438,357.5469 L897.5156,357.5469 L900.9063,365.75 C901.375,365.75 901.5313,365.7813 901.7031,365.9219 C901.9219,366.0781 902.0625,366.3281 902.0625,366.6094 C902.0625,366.8906 901.9063,367.1875 901.6563,367.3281 C901.5156,367.4219 901.2969,367.4531 900.9375,367.4531 L898.5781,367.4531 C898.1563,367.4531 897.9531,367.4063 897.8125,367.2813 C897.5938,367.125 897.4531,366.875 897.4531,366.6094 C897.4531,366.3125 897.6094,366.0313 897.8594,365.875 C898.0156,365.7656 898.125,365.75 898.5781,365.75 L898.9688,365.75 Z M897.875,363.0625 L896.5469,359.7969 L895.2031,363.0625 Z "/><text fill="#000000" font-family="sans-serif" font-size="12" lengthAdjust="spacingAndGlyphs" textLength="141" x="911" y="367.1074">basicDualizedOperator</text><line style="stroke: #A80036; stroke-width: 1.5;" x1="883" x2="1054" y1="378.9531" y2="378.9531"/><line style="stroke: #A80036; stroke-width: 1.5;" x1="883" x2="1054" y1="386.9531" y2="386.9531"/><ellipse cx="893" cy="398.8555" fill="#84BE84" rx="3" ry="3" style="stroke: #038048; stroke-width: 1.0;"/><text fill="#000000" font-family="sans-serif" font-size="11" lengthAdjust="spacingAndGlyphs" textLength="136" x="902" y="401.1636">basicDualizedOperator()</text><!--class basicGradient--><rect fill="#FEFECE" filter="url(#fzg5c01)" height="60.8047" style="stroke: #A80036; stroke-width: 1.5;" width="119" x="500" y="474.4531"/><ellipse cx="515" cy="490.4531" fill="#E6FFE6" rx="11" ry="11" style="stroke: #A80036; stroke-width: 1.0;"/><path d="M516.5781,492.2656 L512.5313,492.2656 L512.1406,493.25 L512.5313,493.25 C512.9844,493.25 513.125,493.2813 513.2969,493.4063 C513.5156,493.5781 513.6406,493.8281 513.6406,494.1094 C513.6406,494.3906 513.5,494.6875 513.2344,494.8281 C513.1094,494.9219 512.8906,494.9531 512.5313,494.9531 L510.2656,494.9531 C509.5156,494.9531 509.1406,494.6719 509.1406,494.1094 C509.1406,493.8125 509.2969,493.5313 509.5469,493.375 C509.7031,493.2656 509.8594,493.25 510.2813,493.25 L512.9219,486.7344 L511.8438,486.7344 C511.4063,486.7344 511.2344,486.7031 511.0625,486.5938 C510.8438,486.4219 510.7031,486.1719 510.7031,485.8906 C510.7031,485.6094 510.8594,485.3281 511.1094,485.1563 C511.2656,485.0625 511.3906,485.0469 511.8438,485.0469 L515.5156,485.0469 L518.9063,493.25 C519.375,493.25 519.5313,493.2813 519.7031,493.4219 C519.9219,493.5781 520.0625,493.8281 520.0625,494.1094 C520.0625,494.3906 519.9063,494.6875 519.6563,494.8281 C519.5156,494.9219 519.2969,494.9531 518.9375,494.9531 L516.5781,494.9531 C516.1563,494.9531 515.9531,494.9063 515.8125,494.7813 C515.5938,494.625 515.4531,494.375 515.4531,494.1094 C515.4531,493.8125 515.6094,493.5313 515.8594,493.375 C516.0156,493.2656 516.125,493.25 516.5781,493.25 L516.9688,493.25 Z M515.875,490.5625 L514.5469,487.2969 L513.2031,490.5625 Z "/><text fill="#000000" font-family="sans-serif" font-size="12" lengthAdjust="spacingAndGlyphs" textLength="87" x="529" y="494.6074">basicGradient</text><line style="stroke: #A80036; stroke-width: 1.5;" x1="501" x2="618" y1="506.4531" y2="506.4531"/><line style="stroke: #A80036; stroke-width: 1.5;" x1="501" x2="618" y1="514.4531" y2="514.4531"/><ellipse cx="511" cy="526.3555" fill="#84BE84" rx="3" ry="3" style="stroke: #038048; stroke-width: 1.0;"/><text fill="#000000" font-family="sans-serif" font-size="11" lengthAdjust="spacingAndGlyphs" textLength="87" x="520" y="528.6636">basicGradient()</text><!--class basicGradientDifference--><rect fill="#FEFECE" filter="url(#fzg5c01)" height="60.8047" style="stroke: #A80036; stroke-width: 1.5;" width="183" x="1281" y="474.4531"/><ellipse cx="1296" cy="490.4531" fill="#E6FFE6" rx="11" ry="11" style="stroke: #A80036; stroke-width: 1.0;"/><path d="M1297.5781,492.2656 L1293.5313,492.2656 L1293.1406,493.25 L1293.5313,493.25 C1293.9844,493.25 1294.125,493.2813 1294.2969,493.4063 C1294.5156,493.5781 1294.6406,493.8281 1294.6406,494.1094 C1294.6406,494.3906 1294.5,494.6875 1294.2344,494.8281 C1294.1094,494.9219 1293.8906,494.9531 1293.5313,494.9531 L1291.2656,494.9531 C1290.5156,494.9531 1290.1406,494.6719 1290.1406,494.1094 C1290.1406,493.8125 1290.2969,493.5313 1290.5469,493.375 C1290.7031,493.2656 1290.8594,493.25 1291.2813,493.25 L1293.9219,486.7344 L1292.8438,486.7344 C1292.4063,486.7344 1292.2344,486.7031 1292.0625,486.5938 C1291.8438,486.4219 1291.7031,486.1719 1291.7031,485.8906 C1291.7031,485.6094 1291.8594,485.3281 1292.1094,485.1563 C1292.2656,485.0625 1292.3906,485.0469 1292.8438,485.0469 L1296.5156,485.0469 L1299.9063,493.25 C1300.375,493.25 1300.5313,493.2813 1300.7031,493.4219 C1300.9219,493.5781 1301.0625,493.8281 1301.0625,494.1094 C1301.0625,494.3906 1300.9063,494.6875 1300.6563,494.8281 C1300.5156,494.9219 1300.2969,494.9531 1299.9375,494.9531 L1297.5781,494.9531 C1297.1563,494.9531 1296.9531,494.9063 1296.8125,494.7813 C1296.5938,494.625 1296.4531,494.375 1296.4531,494.1094 C1296.4531,493.8125 1296.6094,493.5313 1296.8594,493.375 C1297.0156,493.2656 1297.125,493.25 1297.5781,493.25 L1297.9688,493.25 Z M1296.875,490.5625 L1295.5469,487.2969 L1294.2031,490.5625 Z "/><text fill="#000000" font-family="sans-serif" font-size="12" lengthAdjust="spacingAndGlyphs" textLength="151" x="1310" y="494.6074">basicGradientDifference</text><line style="stroke: #A80036; stroke-width: 1.5;" x1="1282" x2="1463" y1="506.4531" y2="506.4531"/><line style="stroke: #A80036; stroke-width: 1.5;" x1="1282" x2="1463" y1="514.4531" y2="514.4531"/><ellipse cx="1292" cy="526.3555" fill="#84BE84" rx="3" ry="3" style="stroke: #038048; stroke-width: 1.0;"/><text fill="#000000" font-family="sans-serif" font-size="11" lengthAdjust="spacingAndGlyphs" textLength="145" x="1301" y="528.6636">basicGradientDifference()</text><!--class basicSecondOrderGradient--><rect fill="#FEFECE" filter="url(#fzg5c01)" height="60.8047" style="stroke: #A80036; stroke-width: 1.5;" width="201" x="868" y="474.4531"/><ellipse cx="883" cy="490.4531" fill="#E6FFE6" rx="11" ry="11" style="stroke: #A80036; stroke-width: 1.0;"/><path d="M884.5781,492.2656 L880.5313,492.2656 L880.1406,493.25 L880.5313,493.25 C880.9844,493.25 881.125,493.2813 881.2969,493.4063 C881.5156,493.5781 881.6406,493.8281 881.6406,494.1094 C881.6406,494.3906 881.5,494.6875 881.2344,494.8281 C881.1094,494.9219 880.8906,494.9531 880.5313,494.9531 L878.2656,494.9531 C877.5156,494.9531 877.1406,494.6719 877.1406,494.1094 C877.1406,493.8125 877.2969,493.5313 877.5469,493.375 C877.7031,493.2656 877.8594,493.25 878.2813,493.25 L880.9219,486.7344 L879.8438,486.7344 C879.4063,486.7344 879.2344,486.7031 879.0625,486.5938 C878.8438,486.4219 878.7031,486.1719 878.7031,485.8906 C878.7031,485.6094 878.8594,485.3281 879.1094,485.1563 C879.2656,485.0625 879.3906,485.0469 879.8438,485.0469 L883.5156,485.0469 L886.9063,493.25 C887.375,493.25 887.5313,493.2813 887.7031,493.4219 C887.9219,493.5781 888.0625,493.8281 888.0625,494.1094 C888.0625,494.3906 887.9063,494.6875 887.6563,494.8281 C887.5156,494.9219 887.2969,494.9531 886.9375,494.9531 L884.5781,494.9531 C884.1563,494.9531 883.9531,494.9063 883.8125,494.7813 C883.5938,494.625 883.4531,494.375 883.4531,494.1094 C883.4531,493.8125 883.6094,493.5313 883.8594,493.375 C884.0156,493.2656 884.125,493.25 884.5781,493.25 L884.9688,493.25 Z M883.875,490.5625 L882.5469,487.2969 L881.2031,490.5625 Z "/><text fill="#000000" font-family="sans-serif" font-size="12" lengthAdjust="spacingAndGlyphs" textLength="169" x="897" y="494.6074">basicSecondOrderGradient</text><line style="stroke: #A80036; stroke-width: 1.5;" x1="869" x2="1068" y1="506.4531" y2="506.4531"/><line style="stroke: #A80036; stroke-width: 1.5;" x1="869" x2="1068" y1="514.4531" y2="514.4531"/><ellipse cx="879" cy="526.3555" fill="#84BE84" rx="3" ry="3" style="stroke: #038048; stroke-width: 1.0;"/><text fill="#000000" font-family="sans-serif" font-size="11" lengthAdjust="spacingAndGlyphs" textLength="162" x="888" y="528.6636">basicSecondOrderGradient()</text><!--class frobeniusGradient--><rect fill="#FEFECE" filter="url(#fzg5c01)" height="60.8047" style="stroke: #A80036; stroke-width: 1.5;" width="145" x="149" y="608.4531"/><ellipse cx="164" cy="624.4531" fill="#E6FFE6" rx="11" ry="11" style="stroke: #A80036; stroke-width: 1.0;"/><path d="M165.9531,625.3594 L162.3125,625.3594 L162.3125,627.75 L162.5625,627.75 C163.0156,627.75 163.1875,627.7813 163.3281,627.9063 C163.5625,628.0781 163.6875,628.3281 163.6875,628.6094 C163.6875,628.8906 163.5313,629.1875 163.2813,629.3281 C163.1406,629.4219 162.9219,629.4531 162.5625,629.4531 L160.5156,629.4531 C160.1094,629.4531 159.8906,629.4063 159.7344,629.2969 C159.5313,629.125 159.3906,628.8594 159.3906,628.6094 C159.3906,628.3125 159.5469,628.0313 159.7969,627.875 C159.9531,627.7656 160.0938,627.75 160.5156,627.75 L160.6094,627.75 L160.6094,621.2344 C160.0469,621.1875 159.7344,620.8906 159.7344,620.3906 C159.7344,620.1094 159.8906,619.8125 160.1406,619.6563 C160.2969,619.5625 160.4219,619.5469 160.8594,619.5469 L162.5625,619.5469 C163.0313,619.5469 163.1875,619.5781 163.3281,619.6875 C163.5625,619.8594 163.6875,620.125 163.6875,620.3906 C163.6875,620.6875 163.5313,620.9688 163.2813,621.125 C163.125,621.2031 162.9844,621.2344 162.5625,621.2344 L162.3125,621.2344 L162.3125,623.6563 L165.9531,623.6563 L165.9531,621.2344 L165.7031,621.2344 C165.25,621.2344 165.1094,621.2031 164.9375,621.0938 C164.7188,620.9219 164.5781,620.6719 164.5781,620.3906 C164.5781,620.1094 164.7344,619.8125 164.9844,619.6563 C165.1406,619.5625 165.2656,619.5469 165.7031,619.5469 L167.4219,619.5469 C167.875,619.5469 168.0313,619.5781 168.2031,619.6875 C168.4063,619.8594 168.5313,620.125 168.5313,620.3906 C168.5313,620.8906 168.2188,621.1875 167.6563,621.2344 L167.6563,627.75 L167.75,627.75 C168.2188,627.75 168.3594,627.7813 168.5156,627.9063 C168.7344,628.0781 168.875,628.3281 168.875,628.6094 C168.875,628.8906 168.7188,629.1875 168.4688,629.3281 C168.3281,629.4219 168.1094,629.4531 167.75,629.4531 L165.7031,629.4531 C165.2969,629.4531 165.0938,629.4063 164.9375,629.2969 C164.7188,629.125 164.5781,628.8594 164.5781,628.6094 C164.5781,628.3125 164.7344,628.0313 164.9844,627.875 C165.1406,627.7656 165.2969,627.75 165.7031,627.75 L165.9531,627.75 Z "/><text fill="#000000" font-family="sans-serif" font-size="12" lengthAdjust="spacingAndGlyphs" textLength="113" x="178" y="628.6074">frobeniusGradient</text><line style="stroke: #A80036; stroke-width: 1.5;" x1="150" x2="293" y1="640.4531" y2="640.4531"/><line style="stroke: #A80036; stroke-width: 1.5;" x1="150" x2="293" y1="648.4531" y2="648.4531"/><ellipse cx="160" cy="660.3555" fill="#84BE84" rx="3" ry="3" style="stroke: #038048; stroke-width: 1.0;"/><text fill="#000000" font-family="sans-serif" font-size="11" lengthAdjust="spacingAndGlyphs" textLength="111" x="169" y="662.6636">frobeniusGradient()</text><!--class huberGradient--><rect fill="#FEFECE" filter="url(#fzg5c01)" height="73.6094" style="stroke: #A80036; stroke-width: 1.5;" width="123" x="334" y="601.9531"/><ellipse cx="349" cy="617.9531" fill="#E6FFE6" rx="11" ry="11" style="stroke: #A80036; stroke-width: 1.0;"/><path d="M350.9531,618.8594 L347.3125,618.8594 L347.3125,621.25 L347.5625,621.25 C348.0156,621.25 348.1875,621.2813 348.3281,621.4063 C348.5625,621.5781 348.6875,621.8281 348.6875,622.1094 C348.6875,622.3906 348.5313,622.6875 348.2813,622.8281 C348.1406,622.9219 347.9219,622.9531 347.5625,622.9531 L345.5156,622.9531 C345.1094,622.9531 344.8906,622.9063 344.7344,622.7969 C344.5313,622.625 344.3906,622.3594 344.3906,622.1094 C344.3906,621.8125 344.5469,621.5313 344.7969,621.375 C344.9531,621.2656 345.0938,621.25 345.5156,621.25 L345.6094,621.25 L345.6094,614.7344 C345.0469,614.6875 344.7344,614.3906 344.7344,613.8906 C344.7344,613.6094 344.8906,613.3125 345.1406,613.1563 C345.2969,613.0625 345.4219,613.0469 345.8594,613.0469 L347.5625,613.0469 C348.0313,613.0469 348.1875,613.0781 348.3281,613.1875 C348.5625,613.3594 348.6875,613.625 348.6875,613.8906 C348.6875,614.1875 348.5313,614.4688 348.2813,614.625 C348.125,614.7031 347.9844,614.7344 347.5625,614.7344 L347.3125,614.7344 L347.3125,617.1563 L350.9531,617.1563 L350.9531,614.7344 L350.7031,614.7344 C350.25,614.7344 350.1094,614.7031 349.9375,614.5938 C349.7188,614.4219 349.5781,614.1719 349.5781,613.8906 C349.5781,613.6094 349.7344,613.3125 349.9844,613.1563 C350.1406,613.0625 350.2656,613.0469 350.7031,613.0469 L352.4219,613.0469 C352.875,613.0469 353.0313,613.0781 353.2031,613.1875 C353.4063,613.3594 353.5313,613.625 353.5313,613.8906 C353.5313,614.3906 353.2188,614.6875 352.6563,614.7344 L352.6563,621.25 L352.75,621.25 C353.2188,621.25 353.3594,621.2813 353.5156,621.4063 C353.7344,621.5781 353.875,621.8281 353.875,622.1094 C353.875,622.3906 353.7188,622.6875 353.4688,622.8281 C353.3281,622.9219 353.1094,622.9531 352.75,622.9531 L350.7031,622.9531 C350.2969,622.9531 350.0938,622.9063 349.9375,622.7969 C349.7188,622.625 349.5781,622.3594 349.5781,622.1094 C349.5781,621.8125 349.7344,621.5313 349.9844,621.375 C350.1406,621.2656 350.2969,621.25 350.7031,621.25 L350.9531,621.25 Z "/><text fill="#000000" font-family="sans-serif" font-size="12" lengthAdjust="spacingAndGlyphs" textLength="91" x="363" y="622.1074">huberGradient</text><line style="stroke: #A80036; stroke-width: 1.5;" x1="335" x2="456" y1="633.9531" y2="633.9531"/><ellipse cx="345" cy="645.8555" fill="none" rx="3" ry="3" style="stroke: #038048; stroke-width: 1.0;"/><text fill="#000000" font-family="sans-serif" font-size="11" lengthAdjust="spacingAndGlyphs" textLength="24" x="354" y="648.1636">epsi</text><line style="stroke: #A80036; stroke-width: 1.5;" x1="335" x2="456" y1="654.7578" y2="654.7578"/><ellipse cx="345" cy="666.6602" fill="#84BE84" rx="3" ry="3" style="stroke: #038048; stroke-width: 1.0;"/><text fill="#000000" font-family="sans-serif" font-size="11" lengthAdjust="spacingAndGlyphs" textLength="90" x="354" y="668.9683">huberGradient()</text><!--class L1gradientAniso--><rect fill="#FEFECE" filter="url(#fzg5c01)" height="60.8047" style="stroke: #A80036; stroke-width: 1.5;" width="133" x="492" y="608.4531"/><ellipse cx="507" cy="624.4531" fill="#E6FFE6" rx="11" ry="11" style="stroke: #A80036; stroke-width: 1.0;"/><path d="M508.9531,625.3594 L505.3125,625.3594 L505.3125,627.75 L505.5625,627.75 C506.0156,627.75 506.1875,627.7813 506.3281,627.9063 C506.5625,628.0781 506.6875,628.3281 506.6875,628.6094 C506.6875,628.8906 506.5313,629.1875 506.2813,629.3281 C506.1406,629.4219 505.9219,629.4531 505.5625,629.4531 L503.5156,629.4531 C503.1094,629.4531 502.8906,629.4063 502.7344,629.2969 C502.5313,629.125 502.3906,628.8594 502.3906,628.6094 C502.3906,628.3125 502.5469,628.0313 502.7969,627.875 C502.9531,627.7656 503.0938,627.75 503.5156,627.75 L503.6094,627.75 L503.6094,621.2344 C503.0469,621.1875 502.7344,620.8906 502.7344,620.3906 C502.7344,620.1094 502.8906,619.8125 503.1406,619.6563 C503.2969,619.5625 503.4219,619.5469 503.8594,619.5469 L505.5625,619.5469 C506.0313,619.5469 506.1875,619.5781 506.3281,619.6875 C506.5625,619.8594 506.6875,620.125 506.6875,620.3906 C506.6875,620.6875 506.5313,620.9688 506.2813,621.125 C506.125,621.2031 505.9844,621.2344 505.5625,621.2344 L505.3125,621.2344 L505.3125,623.6563 L508.9531,623.6563 L508.9531,621.2344 L508.7031,621.2344 C508.25,621.2344 508.1094,621.2031 507.9375,621.0938 C507.7188,620.9219 507.5781,620.6719 507.5781,620.3906 C507.5781,620.1094 507.7344,619.8125 507.9844,619.6563 C508.1406,619.5625 508.2656,619.5469 508.7031,619.5469 L510.4219,619.5469 C510.875,619.5469 511.0313,619.5781 511.2031,619.6875 C511.4063,619.8594 511.5313,620.125 511.5313,620.3906 C511.5313,620.8906 511.2188,621.1875 510.6563,621.2344 L510.6563,627.75 L510.75,627.75 C511.2188,627.75 511.3594,627.7813 511.5156,627.9063 C511.7344,628.0781 511.875,628.3281 511.875,628.6094 C511.875,628.8906 511.7188,629.1875 511.4688,629.3281 C511.3281,629.4219 511.1094,629.4531 510.75,629.4531 L508.7031,629.4531 C508.2969,629.4531 508.0938,629.4063 507.9375,629.2969 C507.7188,629.125 507.5781,628.8594 507.5781,628.6094 C507.5781,628.3125 507.7344,628.0313 507.9844,627.875 C508.1406,627.7656 508.2969,627.75 508.7031,627.75 L508.9531,627.75 Z "/><text fill="#000000" font-family="sans-serif" font-size="12" lengthAdjust="spacingAndGlyphs" textLength="101" x="521" y="628.6074">L1gradientAniso</text><line style="stroke: #A80036; stroke-width: 1.5;" x1="493" x2="624" y1="640.4531" y2="640.4531"/><line style="stroke: #A80036; stroke-width: 1.5;" x1="493" x2="624" y1="648.4531" y2="648.4531"/><ellipse cx="503" cy="660.3555" fill="#84BE84" rx="3" ry="3" style="stroke: #038048; stroke-width: 1.0;"/><text fill="#000000" font-family="sans-serif" font-size="11" lengthAdjust="spacingAndGlyphs" textLength="99" x="512" y="662.6636">L1gradientAniso()</text><!--class L1gradientDiffAniso--><rect fill="#FEFECE" filter="url(#fzg5c01)" height="60.8047" style="stroke: #A80036; stroke-width: 1.5;" width="153" x="1296" y="608.4531"/><ellipse cx="1311" cy="624.4531" fill="#E6FFE6" rx="11" ry="11" style="stroke: #A80036; stroke-width: 1.0;"/><path d="M1312.9531,625.3594 L1309.3125,625.3594 L1309.3125,627.75 L1309.5625,627.75 C1310.0156,627.75 1310.1875,627.7813 1310.3281,627.9063 C1310.5625,628.0781 1310.6875,628.3281 1310.6875,628.6094 C1310.6875,628.8906 1310.5313,629.1875 1310.2813,629.3281 C1310.1406,629.4219 1309.9219,629.4531 1309.5625,629.4531 L1307.5156,629.4531 C1307.1094,629.4531 1306.8906,629.4063 1306.7344,629.2969 C1306.5313,629.125 1306.3906,628.8594 1306.3906,628.6094 C1306.3906,628.3125 1306.5469,628.0313 1306.7969,627.875 C1306.9531,627.7656 1307.0938,627.75 1307.5156,627.75 L1307.6094,627.75 L1307.6094,621.2344 C1307.0469,621.1875 1306.7344,620.8906 1306.7344,620.3906 C1306.7344,620.1094 1306.8906,619.8125 1307.1406,619.6563 C1307.2969,619.5625 1307.4219,619.5469 1307.8594,619.5469 L1309.5625,619.5469 C1310.0313,619.5469 1310.1875,619.5781 1310.3281,619.6875 C1310.5625,619.8594 1310.6875,620.125 1310.6875,620.3906 C1310.6875,620.6875 1310.5313,620.9688 1310.2813,621.125 C1310.125,621.2031 1309.9844,621.2344 1309.5625,621.2344 L1309.3125,621.2344 L1309.3125,623.6563 L1312.9531,623.6563 L1312.9531,621.2344 L1312.7031,621.2344 C1312.25,621.2344 1312.1094,621.2031 1311.9375,621.0938 C1311.7188,620.9219 1311.5781,620.6719 1311.5781,620.3906 C1311.5781,620.1094 1311.7344,619.8125 1311.9844,619.6563 C1312.1406,619.5625 1312.2656,619.5469 1312.7031,619.5469 L1314.4219,619.5469 C1314.875,619.5469 1315.0313,619.5781 1315.2031,619.6875 C1315.4063,619.8594 1315.5313,620.125 1315.5313,620.3906 C1315.5313,620.8906 1315.2188,621.1875 1314.6563,621.2344 L1314.6563,627.75 L1314.75,627.75 C1315.2188,627.75 1315.3594,627.7813 1315.5156,627.9063 C1315.7344,628.0781 1315.875,628.3281 1315.875,628.6094 C1315.875,628.8906 1315.7188,629.1875 1315.4688,629.3281 C1315.3281,629.4219 1315.1094,629.4531 1314.75,629.4531 L1312.7031,629.4531 C1312.2969,629.4531 1312.0938,629.4063 1311.9375,629.2969 C1311.7188,629.125 1311.5781,628.8594 1311.5781,628.6094 C1311.5781,628.3125 1311.7344,628.0313 1311.9844,627.875 C1312.1406,627.7656 1312.2969,627.75 1312.7031,627.75 L1312.9531,627.75 Z "/><text fill="#000000" font-family="sans-serif" font-size="12" lengthAdjust="spacingAndGlyphs" textLength="121" x="1325" y="628.6074">L1gradientDiffAniso</text><line style="stroke: #A80036; stroke-width: 1.5;" x1="1297" x2="1448" y1="640.4531" y2="640.4531"/><line style="stroke: #A80036; stroke-width: 1.5;" x1="1297" x2="1448" y1="648.4531" y2="648.4531"/><ellipse cx="1307" cy="660.3555" fill="#84BE84" rx="3" ry="3" style="stroke: #038048; stroke-width: 1.0;"/><text fill="#000000" font-family="sans-serif" font-size="11" lengthAdjust="spacingAndGlyphs" textLength="118" x="1316" y="662.6636">L1gradientDiffAniso()</text><!--class L1gradientDiffIso--><rect fill="#FEFECE" filter="url(#fzg5c01)" height="60.8047" style="stroke: #A80036; stroke-width: 1.5;" width="137" x="1484" y="608.4531"/><ellipse cx="1499" cy="624.4531" fill="#E6FFE6" rx="11" ry="11" style="stroke: #A80036; stroke-width: 1.0;"/><path d="M1500.9531,625.3594 L1497.3125,625.3594 L1497.3125,627.75 L1497.5625,627.75 C1498.0156,627.75 1498.1875,627.7813 1498.3281,627.9063 C1498.5625,628.0781 1498.6875,628.3281 1498.6875,628.6094 C1498.6875,628.8906 1498.5313,629.1875 1498.2813,629.3281 C1498.1406,629.4219 1497.9219,629.4531 1497.5625,629.4531 L1495.5156,629.4531 C1495.1094,629.4531 1494.8906,629.4063 1494.7344,629.2969 C1494.5313,629.125 1494.3906,628.8594 1494.3906,628.6094 C1494.3906,628.3125 1494.5469,628.0313 1494.7969,627.875 C1494.9531,627.7656 1495.0938,627.75 1495.5156,627.75 L1495.6094,627.75 L1495.6094,621.2344 C1495.0469,621.1875 1494.7344,620.8906 1494.7344,620.3906 C1494.7344,620.1094 1494.8906,619.8125 1495.1406,619.6563 C1495.2969,619.5625 1495.4219,619.5469 1495.8594,619.5469 L1497.5625,619.5469 C1498.0313,619.5469 1498.1875,619.5781 1498.3281,619.6875 C1498.5625,619.8594 1498.6875,620.125 1498.6875,620.3906 C1498.6875,620.6875 1498.5313,620.9688 1498.2813,621.125 C1498.125,621.2031 1497.9844,621.2344 1497.5625,621.2344 L1497.3125,621.2344 L1497.3125,623.6563 L1500.9531,623.6563 L1500.9531,621.2344 L1500.7031,621.2344 C1500.25,621.2344 1500.1094,621.2031 1499.9375,621.0938 C1499.7188,620.9219 1499.5781,620.6719 1499.5781,620.3906 C1499.5781,620.1094 1499.7344,619.8125 1499.9844,619.6563 C1500.1406,619.5625 1500.2656,619.5469 1500.7031,619.5469 L1502.4219,619.5469 C1502.875,619.5469 1503.0313,619.5781 1503.2031,619.6875 C1503.4063,619.8594 1503.5313,620.125 1503.5313,620.3906 C1503.5313,620.8906 1503.2188,621.1875 1502.6563,621.2344 L1502.6563,627.75 L1502.75,627.75 C1503.2188,627.75 1503.3594,627.7813 1503.5156,627.9063 C1503.7344,628.0781 1503.875,628.3281 1503.875,628.6094 C1503.875,628.8906 1503.7188,629.1875 1503.4688,629.3281 C1503.3281,629.4219 1503.1094,629.4531 1502.75,629.4531 L1500.7031,629.4531 C1500.2969,629.4531 1500.0938,629.4063 1499.9375,629.2969 C1499.7188,629.125 1499.5781,628.8594 1499.5781,628.6094 C1499.5781,628.3125 1499.7344,628.0313 1499.9844,627.875 C1500.1406,627.7656 1500.2969,627.75 1500.7031,627.75 L1500.9531,627.75 Z "/><text fill="#000000" font-family="sans-serif" font-size="12" lengthAdjust="spacingAndGlyphs" textLength="105" x="1513" y="628.6074">L1gradientDiffIso</text><line style="stroke: #A80036; stroke-width: 1.5;" x1="1485" x2="1620" y1="640.4531" y2="640.4531"/><line style="stroke: #A80036; stroke-width: 1.5;" x1="1485" x2="1620" y1="648.4531" y2="648.4531"/><ellipse cx="1495" cy="660.3555" fill="#84BE84" rx="3" ry="3" style="stroke: #038048; stroke-width: 1.0;"/><text fill="#000000" font-family="sans-serif" font-size="11" lengthAdjust="spacingAndGlyphs" textLength="104" x="1504" y="662.6636">L1gradientDiffIso()</text><!--class L1gradientIso--><rect fill="#FEFECE" filter="url(#fzg5c01)" height="60.8047" style="stroke: #A80036; stroke-width: 1.5;" width="117" x="910" y="608.4531"/><ellipse cx="925" cy="624.4531" fill="#E6FFE6" rx="11" ry="11" style="stroke: #A80036; stroke-width: 1.0;"/><path d="M926.9531,625.3594 L923.3125,625.3594 L923.3125,627.75 L923.5625,627.75 C924.0156,627.75 924.1875,627.7813 924.3281,627.9063 C924.5625,628.0781 924.6875,628.3281 924.6875,628.6094 C924.6875,628.8906 924.5313,629.1875 924.2813,629.3281 C924.1406,629.4219 923.9219,629.4531 923.5625,629.4531 L921.5156,629.4531 C921.1094,629.4531 920.8906,629.4063 920.7344,629.2969 C920.5313,629.125 920.3906,628.8594 920.3906,628.6094 C920.3906,628.3125 920.5469,628.0313 920.7969,627.875 C920.9531,627.7656 921.0938,627.75 921.5156,627.75 L921.6094,627.75 L921.6094,621.2344 C921.0469,621.1875 920.7344,620.8906 920.7344,620.3906 C920.7344,620.1094 920.8906,619.8125 921.1406,619.6563 C921.2969,619.5625 921.4219,619.5469 921.8594,619.5469 L923.5625,619.5469 C924.0313,619.5469 924.1875,619.5781 924.3281,619.6875 C924.5625,619.8594 924.6875,620.125 924.6875,620.3906 C924.6875,620.6875 924.5313,620.9688 924.2813,621.125 C924.125,621.2031 923.9844,621.2344 923.5625,621.2344 L923.3125,621.2344 L923.3125,623.6563 L926.9531,623.6563 L926.9531,621.2344 L926.7031,621.2344 C926.25,621.2344 926.1094,621.2031 925.9375,621.0938 C925.7188,620.9219 925.5781,620.6719 925.5781,620.3906 C925.5781,620.1094 925.7344,619.8125 925.9844,619.6563 C926.1406,619.5625 926.2656,619.5469 926.7031,619.5469 L928.4219,619.5469 C928.875,619.5469 929.0313,619.5781 929.2031,619.6875 C929.4063,619.8594 929.5313,620.125 929.5313,620.3906 C929.5313,620.8906 929.2188,621.1875 928.6563,621.2344 L928.6563,627.75 L928.75,627.75 C929.2188,627.75 929.3594,627.7813 929.5156,627.9063 C929.7344,628.0781 929.875,628.3281 929.875,628.6094 C929.875,628.8906 929.7188,629.1875 929.4688,629.3281 C929.3281,629.4219 929.1094,629.4531 928.75,629.4531 L926.7031,629.4531 C926.2969,629.4531 926.0938,629.4063 925.9375,629.2969 C925.7188,629.125 925.5781,628.8594 925.5781,628.6094 C925.5781,628.3125 925.7344,628.0313 925.9844,627.875 C926.1406,627.7656 926.2969,627.75 926.7031,627.75 L926.9531,627.75 Z "/><text fill="#000000" font-family="sans-serif" font-size="12" lengthAdjust="spacingAndGlyphs" textLength="85" x="939" y="628.6074">L1gradientIso</text><line style="stroke: #A80036; stroke-width: 1.5;" x1="911" x2="1026" y1="640.4531" y2="640.4531"/><line style="stroke: #A80036; stroke-width: 1.5;" x1="911" x2="1026" y1="648.4531" y2="648.4531"/><ellipse cx="921" cy="660.3555" fill="#84BE84" rx="3" ry="3" style="stroke: #038048; stroke-width: 1.0;"/><text fill="#000000" font-family="sans-serif" font-size="11" lengthAdjust="spacingAndGlyphs" textLength="85" x="930" y="662.6636">L1gradientIso()</text><!--class L1secondOrderGradientAniso--><rect fill="#FEFECE" filter="url(#fzg5c01)" height="60.8047" style="stroke: #A80036; stroke-width: 1.5;" width="215" x="660" y="608.4531"/><ellipse cx="675" cy="624.4531" fill="#E6FFE6" rx="11" ry="11" style="stroke: #A80036; stroke-width: 1.0;"/><path d="M676.9531,625.3594 L673.3125,625.3594 L673.3125,627.75 L673.5625,627.75 C674.0156,627.75 674.1875,627.7813 674.3281,627.9063 C674.5625,628.0781 674.6875,628.3281 674.6875,628.6094 C674.6875,628.8906 674.5313,629.1875 674.2813,629.3281 C674.1406,629.4219 673.9219,629.4531 673.5625,629.4531 L671.5156,629.4531 C671.1094,629.4531 670.8906,629.4063 670.7344,629.2969 C670.5313,629.125 670.3906,628.8594 670.3906,628.6094 C670.3906,628.3125 670.5469,628.0313 670.7969,627.875 C670.9531,627.7656 671.0938,627.75 671.5156,627.75 L671.6094,627.75 L671.6094,621.2344 C671.0469,621.1875 670.7344,620.8906 670.7344,620.3906 C670.7344,620.1094 670.8906,619.8125 671.1406,619.6563 C671.2969,619.5625 671.4219,619.5469 671.8594,619.5469 L673.5625,619.5469 C674.0313,619.5469 674.1875,619.5781 674.3281,619.6875 C674.5625,619.8594 674.6875,620.125 674.6875,620.3906 C674.6875,620.6875 674.5313,620.9688 674.2813,621.125 C674.125,621.2031 673.9844,621.2344 673.5625,621.2344 L673.3125,621.2344 L673.3125,623.6563 L676.9531,623.6563 L676.9531,621.2344 L676.7031,621.2344 C676.25,621.2344 676.1094,621.2031 675.9375,621.0938 C675.7188,620.9219 675.5781,620.6719 675.5781,620.3906 C675.5781,620.1094 675.7344,619.8125 675.9844,619.6563 C676.1406,619.5625 676.2656,619.5469 676.7031,619.5469 L678.4219,619.5469 C678.875,619.5469 679.0313,619.5781 679.2031,619.6875 C679.4063,619.8594 679.5313,620.125 679.5313,620.3906 C679.5313,620.8906 679.2188,621.1875 678.6563,621.2344 L678.6563,627.75 L678.75,627.75 C679.2188,627.75 679.3594,627.7813 679.5156,627.9063 C679.7344,628.0781 679.875,628.3281 679.875,628.6094 C679.875,628.8906 679.7188,629.1875 679.4688,629.3281 C679.3281,629.4219 679.1094,629.4531 678.75,629.4531 L676.7031,629.4531 C676.2969,629.4531 676.0938,629.4063 675.9375,629.2969 C675.7188,629.125 675.5781,628.8594 675.5781,628.6094 C675.5781,628.3125 675.7344,628.0313 675.9844,627.875 C676.1406,627.7656 676.2969,627.75 676.7031,627.75 L676.9531,627.75 Z "/><text fill="#000000" font-family="sans-serif" font-size="12" lengthAdjust="spacingAndGlyphs" textLength="183" x="689" y="628.6074">L1secondOrderGradientAniso</text><line style="stroke: #A80036; stroke-width: 1.5;" x1="661" x2="874" y1="640.4531" y2="640.4531"/><line style="stroke: #A80036; stroke-width: 1.5;" x1="661" x2="874" y1="648.4531" y2="648.4531"/><ellipse cx="671" cy="660.3555" fill="#84BE84" rx="3" ry="3" style="stroke: #038048; stroke-width: 1.0;"/><text fill="#000000" font-family="sans-serif" font-size="11" lengthAdjust="spacingAndGlyphs" textLength="175" x="680" y="662.6636">L1secondOrderGradientAniso()</text><!--class L1secondOrderGradientIso--><rect fill="#FEFECE" filter="url(#fzg5c01)" height="60.8047" style="stroke: #A80036; stroke-width: 1.5;" width="199" x="1062" y="608.4531"/><ellipse cx="1077" cy="624.4531" fill="#E6FFE6" rx="11" ry="11" style="stroke: #A80036; stroke-width: 1.0;"/><path d="M1078.9531,625.3594 L1075.3125,625.3594 L1075.3125,627.75 L1075.5625,627.75 C1076.0156,627.75 1076.1875,627.7813 1076.3281,627.9063 C1076.5625,628.0781 1076.6875,628.3281 1076.6875,628.6094 C1076.6875,628.8906 1076.5313,629.1875 1076.2813,629.3281 C1076.1406,629.4219 1075.9219,629.4531 1075.5625,629.4531 L1073.5156,629.4531 C1073.1094,629.4531 1072.8906,629.4063 1072.7344,629.2969 C1072.5313,629.125 1072.3906,628.8594 1072.3906,628.6094 C1072.3906,628.3125 1072.5469,628.0313 1072.7969,627.875 C1072.9531,627.7656 1073.0938,627.75 1073.5156,627.75 L1073.6094,627.75 L1073.6094,621.2344 C1073.0469,621.1875 1072.7344,620.8906 1072.7344,620.3906 C1072.7344,620.1094 1072.8906,619.8125 1073.1406,619.6563 C1073.2969,619.5625 1073.4219,619.5469 1073.8594,619.5469 L1075.5625,619.5469 C1076.0313,619.5469 1076.1875,619.5781 1076.3281,619.6875 C1076.5625,619.8594 1076.6875,620.125 1076.6875,620.3906 C1076.6875,620.6875 1076.5313,620.9688 1076.2813,621.125 C1076.125,621.2031 1075.9844,621.2344 1075.5625,621.2344 L1075.3125,621.2344 L1075.3125,623.6563 L1078.9531,623.6563 L1078.9531,621.2344 L1078.7031,621.2344 C1078.25,621.2344 1078.1094,621.2031 1077.9375,621.0938 C1077.7188,620.9219 1077.5781,620.6719 1077.5781,620.3906 C1077.5781,620.1094 1077.7344,619.8125 1077.9844,619.6563 C1078.1406,619.5625 1078.2656,619.5469 1078.7031,619.5469 L1080.4219,619.5469 C1080.875,619.5469 1081.0313,619.5781 1081.2031,619.6875 C1081.4063,619.8594 1081.5313,620.125 1081.5313,620.3906 C1081.5313,620.8906 1081.2188,621.1875 1080.6563,621.2344 L1080.6563,627.75 L1080.75,627.75 C1081.2188,627.75 1081.3594,627.7813 1081.5156,627.9063 C1081.7344,628.0781 1081.875,628.3281 1081.875,628.6094 C1081.875,628.8906 1081.7188,629.1875 1081.4688,629.3281 C1081.3281,629.4219 1081.1094,629.4531 1080.75,629.4531 L1078.7031,629.4531 C1078.2969,629.4531 1078.0938,629.4063 1077.9375,629.2969 C1077.7188,629.125 1077.5781,628.8594 1077.5781,628.6094 C1077.5781,628.3125 1077.7344,628.0313 1077.9844,627.875 C1078.1406,627.7656 1078.2969,627.75 1078.7031,627.75 L1078.9531,627.75 Z "/><text fill="#000000" font-family="sans-serif" font-size="12" lengthAdjust="spacingAndGlyphs" textLength="167" x="1091" y="628.6074">L1secondOrderGradientIso</text><line style="stroke: #A80036; stroke-width: 1.5;" x1="1063" x2="1260" y1="640.4531" y2="640.4531"/><line style="stroke: #A80036; stroke-width: 1.5;" x1="1063" x2="1260" y1="648.4531" y2="648.4531"/><ellipse cx="1073" cy="660.3555" fill="#84BE84" rx="3" ry="3" style="stroke: #038048; stroke-width: 1.0;"/><text fill="#000000" font-family="sans-serif" font-size="11" lengthAdjust="spacingAndGlyphs" textLength="161" x="1082" y="662.6636">L1secondOrderGradientIso()</text><!--class L2gradient--><rect fill="#FEFECE" filter="url(#fzg5c01)" height="60.8047" style="stroke: #A80036; stroke-width: 1.5;" width="99" x="14" y="608.4531"/><ellipse cx="29" cy="624.4531" fill="#E6FFE6" rx="11" ry="11" style="stroke: #A80036; stroke-width: 1.0;"/><path d="M30.9531,625.3594 L27.3125,625.3594 L27.3125,627.75 L27.5625,627.75 C28.0156,627.75 28.1875,627.7813 28.3281,627.9063 C28.5625,628.0781 28.6875,628.3281 28.6875,628.6094 C28.6875,628.8906 28.5313,629.1875 28.2813,629.3281 C28.1406,629.4219 27.9219,629.4531 27.5625,629.4531 L25.5156,629.4531 C25.1094,629.4531 24.8906,629.4063 24.7344,629.2969 C24.5313,629.125 24.3906,628.8594 24.3906,628.6094 C24.3906,628.3125 24.5469,628.0313 24.7969,627.875 C24.9531,627.7656 25.0938,627.75 25.5156,627.75 L25.6094,627.75 L25.6094,621.2344 C25.0469,621.1875 24.7344,620.8906 24.7344,620.3906 C24.7344,620.1094 24.8906,619.8125 25.1406,619.6563 C25.2969,619.5625 25.4219,619.5469 25.8594,619.5469 L27.5625,619.5469 C28.0313,619.5469 28.1875,619.5781 28.3281,619.6875 C28.5625,619.8594 28.6875,620.125 28.6875,620.3906 C28.6875,620.6875 28.5313,620.9688 28.2813,621.125 C28.125,621.2031 27.9844,621.2344 27.5625,621.2344 L27.3125,621.2344 L27.3125,623.6563 L30.9531,623.6563 L30.9531,621.2344 L30.7031,621.2344 C30.25,621.2344 30.1094,621.2031 29.9375,621.0938 C29.7188,620.9219 29.5781,620.6719 29.5781,620.3906 C29.5781,620.1094 29.7344,619.8125 29.9844,619.6563 C30.1406,619.5625 30.2656,619.5469 30.7031,619.5469 L32.4219,619.5469 C32.875,619.5469 33.0313,619.5781 33.2031,619.6875 C33.4063,619.8594 33.5313,620.125 33.5313,620.3906 C33.5313,620.8906 33.2188,621.1875 32.6563,621.2344 L32.6563,627.75 L32.75,627.75 C33.2188,627.75 33.3594,627.7813 33.5156,627.9063 C33.7344,628.0781 33.875,628.3281 33.875,628.6094 C33.875,628.8906 33.7188,629.1875 33.4688,629.3281 C33.3281,629.4219 33.1094,629.4531 32.75,629.4531 L30.7031,629.4531 C30.2969,629.4531 30.0938,629.4063 29.9375,629.2969 C29.7188,629.125 29.5781,628.8594 29.5781,628.6094 C29.5781,628.3125 29.7344,628.0313 29.9844,627.875 C30.1406,627.7656 30.2969,627.75 30.7031,627.75 L30.9531,627.75 Z "/><text fill="#000000" font-family="sans-serif" font-size="12" lengthAdjust="spacingAndGlyphs" textLength="67" x="43" y="628.6074">L2gradient</text><line style="stroke: #A80036; stroke-width: 1.5;" x1="15" x2="112" y1="640.4531" y2="640.4531"/><line style="stroke: #A80036; stroke-width: 1.5;" x1="15" x2="112" y1="648.4531" y2="648.4531"/><ellipse cx="25" cy="660.3555" fill="#84BE84" rx="3" ry="3" style="stroke: #038048; stroke-width: 1.0;"/><text fill="#000000" font-family="sans-serif" font-size="11" lengthAdjust="spacingAndGlyphs" textLength="68" x="34" y="662.6636">L2gradient()</text><!--class tildeMultiOperatorMultiDual--><rect fill="#FEFECE" filter="url(#fzg5c01)" height="99.2188" style="stroke: #A80036; stroke-width: 1.5;" width="201" x="778" y="162.4531"/><ellipse cx="793" cy="178.4531" fill="#E6FFE6" rx="11" ry="11" style="stroke: #A80036; stroke-width: 1.0;"/><path d="M794.9531,179.3594 L791.3125,179.3594 L791.3125,181.75 L791.5625,181.75 C792.0156,181.75 792.1875,181.7813 792.3281,181.9063 C792.5625,182.0781 792.6875,182.3281 792.6875,182.6094 C792.6875,182.8906 792.5313,183.1875 792.2813,183.3281 C792.1406,183.4219 791.9219,183.4531 791.5625,183.4531 L789.5156,183.4531 C789.1094,183.4531 788.8906,183.4063 788.7344,183.2969 C788.5313,183.125 788.3906,182.8594 788.3906,182.6094 C788.3906,182.3125 788.5469,182.0313 788.7969,181.875 C788.9531,181.7656 789.0938,181.75 789.5156,181.75 L789.6094,181.75 L789.6094,175.2344 C789.0469,175.1875 788.7344,174.8906 788.7344,174.3906 C788.7344,174.1094 788.8906,173.8125 789.1406,173.6563 C789.2969,173.5625 789.4219,173.5469 789.8594,173.5469 L791.5625,173.5469 C792.0313,173.5469 792.1875,173.5781 792.3281,173.6875 C792.5625,173.8594 792.6875,174.125 792.6875,174.3906 C792.6875,174.6875 792.5313,174.9688 792.2813,175.125 C792.125,175.2031 791.9844,175.2344 791.5625,175.2344 L791.3125,175.2344 L791.3125,177.6563 L794.9531,177.6563 L794.9531,175.2344 L794.7031,175.2344 C794.25,175.2344 794.1094,175.2031 793.9375,175.0938 C793.7188,174.9219 793.5781,174.6719 793.5781,174.3906 C793.5781,174.1094 793.7344,173.8125 793.9844,173.6563 C794.1406,173.5625 794.2656,173.5469 794.7031,173.5469 L796.4219,173.5469 C796.875,173.5469 797.0313,173.5781 797.2031,173.6875 C797.4063,173.8594 797.5313,174.125 797.5313,174.3906 C797.5313,174.8906 797.2188,175.1875 796.6563,175.2344 L796.6563,181.75 L796.75,181.75 C797.2188,181.75 797.3594,181.7813 797.5156,181.9063 C797.7344,182.0781 797.875,182.3281 797.875,182.6094 C797.875,182.8906 797.7188,183.1875 797.4688,183.3281 C797.3281,183.4219 797.1094,183.4531 796.75,183.4531 L794.7031,183.4531 C794.2969,183.4531 794.0938,183.4063 793.9375,183.2969 C793.7188,183.125 793.5781,182.8594 793.5781,182.6094 C793.5781,182.3125 793.7344,182.0313 793.9844,181.875 C794.1406,181.7656 794.2969,181.75 794.7031,181.75 L794.9531,181.75 Z "/><text fill="#000000" font-family="sans-serif" font-size="12" lengthAdjust="spacingAndGlyphs" textLength="169" x="807" y="182.6074">tildeMultiOperatorMultiDual</text><line style="stroke: #A80036; stroke-width: 1.5;" x1="779" x2="978" y1="194.4531" y2="194.4531"/><line style="stroke: #A80036; stroke-width: 1.5;" x1="779" x2="978" y1="202.4531" y2="202.4531"/><ellipse cx="789" cy="214.3555" fill="#84BE84" rx="3" ry="3" style="stroke: #038048; stroke-width: 1.0;"/><text fill="#000000" font-family="sans-serif" font-size="11" lengthAdjust="spacingAndGlyphs" textLength="43" x="798" y="216.6636">xError()</text><ellipse cx="789" cy="227.1602" fill="#84BE84" rx="3" ry="3" style="stroke: #038048; stroke-width: 1.0;"/><text fill="#000000" font-family="sans-serif" font-size="11" lengthAdjust="spacingAndGlyphs" textLength="41" x="798" y="229.4683">xTilde()</text><ellipse cx="789" cy="239.9648" fill="#84BE84" rx="3" ry="3" style="stroke: #038048; stroke-width: 1.0;"/><text fill="#000000" font-family="sans-serif" font-size="11" lengthAdjust="spacingAndGlyphs" textLength="43" x="798" y="242.2729">yError()</text><ellipse cx="789" cy="252.7695" fill="#84BE84" rx="3" ry="3" style="stroke: #038048; stroke-width: 1.0;"/><text fill="#000000" font-family="sans-serif" font-size="11" lengthAdjust="spacingAndGlyphs" textLength="41" x="798" y="255.0776">yTilde()</text><!--class FrobeniusProxDual--><rect fill="#FEFECE" filter="url(#fzg5c01)" height="73.6094" style="stroke: #A80036; stroke-width: 1.5;" width="149" x="142" y="467.9531"/><ellipse cx="157" cy="483.9531" fill="#E6FFE6" rx="11" ry="11" style="stroke: #A80036; stroke-width: 1.0;"/><path d="M158.9531,484.8594 L155.3125,484.8594 L155.3125,487.25 L155.5625,487.25 C156.0156,487.25 156.1875,487.2813 156.3281,487.4063 C156.5625,487.5781 156.6875,487.8281 156.6875,488.1094 C156.6875,488.3906 156.5313,488.6875 156.2813,488.8281 C156.1406,488.9219 155.9219,488.9531 155.5625,488.9531 L153.5156,488.9531 C153.1094,488.9531 152.8906,488.9063 152.7344,488.7969 C152.5313,488.625 152.3906,488.3594 152.3906,488.1094 C152.3906,487.8125 152.5469,487.5313 152.7969,487.375 C152.9531,487.2656 153.0938,487.25 153.5156,487.25 L153.6094,487.25 L153.6094,480.7344 C153.0469,480.6875 152.7344,480.3906 152.7344,479.8906 C152.7344,479.6094 152.8906,479.3125 153.1406,479.1563 C153.2969,479.0625 153.4219,479.0469 153.8594,479.0469 L155.5625,479.0469 C156.0313,479.0469 156.1875,479.0781 156.3281,479.1875 C156.5625,479.3594 156.6875,479.625 156.6875,479.8906 C156.6875,480.1875 156.5313,480.4688 156.2813,480.625 C156.125,480.7031 155.9844,480.7344 155.5625,480.7344 L155.3125,480.7344 L155.3125,483.1563 L158.9531,483.1563 L158.9531,480.7344 L158.7031,480.7344 C158.25,480.7344 158.1094,480.7031 157.9375,480.5938 C157.7188,480.4219 157.5781,480.1719 157.5781,479.8906 C157.5781,479.6094 157.7344,479.3125 157.9844,479.1563 C158.1406,479.0625 158.2656,479.0469 158.7031,479.0469 L160.4219,479.0469 C160.875,479.0469 161.0313,479.0781 161.2031,479.1875 C161.4063,479.3594 161.5313,479.625 161.5313,479.8906 C161.5313,480.3906 161.2188,480.6875 160.6563,480.7344 L160.6563,487.25 L160.75,487.25 C161.2188,487.25 161.3594,487.2813 161.5156,487.4063 C161.7344,487.5781 161.875,487.8281 161.875,488.1094 C161.875,488.3906 161.7188,488.6875 161.4688,488.8281 C161.3281,488.9219 161.1094,488.9531 160.75,488.9531 L158.7031,488.9531 C158.2969,488.9531 158.0938,488.9063 157.9375,488.7969 C157.7188,488.625 157.5781,488.3594 157.5781,488.1094 C157.5781,487.8125 157.7344,487.5313 157.9844,487.375 C158.1406,487.2656 158.2969,487.25 158.7031,487.25 L158.9531,487.25 Z "/><text fill="#000000" font-family="sans-serif" font-size="12" lengthAdjust="spacingAndGlyphs" textLength="117" x="171" y="488.1074">FrobeniusProxDual</text><line style="stroke: #A80036; stroke-width: 1.5;" x1="143" x2="290" y1="499.9531" y2="499.9531"/><line style="stroke: #A80036; stroke-width: 1.5;" x1="143" x2="290" y1="507.9531" y2="507.9531"/><ellipse cx="153" cy="519.8555" fill="#84BE84" rx="3" ry="3" style="stroke: #038048; stroke-width: 1.0;"/><text fill="#000000" font-family="sans-serif" font-size="11" lengthAdjust="spacingAndGlyphs" textLength="114" x="162" y="522.1636">FrobeniusProxDual()</text><ellipse cx="153" cy="532.6602" fill="#84BE84" rx="3" ry="3" style="stroke: #038048; stroke-width: 1.0;"/><text fill="#000000" font-family="sans-serif" font-size="11" lengthAdjust="spacingAndGlyphs" textLength="63" x="162" y="534.9683">applyProx()</text><!--class L1HuberProxDual--><rect fill="#FEFECE" filter="url(#fzg5c01)" height="73.6094" style="stroke: #A80036; stroke-width: 1.5;" width="139" x="326" y="467.9531"/><ellipse cx="341" cy="483.9531" fill="#E6FFE6" rx="11" ry="11" style="stroke: #A80036; stroke-width: 1.0;"/><path d="M342.9531,484.8594 L339.3125,484.8594 L339.3125,487.25 L339.5625,487.25 C340.0156,487.25 340.1875,487.2813 340.3281,487.4063 C340.5625,487.5781 340.6875,487.8281 340.6875,488.1094 C340.6875,488.3906 340.5313,488.6875 340.2813,488.8281 C340.1406,488.9219 339.9219,488.9531 339.5625,488.9531 L337.5156,488.9531 C337.1094,488.9531 336.8906,488.9063 336.7344,488.7969 C336.5313,488.625 336.3906,488.3594 336.3906,488.1094 C336.3906,487.8125 336.5469,487.5313 336.7969,487.375 C336.9531,487.2656 337.0938,487.25 337.5156,487.25 L337.6094,487.25 L337.6094,480.7344 C337.0469,480.6875 336.7344,480.3906 336.7344,479.8906 C336.7344,479.6094 336.8906,479.3125 337.1406,479.1563 C337.2969,479.0625 337.4219,479.0469 337.8594,479.0469 L339.5625,479.0469 C340.0313,479.0469 340.1875,479.0781 340.3281,479.1875 C340.5625,479.3594 340.6875,479.625 340.6875,479.8906 C340.6875,480.1875 340.5313,480.4688 340.2813,480.625 C340.125,480.7031 339.9844,480.7344 339.5625,480.7344 L339.3125,480.7344 L339.3125,483.1563 L342.9531,483.1563 L342.9531,480.7344 L342.7031,480.7344 C342.25,480.7344 342.1094,480.7031 341.9375,480.5938 C341.7188,480.4219 341.5781,480.1719 341.5781,479.8906 C341.5781,479.6094 341.7344,479.3125 341.9844,479.1563 C342.1406,479.0625 342.2656,479.0469 342.7031,479.0469 L344.4219,479.0469 C344.875,479.0469 345.0313,479.0781 345.2031,479.1875 C345.4063,479.3594 345.5313,479.625 345.5313,479.8906 C345.5313,480.3906 345.2188,480.6875 344.6563,480.7344 L344.6563,487.25 L344.75,487.25 C345.2188,487.25 345.3594,487.2813 345.5156,487.4063 C345.7344,487.5781 345.875,487.8281 345.875,488.1094 C345.875,488.3906 345.7188,488.6875 345.4688,488.8281 C345.3281,488.9219 345.1094,488.9531 344.75,488.9531 L342.7031,488.9531 C342.2969,488.9531 342.0938,488.9063 341.9375,488.7969 C341.7188,488.625 341.5781,488.3594 341.5781,488.1094 C341.5781,487.8125 341.7344,487.5313 341.9844,487.375 C342.1406,487.2656 342.2969,487.25 342.7031,487.25 L342.9531,487.25 Z "/><text fill="#000000" font-family="sans-serif" font-size="12" lengthAdjust="spacingAndGlyphs" textLength="107" x="355" y="488.1074">L1HuberProxDual</text><line style="stroke: #A80036; stroke-width: 1.5;" x1="327" x2="464" y1="499.9531" y2="499.9531"/><line style="stroke: #A80036; stroke-width: 1.5;" x1="327" x2="464" y1="507.9531" y2="507.9531"/><ellipse cx="337" cy="519.8555" fill="#84BE84" rx="3" ry="3" style="stroke: #038048; stroke-width: 1.0;"/><text fill="#000000" font-family="sans-serif" font-size="11" lengthAdjust="spacingAndGlyphs" textLength="105" x="346" y="522.1636">L1HuberProxDual()</text><ellipse cx="337" cy="532.6602" fill="#84BE84" rx="3" ry="3" style="stroke: #038048; stroke-width: 1.0;"/><text fill="#000000" font-family="sans-serif" font-size="11" lengthAdjust="spacingAndGlyphs" textLength="63" x="346" y="534.9683">applyProx()</text><!--class L1AnisoProxDual--><rect fill="#FEFECE" filter="url(#fzg5c01)" height="73.6094" style="stroke: #A80036; stroke-width: 1.5;" width="135" x="698" y="467.9531"/><ellipse cx="713" cy="483.9531" fill="#E6FFE6" rx="11" ry="11" style="stroke: #A80036; stroke-width: 1.0;"/><path d="M714.9531,484.8594 L711.3125,484.8594 L711.3125,487.25 L711.5625,487.25 C712.0156,487.25 712.1875,487.2813 712.3281,487.4063 C712.5625,487.5781 712.6875,487.8281 712.6875,488.1094 C712.6875,488.3906 712.5313,488.6875 712.2813,488.8281 C712.1406,488.9219 711.9219,488.9531 711.5625,488.9531 L709.5156,488.9531 C709.1094,488.9531 708.8906,488.9063 708.7344,488.7969 C708.5313,488.625 708.3906,488.3594 708.3906,488.1094 C708.3906,487.8125 708.5469,487.5313 708.7969,487.375 C708.9531,487.2656 709.0938,487.25 709.5156,487.25 L709.6094,487.25 L709.6094,480.7344 C709.0469,480.6875 708.7344,480.3906 708.7344,479.8906 C708.7344,479.6094 708.8906,479.3125 709.1406,479.1563 C709.2969,479.0625 709.4219,479.0469 709.8594,479.0469 L711.5625,479.0469 C712.0313,479.0469 712.1875,479.0781 712.3281,479.1875 C712.5625,479.3594 712.6875,479.625 712.6875,479.8906 C712.6875,480.1875 712.5313,480.4688 712.2813,480.625 C712.125,480.7031 711.9844,480.7344 711.5625,480.7344 L711.3125,480.7344 L711.3125,483.1563 L714.9531,483.1563 L714.9531,480.7344 L714.7031,480.7344 C714.25,480.7344 714.1094,480.7031 713.9375,480.5938 C713.7188,480.4219 713.5781,480.1719 713.5781,479.8906 C713.5781,479.6094 713.7344,479.3125 713.9844,479.1563 C714.1406,479.0625 714.2656,479.0469 714.7031,479.0469 L716.4219,479.0469 C716.875,479.0469 717.0313,479.0781 717.2031,479.1875 C717.4063,479.3594 717.5313,479.625 717.5313,479.8906 C717.5313,480.3906 717.2188,480.6875 716.6563,480.7344 L716.6563,487.25 L716.75,487.25 C717.2188,487.25 717.3594,487.2813 717.5156,487.4063 C717.7344,487.5781 717.875,487.8281 717.875,488.1094 C717.875,488.3906 717.7188,488.6875 717.4688,488.8281 C717.3281,488.9219 717.1094,488.9531 716.75,488.9531 L714.7031,488.9531 C714.2969,488.9531 714.0938,488.9063 713.9375,488.7969 C713.7188,488.625 713.5781,488.3594 713.5781,488.1094 C713.5781,487.8125 713.7344,487.5313 713.9844,487.375 C714.1406,487.2656 714.2969,487.25 714.7031,487.25 L714.9531,487.25 Z "/><text fill="#000000" font-family="sans-serif" font-size="12" lengthAdjust="spacingAndGlyphs" textLength="103" x="727" y="488.1074">L1AnisoProxDual</text><line style="stroke: #A80036; stroke-width: 1.5;" x1="699" x2="832" y1="499.9531" y2="499.9531"/><line style="stroke: #A80036; stroke-width: 1.5;" x1="699" x2="832" y1="507.9531" y2="507.9531"/><ellipse cx="709" cy="519.8555" fill="#84BE84" rx="3" ry="3" style="stroke: #038048; stroke-width: 1.0;"/><text fill="#000000" font-family="sans-serif" font-size="11" lengthAdjust="spacingAndGlyphs" textLength="102" x="718" y="522.1636">L1AnisoProxDual()</text><ellipse cx="709" cy="532.6602" fill="#84BE84" rx="3" ry="3" style="stroke: #038048; stroke-width: 1.0;"/><text fill="#000000" font-family="sans-serif" font-size="11" lengthAdjust="spacingAndGlyphs" textLength="63" x="718" y="534.9683">applyProx()</text><!--class L1IsoProxDual--><rect fill="#FEFECE" filter="url(#fzg5c01)" height="73.6094" style="stroke: #A80036; stroke-width: 1.5;" width="119" x="1104" y="467.9531"/><ellipse cx="1119" cy="483.9531" fill="#E6FFE6" rx="11" ry="11" style="stroke: #A80036; stroke-width: 1.0;"/><path d="M1120.9531,484.8594 L1117.3125,484.8594 L1117.3125,487.25 L1117.5625,487.25 C1118.0156,487.25 1118.1875,487.2813 1118.3281,487.4063 C1118.5625,487.5781 1118.6875,487.8281 1118.6875,488.1094 C1118.6875,488.3906 1118.5313,488.6875 1118.2813,488.8281 C1118.1406,488.9219 1117.9219,488.9531 1117.5625,488.9531 L1115.5156,488.9531 C1115.1094,488.9531 1114.8906,488.9063 1114.7344,488.7969 C1114.5313,488.625 1114.3906,488.3594 1114.3906,488.1094 C1114.3906,487.8125 1114.5469,487.5313 1114.7969,487.375 C1114.9531,487.2656 1115.0938,487.25 1115.5156,487.25 L1115.6094,487.25 L1115.6094,480.7344 C1115.0469,480.6875 1114.7344,480.3906 1114.7344,479.8906 C1114.7344,479.6094 1114.8906,479.3125 1115.1406,479.1563 C1115.2969,479.0625 1115.4219,479.0469 1115.8594,479.0469 L1117.5625,479.0469 C1118.0313,479.0469 1118.1875,479.0781 1118.3281,479.1875 C1118.5625,479.3594 1118.6875,479.625 1118.6875,479.8906 C1118.6875,480.1875 1118.5313,480.4688 1118.2813,480.625 C1118.125,480.7031 1117.9844,480.7344 1117.5625,480.7344 L1117.3125,480.7344 L1117.3125,483.1563 L1120.9531,483.1563 L1120.9531,480.7344 L1120.7031,480.7344 C1120.25,480.7344 1120.1094,480.7031 1119.9375,480.5938 C1119.7188,480.4219 1119.5781,480.1719 1119.5781,479.8906 C1119.5781,479.6094 1119.7344,479.3125 1119.9844,479.1563 C1120.1406,479.0625 1120.2656,479.0469 1120.7031,479.0469 L1122.4219,479.0469 C1122.875,479.0469 1123.0313,479.0781 1123.2031,479.1875 C1123.4063,479.3594 1123.5313,479.625 1123.5313,479.8906 C1123.5313,480.3906 1123.2188,480.6875 1122.6563,480.7344 L1122.6563,487.25 L1122.75,487.25 C1123.2188,487.25 1123.3594,487.2813 1123.5156,487.4063 C1123.7344,487.5781 1123.875,487.8281 1123.875,488.1094 C1123.875,488.3906 1123.7188,488.6875 1123.4688,488.8281 C1123.3281,488.9219 1123.1094,488.9531 1122.75,488.9531 L1120.7031,488.9531 C1120.2969,488.9531 1120.0938,488.9063 1119.9375,488.7969 C1119.7188,488.625 1119.5781,488.3594 1119.5781,488.1094 C1119.5781,487.8125 1119.7344,487.5313 1119.9844,487.375 C1120.1406,487.2656 1120.2969,487.25 1120.7031,487.25 L1120.9531,487.25 Z "/><text fill="#000000" font-family="sans-serif" font-size="12" lengthAdjust="spacingAndGlyphs" textLength="87" x="1133" y="488.1074">L1IsoProxDual</text><line style="stroke: #A80036; stroke-width: 1.5;" x1="1105" x2="1222" y1="499.9531" y2="499.9531"/><line style="stroke: #A80036; stroke-width: 1.5;" x1="1105" x2="1222" y1="507.9531" y2="507.9531"/><ellipse cx="1115" cy="519.8555" fill="#84BE84" rx="3" ry="3" style="stroke: #038048; stroke-width: 1.0;"/><text fill="#000000" font-family="sans-serif" font-size="11" lengthAdjust="spacingAndGlyphs" textLength="88" x="1124" y="522.1636">L1IsoProxDual()</text><ellipse cx="1115" cy="532.6602" fill="#84BE84" rx="3" ry="3" style="stroke: #038048; stroke-width: 1.0;"/><text fill="#000000" font-family="sans-serif" font-size="11" lengthAdjust="spacingAndGlyphs" textLength="63" x="1124" y="534.9683">applyProx()</text><!--class L2proxDual--><rect fill="#FEFECE" filter="url(#fzg5c01)" height="73.6094" style="stroke: #A80036; stroke-width: 1.5;" width="101" x="6" y="467.9531"/><ellipse cx="21" cy="483.9531" fill="#E6FFE6" rx="11" ry="11" style="stroke: #A80036; stroke-width: 1.0;"/><path d="M22.9531,484.8594 L19.3125,484.8594 L19.3125,487.25 L19.5625,487.25 C20.0156,487.25 20.1875,487.2813 20.3281,487.4063 C20.5625,487.5781 20.6875,487.8281 20.6875,488.1094 C20.6875,488.3906 20.5313,488.6875 20.2813,488.8281 C20.1406,488.9219 19.9219,488.9531 19.5625,488.9531 L17.5156,488.9531 C17.1094,488.9531 16.8906,488.9063 16.7344,488.7969 C16.5313,488.625 16.3906,488.3594 16.3906,488.1094 C16.3906,487.8125 16.5469,487.5313 16.7969,487.375 C16.9531,487.2656 17.0938,487.25 17.5156,487.25 L17.6094,487.25 L17.6094,480.7344 C17.0469,480.6875 16.7344,480.3906 16.7344,479.8906 C16.7344,479.6094 16.8906,479.3125 17.1406,479.1563 C17.2969,479.0625 17.4219,479.0469 17.8594,479.0469 L19.5625,479.0469 C20.0313,479.0469 20.1875,479.0781 20.3281,479.1875 C20.5625,479.3594 20.6875,479.625 20.6875,479.8906 C20.6875,480.1875 20.5313,480.4688 20.2813,480.625 C20.125,480.7031 19.9844,480.7344 19.5625,480.7344 L19.3125,480.7344 L19.3125,483.1563 L22.9531,483.1563 L22.9531,480.7344 L22.7031,480.7344 C22.25,480.7344 22.1094,480.7031 21.9375,480.5938 C21.7188,480.4219 21.5781,480.1719 21.5781,479.8906 C21.5781,479.6094 21.7344,479.3125 21.9844,479.1563 C22.1406,479.0625 22.2656,479.0469 22.7031,479.0469 L24.4219,479.0469 C24.875,479.0469 25.0313,479.0781 25.2031,479.1875 C25.4063,479.3594 25.5313,479.625 25.5313,479.8906 C25.5313,480.3906 25.2188,480.6875 24.6563,480.7344 L24.6563,487.25 L24.75,487.25 C25.2188,487.25 25.3594,487.2813 25.5156,487.4063 C25.7344,487.5781 25.875,487.8281 25.875,488.1094 C25.875,488.3906 25.7188,488.6875 25.4688,488.8281 C25.3281,488.9219 25.1094,488.9531 24.75,488.9531 L22.7031,488.9531 C22.2969,488.9531 22.0938,488.9063 21.9375,488.7969 C21.7188,488.625 21.5781,488.3594 21.5781,488.1094 C21.5781,487.8125 21.7344,487.5313 21.9844,487.375 C22.1406,487.2656 22.2969,487.25 22.7031,487.25 L22.9531,487.25 Z "/><text fill="#000000" font-family="sans-serif" font-size="12" lengthAdjust="spacingAndGlyphs" textLength="69" x="35" y="488.1074">L2proxDual</text><line style="stroke: #A80036; stroke-width: 1.5;" x1="7" x2="106" y1="499.9531" y2="499.9531"/><line style="stroke: #A80036; stroke-width: 1.5;" x1="7" x2="106" y1="507.9531" y2="507.9531"/><ellipse cx="17" cy="519.8555" fill="#84BE84" rx="3" ry="3" style="stroke: #038048; stroke-width: 1.0;"/><text fill="#000000" font-family="sans-serif" font-size="11" lengthAdjust="spacingAndGlyphs" textLength="71" x="26" y="522.1636">L2proxDual()</text><ellipse cx="17" cy="532.6602" fill="#84BE84" rx="3" ry="3" style="stroke: #038048; stroke-width: 1.0;"/><text fill="#000000" font-family="sans-serif" font-size="11" lengthAdjust="spacingAndGlyphs" textLength="63" x="26" y="534.9683">applyProx()</text><!--class functionalPart--><rect fill="#FEFECE" filter="url(#fzg5c01)" height="48" style="stroke: #A80036; stroke-width: 1.5;" width="120" x="998.5" y="28.9531"/><ellipse cx="1013.5" cy="44.9531" fill="#ADD1B2" rx="11" ry="11" style="stroke: #A80036; stroke-width: 1.0;"/><path d="M1015.8438,40.625 L1016.0156,40.7031 C1016.2344,40.3906 1016.4375,40.2969 1016.7344,40.2969 C1017.0313,40.2969 1017.3125,40.4375 1017.4688,40.7031 C1017.5625,40.8594 1017.5781,40.9844 1017.5781,41.4219 L1017.5781,42.8438 C1017.5781,43.2656 1017.5469,43.4531 1017.4375,43.6094 C1017.2656,43.8281 1017,43.9688 1016.7344,43.9688 C1016.5156,43.9688 1016.2813,43.8594 1016.1406,43.7188 C1016,43.5938 1015.9688,43.4688 1015.9063,43.0625 C1015.8125,42.6563 1015.6406,42.4375 1015.1563,42.1563 C1014.6875,41.9063 1014.0781,41.75 1013.5,41.75 C1011.7656,41.75 1010.5156,43.0625 1010.5156,44.8438 L1010.5156,45.9375 C1010.5156,47.6406 1011.8125,48.7344 1013.8594,48.7344 C1014.625,48.7344 1015.3125,48.6094 1015.7344,48.3438 C1015.9219,48.25 1015.9219,48.25 1016.375,47.7656 C1016.5625,47.5781 1016.7656,47.5 1016.9844,47.5 C1017.4531,47.5 1017.8438,47.8906 1017.8438,48.3438 C1017.8438,48.7344 1017.5156,49.1875 1016.9375,49.5938 C1016.1875,50.1406 1015.0313,50.4375 1013.8125,50.4375 C1010.9219,50.4375 1008.8125,48.5469 1008.8125,45.9688 L1008.8125,44.8438 C1008.8125,42.125 1010.8125,40.0469 1013.4375,40.0469 C1014.3125,40.0469 1014.9063,40.1875 1015.8438,40.625 Z "/><text fill="#000000" font-family="sans-serif" font-size="12" lengthAdjust="spacingAndGlyphs" textLength="88" x="1027.5" y="49.1074">functionalPart</text><line style="stroke: #A80036; stroke-width: 1.5;" x1="999.5" x2="1117.5" y1="60.9531" y2="60.9531"/><line style="stroke: #A80036; stroke-width: 1.5;" x1="999.5" x2="1117.5" y1="68.9531" y2="68.9531"/><path d="M1058.5,97.3281 C1058.5,109.6191 1058.5,123.3581 1058.5,136.9181 " fill="none" style="stroke: #A80036; stroke-width: 1.0;"/><polygon fill="none" points="1051.5,97.1191,1058.5,77.1191,1065.5,97.1191,1051.5,97.1191" style="stroke: #A80036; stroke-width: 1.0;"/><path d="M1007.88,304.9081 C999.551,320.0431 991.481,334.7051 984.837,346.7731 " fill="none" style="stroke: #A80036; stroke-width: 1.0;"/><polygon fill="none" points="1001.936,301.1941,1017.71,287.0491,1014.2,307.9451,1001.936,301.1941" style="stroke: #A80036; stroke-width: 1.0;"/><path d="M915.074,279.3951 C927.954,302.7951 941.79,327.9291 952.154,346.7571 " fill="none" style="stroke: #A80036; stroke-width: 1.0;"/><polygon fill="none" points="908.772,282.4621,905.259,261.5661,921.036,275.7111,908.772,282.4621" style="stroke: #A80036; stroke-width: 1.0;"/><path d="M862.628,410.9391 C785.109,434.7261 682.729,466.1411 619.013,485.6921 " fill="none" style="stroke: #A80036; stroke-width: 1.0;"/><polygon fill="none" points="860.588,404.2431,881.762,405.0681,864.695,417.6271,860.588,404.2431" style="stroke: #A80036; stroke-width: 1.0;"/><path d="M1074.47,411.3721 C1138.53,431.2721 1219.39,456.3891 1280.71,475.4391 " fill="none" style="stroke: #A80036; stroke-width: 1.0;"/><polygon fill="none" points="1072.19,417.9941,1055.17,405.3761,1076.34,404.6241,1072.19,417.9941" style="stroke: #A80036; stroke-width: 1.0;"/><path d="M968.5,428.4001 C968.5,444.0001 968.5,460.7021 968.5,474.4251 " fill="none" style="stroke: #A80036; stroke-width: 1.0;"/><polygon fill="none" points="961.5,428.1951,968.5,408.1951,975.5,428.1951,961.5,428.1951" style="stroke: #A80036; stroke-width: 1.0;"/><path d="M480.77,542.3541 C406.75,572.4791 384.61,576.7407 316.5,601.9531 C309.222,604.6472 301.64,607.4786 294.072,610.3207 " fill="none" style="stroke: #A80036; stroke-width: 1.0;"/><polygon fill="none" points="478.465,535.7331,499.624,534.5861,483.798,548.6781,478.465,535.7331" style="stroke: #A80036; stroke-width: 1.0;"/><path d="M218.626,562.0811 C219.226,577.9198 219.855,594.5347 220.372,608.1651 " fill="none" style="stroke: #A80036; stroke-width: 1.0;"/><polygon fill="none" points="211.628,562.2731,217.866,542.0231,225.618,561.7431,211.628,562.2731" style="stroke: #A80036; stroke-width: 1.0;"/><path d="M507.007,548.2041 C485.544,565.4781 460.97,585.2578 440.363,601.844 " fill="none" style="stroke: #A80036; stroke-width: 1.0;"/><polygon fill="none" points="502.726,542.6641,522.695,535.5761,511.504,553.5701,502.726,542.6641" style="stroke: #A80036; stroke-width: 1.0;"/><path d="M395.5,562.3321 C395.5,575.7491 395.5,589.7084 395.5,601.9271 " fill="none" style="stroke: #A80036; stroke-width: 1.0;"/><polygon fill="none" points="388.5,562.0231,395.5,542.0231,402.5,562.0231,388.5,562.0231" style="stroke: #A80036; stroke-width: 1.0;"/><path d="M559.123,555.6861 C558.989,573.4561 558.841,592.905 558.724,608.4286 " fill="none" style="stroke: #A80036; stroke-width: 1.0;"/><polygon fill="none" points="552.124,555.5231,559.276,535.5761,566.124,555.6291,552.124,555.5231" style="stroke: #A80036; stroke-width: 1.0;"/><path d="M691.883,552.8971 C662.895,571.3821 630.487,592.0486 604.874,608.3811 " fill="none" style="stroke: #A80036; stroke-width: 1.0;"/><polygon fill="none" points="688.309,546.8741,708.936,542.0231,695.837,558.6781,688.309,546.8741" style="stroke: #A80036; stroke-width: 1.0;"/><path d="M1372.5,555.6861 C1372.5,573.4561 1372.5,592.905 1372.5,608.4286 " fill="none" style="stroke: #A80036; stroke-width: 1.0;"/><polygon fill="none" points="1365.5,555.5761,1372.5,535.5761,1379.5,555.5761,1365.5,555.5761" style="stroke: #A80036; stroke-width: 1.0;"/><path d="M852.555,541.7091 C1039.49,590.7061 1098.59,555.5331 1278.5,601.9531 C1285.61,603.7868 1292.91,605.9878 1300.16,608.3863 " fill="none" style="stroke: #A80036; stroke-width: 1.0;"/><polygon fill="none" points="850.609,548.4351,833.14,536.4431,854.275,534.9231,850.609,548.4351" style="stroke: #A80036; stroke-width: 1.0;"/><path d="M1429.38,547.6671 C1456.31,567.4131 1487.83,590.5298 1512.24,608.4286 " fill="none" style="stroke: #A80036; stroke-width: 1.0;"/><polygon fill="none" points="1424.88,553.0491,1412.9,535.5761,1433.16,541.7591,1424.88,553.0491" style="stroke: #A80036; stroke-width: 1.0;"/><path d="M1242.04,534.7151 C1249.28,537.2171 1256.51,539.6651 1263.5,541.9531 C1352.91,571.2321 1377.87,570.4091 1466.5,601.9531 C1472.14,603.9611 1477.95,606.1406 1483.76,608.4002 " fill="none" style="stroke: #A80036; stroke-width: 1.0;"/><polygon fill="none" points="1239.6,541.2761,1223.06,528.0351,1244.25,528.0691,1239.6,541.2761" style="stroke: #A80036; stroke-width: 1.0;"/><path d="M638.491,529.6201 C652.476,533.7631 666.909,538.0081 680.5,541.9531 C774.542,569.2491 800.823,567.5411 892.5,601.9531 C898.104,604.0567 903.863,606.4099 909.582,608.8788 " fill="none" style="stroke: #A80036; stroke-width: 1.0;"/><polygon fill="none" points="636.329,536.2801,619.152,523.8731,640.317,522.8601,636.329,536.2801" style="stroke: #A80036; stroke-width: 1.0;"/><path d="M1093.38,553.4191 C1066.27,571.7701 1036.09,592.202 1012.19,608.3811 " fill="none" style="stroke: #A80036; stroke-width: 1.0;"/><polygon fill="none" points="1089.73,547.4371,1110.22,542.0231,1097.58,559.0311,1089.73,547.4371" style="stroke: #A80036; stroke-width: 1.0;"/><path d="M906.26,546.8271 C875.915,566.7551 840.1,590.2753 812.458,608.4286 " fill="none" style="stroke: #A80036; stroke-width: 1.0;"/><polygon fill="none" points="902.832,540.7041,923.392,535.5761,910.517,552.4061,902.832,540.7041" style="stroke: #A80036; stroke-width: 1.0;"/><path d="M766.35,562.0811 C766.59,577.9198 766.842,594.5347 767.049,608.1651 " fill="none" style="stroke: #A80036; stroke-width: 1.0;"/><polygon fill="none" points="759.35,562.1261,766.047,542.0231,773.349,561.9141,759.35,562.1261" style="stroke: #A80036; stroke-width: 1.0;"/><path d="M1028.67,547.1061 C1057.72,566.9741 1091.91,590.3601 1118.33,608.4286 " fill="none" style="stroke: #A80036; stroke-width: 1.0;"/><polygon fill="none" points="1024.37,552.6451,1011.81,535.5761,1032.27,541.0891,1024.37,552.6451" style="stroke: #A80036; stroke-width: 1.0;"/><path d="M1162.65,562.0811 C1162.41,577.9198 1162.16,594.5347 1161.95,608.1651 " fill="none" style="stroke: #A80036; stroke-width: 1.0;"/><polygon fill="none" points="1155.65,561.9141,1162.95,542.0231,1169.65,562.1261,1155.65,561.9141" style="stroke: #A80036; stroke-width: 1.0;"/><path d="M481.167,541.3701 C327.393,586.3711 275.468,552.9461 131.5,601.9531 C125.43,604.0193 119.246,606.5763 113.204,609.3674 " fill="none" style="stroke: #A80036; stroke-width: 1.0;"/><polygon fill="none" points="479.265,534.6321,500.438,535.4831,483.356,548.0211,479.265,534.6321" style="stroke: #A80036; stroke-width: 1.0;"/><path d="M59.4765,562.0811 C60.3164,577.9198 61.1975,594.5347 61.9203,608.1651 " fill="none" style="stroke: #A80036; stroke-width: 1.0;"/><polygon fill="none" points="52.4818,562.3651,58.4128,542.0231,66.4622,561.6241,52.4818,562.3651" style="stroke: #A80036; stroke-width: 1.0;"/></g></svg>