<?xml version="1.0" encoding="UTF-8" standalone="no"?><svg xmlns="http://www.w3.org/2000/svg" xmlns:xlink="http://www.w3.org/1999/xlink" contentScriptType="application/ecmascript" contentStyleType="text/css" height="849px" preserveAspectRatio="none" style="width:1373px;height:849px;" version="1.1" viewBox="0 0 1373 849" width="1373px" zoomAndPan="magnify"><defs><filter height="300%" id="fgfj76l" width="300%" x="-1" y="-1"><feGaussianBlur result="blurOut" stdDeviation="2.0"/><feColorMatrix in="blurOut" result="blurOut2" type="matrix" values="0 0 0 0 0 0 0 0 0 0 0 0 0 0 0 0 0 0 .4 0"/><feOffset dx="4.0" dy="4.0" in="blurOut2" result="blurOut3"/><feBlend in="SourceGraphic" in2="blurOut3" mode="normal"/></filter></defs><g><text fill="#000000" font-family="sans-serif" font-size="18" font-weight="bold" lengthAdjust="spacingAndGlyphs" textLength="116" x="633.5" y="16.708">Data Terms</text><!--class primalPart--><rect fill="#FEFECE" filter="url(#fgfj76l)" height="73.6094" style="stroke: #A80036; stroke-width: 1.5;" width="96" x="348.5" y="174.9531"/><ellipse cx="363.5" cy="190.9531" fill="#E6FFE6" rx="11" ry="11" style="stroke: #A80036; stroke-width: 1.0;"/><path d="M365.0781,192.7656 L361.0313,192.7656 L360.6406,193.75 L361.0313,193.75 C361.4844,193.75 361.625,193.7813 361.7969,193.9063 C362.0156,194.0781 362.1406,194.3281 362.1406,194.6094 C362.1406,194.8906 362,195.1875 361.7344,195.3281 C361.6094,195.4219 361.3906,195.4531 361.0313,195.4531 L358.7656,195.4531 C358.0156,195.4531 357.6406,195.1719 357.6406,194.6094 C357.6406,194.3125 357.7969,194.0313 358.0469,193.875 C358.2031,193.7656 358.3594,193.75 358.7813,193.75 L361.4219,187.2344 L360.3438,187.2344 C359.9063,187.2344 359.7344,187.2031 359.5625,187.0938 C359.3438,186.9219 359.2031,186.6719 359.2031,186.3906 C359.2031,186.1094 359.3594,185.8281 359.6094,185.6563 C359.7656,185.5625 359.8906,185.5469 360.3438,185.5469 L364.0156,185.5469 L367.4063,193.75 C367.875,193.75 368.0313,193.7813 368.2031,193.9219 C368.4219,194.0781 368.5625,194.3281 368.5625,194.6094 C368.5625,194.8906 368.4063,195.1875 368.1563,195.3281 C368.0156,195.4219 367.7969,195.4531 367.4375,195.4531 L365.0781,195.4531 C364.6563,195.4531 364.4531,195.4063 364.3125,195.2813 C364.0938,195.125 363.9531,194.875 363.9531,194.6094 C363.9531,194.3125 364.1094,194.0313 364.3594,193.875 C364.5156,193.7656 364.625,193.75 365.0781,193.75 L365.4688,193.75 Z M364.375,191.0625 L363.0469,187.7969 L361.7031,191.0625 Z "/><text fill="#000000" font-family="sans-serif" font-size="12" lengthAdjust="spacingAndGlyphs" textLength="64" x="377.5" y="195.1074">primalPart</text><line style="stroke: #A80036; stroke-width: 1.5;" x1="349.5" x2="443.5" y1="206.9531" y2="206.9531"/><line style="stroke: #A80036; stroke-width: 1.5;" x1="349.5" x2="443.5" y1="214.9531" y2="214.9531"/><ellipse cx="359.5" cy="226.8555" fill="#84BE84" rx="3" ry="3" style="stroke: #038048; stroke-width: 1.0;"/><text fill="#000000" font-family="sans-serif" font-size="11" lengthAdjust="spacingAndGlyphs" textLength="67" x="368.5" y="229.1636">primalPart()</text><ellipse cx="359.5" cy="239.6602" fill="#84BE84" rx="3" ry="3" style="stroke: #038048; stroke-width: 1.0;"/><text fill="#000000" font-family="sans-serif" font-size="11" lengthAdjust="spacingAndGlyphs" textLength="63" x="368.5" y="241.9683">applyProx()</text><!--class dualPart--><rect fill="#FEFECE" filter="url(#fgfj76l)" height="150.4375" style="stroke: #A80036; stroke-width: 1.5;" width="89" x="662" y="136.9531"/><ellipse cx="678.8" cy="152.9531" fill="#E6FFE6" rx="11" ry="11" style="stroke: #A80036; stroke-width: 1.0;"/><path d="M680.3781,154.7656 L676.3313,154.7656 L675.9406,155.75 L676.3313,155.75 C676.7844,155.75 676.925,155.7813 677.0969,155.9063 C677.3156,156.0781 677.4406,156.3281 677.4406,156.6094 C677.4406,156.8906 677.3,157.1875 677.0344,157.3281 C676.9094,157.4219 676.6906,157.4531 676.3313,157.4531 L674.0656,157.4531 C673.3156,157.4531 672.9406,157.1719 672.9406,156.6094 C672.9406,156.3125 673.0969,156.0313 673.3469,155.875 C673.5031,155.7656 673.6594,155.75 674.0813,155.75 L676.7219,149.2344 L675.6438,149.2344 C675.2063,149.2344 675.0344,149.2031 674.8625,149.0938 C674.6438,148.9219 674.5031,148.6719 674.5031,148.3906 C674.5031,148.1094 674.6594,147.8281 674.9094,147.6563 C675.0656,147.5625 675.1906,147.5469 675.6438,147.5469 L679.3156,147.5469 L682.7063,155.75 C683.175,155.75 683.3313,155.7813 683.5031,155.9219 C683.7219,156.0781 683.8625,156.3281 683.8625,156.6094 C683.8625,156.8906 683.7063,157.1875 683.4563,157.3281 C683.3156,157.4219 683.0969,157.4531 682.7375,157.4531 L680.3781,157.4531 C679.9563,157.4531 679.7531,157.4063 679.6125,157.2813 C679.3938,157.125 679.2531,156.875 679.2531,156.6094 C679.2531,156.3125 679.4094,156.0313 679.6594,155.875 C679.8156,155.7656 679.925,155.75 680.3781,155.75 L680.7688,155.75 Z M679.675,153.0625 L678.3469,149.7969 L677.0031,153.0625 Z "/><text fill="#000000" font-family="sans-serif" font-size="12" lengthAdjust="spacingAndGlyphs" textLength="53" x="693.2" y="157.1074">dualPart</text><line style="stroke: #A80036; stroke-width: 1.5;" x1="663" x2="750" y1="168.9531" y2="168.9531"/><ellipse cx="673" cy="180.8555" fill="none" rx="3" ry="3" style="stroke: #038048; stroke-width: 1.0;"/><text fill="#000000" font-family="sans-serif" font-size="11" lengthAdjust="spacingAndGlyphs" textLength="35" x="682" y="183.1636">length</text><ellipse cx="673" cy="193.6602" fill="none" rx="3" ry="3" style="stroke: #038048; stroke-width: 1.0;"/><text fill="#000000" font-family="sans-serif" font-size="11" lengthAdjust="spacingAndGlyphs" textLength="53" x="682" y="195.9683">mySigma</text><ellipse cx="673" cy="206.4648" fill="none" rx="3" ry="3" style="stroke: #038048; stroke-width: 1.0;"/><text fill="#000000" font-family="sans-serif" font-size="11" lengthAdjust="spacingAndGlyphs" textLength="38" x="682" y="208.7729">myTau</text><ellipse cx="673" cy="219.2695" fill="none" rx="3" ry="3" style="stroke: #038048; stroke-width: 1.0;"/><text fill="#000000" font-family="sans-serif" font-size="11" lengthAdjust="spacingAndGlyphs" textLength="51" x="682" y="221.5776">numVars</text><ellipse cx="673" cy="232.0742" fill="none" rx="3" ry="3" style="stroke: #038048; stroke-width: 1.0;"/><text fill="#000000" font-family="sans-serif" font-size="11" lengthAdjust="spacingAndGlyphs" textLength="49" x="682" y="234.3823">operator</text><ellipse cx="673" cy="244.8789" fill="none" rx="3" ry="3" style="stroke: #038048; stroke-width: 1.0;"/><text fill="#000000" font-family="sans-serif" font-size="11" lengthAdjust="spacingAndGlyphs" textLength="56" x="682" y="247.187">operatorT</text><line style="stroke: #A80036; stroke-width: 1.5;" x1="663" x2="750" y1="253.7813" y2="253.7813"/><ellipse cx="673" cy="265.6836" fill="#84BE84" rx="3" ry="3" style="stroke: #038048; stroke-width: 1.0;"/><text fill="#000000" font-family="sans-serif" font-size="11" lengthAdjust="spacingAndGlyphs" textLength="55" x="682" y="267.9917">dualPart()</text><ellipse cx="673" cy="278.4883" fill="#84BE84" rx="3" ry="3" style="stroke: #038048; stroke-width: 1.0;"/><text fill="#000000" font-family="sans-serif" font-size="11" lengthAdjust="spacingAndGlyphs" textLength="63" x="682" y="280.7964">applyProx()</text><!--class basicDualizedDataterm--><rect fill="#FEFECE" filter="url(#fgfj76l)" height="73.6094" style="stroke: #A80036; stroke-width: 1.5;" width="176" x="666.5" y="391.4531"/><ellipse cx="681.5" cy="407.4531" fill="#E6FFE6" rx="11" ry="11" style="stroke: #A80036; stroke-width: 1.0;"/><path d="M683.0781,409.2656 L679.0313,409.2656 L678.6406,410.25 L679.0313,410.25 C679.4844,410.25 679.625,410.2813 679.7969,410.4063 C680.0156,410.5781 680.1406,410.8281 680.1406,411.1094 C680.1406,411.3906 680,411.6875 679.7344,411.8281 C679.6094,411.9219 679.3906,411.9531 679.0313,411.9531 L676.7656,411.9531 C676.0156,411.9531 675.6406,411.6719 675.6406,411.1094 C675.6406,410.8125 675.7969,410.5313 676.0469,410.375 C676.2031,410.2656 676.3594,410.25 676.7813,410.25 L679.4219,403.7344 L678.3438,403.7344 C677.9063,403.7344 677.7344,403.7031 677.5625,403.5938 C677.3438,403.4219 677.2031,403.1719 677.2031,402.8906 C677.2031,402.6094 677.3594,402.3281 677.6094,402.1563 C677.7656,402.0625 677.8906,402.0469 678.3438,402.0469 L682.0156,402.0469 L685.4063,410.25 C685.875,410.25 686.0313,410.2813 686.2031,410.4219 C686.4219,410.5781 686.5625,410.8281 686.5625,411.1094 C686.5625,411.3906 686.4063,411.6875 686.1563,411.8281 C686.0156,411.9219 685.7969,411.9531 685.4375,411.9531 L683.0781,411.9531 C682.6563,411.9531 682.4531,411.9063 682.3125,411.7813 C682.0938,411.625 681.9531,411.375 681.9531,411.1094 C681.9531,410.8125 682.1094,410.5313 682.3594,410.375 C682.5156,410.2656 682.625,410.25 683.0781,410.25 L683.4688,410.25 Z M682.375,407.5625 L681.0469,404.2969 L679.7031,407.5625 Z "/><text fill="#000000" font-family="sans-serif" font-size="12" lengthAdjust="spacingAndGlyphs" textLength="144" x="695.5" y="411.6074">basicDualizedDataterm</text><line style="stroke: #A80036; stroke-width: 1.5;" x1="667.5" x2="841.5" y1="423.4531" y2="423.4531"/><ellipse cx="677.5" cy="435.3555" fill="none" rx="3" ry="3" style="stroke: #038048; stroke-width: 1.0;"/><text fill="#000000" font-family="sans-serif" font-size="11" lengthAdjust="spacingAndGlyphs" textLength="4" x="686.5" y="437.6636">f</text><line style="stroke: #A80036; stroke-width: 1.5;" x1="667.5" x2="841.5" y1="444.2578" y2="444.2578"/><ellipse cx="677.5" cy="456.1602" fill="#84BE84" rx="3" ry="3" style="stroke: #038048; stroke-width: 1.0;"/><text fill="#000000" font-family="sans-serif" font-size="11" lengthAdjust="spacingAndGlyphs" textLength="138" x="686.5" y="458.4683">basicDualizedDataterm()</text><!--class basicOpticalFlow--><rect fill="#FEFECE" filter="url(#fgfj76l)" height="150.4375" style="stroke: #A80036; stroke-width: 1.5;" width="168" x="455.5" y="569.9531"/><ellipse cx="485.35" cy="585.9531" fill="#E6FFE6" rx="11" ry="11" style="stroke: #A80036; stroke-width: 1.0;"/><path d="M486.9281,587.7656 L482.8813,587.7656 L482.4906,588.75 L482.8813,588.75 C483.3344,588.75 483.475,588.7813 483.6469,588.9063 C483.8656,589.0781 483.9906,589.3281 483.9906,589.6094 C483.9906,589.8906 483.85,590.1875 483.5844,590.3281 C483.4594,590.4219 483.2406,590.4531 482.8813,590.4531 L480.6156,590.4531 C479.8656,590.4531 479.4906,590.1719 479.4906,589.6094 C479.4906,589.3125 479.6469,589.0313 479.8969,588.875 C480.0531,588.7656 480.2094,588.75 480.6313,588.75 L483.2719,582.2344 L482.1938,582.2344 C481.7563,582.2344 481.5844,582.2031 481.4125,582.0938 C481.1938,581.9219 481.0531,581.6719 481.0531,581.3906 C481.0531,581.1094 481.2094,580.8281 481.4594,580.6563 C481.6156,580.5625 481.7406,580.5469 482.1938,580.5469 L485.8656,580.5469 L489.2563,588.75 C489.725,588.75 489.8813,588.7813 490.0531,588.9219 C490.2719,589.0781 490.4125,589.3281 490.4125,589.6094 C490.4125,589.8906 490.2563,590.1875 490.0063,590.3281 C489.8656,590.4219 489.6469,590.4531 489.2875,590.4531 L486.9281,590.4531 C486.5063,590.4531 486.3031,590.4063 486.1625,590.2813 C485.9438,590.125 485.8031,589.875 485.8031,589.6094 C485.8031,589.3125 485.9594,589.0313 486.2094,588.875 C486.3656,588.7656 486.475,588.75 486.9281,588.75 L487.3188,588.75 Z M486.225,586.0625 L484.8969,582.7969 L483.5531,586.0625 Z "/><text fill="#000000" font-family="sans-serif" font-size="12" lengthAdjust="spacingAndGlyphs" textLength="103" x="502.65" y="590.1074">basicOpticalFlow</text><line style="stroke: #A80036; stroke-width: 1.5;" x1="456.5" x2="622.5" y1="601.9531" y2="601.9531"/><ellipse cx="466.5" cy="613.8555" fill="none" rx="3" ry="3" style="stroke: #038048; stroke-width: 1.0;"/><text fill="#000000" font-family="sans-serif" font-size="11" lengthAdjust="spacingAndGlyphs" textLength="117" x="475.5" y="616.1636">constancyDimension</text><ellipse cx="466.5" cy="626.6602" fill="none" rx="3" ry="3" style="stroke: #038048; stroke-width: 1.0;"/><text fill="#000000" font-family="sans-serif" font-size="11" lengthAdjust="spacingAndGlyphs" textLength="54" x="475.5" y="628.9683">termType</text><ellipse cx="466.5" cy="639.4648" fill="none" rx="3" ry="3" style="stroke: #038048; stroke-width: 1.0;"/><text fill="#000000" font-family="sans-serif" font-size="11" lengthAdjust="spacingAndGlyphs" textLength="63" x="475.5" y="641.7729">thisImage1</text><ellipse cx="466.5" cy="652.2695" fill="none" rx="3" ry="3" style="stroke: #038048; stroke-width: 1.0;"/><text fill="#000000" font-family="sans-serif" font-size="11" lengthAdjust="spacingAndGlyphs" textLength="63" x="475.5" y="654.5776">thisImage2</text><line style="stroke: #A80036; stroke-width: 1.5;" x1="456.5" x2="622.5" y1="661.1719" y2="661.1719"/><ellipse cx="466.5" cy="673.0742" fill="#84BE84" rx="3" ry="3" style="stroke: #038048; stroke-width: 1.0;"/><text fill="#000000" font-family="sans-serif" font-size="11" lengthAdjust="spacingAndGlyphs" textLength="102" x="475.5" y="675.3823">basicOpticalFlow()</text><ellipse cx="466.5" cy="685.8789" fill="#84BE84" rx="3" ry="3" style="stroke: #038048; stroke-width: 1.0;"/><text fill="#000000" font-family="sans-serif" font-size="11" lengthAdjust="spacingAndGlyphs" textLength="142" x="475.5" y="688.187">generateDatatermParts()</text><ellipse cx="466.5" cy="698.6836" fill="#84BE84" rx="3" ry="3" style="stroke: #038048; stroke-width: 1.0;"/><text fill="#000000" font-family="sans-serif" font-size="11" lengthAdjust="spacingAndGlyphs" textLength="115" x="475.5" y="700.9917">generateGradients()</text><ellipse cx="466.5" cy="711.4883" fill="#84BE84" rx="3" ry="3" style="stroke: #038048; stroke-width: 1.0;"/><text fill="#000000" font-family="sans-serif" font-size="11" lengthAdjust="spacingAndGlyphs" textLength="89" x="475.5" y="713.7964">warpDataterm()</text><!--class emptyDataTerm--><rect fill="#FEFECE" filter="url(#fgfj76l)" height="60.8047" style="stroke: #A80036; stroke-width: 1.5;" width="131" x="172" y="397.9531"/><ellipse cx="187" cy="413.9531" fill="#E6FFE6" rx="11" ry="11" style="stroke: #A80036; stroke-width: 1.0;"/><path d="M188.9531,414.8594 L185.3125,414.8594 L185.3125,417.25 L185.5625,417.25 C186.0156,417.25 186.1875,417.2813 186.3281,417.4063 C186.5625,417.5781 186.6875,417.8281 186.6875,418.1094 C186.6875,418.3906 186.5313,418.6875 186.2813,418.8281 C186.1406,418.9219 185.9219,418.9531 185.5625,418.9531 L183.5156,418.9531 C183.1094,418.9531 182.8906,418.9063 182.7344,418.7969 C182.5313,418.625 182.3906,418.3594 182.3906,418.1094 C182.3906,417.8125 182.5469,417.5313 182.7969,417.375 C182.9531,417.2656 183.0938,417.25 183.5156,417.25 L183.6094,417.25 L183.6094,410.7344 C183.0469,410.6875 182.7344,410.3906 182.7344,409.8906 C182.7344,409.6094 182.8906,409.3125 183.1406,409.1563 C183.2969,409.0625 183.4219,409.0469 183.8594,409.0469 L185.5625,409.0469 C186.0313,409.0469 186.1875,409.0781 186.3281,409.1875 C186.5625,409.3594 186.6875,409.625 186.6875,409.8906 C186.6875,410.1875 186.5313,410.4688 186.2813,410.625 C186.125,410.7031 185.9844,410.7344 185.5625,410.7344 L185.3125,410.7344 L185.3125,413.1563 L188.9531,413.1563 L188.9531,410.7344 L188.7031,410.7344 C188.25,410.7344 188.1094,410.7031 187.9375,410.5938 C187.7188,410.4219 187.5781,410.1719 187.5781,409.8906 C187.5781,409.6094 187.7344,409.3125 187.9844,409.1563 C188.1406,409.0625 188.2656,409.0469 188.7031,409.0469 L190.4219,409.0469 C190.875,409.0469 191.0313,409.0781 191.2031,409.1875 C191.4063,409.3594 191.5313,409.625 191.5313,409.8906 C191.5313,410.3906 191.2188,410.6875 190.6563,410.7344 L190.6563,417.25 L190.75,417.25 C191.2188,417.25 191.3594,417.2813 191.5156,417.4063 C191.7344,417.5781 191.875,417.8281 191.875,418.1094 C191.875,418.3906 191.7188,418.6875 191.4688,418.8281 C191.3281,418.9219 191.1094,418.9531 190.75,418.9531 L188.7031,418.9531 C188.2969,418.9531 188.0938,418.9063 187.9375,418.7969 C187.7188,418.625 187.5781,418.3594 187.5781,418.1094 C187.5781,417.8125 187.7344,417.5313 187.9844,417.375 C188.1406,417.2656 188.2969,417.25 188.7031,417.25 L188.9531,417.25 Z "/><text fill="#000000" font-family="sans-serif" font-size="12" lengthAdjust="spacingAndGlyphs" textLength="99" x="201" y="418.1074">emptyDataTerm</text><line style="stroke: #A80036; stroke-width: 1.5;" x1="173" x2="302" y1="429.9531" y2="429.9531"/><line style="stroke: #A80036; stroke-width: 1.5;" x1="173" x2="302" y1="437.9531" y2="437.9531"/><ellipse cx="183" cy="449.8555" fill="#84BE84" rx="3" ry="3" style="stroke: #038048; stroke-width: 1.0;"/><text fill="#000000" font-family="sans-serif" font-size="11" lengthAdjust="spacingAndGlyphs" textLength="99" x="192" y="452.1636">emptyDataTerm()</text><!--class emptyTermMinMax--><rect fill="#FEFECE" filter="url(#fgfj76l)" height="60.8047" style="stroke: #A80036; stroke-width: 1.5;" width="146" x="485.5" y="397.9531"/><ellipse cx="500.5" cy="413.9531" fill="#E6FFE6" rx="11" ry="11" style="stroke: #A80036; stroke-width: 1.0;"/><path d="M502.4531,414.8594 L498.8125,414.8594 L498.8125,417.25 L499.0625,417.25 C499.5156,417.25 499.6875,417.2813 499.8281,417.4063 C500.0625,417.5781 500.1875,417.8281 500.1875,418.1094 C500.1875,418.3906 500.0313,418.6875 499.7813,418.8281 C499.6406,418.9219 499.4219,418.9531 499.0625,418.9531 L497.0156,418.9531 C496.6094,418.9531 496.3906,418.9063 496.2344,418.7969 C496.0313,418.625 495.8906,418.3594 495.8906,418.1094 C495.8906,417.8125 496.0469,417.5313 496.2969,417.375 C496.4531,417.2656 496.5938,417.25 497.0156,417.25 L497.1094,417.25 L497.1094,410.7344 C496.5469,410.6875 496.2344,410.3906 496.2344,409.8906 C496.2344,409.6094 496.3906,409.3125 496.6406,409.1563 C496.7969,409.0625 496.9219,409.0469 497.3594,409.0469 L499.0625,409.0469 C499.5313,409.0469 499.6875,409.0781 499.8281,409.1875 C500.0625,409.3594 500.1875,409.625 500.1875,409.8906 C500.1875,410.1875 500.0313,410.4688 499.7813,410.625 C499.625,410.7031 499.4844,410.7344 499.0625,410.7344 L498.8125,410.7344 L498.8125,413.1563 L502.4531,413.1563 L502.4531,410.7344 L502.2031,410.7344 C501.75,410.7344 501.6094,410.7031 501.4375,410.5938 C501.2188,410.4219 501.0781,410.1719 501.0781,409.8906 C501.0781,409.6094 501.2344,409.3125 501.4844,409.1563 C501.6406,409.0625 501.7656,409.0469 502.2031,409.0469 L503.9219,409.0469 C504.375,409.0469 504.5313,409.0781 504.7031,409.1875 C504.9063,409.3594 505.0313,409.625 505.0313,409.8906 C505.0313,410.3906 504.7188,410.6875 504.1563,410.7344 L504.1563,417.25 L504.25,417.25 C504.7188,417.25 504.8594,417.2813 505.0156,417.4063 C505.2344,417.5781 505.375,417.8281 505.375,418.1094 C505.375,418.3906 505.2188,418.6875 504.9688,418.8281 C504.8281,418.9219 504.6094,418.9531 504.25,418.9531 L502.2031,418.9531 C501.7969,418.9531 501.5938,418.9063 501.4375,418.7969 C501.2188,418.625 501.0781,418.3594 501.0781,418.1094 C501.0781,417.8125 501.2344,417.5313 501.4844,417.375 C501.6406,417.2656 501.7969,417.25 502.2031,417.25 L502.4531,417.25 Z "/><text fill="#000000" font-family="sans-serif" font-size="12" lengthAdjust="spacingAndGlyphs" textLength="114" x="514.5" y="418.1074">emptyTermMinMax</text><line style="stroke: #A80036; stroke-width: 1.5;" x1="486.5" x2="630.5" y1="429.9531" y2="429.9531"/><line style="stroke: #A80036; stroke-width: 1.5;" x1="486.5" x2="630.5" y1="437.9531" y2="437.9531"/><ellipse cx="496.5" cy="449.8555" fill="#84BE84" rx="3" ry="3" style="stroke: #038048; stroke-width: 1.0;"/><text fill="#000000" font-family="sans-serif" font-size="11" lengthAdjust="spacingAndGlyphs" textLength="114" x="505.5" y="452.1636">emptyTermMinMax()</text><!--class huberDataTermOperator--><rect fill="#FEFECE" filter="url(#fgfj76l)" height="73.6094" style="stroke: #A80036; stroke-width: 1.5;" width="186" x="855.5" y="607.9531"/><ellipse cx="870.5" cy="623.9531" fill="#E6FFE6" rx="11" ry="11" style="stroke: #A80036; stroke-width: 1.0;"/><path d="M872.4531,624.8594 L868.8125,624.8594 L868.8125,627.25 L869.0625,627.25 C869.5156,627.25 869.6875,627.2813 869.8281,627.4063 C870.0625,627.5781 870.1875,627.8281 870.1875,628.1094 C870.1875,628.3906 870.0313,628.6875 869.7813,628.8281 C869.6406,628.9219 869.4219,628.9531 869.0625,628.9531 L867.0156,628.9531 C866.6094,628.9531 866.3906,628.9063 866.2344,628.7969 C866.0313,628.625 865.8906,628.3594 865.8906,628.1094 C865.8906,627.8125 866.0469,627.5313 866.2969,627.375 C866.4531,627.2656 866.5938,627.25 867.0156,627.25 L867.1094,627.25 L867.1094,620.7344 C866.5469,620.6875 866.2344,620.3906 866.2344,619.8906 C866.2344,619.6094 866.3906,619.3125 866.6406,619.1563 C866.7969,619.0625 866.9219,619.0469 867.3594,619.0469 L869.0625,619.0469 C869.5313,619.0469 869.6875,619.0781 869.8281,619.1875 C870.0625,619.3594 870.1875,619.625 870.1875,619.8906 C870.1875,620.1875 870.0313,620.4688 869.7813,620.625 C869.625,620.7031 869.4844,620.7344 869.0625,620.7344 L868.8125,620.7344 L868.8125,623.1563 L872.4531,623.1563 L872.4531,620.7344 L872.2031,620.7344 C871.75,620.7344 871.6094,620.7031 871.4375,620.5938 C871.2188,620.4219 871.0781,620.1719 871.0781,619.8906 C871.0781,619.6094 871.2344,619.3125 871.4844,619.1563 C871.6406,619.0625 871.7656,619.0469 872.2031,619.0469 L873.9219,619.0469 C874.375,619.0469 874.5313,619.0781 874.7031,619.1875 C874.9063,619.3594 875.0313,619.625 875.0313,619.8906 C875.0313,620.3906 874.7188,620.6875 874.1563,620.7344 L874.1563,627.25 L874.25,627.25 C874.7188,627.25 874.8594,627.2813 875.0156,627.4063 C875.2344,627.5781 875.375,627.8281 875.375,628.1094 C875.375,628.3906 875.2188,628.6875 874.9688,628.8281 C874.8281,628.9219 874.6094,628.9531 874.25,628.9531 L872.2031,628.9531 C871.7969,628.9531 871.5938,628.9063 871.4375,628.7969 C871.2188,628.625 871.0781,628.3594 871.0781,628.1094 C871.0781,627.8125 871.2344,627.5313 871.4844,627.375 C871.6406,627.2656 871.7969,627.25 872.2031,627.25 L872.4531,627.25 Z "/><text fill="#000000" font-family="sans-serif" font-size="12" lengthAdjust="spacingAndGlyphs" textLength="154" x="884.5" y="628.1074">huberDataTermOperator</text><line style="stroke: #A80036; stroke-width: 1.5;" x1="856.5" x2="1040.5" y1="639.9531" y2="639.9531"/><ellipse cx="866.5" cy="651.8555" fill="none" rx="3" ry="3" style="stroke: #038048; stroke-width: 1.0;"/><text fill="#000000" font-family="sans-serif" font-size="11" lengthAdjust="spacingAndGlyphs" textLength="24" x="875.5" y="654.1636">epsi</text><line style="stroke: #A80036; stroke-width: 1.5;" x1="856.5" x2="1040.5" y1="660.7578" y2="660.7578"/><ellipse cx="866.5" cy="672.6602" fill="#84BE84" rx="3" ry="3" style="stroke: #038048; stroke-width: 1.0;"/><text fill="#000000" font-family="sans-serif" font-size="11" lengthAdjust="spacingAndGlyphs" textLength="148" x="875.5" y="674.9683">huberDataTermOperator()</text><!--class KLdataTermOperator--><rect fill="#FEFECE" filter="url(#fgfj76l)" height="73.6094" style="stroke: #A80036; stroke-width: 1.5;" width="161" x="659" y="607.9531"/><ellipse cx="674" cy="623.9531" fill="#E6FFE6" rx="11" ry="11" style="stroke: #A80036; stroke-width: 1.0;"/><path d="M675.9531,624.8594 L672.3125,624.8594 L672.3125,627.25 L672.5625,627.25 C673.0156,627.25 673.1875,627.2813 673.3281,627.4063 C673.5625,627.5781 673.6875,627.8281 673.6875,628.1094 C673.6875,628.3906 673.5313,628.6875 673.2813,628.8281 C673.1406,628.9219 672.9219,628.9531 672.5625,628.9531 L670.5156,628.9531 C670.1094,628.9531 669.8906,628.9063 669.7344,628.7969 C669.5313,628.625 669.3906,628.3594 669.3906,628.1094 C669.3906,627.8125 669.5469,627.5313 669.7969,627.375 C669.9531,627.2656 670.0938,627.25 670.5156,627.25 L670.6094,627.25 L670.6094,620.7344 C670.0469,620.6875 669.7344,620.3906 669.7344,619.8906 C669.7344,619.6094 669.8906,619.3125 670.1406,619.1563 C670.2969,619.0625 670.4219,619.0469 670.8594,619.0469 L672.5625,619.0469 C673.0313,619.0469 673.1875,619.0781 673.3281,619.1875 C673.5625,619.3594 673.6875,619.625 673.6875,619.8906 C673.6875,620.1875 673.5313,620.4688 673.2813,620.625 C673.125,620.7031 672.9844,620.7344 672.5625,620.7344 L672.3125,620.7344 L672.3125,623.1563 L675.9531,623.1563 L675.9531,620.7344 L675.7031,620.7344 C675.25,620.7344 675.1094,620.7031 674.9375,620.5938 C674.7188,620.4219 674.5781,620.1719 674.5781,619.8906 C674.5781,619.6094 674.7344,619.3125 674.9844,619.1563 C675.1406,619.0625 675.2656,619.0469 675.7031,619.0469 L677.4219,619.0469 C677.875,619.0469 678.0313,619.0781 678.2031,619.1875 C678.4063,619.3594 678.5313,619.625 678.5313,619.8906 C678.5313,620.3906 678.2188,620.6875 677.6563,620.7344 L677.6563,627.25 L677.75,627.25 C678.2188,627.25 678.3594,627.2813 678.5156,627.4063 C678.7344,627.5781 678.875,627.8281 678.875,628.1094 C678.875,628.3906 678.7188,628.6875 678.4688,628.8281 C678.3281,628.9219 678.1094,628.9531 677.75,628.9531 L675.7031,628.9531 C675.2969,628.9531 675.0938,628.9063 674.9375,628.7969 C674.7188,628.625 674.5781,628.3594 674.5781,628.1094 C674.5781,627.8125 674.7344,627.5313 674.9844,627.375 C675.1406,627.2656 675.2969,627.25 675.7031,627.25 L675.9531,627.25 Z "/><text fill="#000000" font-family="sans-serif" font-size="12" lengthAdjust="spacingAndGlyphs" textLength="129" x="688" y="628.1074">KLdataTermOperator</text><line style="stroke: #A80036; stroke-width: 1.5;" x1="660" x2="819" y1="639.9531" y2="639.9531"/><line style="stroke: #A80036; stroke-width: 1.5;" x1="660" x2="819" y1="647.9531" y2="647.9531"/><ellipse cx="670" cy="659.8555" fill="#84BE84" rx="3" ry="3" style="stroke: #038048; stroke-width: 1.0;"/><text fill="#000000" font-family="sans-serif" font-size="11" lengthAdjust="spacingAndGlyphs" textLength="127" x="679" y="662.1636">KLdataTermOperator()</text><ellipse cx="670" cy="672.6602" fill="#84BE84" rx="3" ry="3" style="stroke: #038048; stroke-width: 1.0;"/><text fill="#000000" font-family="sans-serif" font-size="11" lengthAdjust="spacingAndGlyphs" textLength="63" x="679" y="674.9683">applyProx()</text><!--class L1dataTerm--><rect fill="#FEFECE" filter="url(#fgfj76l)" height="60.8047" style="stroke: #A80036; stroke-width: 1.5;" width="106" x="257.5" y="779.9531"/><ellipse cx="272.5" cy="795.9531" fill="#E6FFE6" rx="11" ry="11" style="stroke: #A80036; stroke-width: 1.0;"/><path d="M274.4531,796.8594 L270.8125,796.8594 L270.8125,799.25 L271.0625,799.25 C271.5156,799.25 271.6875,799.2813 271.8281,799.4063 C272.0625,799.5781 272.1875,799.8281 272.1875,800.1094 C272.1875,800.3906 272.0313,800.6875 271.7813,800.8281 C271.6406,800.9219 271.4219,800.9531 271.0625,800.9531 L269.0156,800.9531 C268.6094,800.9531 268.3906,800.9063 268.2344,800.7969 C268.0313,800.625 267.8906,800.3594 267.8906,800.1094 C267.8906,799.8125 268.0469,799.5313 268.2969,799.375 C268.4531,799.2656 268.5938,799.25 269.0156,799.25 L269.1094,799.25 L269.1094,792.7344 C268.5469,792.6875 268.2344,792.3906 268.2344,791.8906 C268.2344,791.6094 268.3906,791.3125 268.6406,791.1563 C268.7969,791.0625 268.9219,791.0469 269.3594,791.0469 L271.0625,791.0469 C271.5313,791.0469 271.6875,791.0781 271.8281,791.1875 C272.0625,791.3594 272.1875,791.625 272.1875,791.8906 C272.1875,792.1875 272.0313,792.4688 271.7813,792.625 C271.625,792.7031 271.4844,792.7344 271.0625,792.7344 L270.8125,792.7344 L270.8125,795.1563 L274.4531,795.1563 L274.4531,792.7344 L274.2031,792.7344 C273.75,792.7344 273.6094,792.7031 273.4375,792.5938 C273.2188,792.4219 273.0781,792.1719 273.0781,791.8906 C273.0781,791.6094 273.2344,791.3125 273.4844,791.1563 C273.6406,791.0625 273.7656,791.0469 274.2031,791.0469 L275.9219,791.0469 C276.375,791.0469 276.5313,791.0781 276.7031,791.1875 C276.9063,791.3594 277.0313,791.625 277.0313,791.8906 C277.0313,792.3906 276.7188,792.6875 276.1563,792.7344 L276.1563,799.25 L276.25,799.25 C276.7188,799.25 276.8594,799.2813 277.0156,799.4063 C277.2344,799.5781 277.375,799.8281 277.375,800.1094 C277.375,800.3906 277.2188,800.6875 276.9688,800.8281 C276.8281,800.9219 276.6094,800.9531 276.25,800.9531 L274.2031,800.9531 C273.7969,800.9531 273.5938,800.9063 273.4375,800.7969 C273.2188,800.625 273.0781,800.3594 273.0781,800.1094 C273.0781,799.8125 273.2344,799.5313 273.4844,799.375 C273.6406,799.2656 273.7969,799.25 274.2031,799.25 L274.4531,799.25 Z "/><text fill="#000000" font-family="sans-serif" font-size="12" lengthAdjust="spacingAndGlyphs" textLength="74" x="286.5" y="800.1074">L1dataTerm</text><line style="stroke: #A80036; stroke-width: 1.5;" x1="258.5" x2="362.5" y1="811.9531" y2="811.9531"/><line style="stroke: #A80036; stroke-width: 1.5;" x1="258.5" x2="362.5" y1="819.9531" y2="819.9531"/><ellipse cx="268.5" cy="831.8555" fill="#84BE84" rx="3" ry="3" style="stroke: #038048; stroke-width: 1.0;"/><text fill="#000000" font-family="sans-serif" font-size="11" lengthAdjust="spacingAndGlyphs" textLength="76" x="277.5" y="834.1636">L1dataTerm()</text><!--class L1dataTermOperator--><rect fill="#FEFECE" filter="url(#fgfj76l)" height="60.8047" style="stroke: #A80036; stroke-width: 1.5;" width="162" x="229.5" y="614.4531"/><ellipse cx="244.5" cy="630.4531" fill="#E6FFE6" rx="11" ry="11" style="stroke: #A80036; stroke-width: 1.0;"/><path d="M246.4531,631.3594 L242.8125,631.3594 L242.8125,633.75 L243.0625,633.75 C243.5156,633.75 243.6875,633.7813 243.8281,633.9063 C244.0625,634.0781 244.1875,634.3281 244.1875,634.6094 C244.1875,634.8906 244.0313,635.1875 243.7813,635.3281 C243.6406,635.4219 243.4219,635.4531 243.0625,635.4531 L241.0156,635.4531 C240.6094,635.4531 240.3906,635.4063 240.2344,635.2969 C240.0313,635.125 239.8906,634.8594 239.8906,634.6094 C239.8906,634.3125 240.0469,634.0313 240.2969,633.875 C240.4531,633.7656 240.5938,633.75 241.0156,633.75 L241.1094,633.75 L241.1094,627.2344 C240.5469,627.1875 240.2344,626.8906 240.2344,626.3906 C240.2344,626.1094 240.3906,625.8125 240.6406,625.6563 C240.7969,625.5625 240.9219,625.5469 241.3594,625.5469 L243.0625,625.5469 C243.5313,625.5469 243.6875,625.5781 243.8281,625.6875 C244.0625,625.8594 244.1875,626.125 244.1875,626.3906 C244.1875,626.6875 244.0313,626.9688 243.7813,627.125 C243.625,627.2031 243.4844,627.2344 243.0625,627.2344 L242.8125,627.2344 L242.8125,629.6563 L246.4531,629.6563 L246.4531,627.2344 L246.2031,627.2344 C245.75,627.2344 245.6094,627.2031 245.4375,627.0938 C245.2188,626.9219 245.0781,626.6719 245.0781,626.3906 C245.0781,626.1094 245.2344,625.8125 245.4844,625.6563 C245.6406,625.5625 245.7656,625.5469 246.2031,625.5469 L247.9219,625.5469 C248.375,625.5469 248.5313,625.5781 248.7031,625.6875 C248.9063,625.8594 249.0313,626.125 249.0313,626.3906 C249.0313,626.8906 248.7188,627.1875 248.1563,627.2344 L248.1563,633.75 L248.25,633.75 C248.7188,633.75 248.8594,633.7813 249.0156,633.9063 C249.2344,634.0781 249.375,634.3281 249.375,634.6094 C249.375,634.8906 249.2188,635.1875 248.9688,635.3281 C248.8281,635.4219 248.6094,635.4531 248.25,635.4531 L246.2031,635.4531 C245.7969,635.4531 245.5938,635.4063 245.4375,635.2969 C245.2188,635.125 245.0781,634.8594 245.0781,634.6094 C245.0781,634.3125 245.2344,634.0313 245.4844,633.875 C245.6406,633.7656 245.7969,633.75 246.2031,633.75 L246.4531,633.75 Z "/><text fill="#000000" font-family="sans-serif" font-size="12" lengthAdjust="spacingAndGlyphs" textLength="130" x="258.5" y="634.6074">L1dataTermOperator</text><line style="stroke: #A80036; stroke-width: 1.5;" x1="230.5" x2="390.5" y1="646.4531" y2="646.4531"/><line style="stroke: #A80036; stroke-width: 1.5;" x1="230.5" x2="390.5" y1="654.4531" y2="654.4531"/><ellipse cx="240.5" cy="666.3555" fill="#84BE84" rx="3" ry="3" style="stroke: #038048; stroke-width: 1.0;"/><text fill="#000000" font-family="sans-serif" font-size="11" lengthAdjust="spacingAndGlyphs" textLength="127" x="249.5" y="668.6636">L1dataTermOperator()</text><!--class L1opticalFlowTerm--><rect fill="#FEFECE" filter="url(#fgfj76l)" height="60.8047" style="stroke: #A80036; stroke-width: 1.5;" width="146" x="69.5" y="779.9531"/><ellipse cx="84.5" cy="795.9531" fill="#E6FFE6" rx="11" ry="11" style="stroke: #A80036; stroke-width: 1.0;"/><path d="M86.4531,796.8594 L82.8125,796.8594 L82.8125,799.25 L83.0625,799.25 C83.5156,799.25 83.6875,799.2813 83.8281,799.4063 C84.0625,799.5781 84.1875,799.8281 84.1875,800.1094 C84.1875,800.3906 84.0313,800.6875 83.7813,800.8281 C83.6406,800.9219 83.4219,800.9531 83.0625,800.9531 L81.0156,800.9531 C80.6094,800.9531 80.3906,800.9063 80.2344,800.7969 C80.0313,800.625 79.8906,800.3594 79.8906,800.1094 C79.8906,799.8125 80.0469,799.5313 80.2969,799.375 C80.4531,799.2656 80.5938,799.25 81.0156,799.25 L81.1094,799.25 L81.1094,792.7344 C80.5469,792.6875 80.2344,792.3906 80.2344,791.8906 C80.2344,791.6094 80.3906,791.3125 80.6406,791.1563 C80.7969,791.0625 80.9219,791.0469 81.3594,791.0469 L83.0625,791.0469 C83.5313,791.0469 83.6875,791.0781 83.8281,791.1875 C84.0625,791.3594 84.1875,791.625 84.1875,791.8906 C84.1875,792.1875 84.0313,792.4688 83.7813,792.625 C83.625,792.7031 83.4844,792.7344 83.0625,792.7344 L82.8125,792.7344 L82.8125,795.1563 L86.4531,795.1563 L86.4531,792.7344 L86.2031,792.7344 C85.75,792.7344 85.6094,792.7031 85.4375,792.5938 C85.2188,792.4219 85.0781,792.1719 85.0781,791.8906 C85.0781,791.6094 85.2344,791.3125 85.4844,791.1563 C85.6406,791.0625 85.7656,791.0469 86.2031,791.0469 L87.9219,791.0469 C88.375,791.0469 88.5313,791.0781 88.7031,791.1875 C88.9063,791.3594 89.0313,791.625 89.0313,791.8906 C89.0313,792.3906 88.7188,792.6875 88.1563,792.7344 L88.1563,799.25 L88.25,799.25 C88.7188,799.25 88.8594,799.2813 89.0156,799.4063 C89.2344,799.5781 89.375,799.8281 89.375,800.1094 C89.375,800.3906 89.2188,800.6875 88.9688,800.8281 C88.8281,800.9219 88.6094,800.9531 88.25,800.9531 L86.2031,800.9531 C85.7969,800.9531 85.5938,800.9063 85.4375,800.7969 C85.2188,800.625 85.0781,800.3594 85.0781,800.1094 C85.0781,799.8125 85.2344,799.5313 85.4844,799.375 C85.6406,799.2656 85.7969,799.25 86.2031,799.25 L86.4531,799.25 Z "/><text fill="#000000" font-family="sans-serif" font-size="12" lengthAdjust="spacingAndGlyphs" textLength="114" x="98.5" y="800.1074">L1opticalFlowTerm</text><line style="stroke: #A80036; stroke-width: 1.5;" x1="70.5" x2="214.5" y1="811.9531" y2="811.9531"/><line style="stroke: #A80036; stroke-width: 1.5;" x1="70.5" x2="214.5" y1="819.9531" y2="819.9531"/><ellipse cx="80.5" cy="831.8555" fill="#84BE84" rx="3" ry="3" style="stroke: #038048; stroke-width: 1.0;"/><text fill="#000000" font-family="sans-serif" font-size="11" lengthAdjust="spacingAndGlyphs" textLength="113" x="89.5" y="834.1636">L1opticalFlowTerm()</text><!--class L2dataTerm--><rect fill="#FEFECE" filter="url(#fgfj76l)" height="60.8047" style="stroke: #A80036; stroke-width: 1.5;" width="106" x="1077.5" y="779.9531"/><ellipse cx="1092.5" cy="795.9531" fill="#E6FFE6" rx="11" ry="11" style="stroke: #A80036; stroke-width: 1.0;"/><path d="M1094.4531,796.8594 L1090.8125,796.8594 L1090.8125,799.25 L1091.0625,799.25 C1091.5156,799.25 1091.6875,799.2813 1091.8281,799.4063 C1092.0625,799.5781 1092.1875,799.8281 1092.1875,800.1094 C1092.1875,800.3906 1092.0313,800.6875 1091.7813,800.8281 C1091.6406,800.9219 1091.4219,800.9531 1091.0625,800.9531 L1089.0156,800.9531 C1088.6094,800.9531 1088.3906,800.9063 1088.2344,800.7969 C1088.0313,800.625 1087.8906,800.3594 1087.8906,800.1094 C1087.8906,799.8125 1088.0469,799.5313 1088.2969,799.375 C1088.4531,799.2656 1088.5938,799.25 1089.0156,799.25 L1089.1094,799.25 L1089.1094,792.7344 C1088.5469,792.6875 1088.2344,792.3906 1088.2344,791.8906 C1088.2344,791.6094 1088.3906,791.3125 1088.6406,791.1563 C1088.7969,791.0625 1088.9219,791.0469 1089.3594,791.0469 L1091.0625,791.0469 C1091.5313,791.0469 1091.6875,791.0781 1091.8281,791.1875 C1092.0625,791.3594 1092.1875,791.625 1092.1875,791.8906 C1092.1875,792.1875 1092.0313,792.4688 1091.7813,792.625 C1091.625,792.7031 1091.4844,792.7344 1091.0625,792.7344 L1090.8125,792.7344 L1090.8125,795.1563 L1094.4531,795.1563 L1094.4531,792.7344 L1094.2031,792.7344 C1093.75,792.7344 1093.6094,792.7031 1093.4375,792.5938 C1093.2188,792.4219 1093.0781,792.1719 1093.0781,791.8906 C1093.0781,791.6094 1093.2344,791.3125 1093.4844,791.1563 C1093.6406,791.0625 1093.7656,791.0469 1094.2031,791.0469 L1095.9219,791.0469 C1096.375,791.0469 1096.5313,791.0781 1096.7031,791.1875 C1096.9063,791.3594 1097.0313,791.625 1097.0313,791.8906 C1097.0313,792.3906 1096.7188,792.6875 1096.1563,792.7344 L1096.1563,799.25 L1096.25,799.25 C1096.7188,799.25 1096.8594,799.2813 1097.0156,799.4063 C1097.2344,799.5781 1097.375,799.8281 1097.375,800.1094 C1097.375,800.3906 1097.2188,800.6875 1096.9688,800.8281 C1096.8281,800.9219 1096.6094,800.9531 1096.25,800.9531 L1094.2031,800.9531 C1093.7969,800.9531 1093.5938,800.9063 1093.4375,800.7969 C1093.2188,800.625 1093.0781,800.3594 1093.0781,800.1094 C1093.0781,799.8125 1093.2344,799.5313 1093.4844,799.375 C1093.6406,799.2656 1093.7969,799.25 1094.2031,799.25 L1094.4531,799.25 Z "/><text fill="#000000" font-family="sans-serif" font-size="12" lengthAdjust="spacingAndGlyphs" textLength="74" x="1106.5" y="800.1074">L2dataTerm</text><line style="stroke: #A80036; stroke-width: 1.5;" x1="1078.5" x2="1182.5" y1="811.9531" y2="811.9531"/><line style="stroke: #A80036; stroke-width: 1.5;" x1="1078.5" x2="1182.5" y1="819.9531" y2="819.9531"/><ellipse cx="1088.5" cy="831.8555" fill="#84BE84" rx="3" ry="3" style="stroke: #038048; stroke-width: 1.0;"/><text fill="#000000" font-family="sans-serif" font-size="11" lengthAdjust="spacingAndGlyphs" textLength="76" x="1097.5" y="834.1636">L2dataTerm()</text><!--class L2dataTermOperator--><rect fill="#FEFECE" filter="url(#fgfj76l)" height="60.8047" style="stroke: #A80036; stroke-width: 1.5;" width="162" x="1076.5" y="614.4531"/><ellipse cx="1091.5" cy="630.4531" fill="#E6FFE6" rx="11" ry="11" style="stroke: #A80036; stroke-width: 1.0;"/><path d="M1093.4531,631.3594 L1089.8125,631.3594 L1089.8125,633.75 L1090.0625,633.75 C1090.5156,633.75 1090.6875,633.7813 1090.8281,633.9063 C1091.0625,634.0781 1091.1875,634.3281 1091.1875,634.6094 C1091.1875,634.8906 1091.0313,635.1875 1090.7813,635.3281 C1090.6406,635.4219 1090.4219,635.4531 1090.0625,635.4531 L1088.0156,635.4531 C1087.6094,635.4531 1087.3906,635.4063 1087.2344,635.2969 C1087.0313,635.125 1086.8906,634.8594 1086.8906,634.6094 C1086.8906,634.3125 1087.0469,634.0313 1087.2969,633.875 C1087.4531,633.7656 1087.5938,633.75 1088.0156,633.75 L1088.1094,633.75 L1088.1094,627.2344 C1087.5469,627.1875 1087.2344,626.8906 1087.2344,626.3906 C1087.2344,626.1094 1087.3906,625.8125 1087.6406,625.6563 C1087.7969,625.5625 1087.9219,625.5469 1088.3594,625.5469 L1090.0625,625.5469 C1090.5313,625.5469 1090.6875,625.5781 1090.8281,625.6875 C1091.0625,625.8594 1091.1875,626.125 1091.1875,626.3906 C1091.1875,626.6875 1091.0313,626.9688 1090.7813,627.125 C1090.625,627.2031 1090.4844,627.2344 1090.0625,627.2344 L1089.8125,627.2344 L1089.8125,629.6563 L1093.4531,629.6563 L1093.4531,627.2344 L1093.2031,627.2344 C1092.75,627.2344 1092.6094,627.2031 1092.4375,627.0938 C1092.2188,626.9219 1092.0781,626.6719 1092.0781,626.3906 C1092.0781,626.1094 1092.2344,625.8125 1092.4844,625.6563 C1092.6406,625.5625 1092.7656,625.5469 1093.2031,625.5469 L1094.9219,625.5469 C1095.375,625.5469 1095.5313,625.5781 1095.7031,625.6875 C1095.9063,625.8594 1096.0313,626.125 1096.0313,626.3906 C1096.0313,626.8906 1095.7188,627.1875 1095.1563,627.2344 L1095.1563,633.75 L1095.25,633.75 C1095.7188,633.75 1095.8594,633.7813 1096.0156,633.9063 C1096.2344,634.0781 1096.375,634.3281 1096.375,634.6094 C1096.375,634.8906 1096.2188,635.1875 1095.9688,635.3281 C1095.8281,635.4219 1095.6094,635.4531 1095.25,635.4531 L1093.2031,635.4531 C1092.7969,635.4531 1092.5938,635.4063 1092.4375,635.2969 C1092.2188,635.125 1092.0781,634.8594 1092.0781,634.6094 C1092.0781,634.3125 1092.2344,634.0313 1092.4844,633.875 C1092.6406,633.7656 1092.7969,633.75 1093.2031,633.75 L1093.4531,633.75 Z "/><text fill="#000000" font-family="sans-serif" font-size="12" lengthAdjust="spacingAndGlyphs" textLength="130" x="1105.5" y="634.6074">L2dataTermOperator</text><line style="stroke: #A80036; stroke-width: 1.5;" x1="1077.5" x2="1237.5" y1="646.4531" y2="646.4531"/><line style="stroke: #A80036; stroke-width: 1.5;" x1="1077.5" x2="1237.5" y1="654.4531" y2="654.4531"/><ellipse cx="1087.5" cy="666.3555" fill="#84BE84" rx="3" ry="3" style="stroke: #038048; stroke-width: 1.0;"/><text fill="#000000" font-family="sans-serif" font-size="11" lengthAdjust="spacingAndGlyphs" textLength="127" x="1096.5" y="668.6636">L2dataTermOperator()</text><!--class L2opticalFlowTerm--><rect fill="#FEFECE" filter="url(#fgfj76l)" height="60.8047" style="stroke: #A80036; stroke-width: 1.5;" width="146" x="1218.5" y="779.9531"/><ellipse cx="1233.5" cy="795.9531" fill="#E6FFE6" rx="11" ry="11" style="stroke: #A80036; stroke-width: 1.0;"/><path d="M1235.4531,796.8594 L1231.8125,796.8594 L1231.8125,799.25 L1232.0625,799.25 C1232.5156,799.25 1232.6875,799.2813 1232.8281,799.4063 C1233.0625,799.5781 1233.1875,799.8281 1233.1875,800.1094 C1233.1875,800.3906 1233.0313,800.6875 1232.7813,800.8281 C1232.6406,800.9219 1232.4219,800.9531 1232.0625,800.9531 L1230.0156,800.9531 C1229.6094,800.9531 1229.3906,800.9063 1229.2344,800.7969 C1229.0313,800.625 1228.8906,800.3594 1228.8906,800.1094 C1228.8906,799.8125 1229.0469,799.5313 1229.2969,799.375 C1229.4531,799.2656 1229.5938,799.25 1230.0156,799.25 L1230.1094,799.25 L1230.1094,792.7344 C1229.5469,792.6875 1229.2344,792.3906 1229.2344,791.8906 C1229.2344,791.6094 1229.3906,791.3125 1229.6406,791.1563 C1229.7969,791.0625 1229.9219,791.0469 1230.3594,791.0469 L1232.0625,791.0469 C1232.5313,791.0469 1232.6875,791.0781 1232.8281,791.1875 C1233.0625,791.3594 1233.1875,791.625 1233.1875,791.8906 C1233.1875,792.1875 1233.0313,792.4688 1232.7813,792.625 C1232.625,792.7031 1232.4844,792.7344 1232.0625,792.7344 L1231.8125,792.7344 L1231.8125,795.1563 L1235.4531,795.1563 L1235.4531,792.7344 L1235.2031,792.7344 C1234.75,792.7344 1234.6094,792.7031 1234.4375,792.5938 C1234.2188,792.4219 1234.0781,792.1719 1234.0781,791.8906 C1234.0781,791.6094 1234.2344,791.3125 1234.4844,791.1563 C1234.6406,791.0625 1234.7656,791.0469 1235.2031,791.0469 L1236.9219,791.0469 C1237.375,791.0469 1237.5313,791.0781 1237.7031,791.1875 C1237.9063,791.3594 1238.0313,791.625 1238.0313,791.8906 C1238.0313,792.3906 1237.7188,792.6875 1237.1563,792.7344 L1237.1563,799.25 L1237.25,799.25 C1237.7188,799.25 1237.8594,799.2813 1238.0156,799.4063 C1238.2344,799.5781 1238.375,799.8281 1238.375,800.1094 C1238.375,800.3906 1238.2188,800.6875 1237.9688,800.8281 C1237.8281,800.9219 1237.6094,800.9531 1237.25,800.9531 L1235.2031,800.9531 C1234.7969,800.9531 1234.5938,800.9063 1234.4375,800.7969 C1234.2188,800.625 1234.0781,800.3594 1234.0781,800.1094 C1234.0781,799.8125 1234.2344,799.5313 1234.4844,799.375 C1234.6406,799.2656 1234.7969,799.25 1235.2031,799.25 L1235.4531,799.25 Z "/><text fill="#000000" font-family="sans-serif" font-size="12" lengthAdjust="spacingAndGlyphs" textLength="114" x="1247.5" y="800.1074">L2opticalFlowTerm</text><line style="stroke: #A80036; stroke-width: 1.5;" x1="1219.5" x2="1363.5" y1="811.9531" y2="811.9531"/><line style="stroke: #A80036; stroke-width: 1.5;" x1="1219.5" x2="1363.5" y1="819.9531" y2="819.9531"/><ellipse cx="1229.5" cy="831.8555" fill="#84BE84" rx="3" ry="3" style="stroke: #038048; stroke-width: 1.0;"/><text fill="#000000" font-family="sans-serif" font-size="11" lengthAdjust="spacingAndGlyphs" textLength="113" x="1238.5" y="834.1636">L2opticalFlowTerm()</text><!--class labelingTerm--><rect fill="#FEFECE" filter="url(#fgfj76l)" height="163.2422" style="stroke: #A80036; stroke-width: 1.5;" width="112" x="338.5" y="346.9531"/><ellipse cx="353.5" cy="362.9531" fill="#E6FFE6" rx="11" ry="11" style="stroke: #A80036; stroke-width: 1.0;"/><path d="M355.4531,363.8594 L351.8125,363.8594 L351.8125,366.25 L352.0625,366.25 C352.5156,366.25 352.6875,366.2813 352.8281,366.4063 C353.0625,366.5781 353.1875,366.8281 353.1875,367.1094 C353.1875,367.3906 353.0313,367.6875 352.7813,367.8281 C352.6406,367.9219 352.4219,367.9531 352.0625,367.9531 L350.0156,367.9531 C349.6094,367.9531 349.3906,367.9063 349.2344,367.7969 C349.0313,367.625 348.8906,367.3594 348.8906,367.1094 C348.8906,366.8125 349.0469,366.5313 349.2969,366.375 C349.4531,366.2656 349.5938,366.25 350.0156,366.25 L350.1094,366.25 L350.1094,359.7344 C349.5469,359.6875 349.2344,359.3906 349.2344,358.8906 C349.2344,358.6094 349.3906,358.3125 349.6406,358.1563 C349.7969,358.0625 349.9219,358.0469 350.3594,358.0469 L352.0625,358.0469 C352.5313,358.0469 352.6875,358.0781 352.8281,358.1875 C353.0625,358.3594 353.1875,358.625 353.1875,358.8906 C353.1875,359.1875 353.0313,359.4688 352.7813,359.625 C352.625,359.7031 352.4844,359.7344 352.0625,359.7344 L351.8125,359.7344 L351.8125,362.1563 L355.4531,362.1563 L355.4531,359.7344 L355.2031,359.7344 C354.75,359.7344 354.6094,359.7031 354.4375,359.5938 C354.2188,359.4219 354.0781,359.1719 354.0781,358.8906 C354.0781,358.6094 354.2344,358.3125 354.4844,358.1563 C354.6406,358.0625 354.7656,358.0469 355.2031,358.0469 L356.9219,358.0469 C357.375,358.0469 357.5313,358.0781 357.7031,358.1875 C357.9063,358.3594 358.0313,358.625 358.0313,358.8906 C358.0313,359.3906 357.7188,359.6875 357.1563,359.7344 L357.1563,366.25 L357.25,366.25 C357.7188,366.25 357.8594,366.2813 358.0156,366.4063 C358.2344,366.5781 358.375,366.8281 358.375,367.1094 C358.375,367.3906 358.2188,367.6875 357.9688,367.8281 C357.8281,367.9219 357.6094,367.9531 357.25,367.9531 L355.2031,367.9531 C354.7969,367.9531 354.5938,367.9063 354.4375,367.7969 C354.2188,367.625 354.0781,367.3594 354.0781,367.1094 C354.0781,366.8125 354.2344,366.5313 354.4844,366.375 C354.6406,366.2656 354.7969,366.25 355.2031,366.25 L355.4531,366.25 Z "/><text fill="#000000" font-family="sans-serif" font-size="12" lengthAdjust="spacingAndGlyphs" textLength="80" x="367.5" y="367.1074">labelingTerm</text><line style="stroke: #A80036; stroke-width: 1.5;" x1="339.5" x2="449.5" y1="378.9531" y2="378.9531"/><ellipse cx="349.5" cy="390.8555" fill="none" rx="3" ry="3" style="stroke: #038048; stroke-width: 1.0;"/><text fill="#000000" font-family="sans-serif" font-size="11" lengthAdjust="spacingAndGlyphs" textLength="4" x="358.5" y="393.1636">f</text><ellipse cx="349.5" cy="403.6602" fill="none" rx="3" ry="3" style="stroke: #038048; stroke-width: 1.0;"/><text fill="#000000" font-family="sans-serif" font-size="11" lengthAdjust="spacingAndGlyphs" textLength="43" x="358.5" y="405.9683">lastDim</text><ellipse cx="349.5" cy="416.4648" fill="none" rx="3" ry="3" style="stroke: #038048; stroke-width: 1.0;"/><text fill="#000000" font-family="sans-serif" font-size="11" lengthAdjust="spacingAndGlyphs" textLength="62" x="358.5" y="418.7729">numLabels</text><ellipse cx="349.5" cy="429.2695" fill="none" rx="3" ry="3" style="stroke: #038048; stroke-width: 1.0;"/><text fill="#000000" font-family="sans-serif" font-size="11" lengthAdjust="spacingAndGlyphs" textLength="42" x="358.5" y="431.5776">tmpList</text><ellipse cx="349.5" cy="442.0742" fill="none" rx="3" ry="3" style="stroke: #038048; stroke-width: 1.0;"/><text fill="#000000" font-family="sans-serif" font-size="11" lengthAdjust="spacingAndGlyphs" textLength="44" x="358.5" y="444.3823">weights</text><line style="stroke: #A80036; stroke-width: 1.5;" x1="339.5" x2="449.5" y1="450.9766" y2="450.9766"/><ellipse cx="349.5" cy="462.8789" fill="#84BE84" rx="3" ry="3" style="stroke: #038048; stroke-width: 1.0;"/><text fill="#000000" font-family="sans-serif" font-size="11" lengthAdjust="spacingAndGlyphs" textLength="82" x="358.5" y="465.187">labelingTerm()</text><ellipse cx="349.5" cy="475.6836" fill="#84BE84" rx="3" ry="3" style="stroke: #038048; stroke-width: 1.0;"/><text fill="#000000" font-family="sans-serif" font-size="11" lengthAdjust="spacingAndGlyphs" textLength="63" x="358.5" y="477.9917">applyProx()</text><ellipse cx="349.5" cy="488.4883" fill="#84BE84" rx="3" ry="3" style="stroke: #038048; stroke-width: 1.0;"/><text fill="#000000" font-family="sans-serif" font-size="11" lengthAdjust="spacingAndGlyphs" textLength="25" x="358.5" y="490.7964">init()</text><ellipse cx="349.5" cy="501.293" fill="#84BE84" rx="3" ry="3" style="stroke: #038048; stroke-width: 1.0;"/><text fill="#000000" font-family="sans-serif" font-size="11" lengthAdjust="spacingAndGlyphs" textLength="63" x="358.5" y="503.6011">setLabels()</text><!--class tildeMultiOperatorMultiDual--><rect fill="#FEFECE" filter="url(#fgfj76l)" height="99.2188" style="stroke: #A80036; stroke-width: 1.5;" width="201" x="786" y="162.4531"/><ellipse cx="801" cy="178.4531" fill="#E6FFE6" rx="11" ry="11" style="stroke: #A80036; stroke-width: 1.0;"/><path d="M802.9531,179.3594 L799.3125,179.3594 L799.3125,181.75 L799.5625,181.75 C800.0156,181.75 800.1875,181.7813 800.3281,181.9063 C800.5625,182.0781 800.6875,182.3281 800.6875,182.6094 C800.6875,182.8906 800.5313,183.1875 800.2813,183.3281 C800.1406,183.4219 799.9219,183.4531 799.5625,183.4531 L797.5156,183.4531 C797.1094,183.4531 796.8906,183.4063 796.7344,183.2969 C796.5313,183.125 796.3906,182.8594 796.3906,182.6094 C796.3906,182.3125 796.5469,182.0313 796.7969,181.875 C796.9531,181.7656 797.0938,181.75 797.5156,181.75 L797.6094,181.75 L797.6094,175.2344 C797.0469,175.1875 796.7344,174.8906 796.7344,174.3906 C796.7344,174.1094 796.8906,173.8125 797.1406,173.6563 C797.2969,173.5625 797.4219,173.5469 797.8594,173.5469 L799.5625,173.5469 C800.0313,173.5469 800.1875,173.5781 800.3281,173.6875 C800.5625,173.8594 800.6875,174.125 800.6875,174.3906 C800.6875,174.6875 800.5313,174.9688 800.2813,175.125 C800.125,175.2031 799.9844,175.2344 799.5625,175.2344 L799.3125,175.2344 L799.3125,177.6563 L802.9531,177.6563 L802.9531,175.2344 L802.7031,175.2344 C802.25,175.2344 802.1094,175.2031 801.9375,175.0938 C801.7188,174.9219 801.5781,174.6719 801.5781,174.3906 C801.5781,174.1094 801.7344,173.8125 801.9844,173.6563 C802.1406,173.5625 802.2656,173.5469 802.7031,173.5469 L804.4219,173.5469 C804.875,173.5469 805.0313,173.5781 805.2031,173.6875 C805.4063,173.8594 805.5313,174.125 805.5313,174.3906 C805.5313,174.8906 805.2188,175.1875 804.6563,175.2344 L804.6563,181.75 L804.75,181.75 C805.2188,181.75 805.3594,181.7813 805.5156,181.9063 C805.7344,182.0781 805.875,182.3281 805.875,182.6094 C805.875,182.8906 805.7188,183.1875 805.4688,183.3281 C805.3281,183.4219 805.1094,183.4531 804.75,183.4531 L802.7031,183.4531 C802.2969,183.4531 802.0938,183.4063 801.9375,183.2969 C801.7188,183.125 801.5781,182.8594 801.5781,182.6094 C801.5781,182.3125 801.7344,182.0313 801.9844,181.875 C802.1406,181.7656 802.2969,181.75 802.7031,181.75 L802.9531,181.75 Z "/><text fill="#000000" font-family="sans-serif" font-size="12" lengthAdjust="spacingAndGlyphs" textLength="169" x="815" y="182.6074">tildeMultiOperatorMultiDual</text><line style="stroke: #A80036; stroke-width: 1.5;" x1="787" x2="986" y1="194.4531" y2="194.4531"/><line style="stroke: #A80036; stroke-width: 1.5;" x1="787" x2="986" y1="202.4531" y2="202.4531"/><ellipse cx="797" cy="214.3555" fill="#84BE84" rx="3" ry="3" style="stroke: #038048; stroke-width: 1.0;"/><text fill="#000000" font-family="sans-serif" font-size="11" lengthAdjust="spacingAndGlyphs" textLength="43" x="806" y="216.6636">xError()</text><ellipse cx="797" cy="227.1602" fill="#84BE84" rx="3" ry="3" style="stroke: #038048; stroke-width: 1.0;"/><text fill="#000000" font-family="sans-serif" font-size="11" lengthAdjust="spacingAndGlyphs" textLength="41" x="806" y="229.4683">xTilde()</text><ellipse cx="797" cy="239.9648" fill="#84BE84" rx="3" ry="3" style="stroke: #038048; stroke-width: 1.0;"/><text fill="#000000" font-family="sans-serif" font-size="11" lengthAdjust="spacingAndGlyphs" textLength="43" x="806" y="242.2729">yError()</text><ellipse cx="797" cy="252.7695" fill="#84BE84" rx="3" ry="3" style="stroke: #038048; stroke-width: 1.0;"/><text fill="#000000" font-family="sans-serif" font-size="11" lengthAdjust="spacingAndGlyphs" textLength="41" x="806" y="255.0776">yTilde()</text><!--class IdentityProxPrimal--><rect fill="#FEFECE" filter="url(#fgfj76l)" height="73.6094" style="stroke: #A80036; stroke-width: 1.5;" width="143" x="166" y="174.9531"/><ellipse cx="181" cy="190.9531" fill="#E6FFE6" rx="11" ry="11" style="stroke: #A80036; stroke-width: 1.0;"/><path d="M182.9531,191.8594 L179.3125,191.8594 L179.3125,194.25 L179.5625,194.25 C180.0156,194.25 180.1875,194.2813 180.3281,194.4063 C180.5625,194.5781 180.6875,194.8281 180.6875,195.1094 C180.6875,195.3906 180.5313,195.6875 180.2813,195.8281 C180.1406,195.9219 179.9219,195.9531 179.5625,195.9531 L177.5156,195.9531 C177.1094,195.9531 176.8906,195.9063 176.7344,195.7969 C176.5313,195.625 176.3906,195.3594 176.3906,195.1094 C176.3906,194.8125 176.5469,194.5313 176.7969,194.375 C176.9531,194.2656 177.0938,194.25 177.5156,194.25 L177.6094,194.25 L177.6094,187.7344 C177.0469,187.6875 176.7344,187.3906 176.7344,186.8906 C176.7344,186.6094 176.8906,186.3125 177.1406,186.1563 C177.2969,186.0625 177.4219,186.0469 177.8594,186.0469 L179.5625,186.0469 C180.0313,186.0469 180.1875,186.0781 180.3281,186.1875 C180.5625,186.3594 180.6875,186.625 180.6875,186.8906 C180.6875,187.1875 180.5313,187.4688 180.2813,187.625 C180.125,187.7031 179.9844,187.7344 179.5625,187.7344 L179.3125,187.7344 L179.3125,190.1563 L182.9531,190.1563 L182.9531,187.7344 L182.7031,187.7344 C182.25,187.7344 182.1094,187.7031 181.9375,187.5938 C181.7188,187.4219 181.5781,187.1719 181.5781,186.8906 C181.5781,186.6094 181.7344,186.3125 181.9844,186.1563 C182.1406,186.0625 182.2656,186.0469 182.7031,186.0469 L184.4219,186.0469 C184.875,186.0469 185.0313,186.0781 185.2031,186.1875 C185.4063,186.3594 185.5313,186.625 185.5313,186.8906 C185.5313,187.3906 185.2188,187.6875 184.6563,187.7344 L184.6563,194.25 L184.75,194.25 C185.2188,194.25 185.3594,194.2813 185.5156,194.4063 C185.7344,194.5781 185.875,194.8281 185.875,195.1094 C185.875,195.3906 185.7188,195.6875 185.4688,195.8281 C185.3281,195.9219 185.1094,195.9531 184.75,195.9531 L182.7031,195.9531 C182.2969,195.9531 182.0938,195.9063 181.9375,195.7969 C181.7188,195.625 181.5781,195.3594 181.5781,195.1094 C181.5781,194.8125 181.7344,194.5313 181.9844,194.375 C182.1406,194.2656 182.2969,194.25 182.7031,194.25 L182.9531,194.25 Z "/><text fill="#000000" font-family="sans-serif" font-size="12" lengthAdjust="spacingAndGlyphs" textLength="111" x="195" y="195.1074">IdentityProxPrimal</text><line style="stroke: #A80036; stroke-width: 1.5;" x1="167" x2="308" y1="206.9531" y2="206.9531"/><line style="stroke: #A80036; stroke-width: 1.5;" x1="167" x2="308" y1="214.9531" y2="214.9531"/><ellipse cx="177" cy="226.8555" fill="#84BE84" rx="3" ry="3" style="stroke: #038048; stroke-width: 1.0;"/><text fill="#000000" font-family="sans-serif" font-size="11" lengthAdjust="spacingAndGlyphs" textLength="110" x="186" y="229.1636">IdentityProxPrimal()</text><ellipse cx="177" cy="239.6602" fill="#84BE84" rx="3" ry="3" style="stroke: #038048; stroke-width: 1.0;"/><text fill="#000000" font-family="sans-serif" font-size="11" lengthAdjust="spacingAndGlyphs" textLength="63" x="186" y="241.9683">applyProx()</text><!--class MinMaxProxPrimal--><rect fill="#FEFECE" filter="url(#fgfj76l)" height="99.2188" style="stroke: #A80036; stroke-width: 1.5;" width="142" x="484.5" y="162.4531"/><ellipse cx="499.5" cy="178.4531" fill="#E6FFE6" rx="11" ry="11" style="stroke: #A80036; stroke-width: 1.0;"/><path d="M501.4531,179.3594 L497.8125,179.3594 L497.8125,181.75 L498.0625,181.75 C498.5156,181.75 498.6875,181.7813 498.8281,181.9063 C499.0625,182.0781 499.1875,182.3281 499.1875,182.6094 C499.1875,182.8906 499.0313,183.1875 498.7813,183.3281 C498.6406,183.4219 498.4219,183.4531 498.0625,183.4531 L496.0156,183.4531 C495.6094,183.4531 495.3906,183.4063 495.2344,183.2969 C495.0313,183.125 494.8906,182.8594 494.8906,182.6094 C494.8906,182.3125 495.0469,182.0313 495.2969,181.875 C495.4531,181.7656 495.5938,181.75 496.0156,181.75 L496.1094,181.75 L496.1094,175.2344 C495.5469,175.1875 495.2344,174.8906 495.2344,174.3906 C495.2344,174.1094 495.3906,173.8125 495.6406,173.6563 C495.7969,173.5625 495.9219,173.5469 496.3594,173.5469 L498.0625,173.5469 C498.5313,173.5469 498.6875,173.5781 498.8281,173.6875 C499.0625,173.8594 499.1875,174.125 499.1875,174.3906 C499.1875,174.6875 499.0313,174.9688 498.7813,175.125 C498.625,175.2031 498.4844,175.2344 498.0625,175.2344 L497.8125,175.2344 L497.8125,177.6563 L501.4531,177.6563 L501.4531,175.2344 L501.2031,175.2344 C500.75,175.2344 500.6094,175.2031 500.4375,175.0938 C500.2188,174.9219 500.0781,174.6719 500.0781,174.3906 C500.0781,174.1094 500.2344,173.8125 500.4844,173.6563 C500.6406,173.5625 500.7656,173.5469 501.2031,173.5469 L502.9219,173.5469 C503.375,173.5469 503.5313,173.5781 503.7031,173.6875 C503.9063,173.8594 504.0313,174.125 504.0313,174.3906 C504.0313,174.8906 503.7188,175.1875 503.1563,175.2344 L503.1563,181.75 L503.25,181.75 C503.7188,181.75 503.8594,181.7813 504.0156,181.9063 C504.2344,182.0781 504.375,182.3281 504.375,182.6094 C504.375,182.8906 504.2188,183.1875 503.9688,183.3281 C503.8281,183.4219 503.6094,183.4531 503.25,183.4531 L501.2031,183.4531 C500.7969,183.4531 500.5938,183.4063 500.4375,183.2969 C500.2188,183.125 500.0781,182.8594 500.0781,182.6094 C500.0781,182.3125 500.2344,182.0313 500.4844,181.875 C500.6406,181.7656 500.7969,181.75 501.2031,181.75 L501.4531,181.75 Z "/><text fill="#000000" font-family="sans-serif" font-size="12" lengthAdjust="spacingAndGlyphs" textLength="110" x="513.5" y="182.6074">MinMaxProxPrimal</text><line style="stroke: #A80036; stroke-width: 1.5;" x1="485.5" x2="625.5" y1="194.4531" y2="194.4531"/><ellipse cx="495.5" cy="206.3555" fill="none" rx="3" ry="3" style="stroke: #038048; stroke-width: 1.0;"/><text fill="#000000" font-family="sans-serif" font-size="11" lengthAdjust="spacingAndGlyphs" textLength="41" x="504.5" y="208.6636">maxVal</text><ellipse cx="495.5" cy="219.1602" fill="none" rx="3" ry="3" style="stroke: #038048; stroke-width: 1.0;"/><text fill="#000000" font-family="sans-serif" font-size="11" lengthAdjust="spacingAndGlyphs" textLength="38" x="504.5" y="221.4683">minVal</text><line style="stroke: #A80036; stroke-width: 1.5;" x1="485.5" x2="625.5" y1="228.0625" y2="228.0625"/><ellipse cx="495.5" cy="239.9648" fill="#84BE84" rx="3" ry="3" style="stroke: #038048; stroke-width: 1.0;"/><text fill="#000000" font-family="sans-serif" font-size="11" lengthAdjust="spacingAndGlyphs" textLength="110" x="504.5" y="242.2729">MinMaxProxPrimal()</text><ellipse cx="495.5" cy="252.7695" fill="#84BE84" rx="3" ry="3" style="stroke: #038048; stroke-width: 1.0;"/><text fill="#000000" font-family="sans-serif" font-size="11" lengthAdjust="spacingAndGlyphs" textLength="63" x="504.5" y="255.0776">applyProx()</text><!--class L1DataProxDual--><rect fill="#FEFECE" filter="url(#fgfj76l)" height="73.6094" style="stroke: #A80036; stroke-width: 1.5;" width="131" x="6" y="391.4531"/><ellipse cx="21" cy="407.4531" fill="#E6FFE6" rx="11" ry="11" style="stroke: #A80036; stroke-width: 1.0;"/><path d="M22.9531,408.3594 L19.3125,408.3594 L19.3125,410.75 L19.5625,410.75 C20.0156,410.75 20.1875,410.7813 20.3281,410.9063 C20.5625,411.0781 20.6875,411.3281 20.6875,411.6094 C20.6875,411.8906 20.5313,412.1875 20.2813,412.3281 C20.1406,412.4219 19.9219,412.4531 19.5625,412.4531 L17.5156,412.4531 C17.1094,412.4531 16.8906,412.4063 16.7344,412.2969 C16.5313,412.125 16.3906,411.8594 16.3906,411.6094 C16.3906,411.3125 16.5469,411.0313 16.7969,410.875 C16.9531,410.7656 17.0938,410.75 17.5156,410.75 L17.6094,410.75 L17.6094,404.2344 C17.0469,404.1875 16.7344,403.8906 16.7344,403.3906 C16.7344,403.1094 16.8906,402.8125 17.1406,402.6563 C17.2969,402.5625 17.4219,402.5469 17.8594,402.5469 L19.5625,402.5469 C20.0313,402.5469 20.1875,402.5781 20.3281,402.6875 C20.5625,402.8594 20.6875,403.125 20.6875,403.3906 C20.6875,403.6875 20.5313,403.9688 20.2813,404.125 C20.125,404.2031 19.9844,404.2344 19.5625,404.2344 L19.3125,404.2344 L19.3125,406.6563 L22.9531,406.6563 L22.9531,404.2344 L22.7031,404.2344 C22.25,404.2344 22.1094,404.2031 21.9375,404.0938 C21.7188,403.9219 21.5781,403.6719 21.5781,403.3906 C21.5781,403.1094 21.7344,402.8125 21.9844,402.6563 C22.1406,402.5625 22.2656,402.5469 22.7031,402.5469 L24.4219,402.5469 C24.875,402.5469 25.0313,402.5781 25.2031,402.6875 C25.4063,402.8594 25.5313,403.125 25.5313,403.3906 C25.5313,403.8906 25.2188,404.1875 24.6563,404.2344 L24.6563,410.75 L24.75,410.75 C25.2188,410.75 25.3594,410.7813 25.5156,410.9063 C25.7344,411.0781 25.875,411.3281 25.875,411.6094 C25.875,411.8906 25.7188,412.1875 25.4688,412.3281 C25.3281,412.4219 25.1094,412.4531 24.75,412.4531 L22.7031,412.4531 C22.2969,412.4531 22.0938,412.4063 21.9375,412.2969 C21.7188,412.125 21.5781,411.8594 21.5781,411.6094 C21.5781,411.3125 21.7344,411.0313 21.9844,410.875 C22.1406,410.7656 22.2969,410.75 22.7031,410.75 L22.9531,410.75 Z "/><text fill="#000000" font-family="sans-serif" font-size="12" lengthAdjust="spacingAndGlyphs" textLength="99" x="35" y="411.6074">L1DataProxDual</text><line style="stroke: #A80036; stroke-width: 1.5;" x1="7" x2="136" y1="423.4531" y2="423.4531"/><line style="stroke: #A80036; stroke-width: 1.5;" x1="7" x2="136" y1="431.4531" y2="431.4531"/><ellipse cx="17" cy="443.3555" fill="#84BE84" rx="3" ry="3" style="stroke: #038048; stroke-width: 1.0;"/><text fill="#000000" font-family="sans-serif" font-size="11" lengthAdjust="spacingAndGlyphs" textLength="97" x="26" y="445.6636">L1DataProxDual()</text><ellipse cx="17" cy="456.1602" fill="#84BE84" rx="3" ry="3" style="stroke: #038048; stroke-width: 1.0;"/><text fill="#000000" font-family="sans-serif" font-size="11" lengthAdjust="spacingAndGlyphs" textLength="63" x="26" y="458.4683">applyProx()</text><!--class L1HuberDataProxDual--><rect fill="#FEFECE" filter="url(#fgfj76l)" height="73.6094" style="stroke: #A80036; stroke-width: 1.5;" width="169" x="878" y="391.4531"/><ellipse cx="893" cy="407.4531" fill="#E6FFE6" rx="11" ry="11" style="stroke: #A80036; stroke-width: 1.0;"/><path d="M894.9531,408.3594 L891.3125,408.3594 L891.3125,410.75 L891.5625,410.75 C892.0156,410.75 892.1875,410.7813 892.3281,410.9063 C892.5625,411.0781 892.6875,411.3281 892.6875,411.6094 C892.6875,411.8906 892.5313,412.1875 892.2813,412.3281 C892.1406,412.4219 891.9219,412.4531 891.5625,412.4531 L889.5156,412.4531 C889.1094,412.4531 888.8906,412.4063 888.7344,412.2969 C888.5313,412.125 888.3906,411.8594 888.3906,411.6094 C888.3906,411.3125 888.5469,411.0313 888.7969,410.875 C888.9531,410.7656 889.0938,410.75 889.5156,410.75 L889.6094,410.75 L889.6094,404.2344 C889.0469,404.1875 888.7344,403.8906 888.7344,403.3906 C888.7344,403.1094 888.8906,402.8125 889.1406,402.6563 C889.2969,402.5625 889.4219,402.5469 889.8594,402.5469 L891.5625,402.5469 C892.0313,402.5469 892.1875,402.5781 892.3281,402.6875 C892.5625,402.8594 892.6875,403.125 892.6875,403.3906 C892.6875,403.6875 892.5313,403.9688 892.2813,404.125 C892.125,404.2031 891.9844,404.2344 891.5625,404.2344 L891.3125,404.2344 L891.3125,406.6563 L894.9531,406.6563 L894.9531,404.2344 L894.7031,404.2344 C894.25,404.2344 894.1094,404.2031 893.9375,404.0938 C893.7188,403.9219 893.5781,403.6719 893.5781,403.3906 C893.5781,403.1094 893.7344,402.8125 893.9844,402.6563 C894.1406,402.5625 894.2656,402.5469 894.7031,402.5469 L896.4219,402.5469 C896.875,402.5469 897.0313,402.5781 897.2031,402.6875 C897.4063,402.8594 897.5313,403.125 897.5313,403.3906 C897.5313,403.8906 897.2188,404.1875 896.6563,404.2344 L896.6563,410.75 L896.75,410.75 C897.2188,410.75 897.3594,410.7813 897.5156,410.9063 C897.7344,411.0781 897.875,411.3281 897.875,411.6094 C897.875,411.8906 897.7188,412.1875 897.4688,412.3281 C897.3281,412.4219 897.1094,412.4531 896.75,412.4531 L894.7031,412.4531 C894.2969,412.4531 894.0938,412.4063 893.9375,412.2969 C893.7188,412.125 893.5781,411.8594 893.5781,411.6094 C893.5781,411.3125 893.7344,411.0313 893.9844,410.875 C894.1406,410.7656 894.2969,410.75 894.7031,410.75 L894.9531,410.75 Z "/><text fill="#000000" font-family="sans-serif" font-size="12" lengthAdjust="spacingAndGlyphs" textLength="137" x="907" y="411.6074">L1HuberDataProxDual</text><line style="stroke: #A80036; stroke-width: 1.5;" x1="879" x2="1046" y1="423.4531" y2="423.4531"/><line style="stroke: #A80036; stroke-width: 1.5;" x1="879" x2="1046" y1="431.4531" y2="431.4531"/><ellipse cx="889" cy="443.3555" fill="#84BE84" rx="3" ry="3" style="stroke: #038048; stroke-width: 1.0;"/><text fill="#000000" font-family="sans-serif" font-size="11" lengthAdjust="spacingAndGlyphs" textLength="131" x="898" y="445.6636">L1HuberDataProxDual()</text><ellipse cx="889" cy="456.1602" fill="#84BE84" rx="3" ry="3" style="stroke: #038048; stroke-width: 1.0;"/><text fill="#000000" font-family="sans-serif" font-size="11" lengthAdjust="spacingAndGlyphs" textLength="63" x="898" y="458.4683">applyProx()</text><!--class L2DataProxDual--><rect fill="#FEFECE" filter="url(#fgfj76l)" height="73.6094" style="stroke: #A80036; stroke-width: 1.5;" width="131" x="1100" y="391.4531"/><ellipse cx="1115" cy="407.4531" fill="#E6FFE6" rx="11" ry="11" style="stroke: #A80036; stroke-width: 1.0;"/><path d="M1116.9531,408.3594 L1113.3125,408.3594 L1113.3125,410.75 L1113.5625,410.75 C1114.0156,410.75 1114.1875,410.7813 1114.3281,410.9063 C1114.5625,411.0781 1114.6875,411.3281 1114.6875,411.6094 C1114.6875,411.8906 1114.5313,412.1875 1114.2813,412.3281 C1114.1406,412.4219 1113.9219,412.4531 1113.5625,412.4531 L1111.5156,412.4531 C1111.1094,412.4531 1110.8906,412.4063 1110.7344,412.2969 C1110.5313,412.125 1110.3906,411.8594 1110.3906,411.6094 C1110.3906,411.3125 1110.5469,411.0313 1110.7969,410.875 C1110.9531,410.7656 1111.0938,410.75 1111.5156,410.75 L1111.6094,410.75 L1111.6094,404.2344 C1111.0469,404.1875 1110.7344,403.8906 1110.7344,403.3906 C1110.7344,403.1094 1110.8906,402.8125 1111.1406,402.6563 C1111.2969,402.5625 1111.4219,402.5469 1111.8594,402.5469 L1113.5625,402.5469 C1114.0313,402.5469 1114.1875,402.5781 1114.3281,402.6875 C1114.5625,402.8594 1114.6875,403.125 1114.6875,403.3906 C1114.6875,403.6875 1114.5313,403.9688 1114.2813,404.125 C1114.125,404.2031 1113.9844,404.2344 1113.5625,404.2344 L1113.3125,404.2344 L1113.3125,406.6563 L1116.9531,406.6563 L1116.9531,404.2344 L1116.7031,404.2344 C1116.25,404.2344 1116.1094,404.2031 1115.9375,404.0938 C1115.7188,403.9219 1115.5781,403.6719 1115.5781,403.3906 C1115.5781,403.1094 1115.7344,402.8125 1115.9844,402.6563 C1116.1406,402.5625 1116.2656,402.5469 1116.7031,402.5469 L1118.4219,402.5469 C1118.875,402.5469 1119.0313,402.5781 1119.2031,402.6875 C1119.4063,402.8594 1119.5313,403.125 1119.5313,403.3906 C1119.5313,403.8906 1119.2188,404.1875 1118.6563,404.2344 L1118.6563,410.75 L1118.75,410.75 C1119.2188,410.75 1119.3594,410.7813 1119.5156,410.9063 C1119.7344,411.0781 1119.875,411.3281 1119.875,411.6094 C1119.875,411.8906 1119.7188,412.1875 1119.4688,412.3281 C1119.3281,412.4219 1119.1094,412.4531 1118.75,412.4531 L1116.7031,412.4531 C1116.2969,412.4531 1116.0938,412.4063 1115.9375,412.2969 C1115.7188,412.125 1115.5781,411.8594 1115.5781,411.6094 C1115.5781,411.3125 1115.7344,411.0313 1115.9844,410.875 C1116.1406,410.7656 1116.2969,410.75 1116.7031,410.75 L1116.9531,410.75 Z "/><text fill="#000000" font-family="sans-serif" font-size="12" lengthAdjust="spacingAndGlyphs" textLength="99" x="1129" y="411.6074">L2DataProxDual</text><line style="stroke: #A80036; stroke-width: 1.5;" x1="1101" x2="1230" y1="423.4531" y2="423.4531"/><line style="stroke: #A80036; stroke-width: 1.5;" x1="1101" x2="1230" y1="431.4531" y2="431.4531"/><ellipse cx="1111" cy="443.3555" fill="#84BE84" rx="3" ry="3" style="stroke: #038048; stroke-width: 1.0;"/><text fill="#000000" font-family="sans-serif" font-size="11" lengthAdjust="spacingAndGlyphs" textLength="97" x="1120" y="445.6636">L2DataProxDual()</text><ellipse cx="1111" cy="456.1602" fill="#84BE84" rx="3" ry="3" style="stroke: #038048; stroke-width: 1.0;"/><text fill="#000000" font-family="sans-serif" font-size="11" lengthAdjust="spacingAndGlyphs" textLength="63" x="1120" y="458.4683">applyProx()</text><!--class functionalPart--><rect fill="#FEFECE" filter="url(#fgfj76l)" height="48" style="stroke: #A80036; stroke-width: 1.5;" width="120" x="491.5" y="28.9531"/><ellipse cx="506.5" cy="44.9531" fill="#ADD1B2" rx="11" ry="11" style="stroke: #A80036; stroke-width: 1.0;"/><path d="M508.8438,40.625 L509.0156,40.7031 C509.2344,40.3906 509.4375,40.2969 509.7344,40.2969 C510.0313,40.2969 510.3125,40.4375 510.4688,40.7031 C510.5625,40.8594 510.5781,40.9844 510.5781,41.4219 L510.5781,42.8438 C510.5781,43.2656 510.5469,43.4531 510.4375,43.6094 C510.2656,43.8281 510,43.9688 509.7344,43.9688 C509.5156,43.9688 509.2813,43.8594 509.1406,43.7188 C509,43.5938 508.9688,43.4688 508.9063,43.0625 C508.8125,42.6563 508.6406,42.4375 508.1563,42.1563 C507.6875,41.9063 507.0781,41.75 506.5,41.75 C504.7656,41.75 503.5156,43.0625 503.5156,44.8438 L503.5156,45.9375 C503.5156,47.6406 504.8125,48.7344 506.8594,48.7344 C507.625,48.7344 508.3125,48.6094 508.7344,48.3438 C508.9219,48.25 508.9219,48.25 509.375,47.7656 C509.5625,47.5781 509.7656,47.5 509.9844,47.5 C510.4531,47.5 510.8438,47.8906 510.8438,48.3438 C510.8438,48.7344 510.5156,49.1875 509.9375,49.5938 C509.1875,50.1406 508.0313,50.4375 506.8125,50.4375 C503.9219,50.4375 501.8125,48.5469 501.8125,45.9688 L501.8125,44.8438 C501.8125,42.125 503.8125,40.0469 506.4375,40.0469 C507.3125,40.0469 507.9063,40.1875 508.8438,40.625 Z "/><text fill="#000000" font-family="sans-serif" font-size="12" lengthAdjust="spacingAndGlyphs" textLength="88" x="520.5" y="49.1074">functionalPart</text><line style="stroke: #A80036; stroke-width: 1.5;" x1="492.5" x2="610.5" y1="60.9531" y2="60.9531"/><line style="stroke: #A80036; stroke-width: 1.5;" x1="492.5" x2="610.5" y1="68.9531" y2="68.9531"/><path d="M512.596,91.3101 C498.012,105.4791 481.375,121.8401 466.5,136.9531 C454.467,149.1791 441.503,162.7641 430.041,174.9231 " fill="none" style="stroke: #A80036; stroke-width: 1.0;"/><polygon fill="none" points="508.193,85.8301,527.436,76.9581,517.926,95.8941,508.193,85.8301" style="stroke: #A80036; stroke-width: 1.0;"/><path d="M594.028,90.2231 C609.977,104.3621 627.984,120.9851 643.5,136.9531 C649.614,143.2451 655.844,150.0351 661.89,156.8601 " fill="none" style="stroke: #A80036; stroke-width: 1.0;"/><polygon fill="none" points="589.385,95.4621,578.934,77.0291,598.599,84.9221,589.385,95.4621" style="stroke: #A80036; stroke-width: 1.0;"/><path d="M727.525,306.9081 C734.211,336.7851 741.209,368.0591 746.402,391.2641 " fill="none" style="stroke: #A80036; stroke-width: 1.0;"/><polygon fill="none" points="720.623,308.1181,723.086,287.0721,734.285,305.0611,720.623,308.1181" style="stroke: #A80036; stroke-width: 1.0;"/><path d="M845.968,278.8181 C823.177,315.8521 795.601,360.6631 776.725,391.3371 " fill="none" style="stroke: #A80036; stroke-width: 1.0;"/><polygon fill="none" points="840.104,274.9911,856.547,261.6261,852.027,282.3281,840.104,274.9911" style="stroke: #A80036; stroke-width: 1.0;"/><path d="M703.535,480.2991 C676.84,506.9331 643.642,540.0531 614.11,569.5171 " fill="none" style="stroke: #A80036; stroke-width: 1.0;"/><polygon fill="none" points="698.926,475.0101,718.028,465.8401,708.814,484.9211,698.926,475.0101" style="stroke: #A80036; stroke-width: 1.0;"/><path d="M357.486,265.5851 C326.65,307.1851 284.728,363.7391 259.475,397.8071 " fill="none" style="stroke: #A80036; stroke-width: 1.0;"/><polygon fill="none" points="351.994,261.2391,369.528,249.3401,363.241,269.5761,351.994,261.2391" style="stroke: #A80036; stroke-width: 1.0;"/><path d="M237.5,269.5101 C237.5,310.6821 237.5,364.7991 237.5,397.8071 " fill="none" style="stroke: #A80036; stroke-width: 1.0;"/><polygon fill="none" points="230.5,269.3401,237.5,249.3401,244.5,269.3401,230.5,269.3401" style="stroke: #A80036; stroke-width: 1.0;"/><path d="M436.041,265.3081 C467.478,306.9341 510.323,363.6641 536.11,397.8071 " fill="none" style="stroke: #A80036; stroke-width: 1.0;"/><polygon fill="none" points="430.449,269.5181,423.981,249.3401,441.621,261.0811,430.449,269.5181" style="stroke: #A80036; stroke-width: 1.0;"/><path d="M556.463,281.8301 C557.011,320.9831 557.668,367.9971 558.085,397.8021 " fill="none" style="stroke: #A80036; stroke-width: 1.0;"/><polygon fill="none" points="549.461,281.7221,556.181,261.6261,563.46,281.5261,549.461,281.7221" style="stroke: #A80036; stroke-width: 1.0;"/><path d="M801.024,480.8941 C836.437,520.0481 884.291,572.9591 915.753,607.7461 " fill="none" style="stroke: #A80036; stroke-width: 1.0;"/><polygon fill="none" points="795.633,485.3691,787.409,465.8401,806.017,475.9781,795.633,485.3691" style="stroke: #A80036; stroke-width: 1.0;"/><path d="M958.815,485.9131 C956.298,524.4741 953.038,574.4241 950.863,607.7461 " fill="none" style="stroke: #A80036; stroke-width: 1.0;"/><polygon fill="none" points="951.837,485.3421,960.125,465.8401,965.808,486.2531,951.837,485.3421" style="stroke: #A80036; stroke-width: 1.0;"/><path d="M750.552,485.9131 C747.855,524.4741 744.362,574.4241 742.032,607.7461 " fill="none" style="stroke: #A80036; stroke-width: 1.0;"/><polygon fill="none" points="743.577,485.3031,751.955,465.8401,757.543,486.2801,743.577,485.3031" style="stroke: #A80036; stroke-width: 1.0;"/><path d="M310.5,695.6371 C310.5,723.1201 310.5,756.3495 310.5,779.789 " fill="none" style="stroke: #A80036; stroke-width: 1.0;"/><polygon fill="none" points="303.5,695.5621,310.5,675.5621,317.5,695.5621,303.5,695.5621" style="stroke: #A80036; stroke-width: 1.0;"/><path d="M698.201,478.3181 C682.826,489.9111 665.655,501.3841 648.5,509.9531 C561.281,553.5221 527.211,531.7791 437.5,569.9531 C408.853,582.1431 378.667,599.5211 354.915,614.3731 " fill="none" style="stroke: #A80036; stroke-width: 1.0;"/><polygon fill="none" points="694.044,472.6821,714.093,465.8231,702.697,483.6871,694.044,472.6821" style="stroke: #A80036; stroke-width: 1.0;"/><path d="M122.234,479.6001 C132.788,489.7641 143.92,500.2941 154.5,509.9531 C194.843,546.7821 242.686,587.4531 274.653,614.2181 " fill="none" style="stroke: #A80036; stroke-width: 1.0;"/><polygon fill="none" points="117.291,484.5571,107.818,465.6021,127.043,474.5121,117.291,484.5571" style="stroke: #A80036; stroke-width: 1.0;"/><path d="M437.561,705.9681 C427.859,710.9391 418.071,715.6861 408.5,719.9531 C373.622,735.5031 281.728,765.5655 215.716,786.5383 " fill="none" style="stroke: #A80036; stroke-width: 1.0;"/><polygon fill="none" points="434.49,699.6731,455.444,696.5181,441.031,712.0511,434.49,699.6731" style="stroke: #A80036; stroke-width: 1.0;"/><path d="M81.9242,485.2441 C97.1916,566.9571 125.103,716.3401 136.948,779.7375 " fill="none" style="stroke: #A80036; stroke-width: 1.0;"/><polygon fill="none" points="75.0359,486.4911,78.2435,465.5451,88.7978,483.9191,75.0359,486.4911" style="stroke: #A80036; stroke-width: 1.0;"/><path d="M1149.3,695.6371 C1144.76,723.1201 1139.27,756.3495 1135.4,779.789 " fill="none" style="stroke: #A80036; stroke-width: 1.0;"/><polygon fill="none" points="1142.45,694.1541,1152.61,675.5621,1156.26,696.4351,1142.45,694.1541" style="stroke: #A80036; stroke-width: 1.0;"/><path d="M810.901,478.1161 C826.274,489.7121 843.42,501.2361 860.5,509.9531 C942.403,551.7501 976.438,528.4691 1058.5,569.9531 C1082.06,581.8611 1105.83,599.4091 1124.17,614.4281 " fill="none" style="stroke: #A80036; stroke-width: 1.0;"/><polygon fill="none" points="806.411,483.4911,795.002,465.6351,815.056,472.4791,806.411,483.4911" style="stroke: #A80036; stroke-width: 1.0;"/><path d="M1163.39,486.0101 C1161.86,527.1821 1159.84,581.2991 1158.61,614.3071 " fill="none" style="stroke: #A80036; stroke-width: 1.0;"/><polygon fill="none" points="1156.4,485.5651,1164.14,465.8401,1170.39,486.0871,1156.4,485.5651" style="stroke: #A80036; stroke-width: 1.0;"/><path d="M642.439,718.9131 C879.379,805.7118 962.991,728.6831 1201.5,779.9531 C1206.97,781.128 1212.57,782.5112 1218.17,784.0266 " fill="none" style="stroke: #A80036; stroke-width: 1.0;"/><polygon fill="none" points="639.834,725.4121,623.602,711.7911,644.786,712.3171,639.834,725.4121" style="stroke: #A80036; stroke-width: 1.0;"/><path d="M1207.21,481.9221 C1225.18,507.1611 1244.73,538.6821 1256.5,569.9531 C1283.58,641.9251 1289.83,733.3841 1291.19,779.6926 " fill="none" style="stroke: #A80036; stroke-width: 1.0;"/><polygon fill="none" points="1201.36,485.7871,1195.14,465.5331,1212.63,477.4831,1201.36,485.7871" style="stroke: #A80036; stroke-width: 1.0;"/><path d="M395.971,269.6401 C395.751,293.2401 395.492,321.0771 395.252,346.7491 " fill="none" style="stroke: #A80036; stroke-width: 1.0;"/><polygon fill="none" points="388.974,269.2741,396.161,249.3401,402.974,269.4041,388.974,269.2741" style="stroke: #A80036; stroke-width: 1.0;"/></g></svg>