<?xml version="1.0" encoding="UTF-8" standalone="no"?><svg xmlns="http://www.w3.org/2000/svg" xmlns:xlink="http://www.w3.org/1999/xlink" contentScriptType="application/ecmascript" contentStyleType="text/css" height="398px" preserveAspectRatio="none" style="width:1688px;height:398px;" version="1.1" viewBox="0 0 1688 398" width="1688px" zoomAndPan="magnify"><defs><filter height="300%" id="fln4ipl" width="300%" x="-1" y="-1"><feGaussianBlur result="blurOut" stdDeviation="2.0"/><feColorMatrix in="blurOut" result="blurOut2" type="matrix" values="0 0 0 0 0 0 0 0 0 0 0 0 0 0 0 0 0 0 .4 0"/><feOffset dx="4.0" dy="4.0" in="blurOut2" result="blurOut3"/><feBlend in="SourceGraphic" in2="blurOut3" mode="normal"/></filter></defs><g><text fill="#000000" font-family="sans-serif" font-size="18" font-weight="bold" lengthAdjust="spacingAndGlyphs" textLength="102" x="797.5" y="16.708">Operators</text><!--class basicOperator--><rect fill="#FEFECE" filter="url(#fln4ipl)" height="99.2188" style="stroke: #A80036; stroke-width: 1.5;" width="144" x="791" y="28.9531"/><ellipse cx="816.35" cy="44.9531" fill="#E6FFE6" rx="11" ry="11" style="stroke: #A80036; stroke-width: 1.0;"/><path d="M816.2563,48.75 L818.6938,42.9844 L818.2875,42.9844 C817.8344,42.9844 817.6938,42.9531 817.5063,42.8438 C817.3031,42.6719 817.1625,42.4219 817.1625,42.1406 C817.1625,41.8594 817.3188,41.5625 817.5844,41.4063 C817.725,41.3125 817.85,41.2969 818.2875,41.2969 L820.5375,41.2969 C820.975,41.2969 821.1469,41.3281 821.3031,41.4375 C821.5219,41.6094 821.6625,41.875 821.6625,42.1406 C821.6625,42.4844 821.4125,42.8281 821.1313,42.9219 C820.975,42.9688 820.8656,42.9844 820.5063,42.9844 L817.0219,51.2031 L815.3344,51.2031 L811.8969,42.9844 C811.5531,42.9844 811.4281,42.9688 811.2719,42.9219 C810.975,42.8281 810.7406,42.4844 810.7406,42.1406 C810.7406,41.8594 810.8969,41.5625 811.1469,41.4063 C811.3031,41.3125 811.4281,41.2969 811.8656,41.2969 L814.1313,41.2969 C814.5688,41.2969 814.7406,41.3281 814.9125,41.4375 C815.1156,41.6094 815.2406,41.875 815.2406,42.1406 C815.2406,42.4375 815.1,42.7188 814.8344,42.875 C814.6938,42.9531 814.5375,42.9844 814.1313,42.9844 L813.8031,42.9844 Z "/><text fill="#000000" font-family="sans-serif" font-size="12" lengthAdjust="spacingAndGlyphs" textLength="89" x="832.65" y="49.1074">basicOperator</text><line style="stroke: #A80036; stroke-width: 1.5;" x1="792" x2="934" y1="60.9531" y2="60.9531"/><line style="stroke: #A80036; stroke-width: 1.5;" x1="792" x2="934" y1="68.9531" y2="68.9531"/><ellipse cx="802" cy="80.8555" fill="#84BE84" rx="3" ry="3" style="stroke: #038048; stroke-width: 1.0;"/><text fill="#000000" font-family="sans-serif" font-size="11" lengthAdjust="spacingAndGlyphs" textLength="118" x="811" y="83.1636">getMaxRowSumAbs()</text><ellipse cx="802" cy="93.6602" fill="#84BE84" rx="3" ry="3" style="stroke: #038048; stroke-width: 1.0;"/><text fill="#000000" font-family="sans-serif" font-size="11" lengthAdjust="spacingAndGlyphs" textLength="51" x="811" y="95.9683">mtimes()</text><ellipse cx="802" cy="106.4648" fill="#84BE84" rx="3" ry="3" style="stroke: #038048; stroke-width: 1.0;"/><text fill="#000000" font-family="sans-serif" font-size="11" lengthAdjust="spacingAndGlyphs" textLength="77" x="811" y="108.7729">returnMatrix()</text><ellipse cx="802" cy="119.2695" fill="#84BE84" rx="3" ry="3" style="stroke: #038048; stroke-width: 1.0;"/><text fill="#000000" font-family="sans-serif" font-size="11" lengthAdjust="spacingAndGlyphs" textLength="30" x="811" y="121.5776">size()</text><!--class concatOperator--><rect fill="#FEFECE" filter="url(#fln4ipl)" height="201.6563" style="stroke: #A80036; stroke-width: 1.5;" width="144" x="6" y="187.9531"/><ellipse cx="26.85" cy="203.9531" fill="#E6FFE6" rx="11" ry="11" style="stroke: #A80036; stroke-width: 1.0;"/><path d="M26.7563,207.75 L29.1938,201.9844 L28.7875,201.9844 C28.3344,201.9844 28.1938,201.9531 28.0063,201.8438 C27.8031,201.6719 27.6625,201.4219 27.6625,201.1406 C27.6625,200.8594 27.8188,200.5625 28.0844,200.4063 C28.225,200.3125 28.35,200.2969 28.7875,200.2969 L31.0375,200.2969 C31.475,200.2969 31.6469,200.3281 31.8031,200.4375 C32.0219,200.6094 32.1625,200.875 32.1625,201.1406 C32.1625,201.4844 31.9125,201.8281 31.6313,201.9219 C31.475,201.9688 31.3656,201.9844 31.0063,201.9844 L27.5219,210.2031 L25.8344,210.2031 L22.3969,201.9844 C22.0531,201.9844 21.9281,201.9688 21.7719,201.9219 C21.475,201.8281 21.2406,201.4844 21.2406,201.1406 C21.2406,200.8594 21.3969,200.5625 21.6469,200.4063 C21.8031,200.3125 21.9281,200.2969 22.3656,200.2969 L24.6313,200.2969 C25.0688,200.2969 25.2406,200.3281 25.4125,200.4375 C25.6156,200.6094 25.7406,200.875 25.7406,201.1406 C25.7406,201.4375 25.6,201.7188 25.3344,201.875 C25.1938,201.9531 25.0375,201.9844 24.6313,201.9844 L24.3031,201.9844 Z "/><text fill="#000000" font-family="sans-serif" font-size="12" lengthAdjust="spacingAndGlyphs" textLength="99" x="42.15" y="208.1074">concatOperator</text><line style="stroke: #A80036; stroke-width: 1.5;" x1="7" x2="149" y1="219.9531" y2="219.9531"/><ellipse cx="17" cy="231.8555" fill="none" rx="3" ry="3" style="stroke: #038048; stroke-width: 1.0;"/><text fill="#000000" font-family="sans-serif" font-size="11" lengthAdjust="spacingAndGlyphs" textLength="7" x="26" y="234.1636">A</text><ellipse cx="17" cy="244.6602" fill="none" rx="3" ry="3" style="stroke: #038048; stroke-width: 1.0;"/><text fill="#000000" font-family="sans-serif" font-size="11" lengthAdjust="spacingAndGlyphs" textLength="14" x="26" y="246.9683">AT</text><ellipse cx="17" cy="257.4648" fill="none" rx="3" ry="3" style="stroke: #038048; stroke-width: 1.0;"/><text fill="#000000" font-family="sans-serif" font-size="11" lengthAdjust="spacingAndGlyphs" textLength="8" x="26" y="259.7729">B</text><ellipse cx="17" cy="270.2695" fill="none" rx="3" ry="3" style="stroke: #038048; stroke-width: 1.0;"/><text fill="#000000" font-family="sans-serif" font-size="11" lengthAdjust="spacingAndGlyphs" textLength="15" x="26" y="272.5776">BT</text><ellipse cx="17" cy="283.0742" fill="none" rx="3" ry="3" style="stroke: #038048; stroke-width: 1.0;"/><text fill="#000000" font-family="sans-serif" font-size="11" lengthAdjust="spacingAndGlyphs" textLength="65" x="26" y="285.3823">transposed</text><line style="stroke: #A80036; stroke-width: 1.5;" x1="7" x2="149" y1="291.9766" y2="291.9766"/><ellipse cx="17" cy="303.8789" fill="#84BE84" rx="3" ry="3" style="stroke: #038048; stroke-width: 1.0;"/><text fill="#000000" font-family="sans-serif" font-size="11" lengthAdjust="spacingAndGlyphs" textLength="96" x="26" y="306.187">concatOperator()</text><ellipse cx="17" cy="316.6836" fill="#84BE84" rx="3" ry="3" style="stroke: #038048; stroke-width: 1.0;"/><text fill="#000000" font-family="sans-serif" font-size="11" lengthAdjust="spacingAndGlyphs" textLength="29" x="26" y="318.9917">abs()</text><ellipse cx="17" cy="329.4883" fill="#84BE84" rx="3" ry="3" style="stroke: #038048; stroke-width: 1.0;"/><text fill="#000000" font-family="sans-serif" font-size="11" lengthAdjust="spacingAndGlyphs" textLength="72" x="26" y="331.7964">ctranspose()</text><ellipse cx="17" cy="342.293" fill="#84BE84" rx="3" ry="3" style="stroke: #038048; stroke-width: 1.0;"/><text fill="#000000" font-family="sans-serif" font-size="11" lengthAdjust="spacingAndGlyphs" textLength="118" x="26" y="344.6011">getMaxRowSumAbs()</text><ellipse cx="17" cy="355.0977" fill="#84BE84" rx="3" ry="3" style="stroke: #038048; stroke-width: 1.0;"/><text fill="#000000" font-family="sans-serif" font-size="11" lengthAdjust="spacingAndGlyphs" textLength="51" x="26" y="357.4058">mtimes()</text><ellipse cx="17" cy="367.9023" fill="#84BE84" rx="3" ry="3" style="stroke: #038048; stroke-width: 1.0;"/><text fill="#000000" font-family="sans-serif" font-size="11" lengthAdjust="spacingAndGlyphs" textLength="77" x="26" y="370.2104">returnMatrix()</text><ellipse cx="17" cy="380.707" fill="#84BE84" rx="3" ry="3" style="stroke: #038048; stroke-width: 1.0;"/><text fill="#000000" font-family="sans-serif" font-size="11" lengthAdjust="spacingAndGlyphs" textLength="30" x="26" y="383.0151">size()</text><!--class convolutionOperator--><rect fill="#FEFECE" filter="url(#fln4ipl)" height="201.6563" style="stroke: #A80036; stroke-width: 1.5;" width="160" x="185" y="187.9531"/><ellipse cx="200" cy="203.9531" fill="#E6FFE6" rx="11" ry="11" style="stroke: #A80036; stroke-width: 1.0;"/><path d="M199.9063,207.75 L202.3438,201.9844 L201.9375,201.9844 C201.4844,201.9844 201.3438,201.9531 201.1563,201.8438 C200.9531,201.6719 200.8125,201.4219 200.8125,201.1406 C200.8125,200.8594 200.9688,200.5625 201.2344,200.4063 C201.375,200.3125 201.5,200.2969 201.9375,200.2969 L204.1875,200.2969 C204.625,200.2969 204.7969,200.3281 204.9531,200.4375 C205.1719,200.6094 205.3125,200.875 205.3125,201.1406 C205.3125,201.4844 205.0625,201.8281 204.7813,201.9219 C204.625,201.9688 204.5156,201.9844 204.1563,201.9844 L200.6719,210.2031 L198.9844,210.2031 L195.5469,201.9844 C195.2031,201.9844 195.0781,201.9688 194.9219,201.9219 C194.625,201.8281 194.3906,201.4844 194.3906,201.1406 C194.3906,200.8594 194.5469,200.5625 194.7969,200.4063 C194.9531,200.3125 195.0781,200.2969 195.5156,200.2969 L197.7813,200.2969 C198.2188,200.2969 198.3906,200.3281 198.5625,200.4375 C198.7656,200.6094 198.8906,200.875 198.8906,201.1406 C198.8906,201.4375 198.75,201.7188 198.4844,201.875 C198.3438,201.9531 198.1875,201.9844 197.7813,201.9844 L197.4531,201.9844 Z "/><text fill="#000000" font-family="sans-serif" font-size="12" lengthAdjust="spacingAndGlyphs" textLength="128" x="214" y="208.1074">convolutionOperator</text><line style="stroke: #A80036; stroke-width: 1.5;" x1="186" x2="344" y1="219.9531" y2="219.9531"/><ellipse cx="196" cy="231.8555" fill="none" rx="3" ry="3" style="stroke: #038048; stroke-width: 1.0;"/><text fill="#000000" font-family="sans-serif" font-size="11" lengthAdjust="spacingAndGlyphs" textLength="40" x="205" y="234.1636">fftFilter</text><ellipse cx="196" cy="244.6602" fill="none" rx="3" ry="3" style="stroke: #038048; stroke-width: 1.0;"/><text fill="#000000" font-family="sans-serif" font-size="11" lengthAdjust="spacingAndGlyphs" textLength="48" x="205" y="246.9683">fftFilterC</text><ellipse cx="196" cy="257.4648" fill="none" rx="3" ry="3" style="stroke: #038048; stroke-width: 1.0;"/><text fill="#000000" font-family="sans-serif" font-size="11" lengthAdjust="spacingAndGlyphs" textLength="88" x="205" y="259.7729">inputDimension</text><ellipse cx="196" cy="270.2695" fill="none" rx="3" ry="3" style="stroke: #038048; stroke-width: 1.0;"/><text fill="#000000" font-family="sans-serif" font-size="11" lengthAdjust="spacingAndGlyphs" textLength="35" x="205" y="272.5776">kernel</text><ellipse cx="196" cy="283.0742" fill="none" rx="3" ry="3" style="stroke: #038048; stroke-width: 1.0;"/><text fill="#000000" font-family="sans-serif" font-size="11" lengthAdjust="spacingAndGlyphs" textLength="65" x="205" y="285.3823">transposed</text><line style="stroke: #A80036; stroke-width: 1.5;" x1="186" x2="344" y1="291.9766" y2="291.9766"/><ellipse cx="196" cy="303.8789" fill="#84BE84" rx="3" ry="3" style="stroke: #038048; stroke-width: 1.0;"/><text fill="#000000" font-family="sans-serif" font-size="11" lengthAdjust="spacingAndGlyphs" textLength="123" x="205" y="306.187">convolutionOperator()</text><ellipse cx="196" cy="316.6836" fill="#84BE84" rx="3" ry="3" style="stroke: #038048; stroke-width: 1.0;"/><text fill="#000000" font-family="sans-serif" font-size="11" lengthAdjust="spacingAndGlyphs" textLength="29" x="205" y="318.9917">abs()</text><ellipse cx="196" cy="329.4883" fill="#84BE84" rx="3" ry="3" style="stroke: #038048; stroke-width: 1.0;"/><text fill="#000000" font-family="sans-serif" font-size="11" lengthAdjust="spacingAndGlyphs" textLength="72" x="205" y="331.7964">ctranspose()</text><ellipse cx="196" cy="342.293" fill="#84BE84" rx="3" ry="3" style="stroke: #038048; stroke-width: 1.0;"/><text fill="#000000" font-family="sans-serif" font-size="11" lengthAdjust="spacingAndGlyphs" textLength="118" x="205" y="344.6011">getMaxRowSumAbs()</text><ellipse cx="196" cy="355.0977" fill="#84BE84" rx="3" ry="3" style="stroke: #038048; stroke-width: 1.0;"/><text fill="#000000" font-family="sans-serif" font-size="11" lengthAdjust="spacingAndGlyphs" textLength="51" x="205" y="357.4058">mtimes()</text><ellipse cx="196" cy="367.9023" fill="#84BE84" rx="3" ry="3" style="stroke: #038048; stroke-width: 1.0;"/><text fill="#000000" font-family="sans-serif" font-size="11" lengthAdjust="spacingAndGlyphs" textLength="77" x="205" y="370.2104">returnMatrix()</text><ellipse cx="196" cy="380.707" fill="#84BE84" rx="3" ry="3" style="stroke: #038048; stroke-width: 1.0;"/><text fill="#000000" font-family="sans-serif" font-size="11" lengthAdjust="spacingAndGlyphs" textLength="30" x="205" y="383.0151">size()</text><!--class diagonalOperator--><rect fill="#FEFECE" filter="url(#fln4ipl)" height="137.6328" style="stroke: #A80036; stroke-width: 1.5;" width="144" x="380" y="219.9531"/><ellipse cx="395.9" cy="235.9531" fill="#E6FFE6" rx="11" ry="11" style="stroke: #A80036; stroke-width: 1.0;"/><path d="M395.8063,239.75 L398.2438,233.9844 L397.8375,233.9844 C397.3844,233.9844 397.2438,233.9531 397.0563,233.8438 C396.8531,233.6719 396.7125,233.4219 396.7125,233.1406 C396.7125,232.8594 396.8688,232.5625 397.1344,232.4063 C397.275,232.3125 397.4,232.2969 397.8375,232.2969 L400.0875,232.2969 C400.525,232.2969 400.6969,232.3281 400.8531,232.4375 C401.0719,232.6094 401.2125,232.875 401.2125,233.1406 C401.2125,233.4844 400.9625,233.8281 400.6813,233.9219 C400.525,233.9688 400.4156,233.9844 400.0563,233.9844 L396.5719,242.2031 L394.8844,242.2031 L391.4469,233.9844 C391.1031,233.9844 390.9781,233.9688 390.8219,233.9219 C390.525,233.8281 390.2906,233.4844 390.2906,233.1406 C390.2906,232.8594 390.4469,232.5625 390.6969,232.4063 C390.8531,232.3125 390.9781,232.2969 391.4156,232.2969 L393.6813,232.2969 C394.1188,232.2969 394.2906,232.3281 394.4625,232.4375 C394.6656,232.6094 394.7906,232.875 394.7906,233.1406 C394.7906,233.4375 394.65,233.7188 394.3844,233.875 C394.2438,233.9531 394.0875,233.9844 393.6813,233.9844 L393.3531,233.9844 Z "/><text fill="#000000" font-family="sans-serif" font-size="12" lengthAdjust="spacingAndGlyphs" textLength="110" x="410.1" y="240.1074">diagonalOperator</text><line style="stroke: #A80036; stroke-width: 1.5;" x1="381" x2="523" y1="251.9531" y2="251.9531"/><ellipse cx="391" cy="263.8555" fill="none" rx="3" ry="3" style="stroke: #038048; stroke-width: 1.0;"/><text fill="#000000" font-family="sans-serif" font-size="11" lengthAdjust="spacingAndGlyphs" textLength="101" x="400" y="266.1636">diagonalElements</text><line style="stroke: #A80036; stroke-width: 1.5;" x1="381" x2="523" y1="272.7578" y2="272.7578"/><ellipse cx="391" cy="284.6602" fill="#84BE84" rx="3" ry="3" style="stroke: #038048; stroke-width: 1.0;"/><text fill="#000000" font-family="sans-serif" font-size="11" lengthAdjust="spacingAndGlyphs" textLength="107" x="400" y="286.9683">diagonalOperator()</text><ellipse cx="391" cy="297.4648" fill="#84BE84" rx="3" ry="3" style="stroke: #038048; stroke-width: 1.0;"/><text fill="#000000" font-family="sans-serif" font-size="11" lengthAdjust="spacingAndGlyphs" textLength="29" x="400" y="299.7729">abs()</text><ellipse cx="391" cy="310.2695" fill="#84BE84" rx="3" ry="3" style="stroke: #038048; stroke-width: 1.0;"/><text fill="#000000" font-family="sans-serif" font-size="11" lengthAdjust="spacingAndGlyphs" textLength="118" x="400" y="312.5776">getMaxRowSumAbs()</text><ellipse cx="391" cy="323.0742" fill="#84BE84" rx="3" ry="3" style="stroke: #038048; stroke-width: 1.0;"/><text fill="#000000" font-family="sans-serif" font-size="11" lengthAdjust="spacingAndGlyphs" textLength="51" x="400" y="325.3823">mtimes()</text><ellipse cx="391" cy="335.8789" fill="#84BE84" rx="3" ry="3" style="stroke: #038048; stroke-width: 1.0;"/><text fill="#000000" font-family="sans-serif" font-size="11" lengthAdjust="spacingAndGlyphs" textLength="77" x="400" y="338.187">returnMatrix()</text><ellipse cx="391" cy="348.6836" fill="#84BE84" rx="3" ry="3" style="stroke: #038048; stroke-width: 1.0;"/><text fill="#000000" font-family="sans-serif" font-size="11" lengthAdjust="spacingAndGlyphs" textLength="30" x="400" y="350.9917">size()</text><!--class downsamplingOperator--><rect fill="#FEFECE" filter="url(#fln4ipl)" height="176.0469" style="stroke: #A80036; stroke-width: 1.5;" width="177" x="559.5" y="200.9531"/><ellipse cx="574.5" cy="216.9531" fill="#E6FFE6" rx="11" ry="11" style="stroke: #A80036; stroke-width: 1.0;"/><path d="M574.4063,220.75 L576.8438,214.9844 L576.4375,214.9844 C575.9844,214.9844 575.8438,214.9531 575.6563,214.8438 C575.4531,214.6719 575.3125,214.4219 575.3125,214.1406 C575.3125,213.8594 575.4688,213.5625 575.7344,213.4063 C575.875,213.3125 576,213.2969 576.4375,213.2969 L578.6875,213.2969 C579.125,213.2969 579.2969,213.3281 579.4531,213.4375 C579.6719,213.6094 579.8125,213.875 579.8125,214.1406 C579.8125,214.4844 579.5625,214.8281 579.2813,214.9219 C579.125,214.9688 579.0156,214.9844 578.6563,214.9844 L575.1719,223.2031 L573.4844,223.2031 L570.0469,214.9844 C569.7031,214.9844 569.5781,214.9688 569.4219,214.9219 C569.125,214.8281 568.8906,214.4844 568.8906,214.1406 C568.8906,213.8594 569.0469,213.5625 569.2969,213.4063 C569.4531,213.3125 569.5781,213.2969 570.0156,213.2969 L572.2813,213.2969 C572.7188,213.2969 572.8906,213.3281 573.0625,213.4375 C573.2656,213.6094 573.3906,213.875 573.3906,214.1406 C573.3906,214.4375 573.25,214.7188 572.9844,214.875 C572.8438,214.9531 572.6875,214.9844 572.2813,214.9844 L571.9531,214.9844 Z "/><text fill="#000000" font-family="sans-serif" font-size="12" lengthAdjust="spacingAndGlyphs" textLength="145" x="588.5" y="221.1074">downsamplingOperator</text><line style="stroke: #A80036; stroke-width: 1.5;" x1="560.5" x2="735.5" y1="232.9531" y2="232.9531"/><ellipse cx="570.5" cy="244.8555" fill="none" rx="3" ry="3" style="stroke: #038048; stroke-width: 1.0;"/><text fill="#000000" font-family="sans-serif" font-size="11" lengthAdjust="spacingAndGlyphs" textLength="33" x="579.5" y="247.1636">factor</text><ellipse cx="570.5" cy="257.6602" fill="none" rx="3" ry="3" style="stroke: #038048; stroke-width: 1.0;"/><text fill="#000000" font-family="sans-serif" font-size="11" lengthAdjust="spacingAndGlyphs" textLength="36" x="579.5" y="259.9683">matrix</text><ellipse cx="570.5" cy="270.4648" fill="none" rx="3" ry="3" style="stroke: #038048; stroke-width: 1.0;"/><text fill="#000000" font-family="sans-serif" font-size="11" lengthAdjust="spacingAndGlyphs" textLength="94" x="579.5" y="272.7729">targetDimension</text><line style="stroke: #A80036; stroke-width: 1.5;" x1="560.5" x2="735.5" y1="279.3672" y2="279.3672"/><ellipse cx="570.5" cy="291.2695" fill="#84BE84" rx="3" ry="3" style="stroke: #038048; stroke-width: 1.0;"/><text fill="#000000" font-family="sans-serif" font-size="11" lengthAdjust="spacingAndGlyphs" textLength="141" x="579.5" y="293.5776">downsamplingOperator()</text><ellipse cx="570.5" cy="304.0742" fill="#84BE84" rx="3" ry="3" style="stroke: #038048; stroke-width: 1.0;"/><text fill="#000000" font-family="sans-serif" font-size="11" lengthAdjust="spacingAndGlyphs" textLength="29" x="579.5" y="306.3823">abs()</text><ellipse cx="570.5" cy="316.8789" fill="#84BE84" rx="3" ry="3" style="stroke: #038048; stroke-width: 1.0;"/><text fill="#000000" font-family="sans-serif" font-size="11" lengthAdjust="spacingAndGlyphs" textLength="72" x="579.5" y="319.187">ctranspose()</text><ellipse cx="570.5" cy="329.6836" fill="#84BE84" rx="3" ry="3" style="stroke: #038048; stroke-width: 1.0;"/><text fill="#000000" font-family="sans-serif" font-size="11" lengthAdjust="spacingAndGlyphs" textLength="118" x="579.5" y="331.9917">getMaxRowSumAbs()</text><ellipse cx="570.5" cy="342.4883" fill="#84BE84" rx="3" ry="3" style="stroke: #038048; stroke-width: 1.0;"/><text fill="#000000" font-family="sans-serif" font-size="11" lengthAdjust="spacingAndGlyphs" textLength="51" x="579.5" y="344.7964">mtimes()</text><ellipse cx="570.5" cy="355.293" fill="#84BE84" rx="3" ry="3" style="stroke: #038048; stroke-width: 1.0;"/><text fill="#000000" font-family="sans-serif" font-size="11" lengthAdjust="spacingAndGlyphs" textLength="77" x="579.5" y="357.6011">returnMatrix()</text><ellipse cx="570.5" cy="368.0977" fill="#84BE84" rx="3" ry="3" style="stroke: #038048; stroke-width: 1.0;"/><text fill="#000000" font-family="sans-serif" font-size="11" lengthAdjust="spacingAndGlyphs" textLength="30" x="579.5" y="370.4058">size()</text><!--class functionHandleOperator--><rect fill="#FEFECE" filter="url(#fln4ipl)" height="201.6563" style="stroke: #A80036; stroke-width: 1.5;" width="183" x="771.5" y="187.9531"/><ellipse cx="786.5" cy="203.9531" fill="#E6FFE6" rx="11" ry="11" style="stroke: #A80036; stroke-width: 1.0;"/><path d="M786.4063,207.75 L788.8438,201.9844 L788.4375,201.9844 C787.9844,201.9844 787.8438,201.9531 787.6563,201.8438 C787.4531,201.6719 787.3125,201.4219 787.3125,201.1406 C787.3125,200.8594 787.4688,200.5625 787.7344,200.4063 C787.875,200.3125 788,200.2969 788.4375,200.2969 L790.6875,200.2969 C791.125,200.2969 791.2969,200.3281 791.4531,200.4375 C791.6719,200.6094 791.8125,200.875 791.8125,201.1406 C791.8125,201.4844 791.5625,201.8281 791.2813,201.9219 C791.125,201.9688 791.0156,201.9844 790.6563,201.9844 L787.1719,210.2031 L785.4844,210.2031 L782.0469,201.9844 C781.7031,201.9844 781.5781,201.9688 781.4219,201.9219 C781.125,201.8281 780.8906,201.4844 780.8906,201.1406 C780.8906,200.8594 781.0469,200.5625 781.2969,200.4063 C781.4531,200.3125 781.5781,200.2969 782.0156,200.2969 L784.2813,200.2969 C784.7188,200.2969 784.8906,200.3281 785.0625,200.4375 C785.2656,200.6094 785.3906,200.875 785.3906,201.1406 C785.3906,201.4375 785.25,201.7188 784.9844,201.875 C784.8438,201.9531 784.6875,201.9844 784.2813,201.9844 L783.9531,201.9844 Z "/><text fill="#000000" font-family="sans-serif" font-size="12" lengthAdjust="spacingAndGlyphs" textLength="151" x="800.5" y="208.1074">functionHandleOperator</text><line style="stroke: #A80036; stroke-width: 1.5;" x1="772.5" x2="953.5" y1="219.9531" y2="219.9531"/><ellipse cx="782.5" cy="231.8555" fill="none" rx="3" ry="3" style="stroke: #038048; stroke-width: 1.0;"/><text fill="#000000" font-family="sans-serif" font-size="11" lengthAdjust="spacingAndGlyphs" textLength="78" x="791.5" y="234.1636">argumentSize</text><ellipse cx="782.5" cy="244.6602" fill="none" rx="3" ry="3" style="stroke: #038048; stroke-width: 1.0;"/><text fill="#000000" font-family="sans-serif" font-size="11" lengthAdjust="spacingAndGlyphs" textLength="43" x="791.5" y="246.9683">fHandle</text><ellipse cx="782.5" cy="257.4648" fill="none" rx="3" ry="3" style="stroke: #038048; stroke-width: 1.0;"/><text fill="#000000" font-family="sans-serif" font-size="11" lengthAdjust="spacingAndGlyphs" textLength="50" x="791.5" y="259.7729">fHandleT</text><ellipse cx="782.5" cy="270.2695" fill="none" rx="3" ry="3" style="stroke: #038048; stroke-width: 1.0;"/><text fill="#000000" font-family="sans-serif" font-size="11" lengthAdjust="spacingAndGlyphs" textLength="80" x="791.5" y="272.5776">operatorNorm</text><ellipse cx="782.5" cy="283.0742" fill="none" rx="3" ry="3" style="stroke: #038048; stroke-width: 1.0;"/><text fill="#000000" font-family="sans-serif" font-size="11" lengthAdjust="spacingAndGlyphs" textLength="65" x="791.5" y="285.3823">transposed</text><line style="stroke: #A80036; stroke-width: 1.5;" x1="772.5" x2="953.5" y1="291.9766" y2="291.9766"/><ellipse cx="782.5" cy="303.8789" fill="#84BE84" rx="3" ry="3" style="stroke: #038048; stroke-width: 1.0;"/><text fill="#000000" font-family="sans-serif" font-size="11" lengthAdjust="spacingAndGlyphs" textLength="143" x="791.5" y="306.187">functionHandleOperator()</text><ellipse cx="782.5" cy="316.6836" fill="#84BE84" rx="3" ry="3" style="stroke: #038048; stroke-width: 1.0;"/><text fill="#000000" font-family="sans-serif" font-size="11" lengthAdjust="spacingAndGlyphs" textLength="29" x="791.5" y="318.9917">abs()</text><ellipse cx="782.5" cy="329.4883" fill="#84BE84" rx="3" ry="3" style="stroke: #038048; stroke-width: 1.0;"/><text fill="#000000" font-family="sans-serif" font-size="11" lengthAdjust="spacingAndGlyphs" textLength="72" x="791.5" y="331.7964">ctranspose()</text><ellipse cx="782.5" cy="342.293" fill="#84BE84" rx="3" ry="3" style="stroke: #038048; stroke-width: 1.0;"/><text fill="#000000" font-family="sans-serif" font-size="11" lengthAdjust="spacingAndGlyphs" textLength="118" x="791.5" y="344.6011">getMaxRowSumAbs()</text><ellipse cx="782.5" cy="355.0977" fill="#84BE84" rx="3" ry="3" style="stroke: #038048; stroke-width: 1.0;"/><text fill="#000000" font-family="sans-serif" font-size="11" lengthAdjust="spacingAndGlyphs" textLength="51" x="791.5" y="357.4058">mtimes()</text><ellipse cx="782.5" cy="367.9023" fill="#84BE84" rx="3" ry="3" style="stroke: #038048; stroke-width: 1.0;"/><text fill="#000000" font-family="sans-serif" font-size="11" lengthAdjust="spacingAndGlyphs" textLength="77" x="791.5" y="370.2104">returnMatrix()</text><ellipse cx="782.5" cy="380.707" fill="#84BE84" rx="3" ry="3" style="stroke: #038048; stroke-width: 1.0;"/><text fill="#000000" font-family="sans-serif" font-size="11" lengthAdjust="spacingAndGlyphs" textLength="30" x="791.5" y="383.0151">size()</text><!--class gradientOperator--><rect fill="#FEFECE" filter="url(#fln4ipl)" height="188.8516" style="stroke: #A80036; stroke-width: 1.5;" width="144" x="990" y="194.4531"/><ellipse cx="1006.35" cy="210.4531" fill="#E6FFE6" rx="11" ry="11" style="stroke: #A80036; stroke-width: 1.0;"/><path d="M1006.2563,214.25 L1008.6938,208.4844 L1008.2875,208.4844 C1007.8344,208.4844 1007.6938,208.4531 1007.5063,208.3438 C1007.3031,208.1719 1007.1625,207.9219 1007.1625,207.6406 C1007.1625,207.3594 1007.3188,207.0625 1007.5844,206.9063 C1007.725,206.8125 1007.85,206.7969 1008.2875,206.7969 L1010.5375,206.7969 C1010.975,206.7969 1011.1469,206.8281 1011.3031,206.9375 C1011.5219,207.1094 1011.6625,207.375 1011.6625,207.6406 C1011.6625,207.9844 1011.4125,208.3281 1011.1313,208.4219 C1010.975,208.4688 1010.8656,208.4844 1010.5063,208.4844 L1007.0219,216.7031 L1005.3344,216.7031 L1001.8969,208.4844 C1001.5531,208.4844 1001.4281,208.4688 1001.2719,208.4219 C1000.975,208.3281 1000.7406,207.9844 1000.7406,207.6406 C1000.7406,207.3594 1000.8969,207.0625 1001.1469,206.9063 C1001.3031,206.8125 1001.4281,206.7969 1001.8656,206.7969 L1004.1313,206.7969 C1004.5688,206.7969 1004.7406,206.8281 1004.9125,206.9375 C1005.1156,207.1094 1005.2406,207.375 1005.2406,207.6406 C1005.2406,207.9375 1005.1,208.2188 1004.8344,208.375 C1004.6938,208.4531 1004.5375,208.4844 1004.1313,208.4844 L1003.8031,208.4844 Z "/><text fill="#000000" font-family="sans-serif" font-size="12" lengthAdjust="spacingAndGlyphs" textLength="109" x="1020.65" y="214.6074">gradientOperator</text><line style="stroke: #A80036; stroke-width: 1.5;" x1="991" x2="1133" y1="226.4531" y2="226.4531"/><ellipse cx="1001" cy="238.3555" fill="none" rx="3" ry="3" style="stroke: #038048; stroke-width: 1.0;"/><text fill="#000000" font-family="sans-serif" font-size="11" lengthAdjust="spacingAndGlyphs" textLength="76" x="1010" y="240.6636">gradDirection</text><ellipse cx="1001" cy="251.1602" fill="none" rx="3" ry="3" style="stroke: #038048; stroke-width: 1.0;"/><text fill="#000000" font-family="sans-serif" font-size="11" lengthAdjust="spacingAndGlyphs" textLength="88" x="1010" y="253.4683">inputDimension</text><ellipse cx="1001" cy="263.9648" fill="none" rx="3" ry="3" style="stroke: #038048; stroke-width: 1.0;"/><text fill="#000000" font-family="sans-serif" font-size="11" lengthAdjust="spacingAndGlyphs" textLength="36" x="1010" y="266.2729">matrix</text><ellipse cx="1001" cy="276.7695" fill="none" rx="3" ry="3" style="stroke: #038048; stroke-width: 1.0;"/><text fill="#000000" font-family="sans-serif" font-size="11" lengthAdjust="spacingAndGlyphs" textLength="24" x="1010" y="279.0776">type</text><line style="stroke: #A80036; stroke-width: 1.5;" x1="991" x2="1133" y1="285.6719" y2="285.6719"/><ellipse cx="1001" cy="297.5742" fill="#84BE84" rx="3" ry="3" style="stroke: #038048; stroke-width: 1.0;"/><text fill="#000000" font-family="sans-serif" font-size="11" lengthAdjust="spacingAndGlyphs" textLength="106" x="1010" y="299.8823">gradientOperator()</text><ellipse cx="1001" cy="310.3789" fill="#84BE84" rx="3" ry="3" style="stroke: #038048; stroke-width: 1.0;"/><text fill="#000000" font-family="sans-serif" font-size="11" lengthAdjust="spacingAndGlyphs" textLength="29" x="1010" y="312.687">abs()</text><ellipse cx="1001" cy="323.1836" fill="#84BE84" rx="3" ry="3" style="stroke: #038048; stroke-width: 1.0;"/><text fill="#000000" font-family="sans-serif" font-size="11" lengthAdjust="spacingAndGlyphs" textLength="72" x="1010" y="325.4917">ctranspose()</text><ellipse cx="1001" cy="335.9883" fill="#84BE84" rx="3" ry="3" style="stroke: #038048; stroke-width: 1.0;"/><text fill="#000000" font-family="sans-serif" font-size="11" lengthAdjust="spacingAndGlyphs" textLength="118" x="1010" y="338.2964">getMaxRowSumAbs()</text><ellipse cx="1001" cy="348.793" fill="#84BE84" rx="3" ry="3" style="stroke: #038048; stroke-width: 1.0;"/><text fill="#000000" font-family="sans-serif" font-size="11" lengthAdjust="spacingAndGlyphs" textLength="51" x="1010" y="351.1011">mtimes()</text><ellipse cx="1001" cy="361.5977" fill="#84BE84" rx="3" ry="3" style="stroke: #038048; stroke-width: 1.0;"/><text fill="#000000" font-family="sans-serif" font-size="11" lengthAdjust="spacingAndGlyphs" textLength="77" x="1010" y="363.9058">returnMatrix()</text><ellipse cx="1001" cy="374.4023" fill="#84BE84" rx="3" ry="3" style="stroke: #038048; stroke-width: 1.0;"/><text fill="#000000" font-family="sans-serif" font-size="11" lengthAdjust="spacingAndGlyphs" textLength="30" x="1010" y="376.7104">size()</text><!--class identityOperator--><rect fill="#FEFECE" filter="url(#fln4ipl)" height="163.2422" style="stroke: #A80036; stroke-width: 1.5;" width="144" x="1169" y="207.4531"/><ellipse cx="1188.5" cy="223.4531" fill="#E6FFE6" rx="11" ry="11" style="stroke: #A80036; stroke-width: 1.0;"/><path d="M1188.4063,227.25 L1190.8438,221.4844 L1190.4375,221.4844 C1189.9844,221.4844 1189.8438,221.4531 1189.6563,221.3438 C1189.4531,221.1719 1189.3125,220.9219 1189.3125,220.6406 C1189.3125,220.3594 1189.4688,220.0625 1189.7344,219.9063 C1189.875,219.8125 1190,219.7969 1190.4375,219.7969 L1192.6875,219.7969 C1193.125,219.7969 1193.2969,219.8281 1193.4531,219.9375 C1193.6719,220.1094 1193.8125,220.375 1193.8125,220.6406 C1193.8125,220.9844 1193.5625,221.3281 1193.2813,221.4219 C1193.125,221.4688 1193.0156,221.4844 1192.6563,221.4844 L1189.1719,229.7031 L1187.4844,229.7031 L1184.0469,221.4844 C1183.7031,221.4844 1183.5781,221.4688 1183.4219,221.4219 C1183.125,221.3281 1182.8906,220.9844 1182.8906,220.6406 C1182.8906,220.3594 1183.0469,220.0625 1183.2969,219.9063 C1183.4531,219.8125 1183.5781,219.7969 1184.0156,219.7969 L1186.2813,219.7969 C1186.7188,219.7969 1186.8906,219.8281 1187.0625,219.9375 C1187.2656,220.1094 1187.3906,220.375 1187.3906,220.6406 C1187.3906,220.9375 1187.25,221.2188 1186.9844,221.375 C1186.8438,221.4531 1186.6875,221.4844 1186.2813,221.4844 L1185.9531,221.4844 Z "/><text fill="#000000" font-family="sans-serif" font-size="12" lengthAdjust="spacingAndGlyphs" textLength="102" x="1203.5" y="227.6074">identityOperator</text><line style="stroke: #A80036; stroke-width: 1.5;" x1="1170" x2="1312" y1="239.4531" y2="239.4531"/><ellipse cx="1180" cy="251.3555" fill="none" rx="3" ry="3" style="stroke: #038048; stroke-width: 1.0;"/><text fill="#000000" font-family="sans-serif" font-size="11" lengthAdjust="spacingAndGlyphs" textLength="35" x="1189" y="253.6636">minus</text><ellipse cx="1180" cy="264.1602" fill="none" rx="3" ry="3" style="stroke: #038048; stroke-width: 1.0;"/><text fill="#000000" font-family="sans-serif" font-size="11" lengthAdjust="spacingAndGlyphs" textLength="20" x="1189" y="266.4683">nPx</text><line style="stroke: #A80036; stroke-width: 1.5;" x1="1170" x2="1312" y1="273.0625" y2="273.0625"/><ellipse cx="1180" cy="284.9648" fill="#84BE84" rx="3" ry="3" style="stroke: #038048; stroke-width: 1.0;"/><text fill="#000000" font-family="sans-serif" font-size="11" lengthAdjust="spacingAndGlyphs" textLength="100" x="1189" y="287.2729">identityOperator()</text><ellipse cx="1180" cy="297.7695" fill="#84BE84" rx="3" ry="3" style="stroke: #038048; stroke-width: 1.0;"/><text fill="#000000" font-family="sans-serif" font-size="11" lengthAdjust="spacingAndGlyphs" textLength="29" x="1189" y="300.0776">abs()</text><ellipse cx="1180" cy="310.5742" fill="#84BE84" rx="3" ry="3" style="stroke: #038048; stroke-width: 1.0;"/><text fill="#000000" font-family="sans-serif" font-size="11" lengthAdjust="spacingAndGlyphs" textLength="118" x="1189" y="312.8823">getMaxRowSumAbs()</text><ellipse cx="1180" cy="323.3789" fill="#84BE84" rx="3" ry="3" style="stroke: #038048; stroke-width: 1.0;"/><text fill="#000000" font-family="sans-serif" font-size="11" lengthAdjust="spacingAndGlyphs" textLength="51" x="1189" y="325.687">mtimes()</text><ellipse cx="1180" cy="336.1836" fill="#84BE84" rx="3" ry="3" style="stroke: #038048; stroke-width: 1.0;"/><text fill="#000000" font-family="sans-serif" font-size="11" lengthAdjust="spacingAndGlyphs" textLength="77" x="1189" y="338.4917">returnMatrix()</text><ellipse cx="1180" cy="348.9883" fill="#84BE84" rx="3" ry="3" style="stroke: #038048; stroke-width: 1.0;"/><text fill="#000000" font-family="sans-serif" font-size="11" lengthAdjust="spacingAndGlyphs" textLength="30" x="1189" y="351.2964">size()</text><ellipse cx="1180" cy="361.793" fill="#84BE84" rx="3" ry="3" style="stroke: #038048; stroke-width: 1.0;"/><text fill="#000000" font-family="sans-serif" font-size="11" lengthAdjust="spacingAndGlyphs" textLength="50" x="1189" y="364.1011">uminus()</text><!--class superpixelOperator--><rect fill="#FEFECE" filter="url(#fln4ipl)" height="176.0469" style="stroke: #A80036; stroke-width: 1.5;" width="152" x="1348" y="200.9531"/><ellipse cx="1363" cy="216.9531" fill="#E6FFE6" rx="11" ry="11" style="stroke: #A80036; stroke-width: 1.0;"/><path d="M1362.9063,220.75 L1365.3438,214.9844 L1364.9375,214.9844 C1364.4844,214.9844 1364.3438,214.9531 1364.1563,214.8438 C1363.9531,214.6719 1363.8125,214.4219 1363.8125,214.1406 C1363.8125,213.8594 1363.9688,213.5625 1364.2344,213.4063 C1364.375,213.3125 1364.5,213.2969 1364.9375,213.2969 L1367.1875,213.2969 C1367.625,213.2969 1367.7969,213.3281 1367.9531,213.4375 C1368.1719,213.6094 1368.3125,213.875 1368.3125,214.1406 C1368.3125,214.4844 1368.0625,214.8281 1367.7813,214.9219 C1367.625,214.9688 1367.5156,214.9844 1367.1563,214.9844 L1363.6719,223.2031 L1361.9844,223.2031 L1358.5469,214.9844 C1358.2031,214.9844 1358.0781,214.9688 1357.9219,214.9219 C1357.625,214.8281 1357.3906,214.4844 1357.3906,214.1406 C1357.3906,213.8594 1357.5469,213.5625 1357.7969,213.4063 C1357.9531,213.3125 1358.0781,213.2969 1358.5156,213.2969 L1360.7813,213.2969 C1361.2188,213.2969 1361.3906,213.3281 1361.5625,213.4375 C1361.7656,213.6094 1361.8906,213.875 1361.8906,214.1406 C1361.8906,214.4375 1361.75,214.7188 1361.4844,214.875 C1361.3438,214.9531 1361.1875,214.9844 1360.7813,214.9844 L1360.4531,214.9844 Z "/><text fill="#000000" font-family="sans-serif" font-size="12" lengthAdjust="spacingAndGlyphs" textLength="120" x="1377" y="221.1074">superpixelOperator</text><line style="stroke: #A80036; stroke-width: 1.5;" x1="1349" x2="1499" y1="232.9531" y2="232.9531"/><ellipse cx="1359" cy="244.8555" fill="none" rx="3" ry="3" style="stroke: #038048; stroke-width: 1.0;"/><text fill="#000000" font-family="sans-serif" font-size="11" lengthAdjust="spacingAndGlyphs" textLength="33" x="1368" y="247.1636">factor</text><ellipse cx="1359" cy="257.6602" fill="none" rx="3" ry="3" style="stroke: #038048; stroke-width: 1.0;"/><text fill="#000000" font-family="sans-serif" font-size="11" lengthAdjust="spacingAndGlyphs" textLength="36" x="1368" y="259.9683">matrix</text><ellipse cx="1359" cy="270.4648" fill="none" rx="3" ry="3" style="stroke: #038048; stroke-width: 1.0;"/><text fill="#000000" font-family="sans-serif" font-size="11" lengthAdjust="spacingAndGlyphs" textLength="94" x="1368" y="272.7729">targetDimension</text><line style="stroke: #A80036; stroke-width: 1.5;" x1="1349" x2="1499" y1="279.3672" y2="279.3672"/><ellipse cx="1359" cy="291.2695" fill="#84BE84" rx="3" ry="3" style="stroke: #038048; stroke-width: 1.0;"/><text fill="#000000" font-family="sans-serif" font-size="11" lengthAdjust="spacingAndGlyphs" textLength="118" x="1368" y="293.5776">superpixelOperator()</text><ellipse cx="1359" cy="304.0742" fill="#84BE84" rx="3" ry="3" style="stroke: #038048; stroke-width: 1.0;"/><text fill="#000000" font-family="sans-serif" font-size="11" lengthAdjust="spacingAndGlyphs" textLength="29" x="1368" y="306.3823">abs()</text><ellipse cx="1359" cy="316.8789" fill="#84BE84" rx="3" ry="3" style="stroke: #038048; stroke-width: 1.0;"/><text fill="#000000" font-family="sans-serif" font-size="11" lengthAdjust="spacingAndGlyphs" textLength="72" x="1368" y="319.187">ctranspose()</text><ellipse cx="1359" cy="329.6836" fill="#84BE84" rx="3" ry="3" style="stroke: #038048; stroke-width: 1.0;"/><text fill="#000000" font-family="sans-serif" font-size="11" lengthAdjust="spacingAndGlyphs" textLength="118" x="1368" y="331.9917">getMaxRowSumAbs()</text><ellipse cx="1359" cy="342.4883" fill="#84BE84" rx="3" ry="3" style="stroke: #038048; stroke-width: 1.0;"/><text fill="#000000" font-family="sans-serif" font-size="11" lengthAdjust="spacingAndGlyphs" textLength="51" x="1368" y="344.7964">mtimes()</text><ellipse cx="1359" cy="355.293" fill="#84BE84" rx="3" ry="3" style="stroke: #038048; stroke-width: 1.0;"/><text fill="#000000" font-family="sans-serif" font-size="11" lengthAdjust="spacingAndGlyphs" textLength="77" x="1368" y="357.6011">returnMatrix()</text><ellipse cx="1359" cy="368.0977" fill="#84BE84" rx="3" ry="3" style="stroke: #038048; stroke-width: 1.0;"/><text fill="#000000" font-family="sans-serif" font-size="11" lengthAdjust="spacingAndGlyphs" textLength="30" x="1368" y="370.4058">size()</text><!--class zeroOperator--><rect fill="#FEFECE" filter="url(#fln4ipl)" height="137.6328" style="stroke: #A80036; stroke-width: 1.5;" width="144" x="1535" y="219.9531"/><ellipse cx="1563.5" cy="235.9531" fill="#E6FFE6" rx="11" ry="11" style="stroke: #A80036; stroke-width: 1.0;"/><path d="M1563.4063,239.75 L1565.8438,233.9844 L1565.4375,233.9844 C1564.9844,233.9844 1564.8438,233.9531 1564.6563,233.8438 C1564.4531,233.6719 1564.3125,233.4219 1564.3125,233.1406 C1564.3125,232.8594 1564.4688,232.5625 1564.7344,232.4063 C1564.875,232.3125 1565,232.2969 1565.4375,232.2969 L1567.6875,232.2969 C1568.125,232.2969 1568.2969,232.3281 1568.4531,232.4375 C1568.6719,232.6094 1568.8125,232.875 1568.8125,233.1406 C1568.8125,233.4844 1568.5625,233.8281 1568.2813,233.9219 C1568.125,233.9688 1568.0156,233.9844 1567.6563,233.9844 L1564.1719,242.2031 L1562.4844,242.2031 L1559.0469,233.9844 C1558.7031,233.9844 1558.5781,233.9688 1558.4219,233.9219 C1558.125,233.8281 1557.8906,233.4844 1557.8906,233.1406 C1557.8906,232.8594 1558.0469,232.5625 1558.2969,232.4063 C1558.4531,232.3125 1558.5781,232.2969 1559.0156,232.2969 L1561.2813,232.2969 C1561.7188,232.2969 1561.8906,232.3281 1562.0625,232.4375 C1562.2656,232.6094 1562.3906,232.875 1562.3906,233.1406 C1562.3906,233.4375 1562.25,233.7188 1561.9844,233.875 C1561.8438,233.9531 1561.6875,233.9844 1561.2813,233.9844 L1560.9531,233.9844 Z "/><text fill="#000000" font-family="sans-serif" font-size="12" lengthAdjust="spacingAndGlyphs" textLength="82" x="1580.5" y="240.1074">zeroOperator</text><line style="stroke: #A80036; stroke-width: 1.5;" x1="1536" x2="1678" y1="251.9531" y2="251.9531"/><ellipse cx="1546" cy="263.8555" fill="none" rx="3" ry="3" style="stroke: #038048; stroke-width: 1.0;"/><text fill="#000000" font-family="sans-serif" font-size="11" lengthAdjust="spacingAndGlyphs" textLength="20" x="1555" y="266.1636">nPx</text><line style="stroke: #A80036; stroke-width: 1.5;" x1="1536" x2="1678" y1="272.7578" y2="272.7578"/><ellipse cx="1546" cy="284.6602" fill="#84BE84" rx="3" ry="3" style="stroke: #038048; stroke-width: 1.0;"/><text fill="#000000" font-family="sans-serif" font-size="11" lengthAdjust="spacingAndGlyphs" textLength="83" x="1555" y="286.9683">zeroOperator()</text><ellipse cx="1546" cy="297.4648" fill="#84BE84" rx="3" ry="3" style="stroke: #038048; stroke-width: 1.0;"/><text fill="#000000" font-family="sans-serif" font-size="11" lengthAdjust="spacingAndGlyphs" textLength="29" x="1555" y="299.7729">abs()</text><ellipse cx="1546" cy="310.2695" fill="#84BE84" rx="3" ry="3" style="stroke: #038048; stroke-width: 1.0;"/><text fill="#000000" font-family="sans-serif" font-size="11" lengthAdjust="spacingAndGlyphs" textLength="118" x="1555" y="312.5776">getMaxRowSumAbs()</text><ellipse cx="1546" cy="323.0742" fill="#84BE84" rx="3" ry="3" style="stroke: #038048; stroke-width: 1.0;"/><text fill="#000000" font-family="sans-serif" font-size="11" lengthAdjust="spacingAndGlyphs" textLength="51" x="1555" y="325.3823">mtimes()</text><ellipse cx="1546" cy="335.8789" fill="#84BE84" rx="3" ry="3" style="stroke: #038048; stroke-width: 1.0;"/><text fill="#000000" font-family="sans-serif" font-size="11" lengthAdjust="spacingAndGlyphs" textLength="77" x="1555" y="338.187">returnMatrix()</text><ellipse cx="1546" cy="348.6836" fill="#84BE84" rx="3" ry="3" style="stroke: #038048; stroke-width: 1.0;"/><text fill="#000000" font-family="sans-serif" font-size="11" lengthAdjust="spacingAndGlyphs" textLength="30" x="1555" y="350.9917">size()</text><path d="M770.589,86.1081 C605.934,99.2261 269.456,132.1021 167,187.9531 C161.184,191.1231 155.56,194.8271 150.158,198.9061 " fill="none" style="stroke: #A80036; stroke-width: 1.0;"/><polygon fill="none" points="770.256,79.1121,790.741,84.5331,771.347,93.0701,770.256,79.1121" style="stroke: #A80036; stroke-width: 1.0;"/><path d="M770.762,83.4961 C665.771,91.5761 492.015,115.7481 362,187.9531 C356.291,191.1241 350.707,194.7381 345.286,198.6671 " fill="none" style="stroke: #A80036; stroke-width: 1.0;"/><polygon fill="none" points="770.368,76.5071,790.81,82.0851,771.351,90.4721,770.368,76.5071" style="stroke: #A80036; stroke-width: 1.0;"/><path d="M771.076,97.3221 C703.67,113.4421 612.072,141.8471 542,187.9531 C528.634,196.7471 515.977,207.9951 504.607,219.7541 " fill="none" style="stroke: #A80036; stroke-width: 1.0;"/><polygon fill="none" points="769.667,90.4641,790.727,92.8061,772.804,104.1081,769.667,90.4641" style="stroke: #A80036; stroke-width: 1.0;"/><path d="M798.482,142.0211 C779.032,160.8821 757.336,181.9231 736.607,202.0251 " fill="none" style="stroke: #A80036; stroke-width: 1.0;"/><polygon fill="none" points="793.633,136.9721,812.863,128.0741,803.379,147.0221,793.633,136.9721" style="stroke: #A80036; stroke-width: 1.0;"/><path d="M863,148.4531 C863,161.0931 863,174.5171 863,187.8511 " fill="none" style="stroke: #A80036; stroke-width: 1.0;"/><polygon fill="none" points="856,148.0741,863,128.0741,870,148.0741,856,148.0741" style="stroke: #A80036; stroke-width: 1.0;"/><path d="M927.425,142.4141 C942.225,157.2001 957.786,173.0061 972,187.9531 C977.875,194.1311 983.904,200.5801 989.924,207.0971 " fill="none" style="stroke: #A80036; stroke-width: 1.0;"/><polygon fill="none" points="922.21,147.1011,912.956,128.0391,932.077,137.1691,922.21,147.1011" style="stroke: #A80036; stroke-width: 1.0;"/><path d="M954.797,101.5701 C1014.48,118.8121 1092.05,146.8191 1152,187.9531 C1160.24,193.6071 1168.22,200.1831 1175.8,207.2121 " fill="none" style="stroke: #A80036; stroke-width: 1.0;"/><polygon fill="none" points="952.68,108.2471,935.295,96.1321,956.44,94.7611,952.68,108.2471" style="stroke: #A80036; stroke-width: 1.0;"/><path d="M955.296,84.8951 C1054.15,94.2191 1212.73,119.4911 1331,187.9531 C1337.46,191.6941 1343.74,196.0291 1349.79,200.7551 " fill="none" style="stroke: #A80036; stroke-width: 1.0;"/><polygon fill="none" points="954.462,91.8491,935.146,83.1381,955.679,77.9021,954.462,91.8491" style="stroke: #A80036; stroke-width: 1.0;"/><path d="M955.37,87.1301 C1112.19,101.4121 1422.78,135.4601 1518,187.9531 C1532.65,196.0321 1546.11,207.4771 1557.87,219.7551 " fill="none" style="stroke: #A80036; stroke-width: 1.0;"/><polygon fill="none" points="954.506,94.0811,935.21,85.3261,955.754,80.1371,954.506,94.0811" style="stroke: #A80036; stroke-width: 1.0;"/></g></svg>