<?xml version="1.0" encoding="UTF-8" standalone="no"?><svg xmlns="http://www.w3.org/2000/svg" xmlns:xlink="http://www.w3.org/1999/xlink" contentScriptType="application/ecmascript" contentStyleType="text/css" height="671px" preserveAspectRatio="none" style="width:432px;height:671px;" version="1.1" viewBox="0 0 432 671" width="432px" zoomAndPan="magnify"><defs><filter height="300%" id="fckhmhn" width="300%" x="-1" y="-1"><feGaussianBlur result="blurOut" stdDeviation="2.0"/><feColorMatrix in="blurOut" result="blurOut2" type="matrix" values="0 0 0 0 0 0 0 0 0 0 0 0 0 0 0 0 0 0 .4 0"/><feOffset dx="4.0" dy="4.0" in="blurOut2" result="blurOut3"/><feBlend in="SourceGraphic" in2="blurOut3" mode="normal"/></filter></defs><g><text fill="#000000" font-family="sans-serif" font-size="18" font-weight="bold" lengthAdjust="spacingAndGlyphs" textLength="287" x="77" y="16.708">Regularizer Terms (Identity)</text><!--class dualPart--><rect fill="#FEFECE" filter="url(#fckhmhn)" height="150.4375" style="stroke: #A80036; stroke-width: 1.5;" width="89" x="243" y="136.9531"/><ellipse cx="259.8" cy="152.9531" fill="#E6FFE6" rx="11" ry="11" style="stroke: #A80036; stroke-width: 1.0;"/><path d="M261.3781,154.7656 L257.3313,154.7656 L256.9406,155.75 L257.3313,155.75 C257.7844,155.75 257.925,155.7813 258.0969,155.9063 C258.3156,156.0781 258.4406,156.3281 258.4406,156.6094 C258.4406,156.8906 258.3,157.1875 258.0344,157.3281 C257.9094,157.4219 257.6906,157.4531 257.3313,157.4531 L255.0656,157.4531 C254.3156,157.4531 253.9406,157.1719 253.9406,156.6094 C253.9406,156.3125 254.0969,156.0313 254.3469,155.875 C254.5031,155.7656 254.6594,155.75 255.0813,155.75 L257.7219,149.2344 L256.6438,149.2344 C256.2063,149.2344 256.0344,149.2031 255.8625,149.0938 C255.6438,148.9219 255.5031,148.6719 255.5031,148.3906 C255.5031,148.1094 255.6594,147.8281 255.9094,147.6563 C256.0656,147.5625 256.1906,147.5469 256.6438,147.5469 L260.3156,147.5469 L263.7063,155.75 C264.175,155.75 264.3313,155.7813 264.5031,155.9219 C264.7219,156.0781 264.8625,156.3281 264.8625,156.6094 C264.8625,156.8906 264.7063,157.1875 264.4563,157.3281 C264.3156,157.4219 264.0969,157.4531 263.7375,157.4531 L261.3781,157.4531 C260.9563,157.4531 260.7531,157.4063 260.6125,157.2813 C260.3938,157.125 260.2531,156.875 260.2531,156.6094 C260.2531,156.3125 260.4094,156.0313 260.6594,155.875 C260.8156,155.7656 260.925,155.75 261.3781,155.75 L261.7688,155.75 Z M260.675,153.0625 L259.3469,149.7969 L258.0031,153.0625 Z "/><text fill="#000000" font-family="sans-serif" font-size="12" lengthAdjust="spacingAndGlyphs" textLength="53" x="274.2" y="157.1074">dualPart</text><line style="stroke: #A80036; stroke-width: 1.5;" x1="244" x2="331" y1="168.9531" y2="168.9531"/><ellipse cx="254" cy="180.8555" fill="none" rx="3" ry="3" style="stroke: #038048; stroke-width: 1.0;"/><text fill="#000000" font-family="sans-serif" font-size="11" lengthAdjust="spacingAndGlyphs" textLength="35" x="263" y="183.1636">length</text><ellipse cx="254" cy="193.6602" fill="none" rx="3" ry="3" style="stroke: #038048; stroke-width: 1.0;"/><text fill="#000000" font-family="sans-serif" font-size="11" lengthAdjust="spacingAndGlyphs" textLength="53" x="263" y="195.9683">mySigma</text><ellipse cx="254" cy="206.4648" fill="none" rx="3" ry="3" style="stroke: #038048; stroke-width: 1.0;"/><text fill="#000000" font-family="sans-serif" font-size="11" lengthAdjust="spacingAndGlyphs" textLength="38" x="263" y="208.7729">myTau</text><ellipse cx="254" cy="219.2695" fill="none" rx="3" ry="3" style="stroke: #038048; stroke-width: 1.0;"/><text fill="#000000" font-family="sans-serif" font-size="11" lengthAdjust="spacingAndGlyphs" textLength="51" x="263" y="221.5776">numVars</text><ellipse cx="254" cy="232.0742" fill="none" rx="3" ry="3" style="stroke: #038048; stroke-width: 1.0;"/><text fill="#000000" font-family="sans-serif" font-size="11" lengthAdjust="spacingAndGlyphs" textLength="49" x="263" y="234.3823">operator</text><ellipse cx="254" cy="244.8789" fill="none" rx="3" ry="3" style="stroke: #038048; stroke-width: 1.0;"/><text fill="#000000" font-family="sans-serif" font-size="11" lengthAdjust="spacingAndGlyphs" textLength="56" x="263" y="247.187">operatorT</text><line style="stroke: #A80036; stroke-width: 1.5;" x1="244" x2="331" y1="253.7813" y2="253.7813"/><ellipse cx="254" cy="265.6836" fill="#84BE84" rx="3" ry="3" style="stroke: #038048; stroke-width: 1.0;"/><text fill="#000000" font-family="sans-serif" font-size="11" lengthAdjust="spacingAndGlyphs" textLength="55" x="263" y="267.9917">dualPart()</text><ellipse cx="254" cy="278.4883" fill="#84BE84" rx="3" ry="3" style="stroke: #038048; stroke-width: 1.0;"/><text fill="#000000" font-family="sans-serif" font-size="11" lengthAdjust="spacingAndGlyphs" textLength="63" x="263" y="280.7964">applyProx()</text><!--class basicDualizedOperator--><rect fill="#FEFECE" filter="url(#fckhmhn)" height="60.8047" style="stroke: #A80036; stroke-width: 1.5;" width="173" x="111" y="346.9531"/><ellipse cx="126" cy="362.9531" fill="#E6FFE6" rx="11" ry="11" style="stroke: #A80036; stroke-width: 1.0;"/><path d="M127.5781,364.7656 L123.5313,364.7656 L123.1406,365.75 L123.5313,365.75 C123.9844,365.75 124.125,365.7813 124.2969,365.9063 C124.5156,366.0781 124.6406,366.3281 124.6406,366.6094 C124.6406,366.8906 124.5,367.1875 124.2344,367.3281 C124.1094,367.4219 123.8906,367.4531 123.5313,367.4531 L121.2656,367.4531 C120.5156,367.4531 120.1406,367.1719 120.1406,366.6094 C120.1406,366.3125 120.2969,366.0313 120.5469,365.875 C120.7031,365.7656 120.8594,365.75 121.2813,365.75 L123.9219,359.2344 L122.8438,359.2344 C122.4063,359.2344 122.2344,359.2031 122.0625,359.0938 C121.8438,358.9219 121.7031,358.6719 121.7031,358.3906 C121.7031,358.1094 121.8594,357.8281 122.1094,357.6563 C122.2656,357.5625 122.3906,357.5469 122.8438,357.5469 L126.5156,357.5469 L129.9063,365.75 C130.375,365.75 130.5313,365.7813 130.7031,365.9219 C130.9219,366.0781 131.0625,366.3281 131.0625,366.6094 C131.0625,366.8906 130.9063,367.1875 130.6563,367.3281 C130.5156,367.4219 130.2969,367.4531 129.9375,367.4531 L127.5781,367.4531 C127.1563,367.4531 126.9531,367.4063 126.8125,367.2813 C126.5938,367.125 126.4531,366.875 126.4531,366.6094 C126.4531,366.3125 126.6094,366.0313 126.8594,365.875 C127.0156,365.7656 127.125,365.75 127.5781,365.75 L127.9688,365.75 Z M126.875,363.0625 L125.5469,359.7969 L124.2031,363.0625 Z "/><text fill="#000000" font-family="sans-serif" font-size="12" lengthAdjust="spacingAndGlyphs" textLength="141" x="140" y="367.1074">basicDualizedOperator</text><line style="stroke: #A80036; stroke-width: 1.5;" x1="112" x2="283" y1="378.9531" y2="378.9531"/><line style="stroke: #A80036; stroke-width: 1.5;" x1="112" x2="283" y1="386.9531" y2="386.9531"/><ellipse cx="122" cy="398.8555" fill="#84BE84" rx="3" ry="3" style="stroke: #038048; stroke-width: 1.0;"/><text fill="#000000" font-family="sans-serif" font-size="11" lengthAdjust="spacingAndGlyphs" textLength="136" x="131" y="401.1636">basicDualizedOperator()</text><!--class basicIdentity--><rect fill="#FEFECE" filter="url(#fckhmhn)" height="60.8047" style="stroke: #A80036; stroke-width: 1.5;" width="111" x="142" y="474.4531"/><ellipse cx="157" cy="490.4531" fill="#E6FFE6" rx="11" ry="11" style="stroke: #A80036; stroke-width: 1.0;"/><path d="M158.5781,492.2656 L154.5313,492.2656 L154.1406,493.25 L154.5313,493.25 C154.9844,493.25 155.125,493.2813 155.2969,493.4063 C155.5156,493.5781 155.6406,493.8281 155.6406,494.1094 C155.6406,494.3906 155.5,494.6875 155.2344,494.8281 C155.1094,494.9219 154.8906,494.9531 154.5313,494.9531 L152.2656,494.9531 C151.5156,494.9531 151.1406,494.6719 151.1406,494.1094 C151.1406,493.8125 151.2969,493.5313 151.5469,493.375 C151.7031,493.2656 151.8594,493.25 152.2813,493.25 L154.9219,486.7344 L153.8438,486.7344 C153.4063,486.7344 153.2344,486.7031 153.0625,486.5938 C152.8438,486.4219 152.7031,486.1719 152.7031,485.8906 C152.7031,485.6094 152.8594,485.3281 153.1094,485.1563 C153.2656,485.0625 153.3906,485.0469 153.8438,485.0469 L157.5156,485.0469 L160.9063,493.25 C161.375,493.25 161.5313,493.2813 161.7031,493.4219 C161.9219,493.5781 162.0625,493.8281 162.0625,494.1094 C162.0625,494.3906 161.9063,494.6875 161.6563,494.8281 C161.5156,494.9219 161.2969,494.9531 160.9375,494.9531 L158.5781,494.9531 C158.1563,494.9531 157.9531,494.9063 157.8125,494.7813 C157.5938,494.625 157.4531,494.375 157.4531,494.1094 C157.4531,493.8125 157.6094,493.5313 157.8594,493.375 C158.0156,493.2656 158.125,493.25 158.5781,493.25 L158.9688,493.25 Z M157.875,490.5625 L156.5469,487.2969 L155.2031,490.5625 Z "/><text fill="#000000" font-family="sans-serif" font-size="12" lengthAdjust="spacingAndGlyphs" textLength="79" x="171" y="494.6074">basicIdentity</text><line style="stroke: #A80036; stroke-width: 1.5;" x1="143" x2="252" y1="506.4531" y2="506.4531"/><line style="stroke: #A80036; stroke-width: 1.5;" x1="143" x2="252" y1="514.4531" y2="514.4531"/><ellipse cx="153" cy="526.3555" fill="#84BE84" rx="3" ry="3" style="stroke: #038048; stroke-width: 1.0;"/><text fill="#000000" font-family="sans-serif" font-size="11" lengthAdjust="spacingAndGlyphs" textLength="79" x="162" y="528.6636">basicIdentity()</text><!--class L1identity--><rect fill="#FEFECE" filter="url(#fckhmhn)" height="60.8047" style="stroke: #A80036; stroke-width: 1.5;" width="92" x="218.5" y="601.9531"/><ellipse cx="233.5" cy="617.9531" fill="#E6FFE6" rx="11" ry="11" style="stroke: #A80036; stroke-width: 1.0;"/><path d="M235.4531,618.8594 L231.8125,618.8594 L231.8125,621.25 L232.0625,621.25 C232.5156,621.25 232.6875,621.2813 232.8281,621.4063 C233.0625,621.5781 233.1875,621.8281 233.1875,622.1094 C233.1875,622.3906 233.0313,622.6875 232.7813,622.8281 C232.6406,622.9219 232.4219,622.9531 232.0625,622.9531 L230.0156,622.9531 C229.6094,622.9531 229.3906,622.9063 229.2344,622.7969 C229.0313,622.625 228.8906,622.3594 228.8906,622.1094 C228.8906,621.8125 229.0469,621.5313 229.2969,621.375 C229.4531,621.2656 229.5938,621.25 230.0156,621.25 L230.1094,621.25 L230.1094,614.7344 C229.5469,614.6875 229.2344,614.3906 229.2344,613.8906 C229.2344,613.6094 229.3906,613.3125 229.6406,613.1563 C229.7969,613.0625 229.9219,613.0469 230.3594,613.0469 L232.0625,613.0469 C232.5313,613.0469 232.6875,613.0781 232.8281,613.1875 C233.0625,613.3594 233.1875,613.625 233.1875,613.8906 C233.1875,614.1875 233.0313,614.4688 232.7813,614.625 C232.625,614.7031 232.4844,614.7344 232.0625,614.7344 L231.8125,614.7344 L231.8125,617.1563 L235.4531,617.1563 L235.4531,614.7344 L235.2031,614.7344 C234.75,614.7344 234.6094,614.7031 234.4375,614.5938 C234.2188,614.4219 234.0781,614.1719 234.0781,613.8906 C234.0781,613.6094 234.2344,613.3125 234.4844,613.1563 C234.6406,613.0625 234.7656,613.0469 235.2031,613.0469 L236.9219,613.0469 C237.375,613.0469 237.5313,613.0781 237.7031,613.1875 C237.9063,613.3594 238.0313,613.625 238.0313,613.8906 C238.0313,614.3906 237.7188,614.6875 237.1563,614.7344 L237.1563,621.25 L237.25,621.25 C237.7188,621.25 237.8594,621.2813 238.0156,621.4063 C238.2344,621.5781 238.375,621.8281 238.375,622.1094 C238.375,622.3906 238.2188,622.6875 237.9688,622.8281 C237.8281,622.9219 237.6094,622.9531 237.25,622.9531 L235.2031,622.9531 C234.7969,622.9531 234.5938,622.9063 234.4375,622.7969 C234.2188,622.625 234.0781,622.3594 234.0781,622.1094 C234.0781,621.8125 234.2344,621.5313 234.4844,621.375 C234.6406,621.2656 234.7969,621.25 235.2031,621.25 L235.4531,621.25 Z "/><text fill="#000000" font-family="sans-serif" font-size="12" lengthAdjust="spacingAndGlyphs" textLength="60" x="247.5" y="622.1074">L1identity</text><line style="stroke: #A80036; stroke-width: 1.5;" x1="219.5" x2="309.5" y1="633.9531" y2="633.9531"/><line style="stroke: #A80036; stroke-width: 1.5;" x1="219.5" x2="309.5" y1="641.9531" y2="641.9531"/><ellipse cx="229.5" cy="653.8555" fill="#84BE84" rx="3" ry="3" style="stroke: #038048; stroke-width: 1.0;"/><text fill="#000000" font-family="sans-serif" font-size="11" lengthAdjust="spacingAndGlyphs" textLength="62" x="238.5" y="656.1636">L1identity()</text><!--class L2identity--><rect fill="#FEFECE" filter="url(#fckhmhn)" height="60.8047" style="stroke: #A80036; stroke-width: 1.5;" width="92" x="84.5" y="601.9531"/><ellipse cx="99.5" cy="617.9531" fill="#E6FFE6" rx="11" ry="11" style="stroke: #A80036; stroke-width: 1.0;"/><path d="M101.4531,618.8594 L97.8125,618.8594 L97.8125,621.25 L98.0625,621.25 C98.5156,621.25 98.6875,621.2813 98.8281,621.4063 C99.0625,621.5781 99.1875,621.8281 99.1875,622.1094 C99.1875,622.3906 99.0313,622.6875 98.7813,622.8281 C98.6406,622.9219 98.4219,622.9531 98.0625,622.9531 L96.0156,622.9531 C95.6094,622.9531 95.3906,622.9063 95.2344,622.7969 C95.0313,622.625 94.8906,622.3594 94.8906,622.1094 C94.8906,621.8125 95.0469,621.5313 95.2969,621.375 C95.4531,621.2656 95.5938,621.25 96.0156,621.25 L96.1094,621.25 L96.1094,614.7344 C95.5469,614.6875 95.2344,614.3906 95.2344,613.8906 C95.2344,613.6094 95.3906,613.3125 95.6406,613.1563 C95.7969,613.0625 95.9219,613.0469 96.3594,613.0469 L98.0625,613.0469 C98.5313,613.0469 98.6875,613.0781 98.8281,613.1875 C99.0625,613.3594 99.1875,613.625 99.1875,613.8906 C99.1875,614.1875 99.0313,614.4688 98.7813,614.625 C98.625,614.7031 98.4844,614.7344 98.0625,614.7344 L97.8125,614.7344 L97.8125,617.1563 L101.4531,617.1563 L101.4531,614.7344 L101.2031,614.7344 C100.75,614.7344 100.6094,614.7031 100.4375,614.5938 C100.2188,614.4219 100.0781,614.1719 100.0781,613.8906 C100.0781,613.6094 100.2344,613.3125 100.4844,613.1563 C100.6406,613.0625 100.7656,613.0469 101.2031,613.0469 L102.9219,613.0469 C103.375,613.0469 103.5313,613.0781 103.7031,613.1875 C103.9063,613.3594 104.0313,613.625 104.0313,613.8906 C104.0313,614.3906 103.7188,614.6875 103.1563,614.7344 L103.1563,621.25 L103.25,621.25 C103.7188,621.25 103.8594,621.2813 104.0156,621.4063 C104.2344,621.5781 104.375,621.8281 104.375,622.1094 C104.375,622.3906 104.2188,622.6875 103.9688,622.8281 C103.8281,622.9219 103.6094,622.9531 103.25,622.9531 L101.2031,622.9531 C100.7969,622.9531 100.5938,622.9063 100.4375,622.7969 C100.2188,622.625 100.0781,622.3594 100.0781,622.1094 C100.0781,621.8125 100.2344,621.5313 100.4844,621.375 C100.6406,621.2656 100.7969,621.25 101.2031,621.25 L101.4531,621.25 Z "/><text fill="#000000" font-family="sans-serif" font-size="12" lengthAdjust="spacingAndGlyphs" textLength="60" x="113.5" y="622.1074">L2identity</text><line style="stroke: #A80036; stroke-width: 1.5;" x1="85.5" x2="175.5" y1="633.9531" y2="633.9531"/><line style="stroke: #A80036; stroke-width: 1.5;" x1="85.5" x2="175.5" y1="641.9531" y2="641.9531"/><ellipse cx="95.5" cy="653.8555" fill="#84BE84" rx="3" ry="3" style="stroke: #038048; stroke-width: 1.0;"/><text fill="#000000" font-family="sans-serif" font-size="11" lengthAdjust="spacingAndGlyphs" textLength="62" x="104.5" y="656.1636">L2identity()</text><!--class tildeMultiOperatorMultiDual--><rect fill="#FEFECE" filter="url(#fckhmhn)" height="99.2188" style="stroke: #A80036; stroke-width: 1.5;" width="201" x="7" y="162.4531"/><ellipse cx="22" cy="178.4531" fill="#E6FFE6" rx="11" ry="11" style="stroke: #A80036; stroke-width: 1.0;"/><path d="M23.9531,179.3594 L20.3125,179.3594 L20.3125,181.75 L20.5625,181.75 C21.0156,181.75 21.1875,181.7813 21.3281,181.9063 C21.5625,182.0781 21.6875,182.3281 21.6875,182.6094 C21.6875,182.8906 21.5313,183.1875 21.2813,183.3281 C21.1406,183.4219 20.9219,183.4531 20.5625,183.4531 L18.5156,183.4531 C18.1094,183.4531 17.8906,183.4063 17.7344,183.2969 C17.5313,183.125 17.3906,182.8594 17.3906,182.6094 C17.3906,182.3125 17.5469,182.0313 17.7969,181.875 C17.9531,181.7656 18.0938,181.75 18.5156,181.75 L18.6094,181.75 L18.6094,175.2344 C18.0469,175.1875 17.7344,174.8906 17.7344,174.3906 C17.7344,174.1094 17.8906,173.8125 18.1406,173.6563 C18.2969,173.5625 18.4219,173.5469 18.8594,173.5469 L20.5625,173.5469 C21.0313,173.5469 21.1875,173.5781 21.3281,173.6875 C21.5625,173.8594 21.6875,174.125 21.6875,174.3906 C21.6875,174.6875 21.5313,174.9688 21.2813,175.125 C21.125,175.2031 20.9844,175.2344 20.5625,175.2344 L20.3125,175.2344 L20.3125,177.6563 L23.9531,177.6563 L23.9531,175.2344 L23.7031,175.2344 C23.25,175.2344 23.1094,175.2031 22.9375,175.0938 C22.7188,174.9219 22.5781,174.6719 22.5781,174.3906 C22.5781,174.1094 22.7344,173.8125 22.9844,173.6563 C23.1406,173.5625 23.2656,173.5469 23.7031,173.5469 L25.4219,173.5469 C25.875,173.5469 26.0313,173.5781 26.2031,173.6875 C26.4063,173.8594 26.5313,174.125 26.5313,174.3906 C26.5313,174.8906 26.2188,175.1875 25.6563,175.2344 L25.6563,181.75 L25.75,181.75 C26.2188,181.75 26.3594,181.7813 26.5156,181.9063 C26.7344,182.0781 26.875,182.3281 26.875,182.6094 C26.875,182.8906 26.7188,183.1875 26.4688,183.3281 C26.3281,183.4219 26.1094,183.4531 25.75,183.4531 L23.7031,183.4531 C23.2969,183.4531 23.0938,183.4063 22.9375,183.2969 C22.7188,183.125 22.5781,182.8594 22.5781,182.6094 C22.5781,182.3125 22.7344,182.0313 22.9844,181.875 C23.1406,181.7656 23.2969,181.75 23.7031,181.75 L23.9531,181.75 Z "/><text fill="#000000" font-family="sans-serif" font-size="12" lengthAdjust="spacingAndGlyphs" textLength="169" x="36" y="182.6074">tildeMultiOperatorMultiDual</text><line style="stroke: #A80036; stroke-width: 1.5;" x1="8" x2="207" y1="194.4531" y2="194.4531"/><line style="stroke: #A80036; stroke-width: 1.5;" x1="8" x2="207" y1="202.4531" y2="202.4531"/><ellipse cx="18" cy="214.3555" fill="#84BE84" rx="3" ry="3" style="stroke: #038048; stroke-width: 1.0;"/><text fill="#000000" font-family="sans-serif" font-size="11" lengthAdjust="spacingAndGlyphs" textLength="43" x="27" y="216.6636">xError()</text><ellipse cx="18" cy="227.1602" fill="#84BE84" rx="3" ry="3" style="stroke: #038048; stroke-width: 1.0;"/><text fill="#000000" font-family="sans-serif" font-size="11" lengthAdjust="spacingAndGlyphs" textLength="41" x="27" y="229.4683">xTilde()</text><ellipse cx="18" cy="239.9648" fill="#84BE84" rx="3" ry="3" style="stroke: #038048; stroke-width: 1.0;"/><text fill="#000000" font-family="sans-serif" font-size="11" lengthAdjust="spacingAndGlyphs" textLength="43" x="27" y="242.2729">yError()</text><ellipse cx="18" cy="252.7695" fill="#84BE84" rx="3" ry="3" style="stroke: #038048; stroke-width: 1.0;"/><text fill="#000000" font-family="sans-serif" font-size="11" lengthAdjust="spacingAndGlyphs" textLength="41" x="27" y="255.0776">yTilde()</text><!--class L1AnisoProxDual--><rect fill="#FEFECE" filter="url(#fckhmhn)" height="73.6094" style="stroke: #A80036; stroke-width: 1.5;" width="135" x="288" y="467.9531"/><ellipse cx="303" cy="483.9531" fill="#E6FFE6" rx="11" ry="11" style="stroke: #A80036; stroke-width: 1.0;"/><path d="M304.9531,484.8594 L301.3125,484.8594 L301.3125,487.25 L301.5625,487.25 C302.0156,487.25 302.1875,487.2813 302.3281,487.4063 C302.5625,487.5781 302.6875,487.8281 302.6875,488.1094 C302.6875,488.3906 302.5313,488.6875 302.2813,488.8281 C302.1406,488.9219 301.9219,488.9531 301.5625,488.9531 L299.5156,488.9531 C299.1094,488.9531 298.8906,488.9063 298.7344,488.7969 C298.5313,488.625 298.3906,488.3594 298.3906,488.1094 C298.3906,487.8125 298.5469,487.5313 298.7969,487.375 C298.9531,487.2656 299.0938,487.25 299.5156,487.25 L299.6094,487.25 L299.6094,480.7344 C299.0469,480.6875 298.7344,480.3906 298.7344,479.8906 C298.7344,479.6094 298.8906,479.3125 299.1406,479.1563 C299.2969,479.0625 299.4219,479.0469 299.8594,479.0469 L301.5625,479.0469 C302.0313,479.0469 302.1875,479.0781 302.3281,479.1875 C302.5625,479.3594 302.6875,479.625 302.6875,479.8906 C302.6875,480.1875 302.5313,480.4688 302.2813,480.625 C302.125,480.7031 301.9844,480.7344 301.5625,480.7344 L301.3125,480.7344 L301.3125,483.1563 L304.9531,483.1563 L304.9531,480.7344 L304.7031,480.7344 C304.25,480.7344 304.1094,480.7031 303.9375,480.5938 C303.7188,480.4219 303.5781,480.1719 303.5781,479.8906 C303.5781,479.6094 303.7344,479.3125 303.9844,479.1563 C304.1406,479.0625 304.2656,479.0469 304.7031,479.0469 L306.4219,479.0469 C306.875,479.0469 307.0313,479.0781 307.2031,479.1875 C307.4063,479.3594 307.5313,479.625 307.5313,479.8906 C307.5313,480.3906 307.2188,480.6875 306.6563,480.7344 L306.6563,487.25 L306.75,487.25 C307.2188,487.25 307.3594,487.2813 307.5156,487.4063 C307.7344,487.5781 307.875,487.8281 307.875,488.1094 C307.875,488.3906 307.7188,488.6875 307.4688,488.8281 C307.3281,488.9219 307.1094,488.9531 306.75,488.9531 L304.7031,488.9531 C304.2969,488.9531 304.0938,488.9063 303.9375,488.7969 C303.7188,488.625 303.5781,488.3594 303.5781,488.1094 C303.5781,487.8125 303.7344,487.5313 303.9844,487.375 C304.1406,487.2656 304.2969,487.25 304.7031,487.25 L304.9531,487.25 Z "/><text fill="#000000" font-family="sans-serif" font-size="12" lengthAdjust="spacingAndGlyphs" textLength="103" x="317" y="488.1074">L1AnisoProxDual</text><line style="stroke: #A80036; stroke-width: 1.5;" x1="289" x2="422" y1="499.9531" y2="499.9531"/><line style="stroke: #A80036; stroke-width: 1.5;" x1="289" x2="422" y1="507.9531" y2="507.9531"/><ellipse cx="299" cy="519.8555" fill="#84BE84" rx="3" ry="3" style="stroke: #038048; stroke-width: 1.0;"/><text fill="#000000" font-family="sans-serif" font-size="11" lengthAdjust="spacingAndGlyphs" textLength="102" x="308" y="522.1636">L1AnisoProxDual()</text><ellipse cx="299" cy="532.6602" fill="#84BE84" rx="3" ry="3" style="stroke: #038048; stroke-width: 1.0;"/><text fill="#000000" font-family="sans-serif" font-size="11" lengthAdjust="spacingAndGlyphs" textLength="63" x="308" y="534.9683">applyProx()</text><!--class L2proxDual--><rect fill="#FEFECE" filter="url(#fckhmhn)" height="73.6094" style="stroke: #A80036; stroke-width: 1.5;" width="101" x="6" y="467.9531"/><ellipse cx="21" cy="483.9531" fill="#E6FFE6" rx="11" ry="11" style="stroke: #A80036; stroke-width: 1.0;"/><path d="M22.9531,484.8594 L19.3125,484.8594 L19.3125,487.25 L19.5625,487.25 C20.0156,487.25 20.1875,487.2813 20.3281,487.4063 C20.5625,487.5781 20.6875,487.8281 20.6875,488.1094 C20.6875,488.3906 20.5313,488.6875 20.2813,488.8281 C20.1406,488.9219 19.9219,488.9531 19.5625,488.9531 L17.5156,488.9531 C17.1094,488.9531 16.8906,488.9063 16.7344,488.7969 C16.5313,488.625 16.3906,488.3594 16.3906,488.1094 C16.3906,487.8125 16.5469,487.5313 16.7969,487.375 C16.9531,487.2656 17.0938,487.25 17.5156,487.25 L17.6094,487.25 L17.6094,480.7344 C17.0469,480.6875 16.7344,480.3906 16.7344,479.8906 C16.7344,479.6094 16.8906,479.3125 17.1406,479.1563 C17.2969,479.0625 17.4219,479.0469 17.8594,479.0469 L19.5625,479.0469 C20.0313,479.0469 20.1875,479.0781 20.3281,479.1875 C20.5625,479.3594 20.6875,479.625 20.6875,479.8906 C20.6875,480.1875 20.5313,480.4688 20.2813,480.625 C20.125,480.7031 19.9844,480.7344 19.5625,480.7344 L19.3125,480.7344 L19.3125,483.1563 L22.9531,483.1563 L22.9531,480.7344 L22.7031,480.7344 C22.25,480.7344 22.1094,480.7031 21.9375,480.5938 C21.7188,480.4219 21.5781,480.1719 21.5781,479.8906 C21.5781,479.6094 21.7344,479.3125 21.9844,479.1563 C22.1406,479.0625 22.2656,479.0469 22.7031,479.0469 L24.4219,479.0469 C24.875,479.0469 25.0313,479.0781 25.2031,479.1875 C25.4063,479.3594 25.5313,479.625 25.5313,479.8906 C25.5313,480.3906 25.2188,480.6875 24.6563,480.7344 L24.6563,487.25 L24.75,487.25 C25.2188,487.25 25.3594,487.2813 25.5156,487.4063 C25.7344,487.5781 25.875,487.8281 25.875,488.1094 C25.875,488.3906 25.7188,488.6875 25.4688,488.8281 C25.3281,488.9219 25.1094,488.9531 24.75,488.9531 L22.7031,488.9531 C22.2969,488.9531 22.0938,488.9063 21.9375,488.7969 C21.7188,488.625 21.5781,488.3594 21.5781,488.1094 C21.5781,487.8125 21.7344,487.5313 21.9844,487.375 C22.1406,487.2656 22.2969,487.25 22.7031,487.25 L22.9531,487.25 Z "/><text fill="#000000" font-family="sans-serif" font-size="12" lengthAdjust="spacingAndGlyphs" textLength="69" x="35" y="488.1074">L2proxDual</text><line style="stroke: #A80036; stroke-width: 1.5;" x1="7" x2="106" y1="499.9531" y2="499.9531"/><line style="stroke: #A80036; stroke-width: 1.5;" x1="7" x2="106" y1="507.9531" y2="507.9531"/><ellipse cx="17" cy="519.8555" fill="#84BE84" rx="3" ry="3" style="stroke: #038048; stroke-width: 1.0;"/><text fill="#000000" font-family="sans-serif" font-size="11" lengthAdjust="spacingAndGlyphs" textLength="71" x="26" y="522.1636">L2proxDual()</text><ellipse cx="17" cy="532.6602" fill="#84BE84" rx="3" ry="3" style="stroke: #038048; stroke-width: 1.0;"/><text fill="#000000" font-family="sans-serif" font-size="11" lengthAdjust="spacingAndGlyphs" textLength="63" x="26" y="534.9683">applyProx()</text><!--class functionalPart--><rect fill="#FEFECE" filter="url(#fckhmhn)" height="48" style="stroke: #A80036; stroke-width: 1.5;" width="120" x="227.5" y="28.9531"/><ellipse cx="242.5" cy="44.9531" fill="#ADD1B2" rx="11" ry="11" style="stroke: #A80036; stroke-width: 1.0;"/><path d="M244.8438,40.625 L245.0156,40.7031 C245.2344,40.3906 245.4375,40.2969 245.7344,40.2969 C246.0313,40.2969 246.3125,40.4375 246.4688,40.7031 C246.5625,40.8594 246.5781,40.9844 246.5781,41.4219 L246.5781,42.8438 C246.5781,43.2656 246.5469,43.4531 246.4375,43.6094 C246.2656,43.8281 246,43.9688 245.7344,43.9688 C245.5156,43.9688 245.2813,43.8594 245.1406,43.7188 C245,43.5938 244.9688,43.4688 244.9063,43.0625 C244.8125,42.6563 244.6406,42.4375 244.1563,42.1563 C243.6875,41.9063 243.0781,41.75 242.5,41.75 C240.7656,41.75 239.5156,43.0625 239.5156,44.8438 L239.5156,45.9375 C239.5156,47.6406 240.8125,48.7344 242.8594,48.7344 C243.625,48.7344 244.3125,48.6094 244.7344,48.3438 C244.9219,48.25 244.9219,48.25 245.375,47.7656 C245.5625,47.5781 245.7656,47.5 245.9844,47.5 C246.4531,47.5 246.8438,47.8906 246.8438,48.3438 C246.8438,48.7344 246.5156,49.1875 245.9375,49.5938 C245.1875,50.1406 244.0313,50.4375 242.8125,50.4375 C239.9219,50.4375 237.8125,48.5469 237.8125,45.9688 L237.8125,44.8438 C237.8125,42.125 239.8125,40.0469 242.4375,40.0469 C243.3125,40.0469 243.9063,40.1875 244.8438,40.625 Z "/><text fill="#000000" font-family="sans-serif" font-size="12" lengthAdjust="spacingAndGlyphs" textLength="88" x="256.5" y="49.1074">functionalPart</text><line style="stroke: #A80036; stroke-width: 1.5;" x1="228.5" x2="346.5" y1="60.9531" y2="60.9531"/><line style="stroke: #A80036; stroke-width: 1.5;" x1="228.5" x2="346.5" y1="68.9531" y2="68.9531"/><path d="M287.5,97.3281 C287.5,109.6191 287.5,123.3581 287.5,136.9181 " fill="none" style="stroke: #A80036; stroke-width: 1.0;"/><polygon fill="none" points="280.5,97.1191,287.5,77.1191,294.5,97.1191,280.5,97.1191" style="stroke: #A80036; stroke-width: 1.0;"/><path d="M236.883,304.9081 C228.551,320.0431 220.481,334.7051 213.837,346.7731 " fill="none" style="stroke: #A80036; stroke-width: 1.0;"/><polygon fill="none" points="230.936,301.1941,246.713,287.0491,243.201,307.9451,230.936,301.1941" style="stroke: #A80036; stroke-width: 1.0;"/><path d="M144.074,279.3951 C156.954,302.7951 170.79,327.9291 181.154,346.7571 " fill="none" style="stroke: #A80036; stroke-width: 1.0;"/><polygon fill="none" points="137.772,282.4621,134.259,261.5661,150.036,275.7111,137.772,282.4621" style="stroke: #A80036; stroke-width: 1.0;"/><path d="M197.5,428.4001 C197.5,444.0001 197.5,460.7021 197.5,474.4251 " fill="none" style="stroke: #A80036; stroke-width: 1.0;"/><polygon fill="none" points="190.5,428.1951,197.5,408.1951,204.5,428.1951,190.5,428.1951" style="stroke: #A80036; stroke-width: 1.0;"/><path d="M222.892,553.5161 C231.577,569.7837 241.035,587.4999 248.736,601.9248 " fill="none" style="stroke: #A80036; stroke-width: 1.0;"/><polygon fill="none" points="216.622,556.6351,213.378,535.6951,228.972,550.0411,216.622,556.6351" style="stroke: #A80036; stroke-width: 1.0;"/><path d="M317.137,558.8601 C306.551,573.4596 295.437,588.7877 286.163,601.5771 " fill="none" style="stroke: #A80036; stroke-width: 1.0;"/><polygon fill="none" points="311.772,554.3351,329.179,542.2531,323.106,562.5531,311.772,554.3351" style="stroke: #A80036; stroke-width: 1.0;"/><path d="M172.108,553.5161 C163.423,569.7837 153.965,587.4999 146.264,601.9248 " fill="none" style="stroke: #A80036; stroke-width: 1.0;"/><polygon fill="none" points="166.028,550.0411,181.622,535.6951,178.378,556.6351,166.028,550.0411" style="stroke: #A80036; stroke-width: 1.0;"/><path d="M88.2583,559.8131 C96.6969,574.1248 105.5067,589.0658 112.884,601.5771 " fill="none" style="stroke: #A80036; stroke-width: 1.0;"/><polygon fill="none" points="82.0325,563.0365,77.9039,542.2531,94.0921,555.9251,82.0325,563.0365" style="stroke: #A80036; stroke-width: 1.0;"/></g></svg>