<?xml version="1.0" encoding="UTF-8" standalone="no"?><svg xmlns="http://www.w3.org/2000/svg" xmlns:xlink="http://www.w3.org/1999/xlink" contentScriptType="application/ecmascript" contentStyleType="text/css" height="722px" preserveAspectRatio="none" style="width:744px;height:722px;" version="1.1" viewBox="0 0 744 722" width="744px" zoomAndPan="magnify"><defs><filter height="300%" id="ffm9o74" width="300%" x="-1" y="-1"><feGaussianBlur result="blurOut" stdDeviation="2.0"/><feColorMatrix in="blurOut" result="blurOut2" type="matrix" values="0 0 0 0 0 0 0 0 0 0 0 0 0 0 0 0 0 0 .4 0"/><feOffset dx="4.0" dy="4.0" in="blurOut2" result="blurOut3"/><feBlend in="SourceGraphic" in2="blurOut3" mode="normal"/></filter></defs><g><text fill="#000000" font-family="sans-serif" font-size="18" font-weight="bold" lengthAdjust="spacingAndGlyphs" textLength="347" x="203.5" y="16.708">Regularizer Terms (Curl / Anticurl)</text><!--class dualPart--><rect fill="#FEFECE" filter="url(#ffm9o74)" height="150.4375" style="stroke: #A80036; stroke-width: 1.5;" width="89" x="320" y="136.9531"/><ellipse cx="336.8" cy="152.9531" fill="#E6FFE6" rx="11" ry="11" style="stroke: #A80036; stroke-width: 1.0;"/><path d="M338.3781,154.7656 L334.3313,154.7656 L333.9406,155.75 L334.3313,155.75 C334.7844,155.75 334.925,155.7813 335.0969,155.9063 C335.3156,156.0781 335.4406,156.3281 335.4406,156.6094 C335.4406,156.8906 335.3,157.1875 335.0344,157.3281 C334.9094,157.4219 334.6906,157.4531 334.3313,157.4531 L332.0656,157.4531 C331.3156,157.4531 330.9406,157.1719 330.9406,156.6094 C330.9406,156.3125 331.0969,156.0313 331.3469,155.875 C331.5031,155.7656 331.6594,155.75 332.0813,155.75 L334.7219,149.2344 L333.6438,149.2344 C333.2063,149.2344 333.0344,149.2031 332.8625,149.0938 C332.6438,148.9219 332.5031,148.6719 332.5031,148.3906 C332.5031,148.1094 332.6594,147.8281 332.9094,147.6563 C333.0656,147.5625 333.1906,147.5469 333.6438,147.5469 L337.3156,147.5469 L340.7063,155.75 C341.175,155.75 341.3313,155.7813 341.5031,155.9219 C341.7219,156.0781 341.8625,156.3281 341.8625,156.6094 C341.8625,156.8906 341.7063,157.1875 341.4563,157.3281 C341.3156,157.4219 341.0969,157.4531 340.7375,157.4531 L338.3781,157.4531 C337.9563,157.4531 337.7531,157.4063 337.6125,157.2813 C337.3938,157.125 337.2531,156.875 337.2531,156.6094 C337.2531,156.3125 337.4094,156.0313 337.6594,155.875 C337.8156,155.7656 337.925,155.75 338.3781,155.75 L338.7688,155.75 Z M337.675,153.0625 L336.3469,149.7969 L335.0031,153.0625 Z "/><text fill="#000000" font-family="sans-serif" font-size="12" lengthAdjust="spacingAndGlyphs" textLength="53" x="351.2" y="157.1074">dualPart</text><line style="stroke: #A80036; stroke-width: 1.5;" x1="321" x2="408" y1="168.9531" y2="168.9531"/><ellipse cx="331" cy="180.8555" fill="none" rx="3" ry="3" style="stroke: #038048; stroke-width: 1.0;"/><text fill="#000000" font-family="sans-serif" font-size="11" lengthAdjust="spacingAndGlyphs" textLength="35" x="340" y="183.1636">length</text><ellipse cx="331" cy="193.6602" fill="none" rx="3" ry="3" style="stroke: #038048; stroke-width: 1.0;"/><text fill="#000000" font-family="sans-serif" font-size="11" lengthAdjust="spacingAndGlyphs" textLength="53" x="340" y="195.9683">mySigma</text><ellipse cx="331" cy="206.4648" fill="none" rx="3" ry="3" style="stroke: #038048; stroke-width: 1.0;"/><text fill="#000000" font-family="sans-serif" font-size="11" lengthAdjust="spacingAndGlyphs" textLength="38" x="340" y="208.7729">myTau</text><ellipse cx="331" cy="219.2695" fill="none" rx="3" ry="3" style="stroke: #038048; stroke-width: 1.0;"/><text fill="#000000" font-family="sans-serif" font-size="11" lengthAdjust="spacingAndGlyphs" textLength="51" x="340" y="221.5776">numVars</text><ellipse cx="331" cy="232.0742" fill="none" rx="3" ry="3" style="stroke: #038048; stroke-width: 1.0;"/><text fill="#000000" font-family="sans-serif" font-size="11" lengthAdjust="spacingAndGlyphs" textLength="49" x="340" y="234.3823">operator</text><ellipse cx="331" cy="244.8789" fill="none" rx="3" ry="3" style="stroke: #038048; stroke-width: 1.0;"/><text fill="#000000" font-family="sans-serif" font-size="11" lengthAdjust="spacingAndGlyphs" textLength="56" x="340" y="247.187">operatorT</text><line style="stroke: #A80036; stroke-width: 1.5;" x1="321" x2="408" y1="253.7813" y2="253.7813"/><ellipse cx="331" cy="265.6836" fill="#84BE84" rx="3" ry="3" style="stroke: #038048; stroke-width: 1.0;"/><text fill="#000000" font-family="sans-serif" font-size="11" lengthAdjust="spacingAndGlyphs" textLength="55" x="340" y="267.9917">dualPart()</text><ellipse cx="331" cy="278.4883" fill="#84BE84" rx="3" ry="3" style="stroke: #038048; stroke-width: 1.0;"/><text fill="#000000" font-family="sans-serif" font-size="11" lengthAdjust="spacingAndGlyphs" textLength="63" x="340" y="280.7964">applyProx()</text><!--class basicDualizedOperator--><rect fill="#FEFECE" filter="url(#ffm9o74)" height="60.8047" style="stroke: #A80036; stroke-width: 1.5;" width="173" x="100" y="372.4531"/><ellipse cx="115" cy="388.4531" fill="#E6FFE6" rx="11" ry="11" style="stroke: #A80036; stroke-width: 1.0;"/><path d="M116.5781,390.2656 L112.5313,390.2656 L112.1406,391.25 L112.5313,391.25 C112.9844,391.25 113.125,391.2813 113.2969,391.4063 C113.5156,391.5781 113.6406,391.8281 113.6406,392.1094 C113.6406,392.3906 113.5,392.6875 113.2344,392.8281 C113.1094,392.9219 112.8906,392.9531 112.5313,392.9531 L110.2656,392.9531 C109.5156,392.9531 109.1406,392.6719 109.1406,392.1094 C109.1406,391.8125 109.2969,391.5313 109.5469,391.375 C109.7031,391.2656 109.8594,391.25 110.2813,391.25 L112.9219,384.7344 L111.8438,384.7344 C111.4063,384.7344 111.2344,384.7031 111.0625,384.5938 C110.8438,384.4219 110.7031,384.1719 110.7031,383.8906 C110.7031,383.6094 110.8594,383.3281 111.1094,383.1563 C111.2656,383.0625 111.3906,383.0469 111.8438,383.0469 L115.5156,383.0469 L118.9063,391.25 C119.375,391.25 119.5313,391.2813 119.7031,391.4219 C119.9219,391.5781 120.0625,391.8281 120.0625,392.1094 C120.0625,392.3906 119.9063,392.6875 119.6563,392.8281 C119.5156,392.9219 119.2969,392.9531 118.9375,392.9531 L116.5781,392.9531 C116.1563,392.9531 115.9531,392.9063 115.8125,392.7813 C115.5938,392.625 115.4531,392.375 115.4531,392.1094 C115.4531,391.8125 115.6094,391.5313 115.8594,391.375 C116.0156,391.2656 116.125,391.25 116.5781,391.25 L116.9688,391.25 Z M115.875,388.5625 L114.5469,385.2969 L113.2031,388.5625 Z "/><text fill="#000000" font-family="sans-serif" font-size="12" lengthAdjust="spacingAndGlyphs" textLength="141" x="129" y="392.6074">basicDualizedOperator</text><line style="stroke: #A80036; stroke-width: 1.5;" x1="101" x2="272" y1="404.4531" y2="404.4531"/><line style="stroke: #A80036; stroke-width: 1.5;" x1="101" x2="272" y1="412.4531" y2="412.4531"/><ellipse cx="111" cy="424.3555" fill="#84BE84" rx="3" ry="3" style="stroke: #038048; stroke-width: 1.0;"/><text fill="#000000" font-family="sans-serif" font-size="11" lengthAdjust="spacingAndGlyphs" textLength="136" x="120" y="426.6636">basicDualizedOperator()</text><!--class basicCurl--><rect fill="#FEFECE" filter="url(#ffm9o74)" height="60.8047" style="stroke: #A80036; stroke-width: 1.5;" width="89" x="142" y="525.4531"/><ellipse cx="157" cy="541.4531" fill="#E6FFE6" rx="11" ry="11" style="stroke: #A80036; stroke-width: 1.0;"/><path d="M158.5781,543.2656 L154.5313,543.2656 L154.1406,544.25 L154.5313,544.25 C154.9844,544.25 155.125,544.2813 155.2969,544.4063 C155.5156,544.5781 155.6406,544.8281 155.6406,545.1094 C155.6406,545.3906 155.5,545.6875 155.2344,545.8281 C155.1094,545.9219 154.8906,545.9531 154.5313,545.9531 L152.2656,545.9531 C151.5156,545.9531 151.1406,545.6719 151.1406,545.1094 C151.1406,544.8125 151.2969,544.5313 151.5469,544.375 C151.7031,544.2656 151.8594,544.25 152.2813,544.25 L154.9219,537.7344 L153.8438,537.7344 C153.4063,537.7344 153.2344,537.7031 153.0625,537.5938 C152.8438,537.4219 152.7031,537.1719 152.7031,536.8906 C152.7031,536.6094 152.8594,536.3281 153.1094,536.1563 C153.2656,536.0625 153.3906,536.0469 153.8438,536.0469 L157.5156,536.0469 L160.9063,544.25 C161.375,544.25 161.5313,544.2813 161.7031,544.4219 C161.9219,544.5781 162.0625,544.8281 162.0625,545.1094 C162.0625,545.3906 161.9063,545.6875 161.6563,545.8281 C161.5156,545.9219 161.2969,545.9531 160.9375,545.9531 L158.5781,545.9531 C158.1563,545.9531 157.9531,545.9063 157.8125,545.7813 C157.5938,545.625 157.4531,545.375 157.4531,545.1094 C157.4531,544.8125 157.6094,544.5313 157.8594,544.375 C158.0156,544.2656 158.125,544.25 158.5781,544.25 L158.9688,544.25 Z M157.875,541.5625 L156.5469,538.2969 L155.2031,541.5625 Z "/><text fill="#000000" font-family="sans-serif" font-size="12" lengthAdjust="spacingAndGlyphs" textLength="57" x="171" y="545.6074">basicCurl</text><line style="stroke: #A80036; stroke-width: 1.5;" x1="143" x2="230" y1="557.4531" y2="557.4531"/><line style="stroke: #A80036; stroke-width: 1.5;" x1="143" x2="230" y1="565.4531" y2="565.4531"/><ellipse cx="153" cy="577.3555" fill="#84BE84" rx="3" ry="3" style="stroke: #038048; stroke-width: 1.0;"/><text fill="#000000" font-family="sans-serif" font-size="11" lengthAdjust="spacingAndGlyphs" textLength="61" x="162" y="579.6636">basicCurl()</text><!--class basicDivAnticurl--><rect fill="#FEFECE" filter="url(#ffm9o74)" height="112.0234" style="stroke: #A80036; stroke-width: 1.5;" width="130" x="605.5" y="346.9531"/><ellipse cx="620.5" cy="362.9531" fill="#E6FFE6" rx="11" ry="11" style="stroke: #A80036; stroke-width: 1.0;"/><path d="M622.0781,364.7656 L618.0313,364.7656 L617.6406,365.75 L618.0313,365.75 C618.4844,365.75 618.625,365.7813 618.7969,365.9063 C619.0156,366.0781 619.1406,366.3281 619.1406,366.6094 C619.1406,366.8906 619,367.1875 618.7344,367.3281 C618.6094,367.4219 618.3906,367.4531 618.0313,367.4531 L615.7656,367.4531 C615.0156,367.4531 614.6406,367.1719 614.6406,366.6094 C614.6406,366.3125 614.7969,366.0313 615.0469,365.875 C615.2031,365.7656 615.3594,365.75 615.7813,365.75 L618.4219,359.2344 L617.3438,359.2344 C616.9063,359.2344 616.7344,359.2031 616.5625,359.0938 C616.3438,358.9219 616.2031,358.6719 616.2031,358.3906 C616.2031,358.1094 616.3594,357.8281 616.6094,357.6563 C616.7656,357.5625 616.8906,357.5469 617.3438,357.5469 L621.0156,357.5469 L624.4063,365.75 C624.875,365.75 625.0313,365.7813 625.2031,365.9219 C625.4219,366.0781 625.5625,366.3281 625.5625,366.6094 C625.5625,366.8906 625.4063,367.1875 625.1563,367.3281 C625.0156,367.4219 624.7969,367.4531 624.4375,367.4531 L622.0781,367.4531 C621.6563,367.4531 621.4531,367.4063 621.3125,367.2813 C621.0938,367.125 620.9531,366.875 620.9531,366.6094 C620.9531,366.3125 621.1094,366.0313 621.3594,365.875 C621.5156,365.7656 621.625,365.75 622.0781,365.75 L622.4688,365.75 Z M621.375,363.0625 L620.0469,359.7969 L618.7031,363.0625 Z "/><text fill="#000000" font-family="sans-serif" font-size="12" lengthAdjust="spacingAndGlyphs" textLength="98" x="634.5" y="367.1074">basicDivAnticurl</text><line style="stroke: #A80036; stroke-width: 1.5;" x1="606.5" x2="734.5" y1="378.9531" y2="378.9531"/><line style="stroke: #A80036; stroke-width: 1.5;" x1="606.5" x2="734.5" y1="386.9531" y2="386.9531"/><ellipse cx="616.5" cy="398.8555" fill="#84BE84" rx="3" ry="3" style="stroke: #038048; stroke-width: 1.0;"/><text fill="#000000" font-family="sans-serif" font-size="11" lengthAdjust="spacingAndGlyphs" textLength="97" x="625.5" y="401.1636">basicDivAnticurl()</text><ellipse cx="616.5" cy="411.6602" fill="#84BE84" rx="3" ry="3" style="stroke: #038048; stroke-width: 1.0;"/><text fill="#000000" font-family="sans-serif" font-size="11" lengthAdjust="spacingAndGlyphs" textLength="43" x="625.5" y="413.9683">xError()</text><ellipse cx="616.5" cy="424.4648" fill="#84BE84" rx="3" ry="3" style="stroke: #038048; stroke-width: 1.0;"/><text fill="#000000" font-family="sans-serif" font-size="11" lengthAdjust="spacingAndGlyphs" textLength="41" x="625.5" y="426.7729">xTilde()</text><ellipse cx="616.5" cy="437.2695" fill="#84BE84" rx="3" ry="3" style="stroke: #038048; stroke-width: 1.0;"/><text fill="#000000" font-family="sans-serif" font-size="11" lengthAdjust="spacingAndGlyphs" textLength="43" x="625.5" y="439.5776">yError()</text><ellipse cx="616.5" cy="450.0742" fill="#84BE84" rx="3" ry="3" style="stroke: #038048; stroke-width: 1.0;"/><text fill="#000000" font-family="sans-serif" font-size="11" lengthAdjust="spacingAndGlyphs" textLength="41" x="625.5" y="452.3823">yTilde()</text><!--class basicDivCurl--><rect fill="#FEFECE" filter="url(#ffm9o74)" height="112.0234" style="stroke: #A80036; stroke-width: 1.5;" width="107" x="309" y="346.9531"/><ellipse cx="324" cy="362.9531" fill="#E6FFE6" rx="11" ry="11" style="stroke: #A80036; stroke-width: 1.0;"/><path d="M325.5781,364.7656 L321.5313,364.7656 L321.1406,365.75 L321.5313,365.75 C321.9844,365.75 322.125,365.7813 322.2969,365.9063 C322.5156,366.0781 322.6406,366.3281 322.6406,366.6094 C322.6406,366.8906 322.5,367.1875 322.2344,367.3281 C322.1094,367.4219 321.8906,367.4531 321.5313,367.4531 L319.2656,367.4531 C318.5156,367.4531 318.1406,367.1719 318.1406,366.6094 C318.1406,366.3125 318.2969,366.0313 318.5469,365.875 C318.7031,365.7656 318.8594,365.75 319.2813,365.75 L321.9219,359.2344 L320.8438,359.2344 C320.4063,359.2344 320.2344,359.2031 320.0625,359.0938 C319.8438,358.9219 319.7031,358.6719 319.7031,358.3906 C319.7031,358.1094 319.8594,357.8281 320.1094,357.6563 C320.2656,357.5625 320.3906,357.5469 320.8438,357.5469 L324.5156,357.5469 L327.9063,365.75 C328.375,365.75 328.5313,365.7813 328.7031,365.9219 C328.9219,366.0781 329.0625,366.3281 329.0625,366.6094 C329.0625,366.8906 328.9063,367.1875 328.6563,367.3281 C328.5156,367.4219 328.2969,367.4531 327.9375,367.4531 L325.5781,367.4531 C325.1563,367.4531 324.9531,367.4063 324.8125,367.2813 C324.5938,367.125 324.4531,366.875 324.4531,366.6094 C324.4531,366.3125 324.6094,366.0313 324.8594,365.875 C325.0156,365.7656 325.125,365.75 325.5781,365.75 L325.9688,365.75 Z M324.875,363.0625 L323.5469,359.7969 L322.2031,363.0625 Z "/><text fill="#000000" font-family="sans-serif" font-size="12" lengthAdjust="spacingAndGlyphs" textLength="75" x="338" y="367.1074">basicDivCurl</text><line style="stroke: #A80036; stroke-width: 1.5;" x1="310" x2="415" y1="378.9531" y2="378.9531"/><line style="stroke: #A80036; stroke-width: 1.5;" x1="310" x2="415" y1="386.9531" y2="386.9531"/><ellipse cx="320" cy="398.8555" fill="#84BE84" rx="3" ry="3" style="stroke: #038048; stroke-width: 1.0;"/><text fill="#000000" font-family="sans-serif" font-size="11" lengthAdjust="spacingAndGlyphs" textLength="78" x="329" y="401.1636">basicDivCurl()</text><ellipse cx="320" cy="411.6602" fill="#84BE84" rx="3" ry="3" style="stroke: #038048; stroke-width: 1.0;"/><text fill="#000000" font-family="sans-serif" font-size="11" lengthAdjust="spacingAndGlyphs" textLength="43" x="329" y="413.9683">xError()</text><ellipse cx="320" cy="424.4648" fill="#84BE84" rx="3" ry="3" style="stroke: #038048; stroke-width: 1.0;"/><text fill="#000000" font-family="sans-serif" font-size="11" lengthAdjust="spacingAndGlyphs" textLength="41" x="329" y="426.7729">xTilde()</text><ellipse cx="320" cy="437.2695" fill="#84BE84" rx="3" ry="3" style="stroke: #038048; stroke-width: 1.0;"/><text fill="#000000" font-family="sans-serif" font-size="11" lengthAdjust="spacingAndGlyphs" textLength="43" x="329" y="439.5776">yError()</text><ellipse cx="320" cy="450.0742" fill="#84BE84" rx="3" ry="3" style="stroke: #038048; stroke-width: 1.0;"/><text fill="#000000" font-family="sans-serif" font-size="11" lengthAdjust="spacingAndGlyphs" textLength="41" x="329" y="452.3823">yTilde()</text><!--class L1curl--><rect fill="#FEFECE" filter="url(#ffm9o74)" height="60.8047" style="stroke: #A80036; stroke-width: 1.5;" width="69" x="145" y="652.9531"/><ellipse cx="160" cy="668.9531" fill="#E6FFE6" rx="11" ry="11" style="stroke: #A80036; stroke-width: 1.0;"/><path d="M161.9531,669.8594 L158.3125,669.8594 L158.3125,672.25 L158.5625,672.25 C159.0156,672.25 159.1875,672.2813 159.3281,672.4063 C159.5625,672.5781 159.6875,672.8281 159.6875,673.1094 C159.6875,673.3906 159.5313,673.6875 159.2813,673.8281 C159.1406,673.9219 158.9219,673.9531 158.5625,673.9531 L156.5156,673.9531 C156.1094,673.9531 155.8906,673.9063 155.7344,673.7969 C155.5313,673.625 155.3906,673.3594 155.3906,673.1094 C155.3906,672.8125 155.5469,672.5313 155.7969,672.375 C155.9531,672.2656 156.0938,672.25 156.5156,672.25 L156.6094,672.25 L156.6094,665.7344 C156.0469,665.6875 155.7344,665.3906 155.7344,664.8906 C155.7344,664.6094 155.8906,664.3125 156.1406,664.1563 C156.2969,664.0625 156.4219,664.0469 156.8594,664.0469 L158.5625,664.0469 C159.0313,664.0469 159.1875,664.0781 159.3281,664.1875 C159.5625,664.3594 159.6875,664.625 159.6875,664.8906 C159.6875,665.1875 159.5313,665.4688 159.2813,665.625 C159.125,665.7031 158.9844,665.7344 158.5625,665.7344 L158.3125,665.7344 L158.3125,668.1563 L161.9531,668.1563 L161.9531,665.7344 L161.7031,665.7344 C161.25,665.7344 161.1094,665.7031 160.9375,665.5938 C160.7188,665.4219 160.5781,665.1719 160.5781,664.8906 C160.5781,664.6094 160.7344,664.3125 160.9844,664.1563 C161.1406,664.0625 161.2656,664.0469 161.7031,664.0469 L163.4219,664.0469 C163.875,664.0469 164.0313,664.0781 164.2031,664.1875 C164.4063,664.3594 164.5313,664.625 164.5313,664.8906 C164.5313,665.3906 164.2188,665.6875 163.6563,665.7344 L163.6563,672.25 L163.75,672.25 C164.2188,672.25 164.3594,672.2813 164.5156,672.4063 C164.7344,672.5781 164.875,672.8281 164.875,673.1094 C164.875,673.3906 164.7188,673.6875 164.4688,673.8281 C164.3281,673.9219 164.1094,673.9531 163.75,673.9531 L161.7031,673.9531 C161.2969,673.9531 161.0938,673.9063 160.9375,673.7969 C160.7188,673.625 160.5781,673.3594 160.5781,673.1094 C160.5781,672.8125 160.7344,672.5313 160.9844,672.375 C161.1406,672.2656 161.2969,672.25 161.7031,672.25 L161.9531,672.25 Z "/><text fill="#000000" font-family="sans-serif" font-size="12" lengthAdjust="spacingAndGlyphs" textLength="37" x="174" y="673.1074">L1curl</text><line style="stroke: #A80036; stroke-width: 1.5;" x1="146" x2="213" y1="684.9531" y2="684.9531"/><line style="stroke: #A80036; stroke-width: 1.5;" x1="146" x2="213" y1="692.9531" y2="692.9531"/><ellipse cx="156" cy="704.8555" fill="#84BE84" rx="3" ry="3" style="stroke: #038048; stroke-width: 1.0;"/><text fill="#000000" font-family="sans-serif" font-size="11" lengthAdjust="spacingAndGlyphs" textLength="42" x="165" y="707.1636">L1curl()</text><!--class L1curlPlus--><rect fill="#FEFECE" filter="url(#ffm9o74)" height="60.8047" style="stroke: #A80036; stroke-width: 1.5;" width="95" x="249" y="652.9531"/><ellipse cx="264" cy="668.9531" fill="#E6FFE6" rx="11" ry="11" style="stroke: #A80036; stroke-width: 1.0;"/><path d="M265.9531,669.8594 L262.3125,669.8594 L262.3125,672.25 L262.5625,672.25 C263.0156,672.25 263.1875,672.2813 263.3281,672.4063 C263.5625,672.5781 263.6875,672.8281 263.6875,673.1094 C263.6875,673.3906 263.5313,673.6875 263.2813,673.8281 C263.1406,673.9219 262.9219,673.9531 262.5625,673.9531 L260.5156,673.9531 C260.1094,673.9531 259.8906,673.9063 259.7344,673.7969 C259.5313,673.625 259.3906,673.3594 259.3906,673.1094 C259.3906,672.8125 259.5469,672.5313 259.7969,672.375 C259.9531,672.2656 260.0938,672.25 260.5156,672.25 L260.6094,672.25 L260.6094,665.7344 C260.0469,665.6875 259.7344,665.3906 259.7344,664.8906 C259.7344,664.6094 259.8906,664.3125 260.1406,664.1563 C260.2969,664.0625 260.4219,664.0469 260.8594,664.0469 L262.5625,664.0469 C263.0313,664.0469 263.1875,664.0781 263.3281,664.1875 C263.5625,664.3594 263.6875,664.625 263.6875,664.8906 C263.6875,665.1875 263.5313,665.4688 263.2813,665.625 C263.125,665.7031 262.9844,665.7344 262.5625,665.7344 L262.3125,665.7344 L262.3125,668.1563 L265.9531,668.1563 L265.9531,665.7344 L265.7031,665.7344 C265.25,665.7344 265.1094,665.7031 264.9375,665.5938 C264.7188,665.4219 264.5781,665.1719 264.5781,664.8906 C264.5781,664.6094 264.7344,664.3125 264.9844,664.1563 C265.1406,664.0625 265.2656,664.0469 265.7031,664.0469 L267.4219,664.0469 C267.875,664.0469 268.0313,664.0781 268.2031,664.1875 C268.4063,664.3594 268.5313,664.625 268.5313,664.8906 C268.5313,665.3906 268.2188,665.6875 267.6563,665.7344 L267.6563,672.25 L267.75,672.25 C268.2188,672.25 268.3594,672.2813 268.5156,672.4063 C268.7344,672.5781 268.875,672.8281 268.875,673.1094 C268.875,673.3906 268.7188,673.6875 268.4688,673.8281 C268.3281,673.9219 268.1094,673.9531 267.75,673.9531 L265.7031,673.9531 C265.2969,673.9531 265.0938,673.9063 264.9375,673.7969 C264.7188,673.625 264.5781,673.3594 264.5781,673.1094 C264.5781,672.8125 264.7344,672.5313 264.9844,672.375 C265.1406,672.2656 265.2969,672.25 265.7031,672.25 L265.9531,672.25 Z "/><text fill="#000000" font-family="sans-serif" font-size="12" lengthAdjust="spacingAndGlyphs" textLength="63" x="278" y="673.1074">L1curlPlus</text><line style="stroke: #A80036; stroke-width: 1.5;" x1="250" x2="343" y1="684.9531" y2="684.9531"/><line style="stroke: #A80036; stroke-width: 1.5;" x1="250" x2="343" y1="692.9531" y2="692.9531"/><ellipse cx="260" cy="704.8555" fill="#84BE84" rx="3" ry="3" style="stroke: #038048; stroke-width: 1.0;"/><text fill="#000000" font-family="sans-serif" font-size="11" lengthAdjust="spacingAndGlyphs" textLength="66" x="269" y="707.1636">L1curlPlus()</text><!--class L1curlSwitched--><rect fill="#FEFECE" filter="url(#ffm9o74)" height="60.8047" style="stroke: #A80036; stroke-width: 1.5;" width="125" x="379" y="652.9531"/><ellipse cx="394" cy="668.9531" fill="#E6FFE6" rx="11" ry="11" style="stroke: #A80036; stroke-width: 1.0;"/><path d="M395.9531,669.8594 L392.3125,669.8594 L392.3125,672.25 L392.5625,672.25 C393.0156,672.25 393.1875,672.2813 393.3281,672.4063 C393.5625,672.5781 393.6875,672.8281 393.6875,673.1094 C393.6875,673.3906 393.5313,673.6875 393.2813,673.8281 C393.1406,673.9219 392.9219,673.9531 392.5625,673.9531 L390.5156,673.9531 C390.1094,673.9531 389.8906,673.9063 389.7344,673.7969 C389.5313,673.625 389.3906,673.3594 389.3906,673.1094 C389.3906,672.8125 389.5469,672.5313 389.7969,672.375 C389.9531,672.2656 390.0938,672.25 390.5156,672.25 L390.6094,672.25 L390.6094,665.7344 C390.0469,665.6875 389.7344,665.3906 389.7344,664.8906 C389.7344,664.6094 389.8906,664.3125 390.1406,664.1563 C390.2969,664.0625 390.4219,664.0469 390.8594,664.0469 L392.5625,664.0469 C393.0313,664.0469 393.1875,664.0781 393.3281,664.1875 C393.5625,664.3594 393.6875,664.625 393.6875,664.8906 C393.6875,665.1875 393.5313,665.4688 393.2813,665.625 C393.125,665.7031 392.9844,665.7344 392.5625,665.7344 L392.3125,665.7344 L392.3125,668.1563 L395.9531,668.1563 L395.9531,665.7344 L395.7031,665.7344 C395.25,665.7344 395.1094,665.7031 394.9375,665.5938 C394.7188,665.4219 394.5781,665.1719 394.5781,664.8906 C394.5781,664.6094 394.7344,664.3125 394.9844,664.1563 C395.1406,664.0625 395.2656,664.0469 395.7031,664.0469 L397.4219,664.0469 C397.875,664.0469 398.0313,664.0781 398.2031,664.1875 C398.4063,664.3594 398.5313,664.625 398.5313,664.8906 C398.5313,665.3906 398.2188,665.6875 397.6563,665.7344 L397.6563,672.25 L397.75,672.25 C398.2188,672.25 398.3594,672.2813 398.5156,672.4063 C398.7344,672.5781 398.875,672.8281 398.875,673.1094 C398.875,673.3906 398.7188,673.6875 398.4688,673.8281 C398.3281,673.9219 398.1094,673.9531 397.75,673.9531 L395.7031,673.9531 C395.2969,673.9531 395.0938,673.9063 394.9375,673.7969 C394.7188,673.625 394.5781,673.3594 394.5781,673.1094 C394.5781,672.8125 394.7344,672.5313 394.9844,672.375 C395.1406,672.2656 395.2969,672.25 395.7031,672.25 L395.9531,672.25 Z "/><text fill="#000000" font-family="sans-serif" font-size="12" lengthAdjust="spacingAndGlyphs" textLength="93" x="408" y="673.1074">L1curlSwitched</text><line style="stroke: #A80036; stroke-width: 1.5;" x1="380" x2="503" y1="684.9531" y2="684.9531"/><line style="stroke: #A80036; stroke-width: 1.5;" x1="380" x2="503" y1="692.9531" y2="692.9531"/><ellipse cx="390" cy="704.8555" fill="#84BE84" rx="3" ry="3" style="stroke: #038048; stroke-width: 1.0;"/><text fill="#000000" font-family="sans-serif" font-size="11" lengthAdjust="spacingAndGlyphs" textLength="93" x="399" y="707.1636">L1curlSwitched()</text><!--class L1divAnticurlIso--><rect fill="#FEFECE" filter="url(#ffm9o74)" height="60.8047" style="stroke: #A80036; stroke-width: 1.5;" width="128" x="596.5" y="525.4531"/><ellipse cx="611.5" cy="541.4531" fill="#E6FFE6" rx="11" ry="11" style="stroke: #A80036; stroke-width: 1.0;"/><path d="M613.4531,542.3594 L609.8125,542.3594 L609.8125,544.75 L610.0625,544.75 C610.5156,544.75 610.6875,544.7813 610.8281,544.9063 C611.0625,545.0781 611.1875,545.3281 611.1875,545.6094 C611.1875,545.8906 611.0313,546.1875 610.7813,546.3281 C610.6406,546.4219 610.4219,546.4531 610.0625,546.4531 L608.0156,546.4531 C607.6094,546.4531 607.3906,546.4063 607.2344,546.2969 C607.0313,546.125 606.8906,545.8594 606.8906,545.6094 C606.8906,545.3125 607.0469,545.0313 607.2969,544.875 C607.4531,544.7656 607.5938,544.75 608.0156,544.75 L608.1094,544.75 L608.1094,538.2344 C607.5469,538.1875 607.2344,537.8906 607.2344,537.3906 C607.2344,537.1094 607.3906,536.8125 607.6406,536.6563 C607.7969,536.5625 607.9219,536.5469 608.3594,536.5469 L610.0625,536.5469 C610.5313,536.5469 610.6875,536.5781 610.8281,536.6875 C611.0625,536.8594 611.1875,537.125 611.1875,537.3906 C611.1875,537.6875 611.0313,537.9688 610.7813,538.125 C610.625,538.2031 610.4844,538.2344 610.0625,538.2344 L609.8125,538.2344 L609.8125,540.6563 L613.4531,540.6563 L613.4531,538.2344 L613.2031,538.2344 C612.75,538.2344 612.6094,538.2031 612.4375,538.0938 C612.2188,537.9219 612.0781,537.6719 612.0781,537.3906 C612.0781,537.1094 612.2344,536.8125 612.4844,536.6563 C612.6406,536.5625 612.7656,536.5469 613.2031,536.5469 L614.9219,536.5469 C615.375,536.5469 615.5313,536.5781 615.7031,536.6875 C615.9063,536.8594 616.0313,537.125 616.0313,537.3906 C616.0313,537.8906 615.7188,538.1875 615.1563,538.2344 L615.1563,544.75 L615.25,544.75 C615.7188,544.75 615.8594,544.7813 616.0156,544.9063 C616.2344,545.0781 616.375,545.3281 616.375,545.6094 C616.375,545.8906 616.2188,546.1875 615.9688,546.3281 C615.8281,546.4219 615.6094,546.4531 615.25,546.4531 L613.2031,546.4531 C612.7969,546.4531 612.5938,546.4063 612.4375,546.2969 C612.2188,546.125 612.0781,545.8594 612.0781,545.6094 C612.0781,545.3125 612.2344,545.0313 612.4844,544.875 C612.6406,544.7656 612.7969,544.75 613.2031,544.75 L613.4531,544.75 Z "/><text fill="#000000" font-family="sans-serif" font-size="12" lengthAdjust="spacingAndGlyphs" textLength="96" x="625.5" y="545.6074">L1divAnticurlIso</text><line style="stroke: #A80036; stroke-width: 1.5;" x1="597.5" x2="723.5" y1="557.4531" y2="557.4531"/><line style="stroke: #A80036; stroke-width: 1.5;" x1="597.5" x2="723.5" y1="565.4531" y2="565.4531"/><ellipse cx="607.5" cy="577.3555" fill="#84BE84" rx="3" ry="3" style="stroke: #038048; stroke-width: 1.0;"/><text fill="#000000" font-family="sans-serif" font-size="11" lengthAdjust="spacingAndGlyphs" textLength="96" x="616.5" y="579.6636">L1divAnticurlIso()</text><!--class L1divCurlIso--><rect fill="#FEFECE" filter="url(#ffm9o74)" height="60.8047" style="stroke: #A80036; stroke-width: 1.5;" width="105" x="447" y="525.4531"/><ellipse cx="462" cy="541.4531" fill="#E6FFE6" rx="11" ry="11" style="stroke: #A80036; stroke-width: 1.0;"/><path d="M463.9531,542.3594 L460.3125,542.3594 L460.3125,544.75 L460.5625,544.75 C461.0156,544.75 461.1875,544.7813 461.3281,544.9063 C461.5625,545.0781 461.6875,545.3281 461.6875,545.6094 C461.6875,545.8906 461.5313,546.1875 461.2813,546.3281 C461.1406,546.4219 460.9219,546.4531 460.5625,546.4531 L458.5156,546.4531 C458.1094,546.4531 457.8906,546.4063 457.7344,546.2969 C457.5313,546.125 457.3906,545.8594 457.3906,545.6094 C457.3906,545.3125 457.5469,545.0313 457.7969,544.875 C457.9531,544.7656 458.0938,544.75 458.5156,544.75 L458.6094,544.75 L458.6094,538.2344 C458.0469,538.1875 457.7344,537.8906 457.7344,537.3906 C457.7344,537.1094 457.8906,536.8125 458.1406,536.6563 C458.2969,536.5625 458.4219,536.5469 458.8594,536.5469 L460.5625,536.5469 C461.0313,536.5469 461.1875,536.5781 461.3281,536.6875 C461.5625,536.8594 461.6875,537.125 461.6875,537.3906 C461.6875,537.6875 461.5313,537.9688 461.2813,538.125 C461.125,538.2031 460.9844,538.2344 460.5625,538.2344 L460.3125,538.2344 L460.3125,540.6563 L463.9531,540.6563 L463.9531,538.2344 L463.7031,538.2344 C463.25,538.2344 463.1094,538.2031 462.9375,538.0938 C462.7188,537.9219 462.5781,537.6719 462.5781,537.3906 C462.5781,537.1094 462.7344,536.8125 462.9844,536.6563 C463.1406,536.5625 463.2656,536.5469 463.7031,536.5469 L465.4219,536.5469 C465.875,536.5469 466.0313,536.5781 466.2031,536.6875 C466.4063,536.8594 466.5313,537.125 466.5313,537.3906 C466.5313,537.8906 466.2188,538.1875 465.6563,538.2344 L465.6563,544.75 L465.75,544.75 C466.2188,544.75 466.3594,544.7813 466.5156,544.9063 C466.7344,545.0781 466.875,545.3281 466.875,545.6094 C466.875,545.8906 466.7188,546.1875 466.4688,546.3281 C466.3281,546.4219 466.1094,546.4531 465.75,546.4531 L463.7031,546.4531 C463.2969,546.4531 463.0938,546.4063 462.9375,546.2969 C462.7188,546.125 462.5781,545.8594 462.5781,545.6094 C462.5781,545.3125 462.7344,545.0313 462.9844,544.875 C463.1406,544.7656 463.2969,544.75 463.7031,544.75 L463.9531,544.75 Z "/><text fill="#000000" font-family="sans-serif" font-size="12" lengthAdjust="spacingAndGlyphs" textLength="73" x="476" y="545.6074">L1divCurlIso</text><line style="stroke: #A80036; stroke-width: 1.5;" x1="448" x2="551" y1="557.4531" y2="557.4531"/><line style="stroke: #A80036; stroke-width: 1.5;" x1="448" x2="551" y1="565.4531" y2="565.4531"/><ellipse cx="458" cy="577.3555" fill="#84BE84" rx="3" ry="3" style="stroke: #038048; stroke-width: 1.0;"/><text fill="#000000" font-family="sans-serif" font-size="11" lengthAdjust="spacingAndGlyphs" textLength="77" x="467" y="579.6636">L1divCurlIso()</text><!--class L2curl--><rect fill="#FEFECE" filter="url(#ffm9o74)" height="60.8047" style="stroke: #A80036; stroke-width: 1.5;" width="69" x="35" y="652.9531"/><ellipse cx="50" cy="668.9531" fill="#E6FFE6" rx="11" ry="11" style="stroke: #A80036; stroke-width: 1.0;"/><path d="M51.9531,669.8594 L48.3125,669.8594 L48.3125,672.25 L48.5625,672.25 C49.0156,672.25 49.1875,672.2813 49.3281,672.4063 C49.5625,672.5781 49.6875,672.8281 49.6875,673.1094 C49.6875,673.3906 49.5313,673.6875 49.2813,673.8281 C49.1406,673.9219 48.9219,673.9531 48.5625,673.9531 L46.5156,673.9531 C46.1094,673.9531 45.8906,673.9063 45.7344,673.7969 C45.5313,673.625 45.3906,673.3594 45.3906,673.1094 C45.3906,672.8125 45.5469,672.5313 45.7969,672.375 C45.9531,672.2656 46.0938,672.25 46.5156,672.25 L46.6094,672.25 L46.6094,665.7344 C46.0469,665.6875 45.7344,665.3906 45.7344,664.8906 C45.7344,664.6094 45.8906,664.3125 46.1406,664.1563 C46.2969,664.0625 46.4219,664.0469 46.8594,664.0469 L48.5625,664.0469 C49.0313,664.0469 49.1875,664.0781 49.3281,664.1875 C49.5625,664.3594 49.6875,664.625 49.6875,664.8906 C49.6875,665.1875 49.5313,665.4688 49.2813,665.625 C49.125,665.7031 48.9844,665.7344 48.5625,665.7344 L48.3125,665.7344 L48.3125,668.1563 L51.9531,668.1563 L51.9531,665.7344 L51.7031,665.7344 C51.25,665.7344 51.1094,665.7031 50.9375,665.5938 C50.7188,665.4219 50.5781,665.1719 50.5781,664.8906 C50.5781,664.6094 50.7344,664.3125 50.9844,664.1563 C51.1406,664.0625 51.2656,664.0469 51.7031,664.0469 L53.4219,664.0469 C53.875,664.0469 54.0313,664.0781 54.2031,664.1875 C54.4063,664.3594 54.5313,664.625 54.5313,664.8906 C54.5313,665.3906 54.2188,665.6875 53.6563,665.7344 L53.6563,672.25 L53.75,672.25 C54.2188,672.25 54.3594,672.2813 54.5156,672.4063 C54.7344,672.5781 54.875,672.8281 54.875,673.1094 C54.875,673.3906 54.7188,673.6875 54.4688,673.8281 C54.3281,673.9219 54.1094,673.9531 53.75,673.9531 L51.7031,673.9531 C51.2969,673.9531 51.0938,673.9063 50.9375,673.7969 C50.7188,673.625 50.5781,673.3594 50.5781,673.1094 C50.5781,672.8125 50.7344,672.5313 50.9844,672.375 C51.1406,672.2656 51.2969,672.25 51.7031,672.25 L51.9531,672.25 Z "/><text fill="#000000" font-family="sans-serif" font-size="12" lengthAdjust="spacingAndGlyphs" textLength="37" x="64" y="673.1074">L2curl</text><line style="stroke: #A80036; stroke-width: 1.5;" x1="36" x2="103" y1="684.9531" y2="684.9531"/><line style="stroke: #A80036; stroke-width: 1.5;" x1="36" x2="103" y1="692.9531" y2="692.9531"/><ellipse cx="46" cy="704.8555" fill="#84BE84" rx="3" ry="3" style="stroke: #038048; stroke-width: 1.0;"/><text fill="#000000" font-family="sans-serif" font-size="11" lengthAdjust="spacingAndGlyphs" textLength="42" x="55" y="707.1636">L2curl()</text><!--class tildeMultiOperatorMultiDual--><rect fill="#FEFECE" filter="url(#ffm9o74)" height="99.2188" style="stroke: #A80036; stroke-width: 1.5;" width="201" x="84" y="162.4531"/><ellipse cx="99" cy="178.4531" fill="#E6FFE6" rx="11" ry="11" style="stroke: #A80036; stroke-width: 1.0;"/><path d="M100.9531,179.3594 L97.3125,179.3594 L97.3125,181.75 L97.5625,181.75 C98.0156,181.75 98.1875,181.7813 98.3281,181.9063 C98.5625,182.0781 98.6875,182.3281 98.6875,182.6094 C98.6875,182.8906 98.5313,183.1875 98.2813,183.3281 C98.1406,183.4219 97.9219,183.4531 97.5625,183.4531 L95.5156,183.4531 C95.1094,183.4531 94.8906,183.4063 94.7344,183.2969 C94.5313,183.125 94.3906,182.8594 94.3906,182.6094 C94.3906,182.3125 94.5469,182.0313 94.7969,181.875 C94.9531,181.7656 95.0938,181.75 95.5156,181.75 L95.6094,181.75 L95.6094,175.2344 C95.0469,175.1875 94.7344,174.8906 94.7344,174.3906 C94.7344,174.1094 94.8906,173.8125 95.1406,173.6563 C95.2969,173.5625 95.4219,173.5469 95.8594,173.5469 L97.5625,173.5469 C98.0313,173.5469 98.1875,173.5781 98.3281,173.6875 C98.5625,173.8594 98.6875,174.125 98.6875,174.3906 C98.6875,174.6875 98.5313,174.9688 98.2813,175.125 C98.125,175.2031 97.9844,175.2344 97.5625,175.2344 L97.3125,175.2344 L97.3125,177.6563 L100.9531,177.6563 L100.9531,175.2344 L100.7031,175.2344 C100.25,175.2344 100.1094,175.2031 99.9375,175.0938 C99.7188,174.9219 99.5781,174.6719 99.5781,174.3906 C99.5781,174.1094 99.7344,173.8125 99.9844,173.6563 C100.1406,173.5625 100.2656,173.5469 100.7031,173.5469 L102.4219,173.5469 C102.875,173.5469 103.0313,173.5781 103.2031,173.6875 C103.4063,173.8594 103.5313,174.125 103.5313,174.3906 C103.5313,174.8906 103.2188,175.1875 102.6563,175.2344 L102.6563,181.75 L102.75,181.75 C103.2188,181.75 103.3594,181.7813 103.5156,181.9063 C103.7344,182.0781 103.875,182.3281 103.875,182.6094 C103.875,182.8906 103.7188,183.1875 103.4688,183.3281 C103.3281,183.4219 103.1094,183.4531 102.75,183.4531 L100.7031,183.4531 C100.2969,183.4531 100.0938,183.4063 99.9375,183.2969 C99.7188,183.125 99.5781,182.8594 99.5781,182.6094 C99.5781,182.3125 99.7344,182.0313 99.9844,181.875 C100.1406,181.7656 100.2969,181.75 100.7031,181.75 L100.9531,181.75 Z "/><text fill="#000000" font-family="sans-serif" font-size="12" lengthAdjust="spacingAndGlyphs" textLength="169" x="113" y="182.6074">tildeMultiOperatorMultiDual</text><line style="stroke: #A80036; stroke-width: 1.5;" x1="85" x2="284" y1="194.4531" y2="194.4531"/><line style="stroke: #A80036; stroke-width: 1.5;" x1="85" x2="284" y1="202.4531" y2="202.4531"/><ellipse cx="95" cy="214.3555" fill="#84BE84" rx="3" ry="3" style="stroke: #038048; stroke-width: 1.0;"/><text fill="#000000" font-family="sans-serif" font-size="11" lengthAdjust="spacingAndGlyphs" textLength="43" x="104" y="216.6636">xError()</text><ellipse cx="95" cy="227.1602" fill="#84BE84" rx="3" ry="3" style="stroke: #038048; stroke-width: 1.0;"/><text fill="#000000" font-family="sans-serif" font-size="11" lengthAdjust="spacingAndGlyphs" textLength="41" x="104" y="229.4683">xTilde()</text><ellipse cx="95" cy="239.9648" fill="#84BE84" rx="3" ry="3" style="stroke: #038048; stroke-width: 1.0;"/><text fill="#000000" font-family="sans-serif" font-size="11" lengthAdjust="spacingAndGlyphs" textLength="43" x="104" y="242.2729">yError()</text><ellipse cx="95" cy="252.7695" fill="#84BE84" rx="3" ry="3" style="stroke: #038048; stroke-width: 1.0;"/><text fill="#000000" font-family="sans-serif" font-size="11" lengthAdjust="spacingAndGlyphs" textLength="41" x="104" y="255.0776">yTilde()</text><!--class L1AnisoProxDual--><rect fill="#FEFECE" filter="url(#ffm9o74)" height="73.6094" style="stroke: #A80036; stroke-width: 1.5;" width="135" x="266" y="518.9531"/><ellipse cx="281" cy="534.9531" fill="#E6FFE6" rx="11" ry="11" style="stroke: #A80036; stroke-width: 1.0;"/><path d="M282.9531,535.8594 L279.3125,535.8594 L279.3125,538.25 L279.5625,538.25 C280.0156,538.25 280.1875,538.2813 280.3281,538.4063 C280.5625,538.5781 280.6875,538.8281 280.6875,539.1094 C280.6875,539.3906 280.5313,539.6875 280.2813,539.8281 C280.1406,539.9219 279.9219,539.9531 279.5625,539.9531 L277.5156,539.9531 C277.1094,539.9531 276.8906,539.9063 276.7344,539.7969 C276.5313,539.625 276.3906,539.3594 276.3906,539.1094 C276.3906,538.8125 276.5469,538.5313 276.7969,538.375 C276.9531,538.2656 277.0938,538.25 277.5156,538.25 L277.6094,538.25 L277.6094,531.7344 C277.0469,531.6875 276.7344,531.3906 276.7344,530.8906 C276.7344,530.6094 276.8906,530.3125 277.1406,530.1563 C277.2969,530.0625 277.4219,530.0469 277.8594,530.0469 L279.5625,530.0469 C280.0313,530.0469 280.1875,530.0781 280.3281,530.1875 C280.5625,530.3594 280.6875,530.625 280.6875,530.8906 C280.6875,531.1875 280.5313,531.4688 280.2813,531.625 C280.125,531.7031 279.9844,531.7344 279.5625,531.7344 L279.3125,531.7344 L279.3125,534.1563 L282.9531,534.1563 L282.9531,531.7344 L282.7031,531.7344 C282.25,531.7344 282.1094,531.7031 281.9375,531.5938 C281.7188,531.4219 281.5781,531.1719 281.5781,530.8906 C281.5781,530.6094 281.7344,530.3125 281.9844,530.1563 C282.1406,530.0625 282.2656,530.0469 282.7031,530.0469 L284.4219,530.0469 C284.875,530.0469 285.0313,530.0781 285.2031,530.1875 C285.4063,530.3594 285.5313,530.625 285.5313,530.8906 C285.5313,531.3906 285.2188,531.6875 284.6563,531.7344 L284.6563,538.25 L284.75,538.25 C285.2188,538.25 285.3594,538.2813 285.5156,538.4063 C285.7344,538.5781 285.875,538.8281 285.875,539.1094 C285.875,539.3906 285.7188,539.6875 285.4688,539.8281 C285.3281,539.9219 285.1094,539.9531 284.75,539.9531 L282.7031,539.9531 C282.2969,539.9531 282.0938,539.9063 281.9375,539.7969 C281.7188,539.625 281.5781,539.3594 281.5781,539.1094 C281.5781,538.8125 281.7344,538.5313 281.9844,538.375 C282.1406,538.2656 282.2969,538.25 282.7031,538.25 L282.9531,538.25 Z "/><text fill="#000000" font-family="sans-serif" font-size="12" lengthAdjust="spacingAndGlyphs" textLength="103" x="295" y="539.1074">L1AnisoProxDual</text><line style="stroke: #A80036; stroke-width: 1.5;" x1="267" x2="400" y1="550.9531" y2="550.9531"/><line style="stroke: #A80036; stroke-width: 1.5;" x1="267" x2="400" y1="558.9531" y2="558.9531"/><ellipse cx="277" cy="570.8555" fill="#84BE84" rx="3" ry="3" style="stroke: #038048; stroke-width: 1.0;"/><text fill="#000000" font-family="sans-serif" font-size="11" lengthAdjust="spacingAndGlyphs" textLength="102" x="286" y="573.1636">L1AnisoProxDual()</text><ellipse cx="277" cy="583.6602" fill="#84BE84" rx="3" ry="3" style="stroke: #038048; stroke-width: 1.0;"/><text fill="#000000" font-family="sans-serif" font-size="11" lengthAdjust="spacingAndGlyphs" textLength="63" x="286" y="585.9683">applyProx()</text><!--class L1IsoProxDual--><rect fill="#FEFECE" filter="url(#ffm9o74)" height="73.6094" style="stroke: #A80036; stroke-width: 1.5;" width="119" x="451" y="365.9531"/><ellipse cx="466" cy="381.9531" fill="#E6FFE6" rx="11" ry="11" style="stroke: #A80036; stroke-width: 1.0;"/><path d="M467.9531,382.8594 L464.3125,382.8594 L464.3125,385.25 L464.5625,385.25 C465.0156,385.25 465.1875,385.2813 465.3281,385.4063 C465.5625,385.5781 465.6875,385.8281 465.6875,386.1094 C465.6875,386.3906 465.5313,386.6875 465.2813,386.8281 C465.1406,386.9219 464.9219,386.9531 464.5625,386.9531 L462.5156,386.9531 C462.1094,386.9531 461.8906,386.9063 461.7344,386.7969 C461.5313,386.625 461.3906,386.3594 461.3906,386.1094 C461.3906,385.8125 461.5469,385.5313 461.7969,385.375 C461.9531,385.2656 462.0938,385.25 462.5156,385.25 L462.6094,385.25 L462.6094,378.7344 C462.0469,378.6875 461.7344,378.3906 461.7344,377.8906 C461.7344,377.6094 461.8906,377.3125 462.1406,377.1563 C462.2969,377.0625 462.4219,377.0469 462.8594,377.0469 L464.5625,377.0469 C465.0313,377.0469 465.1875,377.0781 465.3281,377.1875 C465.5625,377.3594 465.6875,377.625 465.6875,377.8906 C465.6875,378.1875 465.5313,378.4688 465.2813,378.625 C465.125,378.7031 464.9844,378.7344 464.5625,378.7344 L464.3125,378.7344 L464.3125,381.1563 L467.9531,381.1563 L467.9531,378.7344 L467.7031,378.7344 C467.25,378.7344 467.1094,378.7031 466.9375,378.5938 C466.7188,378.4219 466.5781,378.1719 466.5781,377.8906 C466.5781,377.6094 466.7344,377.3125 466.9844,377.1563 C467.1406,377.0625 467.2656,377.0469 467.7031,377.0469 L469.4219,377.0469 C469.875,377.0469 470.0313,377.0781 470.2031,377.1875 C470.4063,377.3594 470.5313,377.625 470.5313,377.8906 C470.5313,378.3906 470.2188,378.6875 469.6563,378.7344 L469.6563,385.25 L469.75,385.25 C470.2188,385.25 470.3594,385.2813 470.5156,385.4063 C470.7344,385.5781 470.875,385.8281 470.875,386.1094 C470.875,386.3906 470.7188,386.6875 470.4688,386.8281 C470.3281,386.9219 470.1094,386.9531 469.75,386.9531 L467.7031,386.9531 C467.2969,386.9531 467.0938,386.9063 466.9375,386.7969 C466.7188,386.625 466.5781,386.3594 466.5781,386.1094 C466.5781,385.8125 466.7344,385.5313 466.9844,385.375 C467.1406,385.2656 467.2969,385.25 467.7031,385.25 L467.9531,385.25 Z "/><text fill="#000000" font-family="sans-serif" font-size="12" lengthAdjust="spacingAndGlyphs" textLength="87" x="480" y="386.1074">L1IsoProxDual</text><line style="stroke: #A80036; stroke-width: 1.5;" x1="452" x2="569" y1="397.9531" y2="397.9531"/><line style="stroke: #A80036; stroke-width: 1.5;" x1="452" x2="569" y1="405.9531" y2="405.9531"/><ellipse cx="462" cy="417.8555" fill="#84BE84" rx="3" ry="3" style="stroke: #038048; stroke-width: 1.0;"/><text fill="#000000" font-family="sans-serif" font-size="11" lengthAdjust="spacingAndGlyphs" textLength="88" x="471" y="420.1636">L1IsoProxDual()</text><ellipse cx="462" cy="430.6602" fill="#84BE84" rx="3" ry="3" style="stroke: #038048; stroke-width: 1.0;"/><text fill="#000000" font-family="sans-serif" font-size="11" lengthAdjust="spacingAndGlyphs" textLength="63" x="471" y="432.9683">applyProx()</text><!--class L2proxDual--><rect fill="#FEFECE" filter="url(#ffm9o74)" height="73.6094" style="stroke: #A80036; stroke-width: 1.5;" width="101" x="6" y="518.9531"/><ellipse cx="21" cy="534.9531" fill="#E6FFE6" rx="11" ry="11" style="stroke: #A80036; stroke-width: 1.0;"/><path d="M22.9531,535.8594 L19.3125,535.8594 L19.3125,538.25 L19.5625,538.25 C20.0156,538.25 20.1875,538.2813 20.3281,538.4063 C20.5625,538.5781 20.6875,538.8281 20.6875,539.1094 C20.6875,539.3906 20.5313,539.6875 20.2813,539.8281 C20.1406,539.9219 19.9219,539.9531 19.5625,539.9531 L17.5156,539.9531 C17.1094,539.9531 16.8906,539.9063 16.7344,539.7969 C16.5313,539.625 16.3906,539.3594 16.3906,539.1094 C16.3906,538.8125 16.5469,538.5313 16.7969,538.375 C16.9531,538.2656 17.0938,538.25 17.5156,538.25 L17.6094,538.25 L17.6094,531.7344 C17.0469,531.6875 16.7344,531.3906 16.7344,530.8906 C16.7344,530.6094 16.8906,530.3125 17.1406,530.1563 C17.2969,530.0625 17.4219,530.0469 17.8594,530.0469 L19.5625,530.0469 C20.0313,530.0469 20.1875,530.0781 20.3281,530.1875 C20.5625,530.3594 20.6875,530.625 20.6875,530.8906 C20.6875,531.1875 20.5313,531.4688 20.2813,531.625 C20.125,531.7031 19.9844,531.7344 19.5625,531.7344 L19.3125,531.7344 L19.3125,534.1563 L22.9531,534.1563 L22.9531,531.7344 L22.7031,531.7344 C22.25,531.7344 22.1094,531.7031 21.9375,531.5938 C21.7188,531.4219 21.5781,531.1719 21.5781,530.8906 C21.5781,530.6094 21.7344,530.3125 21.9844,530.1563 C22.1406,530.0625 22.2656,530.0469 22.7031,530.0469 L24.4219,530.0469 C24.875,530.0469 25.0313,530.0781 25.2031,530.1875 C25.4063,530.3594 25.5313,530.625 25.5313,530.8906 C25.5313,531.3906 25.2188,531.6875 24.6563,531.7344 L24.6563,538.25 L24.75,538.25 C25.2188,538.25 25.3594,538.2813 25.5156,538.4063 C25.7344,538.5781 25.875,538.8281 25.875,539.1094 C25.875,539.3906 25.7188,539.6875 25.4688,539.8281 C25.3281,539.9219 25.1094,539.9531 24.75,539.9531 L22.7031,539.9531 C22.2969,539.9531 22.0938,539.9063 21.9375,539.7969 C21.7188,539.625 21.5781,539.3594 21.5781,539.1094 C21.5781,538.8125 21.7344,538.5313 21.9844,538.375 C22.1406,538.2656 22.2969,538.25 22.7031,538.25 L22.9531,538.25 Z "/><text fill="#000000" font-family="sans-serif" font-size="12" lengthAdjust="spacingAndGlyphs" textLength="69" x="35" y="539.1074">L2proxDual</text><line style="stroke: #A80036; stroke-width: 1.5;" x1="7" x2="106" y1="550.9531" y2="550.9531"/><line style="stroke: #A80036; stroke-width: 1.5;" x1="7" x2="106" y1="558.9531" y2="558.9531"/><ellipse cx="17" cy="570.8555" fill="#84BE84" rx="3" ry="3" style="stroke: #038048; stroke-width: 1.0;"/><text fill="#000000" font-family="sans-serif" font-size="11" lengthAdjust="spacingAndGlyphs" textLength="71" x="26" y="573.1636">L2proxDual()</text><ellipse cx="17" cy="583.6602" fill="#84BE84" rx="3" ry="3" style="stroke: #038048; stroke-width: 1.0;"/><text fill="#000000" font-family="sans-serif" font-size="11" lengthAdjust="spacingAndGlyphs" textLength="63" x="26" y="585.9683">applyProx()</text><!--class functionalPart--><rect fill="#FEFECE" filter="url(#ffm9o74)" height="48" style="stroke: #A80036; stroke-width: 1.5;" width="120" x="304.5" y="28.9531"/><ellipse cx="319.5" cy="44.9531" fill="#ADD1B2" rx="11" ry="11" style="stroke: #A80036; stroke-width: 1.0;"/><path d="M321.8438,40.625 L322.0156,40.7031 C322.2344,40.3906 322.4375,40.2969 322.7344,40.2969 C323.0313,40.2969 323.3125,40.4375 323.4688,40.7031 C323.5625,40.8594 323.5781,40.9844 323.5781,41.4219 L323.5781,42.8438 C323.5781,43.2656 323.5469,43.4531 323.4375,43.6094 C323.2656,43.8281 323,43.9688 322.7344,43.9688 C322.5156,43.9688 322.2813,43.8594 322.1406,43.7188 C322,43.5938 321.9688,43.4688 321.9063,43.0625 C321.8125,42.6563 321.6406,42.4375 321.1563,42.1563 C320.6875,41.9063 320.0781,41.75 319.5,41.75 C317.7656,41.75 316.5156,43.0625 316.5156,44.8438 L316.5156,45.9375 C316.5156,47.6406 317.8125,48.7344 319.8594,48.7344 C320.625,48.7344 321.3125,48.6094 321.7344,48.3438 C321.9219,48.25 321.9219,48.25 322.375,47.7656 C322.5625,47.5781 322.7656,47.5 322.9844,47.5 C323.4531,47.5 323.8438,47.8906 323.8438,48.3438 C323.8438,48.7344 323.5156,49.1875 322.9375,49.5938 C322.1875,50.1406 321.0313,50.4375 319.8125,50.4375 C316.9219,50.4375 314.8125,48.5469 314.8125,45.9688 L314.8125,44.8438 C314.8125,42.125 316.8125,40.0469 319.4375,40.0469 C320.3125,40.0469 320.9063,40.1875 321.8438,40.625 Z "/><text fill="#000000" font-family="sans-serif" font-size="12" lengthAdjust="spacingAndGlyphs" textLength="88" x="333.5" y="49.1074">functionalPart</text><line style="stroke: #A80036; stroke-width: 1.5;" x1="305.5" x2="423.5" y1="60.9531" y2="60.9531"/><line style="stroke: #A80036; stroke-width: 1.5;" x1="305.5" x2="423.5" y1="68.9531" y2="68.9531"/><path d="M364.5,97.3281 C364.5,109.6191 364.5,123.3581 364.5,136.9181 " fill="none" style="stroke: #A80036; stroke-width: 1.0;"/><polygon fill="none" points="357.5,97.1191,364.5,77.1191,371.5,97.1191,357.5,97.1191" style="stroke: #A80036; stroke-width: 1.0;"/><path d="M306.241,282.8501 C304.989,284.2351 303.741,285.6041 302.5,286.9531 C274.858,317.0111 241.61,349.6401 217.809,372.4381 " fill="none" style="stroke: #A80036; stroke-width: 1.0;"/><polygon fill="none" points="301.21,277.9711,319.691,267.6051,311.709,287.2331,301.21,277.9711" style="stroke: #A80036; stroke-width: 1.0;"/><path d="M185.229,281.8511 C185.559,312.9851 185.93,348.1301 186.186,372.3181 " fill="none" style="stroke: #A80036; stroke-width: 1.0;"/><polygon fill="none" points="178.227,281.6981,185.015,261.6251,192.226,281.5501,178.227,281.6981" style="stroke: #A80036; stroke-width: 1.0;"/><path d="M186.5,454.1371 C186.5,477.7851 186.5,505.1801 186.5,525.4401 " fill="none" style="stroke: #A80036; stroke-width: 1.0;"/><polygon fill="none" points="179.5,453.7861,186.5,433.7861,193.5,453.7861,179.5,453.7861" style="stroke: #A80036; stroke-width: 1.0;"/><path d="M426.531,249.2341 C471.524,275.7901 533.672,312.9691 587.5,346.9531 C593.347,350.6441 599.393,354.5251 605.433,358.4451 " fill="none" style="stroke: #A80036; stroke-width: 1.0;"/><polygon fill="none" points="422.961,255.2551,409.279,239.0751,430.065,243.1911,422.961,255.2551" style="stroke: #A80036; stroke-width: 1.0;"/><path d="M363.501,307.4041 C363.358,320.8711 363.215,334.3391 363.085,346.7151 " fill="none" style="stroke: #A80036; stroke-width: 1.0;"/><polygon fill="none" points="356.504,307.0331,363.715,287.1081,370.503,307.1811,356.504,307.0331" style="stroke: #A80036; stroke-width: 1.0;"/><path d="M183.714,606.9001 C182.844,622.4997 181.912,639.2017 181.147,652.9248 " fill="none" style="stroke: #A80036; stroke-width: 1.0;"/><polygon fill="none" points="176.738,606.2741,184.841,586.6951,190.716,607.0541,176.738,606.2741" style="stroke: #A80036; stroke-width: 1.0;"/><path d="M273.326,605.9911 C253.269,622.3358 231.611,639.9856 214.163,654.2054 " fill="none" style="stroke: #A80036; stroke-width: 1.0;"/><polygon fill="none" points="269.031,600.4611,288.957,593.2531,277.875,611.3141,269.031,600.4611" style="stroke: #A80036; stroke-width: 1.0;"/><path d="M225.888,601.8921 C240.76,618.8588 257.292,637.7202 270.619,652.9248 " fill="none" style="stroke: #A80036; stroke-width: 1.0;"/><polygon fill="none" points="220.487,606.3491,212.568,586.6951,231.015,597.1211,220.487,606.3491" style="stroke: #A80036; stroke-width: 1.0;"/><path d="M317.057,612.7251 C313.011,626.4481 308.833,640.6218 305.308,652.5771 " fill="none" style="stroke: #A80036; stroke-width: 1.0;"/><polygon fill="none" points="310.428,610.4571,322.798,593.2531,323.857,614.4161,310.428,610.4571" style="stroke: #A80036; stroke-width: 1.0;"/><path d="M249.213,592.9611 C301.151,619.7926 344.435,639.7685 378.649,655.0657 " fill="none" style="stroke: #A80036; stroke-width: 1.0;"/><polygon fill="none" points="245.759,599.0551,231.267,583.5951,252.237,586.6431,245.759,599.0551" style="stroke: #A80036; stroke-width: 1.0;"/><path d="M377.803,608.4351 C390.731,623.4572 404.425,639.3707 415.79,652.5771 " fill="none" style="stroke: #A80036; stroke-width: 1.0;"/><polygon fill="none" points="372.478,612.9781,364.738,593.2531,383.09,603.8461,372.478,612.9781" style="stroke: #A80036; stroke-width: 1.0;"/><path d="M665.501,479.4381 C664.418,495.7961 663.334,512.1551 662.454,525.4441 " fill="none" style="stroke: #A80036; stroke-width: 1.0;"/><polygon fill="none" points="658.527,478.8161,666.833,459.3221,672.496,479.7411,658.527,478.8161" style="stroke: #A80036; stroke-width: 1.0;"/><path d="M560.742,454.5301 C584.039,477.9821 610.925,505.0471 630.911,525.1671 " fill="none" style="stroke: #A80036; stroke-width: 1.0;"/><polygon fill="none" points="555.558,459.2441,546.429,440.1211,565.49,449.3771,555.558,459.2441" style="stroke: #A80036; stroke-width: 1.0;"/><path d="M426.316,474.2901 C442.681,492.3281 459.405,510.7601 472.727,525.4441 " fill="none" style="stroke: #A80036; stroke-width: 1.0;"/><polygon fill="none" points="420.99,478.8381,412.736,459.3221,431.359,469.4311,420.99,478.8381" style="stroke: #A80036; stroke-width: 1.0;"/><path d="M506.398,460.2641 C504.793,482.2981 503.017,506.6681 501.67,525.1671 " fill="none" style="stroke: #A80036; stroke-width: 1.0;"/><polygon fill="none" points="499.431,459.5601,507.865,440.1211,513.394,460.5771,499.431,459.5601" style="stroke: #A80036; stroke-width: 1.0;"/><path d="M145.091,601.3701 C129.148,618.4715 111.349,637.5642 97.0283,652.9248 " fill="none" style="stroke: #A80036; stroke-width: 1.0;"/><polygon fill="none" points="140.014,596.5501,158.773,586.6951,150.255,606.0971,140.014,596.5501" style="stroke: #A80036; stroke-width: 1.0;"/><path d="M62.3268,613.2041 C63.7328,626.7774 65.1813,640.7608 66.4053,652.5771 " fill="none" style="stroke: #A80036; stroke-width: 1.0;"/><polygon fill="none" points="55.3582,613.8681,60.2601,593.2531,69.2837,612.4251,55.3582,613.8681" style="stroke: #A80036; stroke-width: 1.0;"/></g></svg>