<?xml version="1.0" encoding="UTF-8" standalone="no"?><svg xmlns="http://www.w3.org/2000/svg" xmlns:xlink="http://www.w3.org/1999/xlink" contentScriptType="application/ecmascript" contentStyleType="text/css" height="697px" preserveAspectRatio="none" style="width:2592px;height:697px;" version="1.1" viewBox="0 0 2592 697" width="2592px" zoomAndPan="magnify"><defs><filter height="300%" id="f0c2m86" width="300%" x="-1" y="-1"><feGaussianBlur result="blurOut" stdDeviation="2.0"/><feColorMatrix in="blurOut" result="blurOut2" type="matrix" values="0 0 0 0 0 0 0 0 0 0 0 0 0 0 0 0 0 0 .4 0"/><feOffset dx="4.0" dy="4.0" in="blurOut2" result="blurOut3"/><feBlend in="SourceGraphic" in2="blurOut3" mode="normal"/></filter></defs><g><text fill="#000000" font-family="sans-serif" font-size="18" font-weight="bold" lengthAdjust="spacingAndGlyphs" textLength="732" x="934.5" y="16.708">Regularizer Terms (Gradient / Gradient Difference / 2nd Order Gradient)</text><!--class dualPart--><rect fill="#FEFECE" filter="url(#f0c2m86)" height="150.4375" style="stroke: #A80036; stroke-width: 1.5;" width="89" x="1523" y="136.9531"/><ellipse cx="1539.8" cy="152.9531" fill="#E6FFE6" rx="11" ry="11" style="stroke: #A80036; stroke-width: 1.0;"/><path d="M1541.3781,154.7656 L1537.3313,154.7656 L1536.9406,155.75 L1537.3313,155.75 C1537.7844,155.75 1537.925,155.7813 1538.0969,155.9063 C1538.3156,156.0781 1538.4406,156.3281 1538.4406,156.6094 C1538.4406,156.8906 1538.3,157.1875 1538.0344,157.3281 C1537.9094,157.4219 1537.6906,157.4531 1537.3313,157.4531 L1535.0656,157.4531 C1534.3156,157.4531 1533.9406,157.1719 1533.9406,156.6094 C1533.9406,156.3125 1534.0969,156.0313 1534.3469,155.875 C1534.5031,155.7656 1534.6594,155.75 1535.0813,155.75 L1537.7219,149.2344 L1536.6438,149.2344 C1536.2063,149.2344 1536.0344,149.2031 1535.8625,149.0938 C1535.6438,148.9219 1535.5031,148.6719 1535.5031,148.3906 C1535.5031,148.1094 1535.6594,147.8281 1535.9094,147.6563 C1536.0656,147.5625 1536.1906,147.5469 1536.6438,147.5469 L1540.3156,147.5469 L1543.7063,155.75 C1544.175,155.75 1544.3313,155.7813 1544.5031,155.9219 C1544.7219,156.0781 1544.8625,156.3281 1544.8625,156.6094 C1544.8625,156.8906 1544.7063,157.1875 1544.4563,157.3281 C1544.3156,157.4219 1544.0969,157.4531 1543.7375,157.4531 L1541.3781,157.4531 C1540.9563,157.4531 1540.7531,157.4063 1540.6125,157.2813 C1540.3938,157.125 1540.2531,156.875 1540.2531,156.6094 C1540.2531,156.3125 1540.4094,156.0313 1540.6594,155.875 C1540.8156,155.7656 1540.925,155.75 1541.3781,155.75 L1541.7688,155.75 Z M1540.675,153.0625 L1539.3469,149.7969 L1538.0031,153.0625 Z "/><text fill="#000000" font-family="sans-serif" font-size="12" lengthAdjust="spacingAndGlyphs" textLength="53" x="1554.2" y="157.1074">dualPart</text><line style="stroke: #A80036; stroke-width: 1.5;" x1="1524" x2="1611" y1="168.9531" y2="168.9531"/><ellipse cx="1534" cy="180.8555" fill="none" rx="3" ry="3" style="stroke: #038048; stroke-width: 1.0;"/><text fill="#000000" font-family="sans-serif" font-size="11" lengthAdjust="spacingAndGlyphs" textLength="35" x="1543" y="183.1636">length</text><ellipse cx="1534" cy="193.6602" fill="none" rx="3" ry="3" style="stroke: #038048; stroke-width: 1.0;"/><text fill="#000000" font-family="sans-serif" font-size="11" lengthAdjust="spacingAndGlyphs" textLength="53" x="1543" y="195.9683">mySigma</text><ellipse cx="1534" cy="206.4648" fill="none" rx="3" ry="3" style="stroke: #038048; stroke-width: 1.0;"/><text fill="#000000" font-family="sans-serif" font-size="11" lengthAdjust="spacingAndGlyphs" textLength="38" x="1543" y="208.7729">myTau</text><ellipse cx="1534" cy="219.2695" fill="none" rx="3" ry="3" style="stroke: #038048; stroke-width: 1.0;"/><text fill="#000000" font-family="sans-serif" font-size="11" lengthAdjust="spacingAndGlyphs" textLength="51" x="1543" y="221.5776">numVars</text><ellipse cx="1534" cy="232.0742" fill="none" rx="3" ry="3" style="stroke: #038048; stroke-width: 1.0;"/><text fill="#000000" font-family="sans-serif" font-size="11" lengthAdjust="spacingAndGlyphs" textLength="49" x="1543" y="234.3823">operator</text><ellipse cx="1534" cy="244.8789" fill="none" rx="3" ry="3" style="stroke: #038048; stroke-width: 1.0;"/><text fill="#000000" font-family="sans-serif" font-size="11" lengthAdjust="spacingAndGlyphs" textLength="56" x="1543" y="247.187">operatorT</text><line style="stroke: #A80036; stroke-width: 1.5;" x1="1524" x2="1611" y1="253.7813" y2="253.7813"/><ellipse cx="1534" cy="265.6836" fill="#84BE84" rx="3" ry="3" style="stroke: #038048; stroke-width: 1.0;"/><text fill="#000000" font-family="sans-serif" font-size="11" lengthAdjust="spacingAndGlyphs" textLength="55" x="1543" y="267.9917">dualPart()</text><ellipse cx="1534" cy="278.4883" fill="#84BE84" rx="3" ry="3" style="stroke: #038048; stroke-width: 1.0;"/><text fill="#000000" font-family="sans-serif" font-size="11" lengthAdjust="spacingAndGlyphs" textLength="63" x="1543" y="280.7964">applyProx()</text><!--class basicDualizedOperator--><rect fill="#FEFECE" filter="url(#f0c2m86)" height="60.8047" style="stroke: #A80036; stroke-width: 1.5;" width="173" x="1391" y="346.9531"/><ellipse cx="1406" cy="362.9531" fill="#E6FFE6" rx="11" ry="11" style="stroke: #A80036; stroke-width: 1.0;"/><path d="M1407.5781,364.7656 L1403.5313,364.7656 L1403.1406,365.75 L1403.5313,365.75 C1403.9844,365.75 1404.125,365.7813 1404.2969,365.9063 C1404.5156,366.0781 1404.6406,366.3281 1404.6406,366.6094 C1404.6406,366.8906 1404.5,367.1875 1404.2344,367.3281 C1404.1094,367.4219 1403.8906,367.4531 1403.5313,367.4531 L1401.2656,367.4531 C1400.5156,367.4531 1400.1406,367.1719 1400.1406,366.6094 C1400.1406,366.3125 1400.2969,366.0313 1400.5469,365.875 C1400.7031,365.7656 1400.8594,365.75 1401.2813,365.75 L1403.9219,359.2344 L1402.8438,359.2344 C1402.4063,359.2344 1402.2344,359.2031 1402.0625,359.0938 C1401.8438,358.9219 1401.7031,358.6719 1401.7031,358.3906 C1401.7031,358.1094 1401.8594,357.8281 1402.1094,357.6563 C1402.2656,357.5625 1402.3906,357.5469 1402.8438,357.5469 L1406.5156,357.5469 L1409.9063,365.75 C1410.375,365.75 1410.5313,365.7813 1410.7031,365.9219 C1410.9219,366.0781 1411.0625,366.3281 1411.0625,366.6094 C1411.0625,366.8906 1410.9063,367.1875 1410.6563,367.3281 C1410.5156,367.4219 1410.2969,367.4531 1409.9375,367.4531 L1407.5781,367.4531 C1407.1563,367.4531 1406.9531,367.4063 1406.8125,367.2813 C1406.5938,367.125 1406.4531,366.875 1406.4531,366.6094 C1406.4531,366.3125 1406.6094,366.0313 1406.8594,365.875 C1407.0156,365.7656 1407.125,365.75 1407.5781,365.75 L1407.9688,365.75 Z M1406.875,363.0625 L1405.5469,359.7969 L1404.2031,363.0625 Z "/><text fill="#000000" font-family="sans-serif" font-size="12" lengthAdjust="spacingAndGlyphs" textLength="141" x="1420" y="367.1074">basicDualizedOperator</text><line style="stroke: #A80036; stroke-width: 1.5;" x1="1392" x2="1563" y1="378.9531" y2="378.9531"/><line style="stroke: #A80036; stroke-width: 1.5;" x1="1392" x2="1563" y1="386.9531" y2="386.9531"/><ellipse cx="1402" cy="398.8555" fill="#84BE84" rx="3" ry="3" style="stroke: #038048; stroke-width: 1.0;"/><text fill="#000000" font-family="sans-serif" font-size="11" lengthAdjust="spacingAndGlyphs" textLength="136" x="1411" y="401.1636">basicDualizedOperator()</text><!--class basicGradient--><rect fill="#FEFECE" filter="url(#f0c2m86)" height="60.8047" style="stroke: #A80036; stroke-width: 1.5;" width="119" x="617" y="474.4531"/><ellipse cx="632" cy="490.4531" fill="#E6FFE6" rx="11" ry="11" style="stroke: #A80036; stroke-width: 1.0;"/><path d="M633.5781,492.2656 L629.5313,492.2656 L629.1406,493.25 L629.5313,493.25 C629.9844,493.25 630.125,493.2813 630.2969,493.4063 C630.5156,493.5781 630.6406,493.8281 630.6406,494.1094 C630.6406,494.3906 630.5,494.6875 630.2344,494.8281 C630.1094,494.9219 629.8906,494.9531 629.5313,494.9531 L627.2656,494.9531 C626.5156,494.9531 626.1406,494.6719 626.1406,494.1094 C626.1406,493.8125 626.2969,493.5313 626.5469,493.375 C626.7031,493.2656 626.8594,493.25 627.2813,493.25 L629.9219,486.7344 L628.8438,486.7344 C628.4063,486.7344 628.2344,486.7031 628.0625,486.5938 C627.8438,486.4219 627.7031,486.1719 627.7031,485.8906 C627.7031,485.6094 627.8594,485.3281 628.1094,485.1563 C628.2656,485.0625 628.3906,485.0469 628.8438,485.0469 L632.5156,485.0469 L635.9063,493.25 C636.375,493.25 636.5313,493.2813 636.7031,493.4219 C636.9219,493.5781 637.0625,493.8281 637.0625,494.1094 C637.0625,494.3906 636.9063,494.6875 636.6563,494.8281 C636.5156,494.9219 636.2969,494.9531 635.9375,494.9531 L633.5781,494.9531 C633.1563,494.9531 632.9531,494.9063 632.8125,494.7813 C632.5938,494.625 632.4531,494.375 632.4531,494.1094 C632.4531,493.8125 632.6094,493.5313 632.8594,493.375 C633.0156,493.2656 633.125,493.25 633.5781,493.25 L633.9688,493.25 Z M632.875,490.5625 L631.5469,487.2969 L630.2031,490.5625 Z "/><text fill="#000000" font-family="sans-serif" font-size="12" lengthAdjust="spacingAndGlyphs" textLength="87" x="646" y="494.6074">basicGradient</text><line style="stroke: #A80036; stroke-width: 1.5;" x1="618" x2="735" y1="506.4531" y2="506.4531"/><line style="stroke: #A80036; stroke-width: 1.5;" x1="618" x2="735" y1="514.4531" y2="514.4531"/><ellipse cx="628" cy="526.3555" fill="#84BE84" rx="3" ry="3" style="stroke: #038048; stroke-width: 1.0;"/><text fill="#000000" font-family="sans-serif" font-size="11" lengthAdjust="spacingAndGlyphs" textLength="87" x="637" y="528.6636">basicGradient()</text><!--class basicGradientDifference--><rect fill="#FEFECE" filter="url(#f0c2m86)" height="60.8047" style="stroke: #A80036; stroke-width: 1.5;" width="183" x="1386" y="474.4531"/><ellipse cx="1401" cy="490.4531" fill="#E6FFE6" rx="11" ry="11" style="stroke: #A80036; stroke-width: 1.0;"/><path d="M1402.5781,492.2656 L1398.5313,492.2656 L1398.1406,493.25 L1398.5313,493.25 C1398.9844,493.25 1399.125,493.2813 1399.2969,493.4063 C1399.5156,493.5781 1399.6406,493.8281 1399.6406,494.1094 C1399.6406,494.3906 1399.5,494.6875 1399.2344,494.8281 C1399.1094,494.9219 1398.8906,494.9531 1398.5313,494.9531 L1396.2656,494.9531 C1395.5156,494.9531 1395.1406,494.6719 1395.1406,494.1094 C1395.1406,493.8125 1395.2969,493.5313 1395.5469,493.375 C1395.7031,493.2656 1395.8594,493.25 1396.2813,493.25 L1398.9219,486.7344 L1397.8438,486.7344 C1397.4063,486.7344 1397.2344,486.7031 1397.0625,486.5938 C1396.8438,486.4219 1396.7031,486.1719 1396.7031,485.8906 C1396.7031,485.6094 1396.8594,485.3281 1397.1094,485.1563 C1397.2656,485.0625 1397.3906,485.0469 1397.8438,485.0469 L1401.5156,485.0469 L1404.9063,493.25 C1405.375,493.25 1405.5313,493.2813 1405.7031,493.4219 C1405.9219,493.5781 1406.0625,493.8281 1406.0625,494.1094 C1406.0625,494.3906 1405.9063,494.6875 1405.6563,494.8281 C1405.5156,494.9219 1405.2969,494.9531 1404.9375,494.9531 L1402.5781,494.9531 C1402.1563,494.9531 1401.9531,494.9063 1401.8125,494.7813 C1401.5938,494.625 1401.4531,494.375 1401.4531,494.1094 C1401.4531,493.8125 1401.6094,493.5313 1401.8594,493.375 C1402.0156,493.2656 1402.125,493.25 1402.5781,493.25 L1402.9688,493.25 Z M1401.875,490.5625 L1400.5469,487.2969 L1399.2031,490.5625 Z "/><text fill="#000000" font-family="sans-serif" font-size="12" lengthAdjust="spacingAndGlyphs" textLength="151" x="1415" y="494.6074">basicGradientDifference</text><line style="stroke: #A80036; stroke-width: 1.5;" x1="1387" x2="1568" y1="506.4531" y2="506.4531"/><line style="stroke: #A80036; stroke-width: 1.5;" x1="1387" x2="1568" y1="514.4531" y2="514.4531"/><ellipse cx="1397" cy="526.3555" fill="#84BE84" rx="3" ry="3" style="stroke: #038048; stroke-width: 1.0;"/><text fill="#000000" font-family="sans-serif" font-size="11" lengthAdjust="spacingAndGlyphs" textLength="145" x="1406" y="528.6636">basicGradientDifference()</text><!--class basicSecondOrderGradient--><rect fill="#FEFECE" filter="url(#f0c2m86)" height="60.8047" style="stroke: #A80036; stroke-width: 1.5;" width="201" x="2141" y="474.4531"/><ellipse cx="2156" cy="490.4531" fill="#E6FFE6" rx="11" ry="11" style="stroke: #A80036; stroke-width: 1.0;"/><path d="M2157.5781,492.2656 L2153.5313,492.2656 L2153.1406,493.25 L2153.5313,493.25 C2153.9844,493.25 2154.125,493.2813 2154.2969,493.4063 C2154.5156,493.5781 2154.6406,493.8281 2154.6406,494.1094 C2154.6406,494.3906 2154.5,494.6875 2154.2344,494.8281 C2154.1094,494.9219 2153.8906,494.9531 2153.5313,494.9531 L2151.2656,494.9531 C2150.5156,494.9531 2150.1406,494.6719 2150.1406,494.1094 C2150.1406,493.8125 2150.2969,493.5313 2150.5469,493.375 C2150.7031,493.2656 2150.8594,493.25 2151.2813,493.25 L2153.9219,486.7344 L2152.8438,486.7344 C2152.4063,486.7344 2152.2344,486.7031 2152.0625,486.5938 C2151.8438,486.4219 2151.7031,486.1719 2151.7031,485.8906 C2151.7031,485.6094 2151.8594,485.3281 2152.1094,485.1563 C2152.2656,485.0625 2152.3906,485.0469 2152.8438,485.0469 L2156.5156,485.0469 L2159.9063,493.25 C2160.375,493.25 2160.5313,493.2813 2160.7031,493.4219 C2160.9219,493.5781 2161.0625,493.8281 2161.0625,494.1094 C2161.0625,494.3906 2160.9063,494.6875 2160.6563,494.8281 C2160.5156,494.9219 2160.2969,494.9531 2159.9375,494.9531 L2157.5781,494.9531 C2157.1563,494.9531 2156.9531,494.9063 2156.8125,494.7813 C2156.5938,494.625 2156.4531,494.375 2156.4531,494.1094 C2156.4531,493.8125 2156.6094,493.5313 2156.8594,493.375 C2157.0156,493.2656 2157.125,493.25 2157.5781,493.25 L2157.9688,493.25 Z M2156.875,490.5625 L2155.5469,487.2969 L2154.2031,490.5625 Z "/><text fill="#000000" font-family="sans-serif" font-size="12" lengthAdjust="spacingAndGlyphs" textLength="169" x="2170" y="494.6074">basicSecondOrderGradient</text><line style="stroke: #A80036; stroke-width: 1.5;" x1="2142" x2="2341" y1="506.4531" y2="506.4531"/><line style="stroke: #A80036; stroke-width: 1.5;" x1="2142" x2="2341" y1="514.4531" y2="514.4531"/><ellipse cx="2152" cy="526.3555" fill="#84BE84" rx="3" ry="3" style="stroke: #038048; stroke-width: 1.0;"/><text fill="#000000" font-family="sans-serif" font-size="11" lengthAdjust="spacingAndGlyphs" textLength="162" x="2161" y="528.6636">basicSecondOrderGradient()</text><!--class frobeniusGradient--><rect fill="#FEFECE" filter="url(#f0c2m86)" height="60.8047" style="stroke: #A80036; stroke-width: 1.5;" width="145" x="144" y="614.4531"/><ellipse cx="159" cy="630.4531" fill="#E6FFE6" rx="11" ry="11" style="stroke: #A80036; stroke-width: 1.0;"/><path d="M160.9531,631.3594 L157.3125,631.3594 L157.3125,633.75 L157.5625,633.75 C158.0156,633.75 158.1875,633.7813 158.3281,633.9063 C158.5625,634.0781 158.6875,634.3281 158.6875,634.6094 C158.6875,634.8906 158.5313,635.1875 158.2813,635.3281 C158.1406,635.4219 157.9219,635.4531 157.5625,635.4531 L155.5156,635.4531 C155.1094,635.4531 154.8906,635.4063 154.7344,635.2969 C154.5313,635.125 154.3906,634.8594 154.3906,634.6094 C154.3906,634.3125 154.5469,634.0313 154.7969,633.875 C154.9531,633.7656 155.0938,633.75 155.5156,633.75 L155.6094,633.75 L155.6094,627.2344 C155.0469,627.1875 154.7344,626.8906 154.7344,626.3906 C154.7344,626.1094 154.8906,625.8125 155.1406,625.6563 C155.2969,625.5625 155.4219,625.5469 155.8594,625.5469 L157.5625,625.5469 C158.0313,625.5469 158.1875,625.5781 158.3281,625.6875 C158.5625,625.8594 158.6875,626.125 158.6875,626.3906 C158.6875,626.6875 158.5313,626.9688 158.2813,627.125 C158.125,627.2031 157.9844,627.2344 157.5625,627.2344 L157.3125,627.2344 L157.3125,629.6563 L160.9531,629.6563 L160.9531,627.2344 L160.7031,627.2344 C160.25,627.2344 160.1094,627.2031 159.9375,627.0938 C159.7188,626.9219 159.5781,626.6719 159.5781,626.3906 C159.5781,626.1094 159.7344,625.8125 159.9844,625.6563 C160.1406,625.5625 160.2656,625.5469 160.7031,625.5469 L162.4219,625.5469 C162.875,625.5469 163.0313,625.5781 163.2031,625.6875 C163.4063,625.8594 163.5313,626.125 163.5313,626.3906 C163.5313,626.8906 163.2188,627.1875 162.6563,627.2344 L162.6563,633.75 L162.75,633.75 C163.2188,633.75 163.3594,633.7813 163.5156,633.9063 C163.7344,634.0781 163.875,634.3281 163.875,634.6094 C163.875,634.8906 163.7188,635.1875 163.4688,635.3281 C163.3281,635.4219 163.1094,635.4531 162.75,635.4531 L160.7031,635.4531 C160.2969,635.4531 160.0938,635.4063 159.9375,635.2969 C159.7188,635.125 159.5781,634.8594 159.5781,634.6094 C159.5781,634.3125 159.7344,634.0313 159.9844,633.875 C160.1406,633.7656 160.2969,633.75 160.7031,633.75 L160.9531,633.75 Z "/><text fill="#000000" font-family="sans-serif" font-size="12" lengthAdjust="spacingAndGlyphs" textLength="113" x="173" y="634.6074">frobeniusGradient</text><line style="stroke: #A80036; stroke-width: 1.5;" x1="145" x2="288" y1="646.4531" y2="646.4531"/><line style="stroke: #A80036; stroke-width: 1.5;" x1="145" x2="288" y1="654.4531" y2="654.4531"/><ellipse cx="155" cy="666.3555" fill="#84BE84" rx="3" ry="3" style="stroke: #038048; stroke-width: 1.0;"/><text fill="#000000" font-family="sans-serif" font-size="11" lengthAdjust="spacingAndGlyphs" textLength="111" x="164" y="668.6636">frobeniusGradient()</text><!--class huberGradient--><rect fill="#FEFECE" filter="url(#f0c2m86)" height="73.6094" style="stroke: #A80036; stroke-width: 1.5;" width="123" x="324" y="607.9531"/><ellipse cx="339" cy="623.9531" fill="#E6FFE6" rx="11" ry="11" style="stroke: #A80036; stroke-width: 1.0;"/><path d="M340.9531,624.8594 L337.3125,624.8594 L337.3125,627.25 L337.5625,627.25 C338.0156,627.25 338.1875,627.2813 338.3281,627.4063 C338.5625,627.5781 338.6875,627.8281 338.6875,628.1094 C338.6875,628.3906 338.5313,628.6875 338.2813,628.8281 C338.1406,628.9219 337.9219,628.9531 337.5625,628.9531 L335.5156,628.9531 C335.1094,628.9531 334.8906,628.9063 334.7344,628.7969 C334.5313,628.625 334.3906,628.3594 334.3906,628.1094 C334.3906,627.8125 334.5469,627.5313 334.7969,627.375 C334.9531,627.2656 335.0938,627.25 335.5156,627.25 L335.6094,627.25 L335.6094,620.7344 C335.0469,620.6875 334.7344,620.3906 334.7344,619.8906 C334.7344,619.6094 334.8906,619.3125 335.1406,619.1563 C335.2969,619.0625 335.4219,619.0469 335.8594,619.0469 L337.5625,619.0469 C338.0313,619.0469 338.1875,619.0781 338.3281,619.1875 C338.5625,619.3594 338.6875,619.625 338.6875,619.8906 C338.6875,620.1875 338.5313,620.4688 338.2813,620.625 C338.125,620.7031 337.9844,620.7344 337.5625,620.7344 L337.3125,620.7344 L337.3125,623.1563 L340.9531,623.1563 L340.9531,620.7344 L340.7031,620.7344 C340.25,620.7344 340.1094,620.7031 339.9375,620.5938 C339.7188,620.4219 339.5781,620.1719 339.5781,619.8906 C339.5781,619.6094 339.7344,619.3125 339.9844,619.1563 C340.1406,619.0625 340.2656,619.0469 340.7031,619.0469 L342.4219,619.0469 C342.875,619.0469 343.0313,619.0781 343.2031,619.1875 C343.4063,619.3594 343.5313,619.625 343.5313,619.8906 C343.5313,620.3906 343.2188,620.6875 342.6563,620.7344 L342.6563,627.25 L342.75,627.25 C343.2188,627.25 343.3594,627.2813 343.5156,627.4063 C343.7344,627.5781 343.875,627.8281 343.875,628.1094 C343.875,628.3906 343.7188,628.6875 343.4688,628.8281 C343.3281,628.9219 343.1094,628.9531 342.75,628.9531 L340.7031,628.9531 C340.2969,628.9531 340.0938,628.9063 339.9375,628.7969 C339.7188,628.625 339.5781,628.3594 339.5781,628.1094 C339.5781,627.8125 339.7344,627.5313 339.9844,627.375 C340.1406,627.2656 340.2969,627.25 340.7031,627.25 L340.9531,627.25 Z "/><text fill="#000000" font-family="sans-serif" font-size="12" lengthAdjust="spacingAndGlyphs" textLength="91" x="353" y="628.1074">huberGradient</text><line style="stroke: #A80036; stroke-width: 1.5;" x1="325" x2="446" y1="639.9531" y2="639.9531"/><ellipse cx="335" cy="651.8555" fill="none" rx="3" ry="3" style="stroke: #038048; stroke-width: 1.0;"/><text fill="#000000" font-family="sans-serif" font-size="11" lengthAdjust="spacingAndGlyphs" textLength="24" x="344" y="654.1636">epsi</text><line style="stroke: #A80036; stroke-width: 1.5;" x1="325" x2="446" y1="660.7578" y2="660.7578"/><ellipse cx="335" cy="672.6602" fill="#84BE84" rx="3" ry="3" style="stroke: #038048; stroke-width: 1.0;"/><text fill="#000000" font-family="sans-serif" font-size="11" lengthAdjust="spacingAndGlyphs" textLength="90" x="344" y="674.9683">huberGradient()</text><!--class innerProductGradient--><rect fill="#FEFECE" filter="url(#f0c2m86)" height="73.6094" style="stroke: #A80036; stroke-width: 1.5;" width="167" x="482" y="607.9531"/><ellipse cx="497" cy="623.9531" fill="#E6FFE6" rx="11" ry="11" style="stroke: #A80036; stroke-width: 1.0;"/><path d="M498.9531,624.8594 L495.3125,624.8594 L495.3125,627.25 L495.5625,627.25 C496.0156,627.25 496.1875,627.2813 496.3281,627.4063 C496.5625,627.5781 496.6875,627.8281 496.6875,628.1094 C496.6875,628.3906 496.5313,628.6875 496.2813,628.8281 C496.1406,628.9219 495.9219,628.9531 495.5625,628.9531 L493.5156,628.9531 C493.1094,628.9531 492.8906,628.9063 492.7344,628.7969 C492.5313,628.625 492.3906,628.3594 492.3906,628.1094 C492.3906,627.8125 492.5469,627.5313 492.7969,627.375 C492.9531,627.2656 493.0938,627.25 493.5156,627.25 L493.6094,627.25 L493.6094,620.7344 C493.0469,620.6875 492.7344,620.3906 492.7344,619.8906 C492.7344,619.6094 492.8906,619.3125 493.1406,619.1563 C493.2969,619.0625 493.4219,619.0469 493.8594,619.0469 L495.5625,619.0469 C496.0313,619.0469 496.1875,619.0781 496.3281,619.1875 C496.5625,619.3594 496.6875,619.625 496.6875,619.8906 C496.6875,620.1875 496.5313,620.4688 496.2813,620.625 C496.125,620.7031 495.9844,620.7344 495.5625,620.7344 L495.3125,620.7344 L495.3125,623.1563 L498.9531,623.1563 L498.9531,620.7344 L498.7031,620.7344 C498.25,620.7344 498.1094,620.7031 497.9375,620.5938 C497.7188,620.4219 497.5781,620.1719 497.5781,619.8906 C497.5781,619.6094 497.7344,619.3125 497.9844,619.1563 C498.1406,619.0625 498.2656,619.0469 498.7031,619.0469 L500.4219,619.0469 C500.875,619.0469 501.0313,619.0781 501.2031,619.1875 C501.4063,619.3594 501.5313,619.625 501.5313,619.8906 C501.5313,620.3906 501.2188,620.6875 500.6563,620.7344 L500.6563,627.25 L500.75,627.25 C501.2188,627.25 501.3594,627.2813 501.5156,627.4063 C501.7344,627.5781 501.875,627.8281 501.875,628.1094 C501.875,628.3906 501.7188,628.6875 501.4688,628.8281 C501.3281,628.9219 501.1094,628.9531 500.75,628.9531 L498.7031,628.9531 C498.2969,628.9531 498.0938,628.9063 497.9375,628.7969 C497.7188,628.625 497.5781,628.3594 497.5781,628.1094 C497.5781,627.8125 497.7344,627.5313 497.9844,627.375 C498.1406,627.2656 498.2969,627.25 498.7031,627.25 L498.9531,627.25 Z "/><text fill="#000000" font-family="sans-serif" font-size="12" lengthAdjust="spacingAndGlyphs" textLength="135" x="511" y="628.1074">innerProductGradient</text><line style="stroke: #A80036; stroke-width: 1.5;" x1="483" x2="648" y1="639.9531" y2="639.9531"/><ellipse cx="493" cy="651.8555" fill="none" rx="3" ry="3" style="stroke: #038048; stroke-width: 1.0;"/><text fill="#000000" font-family="sans-serif" font-size="11" lengthAdjust="spacingAndGlyphs" textLength="7" x="502" y="654.1636">b</text><line style="stroke: #A80036; stroke-width: 1.5;" x1="483" x2="648" y1="660.7578" y2="660.7578"/><ellipse cx="493" cy="672.6602" fill="#84BE84" rx="3" ry="3" style="stroke: #038048; stroke-width: 1.0;"/><text fill="#000000" font-family="sans-serif" font-size="11" lengthAdjust="spacingAndGlyphs" textLength="129" x="502" y="674.9683">innerProductGradient()</text><!--class innerProductGradientDiff--><rect fill="#FEFECE" filter="url(#f0c2m86)" height="73.6094" style="stroke: #A80036; stroke-width: 1.5;" width="187" x="1094" y="607.9531"/><ellipse cx="1109" cy="623.9531" fill="#E6FFE6" rx="11" ry="11" style="stroke: #A80036; stroke-width: 1.0;"/><path d="M1110.9531,624.8594 L1107.3125,624.8594 L1107.3125,627.25 L1107.5625,627.25 C1108.0156,627.25 1108.1875,627.2813 1108.3281,627.4063 C1108.5625,627.5781 1108.6875,627.8281 1108.6875,628.1094 C1108.6875,628.3906 1108.5313,628.6875 1108.2813,628.8281 C1108.1406,628.9219 1107.9219,628.9531 1107.5625,628.9531 L1105.5156,628.9531 C1105.1094,628.9531 1104.8906,628.9063 1104.7344,628.7969 C1104.5313,628.625 1104.3906,628.3594 1104.3906,628.1094 C1104.3906,627.8125 1104.5469,627.5313 1104.7969,627.375 C1104.9531,627.2656 1105.0938,627.25 1105.5156,627.25 L1105.6094,627.25 L1105.6094,620.7344 C1105.0469,620.6875 1104.7344,620.3906 1104.7344,619.8906 C1104.7344,619.6094 1104.8906,619.3125 1105.1406,619.1563 C1105.2969,619.0625 1105.4219,619.0469 1105.8594,619.0469 L1107.5625,619.0469 C1108.0313,619.0469 1108.1875,619.0781 1108.3281,619.1875 C1108.5625,619.3594 1108.6875,619.625 1108.6875,619.8906 C1108.6875,620.1875 1108.5313,620.4688 1108.2813,620.625 C1108.125,620.7031 1107.9844,620.7344 1107.5625,620.7344 L1107.3125,620.7344 L1107.3125,623.1563 L1110.9531,623.1563 L1110.9531,620.7344 L1110.7031,620.7344 C1110.25,620.7344 1110.1094,620.7031 1109.9375,620.5938 C1109.7188,620.4219 1109.5781,620.1719 1109.5781,619.8906 C1109.5781,619.6094 1109.7344,619.3125 1109.9844,619.1563 C1110.1406,619.0625 1110.2656,619.0469 1110.7031,619.0469 L1112.4219,619.0469 C1112.875,619.0469 1113.0313,619.0781 1113.2031,619.1875 C1113.4063,619.3594 1113.5313,619.625 1113.5313,619.8906 C1113.5313,620.3906 1113.2188,620.6875 1112.6563,620.7344 L1112.6563,627.25 L1112.75,627.25 C1113.2188,627.25 1113.3594,627.2813 1113.5156,627.4063 C1113.7344,627.5781 1113.875,627.8281 1113.875,628.1094 C1113.875,628.3906 1113.7188,628.6875 1113.4688,628.8281 C1113.3281,628.9219 1113.1094,628.9531 1112.75,628.9531 L1110.7031,628.9531 C1110.2969,628.9531 1110.0938,628.9063 1109.9375,628.7969 C1109.7188,628.625 1109.5781,628.3594 1109.5781,628.1094 C1109.5781,627.8125 1109.7344,627.5313 1109.9844,627.375 C1110.1406,627.2656 1110.2969,627.25 1110.7031,627.25 L1110.9531,627.25 Z "/><text fill="#000000" font-family="sans-serif" font-size="12" lengthAdjust="spacingAndGlyphs" textLength="155" x="1123" y="628.1074">innerProductGradientDiff</text><line style="stroke: #A80036; stroke-width: 1.5;" x1="1095" x2="1280" y1="639.9531" y2="639.9531"/><ellipse cx="1105" cy="651.8555" fill="none" rx="3" ry="3" style="stroke: #038048; stroke-width: 1.0;"/><text fill="#000000" font-family="sans-serif" font-size="11" lengthAdjust="spacingAndGlyphs" textLength="7" x="1114" y="654.1636">b</text><line style="stroke: #A80036; stroke-width: 1.5;" x1="1095" x2="1280" y1="660.7578" y2="660.7578"/><ellipse cx="1105" cy="672.6602" fill="#84BE84" rx="3" ry="3" style="stroke: #038048; stroke-width: 1.0;"/><text fill="#000000" font-family="sans-serif" font-size="11" lengthAdjust="spacingAndGlyphs" textLength="148" x="1114" y="674.9683">innerProductGradientDiff()</text><!--class L1gradientAniso--><rect fill="#FEFECE" filter="url(#f0c2m86)" height="60.8047" style="stroke: #A80036; stroke-width: 1.5;" width="133" x="926" y="614.4531"/><ellipse cx="941" cy="630.4531" fill="#E6FFE6" rx="11" ry="11" style="stroke: #A80036; stroke-width: 1.0;"/><path d="M942.9531,631.3594 L939.3125,631.3594 L939.3125,633.75 L939.5625,633.75 C940.0156,633.75 940.1875,633.7813 940.3281,633.9063 C940.5625,634.0781 940.6875,634.3281 940.6875,634.6094 C940.6875,634.8906 940.5313,635.1875 940.2813,635.3281 C940.1406,635.4219 939.9219,635.4531 939.5625,635.4531 L937.5156,635.4531 C937.1094,635.4531 936.8906,635.4063 936.7344,635.2969 C936.5313,635.125 936.3906,634.8594 936.3906,634.6094 C936.3906,634.3125 936.5469,634.0313 936.7969,633.875 C936.9531,633.7656 937.0938,633.75 937.5156,633.75 L937.6094,633.75 L937.6094,627.2344 C937.0469,627.1875 936.7344,626.8906 936.7344,626.3906 C936.7344,626.1094 936.8906,625.8125 937.1406,625.6563 C937.2969,625.5625 937.4219,625.5469 937.8594,625.5469 L939.5625,625.5469 C940.0313,625.5469 940.1875,625.5781 940.3281,625.6875 C940.5625,625.8594 940.6875,626.125 940.6875,626.3906 C940.6875,626.6875 940.5313,626.9688 940.2813,627.125 C940.125,627.2031 939.9844,627.2344 939.5625,627.2344 L939.3125,627.2344 L939.3125,629.6563 L942.9531,629.6563 L942.9531,627.2344 L942.7031,627.2344 C942.25,627.2344 942.1094,627.2031 941.9375,627.0938 C941.7188,626.9219 941.5781,626.6719 941.5781,626.3906 C941.5781,626.1094 941.7344,625.8125 941.9844,625.6563 C942.1406,625.5625 942.2656,625.5469 942.7031,625.5469 L944.4219,625.5469 C944.875,625.5469 945.0313,625.5781 945.2031,625.6875 C945.4063,625.8594 945.5313,626.125 945.5313,626.3906 C945.5313,626.8906 945.2188,627.1875 944.6563,627.2344 L944.6563,633.75 L944.75,633.75 C945.2188,633.75 945.3594,633.7813 945.5156,633.9063 C945.7344,634.0781 945.875,634.3281 945.875,634.6094 C945.875,634.8906 945.7188,635.1875 945.4688,635.3281 C945.3281,635.4219 945.1094,635.4531 944.75,635.4531 L942.7031,635.4531 C942.2969,635.4531 942.0938,635.4063 941.9375,635.2969 C941.7188,635.125 941.5781,634.8594 941.5781,634.6094 C941.5781,634.3125 941.7344,634.0313 941.9844,633.875 C942.1406,633.7656 942.2969,633.75 942.7031,633.75 L942.9531,633.75 Z "/><text fill="#000000" font-family="sans-serif" font-size="12" lengthAdjust="spacingAndGlyphs" textLength="101" x="955" y="634.6074">L1gradientAniso</text><line style="stroke: #A80036; stroke-width: 1.5;" x1="927" x2="1058" y1="646.4531" y2="646.4531"/><line style="stroke: #A80036; stroke-width: 1.5;" x1="927" x2="1058" y1="654.4531" y2="654.4531"/><ellipse cx="937" cy="666.3555" fill="#84BE84" rx="3" ry="3" style="stroke: #038048; stroke-width: 1.0;"/><text fill="#000000" font-family="sans-serif" font-size="11" lengthAdjust="spacingAndGlyphs" textLength="99" x="946" y="668.6636">L1gradientAniso()</text><!--class L1gradientDiffAniso--><rect fill="#FEFECE" filter="url(#f0c2m86)" height="60.8047" style="stroke: #A80036; stroke-width: 1.5;" width="153" x="1622" y="614.4531"/><ellipse cx="1637" cy="630.4531" fill="#E6FFE6" rx="11" ry="11" style="stroke: #A80036; stroke-width: 1.0;"/><path d="M1638.9531,631.3594 L1635.3125,631.3594 L1635.3125,633.75 L1635.5625,633.75 C1636.0156,633.75 1636.1875,633.7813 1636.3281,633.9063 C1636.5625,634.0781 1636.6875,634.3281 1636.6875,634.6094 C1636.6875,634.8906 1636.5313,635.1875 1636.2813,635.3281 C1636.1406,635.4219 1635.9219,635.4531 1635.5625,635.4531 L1633.5156,635.4531 C1633.1094,635.4531 1632.8906,635.4063 1632.7344,635.2969 C1632.5313,635.125 1632.3906,634.8594 1632.3906,634.6094 C1632.3906,634.3125 1632.5469,634.0313 1632.7969,633.875 C1632.9531,633.7656 1633.0938,633.75 1633.5156,633.75 L1633.6094,633.75 L1633.6094,627.2344 C1633.0469,627.1875 1632.7344,626.8906 1632.7344,626.3906 C1632.7344,626.1094 1632.8906,625.8125 1633.1406,625.6563 C1633.2969,625.5625 1633.4219,625.5469 1633.8594,625.5469 L1635.5625,625.5469 C1636.0313,625.5469 1636.1875,625.5781 1636.3281,625.6875 C1636.5625,625.8594 1636.6875,626.125 1636.6875,626.3906 C1636.6875,626.6875 1636.5313,626.9688 1636.2813,627.125 C1636.125,627.2031 1635.9844,627.2344 1635.5625,627.2344 L1635.3125,627.2344 L1635.3125,629.6563 L1638.9531,629.6563 L1638.9531,627.2344 L1638.7031,627.2344 C1638.25,627.2344 1638.1094,627.2031 1637.9375,627.0938 C1637.7188,626.9219 1637.5781,626.6719 1637.5781,626.3906 C1637.5781,626.1094 1637.7344,625.8125 1637.9844,625.6563 C1638.1406,625.5625 1638.2656,625.5469 1638.7031,625.5469 L1640.4219,625.5469 C1640.875,625.5469 1641.0313,625.5781 1641.2031,625.6875 C1641.4063,625.8594 1641.5313,626.125 1641.5313,626.3906 C1641.5313,626.8906 1641.2188,627.1875 1640.6563,627.2344 L1640.6563,633.75 L1640.75,633.75 C1641.2188,633.75 1641.3594,633.7813 1641.5156,633.9063 C1641.7344,634.0781 1641.875,634.3281 1641.875,634.6094 C1641.875,634.8906 1641.7188,635.1875 1641.4688,635.3281 C1641.3281,635.4219 1641.1094,635.4531 1640.75,635.4531 L1638.7031,635.4531 C1638.2969,635.4531 1638.0938,635.4063 1637.9375,635.2969 C1637.7188,635.125 1637.5781,634.8594 1637.5781,634.6094 C1637.5781,634.3125 1637.7344,634.0313 1637.9844,633.875 C1638.1406,633.7656 1638.2969,633.75 1638.7031,633.75 L1638.9531,633.75 Z "/><text fill="#000000" font-family="sans-serif" font-size="12" lengthAdjust="spacingAndGlyphs" textLength="121" x="1651" y="634.6074">L1gradientDiffAniso</text><line style="stroke: #A80036; stroke-width: 1.5;" x1="1623" x2="1774" y1="646.4531" y2="646.4531"/><line style="stroke: #A80036; stroke-width: 1.5;" x1="1623" x2="1774" y1="654.4531" y2="654.4531"/><ellipse cx="1633" cy="666.3555" fill="#84BE84" rx="3" ry="3" style="stroke: #038048; stroke-width: 1.0;"/><text fill="#000000" font-family="sans-serif" font-size="11" lengthAdjust="spacingAndGlyphs" textLength="118" x="1642" y="668.6636">L1gradientDiffAniso()</text><!--class L1gradientDiffIso--><rect fill="#FEFECE" filter="url(#f0c2m86)" height="60.8047" style="stroke: #A80036; stroke-width: 1.5;" width="137" x="1962" y="614.4531"/><ellipse cx="1977" cy="630.4531" fill="#E6FFE6" rx="11" ry="11" style="stroke: #A80036; stroke-width: 1.0;"/><path d="M1978.9531,631.3594 L1975.3125,631.3594 L1975.3125,633.75 L1975.5625,633.75 C1976.0156,633.75 1976.1875,633.7813 1976.3281,633.9063 C1976.5625,634.0781 1976.6875,634.3281 1976.6875,634.6094 C1976.6875,634.8906 1976.5313,635.1875 1976.2813,635.3281 C1976.1406,635.4219 1975.9219,635.4531 1975.5625,635.4531 L1973.5156,635.4531 C1973.1094,635.4531 1972.8906,635.4063 1972.7344,635.2969 C1972.5313,635.125 1972.3906,634.8594 1972.3906,634.6094 C1972.3906,634.3125 1972.5469,634.0313 1972.7969,633.875 C1972.9531,633.7656 1973.0938,633.75 1973.5156,633.75 L1973.6094,633.75 L1973.6094,627.2344 C1973.0469,627.1875 1972.7344,626.8906 1972.7344,626.3906 C1972.7344,626.1094 1972.8906,625.8125 1973.1406,625.6563 C1973.2969,625.5625 1973.4219,625.5469 1973.8594,625.5469 L1975.5625,625.5469 C1976.0313,625.5469 1976.1875,625.5781 1976.3281,625.6875 C1976.5625,625.8594 1976.6875,626.125 1976.6875,626.3906 C1976.6875,626.6875 1976.5313,626.9688 1976.2813,627.125 C1976.125,627.2031 1975.9844,627.2344 1975.5625,627.2344 L1975.3125,627.2344 L1975.3125,629.6563 L1978.9531,629.6563 L1978.9531,627.2344 L1978.7031,627.2344 C1978.25,627.2344 1978.1094,627.2031 1977.9375,627.0938 C1977.7188,626.9219 1977.5781,626.6719 1977.5781,626.3906 C1977.5781,626.1094 1977.7344,625.8125 1977.9844,625.6563 C1978.1406,625.5625 1978.2656,625.5469 1978.7031,625.5469 L1980.4219,625.5469 C1980.875,625.5469 1981.0313,625.5781 1981.2031,625.6875 C1981.4063,625.8594 1981.5313,626.125 1981.5313,626.3906 C1981.5313,626.8906 1981.2188,627.1875 1980.6563,627.2344 L1980.6563,633.75 L1980.75,633.75 C1981.2188,633.75 1981.3594,633.7813 1981.5156,633.9063 C1981.7344,634.0781 1981.875,634.3281 1981.875,634.6094 C1981.875,634.8906 1981.7188,635.1875 1981.4688,635.3281 C1981.3281,635.4219 1981.1094,635.4531 1980.75,635.4531 L1978.7031,635.4531 C1978.2969,635.4531 1978.0938,635.4063 1977.9375,635.2969 C1977.7188,635.125 1977.5781,634.8594 1977.5781,634.6094 C1977.5781,634.3125 1977.7344,634.0313 1977.9844,633.875 C1978.1406,633.7656 1978.2969,633.75 1978.7031,633.75 L1978.9531,633.75 Z "/><text fill="#000000" font-family="sans-serif" font-size="12" lengthAdjust="spacingAndGlyphs" textLength="105" x="1991" y="634.6074">L1gradientDiffIso</text><line style="stroke: #A80036; stroke-width: 1.5;" x1="1963" x2="2098" y1="646.4531" y2="646.4531"/><line style="stroke: #A80036; stroke-width: 1.5;" x1="1963" x2="2098" y1="654.4531" y2="654.4531"/><ellipse cx="1973" cy="666.3555" fill="#84BE84" rx="3" ry="3" style="stroke: #038048; stroke-width: 1.0;"/><text fill="#000000" font-family="sans-serif" font-size="11" lengthAdjust="spacingAndGlyphs" textLength="104" x="1982" y="668.6636">L1gradientDiffIso()</text><!--class L1gradientIso--><rect fill="#FEFECE" filter="url(#f0c2m86)" height="60.8047" style="stroke: #A80036; stroke-width: 1.5;" width="117" x="1810" y="614.4531"/><ellipse cx="1825" cy="630.4531" fill="#E6FFE6" rx="11" ry="11" style="stroke: #A80036; stroke-width: 1.0;"/><path d="M1826.9531,631.3594 L1823.3125,631.3594 L1823.3125,633.75 L1823.5625,633.75 C1824.0156,633.75 1824.1875,633.7813 1824.3281,633.9063 C1824.5625,634.0781 1824.6875,634.3281 1824.6875,634.6094 C1824.6875,634.8906 1824.5313,635.1875 1824.2813,635.3281 C1824.1406,635.4219 1823.9219,635.4531 1823.5625,635.4531 L1821.5156,635.4531 C1821.1094,635.4531 1820.8906,635.4063 1820.7344,635.2969 C1820.5313,635.125 1820.3906,634.8594 1820.3906,634.6094 C1820.3906,634.3125 1820.5469,634.0313 1820.7969,633.875 C1820.9531,633.7656 1821.0938,633.75 1821.5156,633.75 L1821.6094,633.75 L1821.6094,627.2344 C1821.0469,627.1875 1820.7344,626.8906 1820.7344,626.3906 C1820.7344,626.1094 1820.8906,625.8125 1821.1406,625.6563 C1821.2969,625.5625 1821.4219,625.5469 1821.8594,625.5469 L1823.5625,625.5469 C1824.0313,625.5469 1824.1875,625.5781 1824.3281,625.6875 C1824.5625,625.8594 1824.6875,626.125 1824.6875,626.3906 C1824.6875,626.6875 1824.5313,626.9688 1824.2813,627.125 C1824.125,627.2031 1823.9844,627.2344 1823.5625,627.2344 L1823.3125,627.2344 L1823.3125,629.6563 L1826.9531,629.6563 L1826.9531,627.2344 L1826.7031,627.2344 C1826.25,627.2344 1826.1094,627.2031 1825.9375,627.0938 C1825.7188,626.9219 1825.5781,626.6719 1825.5781,626.3906 C1825.5781,626.1094 1825.7344,625.8125 1825.9844,625.6563 C1826.1406,625.5625 1826.2656,625.5469 1826.7031,625.5469 L1828.4219,625.5469 C1828.875,625.5469 1829.0313,625.5781 1829.2031,625.6875 C1829.4063,625.8594 1829.5313,626.125 1829.5313,626.3906 C1829.5313,626.8906 1829.2188,627.1875 1828.6563,627.2344 L1828.6563,633.75 L1828.75,633.75 C1829.2188,633.75 1829.3594,633.7813 1829.5156,633.9063 C1829.7344,634.0781 1829.875,634.3281 1829.875,634.6094 C1829.875,634.8906 1829.7188,635.1875 1829.4688,635.3281 C1829.3281,635.4219 1829.1094,635.4531 1828.75,635.4531 L1826.7031,635.4531 C1826.2969,635.4531 1826.0938,635.4063 1825.9375,635.2969 C1825.7188,635.125 1825.5781,634.8594 1825.5781,634.6094 C1825.5781,634.3125 1825.7344,634.0313 1825.9844,633.875 C1826.1406,633.7656 1826.2969,633.75 1826.7031,633.75 L1826.9531,633.75 Z "/><text fill="#000000" font-family="sans-serif" font-size="12" lengthAdjust="spacingAndGlyphs" textLength="85" x="1839" y="634.6074">L1gradientIso</text><line style="stroke: #A80036; stroke-width: 1.5;" x1="1811" x2="1926" y1="646.4531" y2="646.4531"/><line style="stroke: #A80036; stroke-width: 1.5;" x1="1811" x2="1926" y1="654.4531" y2="654.4531"/><ellipse cx="1821" cy="666.3555" fill="#84BE84" rx="3" ry="3" style="stroke: #038048; stroke-width: 1.0;"/><text fill="#000000" font-family="sans-serif" font-size="11" lengthAdjust="spacingAndGlyphs" textLength="85" x="1830" y="668.6636">L1gradientIso()</text><!--class L1plusInnerProductGradient--><rect fill="#FEFECE" filter="url(#f0c2m86)" height="86.4141" style="stroke: #A80036; stroke-width: 1.5;" width="207" x="684" y="601.9531"/><ellipse cx="699" cy="617.9531" fill="#E6FFE6" rx="11" ry="11" style="stroke: #A80036; stroke-width: 1.0;"/><path d="M700.9531,618.8594 L697.3125,618.8594 L697.3125,621.25 L697.5625,621.25 C698.0156,621.25 698.1875,621.2813 698.3281,621.4063 C698.5625,621.5781 698.6875,621.8281 698.6875,622.1094 C698.6875,622.3906 698.5313,622.6875 698.2813,622.8281 C698.1406,622.9219 697.9219,622.9531 697.5625,622.9531 L695.5156,622.9531 C695.1094,622.9531 694.8906,622.9063 694.7344,622.7969 C694.5313,622.625 694.3906,622.3594 694.3906,622.1094 C694.3906,621.8125 694.5469,621.5313 694.7969,621.375 C694.9531,621.2656 695.0938,621.25 695.5156,621.25 L695.6094,621.25 L695.6094,614.7344 C695.0469,614.6875 694.7344,614.3906 694.7344,613.8906 C694.7344,613.6094 694.8906,613.3125 695.1406,613.1563 C695.2969,613.0625 695.4219,613.0469 695.8594,613.0469 L697.5625,613.0469 C698.0313,613.0469 698.1875,613.0781 698.3281,613.1875 C698.5625,613.3594 698.6875,613.625 698.6875,613.8906 C698.6875,614.1875 698.5313,614.4688 698.2813,614.625 C698.125,614.7031 697.9844,614.7344 697.5625,614.7344 L697.3125,614.7344 L697.3125,617.1563 L700.9531,617.1563 L700.9531,614.7344 L700.7031,614.7344 C700.25,614.7344 700.1094,614.7031 699.9375,614.5938 C699.7188,614.4219 699.5781,614.1719 699.5781,613.8906 C699.5781,613.6094 699.7344,613.3125 699.9844,613.1563 C700.1406,613.0625 700.2656,613.0469 700.7031,613.0469 L702.4219,613.0469 C702.875,613.0469 703.0313,613.0781 703.2031,613.1875 C703.4063,613.3594 703.5313,613.625 703.5313,613.8906 C703.5313,614.3906 703.2188,614.6875 702.6563,614.7344 L702.6563,621.25 L702.75,621.25 C703.2188,621.25 703.3594,621.2813 703.5156,621.4063 C703.7344,621.5781 703.875,621.8281 703.875,622.1094 C703.875,622.3906 703.7188,622.6875 703.4688,622.8281 C703.3281,622.9219 703.1094,622.9531 702.75,622.9531 L700.7031,622.9531 C700.2969,622.9531 700.0938,622.9063 699.9375,622.7969 C699.7188,622.625 699.5781,622.3594 699.5781,622.1094 C699.5781,621.8125 699.7344,621.5313 699.9844,621.375 C700.1406,621.2656 700.2969,621.25 700.7031,621.25 L700.9531,621.25 Z "/><text fill="#000000" font-family="sans-serif" font-size="12" lengthAdjust="spacingAndGlyphs" textLength="175" x="713" y="622.1074">L1plusInnerProductGradient</text><line style="stroke: #A80036; stroke-width: 1.5;" x1="685" x2="890" y1="633.9531" y2="633.9531"/><ellipse cx="695" cy="645.8555" fill="none" rx="3" ry="3" style="stroke: #038048; stroke-width: 1.0;"/><text fill="#000000" font-family="sans-serif" font-size="11" lengthAdjust="spacingAndGlyphs" textLength="7" x="704" y="648.1636">b</text><ellipse cx="695" cy="658.6602" fill="none" rx="3" ry="3" style="stroke: #038048; stroke-width: 1.0;"/><text fill="#000000" font-family="sans-serif" font-size="11" lengthAdjust="spacingAndGlyphs" textLength="5" x="704" y="660.9683">r</text><line style="stroke: #A80036; stroke-width: 1.5;" x1="685" x2="890" y1="667.5625" y2="667.5625"/><ellipse cx="695" cy="679.4648" fill="#84BE84" rx="3" ry="3" style="stroke: #038048; stroke-width: 1.0;"/><text fill="#000000" font-family="sans-serif" font-size="11" lengthAdjust="spacingAndGlyphs" textLength="166" x="704" y="681.7729">L1plusInnerProductGradient()</text><!--class L1plusInnerProductGradientDifference--><rect fill="#FEFECE" filter="url(#f0c2m86)" height="86.4141" style="stroke: #A80036; stroke-width: 1.5;" width="271" x="1316" y="601.9531"/><ellipse cx="1331" cy="617.9531" fill="#E6FFE6" rx="11" ry="11" style="stroke: #A80036; stroke-width: 1.0;"/><path d="M1332.9531,618.8594 L1329.3125,618.8594 L1329.3125,621.25 L1329.5625,621.25 C1330.0156,621.25 1330.1875,621.2813 1330.3281,621.4063 C1330.5625,621.5781 1330.6875,621.8281 1330.6875,622.1094 C1330.6875,622.3906 1330.5313,622.6875 1330.2813,622.8281 C1330.1406,622.9219 1329.9219,622.9531 1329.5625,622.9531 L1327.5156,622.9531 C1327.1094,622.9531 1326.8906,622.9063 1326.7344,622.7969 C1326.5313,622.625 1326.3906,622.3594 1326.3906,622.1094 C1326.3906,621.8125 1326.5469,621.5313 1326.7969,621.375 C1326.9531,621.2656 1327.0938,621.25 1327.5156,621.25 L1327.6094,621.25 L1327.6094,614.7344 C1327.0469,614.6875 1326.7344,614.3906 1326.7344,613.8906 C1326.7344,613.6094 1326.8906,613.3125 1327.1406,613.1563 C1327.2969,613.0625 1327.4219,613.0469 1327.8594,613.0469 L1329.5625,613.0469 C1330.0313,613.0469 1330.1875,613.0781 1330.3281,613.1875 C1330.5625,613.3594 1330.6875,613.625 1330.6875,613.8906 C1330.6875,614.1875 1330.5313,614.4688 1330.2813,614.625 C1330.125,614.7031 1329.9844,614.7344 1329.5625,614.7344 L1329.3125,614.7344 L1329.3125,617.1563 L1332.9531,617.1563 L1332.9531,614.7344 L1332.7031,614.7344 C1332.25,614.7344 1332.1094,614.7031 1331.9375,614.5938 C1331.7188,614.4219 1331.5781,614.1719 1331.5781,613.8906 C1331.5781,613.6094 1331.7344,613.3125 1331.9844,613.1563 C1332.1406,613.0625 1332.2656,613.0469 1332.7031,613.0469 L1334.4219,613.0469 C1334.875,613.0469 1335.0313,613.0781 1335.2031,613.1875 C1335.4063,613.3594 1335.5313,613.625 1335.5313,613.8906 C1335.5313,614.3906 1335.2188,614.6875 1334.6563,614.7344 L1334.6563,621.25 L1334.75,621.25 C1335.2188,621.25 1335.3594,621.2813 1335.5156,621.4063 C1335.7344,621.5781 1335.875,621.8281 1335.875,622.1094 C1335.875,622.3906 1335.7188,622.6875 1335.4688,622.8281 C1335.3281,622.9219 1335.1094,622.9531 1334.75,622.9531 L1332.7031,622.9531 C1332.2969,622.9531 1332.0938,622.9063 1331.9375,622.7969 C1331.7188,622.625 1331.5781,622.3594 1331.5781,622.1094 C1331.5781,621.8125 1331.7344,621.5313 1331.9844,621.375 C1332.1406,621.2656 1332.2969,621.25 1332.7031,621.25 L1332.9531,621.25 Z "/><text fill="#000000" font-family="sans-serif" font-size="12" lengthAdjust="spacingAndGlyphs" textLength="239" x="1345" y="622.1074">L1plusInnerProductGradientDifference</text><line style="stroke: #A80036; stroke-width: 1.5;" x1="1317" x2="1586" y1="633.9531" y2="633.9531"/><ellipse cx="1327" cy="645.8555" fill="none" rx="3" ry="3" style="stroke: #038048; stroke-width: 1.0;"/><text fill="#000000" font-family="sans-serif" font-size="11" lengthAdjust="spacingAndGlyphs" textLength="7" x="1336" y="648.1636">b</text><ellipse cx="1327" cy="658.6602" fill="none" rx="3" ry="3" style="stroke: #038048; stroke-width: 1.0;"/><text fill="#000000" font-family="sans-serif" font-size="11" lengthAdjust="spacingAndGlyphs" textLength="5" x="1336" y="660.9683">r</text><line style="stroke: #A80036; stroke-width: 1.5;" x1="1317" x2="1586" y1="667.5625" y2="667.5625"/><ellipse cx="1327" cy="679.4648" fill="#84BE84" rx="3" ry="3" style="stroke: #038048; stroke-width: 1.0;"/><text fill="#000000" font-family="sans-serif" font-size="11" lengthAdjust="spacingAndGlyphs" textLength="224" x="1336" y="681.7729">L1plusInnerProductGradientDifference()</text><!--class L1secondOrderGradientAniso--><rect fill="#FEFECE" filter="url(#f0c2m86)" height="60.8047" style="stroke: #A80036; stroke-width: 1.5;" width="215" x="2134" y="614.4531"/><ellipse cx="2149" cy="630.4531" fill="#E6FFE6" rx="11" ry="11" style="stroke: #A80036; stroke-width: 1.0;"/><path d="M2150.9531,631.3594 L2147.3125,631.3594 L2147.3125,633.75 L2147.5625,633.75 C2148.0156,633.75 2148.1875,633.7813 2148.3281,633.9063 C2148.5625,634.0781 2148.6875,634.3281 2148.6875,634.6094 C2148.6875,634.8906 2148.5313,635.1875 2148.2813,635.3281 C2148.1406,635.4219 2147.9219,635.4531 2147.5625,635.4531 L2145.5156,635.4531 C2145.1094,635.4531 2144.8906,635.4063 2144.7344,635.2969 C2144.5313,635.125 2144.3906,634.8594 2144.3906,634.6094 C2144.3906,634.3125 2144.5469,634.0313 2144.7969,633.875 C2144.9531,633.7656 2145.0938,633.75 2145.5156,633.75 L2145.6094,633.75 L2145.6094,627.2344 C2145.0469,627.1875 2144.7344,626.8906 2144.7344,626.3906 C2144.7344,626.1094 2144.8906,625.8125 2145.1406,625.6563 C2145.2969,625.5625 2145.4219,625.5469 2145.8594,625.5469 L2147.5625,625.5469 C2148.0313,625.5469 2148.1875,625.5781 2148.3281,625.6875 C2148.5625,625.8594 2148.6875,626.125 2148.6875,626.3906 C2148.6875,626.6875 2148.5313,626.9688 2148.2813,627.125 C2148.125,627.2031 2147.9844,627.2344 2147.5625,627.2344 L2147.3125,627.2344 L2147.3125,629.6563 L2150.9531,629.6563 L2150.9531,627.2344 L2150.7031,627.2344 C2150.25,627.2344 2150.1094,627.2031 2149.9375,627.0938 C2149.7188,626.9219 2149.5781,626.6719 2149.5781,626.3906 C2149.5781,626.1094 2149.7344,625.8125 2149.9844,625.6563 C2150.1406,625.5625 2150.2656,625.5469 2150.7031,625.5469 L2152.4219,625.5469 C2152.875,625.5469 2153.0313,625.5781 2153.2031,625.6875 C2153.4063,625.8594 2153.5313,626.125 2153.5313,626.3906 C2153.5313,626.8906 2153.2188,627.1875 2152.6563,627.2344 L2152.6563,633.75 L2152.75,633.75 C2153.2188,633.75 2153.3594,633.7813 2153.5156,633.9063 C2153.7344,634.0781 2153.875,634.3281 2153.875,634.6094 C2153.875,634.8906 2153.7188,635.1875 2153.4688,635.3281 C2153.3281,635.4219 2153.1094,635.4531 2152.75,635.4531 L2150.7031,635.4531 C2150.2969,635.4531 2150.0938,635.4063 2149.9375,635.2969 C2149.7188,635.125 2149.5781,634.8594 2149.5781,634.6094 C2149.5781,634.3125 2149.7344,634.0313 2149.9844,633.875 C2150.1406,633.7656 2150.2969,633.75 2150.7031,633.75 L2150.9531,633.75 Z "/><text fill="#000000" font-family="sans-serif" font-size="12" lengthAdjust="spacingAndGlyphs" textLength="183" x="2163" y="634.6074">L1secondOrderGradientAniso</text><line style="stroke: #A80036; stroke-width: 1.5;" x1="2135" x2="2348" y1="646.4531" y2="646.4531"/><line style="stroke: #A80036; stroke-width: 1.5;" x1="2135" x2="2348" y1="654.4531" y2="654.4531"/><ellipse cx="2145" cy="666.3555" fill="#84BE84" rx="3" ry="3" style="stroke: #038048; stroke-width: 1.0;"/><text fill="#000000" font-family="sans-serif" font-size="11" lengthAdjust="spacingAndGlyphs" textLength="175" x="2154" y="668.6636">L1secondOrderGradientAniso()</text><!--class L1secondOrderGradientIso--><rect fill="#FEFECE" filter="url(#f0c2m86)" height="60.8047" style="stroke: #A80036; stroke-width: 1.5;" width="199" x="2384" y="614.4531"/><ellipse cx="2399" cy="630.4531" fill="#E6FFE6" rx="11" ry="11" style="stroke: #A80036; stroke-width: 1.0;"/><path d="M2400.9531,631.3594 L2397.3125,631.3594 L2397.3125,633.75 L2397.5625,633.75 C2398.0156,633.75 2398.1875,633.7813 2398.3281,633.9063 C2398.5625,634.0781 2398.6875,634.3281 2398.6875,634.6094 C2398.6875,634.8906 2398.5313,635.1875 2398.2813,635.3281 C2398.1406,635.4219 2397.9219,635.4531 2397.5625,635.4531 L2395.5156,635.4531 C2395.1094,635.4531 2394.8906,635.4063 2394.7344,635.2969 C2394.5313,635.125 2394.3906,634.8594 2394.3906,634.6094 C2394.3906,634.3125 2394.5469,634.0313 2394.7969,633.875 C2394.9531,633.7656 2395.0938,633.75 2395.5156,633.75 L2395.6094,633.75 L2395.6094,627.2344 C2395.0469,627.1875 2394.7344,626.8906 2394.7344,626.3906 C2394.7344,626.1094 2394.8906,625.8125 2395.1406,625.6563 C2395.2969,625.5625 2395.4219,625.5469 2395.8594,625.5469 L2397.5625,625.5469 C2398.0313,625.5469 2398.1875,625.5781 2398.3281,625.6875 C2398.5625,625.8594 2398.6875,626.125 2398.6875,626.3906 C2398.6875,626.6875 2398.5313,626.9688 2398.2813,627.125 C2398.125,627.2031 2397.9844,627.2344 2397.5625,627.2344 L2397.3125,627.2344 L2397.3125,629.6563 L2400.9531,629.6563 L2400.9531,627.2344 L2400.7031,627.2344 C2400.25,627.2344 2400.1094,627.2031 2399.9375,627.0938 C2399.7188,626.9219 2399.5781,626.6719 2399.5781,626.3906 C2399.5781,626.1094 2399.7344,625.8125 2399.9844,625.6563 C2400.1406,625.5625 2400.2656,625.5469 2400.7031,625.5469 L2402.4219,625.5469 C2402.875,625.5469 2403.0313,625.5781 2403.2031,625.6875 C2403.4063,625.8594 2403.5313,626.125 2403.5313,626.3906 C2403.5313,626.8906 2403.2188,627.1875 2402.6563,627.2344 L2402.6563,633.75 L2402.75,633.75 C2403.2188,633.75 2403.3594,633.7813 2403.5156,633.9063 C2403.7344,634.0781 2403.875,634.3281 2403.875,634.6094 C2403.875,634.8906 2403.7188,635.1875 2403.4688,635.3281 C2403.3281,635.4219 2403.1094,635.4531 2402.75,635.4531 L2400.7031,635.4531 C2400.2969,635.4531 2400.0938,635.4063 2399.9375,635.2969 C2399.7188,635.125 2399.5781,634.8594 2399.5781,634.6094 C2399.5781,634.3125 2399.7344,634.0313 2399.9844,633.875 C2400.1406,633.7656 2400.2969,633.75 2400.7031,633.75 L2400.9531,633.75 Z "/><text fill="#000000" font-family="sans-serif" font-size="12" lengthAdjust="spacingAndGlyphs" textLength="167" x="2413" y="634.6074">L1secondOrderGradientIso</text><line style="stroke: #A80036; stroke-width: 1.5;" x1="2385" x2="2582" y1="646.4531" y2="646.4531"/><line style="stroke: #A80036; stroke-width: 1.5;" x1="2385" x2="2582" y1="654.4531" y2="654.4531"/><ellipse cx="2395" cy="666.3555" fill="#84BE84" rx="3" ry="3" style="stroke: #038048; stroke-width: 1.0;"/><text fill="#000000" font-family="sans-serif" font-size="11" lengthAdjust="spacingAndGlyphs" textLength="161" x="2404" y="668.6636">L1secondOrderGradientIso()</text><!--class L2gradient--><rect fill="#FEFECE" filter="url(#f0c2m86)" height="60.8047" style="stroke: #A80036; stroke-width: 1.5;" width="99" x="9" y="614.4531"/><ellipse cx="24" cy="630.4531" fill="#E6FFE6" rx="11" ry="11" style="stroke: #A80036; stroke-width: 1.0;"/><path d="M25.9531,631.3594 L22.3125,631.3594 L22.3125,633.75 L22.5625,633.75 C23.0156,633.75 23.1875,633.7813 23.3281,633.9063 C23.5625,634.0781 23.6875,634.3281 23.6875,634.6094 C23.6875,634.8906 23.5313,635.1875 23.2813,635.3281 C23.1406,635.4219 22.9219,635.4531 22.5625,635.4531 L20.5156,635.4531 C20.1094,635.4531 19.8906,635.4063 19.7344,635.2969 C19.5313,635.125 19.3906,634.8594 19.3906,634.6094 C19.3906,634.3125 19.5469,634.0313 19.7969,633.875 C19.9531,633.7656 20.0938,633.75 20.5156,633.75 L20.6094,633.75 L20.6094,627.2344 C20.0469,627.1875 19.7344,626.8906 19.7344,626.3906 C19.7344,626.1094 19.8906,625.8125 20.1406,625.6563 C20.2969,625.5625 20.4219,625.5469 20.8594,625.5469 L22.5625,625.5469 C23.0313,625.5469 23.1875,625.5781 23.3281,625.6875 C23.5625,625.8594 23.6875,626.125 23.6875,626.3906 C23.6875,626.6875 23.5313,626.9688 23.2813,627.125 C23.125,627.2031 22.9844,627.2344 22.5625,627.2344 L22.3125,627.2344 L22.3125,629.6563 L25.9531,629.6563 L25.9531,627.2344 L25.7031,627.2344 C25.25,627.2344 25.1094,627.2031 24.9375,627.0938 C24.7188,626.9219 24.5781,626.6719 24.5781,626.3906 C24.5781,626.1094 24.7344,625.8125 24.9844,625.6563 C25.1406,625.5625 25.2656,625.5469 25.7031,625.5469 L27.4219,625.5469 C27.875,625.5469 28.0313,625.5781 28.2031,625.6875 C28.4063,625.8594 28.5313,626.125 28.5313,626.3906 C28.5313,626.8906 28.2188,627.1875 27.6563,627.2344 L27.6563,633.75 L27.75,633.75 C28.2188,633.75 28.3594,633.7813 28.5156,633.9063 C28.7344,634.0781 28.875,634.3281 28.875,634.6094 C28.875,634.8906 28.7188,635.1875 28.4688,635.3281 C28.3281,635.4219 28.1094,635.4531 27.75,635.4531 L25.7031,635.4531 C25.2969,635.4531 25.0938,635.4063 24.9375,635.2969 C24.7188,635.125 24.5781,634.8594 24.5781,634.6094 C24.5781,634.3125 24.7344,634.0313 24.9844,633.875 C25.1406,633.7656 25.2969,633.75 25.7031,633.75 L25.9531,633.75 Z "/><text fill="#000000" font-family="sans-serif" font-size="12" lengthAdjust="spacingAndGlyphs" textLength="67" x="38" y="634.6074">L2gradient</text><line style="stroke: #A80036; stroke-width: 1.5;" x1="10" x2="107" y1="646.4531" y2="646.4531"/><line style="stroke: #A80036; stroke-width: 1.5;" x1="10" x2="107" y1="654.4531" y2="654.4531"/><ellipse cx="20" cy="666.3555" fill="#84BE84" rx="3" ry="3" style="stroke: #038048; stroke-width: 1.0;"/><text fill="#000000" font-family="sans-serif" font-size="11" lengthAdjust="spacingAndGlyphs" textLength="68" x="29" y="668.6636">L2gradient()</text><!--class tildeMultiOperatorMultiDual--><rect fill="#FEFECE" filter="url(#f0c2m86)" height="99.2188" style="stroke: #A80036; stroke-width: 1.5;" width="201" x="1287" y="162.4531"/><ellipse cx="1302" cy="178.4531" fill="#E6FFE6" rx="11" ry="11" style="stroke: #A80036; stroke-width: 1.0;"/><path d="M1303.9531,179.3594 L1300.3125,179.3594 L1300.3125,181.75 L1300.5625,181.75 C1301.0156,181.75 1301.1875,181.7813 1301.3281,181.9063 C1301.5625,182.0781 1301.6875,182.3281 1301.6875,182.6094 C1301.6875,182.8906 1301.5313,183.1875 1301.2813,183.3281 C1301.1406,183.4219 1300.9219,183.4531 1300.5625,183.4531 L1298.5156,183.4531 C1298.1094,183.4531 1297.8906,183.4063 1297.7344,183.2969 C1297.5313,183.125 1297.3906,182.8594 1297.3906,182.6094 C1297.3906,182.3125 1297.5469,182.0313 1297.7969,181.875 C1297.9531,181.7656 1298.0938,181.75 1298.5156,181.75 L1298.6094,181.75 L1298.6094,175.2344 C1298.0469,175.1875 1297.7344,174.8906 1297.7344,174.3906 C1297.7344,174.1094 1297.8906,173.8125 1298.1406,173.6563 C1298.2969,173.5625 1298.4219,173.5469 1298.8594,173.5469 L1300.5625,173.5469 C1301.0313,173.5469 1301.1875,173.5781 1301.3281,173.6875 C1301.5625,173.8594 1301.6875,174.125 1301.6875,174.3906 C1301.6875,174.6875 1301.5313,174.9688 1301.2813,175.125 C1301.125,175.2031 1300.9844,175.2344 1300.5625,175.2344 L1300.3125,175.2344 L1300.3125,177.6563 L1303.9531,177.6563 L1303.9531,175.2344 L1303.7031,175.2344 C1303.25,175.2344 1303.1094,175.2031 1302.9375,175.0938 C1302.7188,174.9219 1302.5781,174.6719 1302.5781,174.3906 C1302.5781,174.1094 1302.7344,173.8125 1302.9844,173.6563 C1303.1406,173.5625 1303.2656,173.5469 1303.7031,173.5469 L1305.4219,173.5469 C1305.875,173.5469 1306.0313,173.5781 1306.2031,173.6875 C1306.4063,173.8594 1306.5313,174.125 1306.5313,174.3906 C1306.5313,174.8906 1306.2188,175.1875 1305.6563,175.2344 L1305.6563,181.75 L1305.75,181.75 C1306.2188,181.75 1306.3594,181.7813 1306.5156,181.9063 C1306.7344,182.0781 1306.875,182.3281 1306.875,182.6094 C1306.875,182.8906 1306.7188,183.1875 1306.4688,183.3281 C1306.3281,183.4219 1306.1094,183.4531 1305.75,183.4531 L1303.7031,183.4531 C1303.2969,183.4531 1303.0938,183.4063 1302.9375,183.2969 C1302.7188,183.125 1302.5781,182.8594 1302.5781,182.6094 C1302.5781,182.3125 1302.7344,182.0313 1302.9844,181.875 C1303.1406,181.7656 1303.2969,181.75 1303.7031,181.75 L1303.9531,181.75 Z "/><text fill="#000000" font-family="sans-serif" font-size="12" lengthAdjust="spacingAndGlyphs" textLength="169" x="1316" y="182.6074">tildeMultiOperatorMultiDual</text><line style="stroke: #A80036; stroke-width: 1.5;" x1="1288" x2="1487" y1="194.4531" y2="194.4531"/><line style="stroke: #A80036; stroke-width: 1.5;" x1="1288" x2="1487" y1="202.4531" y2="202.4531"/><ellipse cx="1298" cy="214.3555" fill="#84BE84" rx="3" ry="3" style="stroke: #038048; stroke-width: 1.0;"/><text fill="#000000" font-family="sans-serif" font-size="11" lengthAdjust="spacingAndGlyphs" textLength="43" x="1307" y="216.6636">xError()</text><ellipse cx="1298" cy="227.1602" fill="#84BE84" rx="3" ry="3" style="stroke: #038048; stroke-width: 1.0;"/><text fill="#000000" font-family="sans-serif" font-size="11" lengthAdjust="spacingAndGlyphs" textLength="41" x="1307" y="229.4683">xTilde()</text><ellipse cx="1298" cy="239.9648" fill="#84BE84" rx="3" ry="3" style="stroke: #038048; stroke-width: 1.0;"/><text fill="#000000" font-family="sans-serif" font-size="11" lengthAdjust="spacingAndGlyphs" textLength="43" x="1307" y="242.2729">yError()</text><ellipse cx="1298" cy="252.7695" fill="#84BE84" rx="3" ry="3" style="stroke: #038048; stroke-width: 1.0;"/><text fill="#000000" font-family="sans-serif" font-size="11" lengthAdjust="spacingAndGlyphs" textLength="41" x="1307" y="255.0776">yTilde()</text><!--class FrobeniusProxDual--><rect fill="#FEFECE" filter="url(#f0c2m86)" height="73.6094" style="stroke: #A80036; stroke-width: 1.5;" width="149" x="142" y="467.9531"/><ellipse cx="157" cy="483.9531" fill="#E6FFE6" rx="11" ry="11" style="stroke: #A80036; stroke-width: 1.0;"/><path d="M158.9531,484.8594 L155.3125,484.8594 L155.3125,487.25 L155.5625,487.25 C156.0156,487.25 156.1875,487.2813 156.3281,487.4063 C156.5625,487.5781 156.6875,487.8281 156.6875,488.1094 C156.6875,488.3906 156.5313,488.6875 156.2813,488.8281 C156.1406,488.9219 155.9219,488.9531 155.5625,488.9531 L153.5156,488.9531 C153.1094,488.9531 152.8906,488.9063 152.7344,488.7969 C152.5313,488.625 152.3906,488.3594 152.3906,488.1094 C152.3906,487.8125 152.5469,487.5313 152.7969,487.375 C152.9531,487.2656 153.0938,487.25 153.5156,487.25 L153.6094,487.25 L153.6094,480.7344 C153.0469,480.6875 152.7344,480.3906 152.7344,479.8906 C152.7344,479.6094 152.8906,479.3125 153.1406,479.1563 C153.2969,479.0625 153.4219,479.0469 153.8594,479.0469 L155.5625,479.0469 C156.0313,479.0469 156.1875,479.0781 156.3281,479.1875 C156.5625,479.3594 156.6875,479.625 156.6875,479.8906 C156.6875,480.1875 156.5313,480.4688 156.2813,480.625 C156.125,480.7031 155.9844,480.7344 155.5625,480.7344 L155.3125,480.7344 L155.3125,483.1563 L158.9531,483.1563 L158.9531,480.7344 L158.7031,480.7344 C158.25,480.7344 158.1094,480.7031 157.9375,480.5938 C157.7188,480.4219 157.5781,480.1719 157.5781,479.8906 C157.5781,479.6094 157.7344,479.3125 157.9844,479.1563 C158.1406,479.0625 158.2656,479.0469 158.7031,479.0469 L160.4219,479.0469 C160.875,479.0469 161.0313,479.0781 161.2031,479.1875 C161.4063,479.3594 161.5313,479.625 161.5313,479.8906 C161.5313,480.3906 161.2188,480.6875 160.6563,480.7344 L160.6563,487.25 L160.75,487.25 C161.2188,487.25 161.3594,487.2813 161.5156,487.4063 C161.7344,487.5781 161.875,487.8281 161.875,488.1094 C161.875,488.3906 161.7188,488.6875 161.4688,488.8281 C161.3281,488.9219 161.1094,488.9531 160.75,488.9531 L158.7031,488.9531 C158.2969,488.9531 158.0938,488.9063 157.9375,488.7969 C157.7188,488.625 157.5781,488.3594 157.5781,488.1094 C157.5781,487.8125 157.7344,487.5313 157.9844,487.375 C158.1406,487.2656 158.2969,487.25 158.7031,487.25 L158.9531,487.25 Z "/><text fill="#000000" font-family="sans-serif" font-size="12" lengthAdjust="spacingAndGlyphs" textLength="117" x="171" y="488.1074">FrobeniusProxDual</text><line style="stroke: #A80036; stroke-width: 1.5;" x1="143" x2="290" y1="499.9531" y2="499.9531"/><line style="stroke: #A80036; stroke-width: 1.5;" x1="143" x2="290" y1="507.9531" y2="507.9531"/><ellipse cx="153" cy="519.8555" fill="#84BE84" rx="3" ry="3" style="stroke: #038048; stroke-width: 1.0;"/><text fill="#000000" font-family="sans-serif" font-size="11" lengthAdjust="spacingAndGlyphs" textLength="114" x="162" y="522.1636">FrobeniusProxDual()</text><ellipse cx="153" cy="532.6602" fill="#84BE84" rx="3" ry="3" style="stroke: #038048; stroke-width: 1.0;"/><text fill="#000000" font-family="sans-serif" font-size="11" lengthAdjust="spacingAndGlyphs" textLength="63" x="162" y="534.9683">applyProx()</text><!--class L1HuberProxDual--><rect fill="#FEFECE" filter="url(#f0c2m86)" height="73.6094" style="stroke: #A80036; stroke-width: 1.5;" width="139" x="326" y="467.9531"/><ellipse cx="341" cy="483.9531" fill="#E6FFE6" rx="11" ry="11" style="stroke: #A80036; stroke-width: 1.0;"/><path d="M342.9531,484.8594 L339.3125,484.8594 L339.3125,487.25 L339.5625,487.25 C340.0156,487.25 340.1875,487.2813 340.3281,487.4063 C340.5625,487.5781 340.6875,487.8281 340.6875,488.1094 C340.6875,488.3906 340.5313,488.6875 340.2813,488.8281 C340.1406,488.9219 339.9219,488.9531 339.5625,488.9531 L337.5156,488.9531 C337.1094,488.9531 336.8906,488.9063 336.7344,488.7969 C336.5313,488.625 336.3906,488.3594 336.3906,488.1094 C336.3906,487.8125 336.5469,487.5313 336.7969,487.375 C336.9531,487.2656 337.0938,487.25 337.5156,487.25 L337.6094,487.25 L337.6094,480.7344 C337.0469,480.6875 336.7344,480.3906 336.7344,479.8906 C336.7344,479.6094 336.8906,479.3125 337.1406,479.1563 C337.2969,479.0625 337.4219,479.0469 337.8594,479.0469 L339.5625,479.0469 C340.0313,479.0469 340.1875,479.0781 340.3281,479.1875 C340.5625,479.3594 340.6875,479.625 340.6875,479.8906 C340.6875,480.1875 340.5313,480.4688 340.2813,480.625 C340.125,480.7031 339.9844,480.7344 339.5625,480.7344 L339.3125,480.7344 L339.3125,483.1563 L342.9531,483.1563 L342.9531,480.7344 L342.7031,480.7344 C342.25,480.7344 342.1094,480.7031 341.9375,480.5938 C341.7188,480.4219 341.5781,480.1719 341.5781,479.8906 C341.5781,479.6094 341.7344,479.3125 341.9844,479.1563 C342.1406,479.0625 342.2656,479.0469 342.7031,479.0469 L344.4219,479.0469 C344.875,479.0469 345.0313,479.0781 345.2031,479.1875 C345.4063,479.3594 345.5313,479.625 345.5313,479.8906 C345.5313,480.3906 345.2188,480.6875 344.6563,480.7344 L344.6563,487.25 L344.75,487.25 C345.2188,487.25 345.3594,487.2813 345.5156,487.4063 C345.7344,487.5781 345.875,487.8281 345.875,488.1094 C345.875,488.3906 345.7188,488.6875 345.4688,488.8281 C345.3281,488.9219 345.1094,488.9531 344.75,488.9531 L342.7031,488.9531 C342.2969,488.9531 342.0938,488.9063 341.9375,488.7969 C341.7188,488.625 341.5781,488.3594 341.5781,488.1094 C341.5781,487.8125 341.7344,487.5313 341.9844,487.375 C342.1406,487.2656 342.2969,487.25 342.7031,487.25 L342.9531,487.25 Z "/><text fill="#000000" font-family="sans-serif" font-size="12" lengthAdjust="spacingAndGlyphs" textLength="107" x="355" y="488.1074">L1HuberProxDual</text><line style="stroke: #A80036; stroke-width: 1.5;" x1="327" x2="464" y1="499.9531" y2="499.9531"/><line style="stroke: #A80036; stroke-width: 1.5;" x1="327" x2="464" y1="507.9531" y2="507.9531"/><ellipse cx="337" cy="519.8555" fill="#84BE84" rx="3" ry="3" style="stroke: #038048; stroke-width: 1.0;"/><text fill="#000000" font-family="sans-serif" font-size="11" lengthAdjust="spacingAndGlyphs" textLength="105" x="346" y="522.1636">L1HuberProxDual()</text><ellipse cx="337" cy="532.6602" fill="#84BE84" rx="3" ry="3" style="stroke: #038048; stroke-width: 1.0;"/><text fill="#000000" font-family="sans-serif" font-size="11" lengthAdjust="spacingAndGlyphs" textLength="63" x="346" y="534.9683">applyProx()</text><!--class innerProductProxDual--><rect fill="#FEFECE" filter="url(#f0c2m86)" height="73.6094" style="stroke: #A80036; stroke-width: 1.5;" width="168" x="828.5" y="467.9531"/><ellipse cx="843.5" cy="483.9531" fill="#E6FFE6" rx="11" ry="11" style="stroke: #A80036; stroke-width: 1.0;"/><path d="M845.4531,484.8594 L841.8125,484.8594 L841.8125,487.25 L842.0625,487.25 C842.5156,487.25 842.6875,487.2813 842.8281,487.4063 C843.0625,487.5781 843.1875,487.8281 843.1875,488.1094 C843.1875,488.3906 843.0313,488.6875 842.7813,488.8281 C842.6406,488.9219 842.4219,488.9531 842.0625,488.9531 L840.0156,488.9531 C839.6094,488.9531 839.3906,488.9063 839.2344,488.7969 C839.0313,488.625 838.8906,488.3594 838.8906,488.1094 C838.8906,487.8125 839.0469,487.5313 839.2969,487.375 C839.4531,487.2656 839.5938,487.25 840.0156,487.25 L840.1094,487.25 L840.1094,480.7344 C839.5469,480.6875 839.2344,480.3906 839.2344,479.8906 C839.2344,479.6094 839.3906,479.3125 839.6406,479.1563 C839.7969,479.0625 839.9219,479.0469 840.3594,479.0469 L842.0625,479.0469 C842.5313,479.0469 842.6875,479.0781 842.8281,479.1875 C843.0625,479.3594 843.1875,479.625 843.1875,479.8906 C843.1875,480.1875 843.0313,480.4688 842.7813,480.625 C842.625,480.7031 842.4844,480.7344 842.0625,480.7344 L841.8125,480.7344 L841.8125,483.1563 L845.4531,483.1563 L845.4531,480.7344 L845.2031,480.7344 C844.75,480.7344 844.6094,480.7031 844.4375,480.5938 C844.2188,480.4219 844.0781,480.1719 844.0781,479.8906 C844.0781,479.6094 844.2344,479.3125 844.4844,479.1563 C844.6406,479.0625 844.7656,479.0469 845.2031,479.0469 L846.9219,479.0469 C847.375,479.0469 847.5313,479.0781 847.7031,479.1875 C847.9063,479.3594 848.0313,479.625 848.0313,479.8906 C848.0313,480.3906 847.7188,480.6875 847.1563,480.7344 L847.1563,487.25 L847.25,487.25 C847.7188,487.25 847.8594,487.2813 848.0156,487.4063 C848.2344,487.5781 848.375,487.8281 848.375,488.1094 C848.375,488.3906 848.2188,488.6875 847.9688,488.8281 C847.8281,488.9219 847.6094,488.9531 847.25,488.9531 L845.2031,488.9531 C844.7969,488.9531 844.5938,488.9063 844.4375,488.7969 C844.2188,488.625 844.0781,488.3594 844.0781,488.1094 C844.0781,487.8125 844.2344,487.5313 844.4844,487.375 C844.6406,487.2656 844.7969,487.25 845.2031,487.25 L845.4531,487.25 Z "/><text fill="#000000" font-family="sans-serif" font-size="12" lengthAdjust="spacingAndGlyphs" textLength="136" x="857.5" y="488.1074">innerProductProxDual</text><line style="stroke: #A80036; stroke-width: 1.5;" x1="829.5" x2="995.5" y1="499.9531" y2="499.9531"/><line style="stroke: #A80036; stroke-width: 1.5;" x1="829.5" x2="995.5" y1="507.9531" y2="507.9531"/><ellipse cx="839.5" cy="519.8555" fill="#84BE84" rx="3" ry="3" style="stroke: #038048; stroke-width: 1.0;"/><text fill="#000000" font-family="sans-serif" font-size="11" lengthAdjust="spacingAndGlyphs" textLength="130" x="848.5" y="522.1636">innerProductProxDual()</text><ellipse cx="839.5" cy="532.6602" fill="#84BE84" rx="3" ry="3" style="stroke: #038048; stroke-width: 1.0;"/><text fill="#000000" font-family="sans-serif" font-size="11" lengthAdjust="spacingAndGlyphs" textLength="63" x="848.5" y="534.9683">applyProx()</text><!--class L1AnisoProxDual--><rect fill="#FEFECE" filter="url(#f0c2m86)" height="73.6094" style="stroke: #A80036; stroke-width: 1.5;" width="135" x="1631" y="467.9531"/><ellipse cx="1646" cy="483.9531" fill="#E6FFE6" rx="11" ry="11" style="stroke: #A80036; stroke-width: 1.0;"/><path d="M1647.9531,484.8594 L1644.3125,484.8594 L1644.3125,487.25 L1644.5625,487.25 C1645.0156,487.25 1645.1875,487.2813 1645.3281,487.4063 C1645.5625,487.5781 1645.6875,487.8281 1645.6875,488.1094 C1645.6875,488.3906 1645.5313,488.6875 1645.2813,488.8281 C1645.1406,488.9219 1644.9219,488.9531 1644.5625,488.9531 L1642.5156,488.9531 C1642.1094,488.9531 1641.8906,488.9063 1641.7344,488.7969 C1641.5313,488.625 1641.3906,488.3594 1641.3906,488.1094 C1641.3906,487.8125 1641.5469,487.5313 1641.7969,487.375 C1641.9531,487.2656 1642.0938,487.25 1642.5156,487.25 L1642.6094,487.25 L1642.6094,480.7344 C1642.0469,480.6875 1641.7344,480.3906 1641.7344,479.8906 C1641.7344,479.6094 1641.8906,479.3125 1642.1406,479.1563 C1642.2969,479.0625 1642.4219,479.0469 1642.8594,479.0469 L1644.5625,479.0469 C1645.0313,479.0469 1645.1875,479.0781 1645.3281,479.1875 C1645.5625,479.3594 1645.6875,479.625 1645.6875,479.8906 C1645.6875,480.1875 1645.5313,480.4688 1645.2813,480.625 C1645.125,480.7031 1644.9844,480.7344 1644.5625,480.7344 L1644.3125,480.7344 L1644.3125,483.1563 L1647.9531,483.1563 L1647.9531,480.7344 L1647.7031,480.7344 C1647.25,480.7344 1647.1094,480.7031 1646.9375,480.5938 C1646.7188,480.4219 1646.5781,480.1719 1646.5781,479.8906 C1646.5781,479.6094 1646.7344,479.3125 1646.9844,479.1563 C1647.1406,479.0625 1647.2656,479.0469 1647.7031,479.0469 L1649.4219,479.0469 C1649.875,479.0469 1650.0313,479.0781 1650.2031,479.1875 C1650.4063,479.3594 1650.5313,479.625 1650.5313,479.8906 C1650.5313,480.3906 1650.2188,480.6875 1649.6563,480.7344 L1649.6563,487.25 L1649.75,487.25 C1650.2188,487.25 1650.3594,487.2813 1650.5156,487.4063 C1650.7344,487.5781 1650.875,487.8281 1650.875,488.1094 C1650.875,488.3906 1650.7188,488.6875 1650.4688,488.8281 C1650.3281,488.9219 1650.1094,488.9531 1649.75,488.9531 L1647.7031,488.9531 C1647.2969,488.9531 1647.0938,488.9063 1646.9375,488.7969 C1646.7188,488.625 1646.5781,488.3594 1646.5781,488.1094 C1646.5781,487.8125 1646.7344,487.5313 1646.9844,487.375 C1647.1406,487.2656 1647.2969,487.25 1647.7031,487.25 L1647.9531,487.25 Z "/><text fill="#000000" font-family="sans-serif" font-size="12" lengthAdjust="spacingAndGlyphs" textLength="103" x="1660" y="488.1074">L1AnisoProxDual</text><line style="stroke: #A80036; stroke-width: 1.5;" x1="1632" x2="1765" y1="499.9531" y2="499.9531"/><line style="stroke: #A80036; stroke-width: 1.5;" x1="1632" x2="1765" y1="507.9531" y2="507.9531"/><ellipse cx="1642" cy="519.8555" fill="#84BE84" rx="3" ry="3" style="stroke: #038048; stroke-width: 1.0;"/><text fill="#000000" font-family="sans-serif" font-size="11" lengthAdjust="spacingAndGlyphs" textLength="102" x="1651" y="522.1636">L1AnisoProxDual()</text><ellipse cx="1642" cy="532.6602" fill="#84BE84" rx="3" ry="3" style="stroke: #038048; stroke-width: 1.0;"/><text fill="#000000" font-family="sans-serif" font-size="11" lengthAdjust="spacingAndGlyphs" textLength="63" x="1651" y="534.9683">applyProx()</text><!--class L1IsoProxDual--><rect fill="#FEFECE" filter="url(#f0c2m86)" height="73.6094" style="stroke: #A80036; stroke-width: 1.5;" width="119" x="1971" y="467.9531"/><ellipse cx="1986" cy="483.9531" fill="#E6FFE6" rx="11" ry="11" style="stroke: #A80036; stroke-width: 1.0;"/><path d="M1987.9531,484.8594 L1984.3125,484.8594 L1984.3125,487.25 L1984.5625,487.25 C1985.0156,487.25 1985.1875,487.2813 1985.3281,487.4063 C1985.5625,487.5781 1985.6875,487.8281 1985.6875,488.1094 C1985.6875,488.3906 1985.5313,488.6875 1985.2813,488.8281 C1985.1406,488.9219 1984.9219,488.9531 1984.5625,488.9531 L1982.5156,488.9531 C1982.1094,488.9531 1981.8906,488.9063 1981.7344,488.7969 C1981.5313,488.625 1981.3906,488.3594 1981.3906,488.1094 C1981.3906,487.8125 1981.5469,487.5313 1981.7969,487.375 C1981.9531,487.2656 1982.0938,487.25 1982.5156,487.25 L1982.6094,487.25 L1982.6094,480.7344 C1982.0469,480.6875 1981.7344,480.3906 1981.7344,479.8906 C1981.7344,479.6094 1981.8906,479.3125 1982.1406,479.1563 C1982.2969,479.0625 1982.4219,479.0469 1982.8594,479.0469 L1984.5625,479.0469 C1985.0313,479.0469 1985.1875,479.0781 1985.3281,479.1875 C1985.5625,479.3594 1985.6875,479.625 1985.6875,479.8906 C1985.6875,480.1875 1985.5313,480.4688 1985.2813,480.625 C1985.125,480.7031 1984.9844,480.7344 1984.5625,480.7344 L1984.3125,480.7344 L1984.3125,483.1563 L1987.9531,483.1563 L1987.9531,480.7344 L1987.7031,480.7344 C1987.25,480.7344 1987.1094,480.7031 1986.9375,480.5938 C1986.7188,480.4219 1986.5781,480.1719 1986.5781,479.8906 C1986.5781,479.6094 1986.7344,479.3125 1986.9844,479.1563 C1987.1406,479.0625 1987.2656,479.0469 1987.7031,479.0469 L1989.4219,479.0469 C1989.875,479.0469 1990.0313,479.0781 1990.2031,479.1875 C1990.4063,479.3594 1990.5313,479.625 1990.5313,479.8906 C1990.5313,480.3906 1990.2188,480.6875 1989.6563,480.7344 L1989.6563,487.25 L1989.75,487.25 C1990.2188,487.25 1990.3594,487.2813 1990.5156,487.4063 C1990.7344,487.5781 1990.875,487.8281 1990.875,488.1094 C1990.875,488.3906 1990.7188,488.6875 1990.4688,488.8281 C1990.3281,488.9219 1990.1094,488.9531 1989.75,488.9531 L1987.7031,488.9531 C1987.2969,488.9531 1987.0938,488.9063 1986.9375,488.7969 C1986.7188,488.625 1986.5781,488.3594 1986.5781,488.1094 C1986.5781,487.8125 1986.7344,487.5313 1986.9844,487.375 C1987.1406,487.2656 1987.2969,487.25 1987.7031,487.25 L1987.9531,487.25 Z "/><text fill="#000000" font-family="sans-serif" font-size="12" lengthAdjust="spacingAndGlyphs" textLength="87" x="2000" y="488.1074">L1IsoProxDual</text><line style="stroke: #A80036; stroke-width: 1.5;" x1="1972" x2="2089" y1="499.9531" y2="499.9531"/><line style="stroke: #A80036; stroke-width: 1.5;" x1="1972" x2="2089" y1="507.9531" y2="507.9531"/><ellipse cx="1982" cy="519.8555" fill="#84BE84" rx="3" ry="3" style="stroke: #038048; stroke-width: 1.0;"/><text fill="#000000" font-family="sans-serif" font-size="11" lengthAdjust="spacingAndGlyphs" textLength="88" x="1991" y="522.1636">L1IsoProxDual()</text><ellipse cx="1982" cy="532.6602" fill="#84BE84" rx="3" ry="3" style="stroke: #038048; stroke-width: 1.0;"/><text fill="#000000" font-family="sans-serif" font-size="11" lengthAdjust="spacingAndGlyphs" textLength="63" x="1991" y="534.9683">applyProx()</text><!--class L1IsoProxDualShift--><rect fill="#FEFECE" filter="url(#f0c2m86)" height="73.6094" style="stroke: #A80036; stroke-width: 1.5;" width="147" x="1146" y="467.9531"/><ellipse cx="1161" cy="483.9531" fill="#E6FFE6" rx="11" ry="11" style="stroke: #A80036; stroke-width: 1.0;"/><path d="M1162.9531,484.8594 L1159.3125,484.8594 L1159.3125,487.25 L1159.5625,487.25 C1160.0156,487.25 1160.1875,487.2813 1160.3281,487.4063 C1160.5625,487.5781 1160.6875,487.8281 1160.6875,488.1094 C1160.6875,488.3906 1160.5313,488.6875 1160.2813,488.8281 C1160.1406,488.9219 1159.9219,488.9531 1159.5625,488.9531 L1157.5156,488.9531 C1157.1094,488.9531 1156.8906,488.9063 1156.7344,488.7969 C1156.5313,488.625 1156.3906,488.3594 1156.3906,488.1094 C1156.3906,487.8125 1156.5469,487.5313 1156.7969,487.375 C1156.9531,487.2656 1157.0938,487.25 1157.5156,487.25 L1157.6094,487.25 L1157.6094,480.7344 C1157.0469,480.6875 1156.7344,480.3906 1156.7344,479.8906 C1156.7344,479.6094 1156.8906,479.3125 1157.1406,479.1563 C1157.2969,479.0625 1157.4219,479.0469 1157.8594,479.0469 L1159.5625,479.0469 C1160.0313,479.0469 1160.1875,479.0781 1160.3281,479.1875 C1160.5625,479.3594 1160.6875,479.625 1160.6875,479.8906 C1160.6875,480.1875 1160.5313,480.4688 1160.2813,480.625 C1160.125,480.7031 1159.9844,480.7344 1159.5625,480.7344 L1159.3125,480.7344 L1159.3125,483.1563 L1162.9531,483.1563 L1162.9531,480.7344 L1162.7031,480.7344 C1162.25,480.7344 1162.1094,480.7031 1161.9375,480.5938 C1161.7188,480.4219 1161.5781,480.1719 1161.5781,479.8906 C1161.5781,479.6094 1161.7344,479.3125 1161.9844,479.1563 C1162.1406,479.0625 1162.2656,479.0469 1162.7031,479.0469 L1164.4219,479.0469 C1164.875,479.0469 1165.0313,479.0781 1165.2031,479.1875 C1165.4063,479.3594 1165.5313,479.625 1165.5313,479.8906 C1165.5313,480.3906 1165.2188,480.6875 1164.6563,480.7344 L1164.6563,487.25 L1164.75,487.25 C1165.2188,487.25 1165.3594,487.2813 1165.5156,487.4063 C1165.7344,487.5781 1165.875,487.8281 1165.875,488.1094 C1165.875,488.3906 1165.7188,488.6875 1165.4688,488.8281 C1165.3281,488.9219 1165.1094,488.9531 1164.75,488.9531 L1162.7031,488.9531 C1162.2969,488.9531 1162.0938,488.9063 1161.9375,488.7969 C1161.7188,488.625 1161.5781,488.3594 1161.5781,488.1094 C1161.5781,487.8125 1161.7344,487.5313 1161.9844,487.375 C1162.1406,487.2656 1162.2969,487.25 1162.7031,487.25 L1162.9531,487.25 Z "/><text fill="#000000" font-family="sans-serif" font-size="12" lengthAdjust="spacingAndGlyphs" textLength="115" x="1175" y="488.1074">L1IsoProxDualShift</text><line style="stroke: #A80036; stroke-width: 1.5;" x1="1147" x2="1292" y1="499.9531" y2="499.9531"/><line style="stroke: #A80036; stroke-width: 1.5;" x1="1147" x2="1292" y1="507.9531" y2="507.9531"/><ellipse cx="1157" cy="519.8555" fill="#84BE84" rx="3" ry="3" style="stroke: #038048; stroke-width: 1.0;"/><text fill="#000000" font-family="sans-serif" font-size="11" lengthAdjust="spacingAndGlyphs" textLength="114" x="1166" y="522.1636">L1IsoProxDualShift()</text><ellipse cx="1157" cy="532.6602" fill="#84BE84" rx="3" ry="3" style="stroke: #038048; stroke-width: 1.0;"/><text fill="#000000" font-family="sans-serif" font-size="11" lengthAdjust="spacingAndGlyphs" textLength="63" x="1166" y="534.9683">applyProx()</text><!--class L2proxDual--><rect fill="#FEFECE" filter="url(#f0c2m86)" height="73.6094" style="stroke: #A80036; stroke-width: 1.5;" width="101" x="6" y="467.9531"/><ellipse cx="21" cy="483.9531" fill="#E6FFE6" rx="11" ry="11" style="stroke: #A80036; stroke-width: 1.0;"/><path d="M22.9531,484.8594 L19.3125,484.8594 L19.3125,487.25 L19.5625,487.25 C20.0156,487.25 20.1875,487.2813 20.3281,487.4063 C20.5625,487.5781 20.6875,487.8281 20.6875,488.1094 C20.6875,488.3906 20.5313,488.6875 20.2813,488.8281 C20.1406,488.9219 19.9219,488.9531 19.5625,488.9531 L17.5156,488.9531 C17.1094,488.9531 16.8906,488.9063 16.7344,488.7969 C16.5313,488.625 16.3906,488.3594 16.3906,488.1094 C16.3906,487.8125 16.5469,487.5313 16.7969,487.375 C16.9531,487.2656 17.0938,487.25 17.5156,487.25 L17.6094,487.25 L17.6094,480.7344 C17.0469,480.6875 16.7344,480.3906 16.7344,479.8906 C16.7344,479.6094 16.8906,479.3125 17.1406,479.1563 C17.2969,479.0625 17.4219,479.0469 17.8594,479.0469 L19.5625,479.0469 C20.0313,479.0469 20.1875,479.0781 20.3281,479.1875 C20.5625,479.3594 20.6875,479.625 20.6875,479.8906 C20.6875,480.1875 20.5313,480.4688 20.2813,480.625 C20.125,480.7031 19.9844,480.7344 19.5625,480.7344 L19.3125,480.7344 L19.3125,483.1563 L22.9531,483.1563 L22.9531,480.7344 L22.7031,480.7344 C22.25,480.7344 22.1094,480.7031 21.9375,480.5938 C21.7188,480.4219 21.5781,480.1719 21.5781,479.8906 C21.5781,479.6094 21.7344,479.3125 21.9844,479.1563 C22.1406,479.0625 22.2656,479.0469 22.7031,479.0469 L24.4219,479.0469 C24.875,479.0469 25.0313,479.0781 25.2031,479.1875 C25.4063,479.3594 25.5313,479.625 25.5313,479.8906 C25.5313,480.3906 25.2188,480.6875 24.6563,480.7344 L24.6563,487.25 L24.75,487.25 C25.2188,487.25 25.3594,487.2813 25.5156,487.4063 C25.7344,487.5781 25.875,487.8281 25.875,488.1094 C25.875,488.3906 25.7188,488.6875 25.4688,488.8281 C25.3281,488.9219 25.1094,488.9531 24.75,488.9531 L22.7031,488.9531 C22.2969,488.9531 22.0938,488.9063 21.9375,488.7969 C21.7188,488.625 21.5781,488.3594 21.5781,488.1094 C21.5781,487.8125 21.7344,487.5313 21.9844,487.375 C22.1406,487.2656 22.2969,487.25 22.7031,487.25 L22.9531,487.25 Z "/><text fill="#000000" font-family="sans-serif" font-size="12" lengthAdjust="spacingAndGlyphs" textLength="69" x="35" y="488.1074">L2proxDual</text><line style="stroke: #A80036; stroke-width: 1.5;" x1="7" x2="106" y1="499.9531" y2="499.9531"/><line style="stroke: #A80036; stroke-width: 1.5;" x1="7" x2="106" y1="507.9531" y2="507.9531"/><ellipse cx="17" cy="519.8555" fill="#84BE84" rx="3" ry="3" style="stroke: #038048; stroke-width: 1.0;"/><text fill="#000000" font-family="sans-serif" font-size="11" lengthAdjust="spacingAndGlyphs" textLength="71" x="26" y="522.1636">L2proxDual()</text><ellipse cx="17" cy="532.6602" fill="#84BE84" rx="3" ry="3" style="stroke: #038048; stroke-width: 1.0;"/><text fill="#000000" font-family="sans-serif" font-size="11" lengthAdjust="spacingAndGlyphs" textLength="63" x="26" y="534.9683">applyProx()</text><!--class functionalPart--><rect fill="#FEFECE" filter="url(#f0c2m86)" height="48" style="stroke: #A80036; stroke-width: 1.5;" width="120" x="1507.5" y="28.9531"/><ellipse cx="1522.5" cy="44.9531" fill="#ADD1B2" rx="11" ry="11" style="stroke: #A80036; stroke-width: 1.0;"/><path d="M1524.8438,40.625 L1525.0156,40.7031 C1525.2344,40.3906 1525.4375,40.2969 1525.7344,40.2969 C1526.0313,40.2969 1526.3125,40.4375 1526.4688,40.7031 C1526.5625,40.8594 1526.5781,40.9844 1526.5781,41.4219 L1526.5781,42.8438 C1526.5781,43.2656 1526.5469,43.4531 1526.4375,43.6094 C1526.2656,43.8281 1526,43.9688 1525.7344,43.9688 C1525.5156,43.9688 1525.2813,43.8594 1525.1406,43.7188 C1525,43.5938 1524.9688,43.4688 1524.9063,43.0625 C1524.8125,42.6563 1524.6406,42.4375 1524.1563,42.1563 C1523.6875,41.9063 1523.0781,41.75 1522.5,41.75 C1520.7656,41.75 1519.5156,43.0625 1519.5156,44.8438 L1519.5156,45.9375 C1519.5156,47.6406 1520.8125,48.7344 1522.8594,48.7344 C1523.625,48.7344 1524.3125,48.6094 1524.7344,48.3438 C1524.9219,48.25 1524.9219,48.25 1525.375,47.7656 C1525.5625,47.5781 1525.7656,47.5 1525.9844,47.5 C1526.4531,47.5 1526.8438,47.8906 1526.8438,48.3438 C1526.8438,48.7344 1526.5156,49.1875 1525.9375,49.5938 C1525.1875,50.1406 1524.0313,50.4375 1522.8125,50.4375 C1519.9219,50.4375 1517.8125,48.5469 1517.8125,45.9688 L1517.8125,44.8438 C1517.8125,42.125 1519.8125,40.0469 1522.4375,40.0469 C1523.3125,40.0469 1523.9063,40.1875 1524.8438,40.625 Z "/><text fill="#000000" font-family="sans-serif" font-size="12" lengthAdjust="spacingAndGlyphs" textLength="88" x="1536.5" y="49.1074">functionalPart</text><line style="stroke: #A80036; stroke-width: 1.5;" x1="1508.5" x2="1626.5" y1="60.9531" y2="60.9531"/><line style="stroke: #A80036; stroke-width: 1.5;" x1="1508.5" x2="1626.5" y1="68.9531" y2="68.9531"/><path d="M1567.5,97.3281 C1567.5,109.6191 1567.5,123.3581 1567.5,136.9181 " fill="none" style="stroke: #A80036; stroke-width: 1.0;"/><polygon fill="none" points="1560.5,97.1191,1567.5,77.1191,1574.5,97.1191,1560.5,97.1191" style="stroke: #A80036; stroke-width: 1.0;"/><path d="M1516.88,304.9081 C1508.55,320.0431 1500.48,334.7051 1493.84,346.7731 " fill="none" style="stroke: #A80036; stroke-width: 1.0;"/><polygon fill="none" points="1510.94,301.1941,1526.71,287.0491,1523.2,307.9451,1510.94,301.1941" style="stroke: #A80036; stroke-width: 1.0;"/><path d="M1424.07,279.3951 C1436.95,302.7951 1450.79,327.9291 1461.15,346.7571 " fill="none" style="stroke: #A80036; stroke-width: 1.0;"/><polygon fill="none" points="1417.77,282.4621,1414.26,261.5661,1430.04,275.7111,1417.77,282.4621" style="stroke: #A80036; stroke-width: 1.0;"/><path d="M1370.88,388.4721 C1238.6,401.8841 1006.57,428.6321 810.5,467.9531 C785.937,472.8791 759.216,479.7441 736.144,486.1601 " fill="none" style="stroke: #A80036; stroke-width: 1.0;"/><polygon fill="none" points="1370.23,381.5011,1390.83,386.4731,1371.63,395.4321,1370.23,381.5011" style="stroke: #A80036; stroke-width: 1.0;"/><path d="M1477.5,428.4001 C1477.5,444.0001 1477.5,460.7021 1477.5,474.4251 " fill="none" style="stroke: #A80036; stroke-width: 1.0;"/><polygon fill="none" points="1470.5,428.1951,1477.5,408.1951,1484.5,428.1951,1470.5,428.1951" style="stroke: #A80036; stroke-width: 1.0;"/><path d="M1584.35,389.6281 C1710.21,403.7151 1925.26,430.6721 2107.5,467.9531 C2118.36,470.1741 2129.64,472.7591 2140.84,475.5061 " fill="none" style="stroke: #A80036; stroke-width: 1.0;"/><polygon fill="none" points="1583.29,396.5541,1564.18,387.3961,1584.83,382.6391,1583.29,396.5541" style="stroke: #A80036; stroke-width: 1.0;"/><path d="M597.091,522.1411 C521.294,538.6221 404.459,566.7221 306.5,601.9531 C296.44,605.571 285.974,609.9 275.889,614.3835 " fill="none" style="stroke: #A80036; stroke-width: 1.0;"/><polygon fill="none" points="595.835,515.2521,616.858,517.9051,598.769,528.9411,595.835,515.2521" style="stroke: #A80036; stroke-width: 1.0;"/><path d="M216.5,562.3491 C216.5,580.2161 216.5,599.2511 216.5,614.4386 " fill="none" style="stroke: #A80036; stroke-width: 1.0;"/><polygon fill="none" points="209.5,562.2111,216.5,542.2111,223.5,562.2111,209.5,562.2111" style="stroke: #A80036; stroke-width: 1.0;"/><path d="M598.275,539.9551 C558.018,557.8101 508.322,580.4091 464.5,601.9531 C458.924,604.6943 453.162,607.6043 447.408,610.5634 " fill="none" style="stroke: #A80036; stroke-width: 1.0;"/><polygon fill="none" points="595.507,533.5251,616.63,531.8511,601.161,546.3321,595.507,533.5251" style="stroke: #A80036; stroke-width: 1.0;"/><path d="M391.412,562.3661 C390.297,577.7601 389.118,594.0193 388.11,607.9374 " fill="none" style="stroke: #A80036; stroke-width: 1.0;"/><polygon fill="none" points="384.445,561.6531,392.873,542.2111,398.409,562.6651,384.445,561.6531" style="stroke: #A80036; stroke-width: 1.0;"/><path d="M640.109,551.1951 C625.346,569.5491 608.529,590.4578 594.602,607.772 " fill="none" style="stroke: #A80036; stroke-width: 1.0;"/><polygon fill="none" points="634.698,546.7541,652.688,535.5571,645.607,555.5291,634.698,546.7541" style="stroke: #A80036; stroke-width: 1.0;"/><path d="M809.634,545.5151 C765.482,562.6461 713.369,583.0651 666.5,601.9531 C660.864,604.2245 655.058,606.5843 649.214,608.9749 " fill="none" style="stroke: #A80036; stroke-width: 1.0;"/><polygon fill="none" points="807.171,538.9621,828.349,538.2651,812.228,552.0171,807.171,538.9621" style="stroke: #A80036; stroke-width: 1.0;"/><path d="M1397.07,544.2271 C1355.24,564.1331 1304.4,588.3262 1263.27,607.8983 " fill="none" style="stroke: #A80036; stroke-width: 1.0;"/><polygon fill="none" points="1394.22,537.8311,1415.29,535.5571,1400.24,550.4721,1394.22,537.8311" style="stroke: #A80036; stroke-width: 1.0;"/><path d="M1002.48,551.1071 C1039.15,569.5081 1080.96,590.49 1115.55,607.8466 " fill="none" style="stroke: #A80036; stroke-width: 1.0;"/><polygon fill="none" points="999.13,557.2571,984.394,542.0311,1005.409,544.7451,999.13,557.2571" style="stroke: #A80036; stroke-width: 1.0;"/><path d="M754.694,536.6921 C799.964,554.8891 857.837,578.8411 908.5,601.9531 C916.955,605.8104 925.81,610.0322 934.466,614.2649 " fill="none" style="stroke: #A80036; stroke-width: 1.0;"/><polygon fill="none" points="752.092,543.1901,736.122,529.2641,757.291,530.1911,752.092,543.1901" style="stroke: #A80036; stroke-width: 1.0;"/><path d="M1611.55,535.7041 C1603.14,538.0351 1594.7,540.1711 1586.5,541.9531 C1363.48,590.4343 1295.18,536.6071 1076.5,601.9531 C1065.88,605.1275 1054.97,609.5789 1044.68,614.4049 " fill="none" style="stroke: #A80036; stroke-width: 1.0;"/><polygon fill="none" points="1609.8,528.9231,1630.96,529.9851,1613.76,542.3521,1609.8,528.9231" style="stroke: #A80036; stroke-width: 1.0;"/><path d="M1541.89,546.1631 C1576.84,567.9851 1619.29,594.4897 1651.17,614.3976 " fill="none" style="stroke: #A80036; stroke-width: 1.0;"/><polygon fill="none" points="1538.17,552.0881,1524.91,535.5571,1545.58,540.2131,1538.17,552.0881" style="stroke: #A80036; stroke-width: 1.0;"/><path d="M1698.5,562.3491 C1698.5,580.2161 1698.5,599.2511 1698.5,614.4386 " fill="none" style="stroke: #A80036; stroke-width: 1.0;"/><polygon fill="none" points="1691.5,562.2111,1698.5,542.2111,1705.5,562.2111,1691.5,562.2111" style="stroke: #A80036; stroke-width: 1.0;"/><path d="M1588.63,536.1401 C1597.03,538.1851 1605.39,540.1471 1613.5,541.9531 C1759.44,574.4411 1802.43,555.3751 1944.5,601.9531 C1954.76,605.3178 1965.36,609.6816 1975.46,614.3201 " fill="none" style="stroke: #A80036; stroke-width: 1.0;"/><polygon fill="none" points="1586.78,542.8921,1569.07,531.2541,1590.17,529.3091,1586.78,542.8921" style="stroke: #A80036; stroke-width: 1.0;"/><path d="M2030.5,562.3491 C2030.5,580.2161 2030.5,599.2511 2030.5,614.4386 " fill="none" style="stroke: #A80036; stroke-width: 1.0;"/><polygon fill="none" points="2023.5,562.2111,2030.5,542.2111,2037.5,562.2111,2023.5,562.2111" style="stroke: #A80036; stroke-width: 1.0;"/><path d="M755.853,530.0941 C773.684,534.7261 792.622,539.0361 810.5,541.9531 C1242.05,612.368 1372.63,479.8781 1792.5,601.9531 C1802.63,604.8992 1812.91,609.3744 1822.49,614.3222 " fill="none" style="stroke: #A80036; stroke-width: 1.0;"/><polygon fill="none" points="753.771,536.7821,736.306,524.7841,757.441,523.2721,753.771,536.7821" style="stroke: #A80036; stroke-width: 1.0;"/><path d="M1972.42,555.4281 C1949.23,575.1851 1923.3,597.2701 1903.15,614.4386 " fill="none" style="stroke: #A80036; stroke-width: 1.0;"/><polygon fill="none" points="1968.17,549.8521,1987.94,542.2111,1977.25,560.5091,1968.17,549.8521" style="stroke: #A80036; stroke-width: 1.0;"/><path d="M712.981,551.3071 C726.068,567.5791 740.761,585.8451 753.619,601.831 " fill="none" style="stroke: #A80036; stroke-width: 1.0;"/><polygon fill="none" points="707.393,555.5291,700.312,535.5571,718.302,546.7541,707.393,555.5291" style="stroke: #A80036; stroke-width: 1.0;"/><path d="M1126.43,533.7621 C1064.49,552.4931 981.42,578.0511 908.5,601.9531 C902.795,603.8232 896.947,605.766 891.05,607.7453 " fill="none" style="stroke: #A80036; stroke-width: 1.0;"/><polygon fill="none" points="1124.58,527.0061,1145.75,527.9311,1128.63,540.4101,1124.58,527.0061" style="stroke: #A80036; stroke-width: 1.0;"/><path d="M1468.18,555.4361 C1465.32,570.6231 1462.2,587.1841 1459.44,601.831 " fill="none" style="stroke: #A80036; stroke-width: 1.0;"/><polygon fill="none" points="1461.34,553.9161,1471.92,535.5571,1475.1,556.5081,1461.34,553.9161" style="stroke: #A80036; stroke-width: 1.0;"/><path d="M1297.7,552.4661 C1324.49,568.4041 1354.31,586.1401 1380.5,601.7213 " fill="none" style="stroke: #A80036; stroke-width: 1.0;"/><polygon fill="none" points="1293.76,558.2711,1280.15,542.0311,1300.92,546.2391,1293.76,558.2711" style="stroke: #A80036; stroke-width: 1.0;"/><path d="M2241.5,555.6791 C2241.5,575.3571 2241.5,597.3077 2241.5,614.3976 " fill="none" style="stroke: #A80036; stroke-width: 1.0;"/><polygon fill="none" points="2234.5,555.5571,2241.5,535.5571,2248.5,555.5571,2234.5,555.5571" style="stroke: #A80036; stroke-width: 1.0;"/><path d="M1786.11,523.4521 C1871.13,541.0481 2003.5,570.0771 2116.5,601.9531 C2129.72,605.6825 2143.61,609.9708 2157.13,614.3512 " fill="none" style="stroke: #A80036; stroke-width: 1.0;"/><polygon fill="none" points="1784.53,530.2741,1766.35,519.3911,1787.35,516.5601,1784.53,530.2741" style="stroke: #A80036; stroke-width: 1.0;"/><path d="M2310.97,545.5661 C2349.43,567.5011 2396.44,594.3079 2431.67,614.3976 " fill="none" style="stroke: #A80036; stroke-width: 1.0;"/><polygon fill="none" points="2307.32,551.5461,2293.42,535.5571,2314.26,539.3841,2307.32,551.5461" style="stroke: #A80036; stroke-width: 1.0;"/><path d="M2108.96,537.1291 C2113.86,538.8251 2118.73,540.4481 2123.5,541.9531 C2229.59,575.4331 2260.01,569.7851 2366.5,601.9531 C2378.9,605.6976 2391.91,609.9939 2404.57,614.3778 " fill="none" style="stroke: #A80036; stroke-width: 1.0;"/><polygon fill="none" points="2106.56,543.7071,2090.14,530.3251,2111.32,530.5411,2106.56,543.7071" style="stroke: #A80036; stroke-width: 1.0;"/><path d="M596.889,521.0331 C561.833,527.5931 520.143,535.2891 482.5,541.9531 C324.503,569.9251 276.661,545.4091 126.5,601.9531 C117.8,605.2293 108.995,609.6675 100.738,614.435 " fill="none" style="stroke: #A80036; stroke-width: 1.0;"/><polygon fill="none" points="595.733,514.1271,616.681,517.3171,598.316,527.8871,595.733,514.1271" style="stroke: #A80036; stroke-width: 1.0;"/><path d="M57.3173,562.3491 C57.5763,580.2161 57.8521,599.2511 58.0723,614.4386 " fill="none" style="stroke: #A80036; stroke-width: 1.0;"/><polygon fill="none" points="50.3161,562.3101,57.0255,542.2111,64.3147,562.1071,50.3161,562.3101" style="stroke: #A80036; stroke-width: 1.0;"/></g></svg>