<?xml version="1.0" encoding="UTF-8" standalone="no"?><svg xmlns="http://www.w3.org/2000/svg" xmlns:xlink="http://www.w3.org/1999/xlink" contentScriptType="application/ecmascript" contentStyleType="text/css" height="671px" preserveAspectRatio="none" style="width:434px;height:671px;" version="1.1" viewBox="0 0 434 671" width="434px" zoomAndPan="magnify"><defs><filter height="300%" id="f3f3qpt" width="300%" x="-1" y="-1"><feGaussianBlur result="blurOut" stdDeviation="2.0"/><feColorMatrix in="blurOut" result="blurOut2" type="matrix" values="0 0 0 0 0 0 0 0 0 0 0 0 0 0 0 0 0 0 .4 0"/><feOffset dx="4.0" dy="4.0" in="blurOut2" result="blurOut3"/><feBlend in="SourceGraphic" in2="blurOut3" mode="normal"/></filter></defs><g><text fill="#000000" font-family="sans-serif" font-size="18" font-weight="bold" lengthAdjust="spacingAndGlyphs" textLength="283" x="80" y="16.708">Regularizer Terms (Laplace)</text><!--class dualPart--><rect fill="#FEFECE" filter="url(#f3f3qpt)" height="150.4375" style="stroke: #A80036; stroke-width: 1.5;" width="89" x="244" y="136.9531"/><ellipse cx="260.8" cy="152.9531" fill="#E6FFE6" rx="11" ry="11" style="stroke: #A80036; stroke-width: 1.0;"/><path d="M262.3781,154.7656 L258.3313,154.7656 L257.9406,155.75 L258.3313,155.75 C258.7844,155.75 258.925,155.7813 259.0969,155.9063 C259.3156,156.0781 259.4406,156.3281 259.4406,156.6094 C259.4406,156.8906 259.3,157.1875 259.0344,157.3281 C258.9094,157.4219 258.6906,157.4531 258.3313,157.4531 L256.0656,157.4531 C255.3156,157.4531 254.9406,157.1719 254.9406,156.6094 C254.9406,156.3125 255.0969,156.0313 255.3469,155.875 C255.5031,155.7656 255.6594,155.75 256.0813,155.75 L258.7219,149.2344 L257.6438,149.2344 C257.2063,149.2344 257.0344,149.2031 256.8625,149.0938 C256.6438,148.9219 256.5031,148.6719 256.5031,148.3906 C256.5031,148.1094 256.6594,147.8281 256.9094,147.6563 C257.0656,147.5625 257.1906,147.5469 257.6438,147.5469 L261.3156,147.5469 L264.7063,155.75 C265.175,155.75 265.3313,155.7813 265.5031,155.9219 C265.7219,156.0781 265.8625,156.3281 265.8625,156.6094 C265.8625,156.8906 265.7063,157.1875 265.4563,157.3281 C265.3156,157.4219 265.0969,157.4531 264.7375,157.4531 L262.3781,157.4531 C261.9563,157.4531 261.7531,157.4063 261.6125,157.2813 C261.3938,157.125 261.2531,156.875 261.2531,156.6094 C261.2531,156.3125 261.4094,156.0313 261.6594,155.875 C261.8156,155.7656 261.925,155.75 262.3781,155.75 L262.7688,155.75 Z M261.675,153.0625 L260.3469,149.7969 L259.0031,153.0625 Z "/><text fill="#000000" font-family="sans-serif" font-size="12" lengthAdjust="spacingAndGlyphs" textLength="53" x="275.2" y="157.1074">dualPart</text><line style="stroke: #A80036; stroke-width: 1.5;" x1="245" x2="332" y1="168.9531" y2="168.9531"/><ellipse cx="255" cy="180.8555" fill="none" rx="3" ry="3" style="stroke: #038048; stroke-width: 1.0;"/><text fill="#000000" font-family="sans-serif" font-size="11" lengthAdjust="spacingAndGlyphs" textLength="35" x="264" y="183.1636">length</text><ellipse cx="255" cy="193.6602" fill="none" rx="3" ry="3" style="stroke: #038048; stroke-width: 1.0;"/><text fill="#000000" font-family="sans-serif" font-size="11" lengthAdjust="spacingAndGlyphs" textLength="53" x="264" y="195.9683">mySigma</text><ellipse cx="255" cy="206.4648" fill="none" rx="3" ry="3" style="stroke: #038048; stroke-width: 1.0;"/><text fill="#000000" font-family="sans-serif" font-size="11" lengthAdjust="spacingAndGlyphs" textLength="38" x="264" y="208.7729">myTau</text><ellipse cx="255" cy="219.2695" fill="none" rx="3" ry="3" style="stroke: #038048; stroke-width: 1.0;"/><text fill="#000000" font-family="sans-serif" font-size="11" lengthAdjust="spacingAndGlyphs" textLength="51" x="264" y="221.5776">numVars</text><ellipse cx="255" cy="232.0742" fill="none" rx="3" ry="3" style="stroke: #038048; stroke-width: 1.0;"/><text fill="#000000" font-family="sans-serif" font-size="11" lengthAdjust="spacingAndGlyphs" textLength="49" x="264" y="234.3823">operator</text><ellipse cx="255" cy="244.8789" fill="none" rx="3" ry="3" style="stroke: #038048; stroke-width: 1.0;"/><text fill="#000000" font-family="sans-serif" font-size="11" lengthAdjust="spacingAndGlyphs" textLength="56" x="264" y="247.187">operatorT</text><line style="stroke: #A80036; stroke-width: 1.5;" x1="245" x2="332" y1="253.7813" y2="253.7813"/><ellipse cx="255" cy="265.6836" fill="#84BE84" rx="3" ry="3" style="stroke: #038048; stroke-width: 1.0;"/><text fill="#000000" font-family="sans-serif" font-size="11" lengthAdjust="spacingAndGlyphs" textLength="55" x="264" y="267.9917">dualPart()</text><ellipse cx="255" cy="278.4883" fill="#84BE84" rx="3" ry="3" style="stroke: #038048; stroke-width: 1.0;"/><text fill="#000000" font-family="sans-serif" font-size="11" lengthAdjust="spacingAndGlyphs" textLength="63" x="264" y="280.7964">applyProx()</text><!--class basicDualizedOperator--><rect fill="#FEFECE" filter="url(#f3f3qpt)" height="60.8047" style="stroke: #A80036; stroke-width: 1.5;" width="173" x="112" y="346.9531"/><ellipse cx="127" cy="362.9531" fill="#E6FFE6" rx="11" ry="11" style="stroke: #A80036; stroke-width: 1.0;"/><path d="M128.5781,364.7656 L124.5313,364.7656 L124.1406,365.75 L124.5313,365.75 C124.9844,365.75 125.125,365.7813 125.2969,365.9063 C125.5156,366.0781 125.6406,366.3281 125.6406,366.6094 C125.6406,366.8906 125.5,367.1875 125.2344,367.3281 C125.1094,367.4219 124.8906,367.4531 124.5313,367.4531 L122.2656,367.4531 C121.5156,367.4531 121.1406,367.1719 121.1406,366.6094 C121.1406,366.3125 121.2969,366.0313 121.5469,365.875 C121.7031,365.7656 121.8594,365.75 122.2813,365.75 L124.9219,359.2344 L123.8438,359.2344 C123.4063,359.2344 123.2344,359.2031 123.0625,359.0938 C122.8438,358.9219 122.7031,358.6719 122.7031,358.3906 C122.7031,358.1094 122.8594,357.8281 123.1094,357.6563 C123.2656,357.5625 123.3906,357.5469 123.8438,357.5469 L127.5156,357.5469 L130.9063,365.75 C131.375,365.75 131.5313,365.7813 131.7031,365.9219 C131.9219,366.0781 132.0625,366.3281 132.0625,366.6094 C132.0625,366.8906 131.9063,367.1875 131.6563,367.3281 C131.5156,367.4219 131.2969,367.4531 130.9375,367.4531 L128.5781,367.4531 C128.1563,367.4531 127.9531,367.4063 127.8125,367.2813 C127.5938,367.125 127.4531,366.875 127.4531,366.6094 C127.4531,366.3125 127.6094,366.0313 127.8594,365.875 C128.0156,365.7656 128.125,365.75 128.5781,365.75 L128.9688,365.75 Z M127.875,363.0625 L126.5469,359.7969 L125.2031,363.0625 Z "/><text fill="#000000" font-family="sans-serif" font-size="12" lengthAdjust="spacingAndGlyphs" textLength="141" x="141" y="367.1074">basicDualizedOperator</text><line style="stroke: #A80036; stroke-width: 1.5;" x1="113" x2="284" y1="378.9531" y2="378.9531"/><line style="stroke: #A80036; stroke-width: 1.5;" x1="113" x2="284" y1="386.9531" y2="386.9531"/><ellipse cx="123" cy="398.8555" fill="#84BE84" rx="3" ry="3" style="stroke: #038048; stroke-width: 1.0;"/><text fill="#000000" font-family="sans-serif" font-size="11" lengthAdjust="spacingAndGlyphs" textLength="136" x="132" y="401.1636">basicDualizedOperator()</text><!--class basicLaplace--><rect fill="#FEFECE" filter="url(#f3f3qpt)" height="60.8047" style="stroke: #A80036; stroke-width: 1.5;" width="113" x="142" y="474.4531"/><ellipse cx="157" cy="490.4531" fill="#E6FFE6" rx="11" ry="11" style="stroke: #A80036; stroke-width: 1.0;"/><path d="M158.5781,492.2656 L154.5313,492.2656 L154.1406,493.25 L154.5313,493.25 C154.9844,493.25 155.125,493.2813 155.2969,493.4063 C155.5156,493.5781 155.6406,493.8281 155.6406,494.1094 C155.6406,494.3906 155.5,494.6875 155.2344,494.8281 C155.1094,494.9219 154.8906,494.9531 154.5313,494.9531 L152.2656,494.9531 C151.5156,494.9531 151.1406,494.6719 151.1406,494.1094 C151.1406,493.8125 151.2969,493.5313 151.5469,493.375 C151.7031,493.2656 151.8594,493.25 152.2813,493.25 L154.9219,486.7344 L153.8438,486.7344 C153.4063,486.7344 153.2344,486.7031 153.0625,486.5938 C152.8438,486.4219 152.7031,486.1719 152.7031,485.8906 C152.7031,485.6094 152.8594,485.3281 153.1094,485.1563 C153.2656,485.0625 153.3906,485.0469 153.8438,485.0469 L157.5156,485.0469 L160.9063,493.25 C161.375,493.25 161.5313,493.2813 161.7031,493.4219 C161.9219,493.5781 162.0625,493.8281 162.0625,494.1094 C162.0625,494.3906 161.9063,494.6875 161.6563,494.8281 C161.5156,494.9219 161.2969,494.9531 160.9375,494.9531 L158.5781,494.9531 C158.1563,494.9531 157.9531,494.9063 157.8125,494.7813 C157.5938,494.625 157.4531,494.375 157.4531,494.1094 C157.4531,493.8125 157.6094,493.5313 157.8594,493.375 C158.0156,493.2656 158.125,493.25 158.5781,493.25 L158.9688,493.25 Z M157.875,490.5625 L156.5469,487.2969 L155.2031,490.5625 Z "/><text fill="#000000" font-family="sans-serif" font-size="12" lengthAdjust="spacingAndGlyphs" textLength="81" x="171" y="494.6074">basicLaplace</text><line style="stroke: #A80036; stroke-width: 1.5;" x1="143" x2="254" y1="506.4531" y2="506.4531"/><line style="stroke: #A80036; stroke-width: 1.5;" x1="143" x2="254" y1="514.4531" y2="514.4531"/><ellipse cx="153" cy="526.3555" fill="#84BE84" rx="3" ry="3" style="stroke: #038048; stroke-width: 1.0;"/><text fill="#000000" font-family="sans-serif" font-size="11" lengthAdjust="spacingAndGlyphs" textLength="81" x="162" y="528.6636">basicLaplace()</text><!--class L1laplace--><rect fill="#FEFECE" filter="url(#f3f3qpt)" height="60.8047" style="stroke: #A80036; stroke-width: 1.5;" width="91" x="220" y="601.9531"/><ellipse cx="235" cy="617.9531" fill="#E6FFE6" rx="11" ry="11" style="stroke: #A80036; stroke-width: 1.0;"/><path d="M236.9531,618.8594 L233.3125,618.8594 L233.3125,621.25 L233.5625,621.25 C234.0156,621.25 234.1875,621.2813 234.3281,621.4063 C234.5625,621.5781 234.6875,621.8281 234.6875,622.1094 C234.6875,622.3906 234.5313,622.6875 234.2813,622.8281 C234.1406,622.9219 233.9219,622.9531 233.5625,622.9531 L231.5156,622.9531 C231.1094,622.9531 230.8906,622.9063 230.7344,622.7969 C230.5313,622.625 230.3906,622.3594 230.3906,622.1094 C230.3906,621.8125 230.5469,621.5313 230.7969,621.375 C230.9531,621.2656 231.0938,621.25 231.5156,621.25 L231.6094,621.25 L231.6094,614.7344 C231.0469,614.6875 230.7344,614.3906 230.7344,613.8906 C230.7344,613.6094 230.8906,613.3125 231.1406,613.1563 C231.2969,613.0625 231.4219,613.0469 231.8594,613.0469 L233.5625,613.0469 C234.0313,613.0469 234.1875,613.0781 234.3281,613.1875 C234.5625,613.3594 234.6875,613.625 234.6875,613.8906 C234.6875,614.1875 234.5313,614.4688 234.2813,614.625 C234.125,614.7031 233.9844,614.7344 233.5625,614.7344 L233.3125,614.7344 L233.3125,617.1563 L236.9531,617.1563 L236.9531,614.7344 L236.7031,614.7344 C236.25,614.7344 236.1094,614.7031 235.9375,614.5938 C235.7188,614.4219 235.5781,614.1719 235.5781,613.8906 C235.5781,613.6094 235.7344,613.3125 235.9844,613.1563 C236.1406,613.0625 236.2656,613.0469 236.7031,613.0469 L238.4219,613.0469 C238.875,613.0469 239.0313,613.0781 239.2031,613.1875 C239.4063,613.3594 239.5313,613.625 239.5313,613.8906 C239.5313,614.3906 239.2188,614.6875 238.6563,614.7344 L238.6563,621.25 L238.75,621.25 C239.2188,621.25 239.3594,621.2813 239.5156,621.4063 C239.7344,621.5781 239.875,621.8281 239.875,622.1094 C239.875,622.3906 239.7188,622.6875 239.4688,622.8281 C239.3281,622.9219 239.1094,622.9531 238.75,622.9531 L236.7031,622.9531 C236.2969,622.9531 236.0938,622.9063 235.9375,622.7969 C235.7188,622.625 235.5781,622.3594 235.5781,622.1094 C235.5781,621.8125 235.7344,621.5313 235.9844,621.375 C236.1406,621.2656 236.2969,621.25 236.7031,621.25 L236.9531,621.25 Z "/><text fill="#000000" font-family="sans-serif" font-size="12" lengthAdjust="spacingAndGlyphs" textLength="59" x="249" y="622.1074">L1laplace</text><line style="stroke: #A80036; stroke-width: 1.5;" x1="221" x2="310" y1="633.9531" y2="633.9531"/><line style="stroke: #A80036; stroke-width: 1.5;" x1="221" x2="310" y1="641.9531" y2="641.9531"/><ellipse cx="231" cy="653.8555" fill="#84BE84" rx="3" ry="3" style="stroke: #038048; stroke-width: 1.0;"/><text fill="#000000" font-family="sans-serif" font-size="11" lengthAdjust="spacingAndGlyphs" textLength="61" x="240" y="656.1636">L1laplace()</text><!--class L2laplace--><rect fill="#FEFECE" filter="url(#f3f3qpt)" height="60.8047" style="stroke: #A80036; stroke-width: 1.5;" width="91" x="86" y="601.9531"/><ellipse cx="101" cy="617.9531" fill="#E6FFE6" rx="11" ry="11" style="stroke: #A80036; stroke-width: 1.0;"/><path d="M102.9531,618.8594 L99.3125,618.8594 L99.3125,621.25 L99.5625,621.25 C100.0156,621.25 100.1875,621.2813 100.3281,621.4063 C100.5625,621.5781 100.6875,621.8281 100.6875,622.1094 C100.6875,622.3906 100.5313,622.6875 100.2813,622.8281 C100.1406,622.9219 99.9219,622.9531 99.5625,622.9531 L97.5156,622.9531 C97.1094,622.9531 96.8906,622.9063 96.7344,622.7969 C96.5313,622.625 96.3906,622.3594 96.3906,622.1094 C96.3906,621.8125 96.5469,621.5313 96.7969,621.375 C96.9531,621.2656 97.0938,621.25 97.5156,621.25 L97.6094,621.25 L97.6094,614.7344 C97.0469,614.6875 96.7344,614.3906 96.7344,613.8906 C96.7344,613.6094 96.8906,613.3125 97.1406,613.1563 C97.2969,613.0625 97.4219,613.0469 97.8594,613.0469 L99.5625,613.0469 C100.0313,613.0469 100.1875,613.0781 100.3281,613.1875 C100.5625,613.3594 100.6875,613.625 100.6875,613.8906 C100.6875,614.1875 100.5313,614.4688 100.2813,614.625 C100.125,614.7031 99.9844,614.7344 99.5625,614.7344 L99.3125,614.7344 L99.3125,617.1563 L102.9531,617.1563 L102.9531,614.7344 L102.7031,614.7344 C102.25,614.7344 102.1094,614.7031 101.9375,614.5938 C101.7188,614.4219 101.5781,614.1719 101.5781,613.8906 C101.5781,613.6094 101.7344,613.3125 101.9844,613.1563 C102.1406,613.0625 102.2656,613.0469 102.7031,613.0469 L104.4219,613.0469 C104.875,613.0469 105.0313,613.0781 105.2031,613.1875 C105.4063,613.3594 105.5313,613.625 105.5313,613.8906 C105.5313,614.3906 105.2188,614.6875 104.6563,614.7344 L104.6563,621.25 L104.75,621.25 C105.2188,621.25 105.3594,621.2813 105.5156,621.4063 C105.7344,621.5781 105.875,621.8281 105.875,622.1094 C105.875,622.3906 105.7188,622.6875 105.4688,622.8281 C105.3281,622.9219 105.1094,622.9531 104.75,622.9531 L102.7031,622.9531 C102.2969,622.9531 102.0938,622.9063 101.9375,622.7969 C101.7188,622.625 101.5781,622.3594 101.5781,622.1094 C101.5781,621.8125 101.7344,621.5313 101.9844,621.375 C102.1406,621.2656 102.2969,621.25 102.7031,621.25 L102.9531,621.25 Z "/><text fill="#000000" font-family="sans-serif" font-size="12" lengthAdjust="spacingAndGlyphs" textLength="59" x="115" y="622.1074">L2laplace</text><line style="stroke: #A80036; stroke-width: 1.5;" x1="87" x2="176" y1="633.9531" y2="633.9531"/><line style="stroke: #A80036; stroke-width: 1.5;" x1="87" x2="176" y1="641.9531" y2="641.9531"/><ellipse cx="97" cy="653.8555" fill="#84BE84" rx="3" ry="3" style="stroke: #038048; stroke-width: 1.0;"/><text fill="#000000" font-family="sans-serif" font-size="11" lengthAdjust="spacingAndGlyphs" textLength="61" x="106" y="656.1636">L2laplace()</text><!--class tildeMultiOperatorMultiDual--><rect fill="#FEFECE" filter="url(#f3f3qpt)" height="99.2188" style="stroke: #A80036; stroke-width: 1.5;" width="201" x="8" y="162.4531"/><ellipse cx="23" cy="178.4531" fill="#E6FFE6" rx="11" ry="11" style="stroke: #A80036; stroke-width: 1.0;"/><path d="M24.9531,179.3594 L21.3125,179.3594 L21.3125,181.75 L21.5625,181.75 C22.0156,181.75 22.1875,181.7813 22.3281,181.9063 C22.5625,182.0781 22.6875,182.3281 22.6875,182.6094 C22.6875,182.8906 22.5313,183.1875 22.2813,183.3281 C22.1406,183.4219 21.9219,183.4531 21.5625,183.4531 L19.5156,183.4531 C19.1094,183.4531 18.8906,183.4063 18.7344,183.2969 C18.5313,183.125 18.3906,182.8594 18.3906,182.6094 C18.3906,182.3125 18.5469,182.0313 18.7969,181.875 C18.9531,181.7656 19.0938,181.75 19.5156,181.75 L19.6094,181.75 L19.6094,175.2344 C19.0469,175.1875 18.7344,174.8906 18.7344,174.3906 C18.7344,174.1094 18.8906,173.8125 19.1406,173.6563 C19.2969,173.5625 19.4219,173.5469 19.8594,173.5469 L21.5625,173.5469 C22.0313,173.5469 22.1875,173.5781 22.3281,173.6875 C22.5625,173.8594 22.6875,174.125 22.6875,174.3906 C22.6875,174.6875 22.5313,174.9688 22.2813,175.125 C22.125,175.2031 21.9844,175.2344 21.5625,175.2344 L21.3125,175.2344 L21.3125,177.6563 L24.9531,177.6563 L24.9531,175.2344 L24.7031,175.2344 C24.25,175.2344 24.1094,175.2031 23.9375,175.0938 C23.7188,174.9219 23.5781,174.6719 23.5781,174.3906 C23.5781,174.1094 23.7344,173.8125 23.9844,173.6563 C24.1406,173.5625 24.2656,173.5469 24.7031,173.5469 L26.4219,173.5469 C26.875,173.5469 27.0313,173.5781 27.2031,173.6875 C27.4063,173.8594 27.5313,174.125 27.5313,174.3906 C27.5313,174.8906 27.2188,175.1875 26.6563,175.2344 L26.6563,181.75 L26.75,181.75 C27.2188,181.75 27.3594,181.7813 27.5156,181.9063 C27.7344,182.0781 27.875,182.3281 27.875,182.6094 C27.875,182.8906 27.7188,183.1875 27.4688,183.3281 C27.3281,183.4219 27.1094,183.4531 26.75,183.4531 L24.7031,183.4531 C24.2969,183.4531 24.0938,183.4063 23.9375,183.2969 C23.7188,183.125 23.5781,182.8594 23.5781,182.6094 C23.5781,182.3125 23.7344,182.0313 23.9844,181.875 C24.1406,181.7656 24.2969,181.75 24.7031,181.75 L24.9531,181.75 Z "/><text fill="#000000" font-family="sans-serif" font-size="12" lengthAdjust="spacingAndGlyphs" textLength="169" x="37" y="182.6074">tildeMultiOperatorMultiDual</text><line style="stroke: #A80036; stroke-width: 1.5;" x1="9" x2="208" y1="194.4531" y2="194.4531"/><line style="stroke: #A80036; stroke-width: 1.5;" x1="9" x2="208" y1="202.4531" y2="202.4531"/><ellipse cx="19" cy="214.3555" fill="#84BE84" rx="3" ry="3" style="stroke: #038048; stroke-width: 1.0;"/><text fill="#000000" font-family="sans-serif" font-size="11" lengthAdjust="spacingAndGlyphs" textLength="43" x="28" y="216.6636">xError()</text><ellipse cx="19" cy="227.1602" fill="#84BE84" rx="3" ry="3" style="stroke: #038048; stroke-width: 1.0;"/><text fill="#000000" font-family="sans-serif" font-size="11" lengthAdjust="spacingAndGlyphs" textLength="41" x="28" y="229.4683">xTilde()</text><ellipse cx="19" cy="239.9648" fill="#84BE84" rx="3" ry="3" style="stroke: #038048; stroke-width: 1.0;"/><text fill="#000000" font-family="sans-serif" font-size="11" lengthAdjust="spacingAndGlyphs" textLength="43" x="28" y="242.2729">yError()</text><ellipse cx="19" cy="252.7695" fill="#84BE84" rx="3" ry="3" style="stroke: #038048; stroke-width: 1.0;"/><text fill="#000000" font-family="sans-serif" font-size="11" lengthAdjust="spacingAndGlyphs" textLength="41" x="28" y="255.0776">yTilde()</text><!--class L1AnisoProxDual--><rect fill="#FEFECE" filter="url(#f3f3qpt)" height="73.6094" style="stroke: #A80036; stroke-width: 1.5;" width="135" x="290" y="467.9531"/><ellipse cx="305" cy="483.9531" fill="#E6FFE6" rx="11" ry="11" style="stroke: #A80036; stroke-width: 1.0;"/><path d="M306.9531,484.8594 L303.3125,484.8594 L303.3125,487.25 L303.5625,487.25 C304.0156,487.25 304.1875,487.2813 304.3281,487.4063 C304.5625,487.5781 304.6875,487.8281 304.6875,488.1094 C304.6875,488.3906 304.5313,488.6875 304.2813,488.8281 C304.1406,488.9219 303.9219,488.9531 303.5625,488.9531 L301.5156,488.9531 C301.1094,488.9531 300.8906,488.9063 300.7344,488.7969 C300.5313,488.625 300.3906,488.3594 300.3906,488.1094 C300.3906,487.8125 300.5469,487.5313 300.7969,487.375 C300.9531,487.2656 301.0938,487.25 301.5156,487.25 L301.6094,487.25 L301.6094,480.7344 C301.0469,480.6875 300.7344,480.3906 300.7344,479.8906 C300.7344,479.6094 300.8906,479.3125 301.1406,479.1563 C301.2969,479.0625 301.4219,479.0469 301.8594,479.0469 L303.5625,479.0469 C304.0313,479.0469 304.1875,479.0781 304.3281,479.1875 C304.5625,479.3594 304.6875,479.625 304.6875,479.8906 C304.6875,480.1875 304.5313,480.4688 304.2813,480.625 C304.125,480.7031 303.9844,480.7344 303.5625,480.7344 L303.3125,480.7344 L303.3125,483.1563 L306.9531,483.1563 L306.9531,480.7344 L306.7031,480.7344 C306.25,480.7344 306.1094,480.7031 305.9375,480.5938 C305.7188,480.4219 305.5781,480.1719 305.5781,479.8906 C305.5781,479.6094 305.7344,479.3125 305.9844,479.1563 C306.1406,479.0625 306.2656,479.0469 306.7031,479.0469 L308.4219,479.0469 C308.875,479.0469 309.0313,479.0781 309.2031,479.1875 C309.4063,479.3594 309.5313,479.625 309.5313,479.8906 C309.5313,480.3906 309.2188,480.6875 308.6563,480.7344 L308.6563,487.25 L308.75,487.25 C309.2188,487.25 309.3594,487.2813 309.5156,487.4063 C309.7344,487.5781 309.875,487.8281 309.875,488.1094 C309.875,488.3906 309.7188,488.6875 309.4688,488.8281 C309.3281,488.9219 309.1094,488.9531 308.75,488.9531 L306.7031,488.9531 C306.2969,488.9531 306.0938,488.9063 305.9375,488.7969 C305.7188,488.625 305.5781,488.3594 305.5781,488.1094 C305.5781,487.8125 305.7344,487.5313 305.9844,487.375 C306.1406,487.2656 306.2969,487.25 306.7031,487.25 L306.9531,487.25 Z "/><text fill="#000000" font-family="sans-serif" font-size="12" lengthAdjust="spacingAndGlyphs" textLength="103" x="319" y="488.1074">L1AnisoProxDual</text><line style="stroke: #A80036; stroke-width: 1.5;" x1="291" x2="424" y1="499.9531" y2="499.9531"/><line style="stroke: #A80036; stroke-width: 1.5;" x1="291" x2="424" y1="507.9531" y2="507.9531"/><ellipse cx="301" cy="519.8555" fill="#84BE84" rx="3" ry="3" style="stroke: #038048; stroke-width: 1.0;"/><text fill="#000000" font-family="sans-serif" font-size="11" lengthAdjust="spacingAndGlyphs" textLength="102" x="310" y="522.1636">L1AnisoProxDual()</text><ellipse cx="301" cy="532.6602" fill="#84BE84" rx="3" ry="3" style="stroke: #038048; stroke-width: 1.0;"/><text fill="#000000" font-family="sans-serif" font-size="11" lengthAdjust="spacingAndGlyphs" textLength="63" x="310" y="534.9683">applyProx()</text><!--class L2proxDual--><rect fill="#FEFECE" filter="url(#f3f3qpt)" height="73.6094" style="stroke: #A80036; stroke-width: 1.5;" width="101" x="6" y="467.9531"/><ellipse cx="21" cy="483.9531" fill="#E6FFE6" rx="11" ry="11" style="stroke: #A80036; stroke-width: 1.0;"/><path d="M22.9531,484.8594 L19.3125,484.8594 L19.3125,487.25 L19.5625,487.25 C20.0156,487.25 20.1875,487.2813 20.3281,487.4063 C20.5625,487.5781 20.6875,487.8281 20.6875,488.1094 C20.6875,488.3906 20.5313,488.6875 20.2813,488.8281 C20.1406,488.9219 19.9219,488.9531 19.5625,488.9531 L17.5156,488.9531 C17.1094,488.9531 16.8906,488.9063 16.7344,488.7969 C16.5313,488.625 16.3906,488.3594 16.3906,488.1094 C16.3906,487.8125 16.5469,487.5313 16.7969,487.375 C16.9531,487.2656 17.0938,487.25 17.5156,487.25 L17.6094,487.25 L17.6094,480.7344 C17.0469,480.6875 16.7344,480.3906 16.7344,479.8906 C16.7344,479.6094 16.8906,479.3125 17.1406,479.1563 C17.2969,479.0625 17.4219,479.0469 17.8594,479.0469 L19.5625,479.0469 C20.0313,479.0469 20.1875,479.0781 20.3281,479.1875 C20.5625,479.3594 20.6875,479.625 20.6875,479.8906 C20.6875,480.1875 20.5313,480.4688 20.2813,480.625 C20.125,480.7031 19.9844,480.7344 19.5625,480.7344 L19.3125,480.7344 L19.3125,483.1563 L22.9531,483.1563 L22.9531,480.7344 L22.7031,480.7344 C22.25,480.7344 22.1094,480.7031 21.9375,480.5938 C21.7188,480.4219 21.5781,480.1719 21.5781,479.8906 C21.5781,479.6094 21.7344,479.3125 21.9844,479.1563 C22.1406,479.0625 22.2656,479.0469 22.7031,479.0469 L24.4219,479.0469 C24.875,479.0469 25.0313,479.0781 25.2031,479.1875 C25.4063,479.3594 25.5313,479.625 25.5313,479.8906 C25.5313,480.3906 25.2188,480.6875 24.6563,480.7344 L24.6563,487.25 L24.75,487.25 C25.2188,487.25 25.3594,487.2813 25.5156,487.4063 C25.7344,487.5781 25.875,487.8281 25.875,488.1094 C25.875,488.3906 25.7188,488.6875 25.4688,488.8281 C25.3281,488.9219 25.1094,488.9531 24.75,488.9531 L22.7031,488.9531 C22.2969,488.9531 22.0938,488.9063 21.9375,488.7969 C21.7188,488.625 21.5781,488.3594 21.5781,488.1094 C21.5781,487.8125 21.7344,487.5313 21.9844,487.375 C22.1406,487.2656 22.2969,487.25 22.7031,487.25 L22.9531,487.25 Z "/><text fill="#000000" font-family="sans-serif" font-size="12" lengthAdjust="spacingAndGlyphs" textLength="69" x="35" y="488.1074">L2proxDual</text><line style="stroke: #A80036; stroke-width: 1.5;" x1="7" x2="106" y1="499.9531" y2="499.9531"/><line style="stroke: #A80036; stroke-width: 1.5;" x1="7" x2="106" y1="507.9531" y2="507.9531"/><ellipse cx="17" cy="519.8555" fill="#84BE84" rx="3" ry="3" style="stroke: #038048; stroke-width: 1.0;"/><text fill="#000000" font-family="sans-serif" font-size="11" lengthAdjust="spacingAndGlyphs" textLength="71" x="26" y="522.1636">L2proxDual()</text><ellipse cx="17" cy="532.6602" fill="#84BE84" rx="3" ry="3" style="stroke: #038048; stroke-width: 1.0;"/><text fill="#000000" font-family="sans-serif" font-size="11" lengthAdjust="spacingAndGlyphs" textLength="63" x="26" y="534.9683">applyProx()</text><!--class functionalPart--><rect fill="#FEFECE" filter="url(#f3f3qpt)" height="48" style="stroke: #A80036; stroke-width: 1.5;" width="120" x="228.5" y="28.9531"/><ellipse cx="243.5" cy="44.9531" fill="#ADD1B2" rx="11" ry="11" style="stroke: #A80036; stroke-width: 1.0;"/><path d="M245.8438,40.625 L246.0156,40.7031 C246.2344,40.3906 246.4375,40.2969 246.7344,40.2969 C247.0313,40.2969 247.3125,40.4375 247.4688,40.7031 C247.5625,40.8594 247.5781,40.9844 247.5781,41.4219 L247.5781,42.8438 C247.5781,43.2656 247.5469,43.4531 247.4375,43.6094 C247.2656,43.8281 247,43.9688 246.7344,43.9688 C246.5156,43.9688 246.2813,43.8594 246.1406,43.7188 C246,43.5938 245.9688,43.4688 245.9063,43.0625 C245.8125,42.6563 245.6406,42.4375 245.1563,42.1563 C244.6875,41.9063 244.0781,41.75 243.5,41.75 C241.7656,41.75 240.5156,43.0625 240.5156,44.8438 L240.5156,45.9375 C240.5156,47.6406 241.8125,48.7344 243.8594,48.7344 C244.625,48.7344 245.3125,48.6094 245.7344,48.3438 C245.9219,48.25 245.9219,48.25 246.375,47.7656 C246.5625,47.5781 246.7656,47.5 246.9844,47.5 C247.4531,47.5 247.8438,47.8906 247.8438,48.3438 C247.8438,48.7344 247.5156,49.1875 246.9375,49.5938 C246.1875,50.1406 245.0313,50.4375 243.8125,50.4375 C240.9219,50.4375 238.8125,48.5469 238.8125,45.9688 L238.8125,44.8438 C238.8125,42.125 240.8125,40.0469 243.4375,40.0469 C244.3125,40.0469 244.9063,40.1875 245.8438,40.625 Z "/><text fill="#000000" font-family="sans-serif" font-size="12" lengthAdjust="spacingAndGlyphs" textLength="88" x="257.5" y="49.1074">functionalPart</text><line style="stroke: #A80036; stroke-width: 1.5;" x1="229.5" x2="347.5" y1="60.9531" y2="60.9531"/><line style="stroke: #A80036; stroke-width: 1.5;" x1="229.5" x2="347.5" y1="68.9531" y2="68.9531"/><path d="M288.5,97.3281 C288.5,109.6191 288.5,123.3581 288.5,136.9181 " fill="none" style="stroke: #A80036; stroke-width: 1.0;"/><polygon fill="none" points="281.5,97.1191,288.5,77.1191,295.5,97.1191,281.5,97.1191" style="stroke: #A80036; stroke-width: 1.0;"/><path d="M237.883,304.9081 C229.551,320.0431 221.481,334.7051 214.837,346.7731 " fill="none" style="stroke: #A80036; stroke-width: 1.0;"/><polygon fill="none" points="231.936,301.1941,247.713,287.0491,244.201,307.9451,231.936,301.1941" style="stroke: #A80036; stroke-width: 1.0;"/><path d="M145.074,279.3951 C157.954,302.7951 171.79,327.9291 182.154,346.7571 " fill="none" style="stroke: #A80036; stroke-width: 1.0;"/><polygon fill="none" points="138.772,282.4621,135.259,261.5661,151.036,275.7111,138.772,282.4621" style="stroke: #A80036; stroke-width: 1.0;"/><path d="M198.5,428.4001 C198.5,444.0001 198.5,460.7021 198.5,474.4251 " fill="none" style="stroke: #A80036; stroke-width: 1.0;"/><polygon fill="none" points="191.5,428.1951,198.5,408.1951,205.5,428.1951,191.5,428.1951" style="stroke: #A80036; stroke-width: 1.0;"/><path d="M223.892,553.5161 C232.577,569.7837 242.035,587.4999 249.736,601.9248 " fill="none" style="stroke: #A80036; stroke-width: 1.0;"/><polygon fill="none" points="217.622,556.6351,214.378,535.6951,229.972,550.0411,217.622,556.6351" style="stroke: #A80036; stroke-width: 1.0;"/><path d="M319.064,558.3851 C308.258,573.1261 296.879,588.6487 287.401,601.5771 " fill="none" style="stroke: #A80036; stroke-width: 1.0;"/><polygon fill="none" points="313.42,554.2441,330.89,542.2531,324.711,562.5221,313.42,554.2441" style="stroke: #A80036; stroke-width: 1.0;"/><path d="M173.108,553.5161 C164.423,569.7837 154.965,587.4999 147.264,601.9248 " fill="none" style="stroke: #A80036; stroke-width: 1.0;"/><polygon fill="none" points="167.028,550.0411,182.622,535.6951,179.378,556.6351,167.028,550.0411" style="stroke: #A80036; stroke-width: 1.0;"/><path d="M88.6875,559.8131 C97.2401,574.1248 106.169,589.0658 113.646,601.5771 " fill="none" style="stroke: #A80036; stroke-width: 1.0;"/><polygon fill="none" points="82.4441,563.0118,78.1931,542.2531,94.4617,555.8301,82.4441,563.0118" style="stroke: #A80036; stroke-width: 1.0;"/></g></svg>