<?xml version="1.0" encoding="UTF-8" standalone="no"?><svg xmlns="http://www.w3.org/2000/svg" xmlns:xlink="http://www.w3.org/1999/xlink" contentScriptType="application/ecmascript" contentStyleType="text/css" height="550px" preserveAspectRatio="none" style="width:644px;height:550px;" version="1.1" viewBox="0 0 644 550" width="644px" zoomAndPan="magnify"><defs><filter height="300%" id="fpbp2hq" width="300%" x="-1" y="-1"><feGaussianBlur result="blurOut" stdDeviation="2.0"/><feColorMatrix in="blurOut" result="blurOut2" type="matrix" values="0 0 0 0 0 0 0 0 0 0 0 0 0 0 0 0 0 0 .4 0"/><feOffset dx="4.0" dy="4.0" in="blurOut2" result="blurOut3"/><feBlend in="SourceGraphic" in2="blurOut3" mode="normal"/></filter></defs><g><text fill="#000000" font-family="sans-serif" font-size="18" font-weight="bold" lengthAdjust="spacingAndGlyphs" textLength="287" x="183" y="16.708">Regularizer Terms (Hessian)</text><!--class dualPart--><rect fill="#FEFECE" filter="url(#fpbp2hq)" height="150.4375" style="stroke: #A80036; stroke-width: 1.5;" width="89" x="461" y="136.9531"/><ellipse cx="477.8" cy="152.9531" fill="#E6FFE6" rx="11" ry="11" style="stroke: #A80036; stroke-width: 1.0;"/><path d="M479.3781,154.7656 L475.3313,154.7656 L474.9406,155.75 L475.3313,155.75 C475.7844,155.75 475.925,155.7813 476.0969,155.9063 C476.3156,156.0781 476.4406,156.3281 476.4406,156.6094 C476.4406,156.8906 476.3,157.1875 476.0344,157.3281 C475.9094,157.4219 475.6906,157.4531 475.3313,157.4531 L473.0656,157.4531 C472.3156,157.4531 471.9406,157.1719 471.9406,156.6094 C471.9406,156.3125 472.0969,156.0313 472.3469,155.875 C472.5031,155.7656 472.6594,155.75 473.0813,155.75 L475.7219,149.2344 L474.6438,149.2344 C474.2063,149.2344 474.0344,149.2031 473.8625,149.0938 C473.6438,148.9219 473.5031,148.6719 473.5031,148.3906 C473.5031,148.1094 473.6594,147.8281 473.9094,147.6563 C474.0656,147.5625 474.1906,147.5469 474.6438,147.5469 L478.3156,147.5469 L481.7063,155.75 C482.175,155.75 482.3313,155.7813 482.5031,155.9219 C482.7219,156.0781 482.8625,156.3281 482.8625,156.6094 C482.8625,156.8906 482.7063,157.1875 482.4563,157.3281 C482.3156,157.4219 482.0969,157.4531 481.7375,157.4531 L479.3781,157.4531 C478.9563,157.4531 478.7531,157.4063 478.6125,157.2813 C478.3938,157.125 478.2531,156.875 478.2531,156.6094 C478.2531,156.3125 478.4094,156.0313 478.6594,155.875 C478.8156,155.7656 478.925,155.75 479.3781,155.75 L479.7688,155.75 Z M478.675,153.0625 L477.3469,149.7969 L476.0031,153.0625 Z "/><text fill="#000000" font-family="sans-serif" font-size="12" lengthAdjust="spacingAndGlyphs" textLength="53" x="492.2" y="157.1074">dualPart</text><line style="stroke: #A80036; stroke-width: 1.5;" x1="462" x2="549" y1="168.9531" y2="168.9531"/><ellipse cx="472" cy="180.8555" fill="none" rx="3" ry="3" style="stroke: #038048; stroke-width: 1.0;"/><text fill="#000000" font-family="sans-serif" font-size="11" lengthAdjust="spacingAndGlyphs" textLength="35" x="481" y="183.1636">length</text><ellipse cx="472" cy="193.6602" fill="none" rx="3" ry="3" style="stroke: #038048; stroke-width: 1.0;"/><text fill="#000000" font-family="sans-serif" font-size="11" lengthAdjust="spacingAndGlyphs" textLength="53" x="481" y="195.9683">mySigma</text><ellipse cx="472" cy="206.4648" fill="none" rx="3" ry="3" style="stroke: #038048; stroke-width: 1.0;"/><text fill="#000000" font-family="sans-serif" font-size="11" lengthAdjust="spacingAndGlyphs" textLength="38" x="481" y="208.7729">myTau</text><ellipse cx="472" cy="219.2695" fill="none" rx="3" ry="3" style="stroke: #038048; stroke-width: 1.0;"/><text fill="#000000" font-family="sans-serif" font-size="11" lengthAdjust="spacingAndGlyphs" textLength="51" x="481" y="221.5776">numVars</text><ellipse cx="472" cy="232.0742" fill="none" rx="3" ry="3" style="stroke: #038048; stroke-width: 1.0;"/><text fill="#000000" font-family="sans-serif" font-size="11" lengthAdjust="spacingAndGlyphs" textLength="49" x="481" y="234.3823">operator</text><ellipse cx="472" cy="244.8789" fill="none" rx="3" ry="3" style="stroke: #038048; stroke-width: 1.0;"/><text fill="#000000" font-family="sans-serif" font-size="11" lengthAdjust="spacingAndGlyphs" textLength="56" x="481" y="247.187">operatorT</text><line style="stroke: #A80036; stroke-width: 1.5;" x1="462" x2="549" y1="253.7813" y2="253.7813"/><ellipse cx="472" cy="265.6836" fill="#84BE84" rx="3" ry="3" style="stroke: #038048; stroke-width: 1.0;"/><text fill="#000000" font-family="sans-serif" font-size="11" lengthAdjust="spacingAndGlyphs" textLength="55" x="481" y="267.9917">dualPart()</text><ellipse cx="472" cy="278.4883" fill="#84BE84" rx="3" ry="3" style="stroke: #038048; stroke-width: 1.0;"/><text fill="#000000" font-family="sans-serif" font-size="11" lengthAdjust="spacingAndGlyphs" textLength="63" x="481" y="280.7964">applyProx()</text><!--class basicDualizedOperator--><rect fill="#FEFECE" filter="url(#fpbp2hq)" height="60.8047" style="stroke: #A80036; stroke-width: 1.5;" width="173" x="462" y="353.4531"/><ellipse cx="477" cy="369.4531" fill="#E6FFE6" rx="11" ry="11" style="stroke: #A80036; stroke-width: 1.0;"/><path d="M478.5781,371.2656 L474.5313,371.2656 L474.1406,372.25 L474.5313,372.25 C474.9844,372.25 475.125,372.2813 475.2969,372.4063 C475.5156,372.5781 475.6406,372.8281 475.6406,373.1094 C475.6406,373.3906 475.5,373.6875 475.2344,373.8281 C475.1094,373.9219 474.8906,373.9531 474.5313,373.9531 L472.2656,373.9531 C471.5156,373.9531 471.1406,373.6719 471.1406,373.1094 C471.1406,372.8125 471.2969,372.5313 471.5469,372.375 C471.7031,372.2656 471.8594,372.25 472.2813,372.25 L474.9219,365.7344 L473.8438,365.7344 C473.4063,365.7344 473.2344,365.7031 473.0625,365.5938 C472.8438,365.4219 472.7031,365.1719 472.7031,364.8906 C472.7031,364.6094 472.8594,364.3281 473.1094,364.1563 C473.2656,364.0625 473.3906,364.0469 473.8438,364.0469 L477.5156,364.0469 L480.9063,372.25 C481.375,372.25 481.5313,372.2813 481.7031,372.4219 C481.9219,372.5781 482.0625,372.8281 482.0625,373.1094 C482.0625,373.3906 481.9063,373.6875 481.6563,373.8281 C481.5156,373.9219 481.2969,373.9531 480.9375,373.9531 L478.5781,373.9531 C478.1563,373.9531 477.9531,373.9063 477.8125,373.7813 C477.5938,373.625 477.4531,373.375 477.4531,373.1094 C477.4531,372.8125 477.6094,372.5313 477.8594,372.375 C478.0156,372.2656 478.125,372.25 478.5781,372.25 L478.9688,372.25 Z M477.875,369.5625 L476.5469,366.2969 L475.2031,369.5625 Z "/><text fill="#000000" font-family="sans-serif" font-size="12" lengthAdjust="spacingAndGlyphs" textLength="141" x="491" y="373.6074">basicDualizedOperator</text><line style="stroke: #A80036; stroke-width: 1.5;" x1="463" x2="634" y1="385.4531" y2="385.4531"/><line style="stroke: #A80036; stroke-width: 1.5;" x1="463" x2="634" y1="393.4531" y2="393.4531"/><ellipse cx="473" cy="405.3555" fill="#84BE84" rx="3" ry="3" style="stroke: #038048; stroke-width: 1.0;"/><text fill="#000000" font-family="sans-serif" font-size="11" lengthAdjust="spacingAndGlyphs" textLength="136" x="482" y="407.6636">basicDualizedOperator()</text><!--class basicHessian--><rect fill="#FEFECE" filter="url(#fpbp2hq)" height="60.8047" style="stroke: #A80036; stroke-width: 1.5;" width="115" x="142" y="353.4531"/><ellipse cx="157" cy="369.4531" fill="#E6FFE6" rx="11" ry="11" style="stroke: #A80036; stroke-width: 1.0;"/><path d="M158.5781,371.2656 L154.5313,371.2656 L154.1406,372.25 L154.5313,372.25 C154.9844,372.25 155.125,372.2813 155.2969,372.4063 C155.5156,372.5781 155.6406,372.8281 155.6406,373.1094 C155.6406,373.3906 155.5,373.6875 155.2344,373.8281 C155.1094,373.9219 154.8906,373.9531 154.5313,373.9531 L152.2656,373.9531 C151.5156,373.9531 151.1406,373.6719 151.1406,373.1094 C151.1406,372.8125 151.2969,372.5313 151.5469,372.375 C151.7031,372.2656 151.8594,372.25 152.2813,372.25 L154.9219,365.7344 L153.8438,365.7344 C153.4063,365.7344 153.2344,365.7031 153.0625,365.5938 C152.8438,365.4219 152.7031,365.1719 152.7031,364.8906 C152.7031,364.6094 152.8594,364.3281 153.1094,364.1563 C153.2656,364.0625 153.3906,364.0469 153.8438,364.0469 L157.5156,364.0469 L160.9063,372.25 C161.375,372.25 161.5313,372.2813 161.7031,372.4219 C161.9219,372.5781 162.0625,372.8281 162.0625,373.1094 C162.0625,373.3906 161.9063,373.6875 161.6563,373.8281 C161.5156,373.9219 161.2969,373.9531 160.9375,373.9531 L158.5781,373.9531 C158.1563,373.9531 157.9531,373.9063 157.8125,373.7813 C157.5938,373.625 157.4531,373.375 157.4531,373.1094 C157.4531,372.8125 157.6094,372.5313 157.8594,372.375 C158.0156,372.2656 158.125,372.25 158.5781,372.25 L158.9688,372.25 Z M157.875,369.5625 L156.5469,366.2969 L155.2031,369.5625 Z "/><text fill="#000000" font-family="sans-serif" font-size="12" lengthAdjust="spacingAndGlyphs" textLength="83" x="171" y="373.6074">basicHessian</text><line style="stroke: #A80036; stroke-width: 1.5;" x1="143" x2="256" y1="385.4531" y2="385.4531"/><line style="stroke: #A80036; stroke-width: 1.5;" x1="143" x2="256" y1="393.4531" y2="393.4531"/><ellipse cx="153" cy="405.3555" fill="#84BE84" rx="3" ry="3" style="stroke: #038048; stroke-width: 1.0;"/><text fill="#000000" font-family="sans-serif" font-size="11" lengthAdjust="spacingAndGlyphs" textLength="84" x="162" y="407.6636">basicHessian()</text><!--class L1hessian--><rect fill="#FEFECE" filter="url(#fpbp2hq)" height="60.8047" style="stroke: #A80036; stroke-width: 1.5;" width="95" x="220" y="480.9531"/><ellipse cx="235" cy="496.9531" fill="#E6FFE6" rx="11" ry="11" style="stroke: #A80036; stroke-width: 1.0;"/><path d="M236.9531,497.8594 L233.3125,497.8594 L233.3125,500.25 L233.5625,500.25 C234.0156,500.25 234.1875,500.2813 234.3281,500.4063 C234.5625,500.5781 234.6875,500.8281 234.6875,501.1094 C234.6875,501.3906 234.5313,501.6875 234.2813,501.8281 C234.1406,501.9219 233.9219,501.9531 233.5625,501.9531 L231.5156,501.9531 C231.1094,501.9531 230.8906,501.9063 230.7344,501.7969 C230.5313,501.625 230.3906,501.3594 230.3906,501.1094 C230.3906,500.8125 230.5469,500.5313 230.7969,500.375 C230.9531,500.2656 231.0938,500.25 231.5156,500.25 L231.6094,500.25 L231.6094,493.7344 C231.0469,493.6875 230.7344,493.3906 230.7344,492.8906 C230.7344,492.6094 230.8906,492.3125 231.1406,492.1563 C231.2969,492.0625 231.4219,492.0469 231.8594,492.0469 L233.5625,492.0469 C234.0313,492.0469 234.1875,492.0781 234.3281,492.1875 C234.5625,492.3594 234.6875,492.625 234.6875,492.8906 C234.6875,493.1875 234.5313,493.4688 234.2813,493.625 C234.125,493.7031 233.9844,493.7344 233.5625,493.7344 L233.3125,493.7344 L233.3125,496.1563 L236.9531,496.1563 L236.9531,493.7344 L236.7031,493.7344 C236.25,493.7344 236.1094,493.7031 235.9375,493.5938 C235.7188,493.4219 235.5781,493.1719 235.5781,492.8906 C235.5781,492.6094 235.7344,492.3125 235.9844,492.1563 C236.1406,492.0625 236.2656,492.0469 236.7031,492.0469 L238.4219,492.0469 C238.875,492.0469 239.0313,492.0781 239.2031,492.1875 C239.4063,492.3594 239.5313,492.625 239.5313,492.8906 C239.5313,493.3906 239.2188,493.6875 238.6563,493.7344 L238.6563,500.25 L238.75,500.25 C239.2188,500.25 239.3594,500.2813 239.5156,500.4063 C239.7344,500.5781 239.875,500.8281 239.875,501.1094 C239.875,501.3906 239.7188,501.6875 239.4688,501.8281 C239.3281,501.9219 239.1094,501.9531 238.75,501.9531 L236.7031,501.9531 C236.2969,501.9531 236.0938,501.9063 235.9375,501.7969 C235.7188,501.625 235.5781,501.3594 235.5781,501.1094 C235.5781,500.8125 235.7344,500.5313 235.9844,500.375 C236.1406,500.2656 236.2969,500.25 236.7031,500.25 L236.9531,500.25 Z "/><text fill="#000000" font-family="sans-serif" font-size="12" lengthAdjust="spacingAndGlyphs" textLength="63" x="249" y="501.1074">L1hessian</text><line style="stroke: #A80036; stroke-width: 1.5;" x1="221" x2="314" y1="512.9531" y2="512.9531"/><line style="stroke: #A80036; stroke-width: 1.5;" x1="221" x2="314" y1="520.9531" y2="520.9531"/><ellipse cx="231" cy="532.8555" fill="#84BE84" rx="3" ry="3" style="stroke: #038048; stroke-width: 1.0;"/><text fill="#000000" font-family="sans-serif" font-size="11" lengthAdjust="spacingAndGlyphs" textLength="66" x="240" y="535.1636">L1hessian()</text><!--class L2hessian--><rect fill="#FEFECE" filter="url(#fpbp2hq)" height="60.8047" style="stroke: #A80036; stroke-width: 1.5;" width="95" x="84" y="480.9531"/><ellipse cx="99" cy="496.9531" fill="#E6FFE6" rx="11" ry="11" style="stroke: #A80036; stroke-width: 1.0;"/><path d="M100.9531,497.8594 L97.3125,497.8594 L97.3125,500.25 L97.5625,500.25 C98.0156,500.25 98.1875,500.2813 98.3281,500.4063 C98.5625,500.5781 98.6875,500.8281 98.6875,501.1094 C98.6875,501.3906 98.5313,501.6875 98.2813,501.8281 C98.1406,501.9219 97.9219,501.9531 97.5625,501.9531 L95.5156,501.9531 C95.1094,501.9531 94.8906,501.9063 94.7344,501.7969 C94.5313,501.625 94.3906,501.3594 94.3906,501.1094 C94.3906,500.8125 94.5469,500.5313 94.7969,500.375 C94.9531,500.2656 95.0938,500.25 95.5156,500.25 L95.6094,500.25 L95.6094,493.7344 C95.0469,493.6875 94.7344,493.3906 94.7344,492.8906 C94.7344,492.6094 94.8906,492.3125 95.1406,492.1563 C95.2969,492.0625 95.4219,492.0469 95.8594,492.0469 L97.5625,492.0469 C98.0313,492.0469 98.1875,492.0781 98.3281,492.1875 C98.5625,492.3594 98.6875,492.625 98.6875,492.8906 C98.6875,493.1875 98.5313,493.4688 98.2813,493.625 C98.125,493.7031 97.9844,493.7344 97.5625,493.7344 L97.3125,493.7344 L97.3125,496.1563 L100.9531,496.1563 L100.9531,493.7344 L100.7031,493.7344 C100.25,493.7344 100.1094,493.7031 99.9375,493.5938 C99.7188,493.4219 99.5781,493.1719 99.5781,492.8906 C99.5781,492.6094 99.7344,492.3125 99.9844,492.1563 C100.1406,492.0625 100.2656,492.0469 100.7031,492.0469 L102.4219,492.0469 C102.875,492.0469 103.0313,492.0781 103.2031,492.1875 C103.4063,492.3594 103.5313,492.625 103.5313,492.8906 C103.5313,493.3906 103.2188,493.6875 102.6563,493.7344 L102.6563,500.25 L102.75,500.25 C103.2188,500.25 103.3594,500.2813 103.5156,500.4063 C103.7344,500.5781 103.875,500.8281 103.875,501.1094 C103.875,501.3906 103.7188,501.6875 103.4688,501.8281 C103.3281,501.9219 103.1094,501.9531 102.75,501.9531 L100.7031,501.9531 C100.2969,501.9531 100.0938,501.9063 99.9375,501.7969 C99.7188,501.625 99.5781,501.3594 99.5781,501.1094 C99.5781,500.8125 99.7344,500.5313 99.9844,500.375 C100.1406,500.2656 100.2969,500.25 100.7031,500.25 L100.9531,500.25 Z "/><text fill="#000000" font-family="sans-serif" font-size="12" lengthAdjust="spacingAndGlyphs" textLength="63" x="113" y="501.1074">L2hessian</text><line style="stroke: #A80036; stroke-width: 1.5;" x1="85" x2="178" y1="512.9531" y2="512.9531"/><line style="stroke: #A80036; stroke-width: 1.5;" x1="85" x2="178" y1="520.9531" y2="520.9531"/><ellipse cx="95" cy="532.8555" fill="#84BE84" rx="3" ry="3" style="stroke: #038048; stroke-width: 1.0;"/><text fill="#000000" font-family="sans-serif" font-size="11" lengthAdjust="spacingAndGlyphs" textLength="66" x="104" y="535.1636">L2hessian()</text><!--class tildeMultiOperatorMultiDual--><rect fill="#FEFECE" filter="url(#fpbp2hq)" height="99.2188" style="stroke: #A80036; stroke-width: 1.5;" width="201" x="141" y="162.4531"/><ellipse cx="156" cy="178.4531" fill="#E6FFE6" rx="11" ry="11" style="stroke: #A80036; stroke-width: 1.0;"/><path d="M157.9531,179.3594 L154.3125,179.3594 L154.3125,181.75 L154.5625,181.75 C155.0156,181.75 155.1875,181.7813 155.3281,181.9063 C155.5625,182.0781 155.6875,182.3281 155.6875,182.6094 C155.6875,182.8906 155.5313,183.1875 155.2813,183.3281 C155.1406,183.4219 154.9219,183.4531 154.5625,183.4531 L152.5156,183.4531 C152.1094,183.4531 151.8906,183.4063 151.7344,183.2969 C151.5313,183.125 151.3906,182.8594 151.3906,182.6094 C151.3906,182.3125 151.5469,182.0313 151.7969,181.875 C151.9531,181.7656 152.0938,181.75 152.5156,181.75 L152.6094,181.75 L152.6094,175.2344 C152.0469,175.1875 151.7344,174.8906 151.7344,174.3906 C151.7344,174.1094 151.8906,173.8125 152.1406,173.6563 C152.2969,173.5625 152.4219,173.5469 152.8594,173.5469 L154.5625,173.5469 C155.0313,173.5469 155.1875,173.5781 155.3281,173.6875 C155.5625,173.8594 155.6875,174.125 155.6875,174.3906 C155.6875,174.6875 155.5313,174.9688 155.2813,175.125 C155.125,175.2031 154.9844,175.2344 154.5625,175.2344 L154.3125,175.2344 L154.3125,177.6563 L157.9531,177.6563 L157.9531,175.2344 L157.7031,175.2344 C157.25,175.2344 157.1094,175.2031 156.9375,175.0938 C156.7188,174.9219 156.5781,174.6719 156.5781,174.3906 C156.5781,174.1094 156.7344,173.8125 156.9844,173.6563 C157.1406,173.5625 157.2656,173.5469 157.7031,173.5469 L159.4219,173.5469 C159.875,173.5469 160.0313,173.5781 160.2031,173.6875 C160.4063,173.8594 160.5313,174.125 160.5313,174.3906 C160.5313,174.8906 160.2188,175.1875 159.6563,175.2344 L159.6563,181.75 L159.75,181.75 C160.2188,181.75 160.3594,181.7813 160.5156,181.9063 C160.7344,182.0781 160.875,182.3281 160.875,182.6094 C160.875,182.8906 160.7188,183.1875 160.4688,183.3281 C160.3281,183.4219 160.1094,183.4531 159.75,183.4531 L157.7031,183.4531 C157.2969,183.4531 157.0938,183.4063 156.9375,183.2969 C156.7188,183.125 156.5781,182.8594 156.5781,182.6094 C156.5781,182.3125 156.7344,182.0313 156.9844,181.875 C157.1406,181.7656 157.2969,181.75 157.7031,181.75 L157.9531,181.75 Z "/><text fill="#000000" font-family="sans-serif" font-size="12" lengthAdjust="spacingAndGlyphs" textLength="169" x="170" y="182.6074">tildeMultiOperatorMultiDual</text><line style="stroke: #A80036; stroke-width: 1.5;" x1="142" x2="341" y1="194.4531" y2="194.4531"/><line style="stroke: #A80036; stroke-width: 1.5;" x1="142" x2="341" y1="202.4531" y2="202.4531"/><ellipse cx="152" cy="214.3555" fill="#84BE84" rx="3" ry="3" style="stroke: #038048; stroke-width: 1.0;"/><text fill="#000000" font-family="sans-serif" font-size="11" lengthAdjust="spacingAndGlyphs" textLength="43" x="161" y="216.6636">xError()</text><ellipse cx="152" cy="227.1602" fill="#84BE84" rx="3" ry="3" style="stroke: #038048; stroke-width: 1.0;"/><text fill="#000000" font-family="sans-serif" font-size="11" lengthAdjust="spacingAndGlyphs" textLength="41" x="161" y="229.4683">xTilde()</text><ellipse cx="152" cy="239.9648" fill="#84BE84" rx="3" ry="3" style="stroke: #038048; stroke-width: 1.0;"/><text fill="#000000" font-family="sans-serif" font-size="11" lengthAdjust="spacingAndGlyphs" textLength="43" x="161" y="242.2729">yError()</text><ellipse cx="152" cy="252.7695" fill="#84BE84" rx="3" ry="3" style="stroke: #038048; stroke-width: 1.0;"/><text fill="#000000" font-family="sans-serif" font-size="11" lengthAdjust="spacingAndGlyphs" textLength="41" x="161" y="255.0776">yTilde()</text><!--class L1AnisoProxDual--><rect fill="#FEFECE" filter="url(#fpbp2hq)" height="73.6094" style="stroke: #A80036; stroke-width: 1.5;" width="135" x="292" y="346.9531"/><ellipse cx="307" cy="362.9531" fill="#E6FFE6" rx="11" ry="11" style="stroke: #A80036; stroke-width: 1.0;"/><path d="M308.9531,363.8594 L305.3125,363.8594 L305.3125,366.25 L305.5625,366.25 C306.0156,366.25 306.1875,366.2813 306.3281,366.4063 C306.5625,366.5781 306.6875,366.8281 306.6875,367.1094 C306.6875,367.3906 306.5313,367.6875 306.2813,367.8281 C306.1406,367.9219 305.9219,367.9531 305.5625,367.9531 L303.5156,367.9531 C303.1094,367.9531 302.8906,367.9063 302.7344,367.7969 C302.5313,367.625 302.3906,367.3594 302.3906,367.1094 C302.3906,366.8125 302.5469,366.5313 302.7969,366.375 C302.9531,366.2656 303.0938,366.25 303.5156,366.25 L303.6094,366.25 L303.6094,359.7344 C303.0469,359.6875 302.7344,359.3906 302.7344,358.8906 C302.7344,358.6094 302.8906,358.3125 303.1406,358.1563 C303.2969,358.0625 303.4219,358.0469 303.8594,358.0469 L305.5625,358.0469 C306.0313,358.0469 306.1875,358.0781 306.3281,358.1875 C306.5625,358.3594 306.6875,358.625 306.6875,358.8906 C306.6875,359.1875 306.5313,359.4688 306.2813,359.625 C306.125,359.7031 305.9844,359.7344 305.5625,359.7344 L305.3125,359.7344 L305.3125,362.1563 L308.9531,362.1563 L308.9531,359.7344 L308.7031,359.7344 C308.25,359.7344 308.1094,359.7031 307.9375,359.5938 C307.7188,359.4219 307.5781,359.1719 307.5781,358.8906 C307.5781,358.6094 307.7344,358.3125 307.9844,358.1563 C308.1406,358.0625 308.2656,358.0469 308.7031,358.0469 L310.4219,358.0469 C310.875,358.0469 311.0313,358.0781 311.2031,358.1875 C311.4063,358.3594 311.5313,358.625 311.5313,358.8906 C311.5313,359.3906 311.2188,359.6875 310.6563,359.7344 L310.6563,366.25 L310.75,366.25 C311.2188,366.25 311.3594,366.2813 311.5156,366.4063 C311.7344,366.5781 311.875,366.8281 311.875,367.1094 C311.875,367.3906 311.7188,367.6875 311.4688,367.8281 C311.3281,367.9219 311.1094,367.9531 310.75,367.9531 L308.7031,367.9531 C308.2969,367.9531 308.0938,367.9063 307.9375,367.7969 C307.7188,367.625 307.5781,367.3594 307.5781,367.1094 C307.5781,366.8125 307.7344,366.5313 307.9844,366.375 C308.1406,366.2656 308.2969,366.25 308.7031,366.25 L308.9531,366.25 Z "/><text fill="#000000" font-family="sans-serif" font-size="12" lengthAdjust="spacingAndGlyphs" textLength="103" x="321" y="367.1074">L1AnisoProxDual</text><line style="stroke: #A80036; stroke-width: 1.5;" x1="293" x2="426" y1="378.9531" y2="378.9531"/><line style="stroke: #A80036; stroke-width: 1.5;" x1="293" x2="426" y1="386.9531" y2="386.9531"/><ellipse cx="303" cy="398.8555" fill="#84BE84" rx="3" ry="3" style="stroke: #038048; stroke-width: 1.0;"/><text fill="#000000" font-family="sans-serif" font-size="11" lengthAdjust="spacingAndGlyphs" textLength="102" x="312" y="401.1636">L1AnisoProxDual()</text><ellipse cx="303" cy="411.6602" fill="#84BE84" rx="3" ry="3" style="stroke: #038048; stroke-width: 1.0;"/><text fill="#000000" font-family="sans-serif" font-size="11" lengthAdjust="spacingAndGlyphs" textLength="63" x="312" y="413.9683">applyProx()</text><!--class L2proxDual--><rect fill="#FEFECE" filter="url(#fpbp2hq)" height="73.6094" style="stroke: #A80036; stroke-width: 1.5;" width="101" x="6" y="346.9531"/><ellipse cx="21" cy="362.9531" fill="#E6FFE6" rx="11" ry="11" style="stroke: #A80036; stroke-width: 1.0;"/><path d="M22.9531,363.8594 L19.3125,363.8594 L19.3125,366.25 L19.5625,366.25 C20.0156,366.25 20.1875,366.2813 20.3281,366.4063 C20.5625,366.5781 20.6875,366.8281 20.6875,367.1094 C20.6875,367.3906 20.5313,367.6875 20.2813,367.8281 C20.1406,367.9219 19.9219,367.9531 19.5625,367.9531 L17.5156,367.9531 C17.1094,367.9531 16.8906,367.9063 16.7344,367.7969 C16.5313,367.625 16.3906,367.3594 16.3906,367.1094 C16.3906,366.8125 16.5469,366.5313 16.7969,366.375 C16.9531,366.2656 17.0938,366.25 17.5156,366.25 L17.6094,366.25 L17.6094,359.7344 C17.0469,359.6875 16.7344,359.3906 16.7344,358.8906 C16.7344,358.6094 16.8906,358.3125 17.1406,358.1563 C17.2969,358.0625 17.4219,358.0469 17.8594,358.0469 L19.5625,358.0469 C20.0313,358.0469 20.1875,358.0781 20.3281,358.1875 C20.5625,358.3594 20.6875,358.625 20.6875,358.8906 C20.6875,359.1875 20.5313,359.4688 20.2813,359.625 C20.125,359.7031 19.9844,359.7344 19.5625,359.7344 L19.3125,359.7344 L19.3125,362.1563 L22.9531,362.1563 L22.9531,359.7344 L22.7031,359.7344 C22.25,359.7344 22.1094,359.7031 21.9375,359.5938 C21.7188,359.4219 21.5781,359.1719 21.5781,358.8906 C21.5781,358.6094 21.7344,358.3125 21.9844,358.1563 C22.1406,358.0625 22.2656,358.0469 22.7031,358.0469 L24.4219,358.0469 C24.875,358.0469 25.0313,358.0781 25.2031,358.1875 C25.4063,358.3594 25.5313,358.625 25.5313,358.8906 C25.5313,359.3906 25.2188,359.6875 24.6563,359.7344 L24.6563,366.25 L24.75,366.25 C25.2188,366.25 25.3594,366.2813 25.5156,366.4063 C25.7344,366.5781 25.875,366.8281 25.875,367.1094 C25.875,367.3906 25.7188,367.6875 25.4688,367.8281 C25.3281,367.9219 25.1094,367.9531 24.75,367.9531 L22.7031,367.9531 C22.2969,367.9531 22.0938,367.9063 21.9375,367.7969 C21.7188,367.625 21.5781,367.3594 21.5781,367.1094 C21.5781,366.8125 21.7344,366.5313 21.9844,366.375 C22.1406,366.2656 22.2969,366.25 22.7031,366.25 L22.9531,366.25 Z "/><text fill="#000000" font-family="sans-serif" font-size="12" lengthAdjust="spacingAndGlyphs" textLength="69" x="35" y="367.1074">L2proxDual</text><line style="stroke: #A80036; stroke-width: 1.5;" x1="7" x2="106" y1="378.9531" y2="378.9531"/><line style="stroke: #A80036; stroke-width: 1.5;" x1="7" x2="106" y1="386.9531" y2="386.9531"/><ellipse cx="17" cy="398.8555" fill="#84BE84" rx="3" ry="3" style="stroke: #038048; stroke-width: 1.0;"/><text fill="#000000" font-family="sans-serif" font-size="11" lengthAdjust="spacingAndGlyphs" textLength="71" x="26" y="401.1636">L2proxDual()</text><ellipse cx="17" cy="411.6602" fill="#84BE84" rx="3" ry="3" style="stroke: #038048; stroke-width: 1.0;"/><text fill="#000000" font-family="sans-serif" font-size="11" lengthAdjust="spacingAndGlyphs" textLength="63" x="26" y="413.9683">applyProx()</text><!--class functionalPart--><rect fill="#FEFECE" filter="url(#fpbp2hq)" height="48" style="stroke: #A80036; stroke-width: 1.5;" width="120" x="445.5" y="28.9531"/><ellipse cx="460.5" cy="44.9531" fill="#ADD1B2" rx="11" ry="11" style="stroke: #A80036; stroke-width: 1.0;"/><path d="M462.8438,40.625 L463.0156,40.7031 C463.2344,40.3906 463.4375,40.2969 463.7344,40.2969 C464.0313,40.2969 464.3125,40.4375 464.4688,40.7031 C464.5625,40.8594 464.5781,40.9844 464.5781,41.4219 L464.5781,42.8438 C464.5781,43.2656 464.5469,43.4531 464.4375,43.6094 C464.2656,43.8281 464,43.9688 463.7344,43.9688 C463.5156,43.9688 463.2813,43.8594 463.1406,43.7188 C463,43.5938 462.9688,43.4688 462.9063,43.0625 C462.8125,42.6563 462.6406,42.4375 462.1563,42.1563 C461.6875,41.9063 461.0781,41.75 460.5,41.75 C458.7656,41.75 457.5156,43.0625 457.5156,44.8438 L457.5156,45.9375 C457.5156,47.6406 458.8125,48.7344 460.8594,48.7344 C461.625,48.7344 462.3125,48.6094 462.7344,48.3438 C462.9219,48.25 462.9219,48.25 463.375,47.7656 C463.5625,47.5781 463.7656,47.5 463.9844,47.5 C464.4531,47.5 464.8438,47.8906 464.8438,48.3438 C464.8438,48.7344 464.5156,49.1875 463.9375,49.5938 C463.1875,50.1406 462.0313,50.4375 460.8125,50.4375 C457.9219,50.4375 455.8125,48.5469 455.8125,45.9688 L455.8125,44.8438 C455.8125,42.125 457.8125,40.0469 460.4375,40.0469 C461.3125,40.0469 461.9063,40.1875 462.8438,40.625 Z "/><text fill="#000000" font-family="sans-serif" font-size="12" lengthAdjust="spacingAndGlyphs" textLength="88" x="474.5" y="49.1074">functionalPart</text><line style="stroke: #A80036; stroke-width: 1.5;" x1="446.5" x2="564.5" y1="60.9531" y2="60.9531"/><line style="stroke: #A80036; stroke-width: 1.5;" x1="446.5" x2="564.5" y1="68.9531" y2="68.9531"/><path d="M505.5,97.3281 C505.5,109.6191 505.5,123.3581 505.5,136.9181 " fill="none" style="stroke: #A80036; stroke-width: 1.0;"/><polygon fill="none" points="498.5,97.1191,505.5,77.1191,512.5,97.1191,498.5,97.1191" style="stroke: #A80036; stroke-width: 1.0;"/><path d="M529.195,306.6331 C533.492,323.6201 537.671,340.1411 541.035,353.4411 " fill="none" style="stroke: #A80036; stroke-width: 1.0;"/><polygon fill="none" points="522.354,308.1291,524.235,287.0231,535.926,304.6961,522.354,308.1291" style="stroke: #A80036; stroke-width: 1.0;"/><path d="M347.129,271.4441 C397.047,299.0871 454.472,330.8851 495.192,353.4341 " fill="none" style="stroke: #A80036; stroke-width: 1.0;"/><polygon fill="none" points="343.579,277.4811,329.474,261.6681,350.362,265.2331,343.579,277.4811" style="stroke: #A80036; stroke-width: 1.0;"/><path d="M443.083,247.6291 C387.048,278.7601 305.681,323.9641 252.678,353.4101 " fill="none" style="stroke: #A80036; stroke-width: 1.0;"/><polygon fill="none" points="439.795,241.4481,460.677,237.8551,446.594,253.6871,439.795,241.4481" style="stroke: #A80036; stroke-width: 1.0;"/><path d="M224.637,281.2091 C218.428,306.3381 211.718,333.5001 206.793,353.4341 " fill="none" style="stroke: #A80036; stroke-width: 1.0;"/><polygon fill="none" points="217.872,279.4051,229.464,261.6681,231.463,282.7631,217.872,279.4051" style="stroke: #A80036; stroke-width: 1.0;"/><path d="M225.271,432.5161 C234.086,448.7837 243.685,466.4999 251.501,480.9248 " fill="none" style="stroke: #A80036; stroke-width: 1.0;"/><polygon fill="none" points="218.988,435.6141,215.615,414.6951,231.298,428.9451,218.988,435.6141" style="stroke: #A80036; stroke-width: 1.0;"/><path d="M321.064,437.3851 C310.258,452.1261 298.879,467.6487 289.401,480.5771 " fill="none" style="stroke: #A80036; stroke-width: 1.0;"/><polygon fill="none" points="315.42,433.2441,332.89,421.2531,326.711,441.5221,315.42,433.2441" style="stroke: #A80036; stroke-width: 1.0;"/><path d="M173.729,432.5161 C164.914,448.7837 155.315,466.4999 147.499,480.9248 " fill="none" style="stroke: #A80036; stroke-width: 1.0;"/><polygon fill="none" points="167.702,428.9451,183.385,414.6951,180.012,435.6141,167.702,428.9451" style="stroke: #A80036; stroke-width: 1.0;"/><path d="M88.6875,438.8131 C97.2401,453.1248 106.169,468.0658 113.646,480.5771 " fill="none" style="stroke: #A80036; stroke-width: 1.0;"/><polygon fill="none" points="82.4441,442.0118,78.1931,421.2531,94.4617,434.8301,82.4441,442.0118" style="stroke: #A80036; stroke-width: 1.0;"/></g></svg>