<?xml version="1.0" encoding="UTF-8" standalone="no"?><svg xmlns="http://www.w3.org/2000/svg" xmlns:xlink="http://www.w3.org/1999/xlink" contentScriptType="application/ecmascript" contentStyleType="text/css" height="550px" preserveAspectRatio="none" style="width:786px;height:550px;" version="1.1" viewBox="0 0 786 550" width="786px" zoomAndPan="magnify"><defs><filter height="300%" id="fuclzzi" width="300%" x="-1" y="-1"><feGaussianBlur result="blurOut" stdDeviation="2.0"/><feColorMatrix in="blurOut" result="blurOut2" type="matrix" values="0 0 0 0 0 0 0 0 0 0 0 0 0 0 0 0 0 0 .4 0"/><feOffset dx="4.0" dy="4.0" in="blurOut2" result="blurOut3"/><feBlend in="SourceGraphic" in2="blurOut3" mode="normal"/></filter></defs><g><text fill="#000000" font-family="sans-serif" font-size="18" font-weight="bold" lengthAdjust="spacingAndGlyphs" textLength="265" x="265" y="16.708">Regularizer Terms (Shear)</text><!--class dualPart--><rect fill="#FEFECE" filter="url(#fuclzzi)" height="150.4375" style="stroke: #A80036; stroke-width: 1.5;" width="89" x="495" y="136.9531"/><ellipse cx="511.8" cy="152.9531" fill="#E6FFE6" rx="11" ry="11" style="stroke: #A80036; stroke-width: 1.0;"/><path d="M513.3781,154.7656 L509.3313,154.7656 L508.9406,155.75 L509.3313,155.75 C509.7844,155.75 509.925,155.7813 510.0969,155.9063 C510.3156,156.0781 510.4406,156.3281 510.4406,156.6094 C510.4406,156.8906 510.3,157.1875 510.0344,157.3281 C509.9094,157.4219 509.6906,157.4531 509.3313,157.4531 L507.0656,157.4531 C506.3156,157.4531 505.9406,157.1719 505.9406,156.6094 C505.9406,156.3125 506.0969,156.0313 506.3469,155.875 C506.5031,155.7656 506.6594,155.75 507.0813,155.75 L509.7219,149.2344 L508.6438,149.2344 C508.2063,149.2344 508.0344,149.2031 507.8625,149.0938 C507.6438,148.9219 507.5031,148.6719 507.5031,148.3906 C507.5031,148.1094 507.6594,147.8281 507.9094,147.6563 C508.0656,147.5625 508.1906,147.5469 508.6438,147.5469 L512.3156,147.5469 L515.7063,155.75 C516.175,155.75 516.3313,155.7813 516.5031,155.9219 C516.7219,156.0781 516.8625,156.3281 516.8625,156.6094 C516.8625,156.8906 516.7063,157.1875 516.4563,157.3281 C516.3156,157.4219 516.0969,157.4531 515.7375,157.4531 L513.3781,157.4531 C512.9563,157.4531 512.7531,157.4063 512.6125,157.2813 C512.3938,157.125 512.2531,156.875 512.2531,156.6094 C512.2531,156.3125 512.4094,156.0313 512.6594,155.875 C512.8156,155.7656 512.925,155.75 513.3781,155.75 L513.7688,155.75 Z M512.675,153.0625 L511.3469,149.7969 L510.0031,153.0625 Z "/><text fill="#000000" font-family="sans-serif" font-size="12" lengthAdjust="spacingAndGlyphs" textLength="53" x="526.2" y="157.1074">dualPart</text><line style="stroke: #A80036; stroke-width: 1.5;" x1="496" x2="583" y1="168.9531" y2="168.9531"/><ellipse cx="506" cy="180.8555" fill="none" rx="3" ry="3" style="stroke: #038048; stroke-width: 1.0;"/><text fill="#000000" font-family="sans-serif" font-size="11" lengthAdjust="spacingAndGlyphs" textLength="35" x="515" y="183.1636">length</text><ellipse cx="506" cy="193.6602" fill="none" rx="3" ry="3" style="stroke: #038048; stroke-width: 1.0;"/><text fill="#000000" font-family="sans-serif" font-size="11" lengthAdjust="spacingAndGlyphs" textLength="53" x="515" y="195.9683">mySigma</text><ellipse cx="506" cy="206.4648" fill="none" rx="3" ry="3" style="stroke: #038048; stroke-width: 1.0;"/><text fill="#000000" font-family="sans-serif" font-size="11" lengthAdjust="spacingAndGlyphs" textLength="38" x="515" y="208.7729">myTau</text><ellipse cx="506" cy="219.2695" fill="none" rx="3" ry="3" style="stroke: #038048; stroke-width: 1.0;"/><text fill="#000000" font-family="sans-serif" font-size="11" lengthAdjust="spacingAndGlyphs" textLength="51" x="515" y="221.5776">numVars</text><ellipse cx="506" cy="232.0742" fill="none" rx="3" ry="3" style="stroke: #038048; stroke-width: 1.0;"/><text fill="#000000" font-family="sans-serif" font-size="11" lengthAdjust="spacingAndGlyphs" textLength="49" x="515" y="234.3823">operator</text><ellipse cx="506" cy="244.8789" fill="none" rx="3" ry="3" style="stroke: #038048; stroke-width: 1.0;"/><text fill="#000000" font-family="sans-serif" font-size="11" lengthAdjust="spacingAndGlyphs" textLength="56" x="515" y="247.187">operatorT</text><line style="stroke: #A80036; stroke-width: 1.5;" x1="496" x2="583" y1="253.7813" y2="253.7813"/><ellipse cx="506" cy="265.6836" fill="#84BE84" rx="3" ry="3" style="stroke: #038048; stroke-width: 1.0;"/><text fill="#000000" font-family="sans-serif" font-size="11" lengthAdjust="spacingAndGlyphs" textLength="55" x="515" y="267.9917">dualPart()</text><ellipse cx="506" cy="278.4883" fill="#84BE84" rx="3" ry="3" style="stroke: #038048; stroke-width: 1.0;"/><text fill="#000000" font-family="sans-serif" font-size="11" lengthAdjust="spacingAndGlyphs" textLength="63" x="515" y="280.7964">applyProx()</text><!--class basicDualizedOperator--><rect fill="#FEFECE" filter="url(#fuclzzi)" height="60.8047" style="stroke: #A80036; stroke-width: 1.5;" width="173" x="450" y="353.4531"/><ellipse cx="465" cy="369.4531" fill="#E6FFE6" rx="11" ry="11" style="stroke: #A80036; stroke-width: 1.0;"/><path d="M466.5781,371.2656 L462.5313,371.2656 L462.1406,372.25 L462.5313,372.25 C462.9844,372.25 463.125,372.2813 463.2969,372.4063 C463.5156,372.5781 463.6406,372.8281 463.6406,373.1094 C463.6406,373.3906 463.5,373.6875 463.2344,373.8281 C463.1094,373.9219 462.8906,373.9531 462.5313,373.9531 L460.2656,373.9531 C459.5156,373.9531 459.1406,373.6719 459.1406,373.1094 C459.1406,372.8125 459.2969,372.5313 459.5469,372.375 C459.7031,372.2656 459.8594,372.25 460.2813,372.25 L462.9219,365.7344 L461.8438,365.7344 C461.4063,365.7344 461.2344,365.7031 461.0625,365.5938 C460.8438,365.4219 460.7031,365.1719 460.7031,364.8906 C460.7031,364.6094 460.8594,364.3281 461.1094,364.1563 C461.2656,364.0625 461.3906,364.0469 461.8438,364.0469 L465.5156,364.0469 L468.9063,372.25 C469.375,372.25 469.5313,372.2813 469.7031,372.4219 C469.9219,372.5781 470.0625,372.8281 470.0625,373.1094 C470.0625,373.3906 469.9063,373.6875 469.6563,373.8281 C469.5156,373.9219 469.2969,373.9531 468.9375,373.9531 L466.5781,373.9531 C466.1563,373.9531 465.9531,373.9063 465.8125,373.7813 C465.5938,373.625 465.4531,373.375 465.4531,373.1094 C465.4531,372.8125 465.6094,372.5313 465.8594,372.375 C466.0156,372.2656 466.125,372.25 466.5781,372.25 L466.9688,372.25 Z M465.875,369.5625 L464.5469,366.2969 L463.2031,369.5625 Z "/><text fill="#000000" font-family="sans-serif" font-size="12" lengthAdjust="spacingAndGlyphs" textLength="141" x="479" y="373.6074">basicDualizedOperator</text><line style="stroke: #A80036; stroke-width: 1.5;" x1="451" x2="622" y1="385.4531" y2="385.4531"/><line style="stroke: #A80036; stroke-width: 1.5;" x1="451" x2="622" y1="393.4531" y2="393.4531"/><ellipse cx="461" cy="405.3555" fill="#84BE84" rx="3" ry="3" style="stroke: #038048; stroke-width: 1.0;"/><text fill="#000000" font-family="sans-serif" font-size="11" lengthAdjust="spacingAndGlyphs" textLength="136" x="470" y="407.6636">basicDualizedOperator()</text><!--class basicShear--><rect fill="#FEFECE" filter="url(#fuclzzi)" height="60.8047" style="stroke: #A80036; stroke-width: 1.5;" width="102" x="312.5" y="353.4531"/><ellipse cx="327.5" cy="369.4531" fill="#E6FFE6" rx="11" ry="11" style="stroke: #A80036; stroke-width: 1.0;"/><path d="M329.0781,371.2656 L325.0313,371.2656 L324.6406,372.25 L325.0313,372.25 C325.4844,372.25 325.625,372.2813 325.7969,372.4063 C326.0156,372.5781 326.1406,372.8281 326.1406,373.1094 C326.1406,373.3906 326,373.6875 325.7344,373.8281 C325.6094,373.9219 325.3906,373.9531 325.0313,373.9531 L322.7656,373.9531 C322.0156,373.9531 321.6406,373.6719 321.6406,373.1094 C321.6406,372.8125 321.7969,372.5313 322.0469,372.375 C322.2031,372.2656 322.3594,372.25 322.7813,372.25 L325.4219,365.7344 L324.3438,365.7344 C323.9063,365.7344 323.7344,365.7031 323.5625,365.5938 C323.3438,365.4219 323.2031,365.1719 323.2031,364.8906 C323.2031,364.6094 323.3594,364.3281 323.6094,364.1563 C323.7656,364.0625 323.8906,364.0469 324.3438,364.0469 L328.0156,364.0469 L331.4063,372.25 C331.875,372.25 332.0313,372.2813 332.2031,372.4219 C332.4219,372.5781 332.5625,372.8281 332.5625,373.1094 C332.5625,373.3906 332.4063,373.6875 332.1563,373.8281 C332.0156,373.9219 331.7969,373.9531 331.4375,373.9531 L329.0781,373.9531 C328.6563,373.9531 328.4531,373.9063 328.3125,373.7813 C328.0938,373.625 327.9531,373.375 327.9531,373.1094 C327.9531,372.8125 328.1094,372.5313 328.3594,372.375 C328.5156,372.2656 328.625,372.25 329.0781,372.25 L329.4688,372.25 Z M328.375,369.5625 L327.0469,366.2969 L325.7031,369.5625 Z "/><text fill="#000000" font-family="sans-serif" font-size="12" lengthAdjust="spacingAndGlyphs" textLength="70" x="341.5" y="373.6074">basicShear</text><line style="stroke: #A80036; stroke-width: 1.5;" x1="313.5" x2="413.5" y1="385.4531" y2="385.4531"/><line style="stroke: #A80036; stroke-width: 1.5;" x1="313.5" x2="413.5" y1="393.4531" y2="393.4531"/><ellipse cx="323.5" cy="405.3555" fill="#84BE84" rx="3" ry="3" style="stroke: #038048; stroke-width: 1.0;"/><text fill="#000000" font-family="sans-serif" font-size="11" lengthAdjust="spacingAndGlyphs" textLength="72" x="332.5" y="407.6636">basicShear()</text><!--class L1shearAniso--><rect fill="#FEFECE" filter="url(#fuclzzi)" height="60.8047" style="stroke: #A80036; stroke-width: 1.5;" width="116" x="228.5" y="480.9531"/><ellipse cx="243.5" cy="496.9531" fill="#E6FFE6" rx="11" ry="11" style="stroke: #A80036; stroke-width: 1.0;"/><path d="M245.4531,497.8594 L241.8125,497.8594 L241.8125,500.25 L242.0625,500.25 C242.5156,500.25 242.6875,500.2813 242.8281,500.4063 C243.0625,500.5781 243.1875,500.8281 243.1875,501.1094 C243.1875,501.3906 243.0313,501.6875 242.7813,501.8281 C242.6406,501.9219 242.4219,501.9531 242.0625,501.9531 L240.0156,501.9531 C239.6094,501.9531 239.3906,501.9063 239.2344,501.7969 C239.0313,501.625 238.8906,501.3594 238.8906,501.1094 C238.8906,500.8125 239.0469,500.5313 239.2969,500.375 C239.4531,500.2656 239.5938,500.25 240.0156,500.25 L240.1094,500.25 L240.1094,493.7344 C239.5469,493.6875 239.2344,493.3906 239.2344,492.8906 C239.2344,492.6094 239.3906,492.3125 239.6406,492.1563 C239.7969,492.0625 239.9219,492.0469 240.3594,492.0469 L242.0625,492.0469 C242.5313,492.0469 242.6875,492.0781 242.8281,492.1875 C243.0625,492.3594 243.1875,492.625 243.1875,492.8906 C243.1875,493.1875 243.0313,493.4688 242.7813,493.625 C242.625,493.7031 242.4844,493.7344 242.0625,493.7344 L241.8125,493.7344 L241.8125,496.1563 L245.4531,496.1563 L245.4531,493.7344 L245.2031,493.7344 C244.75,493.7344 244.6094,493.7031 244.4375,493.5938 C244.2188,493.4219 244.0781,493.1719 244.0781,492.8906 C244.0781,492.6094 244.2344,492.3125 244.4844,492.1563 C244.6406,492.0625 244.7656,492.0469 245.2031,492.0469 L246.9219,492.0469 C247.375,492.0469 247.5313,492.0781 247.7031,492.1875 C247.9063,492.3594 248.0313,492.625 248.0313,492.8906 C248.0313,493.3906 247.7188,493.6875 247.1563,493.7344 L247.1563,500.25 L247.25,500.25 C247.7188,500.25 247.8594,500.2813 248.0156,500.4063 C248.2344,500.5781 248.375,500.8281 248.375,501.1094 C248.375,501.3906 248.2188,501.6875 247.9688,501.8281 C247.8281,501.9219 247.6094,501.9531 247.25,501.9531 L245.2031,501.9531 C244.7969,501.9531 244.5938,501.9063 244.4375,501.7969 C244.2188,501.625 244.0781,501.3594 244.0781,501.1094 C244.0781,500.8125 244.2344,500.5313 244.4844,500.375 C244.6406,500.2656 244.7969,500.25 245.2031,500.25 L245.4531,500.25 Z "/><text fill="#000000" font-family="sans-serif" font-size="12" lengthAdjust="spacingAndGlyphs" textLength="84" x="257.5" y="501.1074">L1shearAniso</text><line style="stroke: #A80036; stroke-width: 1.5;" x1="229.5" x2="343.5" y1="512.9531" y2="512.9531"/><line style="stroke: #A80036; stroke-width: 1.5;" x1="229.5" x2="343.5" y1="520.9531" y2="520.9531"/><ellipse cx="239.5" cy="532.8555" fill="#84BE84" rx="3" ry="3" style="stroke: #038048; stroke-width: 1.0;"/><text fill="#000000" font-family="sans-serif" font-size="11" lengthAdjust="spacingAndGlyphs" textLength="85" x="248.5" y="535.1636">L1shearAniso()</text><!--class L1shearIso--><rect fill="#FEFECE" filter="url(#fuclzzi)" height="60.8047" style="stroke: #A80036; stroke-width: 1.5;" width="100" x="490.5" y="480.9531"/><ellipse cx="505.5" cy="496.9531" fill="#E6FFE6" rx="11" ry="11" style="stroke: #A80036; stroke-width: 1.0;"/><path d="M507.4531,497.8594 L503.8125,497.8594 L503.8125,500.25 L504.0625,500.25 C504.5156,500.25 504.6875,500.2813 504.8281,500.4063 C505.0625,500.5781 505.1875,500.8281 505.1875,501.1094 C505.1875,501.3906 505.0313,501.6875 504.7813,501.8281 C504.6406,501.9219 504.4219,501.9531 504.0625,501.9531 L502.0156,501.9531 C501.6094,501.9531 501.3906,501.9063 501.2344,501.7969 C501.0313,501.625 500.8906,501.3594 500.8906,501.1094 C500.8906,500.8125 501.0469,500.5313 501.2969,500.375 C501.4531,500.2656 501.5938,500.25 502.0156,500.25 L502.1094,500.25 L502.1094,493.7344 C501.5469,493.6875 501.2344,493.3906 501.2344,492.8906 C501.2344,492.6094 501.3906,492.3125 501.6406,492.1563 C501.7969,492.0625 501.9219,492.0469 502.3594,492.0469 L504.0625,492.0469 C504.5313,492.0469 504.6875,492.0781 504.8281,492.1875 C505.0625,492.3594 505.1875,492.625 505.1875,492.8906 C505.1875,493.1875 505.0313,493.4688 504.7813,493.625 C504.625,493.7031 504.4844,493.7344 504.0625,493.7344 L503.8125,493.7344 L503.8125,496.1563 L507.4531,496.1563 L507.4531,493.7344 L507.2031,493.7344 C506.75,493.7344 506.6094,493.7031 506.4375,493.5938 C506.2188,493.4219 506.0781,493.1719 506.0781,492.8906 C506.0781,492.6094 506.2344,492.3125 506.4844,492.1563 C506.6406,492.0625 506.7656,492.0469 507.2031,492.0469 L508.9219,492.0469 C509.375,492.0469 509.5313,492.0781 509.7031,492.1875 C509.9063,492.3594 510.0313,492.625 510.0313,492.8906 C510.0313,493.3906 509.7188,493.6875 509.1563,493.7344 L509.1563,500.25 L509.25,500.25 C509.7188,500.25 509.8594,500.2813 510.0156,500.4063 C510.2344,500.5781 510.375,500.8281 510.375,501.1094 C510.375,501.3906 510.2188,501.6875 509.9688,501.8281 C509.8281,501.9219 509.6094,501.9531 509.25,501.9531 L507.2031,501.9531 C506.7969,501.9531 506.5938,501.9063 506.4375,501.7969 C506.2188,501.625 506.0781,501.3594 506.0781,501.1094 C506.0781,500.8125 506.2344,500.5313 506.4844,500.375 C506.6406,500.2656 506.7969,500.25 507.2031,500.25 L507.4531,500.25 Z "/><text fill="#000000" font-family="sans-serif" font-size="12" lengthAdjust="spacingAndGlyphs" textLength="68" x="519.5" y="501.1074">L1shearIso</text><line style="stroke: #A80036; stroke-width: 1.5;" x1="491.5" x2="589.5" y1="512.9531" y2="512.9531"/><line style="stroke: #A80036; stroke-width: 1.5;" x1="491.5" x2="589.5" y1="520.9531" y2="520.9531"/><ellipse cx="501.5" cy="532.8555" fill="#84BE84" rx="3" ry="3" style="stroke: #038048; stroke-width: 1.0;"/><text fill="#000000" font-family="sans-serif" font-size="11" lengthAdjust="spacingAndGlyphs" textLength="71" x="510.5" y="535.1636">L1shearIso()</text><!--class L2shear--><rect fill="#FEFECE" filter="url(#fuclzzi)" height="60.8047" style="stroke: #A80036; stroke-width: 1.5;" width="82" x="102.5" y="480.9531"/><ellipse cx="117.5" cy="496.9531" fill="#E6FFE6" rx="11" ry="11" style="stroke: #A80036; stroke-width: 1.0;"/><path d="M119.4531,497.8594 L115.8125,497.8594 L115.8125,500.25 L116.0625,500.25 C116.5156,500.25 116.6875,500.2813 116.8281,500.4063 C117.0625,500.5781 117.1875,500.8281 117.1875,501.1094 C117.1875,501.3906 117.0313,501.6875 116.7813,501.8281 C116.6406,501.9219 116.4219,501.9531 116.0625,501.9531 L114.0156,501.9531 C113.6094,501.9531 113.3906,501.9063 113.2344,501.7969 C113.0313,501.625 112.8906,501.3594 112.8906,501.1094 C112.8906,500.8125 113.0469,500.5313 113.2969,500.375 C113.4531,500.2656 113.5938,500.25 114.0156,500.25 L114.1094,500.25 L114.1094,493.7344 C113.5469,493.6875 113.2344,493.3906 113.2344,492.8906 C113.2344,492.6094 113.3906,492.3125 113.6406,492.1563 C113.7969,492.0625 113.9219,492.0469 114.3594,492.0469 L116.0625,492.0469 C116.5313,492.0469 116.6875,492.0781 116.8281,492.1875 C117.0625,492.3594 117.1875,492.625 117.1875,492.8906 C117.1875,493.1875 117.0313,493.4688 116.7813,493.625 C116.625,493.7031 116.4844,493.7344 116.0625,493.7344 L115.8125,493.7344 L115.8125,496.1563 L119.4531,496.1563 L119.4531,493.7344 L119.2031,493.7344 C118.75,493.7344 118.6094,493.7031 118.4375,493.5938 C118.2188,493.4219 118.0781,493.1719 118.0781,492.8906 C118.0781,492.6094 118.2344,492.3125 118.4844,492.1563 C118.6406,492.0625 118.7656,492.0469 119.2031,492.0469 L120.9219,492.0469 C121.375,492.0469 121.5313,492.0781 121.7031,492.1875 C121.9063,492.3594 122.0313,492.625 122.0313,492.8906 C122.0313,493.3906 121.7188,493.6875 121.1563,493.7344 L121.1563,500.25 L121.25,500.25 C121.7188,500.25 121.8594,500.2813 122.0156,500.4063 C122.2344,500.5781 122.375,500.8281 122.375,501.1094 C122.375,501.3906 122.2188,501.6875 121.9688,501.8281 C121.8281,501.9219 121.6094,501.9531 121.25,501.9531 L119.2031,501.9531 C118.7969,501.9531 118.5938,501.9063 118.4375,501.7969 C118.2188,501.625 118.0781,501.3594 118.0781,501.1094 C118.0781,500.8125 118.2344,500.5313 118.4844,500.375 C118.6406,500.2656 118.7969,500.25 119.2031,500.25 L119.4531,500.25 Z "/><text fill="#000000" font-family="sans-serif" font-size="12" lengthAdjust="spacingAndGlyphs" textLength="50" x="131.5" y="501.1074">L2shear</text><line style="stroke: #A80036; stroke-width: 1.5;" x1="103.5" x2="183.5" y1="512.9531" y2="512.9531"/><line style="stroke: #A80036; stroke-width: 1.5;" x1="103.5" x2="183.5" y1="520.9531" y2="520.9531"/><ellipse cx="113.5" cy="532.8555" fill="#84BE84" rx="3" ry="3" style="stroke: #038048; stroke-width: 1.0;"/><text fill="#000000" font-family="sans-serif" font-size="11" lengthAdjust="spacingAndGlyphs" textLength="54" x="122.5" y="535.1636">L2shear()</text><!--class tildeMultiOperatorMultiDual--><rect fill="#FEFECE" filter="url(#fuclzzi)" height="99.2188" style="stroke: #A80036; stroke-width: 1.5;" width="201" x="259" y="162.4531"/><ellipse cx="274" cy="178.4531" fill="#E6FFE6" rx="11" ry="11" style="stroke: #A80036; stroke-width: 1.0;"/><path d="M275.9531,179.3594 L272.3125,179.3594 L272.3125,181.75 L272.5625,181.75 C273.0156,181.75 273.1875,181.7813 273.3281,181.9063 C273.5625,182.0781 273.6875,182.3281 273.6875,182.6094 C273.6875,182.8906 273.5313,183.1875 273.2813,183.3281 C273.1406,183.4219 272.9219,183.4531 272.5625,183.4531 L270.5156,183.4531 C270.1094,183.4531 269.8906,183.4063 269.7344,183.2969 C269.5313,183.125 269.3906,182.8594 269.3906,182.6094 C269.3906,182.3125 269.5469,182.0313 269.7969,181.875 C269.9531,181.7656 270.0938,181.75 270.5156,181.75 L270.6094,181.75 L270.6094,175.2344 C270.0469,175.1875 269.7344,174.8906 269.7344,174.3906 C269.7344,174.1094 269.8906,173.8125 270.1406,173.6563 C270.2969,173.5625 270.4219,173.5469 270.8594,173.5469 L272.5625,173.5469 C273.0313,173.5469 273.1875,173.5781 273.3281,173.6875 C273.5625,173.8594 273.6875,174.125 273.6875,174.3906 C273.6875,174.6875 273.5313,174.9688 273.2813,175.125 C273.125,175.2031 272.9844,175.2344 272.5625,175.2344 L272.3125,175.2344 L272.3125,177.6563 L275.9531,177.6563 L275.9531,175.2344 L275.7031,175.2344 C275.25,175.2344 275.1094,175.2031 274.9375,175.0938 C274.7188,174.9219 274.5781,174.6719 274.5781,174.3906 C274.5781,174.1094 274.7344,173.8125 274.9844,173.6563 C275.1406,173.5625 275.2656,173.5469 275.7031,173.5469 L277.4219,173.5469 C277.875,173.5469 278.0313,173.5781 278.2031,173.6875 C278.4063,173.8594 278.5313,174.125 278.5313,174.3906 C278.5313,174.8906 278.2188,175.1875 277.6563,175.2344 L277.6563,181.75 L277.75,181.75 C278.2188,181.75 278.3594,181.7813 278.5156,181.9063 C278.7344,182.0781 278.875,182.3281 278.875,182.6094 C278.875,182.8906 278.7188,183.1875 278.4688,183.3281 C278.3281,183.4219 278.1094,183.4531 277.75,183.4531 L275.7031,183.4531 C275.2969,183.4531 275.0938,183.4063 274.9375,183.2969 C274.7188,183.125 274.5781,182.8594 274.5781,182.6094 C274.5781,182.3125 274.7344,182.0313 274.9844,181.875 C275.1406,181.7656 275.2969,181.75 275.7031,181.75 L275.9531,181.75 Z "/><text fill="#000000" font-family="sans-serif" font-size="12" lengthAdjust="spacingAndGlyphs" textLength="169" x="288" y="182.6074">tildeMultiOperatorMultiDual</text><line style="stroke: #A80036; stroke-width: 1.5;" x1="260" x2="459" y1="194.4531" y2="194.4531"/><line style="stroke: #A80036; stroke-width: 1.5;" x1="260" x2="459" y1="202.4531" y2="202.4531"/><ellipse cx="270" cy="214.3555" fill="#84BE84" rx="3" ry="3" style="stroke: #038048; stroke-width: 1.0;"/><text fill="#000000" font-family="sans-serif" font-size="11" lengthAdjust="spacingAndGlyphs" textLength="43" x="279" y="216.6636">xError()</text><ellipse cx="270" cy="227.1602" fill="#84BE84" rx="3" ry="3" style="stroke: #038048; stroke-width: 1.0;"/><text fill="#000000" font-family="sans-serif" font-size="11" lengthAdjust="spacingAndGlyphs" textLength="41" x="279" y="229.4683">xTilde()</text><ellipse cx="270" cy="239.9648" fill="#84BE84" rx="3" ry="3" style="stroke: #038048; stroke-width: 1.0;"/><text fill="#000000" font-family="sans-serif" font-size="11" lengthAdjust="spacingAndGlyphs" textLength="43" x="279" y="242.2729">yError()</text><ellipse cx="270" cy="252.7695" fill="#84BE84" rx="3" ry="3" style="stroke: #038048; stroke-width: 1.0;"/><text fill="#000000" font-family="sans-serif" font-size="11" lengthAdjust="spacingAndGlyphs" textLength="41" x="279" y="255.0776">yTilde()</text><!--class L1AnisoProxDual--><rect fill="#FEFECE" filter="url(#fuclzzi)" height="73.6094" style="stroke: #A80036; stroke-width: 1.5;" width="135" x="142" y="346.9531"/><ellipse cx="157" cy="362.9531" fill="#E6FFE6" rx="11" ry="11" style="stroke: #A80036; stroke-width: 1.0;"/><path d="M158.9531,363.8594 L155.3125,363.8594 L155.3125,366.25 L155.5625,366.25 C156.0156,366.25 156.1875,366.2813 156.3281,366.4063 C156.5625,366.5781 156.6875,366.8281 156.6875,367.1094 C156.6875,367.3906 156.5313,367.6875 156.2813,367.8281 C156.1406,367.9219 155.9219,367.9531 155.5625,367.9531 L153.5156,367.9531 C153.1094,367.9531 152.8906,367.9063 152.7344,367.7969 C152.5313,367.625 152.3906,367.3594 152.3906,367.1094 C152.3906,366.8125 152.5469,366.5313 152.7969,366.375 C152.9531,366.2656 153.0938,366.25 153.5156,366.25 L153.6094,366.25 L153.6094,359.7344 C153.0469,359.6875 152.7344,359.3906 152.7344,358.8906 C152.7344,358.6094 152.8906,358.3125 153.1406,358.1563 C153.2969,358.0625 153.4219,358.0469 153.8594,358.0469 L155.5625,358.0469 C156.0313,358.0469 156.1875,358.0781 156.3281,358.1875 C156.5625,358.3594 156.6875,358.625 156.6875,358.8906 C156.6875,359.1875 156.5313,359.4688 156.2813,359.625 C156.125,359.7031 155.9844,359.7344 155.5625,359.7344 L155.3125,359.7344 L155.3125,362.1563 L158.9531,362.1563 L158.9531,359.7344 L158.7031,359.7344 C158.25,359.7344 158.1094,359.7031 157.9375,359.5938 C157.7188,359.4219 157.5781,359.1719 157.5781,358.8906 C157.5781,358.6094 157.7344,358.3125 157.9844,358.1563 C158.1406,358.0625 158.2656,358.0469 158.7031,358.0469 L160.4219,358.0469 C160.875,358.0469 161.0313,358.0781 161.2031,358.1875 C161.4063,358.3594 161.5313,358.625 161.5313,358.8906 C161.5313,359.3906 161.2188,359.6875 160.6563,359.7344 L160.6563,366.25 L160.75,366.25 C161.2188,366.25 161.3594,366.2813 161.5156,366.4063 C161.7344,366.5781 161.875,366.8281 161.875,367.1094 C161.875,367.3906 161.7188,367.6875 161.4688,367.8281 C161.3281,367.9219 161.1094,367.9531 160.75,367.9531 L158.7031,367.9531 C158.2969,367.9531 158.0938,367.9063 157.9375,367.7969 C157.7188,367.625 157.5781,367.3594 157.5781,367.1094 C157.5781,366.8125 157.7344,366.5313 157.9844,366.375 C158.1406,366.2656 158.2969,366.25 158.7031,366.25 L158.9531,366.25 Z "/><text fill="#000000" font-family="sans-serif" font-size="12" lengthAdjust="spacingAndGlyphs" textLength="103" x="171" y="367.1074">L1AnisoProxDual</text><line style="stroke: #A80036; stroke-width: 1.5;" x1="143" x2="276" y1="378.9531" y2="378.9531"/><line style="stroke: #A80036; stroke-width: 1.5;" x1="143" x2="276" y1="386.9531" y2="386.9531"/><ellipse cx="153" cy="398.8555" fill="#84BE84" rx="3" ry="3" style="stroke: #038048; stroke-width: 1.0;"/><text fill="#000000" font-family="sans-serif" font-size="11" lengthAdjust="spacingAndGlyphs" textLength="102" x="162" y="401.1636">L1AnisoProxDual()</text><ellipse cx="153" cy="411.6602" fill="#84BE84" rx="3" ry="3" style="stroke: #038048; stroke-width: 1.0;"/><text fill="#000000" font-family="sans-serif" font-size="11" lengthAdjust="spacingAndGlyphs" textLength="63" x="162" y="413.9683">applyProx()</text><!--class L1IsoProxDual--><rect fill="#FEFECE" filter="url(#fuclzzi)" height="73.6094" style="stroke: #A80036; stroke-width: 1.5;" width="119" x="658" y="346.9531"/><ellipse cx="673" cy="362.9531" fill="#E6FFE6" rx="11" ry="11" style="stroke: #A80036; stroke-width: 1.0;"/><path d="M674.9531,363.8594 L671.3125,363.8594 L671.3125,366.25 L671.5625,366.25 C672.0156,366.25 672.1875,366.2813 672.3281,366.4063 C672.5625,366.5781 672.6875,366.8281 672.6875,367.1094 C672.6875,367.3906 672.5313,367.6875 672.2813,367.8281 C672.1406,367.9219 671.9219,367.9531 671.5625,367.9531 L669.5156,367.9531 C669.1094,367.9531 668.8906,367.9063 668.7344,367.7969 C668.5313,367.625 668.3906,367.3594 668.3906,367.1094 C668.3906,366.8125 668.5469,366.5313 668.7969,366.375 C668.9531,366.2656 669.0938,366.25 669.5156,366.25 L669.6094,366.25 L669.6094,359.7344 C669.0469,359.6875 668.7344,359.3906 668.7344,358.8906 C668.7344,358.6094 668.8906,358.3125 669.1406,358.1563 C669.2969,358.0625 669.4219,358.0469 669.8594,358.0469 L671.5625,358.0469 C672.0313,358.0469 672.1875,358.0781 672.3281,358.1875 C672.5625,358.3594 672.6875,358.625 672.6875,358.8906 C672.6875,359.1875 672.5313,359.4688 672.2813,359.625 C672.125,359.7031 671.9844,359.7344 671.5625,359.7344 L671.3125,359.7344 L671.3125,362.1563 L674.9531,362.1563 L674.9531,359.7344 L674.7031,359.7344 C674.25,359.7344 674.1094,359.7031 673.9375,359.5938 C673.7188,359.4219 673.5781,359.1719 673.5781,358.8906 C673.5781,358.6094 673.7344,358.3125 673.9844,358.1563 C674.1406,358.0625 674.2656,358.0469 674.7031,358.0469 L676.4219,358.0469 C676.875,358.0469 677.0313,358.0781 677.2031,358.1875 C677.4063,358.3594 677.5313,358.625 677.5313,358.8906 C677.5313,359.3906 677.2188,359.6875 676.6563,359.7344 L676.6563,366.25 L676.75,366.25 C677.2188,366.25 677.3594,366.2813 677.5156,366.4063 C677.7344,366.5781 677.875,366.8281 677.875,367.1094 C677.875,367.3906 677.7188,367.6875 677.4688,367.8281 C677.3281,367.9219 677.1094,367.9531 676.75,367.9531 L674.7031,367.9531 C674.2969,367.9531 674.0938,367.9063 673.9375,367.7969 C673.7188,367.625 673.5781,367.3594 673.5781,367.1094 C673.5781,366.8125 673.7344,366.5313 673.9844,366.375 C674.1406,366.2656 674.2969,366.25 674.7031,366.25 L674.9531,366.25 Z "/><text fill="#000000" font-family="sans-serif" font-size="12" lengthAdjust="spacingAndGlyphs" textLength="87" x="687" y="367.1074">L1IsoProxDual</text><line style="stroke: #A80036; stroke-width: 1.5;" x1="659" x2="776" y1="378.9531" y2="378.9531"/><line style="stroke: #A80036; stroke-width: 1.5;" x1="659" x2="776" y1="386.9531" y2="386.9531"/><ellipse cx="669" cy="398.8555" fill="#84BE84" rx="3" ry="3" style="stroke: #038048; stroke-width: 1.0;"/><text fill="#000000" font-family="sans-serif" font-size="11" lengthAdjust="spacingAndGlyphs" textLength="88" x="678" y="401.1636">L1IsoProxDual()</text><ellipse cx="669" cy="411.6602" fill="#84BE84" rx="3" ry="3" style="stroke: #038048; stroke-width: 1.0;"/><text fill="#000000" font-family="sans-serif" font-size="11" lengthAdjust="spacingAndGlyphs" textLength="63" x="678" y="413.9683">applyProx()</text><!--class L2proxDual--><rect fill="#FEFECE" filter="url(#fuclzzi)" height="73.6094" style="stroke: #A80036; stroke-width: 1.5;" width="101" x="6" y="346.9531"/><ellipse cx="21" cy="362.9531" fill="#E6FFE6" rx="11" ry="11" style="stroke: #A80036; stroke-width: 1.0;"/><path d="M22.9531,363.8594 L19.3125,363.8594 L19.3125,366.25 L19.5625,366.25 C20.0156,366.25 20.1875,366.2813 20.3281,366.4063 C20.5625,366.5781 20.6875,366.8281 20.6875,367.1094 C20.6875,367.3906 20.5313,367.6875 20.2813,367.8281 C20.1406,367.9219 19.9219,367.9531 19.5625,367.9531 L17.5156,367.9531 C17.1094,367.9531 16.8906,367.9063 16.7344,367.7969 C16.5313,367.625 16.3906,367.3594 16.3906,367.1094 C16.3906,366.8125 16.5469,366.5313 16.7969,366.375 C16.9531,366.2656 17.0938,366.25 17.5156,366.25 L17.6094,366.25 L17.6094,359.7344 C17.0469,359.6875 16.7344,359.3906 16.7344,358.8906 C16.7344,358.6094 16.8906,358.3125 17.1406,358.1563 C17.2969,358.0625 17.4219,358.0469 17.8594,358.0469 L19.5625,358.0469 C20.0313,358.0469 20.1875,358.0781 20.3281,358.1875 C20.5625,358.3594 20.6875,358.625 20.6875,358.8906 C20.6875,359.1875 20.5313,359.4688 20.2813,359.625 C20.125,359.7031 19.9844,359.7344 19.5625,359.7344 L19.3125,359.7344 L19.3125,362.1563 L22.9531,362.1563 L22.9531,359.7344 L22.7031,359.7344 C22.25,359.7344 22.1094,359.7031 21.9375,359.5938 C21.7188,359.4219 21.5781,359.1719 21.5781,358.8906 C21.5781,358.6094 21.7344,358.3125 21.9844,358.1563 C22.1406,358.0625 22.2656,358.0469 22.7031,358.0469 L24.4219,358.0469 C24.875,358.0469 25.0313,358.0781 25.2031,358.1875 C25.4063,358.3594 25.5313,358.625 25.5313,358.8906 C25.5313,359.3906 25.2188,359.6875 24.6563,359.7344 L24.6563,366.25 L24.75,366.25 C25.2188,366.25 25.3594,366.2813 25.5156,366.4063 C25.7344,366.5781 25.875,366.8281 25.875,367.1094 C25.875,367.3906 25.7188,367.6875 25.4688,367.8281 C25.3281,367.9219 25.1094,367.9531 24.75,367.9531 L22.7031,367.9531 C22.2969,367.9531 22.0938,367.9063 21.9375,367.7969 C21.7188,367.625 21.5781,367.3594 21.5781,367.1094 C21.5781,366.8125 21.7344,366.5313 21.9844,366.375 C22.1406,366.2656 22.2969,366.25 22.7031,366.25 L22.9531,366.25 Z "/><text fill="#000000" font-family="sans-serif" font-size="12" lengthAdjust="spacingAndGlyphs" textLength="69" x="35" y="367.1074">L2proxDual</text><line style="stroke: #A80036; stroke-width: 1.5;" x1="7" x2="106" y1="378.9531" y2="378.9531"/><line style="stroke: #A80036; stroke-width: 1.5;" x1="7" x2="106" y1="386.9531" y2="386.9531"/><ellipse cx="17" cy="398.8555" fill="#84BE84" rx="3" ry="3" style="stroke: #038048; stroke-width: 1.0;"/><text fill="#000000" font-family="sans-serif" font-size="11" lengthAdjust="spacingAndGlyphs" textLength="71" x="26" y="401.1636">L2proxDual()</text><ellipse cx="17" cy="411.6602" fill="#84BE84" rx="3" ry="3" style="stroke: #038048; stroke-width: 1.0;"/><text fill="#000000" font-family="sans-serif" font-size="11" lengthAdjust="spacingAndGlyphs" textLength="63" x="26" y="413.9683">applyProx()</text><!--class functionalPart--><rect fill="#FEFECE" filter="url(#fuclzzi)" height="48" style="stroke: #A80036; stroke-width: 1.5;" width="120" x="479.5" y="28.9531"/><ellipse cx="494.5" cy="44.9531" fill="#ADD1B2" rx="11" ry="11" style="stroke: #A80036; stroke-width: 1.0;"/><path d="M496.8438,40.625 L497.0156,40.7031 C497.2344,40.3906 497.4375,40.2969 497.7344,40.2969 C498.0313,40.2969 498.3125,40.4375 498.4688,40.7031 C498.5625,40.8594 498.5781,40.9844 498.5781,41.4219 L498.5781,42.8438 C498.5781,43.2656 498.5469,43.4531 498.4375,43.6094 C498.2656,43.8281 498,43.9688 497.7344,43.9688 C497.5156,43.9688 497.2813,43.8594 497.1406,43.7188 C497,43.5938 496.9688,43.4688 496.9063,43.0625 C496.8125,42.6563 496.6406,42.4375 496.1563,42.1563 C495.6875,41.9063 495.0781,41.75 494.5,41.75 C492.7656,41.75 491.5156,43.0625 491.5156,44.8438 L491.5156,45.9375 C491.5156,47.6406 492.8125,48.7344 494.8594,48.7344 C495.625,48.7344 496.3125,48.6094 496.7344,48.3438 C496.9219,48.25 496.9219,48.25 497.375,47.7656 C497.5625,47.5781 497.7656,47.5 497.9844,47.5 C498.4531,47.5 498.8438,47.8906 498.8438,48.3438 C498.8438,48.7344 498.5156,49.1875 497.9375,49.5938 C497.1875,50.1406 496.0313,50.4375 494.8125,50.4375 C491.9219,50.4375 489.8125,48.5469 489.8125,45.9688 L489.8125,44.8438 C489.8125,42.125 491.8125,40.0469 494.4375,40.0469 C495.3125,40.0469 495.9063,40.1875 496.8438,40.625 Z "/><text fill="#000000" font-family="sans-serif" font-size="12" lengthAdjust="spacingAndGlyphs" textLength="88" x="508.5" y="49.1074">functionalPart</text><line style="stroke: #A80036; stroke-width: 1.5;" x1="480.5" x2="598.5" y1="60.9531" y2="60.9531"/><line style="stroke: #A80036; stroke-width: 1.5;" x1="480.5" x2="598.5" y1="68.9531" y2="68.9531"/><path d="M539.5,97.3281 C539.5,109.6191 539.5,123.3581 539.5,136.9181 " fill="none" style="stroke: #A80036; stroke-width: 1.0;"/><polygon fill="none" points="532.5,97.1191,539.5,77.1191,546.5,97.1191,532.5,97.1191" style="stroke: #A80036; stroke-width: 1.0;"/><path d="M537.837,307.1831 C537.541,323.9771 537.253,340.2841 537.021,353.4411 " fill="none" style="stroke: #A80036; stroke-width: 1.0;"/><polygon fill="none" points="530.841,306.8961,538.193,287.0231,544.839,307.1431,530.841,306.8961" style="stroke: #A80036; stroke-width: 1.0;"/><path d="M424.776,275.6481 C452.488,302.2641 483.47,332.0201 505.765,353.4341 " fill="none" style="stroke: #A80036; stroke-width: 1.0;"/><polygon fill="none" points="419.797,280.5711,410.221,261.6681,429.495,270.4741,419.797,280.5711" style="stroke: #A80036; stroke-width: 1.0;"/><path d="M481.039,283.3531 C479.858,284.5711 478.678,285.7721 477.5,286.9531 C453.745,310.7681 424.719,335.1511 401.9,353.3851 " fill="none" style="stroke: #A80036; stroke-width: 1.0;"/><polygon fill="none" points="476.102,278.3821,494.821,268.4531,486.379,287.8881,476.102,278.3821" style="stroke: #A80036; stroke-width: 1.0;"/><path d="M361.124,281.9561 C361.71,306.8751 362.341,333.6981 362.805,353.4341 " fill="none" style="stroke: #A80036; stroke-width: 1.0;"/><polygon fill="none" points="354.119,281.8271,360.646,261.6681,368.115,281.4981,354.119,281.8271" style="stroke: #A80036; stroke-width: 1.0;"/><path d="M334.641,431.9891 C324.572,448.4003 313.563,466.344 304.617,480.9248 " fill="none" style="stroke: #A80036; stroke-width: 1.0;"/><polygon fill="none" points="328.826,428.0811,345.252,414.6951,340.759,435.4031,328.826,428.0811" style="stroke: #A80036; stroke-width: 1.0;"/><path d="M242.253,438.3371 C251.123,452.7925 260.408,467.9267 268.17,480.5771 " fill="none" style="stroke: #A80036; stroke-width: 1.0;"/><polygon fill="none" points="236.264,441.9608,231.772,421.2531,248.197,434.6391,236.264,441.9608" style="stroke: #A80036; stroke-width: 1.0;"/><path d="M421.77,426.2691 C446.963,444.1317 475.871,464.6286 498.855,480.9248 " fill="none" style="stroke: #A80036; stroke-width: 1.0;"/><polygon fill="none" points="417.713,431.9731,405.447,414.6951,425.81,420.5531,417.713,431.9731" style="stroke: #A80036; stroke-width: 1.0;"/><path d="M649.82,432.9411 C627.117,449.038 602.477,466.5089 582.347,480.7822 " fill="none" style="stroke: #A80036; stroke-width: 1.0;"/><polygon fill="none" points="645.94,427.1111,666.304,421.2531,654.038,438.5311,645.94,427.1111" style="stroke: #A80036; stroke-width: 1.0;"/><path d="M294.852,424.1131 C258.726,444.7222 215.634,469.3039 184.687,486.958 " fill="none" style="stroke: #A80036; stroke-width: 1.0;"/><polygon fill="none" points="291.634,417.8901,312.475,414.0611,298.571,430.0511,291.634,417.8901" style="stroke: #A80036; stroke-width: 1.0;"/><path d="M93.1768,437.8601 C103.2973,452.4596 113.923,467.7877 122.789,480.5771 " fill="none" style="stroke: #A80036; stroke-width: 1.0;"/><polygon fill="none" points="87.3056,441.6781,81.664,421.2531,98.8113,433.7021,87.3056,441.6781" style="stroke: #A80036; stroke-width: 1.0;"/></g></svg>