<?xml version="1.0" encoding="UTF-8" standalone="no"?><svg xmlns="http://www.w3.org/2000/svg" xmlns:xlink="http://www.w3.org/1999/xlink" contentScriptType="application/ecmascript" contentStyleType="text/css" height="563px" preserveAspectRatio="none" style="width:1210px;height:563px;" version="1.1" viewBox="0 0 1210 563" width="1210px" zoomAndPan="magnify"><defs><filter height="300%" id="fb2b3vo" width="300%" x="-1" y="-1"><feGaussianBlur result="blurOut" stdDeviation="2.0"/><feColorMatrix in="blurOut" result="blurOut2" type="matrix" values="0 0 0 0 0 0 0 0 0 0 0 0 0 0 0 0 0 0 .4 0"/><feOffset dx="4.0" dy="4.0" in="blurOut2" result="blurOut3"/><feBlend in="SourceGraphic" in2="blurOut3" mode="normal"/></filter></defs><g><text fill="#000000" font-family="sans-serif" font-size="18" font-weight="bold" lengthAdjust="spacingAndGlyphs" textLength="252" x="483.5" y="16.708">Regularizer Terms (Misc)</text><!--class dualPart--><rect fill="#FEFECE" filter="url(#fb2b3vo)" height="150.4375" style="stroke: #A80036; stroke-width: 1.5;" width="89" x="632" y="136.9531"/><ellipse cx="648.8" cy="152.9531" fill="#E6FFE6" rx="11" ry="11" style="stroke: #A80036; stroke-width: 1.0;"/><path d="M650.3781,154.7656 L646.3313,154.7656 L645.9406,155.75 L646.3313,155.75 C646.7844,155.75 646.925,155.7813 647.0969,155.9063 C647.3156,156.0781 647.4406,156.3281 647.4406,156.6094 C647.4406,156.8906 647.3,157.1875 647.0344,157.3281 C646.9094,157.4219 646.6906,157.4531 646.3313,157.4531 L644.0656,157.4531 C643.3156,157.4531 642.9406,157.1719 642.9406,156.6094 C642.9406,156.3125 643.0969,156.0313 643.3469,155.875 C643.5031,155.7656 643.6594,155.75 644.0813,155.75 L646.7219,149.2344 L645.6438,149.2344 C645.2063,149.2344 645.0344,149.2031 644.8625,149.0938 C644.6438,148.9219 644.5031,148.6719 644.5031,148.3906 C644.5031,148.1094 644.6594,147.8281 644.9094,147.6563 C645.0656,147.5625 645.1906,147.5469 645.6438,147.5469 L649.3156,147.5469 L652.7063,155.75 C653.175,155.75 653.3313,155.7813 653.5031,155.9219 C653.7219,156.0781 653.8625,156.3281 653.8625,156.6094 C653.8625,156.8906 653.7063,157.1875 653.4563,157.3281 C653.3156,157.4219 653.0969,157.4531 652.7375,157.4531 L650.3781,157.4531 C649.9563,157.4531 649.7531,157.4063 649.6125,157.2813 C649.3938,157.125 649.2531,156.875 649.2531,156.6094 C649.2531,156.3125 649.4094,156.0313 649.6594,155.875 C649.8156,155.7656 649.925,155.75 650.3781,155.75 L650.7688,155.75 Z M649.675,153.0625 L648.3469,149.7969 L647.0031,153.0625 Z "/><text fill="#000000" font-family="sans-serif" font-size="12" lengthAdjust="spacingAndGlyphs" textLength="53" x="663.2" y="157.1074">dualPart</text><line style="stroke: #A80036; stroke-width: 1.5;" x1="633" x2="720" y1="168.9531" y2="168.9531"/><ellipse cx="643" cy="180.8555" fill="none" rx="3" ry="3" style="stroke: #038048; stroke-width: 1.0;"/><text fill="#000000" font-family="sans-serif" font-size="11" lengthAdjust="spacingAndGlyphs" textLength="35" x="652" y="183.1636">length</text><ellipse cx="643" cy="193.6602" fill="none" rx="3" ry="3" style="stroke: #038048; stroke-width: 1.0;"/><text fill="#000000" font-family="sans-serif" font-size="11" lengthAdjust="spacingAndGlyphs" textLength="53" x="652" y="195.9683">mySigma</text><ellipse cx="643" cy="206.4648" fill="none" rx="3" ry="3" style="stroke: #038048; stroke-width: 1.0;"/><text fill="#000000" font-family="sans-serif" font-size="11" lengthAdjust="spacingAndGlyphs" textLength="38" x="652" y="208.7729">myTau</text><ellipse cx="643" cy="219.2695" fill="none" rx="3" ry="3" style="stroke: #038048; stroke-width: 1.0;"/><text fill="#000000" font-family="sans-serif" font-size="11" lengthAdjust="spacingAndGlyphs" textLength="51" x="652" y="221.5776">numVars</text><ellipse cx="643" cy="232.0742" fill="none" rx="3" ry="3" style="stroke: #038048; stroke-width: 1.0;"/><text fill="#000000" font-family="sans-serif" font-size="11" lengthAdjust="spacingAndGlyphs" textLength="49" x="652" y="234.3823">operator</text><ellipse cx="643" cy="244.8789" fill="none" rx="3" ry="3" style="stroke: #038048; stroke-width: 1.0;"/><text fill="#000000" font-family="sans-serif" font-size="11" lengthAdjust="spacingAndGlyphs" textLength="56" x="652" y="247.187">operatorT</text><line style="stroke: #A80036; stroke-width: 1.5;" x1="633" x2="720" y1="253.7813" y2="253.7813"/><ellipse cx="643" cy="265.6836" fill="#84BE84" rx="3" ry="3" style="stroke: #038048; stroke-width: 1.0;"/><text fill="#000000" font-family="sans-serif" font-size="11" lengthAdjust="spacingAndGlyphs" textLength="55" x="652" y="267.9917">dualPart()</text><ellipse cx="643" cy="278.4883" fill="#84BE84" rx="3" ry="3" style="stroke: #038048; stroke-width: 1.0;"/><text fill="#000000" font-family="sans-serif" font-size="11" lengthAdjust="spacingAndGlyphs" textLength="63" x="652" y="280.7964">applyProx()</text><!--class basicDualizedOperator--><rect fill="#FEFECE" filter="url(#fb2b3vo)" height="60.8047" style="stroke: #A80036; stroke-width: 1.5;" width="173" x="500" y="353.4531"/><ellipse cx="515" cy="369.4531" fill="#E6FFE6" rx="11" ry="11" style="stroke: #A80036; stroke-width: 1.0;"/><path d="M516.5781,371.2656 L512.5313,371.2656 L512.1406,372.25 L512.5313,372.25 C512.9844,372.25 513.125,372.2813 513.2969,372.4063 C513.5156,372.5781 513.6406,372.8281 513.6406,373.1094 C513.6406,373.3906 513.5,373.6875 513.2344,373.8281 C513.1094,373.9219 512.8906,373.9531 512.5313,373.9531 L510.2656,373.9531 C509.5156,373.9531 509.1406,373.6719 509.1406,373.1094 C509.1406,372.8125 509.2969,372.5313 509.5469,372.375 C509.7031,372.2656 509.8594,372.25 510.2813,372.25 L512.9219,365.7344 L511.8438,365.7344 C511.4063,365.7344 511.2344,365.7031 511.0625,365.5938 C510.8438,365.4219 510.7031,365.1719 510.7031,364.8906 C510.7031,364.6094 510.8594,364.3281 511.1094,364.1563 C511.2656,364.0625 511.3906,364.0469 511.8438,364.0469 L515.5156,364.0469 L518.9063,372.25 C519.375,372.25 519.5313,372.2813 519.7031,372.4219 C519.9219,372.5781 520.0625,372.8281 520.0625,373.1094 C520.0625,373.3906 519.9063,373.6875 519.6563,373.8281 C519.5156,373.9219 519.2969,373.9531 518.9375,373.9531 L516.5781,373.9531 C516.1563,373.9531 515.9531,373.9063 515.8125,373.7813 C515.5938,373.625 515.4531,373.375 515.4531,373.1094 C515.4531,372.8125 515.6094,372.5313 515.8594,372.375 C516.0156,372.2656 516.125,372.25 516.5781,372.25 L516.9688,372.25 Z M515.875,369.5625 L514.5469,366.2969 L513.2031,369.5625 Z "/><text fill="#000000" font-family="sans-serif" font-size="12" lengthAdjust="spacingAndGlyphs" textLength="141" x="529" y="373.6074">basicDualizedOperator</text><line style="stroke: #A80036; stroke-width: 1.5;" x1="501" x2="672" y1="385.4531" y2="385.4531"/><line style="stroke: #A80036; stroke-width: 1.5;" x1="501" x2="672" y1="393.4531" y2="393.4531"/><ellipse cx="511" cy="405.3555" fill="#84BE84" rx="3" ry="3" style="stroke: #038048; stroke-width: 1.0;"/><text fill="#000000" font-family="sans-serif" font-size="11" lengthAdjust="spacingAndGlyphs" textLength="136" x="520" y="407.6636">basicDualizedOperator()</text><!--class frobeniusOperator--><rect fill="#FEFECE" filter="url(#fb2b3vo)" height="60.8047" style="stroke: #A80036; stroke-width: 1.5;" width="147" x="155" y="487.4531"/><ellipse cx="170" cy="503.4531" fill="#E6FFE6" rx="11" ry="11" style="stroke: #A80036; stroke-width: 1.0;"/><path d="M171.9531,504.3594 L168.3125,504.3594 L168.3125,506.75 L168.5625,506.75 C169.0156,506.75 169.1875,506.7813 169.3281,506.9063 C169.5625,507.0781 169.6875,507.3281 169.6875,507.6094 C169.6875,507.8906 169.5313,508.1875 169.2813,508.3281 C169.1406,508.4219 168.9219,508.4531 168.5625,508.4531 L166.5156,508.4531 C166.1094,508.4531 165.8906,508.4063 165.7344,508.2969 C165.5313,508.125 165.3906,507.8594 165.3906,507.6094 C165.3906,507.3125 165.5469,507.0313 165.7969,506.875 C165.9531,506.7656 166.0938,506.75 166.5156,506.75 L166.6094,506.75 L166.6094,500.2344 C166.0469,500.1875 165.7344,499.8906 165.7344,499.3906 C165.7344,499.1094 165.8906,498.8125 166.1406,498.6563 C166.2969,498.5625 166.4219,498.5469 166.8594,498.5469 L168.5625,498.5469 C169.0313,498.5469 169.1875,498.5781 169.3281,498.6875 C169.5625,498.8594 169.6875,499.125 169.6875,499.3906 C169.6875,499.6875 169.5313,499.9688 169.2813,500.125 C169.125,500.2031 168.9844,500.2344 168.5625,500.2344 L168.3125,500.2344 L168.3125,502.6563 L171.9531,502.6563 L171.9531,500.2344 L171.7031,500.2344 C171.25,500.2344 171.1094,500.2031 170.9375,500.0938 C170.7188,499.9219 170.5781,499.6719 170.5781,499.3906 C170.5781,499.1094 170.7344,498.8125 170.9844,498.6563 C171.1406,498.5625 171.2656,498.5469 171.7031,498.5469 L173.4219,498.5469 C173.875,498.5469 174.0313,498.5781 174.2031,498.6875 C174.4063,498.8594 174.5313,499.125 174.5313,499.3906 C174.5313,499.8906 174.2188,500.1875 173.6563,500.2344 L173.6563,506.75 L173.75,506.75 C174.2188,506.75 174.3594,506.7813 174.5156,506.9063 C174.7344,507.0781 174.875,507.3281 174.875,507.6094 C174.875,507.8906 174.7188,508.1875 174.4688,508.3281 C174.3281,508.4219 174.1094,508.4531 173.75,508.4531 L171.7031,508.4531 C171.2969,508.4531 171.0938,508.4063 170.9375,508.2969 C170.7188,508.125 170.5781,507.8594 170.5781,507.6094 C170.5781,507.3125 170.7344,507.0313 170.9844,506.875 C171.1406,506.7656 171.2969,506.75 171.7031,506.75 L171.9531,506.75 Z "/><text fill="#000000" font-family="sans-serif" font-size="12" lengthAdjust="spacingAndGlyphs" textLength="115" x="184" y="507.6074">frobeniusOperator</text><line style="stroke: #A80036; stroke-width: 1.5;" x1="156" x2="301" y1="519.4531" y2="519.4531"/><line style="stroke: #A80036; stroke-width: 1.5;" x1="156" x2="301" y1="527.4531" y2="527.4531"/><ellipse cx="166" cy="539.3555" fill="#84BE84" rx="3" ry="3" style="stroke: #038048; stroke-width: 1.0;"/><text fill="#000000" font-family="sans-serif" font-size="11" lengthAdjust="spacingAndGlyphs" textLength="113" x="175" y="541.6636">frobeniusOperator()</text><!--class huberOperator--><rect fill="#FEFECE" filter="url(#fb2b3vo)" height="73.6094" style="stroke: #A80036; stroke-width: 1.5;" width="125" x="350" y="480.9531"/><ellipse cx="365" cy="496.9531" fill="#E6FFE6" rx="11" ry="11" style="stroke: #A80036; stroke-width: 1.0;"/><path d="M366.9531,497.8594 L363.3125,497.8594 L363.3125,500.25 L363.5625,500.25 C364.0156,500.25 364.1875,500.2813 364.3281,500.4063 C364.5625,500.5781 364.6875,500.8281 364.6875,501.1094 C364.6875,501.3906 364.5313,501.6875 364.2813,501.8281 C364.1406,501.9219 363.9219,501.9531 363.5625,501.9531 L361.5156,501.9531 C361.1094,501.9531 360.8906,501.9063 360.7344,501.7969 C360.5313,501.625 360.3906,501.3594 360.3906,501.1094 C360.3906,500.8125 360.5469,500.5313 360.7969,500.375 C360.9531,500.2656 361.0938,500.25 361.5156,500.25 L361.6094,500.25 L361.6094,493.7344 C361.0469,493.6875 360.7344,493.3906 360.7344,492.8906 C360.7344,492.6094 360.8906,492.3125 361.1406,492.1563 C361.2969,492.0625 361.4219,492.0469 361.8594,492.0469 L363.5625,492.0469 C364.0313,492.0469 364.1875,492.0781 364.3281,492.1875 C364.5625,492.3594 364.6875,492.625 364.6875,492.8906 C364.6875,493.1875 364.5313,493.4688 364.2813,493.625 C364.125,493.7031 363.9844,493.7344 363.5625,493.7344 L363.3125,493.7344 L363.3125,496.1563 L366.9531,496.1563 L366.9531,493.7344 L366.7031,493.7344 C366.25,493.7344 366.1094,493.7031 365.9375,493.5938 C365.7188,493.4219 365.5781,493.1719 365.5781,492.8906 C365.5781,492.6094 365.7344,492.3125 365.9844,492.1563 C366.1406,492.0625 366.2656,492.0469 366.7031,492.0469 L368.4219,492.0469 C368.875,492.0469 369.0313,492.0781 369.2031,492.1875 C369.4063,492.3594 369.5313,492.625 369.5313,492.8906 C369.5313,493.3906 369.2188,493.6875 368.6563,493.7344 L368.6563,500.25 L368.75,500.25 C369.2188,500.25 369.3594,500.2813 369.5156,500.4063 C369.7344,500.5781 369.875,500.8281 369.875,501.1094 C369.875,501.3906 369.7188,501.6875 369.4688,501.8281 C369.3281,501.9219 369.1094,501.9531 368.75,501.9531 L366.7031,501.9531 C366.2969,501.9531 366.0938,501.9063 365.9375,501.7969 C365.7188,501.625 365.5781,501.3594 365.5781,501.1094 C365.5781,500.8125 365.7344,500.5313 365.9844,500.375 C366.1406,500.2656 366.2969,500.25 366.7031,500.25 L366.9531,500.25 Z "/><text fill="#000000" font-family="sans-serif" font-size="12" lengthAdjust="spacingAndGlyphs" textLength="93" x="379" y="501.1074">huberOperator</text><line style="stroke: #A80036; stroke-width: 1.5;" x1="351" x2="474" y1="512.9531" y2="512.9531"/><ellipse cx="361" cy="524.8555" fill="none" rx="3" ry="3" style="stroke: #038048; stroke-width: 1.0;"/><text fill="#000000" font-family="sans-serif" font-size="11" lengthAdjust="spacingAndGlyphs" textLength="24" x="370" y="527.1636">epsi</text><line style="stroke: #A80036; stroke-width: 1.5;" x1="351" x2="474" y1="533.7578" y2="533.7578"/><ellipse cx="361" cy="545.6602" fill="#84BE84" rx="3" ry="3" style="stroke: #038048; stroke-width: 1.0;"/><text fill="#000000" font-family="sans-serif" font-size="11" lengthAdjust="spacingAndGlyphs" textLength="92" x="370" y="547.9683">huberOperator()</text><!--class innerProductOperator--><rect fill="#FEFECE" filter="url(#fb2b3vo)" height="73.6094" style="stroke: #A80036; stroke-width: 1.5;" width="169" x="528" y="480.9531"/><ellipse cx="543" cy="496.9531" fill="#E6FFE6" rx="11" ry="11" style="stroke: #A80036; stroke-width: 1.0;"/><path d="M544.9531,497.8594 L541.3125,497.8594 L541.3125,500.25 L541.5625,500.25 C542.0156,500.25 542.1875,500.2813 542.3281,500.4063 C542.5625,500.5781 542.6875,500.8281 542.6875,501.1094 C542.6875,501.3906 542.5313,501.6875 542.2813,501.8281 C542.1406,501.9219 541.9219,501.9531 541.5625,501.9531 L539.5156,501.9531 C539.1094,501.9531 538.8906,501.9063 538.7344,501.7969 C538.5313,501.625 538.3906,501.3594 538.3906,501.1094 C538.3906,500.8125 538.5469,500.5313 538.7969,500.375 C538.9531,500.2656 539.0938,500.25 539.5156,500.25 L539.6094,500.25 L539.6094,493.7344 C539.0469,493.6875 538.7344,493.3906 538.7344,492.8906 C538.7344,492.6094 538.8906,492.3125 539.1406,492.1563 C539.2969,492.0625 539.4219,492.0469 539.8594,492.0469 L541.5625,492.0469 C542.0313,492.0469 542.1875,492.0781 542.3281,492.1875 C542.5625,492.3594 542.6875,492.625 542.6875,492.8906 C542.6875,493.1875 542.5313,493.4688 542.2813,493.625 C542.125,493.7031 541.9844,493.7344 541.5625,493.7344 L541.3125,493.7344 L541.3125,496.1563 L544.9531,496.1563 L544.9531,493.7344 L544.7031,493.7344 C544.25,493.7344 544.1094,493.7031 543.9375,493.5938 C543.7188,493.4219 543.5781,493.1719 543.5781,492.8906 C543.5781,492.6094 543.7344,492.3125 543.9844,492.1563 C544.1406,492.0625 544.2656,492.0469 544.7031,492.0469 L546.4219,492.0469 C546.875,492.0469 547.0313,492.0781 547.2031,492.1875 C547.4063,492.3594 547.5313,492.625 547.5313,492.8906 C547.5313,493.3906 547.2188,493.6875 546.6563,493.7344 L546.6563,500.25 L546.75,500.25 C547.2188,500.25 547.3594,500.2813 547.5156,500.4063 C547.7344,500.5781 547.875,500.8281 547.875,501.1094 C547.875,501.3906 547.7188,501.6875 547.4688,501.8281 C547.3281,501.9219 547.1094,501.9531 546.75,501.9531 L544.7031,501.9531 C544.2969,501.9531 544.0938,501.9063 543.9375,501.7969 C543.7188,501.625 543.5781,501.3594 543.5781,501.1094 C543.5781,500.8125 543.7344,500.5313 543.9844,500.375 C544.1406,500.2656 544.2969,500.25 544.7031,500.25 L544.9531,500.25 Z "/><text fill="#000000" font-family="sans-serif" font-size="12" lengthAdjust="spacingAndGlyphs" textLength="137" x="557" y="501.1074">innerProductOperator</text><line style="stroke: #A80036; stroke-width: 1.5;" x1="529" x2="696" y1="512.9531" y2="512.9531"/><ellipse cx="539" cy="524.8555" fill="none" rx="3" ry="3" style="stroke: #038048; stroke-width: 1.0;"/><text fill="#000000" font-family="sans-serif" font-size="11" lengthAdjust="spacingAndGlyphs" textLength="7" x="548" y="527.1636">b</text><line style="stroke: #A80036; stroke-width: 1.5;" x1="529" x2="696" y1="533.7578" y2="533.7578"/><ellipse cx="539" cy="545.6602" fill="#84BE84" rx="3" ry="3" style="stroke: #038048; stroke-width: 1.0;"/><text fill="#000000" font-family="sans-serif" font-size="11" lengthAdjust="spacingAndGlyphs" textLength="131" x="548" y="547.9683">innerProductOperator()</text><!--class L1operatorAniso--><rect fill="#FEFECE" filter="url(#fb2b3vo)" height="60.8047" style="stroke: #A80036; stroke-width: 1.5;" width="135" x="835" y="487.4531"/><ellipse cx="850" cy="503.4531" fill="#E6FFE6" rx="11" ry="11" style="stroke: #A80036; stroke-width: 1.0;"/><path d="M851.9531,504.3594 L848.3125,504.3594 L848.3125,506.75 L848.5625,506.75 C849.0156,506.75 849.1875,506.7813 849.3281,506.9063 C849.5625,507.0781 849.6875,507.3281 849.6875,507.6094 C849.6875,507.8906 849.5313,508.1875 849.2813,508.3281 C849.1406,508.4219 848.9219,508.4531 848.5625,508.4531 L846.5156,508.4531 C846.1094,508.4531 845.8906,508.4063 845.7344,508.2969 C845.5313,508.125 845.3906,507.8594 845.3906,507.6094 C845.3906,507.3125 845.5469,507.0313 845.7969,506.875 C845.9531,506.7656 846.0938,506.75 846.5156,506.75 L846.6094,506.75 L846.6094,500.2344 C846.0469,500.1875 845.7344,499.8906 845.7344,499.3906 C845.7344,499.1094 845.8906,498.8125 846.1406,498.6563 C846.2969,498.5625 846.4219,498.5469 846.8594,498.5469 L848.5625,498.5469 C849.0313,498.5469 849.1875,498.5781 849.3281,498.6875 C849.5625,498.8594 849.6875,499.125 849.6875,499.3906 C849.6875,499.6875 849.5313,499.9688 849.2813,500.125 C849.125,500.2031 848.9844,500.2344 848.5625,500.2344 L848.3125,500.2344 L848.3125,502.6563 L851.9531,502.6563 L851.9531,500.2344 L851.7031,500.2344 C851.25,500.2344 851.1094,500.2031 850.9375,500.0938 C850.7188,499.9219 850.5781,499.6719 850.5781,499.3906 C850.5781,499.1094 850.7344,498.8125 850.9844,498.6563 C851.1406,498.5625 851.2656,498.5469 851.7031,498.5469 L853.4219,498.5469 C853.875,498.5469 854.0313,498.5781 854.2031,498.6875 C854.4063,498.8594 854.5313,499.125 854.5313,499.3906 C854.5313,499.8906 854.2188,500.1875 853.6563,500.2344 L853.6563,506.75 L853.75,506.75 C854.2188,506.75 854.3594,506.7813 854.5156,506.9063 C854.7344,507.0781 854.875,507.3281 854.875,507.6094 C854.875,507.8906 854.7188,508.1875 854.4688,508.3281 C854.3281,508.4219 854.1094,508.4531 853.75,508.4531 L851.7031,508.4531 C851.2969,508.4531 851.0938,508.4063 850.9375,508.2969 C850.7188,508.125 850.5781,507.8594 850.5781,507.6094 C850.5781,507.3125 850.7344,507.0313 850.9844,506.875 C851.1406,506.7656 851.2969,506.75 851.7031,506.75 L851.9531,506.75 Z "/><text fill="#000000" font-family="sans-serif" font-size="12" lengthAdjust="spacingAndGlyphs" textLength="103" x="864" y="507.6074">L1operatorAniso</text><line style="stroke: #A80036; stroke-width: 1.5;" x1="836" x2="969" y1="519.4531" y2="519.4531"/><line style="stroke: #A80036; stroke-width: 1.5;" x1="836" x2="969" y1="527.4531" y2="527.4531"/><ellipse cx="846" cy="539.3555" fill="#84BE84" rx="3" ry="3" style="stroke: #038048; stroke-width: 1.0;"/><text fill="#000000" font-family="sans-serif" font-size="11" lengthAdjust="spacingAndGlyphs" textLength="101" x="855" y="541.6636">L1operatorAniso()</text><!--class L1operatorIso--><rect fill="#FEFECE" filter="url(#fb2b3vo)" height="60.8047" style="stroke: #A80036; stroke-width: 1.5;" width="119" x="1056" y="487.4531"/><ellipse cx="1071" cy="503.4531" fill="#E6FFE6" rx="11" ry="11" style="stroke: #A80036; stroke-width: 1.0;"/><path d="M1072.9531,504.3594 L1069.3125,504.3594 L1069.3125,506.75 L1069.5625,506.75 C1070.0156,506.75 1070.1875,506.7813 1070.3281,506.9063 C1070.5625,507.0781 1070.6875,507.3281 1070.6875,507.6094 C1070.6875,507.8906 1070.5313,508.1875 1070.2813,508.3281 C1070.1406,508.4219 1069.9219,508.4531 1069.5625,508.4531 L1067.5156,508.4531 C1067.1094,508.4531 1066.8906,508.4063 1066.7344,508.2969 C1066.5313,508.125 1066.3906,507.8594 1066.3906,507.6094 C1066.3906,507.3125 1066.5469,507.0313 1066.7969,506.875 C1066.9531,506.7656 1067.0938,506.75 1067.5156,506.75 L1067.6094,506.75 L1067.6094,500.2344 C1067.0469,500.1875 1066.7344,499.8906 1066.7344,499.3906 C1066.7344,499.1094 1066.8906,498.8125 1067.1406,498.6563 C1067.2969,498.5625 1067.4219,498.5469 1067.8594,498.5469 L1069.5625,498.5469 C1070.0313,498.5469 1070.1875,498.5781 1070.3281,498.6875 C1070.5625,498.8594 1070.6875,499.125 1070.6875,499.3906 C1070.6875,499.6875 1070.5313,499.9688 1070.2813,500.125 C1070.125,500.2031 1069.9844,500.2344 1069.5625,500.2344 L1069.3125,500.2344 L1069.3125,502.6563 L1072.9531,502.6563 L1072.9531,500.2344 L1072.7031,500.2344 C1072.25,500.2344 1072.1094,500.2031 1071.9375,500.0938 C1071.7188,499.9219 1071.5781,499.6719 1071.5781,499.3906 C1071.5781,499.1094 1071.7344,498.8125 1071.9844,498.6563 C1072.1406,498.5625 1072.2656,498.5469 1072.7031,498.5469 L1074.4219,498.5469 C1074.875,498.5469 1075.0313,498.5781 1075.2031,498.6875 C1075.4063,498.8594 1075.5313,499.125 1075.5313,499.3906 C1075.5313,499.8906 1075.2188,500.1875 1074.6563,500.2344 L1074.6563,506.75 L1074.75,506.75 C1075.2188,506.75 1075.3594,506.7813 1075.5156,506.9063 C1075.7344,507.0781 1075.875,507.3281 1075.875,507.6094 C1075.875,507.8906 1075.7188,508.1875 1075.4688,508.3281 C1075.3281,508.4219 1075.1094,508.4531 1074.75,508.4531 L1072.7031,508.4531 C1072.2969,508.4531 1072.0938,508.4063 1071.9375,508.2969 C1071.7188,508.125 1071.5781,507.8594 1071.5781,507.6094 C1071.5781,507.3125 1071.7344,507.0313 1071.9844,506.875 C1072.1406,506.7656 1072.2969,506.75 1072.7031,506.75 L1072.9531,506.75 Z "/><text fill="#000000" font-family="sans-serif" font-size="12" lengthAdjust="spacingAndGlyphs" textLength="87" x="1085" y="507.6074">L1operatorIso</text><line style="stroke: #A80036; stroke-width: 1.5;" x1="1057" x2="1174" y1="519.4531" y2="519.4531"/><line style="stroke: #A80036; stroke-width: 1.5;" x1="1057" x2="1174" y1="527.4531" y2="527.4531"/><ellipse cx="1067" cy="539.3555" fill="#84BE84" rx="3" ry="3" style="stroke: #038048; stroke-width: 1.0;"/><text fill="#000000" font-family="sans-serif" font-size="11" lengthAdjust="spacingAndGlyphs" textLength="87" x="1076" y="541.6636">L1operatorIso()</text><!--class L2operator--><rect fill="#FEFECE" filter="url(#fb2b3vo)" height="60.8047" style="stroke: #A80036; stroke-width: 1.5;" width="101" x="19" y="487.4531"/><ellipse cx="34" cy="503.4531" fill="#E6FFE6" rx="11" ry="11" style="stroke: #A80036; stroke-width: 1.0;"/><path d="M35.9531,504.3594 L32.3125,504.3594 L32.3125,506.75 L32.5625,506.75 C33.0156,506.75 33.1875,506.7813 33.3281,506.9063 C33.5625,507.0781 33.6875,507.3281 33.6875,507.6094 C33.6875,507.8906 33.5313,508.1875 33.2813,508.3281 C33.1406,508.4219 32.9219,508.4531 32.5625,508.4531 L30.5156,508.4531 C30.1094,508.4531 29.8906,508.4063 29.7344,508.2969 C29.5313,508.125 29.3906,507.8594 29.3906,507.6094 C29.3906,507.3125 29.5469,507.0313 29.7969,506.875 C29.9531,506.7656 30.0938,506.75 30.5156,506.75 L30.6094,506.75 L30.6094,500.2344 C30.0469,500.1875 29.7344,499.8906 29.7344,499.3906 C29.7344,499.1094 29.8906,498.8125 30.1406,498.6563 C30.2969,498.5625 30.4219,498.5469 30.8594,498.5469 L32.5625,498.5469 C33.0313,498.5469 33.1875,498.5781 33.3281,498.6875 C33.5625,498.8594 33.6875,499.125 33.6875,499.3906 C33.6875,499.6875 33.5313,499.9688 33.2813,500.125 C33.125,500.2031 32.9844,500.2344 32.5625,500.2344 L32.3125,500.2344 L32.3125,502.6563 L35.9531,502.6563 L35.9531,500.2344 L35.7031,500.2344 C35.25,500.2344 35.1094,500.2031 34.9375,500.0938 C34.7188,499.9219 34.5781,499.6719 34.5781,499.3906 C34.5781,499.1094 34.7344,498.8125 34.9844,498.6563 C35.1406,498.5625 35.2656,498.5469 35.7031,498.5469 L37.4219,498.5469 C37.875,498.5469 38.0313,498.5781 38.2031,498.6875 C38.4063,498.8594 38.5313,499.125 38.5313,499.3906 C38.5313,499.8906 38.2188,500.1875 37.6563,500.2344 L37.6563,506.75 L37.75,506.75 C38.2188,506.75 38.3594,506.7813 38.5156,506.9063 C38.7344,507.0781 38.875,507.3281 38.875,507.6094 C38.875,507.8906 38.7188,508.1875 38.4688,508.3281 C38.3281,508.4219 38.1094,508.4531 37.75,508.4531 L35.7031,508.4531 C35.2969,508.4531 35.0938,508.4063 34.9375,508.2969 C34.7188,508.125 34.5781,507.8594 34.5781,507.6094 C34.5781,507.3125 34.7344,507.0313 34.9844,506.875 C35.1406,506.7656 35.2969,506.75 35.7031,506.75 L35.9531,506.75 Z "/><text fill="#000000" font-family="sans-serif" font-size="12" lengthAdjust="spacingAndGlyphs" textLength="69" x="48" y="507.6074">L2operator</text><line style="stroke: #A80036; stroke-width: 1.5;" x1="20" x2="119" y1="519.4531" y2="519.4531"/><line style="stroke: #A80036; stroke-width: 1.5;" x1="20" x2="119" y1="527.4531" y2="527.4531"/><ellipse cx="30" cy="539.3555" fill="#84BE84" rx="3" ry="3" style="stroke: #038048; stroke-width: 1.0;"/><text fill="#000000" font-family="sans-serif" font-size="11" lengthAdjust="spacingAndGlyphs" textLength="70" x="39" y="541.6636">L2operator()</text><!--class tildeMultiOperatorMultiDual--><rect fill="#FEFECE" filter="url(#fb2b3vo)" height="99.2188" style="stroke: #A80036; stroke-width: 1.5;" width="201" x="396" y="162.4531"/><ellipse cx="411" cy="178.4531" fill="#E6FFE6" rx="11" ry="11" style="stroke: #A80036; stroke-width: 1.0;"/><path d="M412.9531,179.3594 L409.3125,179.3594 L409.3125,181.75 L409.5625,181.75 C410.0156,181.75 410.1875,181.7813 410.3281,181.9063 C410.5625,182.0781 410.6875,182.3281 410.6875,182.6094 C410.6875,182.8906 410.5313,183.1875 410.2813,183.3281 C410.1406,183.4219 409.9219,183.4531 409.5625,183.4531 L407.5156,183.4531 C407.1094,183.4531 406.8906,183.4063 406.7344,183.2969 C406.5313,183.125 406.3906,182.8594 406.3906,182.6094 C406.3906,182.3125 406.5469,182.0313 406.7969,181.875 C406.9531,181.7656 407.0938,181.75 407.5156,181.75 L407.6094,181.75 L407.6094,175.2344 C407.0469,175.1875 406.7344,174.8906 406.7344,174.3906 C406.7344,174.1094 406.8906,173.8125 407.1406,173.6563 C407.2969,173.5625 407.4219,173.5469 407.8594,173.5469 L409.5625,173.5469 C410.0313,173.5469 410.1875,173.5781 410.3281,173.6875 C410.5625,173.8594 410.6875,174.125 410.6875,174.3906 C410.6875,174.6875 410.5313,174.9688 410.2813,175.125 C410.125,175.2031 409.9844,175.2344 409.5625,175.2344 L409.3125,175.2344 L409.3125,177.6563 L412.9531,177.6563 L412.9531,175.2344 L412.7031,175.2344 C412.25,175.2344 412.1094,175.2031 411.9375,175.0938 C411.7188,174.9219 411.5781,174.6719 411.5781,174.3906 C411.5781,174.1094 411.7344,173.8125 411.9844,173.6563 C412.1406,173.5625 412.2656,173.5469 412.7031,173.5469 L414.4219,173.5469 C414.875,173.5469 415.0313,173.5781 415.2031,173.6875 C415.4063,173.8594 415.5313,174.125 415.5313,174.3906 C415.5313,174.8906 415.2188,175.1875 414.6563,175.2344 L414.6563,181.75 L414.75,181.75 C415.2188,181.75 415.3594,181.7813 415.5156,181.9063 C415.7344,182.0781 415.875,182.3281 415.875,182.6094 C415.875,182.8906 415.7188,183.1875 415.4688,183.3281 C415.3281,183.4219 415.1094,183.4531 414.75,183.4531 L412.7031,183.4531 C412.2969,183.4531 412.0938,183.4063 411.9375,183.2969 C411.7188,183.125 411.5781,182.8594 411.5781,182.6094 C411.5781,182.3125 411.7344,182.0313 411.9844,181.875 C412.1406,181.7656 412.2969,181.75 412.7031,181.75 L412.9531,181.75 Z "/><text fill="#000000" font-family="sans-serif" font-size="12" lengthAdjust="spacingAndGlyphs" textLength="169" x="425" y="182.6074">tildeMultiOperatorMultiDual</text><line style="stroke: #A80036; stroke-width: 1.5;" x1="397" x2="596" y1="194.4531" y2="194.4531"/><line style="stroke: #A80036; stroke-width: 1.5;" x1="397" x2="596" y1="202.4531" y2="202.4531"/><ellipse cx="407" cy="214.3555" fill="#84BE84" rx="3" ry="3" style="stroke: #038048; stroke-width: 1.0;"/><text fill="#000000" font-family="sans-serif" font-size="11" lengthAdjust="spacingAndGlyphs" textLength="43" x="416" y="216.6636">xError()</text><ellipse cx="407" cy="227.1602" fill="#84BE84" rx="3" ry="3" style="stroke: #038048; stroke-width: 1.0;"/><text fill="#000000" font-family="sans-serif" font-size="11" lengthAdjust="spacingAndGlyphs" textLength="41" x="416" y="229.4683">xTilde()</text><ellipse cx="407" cy="239.9648" fill="#84BE84" rx="3" ry="3" style="stroke: #038048; stroke-width: 1.0;"/><text fill="#000000" font-family="sans-serif" font-size="11" lengthAdjust="spacingAndGlyphs" textLength="43" x="416" y="242.2729">yError()</text><ellipse cx="407" cy="252.7695" fill="#84BE84" rx="3" ry="3" style="stroke: #038048; stroke-width: 1.0;"/><text fill="#000000" font-family="sans-serif" font-size="11" lengthAdjust="spacingAndGlyphs" textLength="41" x="416" y="255.0776">yTilde()</text><!--class FrobeniusProxDual--><rect fill="#FEFECE" filter="url(#fb2b3vo)" height="73.6094" style="stroke: #A80036; stroke-width: 1.5;" width="149" x="142" y="346.9531"/><ellipse cx="157" cy="362.9531" fill="#E6FFE6" rx="11" ry="11" style="stroke: #A80036; stroke-width: 1.0;"/><path d="M158.9531,363.8594 L155.3125,363.8594 L155.3125,366.25 L155.5625,366.25 C156.0156,366.25 156.1875,366.2813 156.3281,366.4063 C156.5625,366.5781 156.6875,366.8281 156.6875,367.1094 C156.6875,367.3906 156.5313,367.6875 156.2813,367.8281 C156.1406,367.9219 155.9219,367.9531 155.5625,367.9531 L153.5156,367.9531 C153.1094,367.9531 152.8906,367.9063 152.7344,367.7969 C152.5313,367.625 152.3906,367.3594 152.3906,367.1094 C152.3906,366.8125 152.5469,366.5313 152.7969,366.375 C152.9531,366.2656 153.0938,366.25 153.5156,366.25 L153.6094,366.25 L153.6094,359.7344 C153.0469,359.6875 152.7344,359.3906 152.7344,358.8906 C152.7344,358.6094 152.8906,358.3125 153.1406,358.1563 C153.2969,358.0625 153.4219,358.0469 153.8594,358.0469 L155.5625,358.0469 C156.0313,358.0469 156.1875,358.0781 156.3281,358.1875 C156.5625,358.3594 156.6875,358.625 156.6875,358.8906 C156.6875,359.1875 156.5313,359.4688 156.2813,359.625 C156.125,359.7031 155.9844,359.7344 155.5625,359.7344 L155.3125,359.7344 L155.3125,362.1563 L158.9531,362.1563 L158.9531,359.7344 L158.7031,359.7344 C158.25,359.7344 158.1094,359.7031 157.9375,359.5938 C157.7188,359.4219 157.5781,359.1719 157.5781,358.8906 C157.5781,358.6094 157.7344,358.3125 157.9844,358.1563 C158.1406,358.0625 158.2656,358.0469 158.7031,358.0469 L160.4219,358.0469 C160.875,358.0469 161.0313,358.0781 161.2031,358.1875 C161.4063,358.3594 161.5313,358.625 161.5313,358.8906 C161.5313,359.3906 161.2188,359.6875 160.6563,359.7344 L160.6563,366.25 L160.75,366.25 C161.2188,366.25 161.3594,366.2813 161.5156,366.4063 C161.7344,366.5781 161.875,366.8281 161.875,367.1094 C161.875,367.3906 161.7188,367.6875 161.4688,367.8281 C161.3281,367.9219 161.1094,367.9531 160.75,367.9531 L158.7031,367.9531 C158.2969,367.9531 158.0938,367.9063 157.9375,367.7969 C157.7188,367.625 157.5781,367.3594 157.5781,367.1094 C157.5781,366.8125 157.7344,366.5313 157.9844,366.375 C158.1406,366.2656 158.2969,366.25 158.7031,366.25 L158.9531,366.25 Z "/><text fill="#000000" font-family="sans-serif" font-size="12" lengthAdjust="spacingAndGlyphs" textLength="117" x="171" y="367.1074">FrobeniusProxDual</text><line style="stroke: #A80036; stroke-width: 1.5;" x1="143" x2="290" y1="378.9531" y2="378.9531"/><line style="stroke: #A80036; stroke-width: 1.5;" x1="143" x2="290" y1="386.9531" y2="386.9531"/><ellipse cx="153" cy="398.8555" fill="#84BE84" rx="3" ry="3" style="stroke: #038048; stroke-width: 1.0;"/><text fill="#000000" font-family="sans-serif" font-size="11" lengthAdjust="spacingAndGlyphs" textLength="114" x="162" y="401.1636">FrobeniusProxDual()</text><ellipse cx="153" cy="411.6602" fill="#84BE84" rx="3" ry="3" style="stroke: #038048; stroke-width: 1.0;"/><text fill="#000000" font-family="sans-serif" font-size="11" lengthAdjust="spacingAndGlyphs" textLength="63" x="162" y="413.9683">applyProx()</text><!--class L1HuberProxDual--><rect fill="#FEFECE" filter="url(#fb2b3vo)" height="73.6094" style="stroke: #A80036; stroke-width: 1.5;" width="139" x="326" y="346.9531"/><ellipse cx="341" cy="362.9531" fill="#E6FFE6" rx="11" ry="11" style="stroke: #A80036; stroke-width: 1.0;"/><path d="M342.9531,363.8594 L339.3125,363.8594 L339.3125,366.25 L339.5625,366.25 C340.0156,366.25 340.1875,366.2813 340.3281,366.4063 C340.5625,366.5781 340.6875,366.8281 340.6875,367.1094 C340.6875,367.3906 340.5313,367.6875 340.2813,367.8281 C340.1406,367.9219 339.9219,367.9531 339.5625,367.9531 L337.5156,367.9531 C337.1094,367.9531 336.8906,367.9063 336.7344,367.7969 C336.5313,367.625 336.3906,367.3594 336.3906,367.1094 C336.3906,366.8125 336.5469,366.5313 336.7969,366.375 C336.9531,366.2656 337.0938,366.25 337.5156,366.25 L337.6094,366.25 L337.6094,359.7344 C337.0469,359.6875 336.7344,359.3906 336.7344,358.8906 C336.7344,358.6094 336.8906,358.3125 337.1406,358.1563 C337.2969,358.0625 337.4219,358.0469 337.8594,358.0469 L339.5625,358.0469 C340.0313,358.0469 340.1875,358.0781 340.3281,358.1875 C340.5625,358.3594 340.6875,358.625 340.6875,358.8906 C340.6875,359.1875 340.5313,359.4688 340.2813,359.625 C340.125,359.7031 339.9844,359.7344 339.5625,359.7344 L339.3125,359.7344 L339.3125,362.1563 L342.9531,362.1563 L342.9531,359.7344 L342.7031,359.7344 C342.25,359.7344 342.1094,359.7031 341.9375,359.5938 C341.7188,359.4219 341.5781,359.1719 341.5781,358.8906 C341.5781,358.6094 341.7344,358.3125 341.9844,358.1563 C342.1406,358.0625 342.2656,358.0469 342.7031,358.0469 L344.4219,358.0469 C344.875,358.0469 345.0313,358.0781 345.2031,358.1875 C345.4063,358.3594 345.5313,358.625 345.5313,358.8906 C345.5313,359.3906 345.2188,359.6875 344.6563,359.7344 L344.6563,366.25 L344.75,366.25 C345.2188,366.25 345.3594,366.2813 345.5156,366.4063 C345.7344,366.5781 345.875,366.8281 345.875,367.1094 C345.875,367.3906 345.7188,367.6875 345.4688,367.8281 C345.3281,367.9219 345.1094,367.9531 344.75,367.9531 L342.7031,367.9531 C342.2969,367.9531 342.0938,367.9063 341.9375,367.7969 C341.7188,367.625 341.5781,367.3594 341.5781,367.1094 C341.5781,366.8125 341.7344,366.5313 341.9844,366.375 C342.1406,366.2656 342.2969,366.25 342.7031,366.25 L342.9531,366.25 Z "/><text fill="#000000" font-family="sans-serif" font-size="12" lengthAdjust="spacingAndGlyphs" textLength="107" x="355" y="367.1074">L1HuberProxDual</text><line style="stroke: #A80036; stroke-width: 1.5;" x1="327" x2="464" y1="378.9531" y2="378.9531"/><line style="stroke: #A80036; stroke-width: 1.5;" x1="327" x2="464" y1="386.9531" y2="386.9531"/><ellipse cx="337" cy="398.8555" fill="#84BE84" rx="3" ry="3" style="stroke: #038048; stroke-width: 1.0;"/><text fill="#000000" font-family="sans-serif" font-size="11" lengthAdjust="spacingAndGlyphs" textLength="105" x="346" y="401.1636">L1HuberProxDual()</text><ellipse cx="337" cy="411.6602" fill="#84BE84" rx="3" ry="3" style="stroke: #038048; stroke-width: 1.0;"/><text fill="#000000" font-family="sans-serif" font-size="11" lengthAdjust="spacingAndGlyphs" textLength="63" x="346" y="413.9683">applyProx()</text><!--class innerProductProxDual--><rect fill="#FEFECE" filter="url(#fb2b3vo)" height="73.6094" style="stroke: #A80036; stroke-width: 1.5;" width="168" x="708.5" y="346.9531"/><ellipse cx="723.5" cy="362.9531" fill="#E6FFE6" rx="11" ry="11" style="stroke: #A80036; stroke-width: 1.0;"/><path d="M725.4531,363.8594 L721.8125,363.8594 L721.8125,366.25 L722.0625,366.25 C722.5156,366.25 722.6875,366.2813 722.8281,366.4063 C723.0625,366.5781 723.1875,366.8281 723.1875,367.1094 C723.1875,367.3906 723.0313,367.6875 722.7813,367.8281 C722.6406,367.9219 722.4219,367.9531 722.0625,367.9531 L720.0156,367.9531 C719.6094,367.9531 719.3906,367.9063 719.2344,367.7969 C719.0313,367.625 718.8906,367.3594 718.8906,367.1094 C718.8906,366.8125 719.0469,366.5313 719.2969,366.375 C719.4531,366.2656 719.5938,366.25 720.0156,366.25 L720.1094,366.25 L720.1094,359.7344 C719.5469,359.6875 719.2344,359.3906 719.2344,358.8906 C719.2344,358.6094 719.3906,358.3125 719.6406,358.1563 C719.7969,358.0625 719.9219,358.0469 720.3594,358.0469 L722.0625,358.0469 C722.5313,358.0469 722.6875,358.0781 722.8281,358.1875 C723.0625,358.3594 723.1875,358.625 723.1875,358.8906 C723.1875,359.1875 723.0313,359.4688 722.7813,359.625 C722.625,359.7031 722.4844,359.7344 722.0625,359.7344 L721.8125,359.7344 L721.8125,362.1563 L725.4531,362.1563 L725.4531,359.7344 L725.2031,359.7344 C724.75,359.7344 724.6094,359.7031 724.4375,359.5938 C724.2188,359.4219 724.0781,359.1719 724.0781,358.8906 C724.0781,358.6094 724.2344,358.3125 724.4844,358.1563 C724.6406,358.0625 724.7656,358.0469 725.2031,358.0469 L726.9219,358.0469 C727.375,358.0469 727.5313,358.0781 727.7031,358.1875 C727.9063,358.3594 728.0313,358.625 728.0313,358.8906 C728.0313,359.3906 727.7188,359.6875 727.1563,359.7344 L727.1563,366.25 L727.25,366.25 C727.7188,366.25 727.8594,366.2813 728.0156,366.4063 C728.2344,366.5781 728.375,366.8281 728.375,367.1094 C728.375,367.3906 728.2188,367.6875 727.9688,367.8281 C727.8281,367.9219 727.6094,367.9531 727.25,367.9531 L725.2031,367.9531 C724.7969,367.9531 724.5938,367.9063 724.4375,367.7969 C724.2188,367.625 724.0781,367.3594 724.0781,367.1094 C724.0781,366.8125 724.2344,366.5313 724.4844,366.375 C724.6406,366.2656 724.7969,366.25 725.2031,366.25 L725.4531,366.25 Z "/><text fill="#000000" font-family="sans-serif" font-size="12" lengthAdjust="spacingAndGlyphs" textLength="136" x="737.5" y="367.1074">innerProductProxDual</text><line style="stroke: #A80036; stroke-width: 1.5;" x1="709.5" x2="875.5" y1="378.9531" y2="378.9531"/><line style="stroke: #A80036; stroke-width: 1.5;" x1="709.5" x2="875.5" y1="386.9531" y2="386.9531"/><ellipse cx="719.5" cy="398.8555" fill="#84BE84" rx="3" ry="3" style="stroke: #038048; stroke-width: 1.0;"/><text fill="#000000" font-family="sans-serif" font-size="11" lengthAdjust="spacingAndGlyphs" textLength="130" x="728.5" y="401.1636">innerProductProxDual()</text><ellipse cx="719.5" cy="411.6602" fill="#84BE84" rx="3" ry="3" style="stroke: #038048; stroke-width: 1.0;"/><text fill="#000000" font-family="sans-serif" font-size="11" lengthAdjust="spacingAndGlyphs" textLength="63" x="728.5" y="413.9683">applyProx()</text><!--class L1AnisoProxDual--><rect fill="#FEFECE" filter="url(#fb2b3vo)" height="73.6094" style="stroke: #A80036; stroke-width: 1.5;" width="135" x="912" y="346.9531"/><ellipse cx="927" cy="362.9531" fill="#E6FFE6" rx="11" ry="11" style="stroke: #A80036; stroke-width: 1.0;"/><path d="M928.9531,363.8594 L925.3125,363.8594 L925.3125,366.25 L925.5625,366.25 C926.0156,366.25 926.1875,366.2813 926.3281,366.4063 C926.5625,366.5781 926.6875,366.8281 926.6875,367.1094 C926.6875,367.3906 926.5313,367.6875 926.2813,367.8281 C926.1406,367.9219 925.9219,367.9531 925.5625,367.9531 L923.5156,367.9531 C923.1094,367.9531 922.8906,367.9063 922.7344,367.7969 C922.5313,367.625 922.3906,367.3594 922.3906,367.1094 C922.3906,366.8125 922.5469,366.5313 922.7969,366.375 C922.9531,366.2656 923.0938,366.25 923.5156,366.25 L923.6094,366.25 L923.6094,359.7344 C923.0469,359.6875 922.7344,359.3906 922.7344,358.8906 C922.7344,358.6094 922.8906,358.3125 923.1406,358.1563 C923.2969,358.0625 923.4219,358.0469 923.8594,358.0469 L925.5625,358.0469 C926.0313,358.0469 926.1875,358.0781 926.3281,358.1875 C926.5625,358.3594 926.6875,358.625 926.6875,358.8906 C926.6875,359.1875 926.5313,359.4688 926.2813,359.625 C926.125,359.7031 925.9844,359.7344 925.5625,359.7344 L925.3125,359.7344 L925.3125,362.1563 L928.9531,362.1563 L928.9531,359.7344 L928.7031,359.7344 C928.25,359.7344 928.1094,359.7031 927.9375,359.5938 C927.7188,359.4219 927.5781,359.1719 927.5781,358.8906 C927.5781,358.6094 927.7344,358.3125 927.9844,358.1563 C928.1406,358.0625 928.2656,358.0469 928.7031,358.0469 L930.4219,358.0469 C930.875,358.0469 931.0313,358.0781 931.2031,358.1875 C931.4063,358.3594 931.5313,358.625 931.5313,358.8906 C931.5313,359.3906 931.2188,359.6875 930.6563,359.7344 L930.6563,366.25 L930.75,366.25 C931.2188,366.25 931.3594,366.2813 931.5156,366.4063 C931.7344,366.5781 931.875,366.8281 931.875,367.1094 C931.875,367.3906 931.7188,367.6875 931.4688,367.8281 C931.3281,367.9219 931.1094,367.9531 930.75,367.9531 L928.7031,367.9531 C928.2969,367.9531 928.0938,367.9063 927.9375,367.7969 C927.7188,367.625 927.5781,367.3594 927.5781,367.1094 C927.5781,366.8125 927.7344,366.5313 927.9844,366.375 C928.1406,366.2656 928.2969,366.25 928.7031,366.25 L928.9531,366.25 Z "/><text fill="#000000" font-family="sans-serif" font-size="12" lengthAdjust="spacingAndGlyphs" textLength="103" x="941" y="367.1074">L1AnisoProxDual</text><line style="stroke: #A80036; stroke-width: 1.5;" x1="913" x2="1046" y1="378.9531" y2="378.9531"/><line style="stroke: #A80036; stroke-width: 1.5;" x1="913" x2="1046" y1="386.9531" y2="386.9531"/><ellipse cx="923" cy="398.8555" fill="#84BE84" rx="3" ry="3" style="stroke: #038048; stroke-width: 1.0;"/><text fill="#000000" font-family="sans-serif" font-size="11" lengthAdjust="spacingAndGlyphs" textLength="102" x="932" y="401.1636">L1AnisoProxDual()</text><ellipse cx="923" cy="411.6602" fill="#84BE84" rx="3" ry="3" style="stroke: #038048; stroke-width: 1.0;"/><text fill="#000000" font-family="sans-serif" font-size="11" lengthAdjust="spacingAndGlyphs" textLength="63" x="932" y="413.9683">applyProx()</text><!--class L1IsoProxDual--><rect fill="#FEFECE" filter="url(#fb2b3vo)" height="73.6094" style="stroke: #A80036; stroke-width: 1.5;" width="119" x="1082" y="346.9531"/><ellipse cx="1097" cy="362.9531" fill="#E6FFE6" rx="11" ry="11" style="stroke: #A80036; stroke-width: 1.0;"/><path d="M1098.9531,363.8594 L1095.3125,363.8594 L1095.3125,366.25 L1095.5625,366.25 C1096.0156,366.25 1096.1875,366.2813 1096.3281,366.4063 C1096.5625,366.5781 1096.6875,366.8281 1096.6875,367.1094 C1096.6875,367.3906 1096.5313,367.6875 1096.2813,367.8281 C1096.1406,367.9219 1095.9219,367.9531 1095.5625,367.9531 L1093.5156,367.9531 C1093.1094,367.9531 1092.8906,367.9063 1092.7344,367.7969 C1092.5313,367.625 1092.3906,367.3594 1092.3906,367.1094 C1092.3906,366.8125 1092.5469,366.5313 1092.7969,366.375 C1092.9531,366.2656 1093.0938,366.25 1093.5156,366.25 L1093.6094,366.25 L1093.6094,359.7344 C1093.0469,359.6875 1092.7344,359.3906 1092.7344,358.8906 C1092.7344,358.6094 1092.8906,358.3125 1093.1406,358.1563 C1093.2969,358.0625 1093.4219,358.0469 1093.8594,358.0469 L1095.5625,358.0469 C1096.0313,358.0469 1096.1875,358.0781 1096.3281,358.1875 C1096.5625,358.3594 1096.6875,358.625 1096.6875,358.8906 C1096.6875,359.1875 1096.5313,359.4688 1096.2813,359.625 C1096.125,359.7031 1095.9844,359.7344 1095.5625,359.7344 L1095.3125,359.7344 L1095.3125,362.1563 L1098.9531,362.1563 L1098.9531,359.7344 L1098.7031,359.7344 C1098.25,359.7344 1098.1094,359.7031 1097.9375,359.5938 C1097.7188,359.4219 1097.5781,359.1719 1097.5781,358.8906 C1097.5781,358.6094 1097.7344,358.3125 1097.9844,358.1563 C1098.1406,358.0625 1098.2656,358.0469 1098.7031,358.0469 L1100.4219,358.0469 C1100.875,358.0469 1101.0313,358.0781 1101.2031,358.1875 C1101.4063,358.3594 1101.5313,358.625 1101.5313,358.8906 C1101.5313,359.3906 1101.2188,359.6875 1100.6563,359.7344 L1100.6563,366.25 L1100.75,366.25 C1101.2188,366.25 1101.3594,366.2813 1101.5156,366.4063 C1101.7344,366.5781 1101.875,366.8281 1101.875,367.1094 C1101.875,367.3906 1101.7188,367.6875 1101.4688,367.8281 C1101.3281,367.9219 1101.1094,367.9531 1100.75,367.9531 L1098.7031,367.9531 C1098.2969,367.9531 1098.0938,367.9063 1097.9375,367.7969 C1097.7188,367.625 1097.5781,367.3594 1097.5781,367.1094 C1097.5781,366.8125 1097.7344,366.5313 1097.9844,366.375 C1098.1406,366.2656 1098.2969,366.25 1098.7031,366.25 L1098.9531,366.25 Z "/><text fill="#000000" font-family="sans-serif" font-size="12" lengthAdjust="spacingAndGlyphs" textLength="87" x="1111" y="367.1074">L1IsoProxDual</text><line style="stroke: #A80036; stroke-width: 1.5;" x1="1083" x2="1200" y1="378.9531" y2="378.9531"/><line style="stroke: #A80036; stroke-width: 1.5;" x1="1083" x2="1200" y1="386.9531" y2="386.9531"/><ellipse cx="1093" cy="398.8555" fill="#84BE84" rx="3" ry="3" style="stroke: #038048; stroke-width: 1.0;"/><text fill="#000000" font-family="sans-serif" font-size="11" lengthAdjust="spacingAndGlyphs" textLength="88" x="1102" y="401.1636">L1IsoProxDual()</text><ellipse cx="1093" cy="411.6602" fill="#84BE84" rx="3" ry="3" style="stroke: #038048; stroke-width: 1.0;"/><text fill="#000000" font-family="sans-serif" font-size="11" lengthAdjust="spacingAndGlyphs" textLength="63" x="1102" y="413.9683">applyProx()</text><!--class L2proxDual--><rect fill="#FEFECE" filter="url(#fb2b3vo)" height="73.6094" style="stroke: #A80036; stroke-width: 1.5;" width="101" x="6" y="346.9531"/><ellipse cx="21" cy="362.9531" fill="#E6FFE6" rx="11" ry="11" style="stroke: #A80036; stroke-width: 1.0;"/><path d="M22.9531,363.8594 L19.3125,363.8594 L19.3125,366.25 L19.5625,366.25 C20.0156,366.25 20.1875,366.2813 20.3281,366.4063 C20.5625,366.5781 20.6875,366.8281 20.6875,367.1094 C20.6875,367.3906 20.5313,367.6875 20.2813,367.8281 C20.1406,367.9219 19.9219,367.9531 19.5625,367.9531 L17.5156,367.9531 C17.1094,367.9531 16.8906,367.9063 16.7344,367.7969 C16.5313,367.625 16.3906,367.3594 16.3906,367.1094 C16.3906,366.8125 16.5469,366.5313 16.7969,366.375 C16.9531,366.2656 17.0938,366.25 17.5156,366.25 L17.6094,366.25 L17.6094,359.7344 C17.0469,359.6875 16.7344,359.3906 16.7344,358.8906 C16.7344,358.6094 16.8906,358.3125 17.1406,358.1563 C17.2969,358.0625 17.4219,358.0469 17.8594,358.0469 L19.5625,358.0469 C20.0313,358.0469 20.1875,358.0781 20.3281,358.1875 C20.5625,358.3594 20.6875,358.625 20.6875,358.8906 C20.6875,359.1875 20.5313,359.4688 20.2813,359.625 C20.125,359.7031 19.9844,359.7344 19.5625,359.7344 L19.3125,359.7344 L19.3125,362.1563 L22.9531,362.1563 L22.9531,359.7344 L22.7031,359.7344 C22.25,359.7344 22.1094,359.7031 21.9375,359.5938 C21.7188,359.4219 21.5781,359.1719 21.5781,358.8906 C21.5781,358.6094 21.7344,358.3125 21.9844,358.1563 C22.1406,358.0625 22.2656,358.0469 22.7031,358.0469 L24.4219,358.0469 C24.875,358.0469 25.0313,358.0781 25.2031,358.1875 C25.4063,358.3594 25.5313,358.625 25.5313,358.8906 C25.5313,359.3906 25.2188,359.6875 24.6563,359.7344 L24.6563,366.25 L24.75,366.25 C25.2188,366.25 25.3594,366.2813 25.5156,366.4063 C25.7344,366.5781 25.875,366.8281 25.875,367.1094 C25.875,367.3906 25.7188,367.6875 25.4688,367.8281 C25.3281,367.9219 25.1094,367.9531 24.75,367.9531 L22.7031,367.9531 C22.2969,367.9531 22.0938,367.9063 21.9375,367.7969 C21.7188,367.625 21.5781,367.3594 21.5781,367.1094 C21.5781,366.8125 21.7344,366.5313 21.9844,366.375 C22.1406,366.2656 22.2969,366.25 22.7031,366.25 L22.9531,366.25 Z "/><text fill="#000000" font-family="sans-serif" font-size="12" lengthAdjust="spacingAndGlyphs" textLength="69" x="35" y="367.1074">L2proxDual</text><line style="stroke: #A80036; stroke-width: 1.5;" x1="7" x2="106" y1="378.9531" y2="378.9531"/><line style="stroke: #A80036; stroke-width: 1.5;" x1="7" x2="106" y1="386.9531" y2="386.9531"/><ellipse cx="17" cy="398.8555" fill="#84BE84" rx="3" ry="3" style="stroke: #038048; stroke-width: 1.0;"/><text fill="#000000" font-family="sans-serif" font-size="11" lengthAdjust="spacingAndGlyphs" textLength="71" x="26" y="401.1636">L2proxDual()</text><ellipse cx="17" cy="411.6602" fill="#84BE84" rx="3" ry="3" style="stroke: #038048; stroke-width: 1.0;"/><text fill="#000000" font-family="sans-serif" font-size="11" lengthAdjust="spacingAndGlyphs" textLength="63" x="26" y="413.9683">applyProx()</text><!--class functionalPart--><rect fill="#FEFECE" filter="url(#fb2b3vo)" height="48" style="stroke: #A80036; stroke-width: 1.5;" width="120" x="616.5" y="28.9531"/><ellipse cx="631.5" cy="44.9531" fill="#ADD1B2" rx="11" ry="11" style="stroke: #A80036; stroke-width: 1.0;"/><path d="M633.8438,40.625 L634.0156,40.7031 C634.2344,40.3906 634.4375,40.2969 634.7344,40.2969 C635.0313,40.2969 635.3125,40.4375 635.4688,40.7031 C635.5625,40.8594 635.5781,40.9844 635.5781,41.4219 L635.5781,42.8438 C635.5781,43.2656 635.5469,43.4531 635.4375,43.6094 C635.2656,43.8281 635,43.9688 634.7344,43.9688 C634.5156,43.9688 634.2813,43.8594 634.1406,43.7188 C634,43.5938 633.9688,43.4688 633.9063,43.0625 C633.8125,42.6563 633.6406,42.4375 633.1563,42.1563 C632.6875,41.9063 632.0781,41.75 631.5,41.75 C629.7656,41.75 628.5156,43.0625 628.5156,44.8438 L628.5156,45.9375 C628.5156,47.6406 629.8125,48.7344 631.8594,48.7344 C632.625,48.7344 633.3125,48.6094 633.7344,48.3438 C633.9219,48.25 633.9219,48.25 634.375,47.7656 C634.5625,47.5781 634.7656,47.5 634.9844,47.5 C635.4531,47.5 635.8438,47.8906 635.8438,48.3438 C635.8438,48.7344 635.5156,49.1875 634.9375,49.5938 C634.1875,50.1406 633.0313,50.4375 631.8125,50.4375 C628.9219,50.4375 626.8125,48.5469 626.8125,45.9688 L626.8125,44.8438 C626.8125,42.125 628.8125,40.0469 631.4375,40.0469 C632.3125,40.0469 632.9063,40.1875 633.8438,40.625 Z "/><text fill="#000000" font-family="sans-serif" font-size="12" lengthAdjust="spacingAndGlyphs" textLength="88" x="645.5" y="49.1074">functionalPart</text><line style="stroke: #A80036; stroke-width: 1.5;" x1="617.5" x2="735.5" y1="60.9531" y2="60.9531"/><line style="stroke: #A80036; stroke-width: 1.5;" x1="617.5" x2="735.5" y1="68.9531" y2="68.9531"/><path d="M676.5,97.3281 C676.5,109.6191 676.5,123.3581 676.5,136.9181 " fill="none" style="stroke: #A80036; stroke-width: 1.0;"/><polygon fill="none" points="669.5,97.1191,676.5,77.1191,683.5,97.1191,669.5,97.1191" style="stroke: #A80036; stroke-width: 1.0;"/><path d="M627.927,304.7021 C618.576,322.3651 609.432,339.6371 602.124,353.4411 " fill="none" style="stroke: #A80036; stroke-width: 1.0;"/><polygon fill="none" points="621.742,301.4231,637.287,287.0231,634.115,307.9741,621.742,301.4231" style="stroke: #A80036; stroke-width: 1.0;"/><path d="M531.649,279.3461 C545.225,304.9891 560.058,333.0071 570.872,353.4341 " fill="none" style="stroke: #A80036; stroke-width: 1.0;"/><polygon fill="none" points="525.462,282.6191,522.29,261.6681,537.835,276.0691,525.462,282.6191" style="stroke: #A80036; stroke-width: 1.0;"/><path d="M487.274,421.5391 C428.648,443.1551 355.67,470.0635 302.173,489.7886 " fill="none" style="stroke: #A80036; stroke-width: 1.0;"/><polygon fill="none" points="484.971,414.9281,506.158,414.5761,489.814,428.0631,484.971,414.9281" style="stroke: #A80036; stroke-width: 1.0;"/><path d="M221.603,441.0811 C223.042,456.9198 224.553,473.5347 225.792,487.1651 " fill="none" style="stroke: #A80036; stroke-width: 1.0;"/><polygon fill="none" points="214.619,441.5741,219.779,421.0231,228.561,440.3071,214.619,441.5741" style="stroke: #A80036; stroke-width: 1.0;"/><path d="M531.475,426.6961 C508.546,444.0901 482.176,464.0952 460.098,480.844 " fill="none" style="stroke: #A80036; stroke-width: 1.0;"/><polygon fill="none" points="527.286,421.0871,547.451,414.5761,535.748,432.2411,527.286,421.0871" style="stroke: #A80036; stroke-width: 1.0;"/><path d="M402.761,441.3321 C404.489,454.7491 406.287,468.7084 407.86,480.9271 " fill="none" style="stroke: #A80036; stroke-width: 1.0;"/><polygon fill="none" points="395.757,441.7531,400.145,421.0231,409.643,439.9651,395.757,441.7531" style="stroke: #A80036; stroke-width: 1.0;"/><path d="M596.248,434.4441 C599.282,449.8481 602.569,466.5343 605.388,480.844 " fill="none" style="stroke: #A80036; stroke-width: 1.0;"/><polygon fill="none" points="589.332,435.5521,592.335,414.5761,603.068,432.8471,589.332,435.5521" style="stroke: #A80036; stroke-width: 1.0;"/><path d="M726.93,433.0381 C705.358,448.8571 681.76,466.1628 661.626,480.9271 " fill="none" style="stroke: #A80036; stroke-width: 1.0;"/><polygon fill="none" points="723.047,427.2051,743.314,421.0231,731.326,438.4951,723.047,427.2051" style="stroke: #A80036; stroke-width: 1.0;"/><path d="M676.12,422.3891 C726.538,443.4501 788.466,469.3186 834.799,488.6728 " fill="none" style="stroke: #A80036; stroke-width: 1.0;"/><polygon fill="none" points="673.173,428.7441,657.417,414.5761,678.569,415.8261,673.173,428.7441" style="stroke: #A80036; stroke-width: 1.0;"/><path d="M948.311,438.4191 C938.614,455.0436 928.274,472.769 919.876,487.1651 " fill="none" style="stroke: #A80036; stroke-width: 1.0;"/><polygon fill="none" points="942.335,434.7711,958.459,421.0231,954.428,441.8251,942.335,434.7711" style="stroke: #A80036; stroke-width: 1.0;"/><path d="M687.794,420.2071 C688.699,420.4591 689.601,420.7081 690.5,420.9531 C820.42,456.3913 856.59,449.3671 987.5,480.9531 C1009.94,486.3675 1034.38,493.045 1055.83,499.1727 " fill="none" style="stroke: #A80036; stroke-width: 1.0;"/><polygon fill="none" points="685.676,426.8801,668.498,414.4741,689.663,413.4601,685.676,426.8801" style="stroke: #A80036; stroke-width: 1.0;"/><path d="M1130.5,440.8141 C1127.36,456.7331 1124.07,473.4581 1121.37,487.1651 " fill="none" style="stroke: #A80036; stroke-width: 1.0;"/><polygon fill="none" points="1123.66,439.2931,1134.4,421.0231,1137.4,441.9981,1123.66,439.2931" style="stroke: #A80036; stroke-width: 1.0;"/><path d="M485.635,420.1301 C484.586,420.4101 483.541,420.6841 482.5,420.9531 C331.809,459.8674 284.76,430.5881 137.5,480.9531 C131.812,482.8984 126.023,485.2721 120.344,487.8636 " fill="none" style="stroke: #A80036; stroke-width: 1.0;"/><polygon fill="none" points="483.972,413.3251,505.128,414.5101,487.85,426.7771,483.972,413.3251" style="stroke: #A80036; stroke-width: 1.0;"/><path d="M62.0277,441.0811 C63.5876,456.9198 65.2239,473.5347 66.5663,487.1651 " fill="none" style="stroke: #A80036; stroke-width: 1.0;"/><polygon fill="none" points="55.0463,441.6121,60.0523,421.0231,68.9789,440.2401,55.0463,441.6121" style="stroke: #A80036; stroke-width: 1.0;"/></g></svg>