<?xml version="1.0" encoding="UTF-8" standalone="no"?><svg xmlns="http://www.w3.org/2000/svg" xmlns:xlink="http://www.w3.org/1999/xlink" contentScriptType="application/ecmascript" contentStyleType="text/css" height="684px" preserveAspectRatio="none" style="width:456px;height:684px;" version="1.1" viewBox="0 0 456 684" width="456px" zoomAndPan="magnify"><defs><filter height="300%" id="ftd7bbx" width="300%" x="-1" y="-1"><feGaussianBlur result="blurOut" stdDeviation="2.0"/><feColorMatrix in="blurOut" result="blurOut2" type="matrix" values="0 0 0 0 0 0 0 0 0 0 0 0 0 0 0 0 0 0 .4 0"/><feOffset dx="4.0" dy="4.0" in="blurOut2" result="blurOut3"/><feBlend in="SourceGraphic" in2="blurOut3" mode="normal"/></filter></defs><g><text fill="#000000" font-family="sans-serif" font-size="18" font-weight="bold" lengthAdjust="spacingAndGlyphs" textLength="321" x="72" y="16.708">Regularizer Terms (Divergence)</text><!--class dualPart--><rect fill="#FEFECE" filter="url(#ftd7bbx)" height="150.4375" style="stroke: #A80036; stroke-width: 1.5;" width="89" x="255" y="136.9531"/><ellipse cx="271.8" cy="152.9531" fill="#E6FFE6" rx="11" ry="11" style="stroke: #A80036; stroke-width: 1.0;"/><path d="M273.3781,154.7656 L269.3313,154.7656 L268.9406,155.75 L269.3313,155.75 C269.7844,155.75 269.925,155.7813 270.0969,155.9063 C270.3156,156.0781 270.4406,156.3281 270.4406,156.6094 C270.4406,156.8906 270.3,157.1875 270.0344,157.3281 C269.9094,157.4219 269.6906,157.4531 269.3313,157.4531 L267.0656,157.4531 C266.3156,157.4531 265.9406,157.1719 265.9406,156.6094 C265.9406,156.3125 266.0969,156.0313 266.3469,155.875 C266.5031,155.7656 266.6594,155.75 267.0813,155.75 L269.7219,149.2344 L268.6438,149.2344 C268.2063,149.2344 268.0344,149.2031 267.8625,149.0938 C267.6438,148.9219 267.5031,148.6719 267.5031,148.3906 C267.5031,148.1094 267.6594,147.8281 267.9094,147.6563 C268.0656,147.5625 268.1906,147.5469 268.6438,147.5469 L272.3156,147.5469 L275.7063,155.75 C276.175,155.75 276.3313,155.7813 276.5031,155.9219 C276.7219,156.0781 276.8625,156.3281 276.8625,156.6094 C276.8625,156.8906 276.7063,157.1875 276.4563,157.3281 C276.3156,157.4219 276.0969,157.4531 275.7375,157.4531 L273.3781,157.4531 C272.9563,157.4531 272.7531,157.4063 272.6125,157.2813 C272.3938,157.125 272.2531,156.875 272.2531,156.6094 C272.2531,156.3125 272.4094,156.0313 272.6594,155.875 C272.8156,155.7656 272.925,155.75 273.3781,155.75 L273.7688,155.75 Z M272.675,153.0625 L271.3469,149.7969 L270.0031,153.0625 Z "/><text fill="#000000" font-family="sans-serif" font-size="12" lengthAdjust="spacingAndGlyphs" textLength="53" x="286.2" y="157.1074">dualPart</text><line style="stroke: #A80036; stroke-width: 1.5;" x1="256" x2="343" y1="168.9531" y2="168.9531"/><ellipse cx="266" cy="180.8555" fill="none" rx="3" ry="3" style="stroke: #038048; stroke-width: 1.0;"/><text fill="#000000" font-family="sans-serif" font-size="11" lengthAdjust="spacingAndGlyphs" textLength="35" x="275" y="183.1636">length</text><ellipse cx="266" cy="193.6602" fill="none" rx="3" ry="3" style="stroke: #038048; stroke-width: 1.0;"/><text fill="#000000" font-family="sans-serif" font-size="11" lengthAdjust="spacingAndGlyphs" textLength="53" x="275" y="195.9683">mySigma</text><ellipse cx="266" cy="206.4648" fill="none" rx="3" ry="3" style="stroke: #038048; stroke-width: 1.0;"/><text fill="#000000" font-family="sans-serif" font-size="11" lengthAdjust="spacingAndGlyphs" textLength="38" x="275" y="208.7729">myTau</text><ellipse cx="266" cy="219.2695" fill="none" rx="3" ry="3" style="stroke: #038048; stroke-width: 1.0;"/><text fill="#000000" font-family="sans-serif" font-size="11" lengthAdjust="spacingAndGlyphs" textLength="51" x="275" y="221.5776">numVars</text><ellipse cx="266" cy="232.0742" fill="none" rx="3" ry="3" style="stroke: #038048; stroke-width: 1.0;"/><text fill="#000000" font-family="sans-serif" font-size="11" lengthAdjust="spacingAndGlyphs" textLength="49" x="275" y="234.3823">operator</text><ellipse cx="266" cy="244.8789" fill="none" rx="3" ry="3" style="stroke: #038048; stroke-width: 1.0;"/><text fill="#000000" font-family="sans-serif" font-size="11" lengthAdjust="spacingAndGlyphs" textLength="56" x="275" y="247.187">operatorT</text><line style="stroke: #A80036; stroke-width: 1.5;" x1="256" x2="343" y1="253.7813" y2="253.7813"/><ellipse cx="266" cy="265.6836" fill="#84BE84" rx="3" ry="3" style="stroke: #038048; stroke-width: 1.0;"/><text fill="#000000" font-family="sans-serif" font-size="11" lengthAdjust="spacingAndGlyphs" textLength="55" x="275" y="267.9917">dualPart()</text><ellipse cx="266" cy="278.4883" fill="#84BE84" rx="3" ry="3" style="stroke: #038048; stroke-width: 1.0;"/><text fill="#000000" font-family="sans-serif" font-size="11" lengthAdjust="spacingAndGlyphs" textLength="63" x="275" y="280.7964">applyProx()</text><!--class basicDualizedOperator--><rect fill="#FEFECE" filter="url(#ftd7bbx)" height="60.8047" style="stroke: #A80036; stroke-width: 1.5;" width="173" x="123" y="346.9531"/><ellipse cx="138" cy="362.9531" fill="#E6FFE6" rx="11" ry="11" style="stroke: #A80036; stroke-width: 1.0;"/><path d="M139.5781,364.7656 L135.5313,364.7656 L135.1406,365.75 L135.5313,365.75 C135.9844,365.75 136.125,365.7813 136.2969,365.9063 C136.5156,366.0781 136.6406,366.3281 136.6406,366.6094 C136.6406,366.8906 136.5,367.1875 136.2344,367.3281 C136.1094,367.4219 135.8906,367.4531 135.5313,367.4531 L133.2656,367.4531 C132.5156,367.4531 132.1406,367.1719 132.1406,366.6094 C132.1406,366.3125 132.2969,366.0313 132.5469,365.875 C132.7031,365.7656 132.8594,365.75 133.2813,365.75 L135.9219,359.2344 L134.8438,359.2344 C134.4063,359.2344 134.2344,359.2031 134.0625,359.0938 C133.8438,358.9219 133.7031,358.6719 133.7031,358.3906 C133.7031,358.1094 133.8594,357.8281 134.1094,357.6563 C134.2656,357.5625 134.3906,357.5469 134.8438,357.5469 L138.5156,357.5469 L141.9063,365.75 C142.375,365.75 142.5313,365.7813 142.7031,365.9219 C142.9219,366.0781 143.0625,366.3281 143.0625,366.6094 C143.0625,366.8906 142.9063,367.1875 142.6563,367.3281 C142.5156,367.4219 142.2969,367.4531 141.9375,367.4531 L139.5781,367.4531 C139.1563,367.4531 138.9531,367.4063 138.8125,367.2813 C138.5938,367.125 138.4531,366.875 138.4531,366.6094 C138.4531,366.3125 138.6094,366.0313 138.8594,365.875 C139.0156,365.7656 139.125,365.75 139.5781,365.75 L139.9688,365.75 Z M138.875,363.0625 L137.5469,359.7969 L136.2031,363.0625 Z "/><text fill="#000000" font-family="sans-serif" font-size="12" lengthAdjust="spacingAndGlyphs" textLength="141" x="152" y="367.1074">basicDualizedOperator</text><line style="stroke: #A80036; stroke-width: 1.5;" x1="124" x2="295" y1="378.9531" y2="378.9531"/><line style="stroke: #A80036; stroke-width: 1.5;" x1="124" x2="295" y1="386.9531" y2="386.9531"/><ellipse cx="134" cy="398.8555" fill="#84BE84" rx="3" ry="3" style="stroke: #038048; stroke-width: 1.0;"/><text fill="#000000" font-family="sans-serif" font-size="11" lengthAdjust="spacingAndGlyphs" textLength="136" x="143" y="401.1636">basicDualizedOperator()</text><!--class basicDivergence--><rect fill="#FEFECE" filter="url(#ftd7bbx)" height="60.8047" style="stroke: #A80036; stroke-width: 1.5;" width="135" x="142" y="474.4531"/><ellipse cx="157" cy="490.4531" fill="#E6FFE6" rx="11" ry="11" style="stroke: #A80036; stroke-width: 1.0;"/><path d="M158.5781,492.2656 L154.5313,492.2656 L154.1406,493.25 L154.5313,493.25 C154.9844,493.25 155.125,493.2813 155.2969,493.4063 C155.5156,493.5781 155.6406,493.8281 155.6406,494.1094 C155.6406,494.3906 155.5,494.6875 155.2344,494.8281 C155.1094,494.9219 154.8906,494.9531 154.5313,494.9531 L152.2656,494.9531 C151.5156,494.9531 151.1406,494.6719 151.1406,494.1094 C151.1406,493.8125 151.2969,493.5313 151.5469,493.375 C151.7031,493.2656 151.8594,493.25 152.2813,493.25 L154.9219,486.7344 L153.8438,486.7344 C153.4063,486.7344 153.2344,486.7031 153.0625,486.5938 C152.8438,486.4219 152.7031,486.1719 152.7031,485.8906 C152.7031,485.6094 152.8594,485.3281 153.1094,485.1563 C153.2656,485.0625 153.3906,485.0469 153.8438,485.0469 L157.5156,485.0469 L160.9063,493.25 C161.375,493.25 161.5313,493.2813 161.7031,493.4219 C161.9219,493.5781 162.0625,493.8281 162.0625,494.1094 C162.0625,494.3906 161.9063,494.6875 161.6563,494.8281 C161.5156,494.9219 161.2969,494.9531 160.9375,494.9531 L158.5781,494.9531 C158.1563,494.9531 157.9531,494.9063 157.8125,494.7813 C157.5938,494.625 157.4531,494.375 157.4531,494.1094 C157.4531,493.8125 157.6094,493.5313 157.8594,493.375 C158.0156,493.2656 158.125,493.25 158.5781,493.25 L158.9688,493.25 Z M157.875,490.5625 L156.5469,487.2969 L155.2031,490.5625 Z "/><text fill="#000000" font-family="sans-serif" font-size="12" lengthAdjust="spacingAndGlyphs" textLength="103" x="171" y="494.6074">basicDivergence</text><line style="stroke: #A80036; stroke-width: 1.5;" x1="143" x2="276" y1="506.4531" y2="506.4531"/><line style="stroke: #A80036; stroke-width: 1.5;" x1="143" x2="276" y1="514.4531" y2="514.4531"/><ellipse cx="153" cy="526.3555" fill="#84BE84" rx="3" ry="3" style="stroke: #038048; stroke-width: 1.0;"/><text fill="#000000" font-family="sans-serif" font-size="11" lengthAdjust="spacingAndGlyphs" textLength="101" x="162" y="528.6636">basicDivergence()</text><!--class L1divergence--><rect fill="#FEFECE" filter="url(#ftd7bbx)" height="60.8047" style="stroke: #A80036; stroke-width: 1.5;" width="115" x="227" y="608.4531"/><ellipse cx="242" cy="624.4531" fill="#E6FFE6" rx="11" ry="11" style="stroke: #A80036; stroke-width: 1.0;"/><path d="M243.9531,625.3594 L240.3125,625.3594 L240.3125,627.75 L240.5625,627.75 C241.0156,627.75 241.1875,627.7813 241.3281,627.9063 C241.5625,628.0781 241.6875,628.3281 241.6875,628.6094 C241.6875,628.8906 241.5313,629.1875 241.2813,629.3281 C241.1406,629.4219 240.9219,629.4531 240.5625,629.4531 L238.5156,629.4531 C238.1094,629.4531 237.8906,629.4063 237.7344,629.2969 C237.5313,629.125 237.3906,628.8594 237.3906,628.6094 C237.3906,628.3125 237.5469,628.0313 237.7969,627.875 C237.9531,627.7656 238.0938,627.75 238.5156,627.75 L238.6094,627.75 L238.6094,621.2344 C238.0469,621.1875 237.7344,620.8906 237.7344,620.3906 C237.7344,620.1094 237.8906,619.8125 238.1406,619.6563 C238.2969,619.5625 238.4219,619.5469 238.8594,619.5469 L240.5625,619.5469 C241.0313,619.5469 241.1875,619.5781 241.3281,619.6875 C241.5625,619.8594 241.6875,620.125 241.6875,620.3906 C241.6875,620.6875 241.5313,620.9688 241.2813,621.125 C241.125,621.2031 240.9844,621.2344 240.5625,621.2344 L240.3125,621.2344 L240.3125,623.6563 L243.9531,623.6563 L243.9531,621.2344 L243.7031,621.2344 C243.25,621.2344 243.1094,621.2031 242.9375,621.0938 C242.7188,620.9219 242.5781,620.6719 242.5781,620.3906 C242.5781,620.1094 242.7344,619.8125 242.9844,619.6563 C243.1406,619.5625 243.2656,619.5469 243.7031,619.5469 L245.4219,619.5469 C245.875,619.5469 246.0313,619.5781 246.2031,619.6875 C246.4063,619.8594 246.5313,620.125 246.5313,620.3906 C246.5313,620.8906 246.2188,621.1875 245.6563,621.2344 L245.6563,627.75 L245.75,627.75 C246.2188,627.75 246.3594,627.7813 246.5156,627.9063 C246.7344,628.0781 246.875,628.3281 246.875,628.6094 C246.875,628.8906 246.7188,629.1875 246.4688,629.3281 C246.3281,629.4219 246.1094,629.4531 245.75,629.4531 L243.7031,629.4531 C243.2969,629.4531 243.0938,629.4063 242.9375,629.2969 C242.7188,629.125 242.5781,628.8594 242.5781,628.6094 C242.5781,628.3125 242.7344,628.0313 242.9844,627.875 C243.1406,627.7656 243.2969,627.75 243.7031,627.75 L243.9531,627.75 Z "/><text fill="#000000" font-family="sans-serif" font-size="12" lengthAdjust="spacingAndGlyphs" textLength="83" x="256" y="628.6074">L1divergence</text><line style="stroke: #A80036; stroke-width: 1.5;" x1="228" x2="341" y1="640.4531" y2="640.4531"/><line style="stroke: #A80036; stroke-width: 1.5;" x1="228" x2="341" y1="648.4531" y2="648.4531"/><ellipse cx="238" cy="660.3555" fill="#84BE84" rx="3" ry="3" style="stroke: #038048; stroke-width: 1.0;"/><text fill="#000000" font-family="sans-serif" font-size="11" lengthAdjust="spacingAndGlyphs" textLength="83" x="247" y="662.6636">L1divergence()</text><!--class L2divergence--><rect fill="#FEFECE" filter="url(#ftd7bbx)" height="73.6094" style="stroke: #A80036; stroke-width: 1.5;" width="115" x="76" y="601.9531"/><ellipse cx="91" cy="617.9531" fill="#E6FFE6" rx="11" ry="11" style="stroke: #A80036; stroke-width: 1.0;"/><path d="M92.9531,618.8594 L89.3125,618.8594 L89.3125,621.25 L89.5625,621.25 C90.0156,621.25 90.1875,621.2813 90.3281,621.4063 C90.5625,621.5781 90.6875,621.8281 90.6875,622.1094 C90.6875,622.3906 90.5313,622.6875 90.2813,622.8281 C90.1406,622.9219 89.9219,622.9531 89.5625,622.9531 L87.5156,622.9531 C87.1094,622.9531 86.8906,622.9063 86.7344,622.7969 C86.5313,622.625 86.3906,622.3594 86.3906,622.1094 C86.3906,621.8125 86.5469,621.5313 86.7969,621.375 C86.9531,621.2656 87.0938,621.25 87.5156,621.25 L87.6094,621.25 L87.6094,614.7344 C87.0469,614.6875 86.7344,614.3906 86.7344,613.8906 C86.7344,613.6094 86.8906,613.3125 87.1406,613.1563 C87.2969,613.0625 87.4219,613.0469 87.8594,613.0469 L89.5625,613.0469 C90.0313,613.0469 90.1875,613.0781 90.3281,613.1875 C90.5625,613.3594 90.6875,613.625 90.6875,613.8906 C90.6875,614.1875 90.5313,614.4688 90.2813,614.625 C90.125,614.7031 89.9844,614.7344 89.5625,614.7344 L89.3125,614.7344 L89.3125,617.1563 L92.9531,617.1563 L92.9531,614.7344 L92.7031,614.7344 C92.25,614.7344 92.1094,614.7031 91.9375,614.5938 C91.7188,614.4219 91.5781,614.1719 91.5781,613.8906 C91.5781,613.6094 91.7344,613.3125 91.9844,613.1563 C92.1406,613.0625 92.2656,613.0469 92.7031,613.0469 L94.4219,613.0469 C94.875,613.0469 95.0313,613.0781 95.2031,613.1875 C95.4063,613.3594 95.5313,613.625 95.5313,613.8906 C95.5313,614.3906 95.2188,614.6875 94.6563,614.7344 L94.6563,621.25 L94.75,621.25 C95.2188,621.25 95.3594,621.2813 95.5156,621.4063 C95.7344,621.5781 95.875,621.8281 95.875,622.1094 C95.875,622.3906 95.7188,622.6875 95.4688,622.8281 C95.3281,622.9219 95.1094,622.9531 94.75,622.9531 L92.7031,622.9531 C92.2969,622.9531 92.0938,622.9063 91.9375,622.7969 C91.7188,622.625 91.5781,622.3594 91.5781,622.1094 C91.5781,621.8125 91.7344,621.5313 91.9844,621.375 C92.1406,621.2656 92.2969,621.25 92.7031,621.25 L92.9531,621.25 Z "/><text fill="#000000" font-family="sans-serif" font-size="12" lengthAdjust="spacingAndGlyphs" textLength="83" x="105" y="622.1074">L2divergence</text><line style="stroke: #A80036; stroke-width: 1.5;" x1="77" x2="190" y1="633.9531" y2="633.9531"/><line style="stroke: #A80036; stroke-width: 1.5;" x1="77" x2="190" y1="641.9531" y2="641.9531"/><ellipse cx="87" cy="653.8555" fill="#84BE84" rx="3" ry="3" style="stroke: #038048; stroke-width: 1.0;"/><text fill="#000000" font-family="sans-serif" font-size="11" lengthAdjust="spacingAndGlyphs" textLength="83" x="96" y="656.1636">L2divergence()</text><ellipse cx="87" cy="666.6602" fill="#84BE84" rx="3" ry="3" style="stroke: #038048; stroke-width: 1.0;"/><text fill="#000000" font-family="sans-serif" font-size="11" lengthAdjust="spacingAndGlyphs" textLength="25" x="96" y="668.9683">init()</text><!--class tildeMultiOperatorMultiDual--><rect fill="#FEFECE" filter="url(#ftd7bbx)" height="99.2188" style="stroke: #A80036; stroke-width: 1.5;" width="201" x="19" y="162.4531"/><ellipse cx="34" cy="178.4531" fill="#E6FFE6" rx="11" ry="11" style="stroke: #A80036; stroke-width: 1.0;"/><path d="M35.9531,179.3594 L32.3125,179.3594 L32.3125,181.75 L32.5625,181.75 C33.0156,181.75 33.1875,181.7813 33.3281,181.9063 C33.5625,182.0781 33.6875,182.3281 33.6875,182.6094 C33.6875,182.8906 33.5313,183.1875 33.2813,183.3281 C33.1406,183.4219 32.9219,183.4531 32.5625,183.4531 L30.5156,183.4531 C30.1094,183.4531 29.8906,183.4063 29.7344,183.2969 C29.5313,183.125 29.3906,182.8594 29.3906,182.6094 C29.3906,182.3125 29.5469,182.0313 29.7969,181.875 C29.9531,181.7656 30.0938,181.75 30.5156,181.75 L30.6094,181.75 L30.6094,175.2344 C30.0469,175.1875 29.7344,174.8906 29.7344,174.3906 C29.7344,174.1094 29.8906,173.8125 30.1406,173.6563 C30.2969,173.5625 30.4219,173.5469 30.8594,173.5469 L32.5625,173.5469 C33.0313,173.5469 33.1875,173.5781 33.3281,173.6875 C33.5625,173.8594 33.6875,174.125 33.6875,174.3906 C33.6875,174.6875 33.5313,174.9688 33.2813,175.125 C33.125,175.2031 32.9844,175.2344 32.5625,175.2344 L32.3125,175.2344 L32.3125,177.6563 L35.9531,177.6563 L35.9531,175.2344 L35.7031,175.2344 C35.25,175.2344 35.1094,175.2031 34.9375,175.0938 C34.7188,174.9219 34.5781,174.6719 34.5781,174.3906 C34.5781,174.1094 34.7344,173.8125 34.9844,173.6563 C35.1406,173.5625 35.2656,173.5469 35.7031,173.5469 L37.4219,173.5469 C37.875,173.5469 38.0313,173.5781 38.2031,173.6875 C38.4063,173.8594 38.5313,174.125 38.5313,174.3906 C38.5313,174.8906 38.2188,175.1875 37.6563,175.2344 L37.6563,181.75 L37.75,181.75 C38.2188,181.75 38.3594,181.7813 38.5156,181.9063 C38.7344,182.0781 38.875,182.3281 38.875,182.6094 C38.875,182.8906 38.7188,183.1875 38.4688,183.3281 C38.3281,183.4219 38.1094,183.4531 37.75,183.4531 L35.7031,183.4531 C35.2969,183.4531 35.0938,183.4063 34.9375,183.2969 C34.7188,183.125 34.5781,182.8594 34.5781,182.6094 C34.5781,182.3125 34.7344,182.0313 34.9844,181.875 C35.1406,181.7656 35.2969,181.75 35.7031,181.75 L35.9531,181.75 Z "/><text fill="#000000" font-family="sans-serif" font-size="12" lengthAdjust="spacingAndGlyphs" textLength="169" x="48" y="182.6074">tildeMultiOperatorMultiDual</text><line style="stroke: #A80036; stroke-width: 1.5;" x1="20" x2="219" y1="194.4531" y2="194.4531"/><line style="stroke: #A80036; stroke-width: 1.5;" x1="20" x2="219" y1="202.4531" y2="202.4531"/><ellipse cx="30" cy="214.3555" fill="#84BE84" rx="3" ry="3" style="stroke: #038048; stroke-width: 1.0;"/><text fill="#000000" font-family="sans-serif" font-size="11" lengthAdjust="spacingAndGlyphs" textLength="43" x="39" y="216.6636">xError()</text><ellipse cx="30" cy="227.1602" fill="#84BE84" rx="3" ry="3" style="stroke: #038048; stroke-width: 1.0;"/><text fill="#000000" font-family="sans-serif" font-size="11" lengthAdjust="spacingAndGlyphs" textLength="41" x="39" y="229.4683">xTilde()</text><ellipse cx="30" cy="239.9648" fill="#84BE84" rx="3" ry="3" style="stroke: #038048; stroke-width: 1.0;"/><text fill="#000000" font-family="sans-serif" font-size="11" lengthAdjust="spacingAndGlyphs" textLength="43" x="39" y="242.2729">yError()</text><ellipse cx="30" cy="252.7695" fill="#84BE84" rx="3" ry="3" style="stroke: #038048; stroke-width: 1.0;"/><text fill="#000000" font-family="sans-serif" font-size="11" lengthAdjust="spacingAndGlyphs" textLength="41" x="39" y="255.0776">yTilde()</text><!--class L1AnisoProxDual--><rect fill="#FEFECE" filter="url(#ftd7bbx)" height="73.6094" style="stroke: #A80036; stroke-width: 1.5;" width="135" x="312" y="467.9531"/><ellipse cx="327" cy="483.9531" fill="#E6FFE6" rx="11" ry="11" style="stroke: #A80036; stroke-width: 1.0;"/><path d="M328.9531,484.8594 L325.3125,484.8594 L325.3125,487.25 L325.5625,487.25 C326.0156,487.25 326.1875,487.2813 326.3281,487.4063 C326.5625,487.5781 326.6875,487.8281 326.6875,488.1094 C326.6875,488.3906 326.5313,488.6875 326.2813,488.8281 C326.1406,488.9219 325.9219,488.9531 325.5625,488.9531 L323.5156,488.9531 C323.1094,488.9531 322.8906,488.9063 322.7344,488.7969 C322.5313,488.625 322.3906,488.3594 322.3906,488.1094 C322.3906,487.8125 322.5469,487.5313 322.7969,487.375 C322.9531,487.2656 323.0938,487.25 323.5156,487.25 L323.6094,487.25 L323.6094,480.7344 C323.0469,480.6875 322.7344,480.3906 322.7344,479.8906 C322.7344,479.6094 322.8906,479.3125 323.1406,479.1563 C323.2969,479.0625 323.4219,479.0469 323.8594,479.0469 L325.5625,479.0469 C326.0313,479.0469 326.1875,479.0781 326.3281,479.1875 C326.5625,479.3594 326.6875,479.625 326.6875,479.8906 C326.6875,480.1875 326.5313,480.4688 326.2813,480.625 C326.125,480.7031 325.9844,480.7344 325.5625,480.7344 L325.3125,480.7344 L325.3125,483.1563 L328.9531,483.1563 L328.9531,480.7344 L328.7031,480.7344 C328.25,480.7344 328.1094,480.7031 327.9375,480.5938 C327.7188,480.4219 327.5781,480.1719 327.5781,479.8906 C327.5781,479.6094 327.7344,479.3125 327.9844,479.1563 C328.1406,479.0625 328.2656,479.0469 328.7031,479.0469 L330.4219,479.0469 C330.875,479.0469 331.0313,479.0781 331.2031,479.1875 C331.4063,479.3594 331.5313,479.625 331.5313,479.8906 C331.5313,480.3906 331.2188,480.6875 330.6563,480.7344 L330.6563,487.25 L330.75,487.25 C331.2188,487.25 331.3594,487.2813 331.5156,487.4063 C331.7344,487.5781 331.875,487.8281 331.875,488.1094 C331.875,488.3906 331.7188,488.6875 331.4688,488.8281 C331.3281,488.9219 331.1094,488.9531 330.75,488.9531 L328.7031,488.9531 C328.2969,488.9531 328.0938,488.9063 327.9375,488.7969 C327.7188,488.625 327.5781,488.3594 327.5781,488.1094 C327.5781,487.8125 327.7344,487.5313 327.9844,487.375 C328.1406,487.2656 328.2969,487.25 328.7031,487.25 L328.9531,487.25 Z "/><text fill="#000000" font-family="sans-serif" font-size="12" lengthAdjust="spacingAndGlyphs" textLength="103" x="341" y="488.1074">L1AnisoProxDual</text><line style="stroke: #A80036; stroke-width: 1.5;" x1="313" x2="446" y1="499.9531" y2="499.9531"/><line style="stroke: #A80036; stroke-width: 1.5;" x1="313" x2="446" y1="507.9531" y2="507.9531"/><ellipse cx="323" cy="519.8555" fill="#84BE84" rx="3" ry="3" style="stroke: #038048; stroke-width: 1.0;"/><text fill="#000000" font-family="sans-serif" font-size="11" lengthAdjust="spacingAndGlyphs" textLength="102" x="332" y="522.1636">L1AnisoProxDual()</text><ellipse cx="323" cy="532.6602" fill="#84BE84" rx="3" ry="3" style="stroke: #038048; stroke-width: 1.0;"/><text fill="#000000" font-family="sans-serif" font-size="11" lengthAdjust="spacingAndGlyphs" textLength="63" x="332" y="534.9683">applyProx()</text><!--class L2proxDual--><rect fill="#FEFECE" filter="url(#ftd7bbx)" height="73.6094" style="stroke: #A80036; stroke-width: 1.5;" width="101" x="6" y="467.9531"/><ellipse cx="21" cy="483.9531" fill="#E6FFE6" rx="11" ry="11" style="stroke: #A80036; stroke-width: 1.0;"/><path d="M22.9531,484.8594 L19.3125,484.8594 L19.3125,487.25 L19.5625,487.25 C20.0156,487.25 20.1875,487.2813 20.3281,487.4063 C20.5625,487.5781 20.6875,487.8281 20.6875,488.1094 C20.6875,488.3906 20.5313,488.6875 20.2813,488.8281 C20.1406,488.9219 19.9219,488.9531 19.5625,488.9531 L17.5156,488.9531 C17.1094,488.9531 16.8906,488.9063 16.7344,488.7969 C16.5313,488.625 16.3906,488.3594 16.3906,488.1094 C16.3906,487.8125 16.5469,487.5313 16.7969,487.375 C16.9531,487.2656 17.0938,487.25 17.5156,487.25 L17.6094,487.25 L17.6094,480.7344 C17.0469,480.6875 16.7344,480.3906 16.7344,479.8906 C16.7344,479.6094 16.8906,479.3125 17.1406,479.1563 C17.2969,479.0625 17.4219,479.0469 17.8594,479.0469 L19.5625,479.0469 C20.0313,479.0469 20.1875,479.0781 20.3281,479.1875 C20.5625,479.3594 20.6875,479.625 20.6875,479.8906 C20.6875,480.1875 20.5313,480.4688 20.2813,480.625 C20.125,480.7031 19.9844,480.7344 19.5625,480.7344 L19.3125,480.7344 L19.3125,483.1563 L22.9531,483.1563 L22.9531,480.7344 L22.7031,480.7344 C22.25,480.7344 22.1094,480.7031 21.9375,480.5938 C21.7188,480.4219 21.5781,480.1719 21.5781,479.8906 C21.5781,479.6094 21.7344,479.3125 21.9844,479.1563 C22.1406,479.0625 22.2656,479.0469 22.7031,479.0469 L24.4219,479.0469 C24.875,479.0469 25.0313,479.0781 25.2031,479.1875 C25.4063,479.3594 25.5313,479.625 25.5313,479.8906 C25.5313,480.3906 25.2188,480.6875 24.6563,480.7344 L24.6563,487.25 L24.75,487.25 C25.2188,487.25 25.3594,487.2813 25.5156,487.4063 C25.7344,487.5781 25.875,487.8281 25.875,488.1094 C25.875,488.3906 25.7188,488.6875 25.4688,488.8281 C25.3281,488.9219 25.1094,488.9531 24.75,488.9531 L22.7031,488.9531 C22.2969,488.9531 22.0938,488.9063 21.9375,488.7969 C21.7188,488.625 21.5781,488.3594 21.5781,488.1094 C21.5781,487.8125 21.7344,487.5313 21.9844,487.375 C22.1406,487.2656 22.2969,487.25 22.7031,487.25 L22.9531,487.25 Z "/><text fill="#000000" font-family="sans-serif" font-size="12" lengthAdjust="spacingAndGlyphs" textLength="69" x="35" y="488.1074">L2proxDual</text><line style="stroke: #A80036; stroke-width: 1.5;" x1="7" x2="106" y1="499.9531" y2="499.9531"/><line style="stroke: #A80036; stroke-width: 1.5;" x1="7" x2="106" y1="507.9531" y2="507.9531"/><ellipse cx="17" cy="519.8555" fill="#84BE84" rx="3" ry="3" style="stroke: #038048; stroke-width: 1.0;"/><text fill="#000000" font-family="sans-serif" font-size="11" lengthAdjust="spacingAndGlyphs" textLength="71" x="26" y="522.1636">L2proxDual()</text><ellipse cx="17" cy="532.6602" fill="#84BE84" rx="3" ry="3" style="stroke: #038048; stroke-width: 1.0;"/><text fill="#000000" font-family="sans-serif" font-size="11" lengthAdjust="spacingAndGlyphs" textLength="63" x="26" y="534.9683">applyProx()</text><!--class functionalPart--><rect fill="#FEFECE" filter="url(#ftd7bbx)" height="48" style="stroke: #A80036; stroke-width: 1.5;" width="120" x="239.5" y="28.9531"/><ellipse cx="254.5" cy="44.9531" fill="#ADD1B2" rx="11" ry="11" style="stroke: #A80036; stroke-width: 1.0;"/><path d="M256.8438,40.625 L257.0156,40.7031 C257.2344,40.3906 257.4375,40.2969 257.7344,40.2969 C258.0313,40.2969 258.3125,40.4375 258.4688,40.7031 C258.5625,40.8594 258.5781,40.9844 258.5781,41.4219 L258.5781,42.8438 C258.5781,43.2656 258.5469,43.4531 258.4375,43.6094 C258.2656,43.8281 258,43.9688 257.7344,43.9688 C257.5156,43.9688 257.2813,43.8594 257.1406,43.7188 C257,43.5938 256.9688,43.4688 256.9063,43.0625 C256.8125,42.6563 256.6406,42.4375 256.1563,42.1563 C255.6875,41.9063 255.0781,41.75 254.5,41.75 C252.7656,41.75 251.5156,43.0625 251.5156,44.8438 L251.5156,45.9375 C251.5156,47.6406 252.8125,48.7344 254.8594,48.7344 C255.625,48.7344 256.3125,48.6094 256.7344,48.3438 C256.9219,48.25 256.9219,48.25 257.375,47.7656 C257.5625,47.5781 257.7656,47.5 257.9844,47.5 C258.4531,47.5 258.8438,47.8906 258.8438,48.3438 C258.8438,48.7344 258.5156,49.1875 257.9375,49.5938 C257.1875,50.1406 256.0313,50.4375 254.8125,50.4375 C251.9219,50.4375 249.8125,48.5469 249.8125,45.9688 L249.8125,44.8438 C249.8125,42.125 251.8125,40.0469 254.4375,40.0469 C255.3125,40.0469 255.9063,40.1875 256.8438,40.625 Z "/><text fill="#000000" font-family="sans-serif" font-size="12" lengthAdjust="spacingAndGlyphs" textLength="88" x="268.5" y="49.1074">functionalPart</text><line style="stroke: #A80036; stroke-width: 1.5;" x1="240.5" x2="358.5" y1="60.9531" y2="60.9531"/><line style="stroke: #A80036; stroke-width: 1.5;" x1="240.5" x2="358.5" y1="68.9531" y2="68.9531"/><path d="M299.5,97.3281 C299.5,109.6191 299.5,123.3581 299.5,136.9181 " fill="none" style="stroke: #A80036; stroke-width: 1.0;"/><polygon fill="none" points="292.5,97.1191,299.5,77.1191,306.5,97.1191,292.5,97.1191" style="stroke: #A80036; stroke-width: 1.0;"/><path d="M248.883,304.9081 C240.551,320.0431 232.481,334.7051 225.837,346.7731 " fill="none" style="stroke: #A80036; stroke-width: 1.0;"/><polygon fill="none" points="242.936,301.1941,258.713,287.0491,255.201,307.9451,242.936,301.1941" style="stroke: #A80036; stroke-width: 1.0;"/><path d="M156.074,279.3951 C168.954,302.7951 182.79,327.9291 193.154,346.7571 " fill="none" style="stroke: #A80036; stroke-width: 1.0;"/><polygon fill="none" points="149.772,282.4621,146.259,261.5661,162.036,275.7111,149.772,282.4621" style="stroke: #A80036; stroke-width: 1.0;"/><path d="M209.5,428.4001 C209.5,444.0001 209.5,460.7021 209.5,474.4251 " fill="none" style="stroke: #A80036; stroke-width: 1.0;"/><polygon fill="none" points="202.5,428.1951,209.5,408.1951,216.5,428.1951,202.5,428.1951" style="stroke: #A80036; stroke-width: 1.0;"/><path d="M236.275,553.0771 C246.762,571.5341 258.471,592.1415 267.725,608.4286 " fill="none" style="stroke: #A80036; stroke-width: 1.0;"/><polygon fill="none" points="230.126,556.4241,226.331,535.5761,242.298,549.5071,230.126,556.4241" style="stroke: #A80036; stroke-width: 1.0;"/><path d="M341.783,558.3601 C329.6,575.2881 316.52,593.4627 305.938,608.1651 " fill="none" style="stroke: #A80036; stroke-width: 1.0;"/><polygon fill="none" points="336.176,554.1671,353.541,542.0231,347.539,562.3451,336.176,554.1671" style="stroke: #A80036; stroke-width: 1.0;"/><path d="M182.36,553.0911 C173.122,569.1351 162.95,586.8026 154.29,601.844 " fill="none" style="stroke: #A80036; stroke-width: 1.0;"/><polygon fill="none" points="176.398,549.4161,192.444,535.5761,188.531,556.4021,176.398,549.4161" style="stroke: #A80036; stroke-width: 1.0;"/><path d="M87.7161,559.4661 C96.046,573.7461 104.8481,588.8356 112.485,601.9271 " fill="none" style="stroke: #A80036; stroke-width: 1.0;"/><polygon fill="none" points="81.5716,562.8251,77.5406,542.0231,93.6645,555.7711,81.5716,562.8251" style="stroke: #A80036; stroke-width: 1.0;"/></g></svg>